<?xml version="1.0" encoding="UTF-8"?>
<svg width="300px" height="200px" viewBox="0 0 300 200" version="1.1" xmlns="http://www.w3.org/2000/svg" xmlns:xlink="http://www.w3.org/1999/xlink">
    <!-- Generator: Sketch 51.3 (57544) - http://www.bohemiancoding.com/sketch -->
    <title>candy-canes-with-red-bow</title>
    <desc>Created with Sketch.</desc>
    <defs></defs>
    <g id="candy-canes-with-red-bow" stroke="none" stroke-width="1" fill="none" fill-rule="evenodd">
        <g id="Candycanes" transform="translate(76.000000, 41.000000)" fill-rule="nonzero">
            <path d="M16.384234,7.458832 L27.732484,23.348288 C27.732484,23.348288 37.5159947,19.790336 42.4597713,27.920208 L45.4056755,4.322512 C45.4056755,4.322512 28.0511383,-1.3324 16.384234,7.458832 Z" id="Shape" fill="#FFFFFF"></path>
            <path d="M2.21698936,35.138912 L23.5063138,38.67056 C23.5063138,38.67056 29.0169149,44.033104 29.0568564,47.4104 C29.1081755,51.750064 26.7586011,57.850064 20.7745585,59.050064 C14.790516,60.250064 2.30962234,50.42776 2.21698936,35.138912 Z" id="Shape" fill="#FFFFFF"></path>
            <polygon id="Shape" fill="#FFFFFF" points="62.8617021 20.5504 59.6989362 37.9376 68.8537234 44.792 74.9111702 35.616"></polygon>
            <polygon id="Shape" fill="#FFFFFF" points="52.0984043 68.6912 44.3893617 77.28 49.2404255 106.6848 60.0164894 92.376"></polygon>
            <path d="M132.519548,7.458832 L121.171298,23.348288 C121.171298,23.348288 111.387787,19.790336 106.444011,27.920208 L103.498106,4.322512 C103.498106,4.322512 120.852628,-1.3324 132.519548,7.458832 Z" id="Shape" fill="#FFFFFF"></path>
            <path d="M146.68684,35.138912 L125.397516,38.67056 C125.397516,38.67056 119.886915,44.033104 119.846973,47.4104 C119.795654,51.750064 122.145181,57.850064 128.129223,59.050064 C134.113266,60.250064 146.594144,50.42776 146.68684,35.138912 Z" id="Shape" fill="#FFFFFF"></path>
            <polygon id="Shape" fill="#FFFFFF" points="86.0414894 20.5504 89.2042553 37.9376 80.0494681 44.792 73.9920213 35.616"></polygon>
            <polygon id="Shape" fill="#FFFFFF" points="96.8047872 68.6912 104.515426 77.28 99.662766 106.6848 88.8867021 92.376"></polygon>
            <path d="M146.68684,35.138912 C146.144144,13.770912 132.519548,7.458912 132.519548,7.458912 L121.171298,23.348368 C129.599207,29.399568 125.397532,38.67064 125.397532,38.67064 L146.68684,35.138912 Z" id="Shape" fill="#2D9693"></path>
            <rect id="Rectangle-path" fill="#FB5956" x="65.5471809" y="40.238576" width="17.7950585" height="25.638896" rx="4.990416"></rect>
            <path d="M95.7750691,68.336032 C95.7750691,68.336032 96.5441064,83.472816 102.184713,90.636624 L91.2795532,87.494608 L85.7643085,98.680208 C85.7643085,98.680208 78.1886383,80.444624 83.1078085,63.100816 C83.1078085,63.100816 122.149298,81.945808 117.476096,64.369328 C114.734399,54.057456 113.867862,45.206416 117.390021,37.057184 C117.542532,36.7043093 117.70334,36.352736 117.872447,36.002464 C118.363279,34.9640956 118.352105,33.7573871 117.842128,32.728336 C115.797516,28.514112 108.275191,20.753488 83.1077287,43.01528 L83.1077287,63.100816" id="Shape" fill="#FB5956"></path>
            <path d="M83.3449521,42.379952 C83.5312713,46.968352 96.6849149,46.483712 106.720633,43.310816 C111.99808,41.642288 116.413314,39.230368 117.627181,36.421856 C117.779691,36.0689813 117.9405,35.717408 118.109606,35.367136 C118.600439,34.3287676 118.589264,33.1220591 118.079287,32.093008 C116.034739,27.878768 108.512415,20.118224 83.3449521,42.379952 Z" id="Shape" fill="#C93E4F"></path>
            <path d="M53.114367,68.336032 C53.114367,68.336032 52.3453298,83.472816 46.7047553,90.636624 L57.6099149,87.494608 L63.1251596,98.680208 C63.1251596,98.680208 70.7007979,80.444624 65.7816277,63.100816 C65.7816277,63.100816 26.7401383,81.945808 31.4133404,64.369328 C34.1550372,54.057456 35.0215745,45.206416 31.4994149,37.057184 C31.3469468,36.7042773 31.1861383,36.3526933 31.0169894,36.002432 C30.5261569,34.9640636 30.5373313,33.7573551 31.0473085,32.728304 C33.0919202,28.51408 40.6142447,20.753456 65.7817074,43.015248 L65.7817074,63.100816" id="Shape" fill="#FB5956"></path>
            <path d="M65.2601862,42.379952 C64.9758883,49.381248 34.500133,44.571104 30.9779574,36.421856 C30.8254468,36.0689813 30.6646383,35.717408 30.4955319,35.367136 C30.0046995,34.3287676 30.0158739,33.1220591 30.5258511,32.093008 C32.5703989,27.878768 40.0927394,20.118224 65.2601862,42.379952 Z" id="Shape" fill="#C93E4F"></path>
            <path d="M74.4454521,57.48384 C74.022159,57.4840864 73.6161324,57.3155946 73.3168189,57.0154829 C73.0175054,56.7153713 72.8494617,56.3082619 72.8497074,55.88384 L72.8497074,51.043216 C72.8497074,50.1595604 73.5641467,49.443216 74.4454521,49.443216 C75.3267576,49.443216 76.0411968,50.1595604 76.0411968,51.043216 L76.0411968,55.88384 C76.0414425,56.3082619 75.8733988,56.7153713 75.5740854,57.0154829 C75.2747719,57.3155946 74.8687452,57.4840864 74.4454521,57.48384 Z" id="Shape" fill="#FFFFFF"></path>
            <path d="M70.1253723,67.477584 C69.4768243,67.4683381 68.8333327,67.3615487 68.2163989,67.160784 C68.8523703,70.9691829 69.0670325,74.8363447 68.856484,78.691984 C71.0716649,75.590032 73.3717872,72.369328 74.7719096,70.409168 L76.8655266,67.47752 L70.1253723,67.47752 L70.1253723,67.477584 Z" id="Shape" fill="#2D9693"></path>
            <path d="M45.268234,91.529152 C44.882088,90.9524521 44.9110453,90.1918416 45.3399149,89.646336 C45.6550944,89.238932 45.9488504,88.8153103 46.219984,88.3772 L44.3889309,77.279936 L28.7743138,99.1436 C26.5883329,102.2045 26.1970311,106.202205 27.7478079,109.630819 C29.2985846,113.059432 32.5558402,115.398065 36.2925978,115.765779 C40.0293555,116.133492 43.6779128,114.47442 45.8638936,111.41352 L49.2408245,106.685008 L46.8503989,92.19712 C46.2378219,92.3064306 45.6183268,92.0448884 45.268234,91.529152 Z" id="Shape" fill="#2D9693"></path>
            <path d="M107.169484,27.284896 L103.498106,4.322512 C96.7156577,7.78841998 90.9015971,12.8944933 86.5815053,19.179152 L90.4489202,35.012752 C95.2799738,31.0588648 101.033295,28.3998136 107.169484,27.284896 Z" id="Shape" fill="#2D9693"></path>
            <path d="M2.21698936,35.138912 C2.75968617,13.770912 16.3842819,7.458912 16.3842819,7.458912 L27.7325319,23.348368 C19.3046223,29.399568 23.5062979,38.67064 23.5062979,38.67064 L2.21698936,35.138912 Z" id="Shape" fill="#2D9693"></path>
            <path d="M78.7783936,67.477584 C79.4269417,67.4683381 80.0704332,67.3615487 80.687367,67.160784 C80.0513957,70.9691829 79.8367335,74.8363447 80.0472819,78.691984 C77.8321011,75.590032 75.5319787,72.369328 74.1318564,70.409168 L72.0382394,67.47752 L78.7784734,67.47752 L78.7783936,67.477584 Z" id="Shape" fill="#2D9693"></path>
            <path d="M103.635548,91.529152 C104.021694,90.9524521 103.992737,90.1918416 103.563867,89.646336 C103.248688,89.238932 102.954932,88.8153103 102.683798,88.3772 L104.514851,77.279936 L120.129468,99.1436 C122.315449,102.2045 122.706751,106.202205 121.155974,109.630818 C119.605197,113.059432 116.347942,115.398065 112.611184,115.765778 C108.874426,116.133492 105.225869,114.47442 103.039888,111.41352 L99.6629574,106.685008 L102.053383,92.19712 C102.66596,92.3064306 103.285455,92.0448884 103.635548,91.529152 Z" id="Shape" fill="#2D9693"></path>
            <path d="M41.8748511,26.60024 L45.4056755,4.322512 C52.1881358,7.7884156 58.0022078,12.8944893 62.3223085,19.179152 L58.5124681,35.6156 C51.662734,30.45272 46.7197553,27.467824 41.8748511,26.60024 Z" id="Shape" fill="#2D9693"></path>
            <path d="M134.372846,6.821072 C125.194963,0.24596639 113.322989,-1.2283179 102.822612,2.903104 C102.756736,2.92619554 102.692444,2.95359847 102.630149,2.985136 C96.7030465,5.32791838 91.576725,9.33693475 87.8671809,14.530448 L74.4517553,33.097632 L61.0367766,14.530448 C57.3272325,9.33693475 52.200911,5.32791838 46.2738085,2.985136 C46.2115138,2.95359847 46.1472212,2.92619554 46.0813457,2.903104 C33.4217548,-2.08159033 19.0112692,1.1506882 9.6766063,11.0687037 C0.341943435,20.9867193 -2.04210534,35.5985189 3.6538617,47.982016 C5.51065042,52.2202903 8.62968012,55.7788109 12.5831702,58.16952 C17.2192394,60.860144 21.6667553,61.011712 25.44575,58.610144 C26.1836488,58.1345521 26.4003334,57.1509389 25.9308806,56.4079536 C25.4614278,55.6649683 24.4818802,55.441227 23.7377926,55.907024 C20.988867,57.655456 17.774016,57.486704 14.1835904,55.400768 C10.7999839,53.3397165 8.13456348,50.2802659 6.55237234,46.641424 C5.16137528,43.610717 4.28444223,40.3685465 3.95769149,37.048448 L23.2453138,40.247664 C23.3317717,40.2626348 23.419375,40.2699536 23.5071117,40.269536 C23.5281436,40.269536 23.5464628,40.259376 23.5674947,40.258592 L25.7511277,43.31328 C26.7135373,44.6587692 27.2887296,46.2435373 27.4138936,47.894528 C27.4886186,48.7708534 28.247973,49.4267346 29.1233989,49.371088 C29.5454006,49.3396545 29.9376552,49.1413899 30.21384,48.8199259 C30.4900248,48.4984619 30.6275073,48.0801416 30.5960319,47.657024 C30.4275156,45.4205622 29.6490685,43.2735872 28.3457766,41.450768 L25.9194309,38.057024 C23.2707157,34.3469173 23.8492636,29.2293565 27.2590004,26.2078246 C30.6687373,23.1862927 35.8050978,23.2395981 39.1517287,26.331248 C38.294252,26.3137677 37.4373045,26.3862959 36.594883,26.547648 C33.5276022,27.1503277 30.932435,29.1868062 29.6119043,32.027328 C29.1553951,32.9784505 28.9889767,34.0435023 29.1335,35.08904 C29.1359259,35.1582207 29.1432152,35.2271437 29.1553138,35.295296 C29.2302699,35.780561 29.3735055,36.2527103 29.5807394,36.697632 C29.7396915,37.027312 29.8908564,37.360128 30.0342181,37.692944 C32.2609634,43.2404038 32.8511163,49.3125614 31.7344362,55.186704 C31.6727239,55.6065766 31.7801668,56.0338148 32.0330574,56.3741478 C32.285948,56.7144807 32.6635014,56.9399366 33.0824096,57.000768 C33.1592332,57.0126463 33.2368759,57.0183923 33.3146064,57.017952 C34.1060285,57.0168259 34.7771097,56.4343789 34.8916489,55.6492 C35.7107858,50.8265547 35.5852082,45.8901031 34.5219309,41.1156 C41.2793032,45.881232 51.1280319,47.430448 58.4148564,47.430448 C60.1697915,47.4376375 61.9233833,47.3320826 63.6648564,47.114432 L63.6648564,60.886704 C63.6659455,61.346289 63.714908,61.804503 63.8109468,62.253888 C60.5649149,63.769088 56.728266,65.377328 52.8327979,66.760144 C52.6654724,66.7908233 52.5040204,66.8477738 52.3543936,66.928896 C44.2776277,69.750768 36.2068936,71.516384 33.5047553,69.277328 C32.5557181,68.489824 32.3717766,66.977328 32.9546543,64.782016 C33.1032059,64.2293952 32.9459329,63.6393052 32.5422458,63.2346552 C32.1385587,62.8300052 31.549994,62.6724785 30.9988847,62.8215814 C30.4477754,62.9706843 30.0181303,63.4036882 29.87225,63.957024 C28.9372394,67.467968 29.4749096,70.088224 31.4695904,71.74296 C34.3973351,74.171088 40.287484,73.646864 46.4285319,72.083584 C46.3685319,72.099216 46.3081489,72.117568 46.2482128,72.1328 L27.5031596,98.07576 C23.5723849,103.580074 24.8343346,111.236978 30.3222568,115.180687 C35.810179,119.124397 43.4472804,117.862494 47.3829468,112.361696 L59.691133,95.324976 L61.6951809,99.389824 C61.9641303,99.93548 62.5186982,100.280739 63.125734,100.280448 C63.1428723,100.280448 63.1600106,100.280448 63.1771649,100.278848 C63.8022418,100.259368 64.3581246,99.8749577 64.598383,99.296032 C66.6184566,94.0462265 67.9680482,88.5612754 68.615016,82.971808 L74.4517872,74.892128 L80.181883,82.824208 C80.739091,88.5044091 82.1306689,94.0708235 84.3114947,99.34296 C84.5666191,99.905806 85.1224064,100.270832 85.7389362,100.280464 L85.7637979,100.280464 C86.3706446,100.28009 86.9248913,99.9350312 87.1943511,99.38984 L89.2046223,95.31328 L101.520995,112.361712 C103.40249,115.00924 106.261985,116.792191 109.462314,117.31328 C110.130788,117.425171 110.807324,117.481612 111.485048,117.482032 C116.064181,117.4701 120.253276,114.895064 122.341199,110.808761 C124.429122,106.722457 124.066247,101.809142 121.400798,98.075776 L102.655872,72.1328 L102.619649,72.12264 C108.703043,73.654288 114.517601,74.151152 117.420021,71.74296 C119.414702,70.088272 119.952324,67.467968 119.017362,63.957024 C115.944309,52.394528 115.896005,44.53984 118.853734,37.693024 C118.99866,37.360224 119.149824,37.027424 119.307213,36.700832 C119.515056,36.2552595 119.658566,35.7822834 119.73342,35.296144 C119.745606,35.2273288 119.753155,35.1577686 119.756016,35.087936 C119.900239,34.0427808 119.733829,32.978189 119.277612,32.027392 C117.95697,29.1869584 115.361855,27.1505206 112.294633,26.547712 C111.449485,26.3862941 110.589735,26.314544 109.729601,26.333648 L109.751814,26.331312 C113.098444,23.2395955 118.234847,23.1862113 121.644676,26.2077058 C125.054505,29.2292003 125.633179,34.3467904 122.984543,38.057008 L120.558197,41.450752 C119.254905,43.2735712 118.476458,45.4205462 118.307941,47.657008 C118.276466,48.0801256 118.413949,48.4984459 118.690133,48.8199099 C118.966318,49.1413739 119.358573,49.3396385 119.780574,49.371072 C120.656,49.4267186 121.415355,48.7708374 121.49008,47.894512 C121.615244,46.2435213 122.190436,44.6587532 123.152846,43.313264 L125.336479,40.258576 C125.357511,40.25936 125.37583,40.26952 125.396862,40.26952 C125.484598,40.2699376 125.572202,40.2626188 125.65866,40.247648 L144.946282,37.048432 C144.619531,40.3685305 143.742598,43.610701 142.351601,46.641408 C140.769415,50.2802618 138.103995,53.3397241 134.720383,55.400784 C131.129957,57.48672 127.91509,57.655472 125.166181,55.90704 C124.422116,55.4416704 123.442947,55.6655332 122.973629,56.4083128 C122.50431,57.1510923 122.720732,58.1344127 123.458239,58.61016 C127.237218,61.01176 131.684734,60.86016 136.320819,58.169536 C140.274309,55.7788269 143.393339,52.2203063 145.250128,47.982032 C151.928586,33.4207922 147.366168,16.1560433 134.372846,6.821072 Z M85.3173404,23.514048 L87.5742181,37.189824 C86.1078085,38.351152 84.5931117,39.618736 83.0452872,40.961312 C81.8092419,39.4942886 79.9933827,38.6450431 78.0780532,38.638224 L78.4555585,38.638224 L76.4223085,35.824592 L85.3173404,23.514048 Z M74.4517872,38.551936 L74.514516,38.638336 L74.3894415,38.638336 L74.4517872,38.551936 Z M63.586617,23.514048 L72.4812979,35.824592 L70.4483989,38.638224 L70.238016,38.638224 C68.4507814,38.6400322 66.7420699,39.374797 65.5088351,40.671824 C64.0837234,39.443312 62.684367,38.271824 61.3285745,37.197216 L63.586617,23.514048 Z M21.7076702,36.749984 L3.79293085,33.778896 C3.87276577,24.2283629 8.44520956,15.2762942 16.1276223,9.629664 C16.1742911,9.83916397 16.2625323,10.0371043 16.3870904,10.211696 L25.7523564,23.324192 C21.6950319,26.4825026 20.0726929,31.8676387 21.7076702,36.749984 Z M28.5238617,21.707024 L18.9832872,8.3492 C18.8776123,8.2116144 18.7499117,8.09255377 18.605383,7.996864 C26.1655183,3.52187865 35.2969921,2.5780376 43.6086277,5.412496 L41.6883723,17.055456 C41.6189534,17.474053 41.7184251,17.9031462 41.9648567,18.2481322 C42.2112883,18.5931182 42.584444,18.8256685 43.0020532,18.894512 C43.0885111,18.9094828 43.1761144,18.9168016 43.2638511,18.916384 C44.0438023,18.9149872 44.7086124,18.348823 44.8362181,17.577328 L46.6435106,6.617168 C51.3575089,8.79693249 55.4250737,12.1684856 58.4468032,16.400768 L60.9537181,19.870304 L58.36025,34.928896 C54.0081952,31.4953533 49.0989824,28.838835 43.8477819,27.075776 L42.9427713,25.822656 C39.6691156,21.265242 33.7005596,19.5616194 28.5238617,21.707024 Z M32.2518085,34.37656 C32.2587878,34.0470846 32.3375021,33.7231199 32.4824415,33.427344 C33.3669617,31.4860358 35.1318508,30.0923556 37.2213723,29.685152 C41.2745638,28.87656 49.1797234,30.668352 63.9181809,43.517568 C63.8878617,43.62968 63.8698777,43.74608 63.8437713,43.85976 C56.1665479,45.09568 38.3184468,43.48592 32.2518085,34.376544 L32.2518085,34.37656 Z M51.2289468,70.692176 C51.0551862,70.748816 50.8783138,70.798432 50.7041702,70.853888 C50.9075319,70.78904 51.1124574,70.726544 51.3150372,70.660144 C50.8450503,76.0271792 49.5544527,81.2897871 47.4885213,86.263344 L46.119117,77.961696 C46.1109309,77.914816 46.0817128,77.878096 46.0696489,77.832016 L51.2289468,70.692176 Z M44.7930532,110.491392 C41.8871714,114.557226 36.2453243,115.493441 32.187957,112.583096 C28.1305896,109.672751 27.1923073,104.016617 30.091633,99.94608 L43.4595053,81.444512 L47.6086011,106.594512 L44.7930532,110.491392 Z M50.2414202,102.949984 L48.4045266,91.815584 L47.1609628,92.174176 C46.9956579,92.2220656 46.8236793,92.2426495 46.6517766,92.23512 C46.8188749,92.24108 46.9858622,92.2205113 47.1465532,92.174176 L56.7708883,89.400736 L58.0923723,92.081984 L50.2414202,102.949984 Z M62.8686915,94.547648 L59.0413936,86.785152 C58.6994186,86.0915625 57.9113306,85.742851 57.1698245,85.957024 L50.213367,87.961712 C53.4235585,81.39608 54.3850585,72.59608 54.6328298,69.5164 C58.8466011,67.9852 62.5507713,66.360144 64.716883,65.3664 C67.4049468,76.975824 64.6310957,88.827328 62.8686117,94.547632 L62.8686915,94.547648 Z M69.0365319,76.946864 C69.1127518,73.6697208 68.875841,70.3927886 68.3290426,67.160928 C68.5508444,67.2371218 68.7766202,67.3011473 69.005367,67.35272 L72.4840106,72.167952 L69.0365319,76.946864 Z M74.4517713,69.440224 L73.0360106,67.477328 L75.8679149,67.477328 L74.4517713,69.440224 Z M79.8459787,76.917184 L76.4199149,72.168384 L78.9892394,68.611744 L80.6114734,67.195344 C80.0734368,70.4072933 79.8172965,73.6603567 79.8459947,76.917168 L79.8459787,76.917184 Z M78.0780372,67.477344 C78.210883,67.477344 78.3351596,67.446096 78.4660585,67.438288 C78.3426631,67.4606034 78.2177794,67.4736583 78.0924468,67.477344 L78.0780851,67.477344 L78.0780372,67.477344 Z M81.4596436,60.88672 C81.4580071,62.7586298 79.9449686,64.2757032 78.0780372,64.277344 L70.238016,64.277344 C68.3710846,64.2757032 66.8580461,62.7586298 66.8564096,60.88672 L66.8564096,45.228896 C66.8580197,43.3569674 68.3710659,41.8398649 70.238016,41.838224 L78.0780532,41.838224 C79.9449846,41.8398648 81.4580231,43.3569382 81.4596596,45.228848 L81.4596596,60.886704 L81.4596436,60.88672 Z M89.849766,86.785152 L85.9694894,94.652352 C82.8694849,85.2122051 82.2617219,75.1277747 84.2054415,65.382032 C86.3762128,66.377344 90.0648245,67.992976 94.256766,69.516432 C94.5045372,72.596112 95.4660372,81.396112 98.6762287,87.961744 L91.7213351,85.957056 C90.9798528,85.7429873 90.1918429,86.091647 89.8497819,86.785136 L89.849766,86.785152 Z M90.8034787,92.071088 L92.1202872,89.400768 L100.499543,91.815616 L98.6626489,102.950016 L90.8034787,92.071088 Z M118.812388,99.946096 C121.711714,104.016633 120.773432,109.672767 116.716064,112.583112 C112.658697,115.493457 107.01685,114.557242 104.110968,110.491408 L101.295436,106.594528 L105.444532,81.444528 L118.812388,99.946096 Z M102.834293,77.832016 C102.822213,77.878112 102.792995,77.914832 102.784824,77.961696 L101.411527,86.286304 C99.3386963,81.3064142 98.0444652,76.0357044 97.5744947,70.660128 C97.6243617,70.676528 97.6750266,70.691376 97.7248777,70.707792 L97.6750106,70.69216 L102.834293,77.832016 Z M111.66816,29.686704 C113.75771,30.0927991 115.522849,31.4860928 116.40709,33.427328 C116.55442,33.7285801 116.632816,34.0590113 116.636559,34.394512 C114.01988,37.8976987 110.340109,40.4549285 106.150074,41.682016 C105.321174,41.9771822 104.886763,42.8891975 105.178799,43.7211399 C105.470835,44.5530822 106.379192,44.9912292 107.209745,44.700768 C109.752293,43.8340158 112.165134,42.623786 114.381628,41.103504 C112.43292,49.195296 113.99983,57.504672 115.93491,64.782016 C116.517723,66.977328 116.333846,68.489824 115.384809,69.277328 C112.679527,71.51952 104.607293,69.7492 96.5272872,66.924208 C96.3826976,66.846771 96.2271424,66.7919716 96.0660213,66.761712 C91.952,65.302336 87.8921223,63.589056 84.5385532,62.001952 C84.6079568,61.6341506 84.6456281,61.2610377 84.6511489,60.886752 L84.6511489,47.041424 C86.5359047,47.3005059 88.4367635,47.4237393 90.3391011,47.410176 C93.165092,47.4061702 95.9868146,47.1899386 98.7805904,46.763296 C99.649048,46.6269285 100.243879,45.8119047 100.110796,44.9406774 C99.977714,44.0694501 99.1668636,43.4702947 98.2975106,43.6008 C93.7850259,44.3499713 89.1858361,44.4144954 84.6542128,43.792208 C99.6026702,30.687088 107.597766,28.858576 111.66816,29.686704 Z M120.38008,21.707024 C115.203377,19.5615991 109.234802,21.2652165 105.961138,25.82264 L105.052234,27.080448 C99.7664486,28.8582898 94.825561,31.5357123 90.4462553,34.995296 L87.9501596,19.870224 L90.4570745,16.400688 C93.478804,12.1684056 97.5463688,8.79685249 102.260367,6.617088 L104.06766,17.577248 C104.195265,18.348743 104.860075,18.9149072 105.640027,18.916304 C105.727763,18.9167216 105.815367,18.9094028 105.901824,18.894432 C106.319434,18.8255885 106.692589,18.5930382 106.939021,18.2480522 C107.185453,17.9030662 107.284924,17.473973 107.215505,17.055376 L105.295314,5.41248 C113.606949,2.5780216 122.738423,3.52186265 130.298559,7.996848 C130.15403,8.09253777 130.026329,8.2115984 129.920654,8.349184 L120.38008,21.707024 Z M127.196271,36.75 C128.831241,31.8676595 127.208903,26.4825322 123.151585,23.324224 L132.516851,10.211728 C132.641409,10.0371363 132.72965,9.83919597 132.776319,9.629696 C140.458727,15.2763229 145.031171,24.2283846 145.111011,33.778912 L127.196271,36.75 Z" id="Shape" fill="#662059"></path>
        </g>
    </g>
</svg>