<?xml version="1.0" encoding="UTF-8"?>
<svg width="300px" height="200px" viewBox="0 0 300 200" version="1.1" xmlns="http://www.w3.org/2000/svg" xmlns:xlink="http://www.w3.org/1999/xlink">
    <!-- Generator: Sketch 51.3 (57544) - http://www.bohemiancoding.com/sketch -->
    <title>candy-cane</title>
    <desc>Created with Sketch.</desc>
    <defs></defs>
    <g id="candy-cane" stroke="none" stroke-width="1" fill="none" fill-rule="evenodd">
        <g id="Candycane2" transform="translate(108.000000, 40.000000)" fill-rule="nonzero">
            <path d="M39.3847202,23.7859905 C39.3847202,19.7713795 38.5048734,3.03996562 38.5048734,3.03996562 C36.374718,1.34593898 22.8528623,11.7189514 21.1394765,12.5775677 C15.6660317,15.3927118 13.0425129,21.7748334 14.9488482,27.6372435 C16.8551835,33.4996536 22.7270206,37.1068421 28.804423,36.1490038 C34.8818255,35.1911655 39.3656366,29.9518593 39.3847202,23.7859905 Z" id="Shape" fill="#FFFFFF"></path>
            <polygon id="Shape" fill="#FFFFFF" points="45.1037242 91.7559089 10.7202383 91.7559089 30.9104065 69.1998281 66.4284316 69.1998281"></polygon>
            <path d="M81.7794424,47.4559519 L54.5968078,47.4559519 C54.5968078,47.4559519 63.6499681,38.8697894 56.7732709,30.0051569 L72.7262822,14.01633 C72.7262822,14.01633 84.5347521,25.0159003 81.7794424,47.4559519 Z" id="Shape" fill="#FFFFFF"></path>
            <path d="M56.750117,30.0051569 L72.7031283,14.01633 C72.7031283,14.01633 62.9553522,-0.371293511 38.5280272,3.03996562 L38.5280272,28.0558659 C44.3049275,24.3014809 51.9158464,25.1146186 56.7732709,30.0051569" id="Shape" fill="#FB5956"></path>
            <path d="M5.97369653,113.755049 C3.69023426,111.469775 2.40712013,108.368288 2.40712013,105.134078 C2.40712013,101.899868 3.69023426,98.798381 5.97369653,96.513107 L10.604469,91.8719381 L44.9879549,91.8719381 L23.0612471,113.847873 C18.300859,118.511413 10.6833664,118.470033 5.97369653,113.755049 Z" id="Shape" fill="#FB5956"></path>
            <path d="M33.9667163,68.4572411 L50.8458821,51.5401805 L55.4766546,46.8990116 L81.6405193,46.7365707 C78.9804618,55.1508212 74.2693807,62.7676846 67.9334326,68.8981521 L33.8741009,68.5732703" id="Shape" fill="#FB5956"></path>
            <path d="M61.3345818,60.3816072 C62.6052676,60.3886402 63.7038423,59.4948021 63.9581231,58.2470038 C64.2124039,56.9992056 63.5515231,55.7452075 62.3798524,55.252291 C61.2081818,54.7593745 59.8522649,55.1649149 59.1417441,56.2207751 C58.4312232,57.2766352 58.5641199,58.6885478 59.459119,59.5926085 C59.9568954,60.0918574 60.6303983,60.375197 61.3345818,60.3816072" id="Shape" fill="#FFFFFF"></path>
            <path d="M33.1563311,54.5801461 C27.064257,54.5813923 22.0154863,59.3143888 21.6077245,65.4064478 C21.1999627,71.4985068 25.5727439,76.8649538 31.6100665,77.6817104 C37.647389,78.4984671 43.2833088,74.4860429 44.5017238,68.5036528 L33.8972547,68.5036528 L42.7188764,59.662226 C40.566388,56.487131 36.9863836,54.5845132 33.1563311,54.5801461" id="Shape" fill="#F7DCDC"></path>
            <path d="M42.7883379,59.6854319 L33.9667163,68.5268586 L44.5711854,68.5268586 C45.2172121,65.4297129 44.5732119,62.2024826 42.7883379,59.5926085" id="Shape" fill="#FF9994"></path>
            <path d="M70.8739732,2.32058444 C67.6607008,2.31849875 64.5911111,3.65500284 62.3996595,6.01031371 C66.438078,7.79037157 69.9768155,10.5400465 72.7031283,14.01633 L63.7194297,23.0201977 C67.7045176,26.1616962 73.2655233,26.3388092 77.4415821,23.4572357 C81.6176409,20.5756622 83.4370162,15.3059222 81.9310119,10.4538008 C80.4250076,5.6016794 75.9440593,2.29622783 70.8739732,2.2973786" id="Shape" fill="#F7DCDC"></path>
            <path d="M62.3996595,6.03351955 C60.1994085,8.40835832 59.0904119,11.59723 59.341103,14.8282665 C59.591794,18.0593029 61.1793237,21.0380149 63.7194297,23.0434035 L72.7031283,14.0395359 C69.9768155,10.5632524 66.438078,7.81357742 62.3996595,6.03351955" id="Shape" fill="#FF9994"></path>
            <path d="M15.9298574,34.460679 C18.6703723,37.2112365 22.3896383,38.756811 26.268057,38.756811 C30.1464757,38.756811 33.8657418,37.2112365 36.6062567,34.460679 L40.0098744,31.0494199 C43.8461321,27.2045501 50.0659341,27.2045503 53.9021915,31.0494203 C57.7384489,34.8942903 57.7384491,41.1280562 53.902192,44.9729265 L4.32977229,94.6566394 C1.58537617,97.4033069 0.0432637894,101.130923 0.0432637894,105.018049 C0.0432637894,108.905175 1.58537617,112.632791 4.32977229,115.379459 L5.97369653,113.731844 L3.65831028,113.731844 C3.65475209,114.348662 3.89636321,114.941521 4.32977229,115.379459 C7.07028713,118.130016 10.7895532,119.675591 14.6679719,119.675591 C18.5463906,119.675591 22.2656567,118.130016 25.0061715,115.379459 L73.4672058,66.8096261 C88.7066447,51.5313091 88.7066447,26.76521 73.4672058,11.486893 L71.8232815,13.134508 L74.1386678,13.134508 C74.142226,12.5176897 73.9006149,11.924831 73.4672058,11.486893 C58.2231127,-3.78675945 33.5124906,-3.78675945 18.2683975,11.486893 L15.9530113,13.8074774 C15.2922552,14.3746048 15.0044393,15.2650792 15.2078965,16.1127901 C15.4113537,16.9605009 16.0717453,17.6223751 16.9175573,17.8262891 C17.7633692,18.0302031 18.6518489,17.741741 19.2177059,17.0795015 L21.5330921,14.7589171 C34.9656817,1.31564153 56.7236139,1.31564153 70.1562034,14.7589171 L71.8001277,13.1113021 L69.4847414,13.1113021 C69.4811832,13.7281204 69.7227944,14.3209791 70.1562034,14.7589171 C83.5693656,28.2216636 83.5693656,50.0284438 70.1562034,63.4911904 L21.5793999,112.061023 C19.707471,113.940075 17.1668407,114.995962 14.5174718,114.995962 C11.8681029,114.995962 9.3274726,113.940075 7.45554373,112.061023 L5.81161949,113.708638 L8.12700575,113.708638 C8.13056394,113.091819 7.88895281,112.498961 7.45554373,112.061023 C5.58070032,110.184891 4.5271789,107.638557 4.5271789,104.98324 C4.5271789,102.327923 5.58070032,99.7815891 7.45554373,97.9054577 L57.0279634,48.2217447 C62.55392,42.5581534 62.503361,33.4923596 56.9145811,27.8910326 C51.3258013,22.2897056 42.2803152,22.2390331 36.6294105,27.7773958 L33.2257927,31.1886549 C31.3538639,33.0677075 28.8132335,34.1235941 26.1638647,34.1235941 C23.5144958,34.1235941 20.9738654,33.0677075 19.1019366,31.1886549 C18.5360796,30.5264154 17.6475999,30.2379534 16.801788,30.4418673 C15.955976,30.6457813 15.2955844,31.3076555 15.0921272,32.1553664 C14.88867,33.0030772 15.1764859,33.8935516 15.837242,34.460679 L15.9298574,34.460679 Z" id="Shape" fill="#662059"></path>
            <path d="M10.7202383,94.0764933 L30.1926367,94.0764933 C31.4713892,94.0764933 32.508023,93.0375323 32.508023,91.7559089 C32.508023,90.4742855 31.4713892,89.4353245 30.1926367,89.4353245 L10.7202383,89.4353245 C9.44148583,89.4353245 8.4048521,90.4742855 8.4048521,91.7559089 C8.4048521,93.0375323 9.44148583,94.0764933 10.7202383,94.0764933" id="Shape" fill="#662059"></path>
            <path d="M33.1563311,71.5204125 L67.539817,71.5204125 C68.8185695,71.5204125 69.8552032,70.4814515 69.8552032,69.1998281 C69.8552032,67.9182047 68.8185695,66.8792437 67.539817,66.8792437 L33.1563311,66.8792437 C31.8775786,66.8792437 30.8409449,67.9182047 30.8409449,69.1998281 C30.8409449,70.4814515 31.8775786,71.5204125 33.1563311,71.5204125" id="Shape" fill="#662059"></path>
            <path d="M66.5442009,48.9643318 L81.7794424,48.9643318 C83.058195,48.9643318 84.0948287,47.9253707 84.0948287,46.6437473 C84.0948287,45.3621239 83.058195,44.3231629 81.7794424,44.3231629 L66.5905086,44.3231629 C65.3117561,44.3231629 64.2751224,45.3621239 64.2751224,46.6437473 C64.2751224,47.9253707 65.3117561,48.9643318 66.5905086,48.9643318" id="Shape" fill="#662059"></path>
            <path d="M36.212641,3.06317147 L36.212641,28.0790718 C36.212641,29.3606952 37.2492747,30.3996562 38.5280272,30.3996562 C39.8067798,30.3996562 40.8434135,29.3606952 40.8434135,28.0790718 L40.8434135,3.06317147 C40.8434135,1.78154807 39.8067798,0.742587022 38.5280272,0.742587022 C37.2492747,0.742587022 36.212641,1.78154807 36.212641,3.06317147" id="Shape" fill="#662059"></path>
            <path d="M58.0698872,31.9776536 L72.5178974,17.4972067 C73.3046119,16.576491 73.251718,15.2040187 72.396486,14.3468666 C71.541254,13.4897145 70.1718561,13.4367019 69.2532028,14.2251826 L54.8051926,28.7056296 C54.0184781,29.6263453 54.071372,30.9988176 54.926604,31.8559697 C55.781836,32.7131217 57.1512339,32.7661344 58.0698872,31.9776536" id="Shape" fill="#662059"></path>
        </g>
    </g>
</svg>