<?xml version="1.0" encoding="UTF-8"?>
<svg width="300px" height="200px" viewBox="0 0 300 200" version="1.1" xmlns="http://www.w3.org/2000/svg" xmlns:xlink="http://www.w3.org/1999/xlink">
    <!-- Generator: Sketch 51.3 (57544) - http://www.bohemiancoding.com/sketch -->
    <title>christmas-tree-with-presents</title>
    <desc>Created with Sketch.</desc>
    <defs></defs>
    <g id="christmas-tree-with-presents" stroke="none" stroke-width="1" fill="none" fill-rule="evenodd">
        <g id="Christmastree_withpresents" transform="translate(26.000000, 0.000000)" fill-rule="nonzero">
            <ellipse id="Oval" fill="#F7DCDC" cx="201.987847" cy="80.7100592" rx="9.20942584" ry="9.19903474"></ellipse>
            <ellipse id="Oval" fill="#F7DCDC" cx="82.837177" cy="56.5521801" rx="10.9726794" ry="10.9602988"></ellipse>
            <polyline id="Shape" fill="#2D9693" points="208.778756 163.905987 67.8733493 163.905987 138.320096 93.538726 208.778756 163.905987"></polyline>
            <path d="M166.639378,119.017553 C165.364593,119.267462 164.256603,119.46977 163.17244,119.600674 C162.514455,119.689402 162.053062,120.294131 162.14189,120.951373 C162.230718,121.608616 162.83613,122.069489 163.494115,121.980761 C164.578278,121.826055 165.781579,121.623748 167.068278,121.373839 C167.726263,121.245677 168.155652,120.60898 168.027344,119.951737 C167.899037,119.294494 167.261622,118.86559 166.603636,118.993752 L166.639378,119.017553 Z M178.076699,116.078146 C176.885311,116.435159 175.777321,116.768371 174.66933,117.077783 C174.034374,117.255238 173.66366,117.913247 173.841316,118.547486 C174.018972,119.181725 174.677724,119.552022 175.312679,119.374566 C176.444498,119.053254 177.600144,118.720042 178.779617,118.351129 C179.388484,118.142521 179.721367,117.488554 179.531389,116.874234 C179.34141,116.259913 178.697276,115.907407 178.076699,116.078146 Z M189.192344,112.0558 C188.104211,112.51595 187.008134,112.956266 185.904115,113.376748 C185.50614,113.529806 185.220143,113.883315 185.153858,114.304112 C185.087572,114.724909 185.251068,115.149064 185.582757,115.416802 C185.914447,115.684541 186.363939,115.755187 186.761914,115.602129 C187.889761,115.173713 189.009665,114.725464 190.121627,114.25738 C190.529949,114.10283 190.820913,113.737542 190.879926,113.305383 C190.938938,112.873223 190.756543,112.443443 190.404574,112.185307 C190.052606,111.927171 189.587466,111.882045 189.192344,112.0677 L189.192344,112.0558 Z M199.688469,106.783908 C198.711531,107.37893 197.686938,107.973951 196.638517,108.533272 C196.05949,108.845462 195.843462,109.567407 196.156005,110.14578 C196.468548,110.724154 197.191308,110.939938 197.770335,110.627748 C198.858469,110.04066 199.914833,109.437705 200.939426,108.818882 C201.305478,108.593546 201.523373,108.190262 201.511032,107.760941 C201.498691,107.331621 201.257989,106.941489 200.879597,106.737504 C200.501204,106.533519 200.042607,106.546672 199.676555,106.772008 L199.688469,106.783908 Z M208.492823,99.4889425 C207.787748,100.387396 207.015075,101.230808 206.181531,102.011834 C205.870813,102.30307 205.739245,102.737762 205.836388,103.152167 C205.933531,103.566571 206.244627,103.89773 206.652488,104.020898 C207.06035,104.144067 207.503014,104.040533 207.813732,103.749298 C208.73165,102.898373 209.583929,101.979427 210.363301,101.000298 C210.631456,100.66442 210.69985,100.211159 210.54272,99.8112536 C210.38559,99.4113483 210.026808,99.1255539 209.601524,99.0615263 C209.176239,98.9974987 208.749063,99.1649652 208.480909,99.5008429 L208.492823,99.4889425 Z M210.649234,89.5520809 C211.015549,90.5428197 211.20507,91.5900543 211.209187,92.6461935 C211.209187,93.3034363 211.742589,93.8362368 212.400574,93.8362368 C213.058559,93.8362368 213.591962,93.3034363 213.591962,92.6461935 C213.587273,91.3140955 213.349383,89.9930804 212.889043,88.7428515 C212.753127,88.3314856 212.404162,88.0263843 211.97796,87.946289 C211.551759,87.8661938 211.115649,88.0237575 210.83936,88.3576584 C210.563071,88.6915594 210.490249,89.1490501 210.649234,89.5520809 Z M203.119665,82.2571155 C204.154536,82.6182022 205.14246,83.101619 206.062392,83.6970679 C206.61131,84.0453242 207.338397,83.8895878 207.696102,83.34714 C208.053806,82.8046922 207.909973,82.0759428 207.372919,81.7096955 C206.292962,81.0105651 205.133017,80.4432328 203.917895,80.0198341 C203.510126,79.8442513 203.038437,79.9097554 202.694082,80.1897865 C202.349728,80.4698177 202.189858,80.9179012 202.279295,81.3523536 C202.368732,81.7868061 202.692632,82.1355248 203.119665,82.2571155 Z M191.837225,81.2098774 C192.957129,81.1146739 194.06512,81.0670722 195.161196,81.0670722 L195.304163,81.0670722 C195.962148,81.0670722 196.49555,80.5342716 196.49555,79.8770289 C196.49555,79.2197861 195.962148,78.6869856 195.304163,78.6869856 L195.149282,78.6869856 C193.957895,78.6869856 192.766507,78.6869856 191.57512,78.8416912 C190.917135,78.8942707 190.426404,79.4696953 190.479043,80.1269379 C190.531682,80.7841806 191.107757,81.2743571 191.765742,81.2217778 L191.837225,81.2098774 Z M180.340335,83.3281544 C181.436411,83.0306436 182.592057,82.7450332 183.759617,82.4832237 C184.417602,82.3386302 184.833656,81.6886136 184.688899,81.0313709 C184.544143,80.3741283 183.893392,79.9585438 183.235407,80.1031371 C182.044019,80.376847 180.852632,80.6624574 179.661244,80.9718687 C179.006549,81.1558968 178.625166,81.8352174 178.809402,82.4891738 C178.993638,83.1431303 179.673726,83.5240827 180.328421,83.3400549 L180.340335,83.3281544 Z M169.212775,87.1005917 L169.427225,87.0053883 C169.868038,86.8268818 170.940287,86.3865657 172.489091,85.8153449 C172.889194,85.6686642 173.180563,85.3199139 173.253442,84.9004649 C173.326321,84.4810159 173.169638,84.0545925 172.842413,83.7818242 C172.515189,83.5090559 172.067137,83.4313828 171.667033,83.5780635 C169.558278,84.3515917 168.283493,84.8990116 168.259665,84.910912 C167.868075,85.0788508 167.595926,85.442708 167.545734,85.865422 C167.495542,86.2881361 167.674933,86.7054867 168.016332,86.9602619 C168.357731,87.2150372 168.809271,87.2685306 169.200861,87.1005917 L169.212775,87.1005917 Z" id="Shape" fill="#FB5956"></path>
            <path d="M91.1173206,142.651813 L138.48689,95.3356914 L201.928278,158.705497 C202.431339,159.192366 202.71509,159.862293 202.714593,160.561965 C202.710813,161.255083 202.447284,161.921653 201.975933,162.430333 C201.478545,162.96544 200.776792,163.263998 200.045885,163.251463 L126.942344,163.251463 C126.284359,163.251463 125.750957,163.784263 125.750957,164.441506 C125.750957,165.098749 126.284359,165.631549 126.942344,165.631549 L200.057799,165.631549 C201.447041,165.643457 202.777807,165.073772 203.727273,164.060692 C204.613839,163.110685 205.107583,161.860709 205.109282,160.561965 C205.116676,159.219716 204.579406,157.931725 203.620048,156.991835 L139.28512,92.7294965 C138.820434,92.2680887 138.069949,92.2680887 137.605263,92.7294965 L89.3898086,140.890549 C88.9850028,141.362711 89.0122194,142.066543 89.4522811,142.506108 C89.8923428,142.945673 90.5969698,142.972859 91.0696651,142.56851 L91.1173206,142.651813 Z" id="Shape" fill="#662059"></path>
            <path d="M120.246746,163.251463 L76.9278947,163.251463 C76.1969879,163.263998 75.4952352,162.96544 74.9978469,162.430333 C74.5264957,161.921653 74.2629669,161.255083 74.2591866,160.561965 C74.2573139,159.862016 74.5412833,159.191573 75.0455024,158.705497 L80.0135885,153.421705 C80.4089917,152.938469 80.3634836,152.232207 79.909325,151.80359 C79.4551664,151.374973 78.7466638,151.369628 78.2860766,151.791346 L73.3060766,157.051337 L74.1757895,157.872467 L73.3299043,157.027536 C72.3705458,157.967426 71.8332765,159.255418 71.8406699,160.597666 C71.8423688,161.896411 72.3361135,163.146386 73.2226794,164.096394 C74.1721452,165.109473 75.5029111,165.679158 76.8921531,165.667251 L120.211005,165.667251 C120.86899,165.667251 121.402392,165.13445 121.402392,164.477207 C121.402392,163.819965 120.86899,163.287164 120.211005,163.287164 L120.246746,163.251463 Z" id="Shape" fill="#662059"></path>
            <path d="M149.018756,129.049618 L91.5700478,129.049618 C90.0843204,129.051655 88.7439811,128.158602 88.1751418,126.78763 C87.6063026,125.416658 87.9212342,123.838354 88.972823,122.78999 L138.48689,73.3317907 L188.000957,122.78999 C189.052546,123.838354 189.367477,125.416658 188.798638,126.78763 C188.229799,128.158602 186.88946,129.051655 185.403732,129.049618 L157.275072,129.049618" id="Shape" fill="#2D9693"></path>
            <path d="M149.018756,127.859575 L91.5700478,127.859575 C90.8889553,127.874254 90.2341448,127.597032 89.7710526,127.097947 C89.3315574,126.625324 89.0850544,126.005517 89.0800478,125.360484 C89.0792712,124.708519 89.3462758,124.084777 89.8187081,123.634921 L138.498804,75.0097517 L187.1789,123.634921 C187.651332,124.084777 187.918336,124.708519 187.91756,125.360484 C187.912553,126.005517 187.66605,126.625324 187.226555,127.097947 C186.763463,127.597032 186.108652,127.874254 185.42756,127.859575 L157.275072,127.859575 C156.617087,127.859575 156.083684,128.392375 156.083684,129.049618 C156.083684,129.706861 156.617087,130.239661 157.275072,130.239661 L185.415646,130.239661 C186.767752,130.265255 188.067073,129.71583 188.989809,128.728307 C189.844514,127.81436 190.321234,126.611149 190.324163,125.360484 C190.325261,124.080088 189.809917,122.853237 188.894498,121.95696 L139.380431,72.4987604 C138.915745,72.0373525 138.16526,72.0373525 137.700574,72.4987604 L88.1865072,121.95696 C87.2710879,122.853237 86.7557438,124.080088 86.7568421,125.360484 C86.7597708,126.611149 87.236491,127.81436 88.0911962,128.728307 C89.0139315,129.71583 90.3132527,130.265255 91.6653589,130.239661 L149.125981,130.239661 C149.783966,130.239661 150.317368,129.706861 150.317368,129.049618 C150.317368,128.392375 149.783966,127.859575 149.125981,127.859575 L149.018756,127.859575 Z" id="Shape" fill="#662059"></path>
            <path d="M106.081148,88.1121285 L138.451148,55.7786519 L175.503301,92.7889987 C176.462954,93.8116572 176.734718,95.3006237 176.198104,96.5957618 C175.661491,97.8908999 174.415797,98.7525577 173.013301,98.7987174 L103.84134,98.7987174 C102.438845,98.7525577 101.19315,97.8908999 100.656537,96.5957618 C100.119924,95.3006237 100.391687,93.8116572 101.35134,92.7889987 L102.197225,91.944068" id="Shape" fill="#2D9693"></path>
            <path d="M106.927033,88.921358 L138.463062,57.4209117 L174.66933,93.6815312 C175.110127,94.1049104 175.359574,94.6891603 175.360335,95.2999901 C175.3611,95.9111405 175.126477,96.4991659 174.705072,96.9422498 C174.268366,97.4096013 173.653188,97.6692421 173.013301,97.6562758 L103.84134,97.6562758 C103.201453,97.6692421 102.586276,97.4096013 102.149569,96.9422498 C101.728164,96.4991659 101.493541,95.9111405 101.494306,95.2999901 C101.495067,94.6891603 101.744514,94.1049104 102.185311,93.6815312 L103.031196,92.8366004 C103.436002,92.3644385 103.408785,91.6606066 102.968724,91.2210414 C102.528662,90.7814763 101.824035,90.7542903 101.35134,91.1586394 L100.505455,92.0035701 C99.6154284,92.8749838 99.1131802,94.0670134 99.1115311,95.3118905 C99.1096503,96.5226993 99.5697685,97.6887191 100.39823,98.5726092 C101.298107,99.5034635 102.546179,100.016796 103.84134,99.9887607 L172.941818,99.9887607 C174.241862,99.9980243 175.486329,99.4628167 176.373014,98.513107 C177.201475,97.629217 177.661594,96.4631971 177.659713,95.2523884 C177.658064,94.0075112 177.155816,92.8154816 176.265789,91.944068 L139.213636,54.9337212 C138.748951,54.4723133 137.998466,54.4723133 137.53378,54.9337212 L105.16378,87.2671978 C104.758974,87.7393597 104.786191,88.4431916 105.226252,88.8827568 C105.666314,89.322322 106.370941,89.3495079 106.843636,88.9451588 L106.927033,88.921358 Z" id="Shape" fill="#662059"></path>
            <path d="M157.346555,57.5875178 L166.806172,67.0364616 C167.765825,68.0591201 168.037588,69.5480866 167.500975,70.8432247 C166.964362,72.1383628 165.718667,73.0000206 164.316172,73.0461803 L112.669522,73.0461803 C111.267026,73.0000206 110.021332,72.1383628 109.484718,70.8432247 C108.948105,69.5480866 109.219869,68.0591201 110.179522,67.0364616 L138.498804,38.7491323 L153.140957,53.3747645" id="Shape" fill="#2D9693"></path>
            <path d="M156.512584,58.4205481 L165.972201,67.8694919 C166.412998,68.2928711 166.662445,68.877121 166.663206,69.4879508 C166.663971,70.0991012 166.429348,70.6871266 166.007943,71.1302106 C165.571236,71.597562 164.956059,71.8572029 164.316172,71.8442366 L112.669522,71.8442366 C112.029635,71.8572029 111.414457,71.597562 110.977751,71.1302106 C110.556346,70.6871266 110.321723,70.0991012 110.322488,69.4879508 C110.323249,68.877121 110.572696,68.2928711 111.013493,67.8694919 L138.48689,40.4270933 L152.283158,54.2077948 C152.574321,54.5474048 153.03149,54.695334 153.466705,54.5907628 C153.901919,54.4861915 154.241726,54.1467688 154.346415,53.7120453 C154.451104,53.2773218 154.303008,52.8206683 153.963014,52.5298337 L139.320861,37.9042015 C138.856175,37.4427936 138.105691,37.4427936 137.641005,37.9042015 L109.321722,66.1915309 C108.431696,67.0629445 107.929448,68.2549741 107.927799,69.4998512 C107.925918,70.71066 108.386036,71.8766799 109.214498,72.7605699 C110.101183,73.7102796 111.34565,74.2454872 112.645694,74.2362236 L164.292344,74.2362236 C165.592388,74.2454872 166.836855,73.7102796 167.723541,72.7605699 C168.552002,71.8766799 169.01212,70.71066 169.010239,69.4998512 C169.00859,68.2549741 168.506342,67.0629445 167.616316,66.1915309 L158.19244,56.7901888 C157.901277,56.4505788 157.444108,56.3026495 157.008893,56.4072208 C156.573679,56.511792 156.233873,56.8512147 156.129183,57.2859382 C156.024494,57.7206617 156.17259,58.1773153 156.512584,58.4681498 L156.512584,58.4205481 Z" id="Shape" fill="#662059"></path>
            <polygon id="Shape" fill="#6E425A" points="131.5411 181.649532 131.5411 164.453406 145.444593 164.453406 145.444593 198.012628 131.5411 198.012628"></polygon>
            <path d="M131.5411,181.637632 L132.732488,181.637632 L132.732488,165.631549 L144.26512,165.631549 L144.26512,196.810684 L132.732488,196.810684 L132.732488,181.637632 L130.349713,181.637632 L130.349713,198.000727 C130.349713,198.65797 130.883115,199.190771 131.5411,199.190771 L145.456507,199.190771 C146.114492,199.190771 146.647895,198.65797 146.647895,198.000727 L146.647895,164.441506 C146.647895,163.784263 146.114492,163.251463 145.456507,163.251463 L131.5411,163.251463 C130.883115,163.251463 130.349713,163.784263 130.349713,164.441506 L130.349713,181.637632 L131.5411,181.637632 Z" id="Shape" fill="#662059"></path>
            <ellipse id="Oval" fill="#FB5956" transform="translate(120.149593, 57.037061) rotate(-8.610000) translate(-120.149593, -57.037061) " cx="120.149593" cy="57.0370614" rx="6.46923445" ry="6.46193514"></ellipse>
            <ellipse id="Oval" fill="#FB5956" cx="168.128612" cy="142.56851" rx="6.46923445" ry="6.46193514"></ellipse>
            <path d="M170.892632,147.066874 C169.072984,148.182464 166.759687,148.09309 165.031743,146.840438 C163.3038,145.587786 162.50162,143.418635 162.999369,141.34475 C163.497118,139.270866 165.196737,137.700812 167.305465,137.366916 C169.414193,137.03302 171.516603,138.00106 172.632057,139.81951 C172.80105,140.261096 173.215696,140.56089 173.688448,140.583294 C174.161199,140.605698 174.602398,140.346462 174.812486,139.922841 C175.022574,139.499221 174.961707,138.991555 174.657416,138.629467 C173.03608,135.991166 169.983017,134.588592 166.922469,135.076039 C163.861921,135.563486 161.396927,137.844909 160.677396,140.856035 C159.957866,143.86716 161.125572,147.014686 163.635785,148.830306 C166.145998,150.645925 169.504115,150.771894 172.143589,149.14945 C172.585673,148.980648 172.885806,148.566469 172.908235,148.094251 C172.930665,147.622033 172.671136,147.181332 172.247037,146.971481 C171.822937,146.76163 171.314698,146.822429 170.952201,147.126376 L170.892632,147.066874 Z" id="Shape" fill="#662059"></path>
            <ellipse id="Oval" fill="#FB5956" cx="106.938947" cy="161.5259" rx="10.1387081" ry="10.1272685"></ellipse>
            <path d="M100.433971,155.385277 C103.23734,152.424113 107.691194,151.732386 111.26233,153.703525 C114.833465,155.674665 116.617282,159.809364 115.599204,163.755944 C114.581127,167.702524 111.019043,170.461281 106.938947,170.463125 L106.224115,170.463125 C105.56613,170.410546 104.990055,170.900722 104.937416,171.557965 C104.884777,172.215208 105.375508,172.790632 106.033493,172.843212 C106.335311,172.843212 106.637129,172.843212 106.938947,172.843212 C112.121245,172.865625 116.658215,169.373018 117.95669,164.36164 C119.255164,159.350262 116.984127,154.097643 112.441621,151.605992 C107.899116,149.114341 102.243146,150.018843 98.7064593,153.802519 C98.3110561,154.285755 98.3565642,154.992017 98.8107228,155.420634 C99.2648814,155.849251 99.9733841,155.854596 100.433971,155.432878 L100.433971,155.385277 Z" id="Shape" fill="#662059"></path>
            <path d="M100.779474,168.023536 C98.9901068,166.335287 97.9771848,163.984516 97.9797129,161.5259 C97.9797129,161.303759 97.9797129,161.081617 97.9797129,160.859476 C98.0116362,160.434314 97.8140572,160.024437 97.4614021,159.784241 C97.1087471,159.544045 96.6545926,159.510022 96.2700144,159.694988 C95.8854362,159.879954 95.6288608,160.255808 95.5969378,160.680969 C95.5969378,160.958646 95.5969378,161.24029 95.5969378,161.5259 C95.6029205,164.641832 96.8961227,167.617147 99.1711005,169.749099 C99.6548819,170.144056 100.361942,170.0986 100.791043,169.644953 C101.220145,169.191307 101.225495,168.483604 100.803301,168.023536 L100.779474,168.023536 Z" id="Shape" fill="#662059"></path>
            <path d="M119.329378,51.8634095 C121.444759,51.5419238 123.545137,52.5280107 124.647206,54.3600265 C125.749274,56.1920423 125.634925,58.5074171 124.357692,60.2221917 C123.080458,61.9369662 120.893115,62.7117735 118.819682,62.183882 C116.746249,61.6559904 115.197075,59.9298738 114.897416,57.813626 C114.798718,57.1563833 114.185306,56.703503 113.527321,56.8020894 C112.869336,56.9006758 112.415944,57.5133963 112.514641,58.170639 C112.974276,61.2379405 115.239386,63.7261492 118.252762,64.4739283 C121.266137,65.2217075 124.433655,64.0816233 126.27692,61.5857942 C128.120186,59.0899651 128.275776,55.7304742 126.671072,53.0753171 C125.066368,50.42016 122.017756,48.9928334 118.948134,49.459522 C118.290149,49.5581085 117.836757,50.1708291 117.935455,50.8280718 C118.034152,51.4853145 118.647565,51.938195 119.30555,51.8396086 L119.329378,51.8634095 Z" id="Shape" fill="#662059"></path>
            <path d="M135.353541,87.3624012 L137.557608,87.3624012 L138.963445,87.3624012 C139.62143,87.3624012 140.154833,86.8296007 140.154833,86.1723579 C140.154833,85.5151152 139.62143,84.9823146 138.963445,84.9823146 L137.557608,84.9823146 L135.401196,84.9823146 C134.743211,84.9823146 134.209809,85.5151152 134.209809,86.1723579 C134.209809,86.8296007 134.743211,87.3624012 135.401196,87.3624012 L135.353541,87.3624012 Z M123.344354,86.4460679 C124.527799,86.6047403 125.719187,86.7435787 126.918517,86.8625831 C127.576502,86.9283073 128.163245,86.4487868 128.229043,85.7915441 C128.294842,85.1343013 127.814779,84.5482207 127.156794,84.4824964 C125.973349,84.3634921 124.801818,84.2286205 123.642201,84.0778817 C122.984216,83.9924402 122.381471,84.4559766 122.295933,85.1132194 C122.210395,85.7704622 122.674455,86.3725268 123.33244,86.4579683 L123.344354,86.4460679 Z M111.513876,84.1611848 C112.673493,84.4547288 113.86488,84.7284387 115.088038,84.9823146 C115.51368,85.0715986 115.954675,84.9272793 116.244906,84.6037206 C116.535136,84.2801619 116.630509,83.8265199 116.495097,83.4136773 C116.359686,83.0008347 116.014063,82.6915119 115.588421,82.602228 C114.420861,82.3562857 113.273158,82.0905094 112.145311,81.804899 C111.507065,81.6438746 110.858982,82.0301549 110.697775,82.6676804 C110.536569,83.3052059 110.923285,83.9525585 111.561531,84.113583 L111.513876,84.1611848 Z M100.016986,80.4720505 C101.121005,80.9163333 102.252823,81.3407821 103.41244,81.7453968 C103.814672,81.8857001 104.261284,81.8009999 104.584044,81.5232019 C104.906803,81.2454039 105.056674,80.8167123 104.977201,80.398611 C104.897729,79.9805097 104.600987,79.6365183 104.198756,79.496215 C103.070909,79.0995339 101.970861,78.7028528 100.898612,78.3061717 C100.286686,78.062992 99.5932632,78.3613603 99.3498087,78.972596 C99.1063543,79.5838317 99.4050595,80.2764724 100.016986,80.5196522 L100.016986,80.4720505 Z M89.1991866,74.9740504 C90.1920096,75.6166738 91.2364593,76.24343 92.3325359,76.8543189 C92.7049724,77.0668997 93.1626566,77.0648641 93.5331832,76.8489789 C93.9037098,76.6330936 94.130787,76.2361569 94.1288771,75.8076909 C94.1269671,75.3792249 93.89636,74.9843238 93.5239234,74.7717431 C92.4675598,74.1846551 91.4707656,73.5856666 90.5335407,72.9747777 C89.9875657,72.6751695 89.30269,72.8462702 88.9622063,73.3673401 C88.6217226,73.88841 88.7405901,74.5835176 89.2349282,74.96215 L89.1991866,74.9740504 Z M80.3114354,66.4176391 C80.9640607,67.5048849 81.722263,68.5253101 82.5750718,69.4641499 C82.8602517,69.7808954 83.2929415,69.9216101 83.7101509,69.8332884 C84.1273603,69.7449666 84.4657053,69.4410265 84.5977347,69.0359593 C84.7297641,68.6308921 84.6354193,68.1862372 84.3502392,67.8694919 C83.6012148,67.0481727 82.9348066,66.1553164 82.360622,65.2037949 C82.0012887,64.7102576 81.3264442,64.5682076 80.7982804,64.8749331 C80.2701167,65.1816586 80.0598268,65.8377409 80.3114354,66.3938382 L80.3114354,66.4176391 Z M80.7760766,53.9816866 C79.9657596,55.0571137 79.3489534,56.2651731 78.9532536,57.5518165 C78.8123125,57.9622545 78.9061878,58.4167854 79.1982385,58.7379983 C79.4902892,59.0592112 79.9342186,59.1961865 80.3567537,59.0954605 C80.7792888,58.9947344 81.1134481,58.6722745 81.2288038,58.253942 C81.5505788,57.2496242 82.0421833,56.3077744 82.6822967,55.4692407 C83.0139499,54.9433159 82.8845377,54.2510255 82.3852303,53.8800846 C81.8859229,53.5091437 81.1849208,53.5845104 80.7760766,54.0530892 L80.7760766,53.9816866 Z M90.8194737,46.710522 C90.184067,46.9881987 89.5407177,47.2936432 88.8894258,47.6268553 C88.4128708,47.8727976 87.952201,48.1227067 87.5074163,48.3765826 C86.9686081,48.7187153 86.7955858,49.4242929 87.1151004,49.9764295 C87.434615,50.5285661 88.1330729,50.7309663 88.6988038,50.4353575 L89.9855024,49.733232 C90.5811962,49.4238207 91.1729187,49.1421771 91.7606699,48.8883012 C92.3270411,48.604601 92.5720355,47.9277345 92.3182447,47.347843 C92.0644539,46.7679516 91.4006695,46.4879172 90.8075598,46.710522 L90.8194737,46.710522 Z M102.733349,44.0805263 C101.541962,44.1519289 100.350574,44.2709332 99.0877033,44.4375393 C98.6620615,44.494936 98.2994077,44.7747938 98.13635,45.1716929 C97.9732924,45.568592 98.0346032,46.022234 98.2971874,46.3617363 C98.5597715,46.7012386 98.9837362,46.8750227 99.409378,46.8176259 C100.600766,46.6629202 101.696842,46.5558163 102.876316,46.4844137 C103.301958,46.4674073 103.686184,46.2248717 103.88426,45.8481678 C104.082336,45.4714639 104.06417,45.0178219 103.836604,44.6581245 C103.609039,44.298427 103.206647,44.0873207 102.781005,44.1043271 L102.733349,44.0805263 Z M114.647225,43.7354137 C113.455837,43.7354137 112.26445,43.8187167 111.073062,43.8425176 C110.415077,43.8425176 109.881675,44.3753181 109.881675,45.0325609 C109.881675,45.6898037 110.415077,46.2226042 111.073062,46.2226042 C112.26445,46.2226042 113.455837,46.2226042 114.647225,46.1155003 C115.237443,46.0479765 115.687667,45.5564461 115.702665,44.9632286 C115.717662,44.3700111 115.292848,43.8564087 114.706794,43.7592146 L114.647225,43.7354137 Z M126.287081,42.3906648 C125.095694,42.6286734 123.904306,42.8190804 122.820144,42.9856864 C122.394502,43.0473348 122.034119,43.3311213 121.874747,43.7301462 C121.715376,44.1291711 121.781228,44.5828131 122.047498,44.9201895 C122.313769,45.257566 122.740004,45.4274215 123.165646,45.365773 C124.357033,45.199167 125.548421,44.9968596 126.739809,44.7469505 C127.397794,44.6187881 127.827183,43.9820915 127.698876,43.3248488 C127.570568,42.667606 126.933153,42.2387016 126.275167,42.3668639 L126.287081,42.3906648 Z" id="Shape" fill="#FB5956"></path>
            <path d="M100.970096,122.77809 L109.1311,122.77809 C109.789086,122.77809 110.322488,122.245289 110.322488,121.588047 C110.322488,120.930804 109.789086,120.398003 109.1311,120.398003 L100.970096,120.398003 C100.312111,120.398003 99.7787081,120.930804 99.7787081,121.588047 C99.7787081,122.245289 100.312111,122.77809 100.970096,122.77809" id="Shape" fill="#FFFFFF"></path>
            <path d="M148.875789,67.5005785 L155.071005,67.5005785 C155.72899,67.5005785 156.262392,66.967778 156.262392,66.3105352 C156.262392,65.6532924 155.72899,65.1204919 155.071005,65.1204919 L148.875789,65.1204919 C148.217804,65.1204919 147.684402,65.6532924 147.684402,66.3105352 C147.684402,66.967778 148.217804,67.5005785 148.875789,67.5005785" id="Shape" fill="#FFFFFF"></path>
            <path d="M141.238995,67.5005785 L143.419234,67.5005785 C144.07722,67.5005785 144.610622,66.967778 144.610622,66.3105352 C144.610622,65.6532924 144.07722,65.1204919 143.419234,65.1204919 L141.238995,65.1204919 C140.58101,65.1204919 140.047608,65.6532924 140.047608,66.3105352 C140.047608,66.967778 140.58101,67.5005785 141.238995,67.5005785" id="Shape" fill="#FFFFFF"></path>
            <path d="M117.673349,120.398003 L115.290574,120.398003 C114.632589,120.398003 114.099187,120.930804 114.099187,121.588047 C114.099187,122.245289 114.632589,122.77809 115.290574,122.77809 L117.673349,122.77809 C118.331334,122.77809 118.864737,122.245289 118.864737,121.588047 C118.864737,120.930804 118.331334,120.398003 117.673349,120.398003" id="Shape" fill="#FFFFFF"></path>
            <path d="M131.5411,175.842121 L144.503397,175.842121" id="Shape" fill="#FFFFFF"></path>
            <path d="M131.5411,176.984562 L144.503397,176.984562 C145.161382,176.984562 145.694785,176.451762 145.694785,175.794519 C145.694785,175.137276 145.161382,174.604476 144.503397,174.604476 L131.5411,174.604476 C130.883115,174.604476 130.349713,175.137276 130.349713,175.794519 C130.349713,176.451762 130.883115,176.984562 131.5411,176.984562" id="Shape" fill="#662059"></path>
            <path d="M131.5411,185.897987 L138.498804,185.897987" id="Shape" fill="#FFFFFF"></path>
            <path d="M131.5411,187.07613 L138.498804,187.07613 C139.156789,187.07613 139.690191,186.543329 139.690191,185.886086 C139.690191,185.228844 139.156789,184.696043 138.498804,184.696043 L131.5411,184.696043 C130.883115,184.696043 130.349713,185.228844 130.349713,185.886086 C130.349713,186.543329 130.883115,187.07613 131.5411,187.07613" id="Shape" fill="#662059"></path>
            <path d="M138.498804,38.7491323 L138.498804,28.050643" id="Shape" fill="#FFFFFF"></path>
            <path d="M139.678278,38.7372318 L139.678278,28.0268421 C139.678278,27.3695993 139.144875,26.8367988 138.48689,26.8367988 C137.828905,26.8367988 137.295502,27.3695993 137.295502,28.0268421 L137.295502,38.7372318 C137.295502,39.3944746 137.828905,39.9272751 138.48689,39.9272751 C139.144875,39.9272751 139.678278,39.3944746 139.678278,38.7372318" id="Shape" fill="#662059"></path>
            <ellipse id="Oval" fill="#FB5956" cx="131.5411" cy="129.489934" rx="5.65909091" ry="5.6527057"></ellipse>
            <path d="M137.200191,129.489934 L138.391579,129.489934 C138.391579,125.710788 135.324515,122.647185 131.5411,122.647185 C127.757686,122.647185 124.690622,125.710788 124.690622,129.489934 C124.690622,133.26908 127.757686,136.332683 131.5411,136.332683 C135.324515,136.332683 138.391579,133.26908 138.391579,129.489934 L136.008804,129.489934 C136.01068,131.619063 134.506521,133.452988 132.416283,133.870065 C130.326045,134.287141 128.231951,133.171194 127.414769,131.204748 C126.597586,129.238302 127.284935,126.969097 129.056427,125.784999 C130.827919,124.600902 133.190117,124.831735 134.698278,126.336319 C135.538603,127.170936 136.010393,128.306238 136.008804,129.489934 L137.200191,129.489934 Z" id="Shape" fill="#662059"></path>
            <ellipse id="Oval" fill="#FB5956" cx="149.852727" cy="86.3627649" rx="5.65909091" ry="5.6527057"></ellipse>
            <path d="M156.703206,86.3627649 C156.703206,82.5836189 153.636142,79.5200159 149.852727,79.5200159 C146.069312,79.5200159 143.002249,82.5836189 143.002249,86.3627649 C143.002249,90.1419108 146.069312,93.2055139 149.852727,93.2055139 C150.510712,93.2055139 151.044115,92.6727133 151.044115,92.0154706 C151.044115,91.3582278 150.510712,90.8254273 149.852727,90.8254273 C147.385283,90.8254273 145.385024,88.8274252 145.385024,86.3627649 C145.385024,83.8981045 147.385283,81.9001025 149.852727,81.9001025 C152.320172,81.9001025 154.320431,83.8981045 154.320431,86.3627649 C154.320431,87.0200076 154.853833,87.5528082 155.511818,87.5528082 C156.169803,87.5528082 156.703206,87.0200076 156.703206,86.3627649 Z" id="Shape" fill="#662059"></path>
            <path d="M112.181053,199.190771 L246.998469,199.190771 C247.656454,199.190771 248.189856,198.65797 248.189856,198.000727 C248.189856,197.343484 247.656454,196.810684 246.998469,196.810684 L112.181053,196.810684 C111.523067,196.810684 110.989665,197.343484 110.989665,198.000727 C110.989665,198.65797 111.523067,199.190771 112.181053,199.190771" id="Shape" fill="#662059"></path>
            <path d="M1.19138756,199.190771 L103.448182,199.190771 C104.106167,199.190771 104.639569,198.65797 104.639569,198.000727 C104.639569,197.343484 104.106167,196.810684 103.448182,196.810684 L1.19138756,196.810684 C0.533402379,196.810684 0,197.343484 0,198.000727 C0,198.65797 0.533402379,199.190771 1.19138756,199.190771" id="Shape" fill="#662059"></path>
            <path d="M139.666364,145.841129 C136.508035,145.841129 133.947703,148.398572 133.947703,151.553337 C133.947703,154.708102 136.508035,157.265545 139.666364,157.265545 C142.824693,157.265545 145.385024,154.708102 145.385024,151.553337 C145.385024,148.398572 142.824693,145.841129 139.666364,145.841129" id="Shape" fill="#2C817F"></path>
            <ellipse id="Oval" fill="#F7DCDC" cx="59.3549282" cy="105.950878" rx="8.33971292" ry="8.33030313"></ellipse>
            <path d="M156.262392,185.17206 C156.421244,186.251033 156.568182,187.36174 156.703206,188.504182 C156.778874,189.161424 157.373618,189.632953 158.031603,189.55737 C158.689588,189.481787 159.161649,188.887714 159.085981,188.230472 C158.950957,187.064229 158.800048,185.929721 158.633254,184.826948 C158.537846,184.172991 157.929767,183.720111 157.275072,183.815411 C156.620377,183.910712 156.166985,184.518104 156.262392,185.17206 Z M153.79622,173.723844 C154.113923,174.802816 154.419713,175.929391 154.713589,177.103567 C154.790956,177.539639 155.104349,177.896726 155.52703,178.030423 C155.949711,178.16412 156.411754,178.052308 156.72631,177.740204 C157.040866,177.428099 157.155895,176.967336 157.02488,176.544246 C156.731005,175.330402 156.417273,174.16416 156.083684,173.045519 C155.896158,172.401421 155.221404,172.031125 154.576579,172.218439 C153.931754,172.405753 153.561039,173.079746 153.748565,173.723844 L153.79622,173.723844 Z M149.328517,163.013454 C149.884498,163.973422 150.416651,164.99686 150.924976,166.083766 C151.211923,166.665559 151.912419,166.910711 152.500136,166.635023 C153.087853,166.359335 153.346344,165.664338 153.081388,165.072229 C152.541292,163.929787 151.977368,162.846848 151.389617,161.823411 C151.186768,161.436077 150.787655,161.191007 150.350072,161.185091 C149.912489,161.179175 149.506882,161.413365 149.293612,161.795073 C149.080342,162.17678 149.093743,162.644554 149.328517,163.013454 Z M142.061053,154.219034 C142.94016,154.963668 143.77552,155.758351 144.562967,156.599121 C145.016976,157.075622 145.771741,157.09427 146.24878,156.640772 C146.725819,156.187275 146.744488,155.433362 146.290478,154.956861 C145.438287,154.060944 144.535319,153.214621 143.586029,152.422069 C143.079273,152.057123 142.376363,152.145158 141.975497,152.623778 C141.574631,153.102397 141.611971,153.809028 142.061053,154.242835 L142.061053,154.219034 Z M132.112967,148.554428 C133.197129,148.959043 134.257464,149.411259 135.305885,149.911077 C135.8876,150.139286 136.54698,149.879707 136.816405,149.316429 C137.085831,148.753152 136.873712,148.07766 136.330478,147.768999 C135.210574,147.23348 134.09067,146.757463 132.958852,146.329047 C132.343636,146.095726 131.655546,146.40475 131.421962,147.019272 C131.188377,147.633794 131.49775,148.321107 132.112967,148.554428 Z M120.818612,145.329411 L124.273636,146.174341 C124.686509,146.278506 125.123653,146.154742 125.4204,145.849669 C125.717147,145.544597 125.828415,145.104564 125.71229,144.695327 C125.596165,144.28609 125.270289,143.969822 124.857416,143.865657 L121.366651,143.020727 C120.725115,142.869561 120.082365,143.266497 119.931029,143.907309 C119.779692,144.548121 120.177077,145.190145 120.818612,145.341311 L120.818612,145.329411 Z M109.202584,142.699415 L112.693349,143.472943 C113.118991,143.566479 113.562257,143.426088 113.856174,143.104655 C114.15009,142.783222 114.250004,142.32958 114.118279,141.914612 C113.986554,141.499643 113.643202,141.186392 113.21756,141.092856 L109.726794,140.319328 C109.301152,140.225793 108.857886,140.366183 108.56397,140.687616 C108.270053,141.009049 108.170139,141.462691 108.301864,141.87766 C108.43359,142.292628 108.776942,142.605879 109.202584,142.699415 Z M97.5031579,140.09322 L100.993923,140.91435 C101.635459,141.06223 102.275542,140.662629 102.423589,140.021817 C102.571635,139.381006 102.171583,138.741645 101.530048,138.593765 L98.0511962,137.772636 C97.6276285,137.641769 97.1663448,137.756668 96.8538882,138.070869 C96.5414316,138.38507 96.4294932,138.846592 96.5633409,139.268796 C96.6971886,139.691 97.0546794,140.004039 97.491244,140.08132 L97.5031579,140.09322 Z M85.9109569,137.08241 L89.3778947,138.034445 C89.7941592,138.161912 90.2468839,138.052416 90.5586662,137.748863 C90.8704485,137.445311 90.9916296,136.99605 90.8747239,136.577126 C90.7578183,136.158203 90.4214459,135.83634 89.9974163,135.737662 L86.5662201,134.785627 C86.1496051,134.642301 85.6878118,134.740365 85.365599,135.040585 C85.0433862,135.340805 84.9133744,135.794152 85.02758,136.219247 C85.1417856,136.644342 85.4815577,136.971762 85.9109569,137.07051 L85.9109569,137.08241 Z M74.4736364,133.345675 C75.5776555,133.766156 76.713445,134.162838 77.8810048,134.535718 C78.2878965,134.692421 78.7479874,134.614547 79.0804828,134.332697 C79.4129782,134.050847 79.5647417,133.610063 79.4761373,133.183554 C79.3875328,132.757044 79.0727203,132.41297 78.6554067,132.286536 C77.5196172,131.897789 76.4116268,131.501107 75.3314354,131.096493 C74.7162193,130.863171 74.0281302,131.172196 73.7945455,131.786718 C73.5609607,132.40124 73.8703341,133.088552 74.4855502,133.321874 L74.4736364,133.345675 Z M63.5247847,128.097584 C64.5255502,128.72434 65.5898565,129.331262 66.7177033,129.91835 C67.0955769,130.128109 67.5575555,130.116947 67.9248342,129.889184 C68.2921129,129.661421 68.5070549,129.2528 68.4864687,128.821473 C68.4658825,128.390147 68.2129987,128.003803 67.8256938,127.811973 C66.753445,127.252653 65.7407656,126.62193 64.8114833,126.08641 C64.4518159,125.858949 63.9979833,125.84043 63.6209397,126.037828 C63.2438962,126.235227 63.0009236,126.618555 62.9835473,127.043415 C62.9661711,127.468275 63.1770312,127.870122 63.5366986,128.097584 L63.5247847,128.097584 Z M55.1850718,118.839047 C55.5935831,120.084242 56.1967315,121.257046 56.9721531,122.313973 C57.2134536,122.678237 57.6351386,122.881187 58.0707172,122.842695 C58.5062959,122.804203 58.8857598,122.530455 59.0592879,122.129533 C59.232816,121.728611 59.172518,121.264953 58.902201,120.921622 C58.2723096,120.06797 57.7817359,119.120062 57.4487081,118.11312 C57.2175192,117.530904 56.5740978,117.227339 55.9770635,117.418802 C55.3800293,117.610265 55.0337606,118.231214 55.1850718,118.839047 Z M58.0801435,106.653003 C57.3044234,107.665017 56.6412839,108.758361 56.1024402,109.913722 C55.8195066,110.508527 56.0728727,111.219815 56.6683493,111.50243 C57.2638259,111.785044 57.975918,111.531964 58.2588517,110.937159 C58.726439,109.93756 59.3017015,108.991842 59.9744498,108.116756 C60.3889804,107.597535 60.303636,106.840958 59.7838278,106.426895 C59.2640195,106.012832 58.5065881,106.09808 58.0920574,106.617302 L58.0801435,106.653003 Z M69.7438278,102.15464 C69.0254504,102.05355 68.3009708,102.00186 67.5755024,101.999934 C67.0059022,101.999309 66.4368453,102.035084 65.8718182,102.107038 C65.4461764,102.162309 65.0823872,102.440202 64.9174865,102.836038 C64.7525857,103.231875 64.8116258,103.685517 65.0723669,104.026082 C65.3331079,104.366647 65.7559372,104.542395 66.1815789,104.487124 C66.6479281,104.429381 67.1175033,104.401556 67.5874163,104.403821 C68.2052458,104.405041 68.8222571,104.44878 69.434067,104.534726 C69.8660934,104.592123 70.2959577,104.414936 70.5617341,104.069911 C70.8275106,103.724886 70.8888214,103.264439 70.7225714,102.862017 C70.5563215,102.459595 70.187768,102.176335 69.7557416,102.118938 L69.7438278,102.15464 Z M81.2049761,106.772008 C80.1803828,106.141285 79.108134,105.581964 78.0120574,104.963142 C77.6315992,104.754454 77.1676234,104.768955 76.8009711,105.000994 C76.4343187,105.233032 76.2230139,105.645888 76.2494157,106.078643 C76.2758175,106.511398 76.5357476,106.895569 76.9278947,107.081419 C77.9644019,107.616938 78.9770813,108.188159 79.9540191,108.795081 C80.510768,109.106137 81.2140131,108.923955 81.5492363,108.381825 C81.8844595,107.839695 81.7326938,107.130013 81.2049761,106.772008 Z M90.8433014,114.209778 C90.8433014,114.209778 89.7948804,113.198241 88.0911962,111.829692 C87.763452,111.557588 87.3152745,111.480806 86.9154877,111.628269 C86.5157009,111.775732 86.2250421,112.125036 86.1529996,112.544603 C86.0809571,112.964169 86.2384758,113.390255 86.5662201,113.662358 C87.3882775,114.352583 88.0435407,114.935705 88.4962679,115.340319 L89.0085646,115.816337 L89.1396172,115.935341 C89.6100766,116.395411 90.364841,116.387419 90.8254306,115.91749 C91.2860202,115.447562 91.2780192,114.693649 90.8075598,114.233579 L90.8433014,114.209778 Z" id="Shape" fill="#FB5956"></path>
            <path d="M191.980191,152.945688 L188.406029,152.945688" id="Shape" fill="#FFFFFF"></path>
            <path d="M192.004019,151.755644 L188.429856,151.755644 C187.771871,151.755644 187.238469,152.288445 187.238469,152.945688 C187.238469,153.602931 187.771871,154.135731 188.429856,154.135731 L192.004019,154.135731 C192.662004,154.135731 193.195407,153.602931 193.195407,152.945688 C193.195407,152.288445 192.662004,151.755644 192.004019,151.755644" id="Shape" fill="#662059"></path>
            <polygon id="Shape" fill="#FB5956" points="162.600574 155.290073 162.600574 164.298701 163.458373 164.298701 168.36689 164.298701 168.378804 164.298701 168.378804 164.298701 168.36689 164.298701 168.36689 198.012628 192.957129 198.012628 235.608804 198.012628 235.608804 188.325675 235.608804 189.575221 235.608804 164.298701 241.31555 164.298701 241.387033 164.298701 241.387033 155.290073"></polygon>
            <path d="M191.467895,155.266272 L212.507799,155.266272 C218.317808,155.266272 223.027751,150.561643 223.027751,144.75819 C223.027751,138.954736 218.317808,134.250107 212.507799,134.250107 C206.69779,134.250107 201.987847,138.954736 201.987847,144.75819 C201.987847,138.954736 197.277904,134.250107 191.467895,134.250107 C185.657886,134.250107 180.947943,138.954736 180.947943,144.75819 C180.947943,150.561643 185.657886,155.266272 191.467895,155.266272 Z" id="Shape" fill="#FB5956"></path>
            <rect id="Rectangle-path" fill="#F4C95E" x="168.855359" y="176.948861" width="37.8503828" height="6.56903904"></rect>
            <rect id="Rectangle-path" fill="#F4C95E" x="184.498278" y="156.015999" width="6.57645933" height="41.937126"></rect>
            <rect id="Rectangle-path" fill="#C93E4F" x="206.705742" y="164.120194" width="28.9030622" height="33.8805329"></rect>
            <rect id="Rectangle-path" fill="#C93E4F" x="212.507799" y="155.040164" width="28.9030622" height="9.25853691"></rect>
            <rect id="Rectangle-path" fill="#CEA045" x="206.836794" y="176.948861" width="29.403445" height="6.56903904"></rect>
            <path d="M241.387033,164.298701 L241.387033,163.108658 L235.608804,163.108658 C234.950819,163.108658 234.417416,163.641458 234.417416,164.298701 L234.417416,196.822584 L169.558278,196.822584 L169.558278,164.298701 C169.558278,163.641458 169.024875,163.108658 168.36689,163.108658 L163.780048,163.108658 L163.780048,156.480116 L240.183732,156.480116 L240.183732,164.298701 L241.37512,164.298701 L242.566507,164.298701 L242.566507,155.290073 C242.566507,154.63283 242.033105,154.10003 241.37512,154.10003 L162.58866,154.10003 C161.930675,154.10003 161.397273,154.63283 161.397273,155.290073 L161.397273,164.298701 C161.397273,164.955944 161.930675,165.488744 162.58866,165.488744 L167.175502,165.488744 L167.175502,198.012628 C167.175502,198.66987 167.708905,199.202671 168.36689,199.202671 L235.608804,199.202671 C236.266789,199.202671 236.800191,198.66987 236.800191,198.012628 L236.800191,165.488744 L241.387033,165.488744 C242.045019,165.488744 242.578421,164.955944 242.578421,164.298701 L241.387033,164.298701 Z" id="Shape" fill="#662059"></path>
            <path d="M180.947943,144.75819 L182.13933,144.75819 C182.13933,139.611979 186.315871,135.440151 191.467895,135.440151 C196.619919,135.440151 200.796459,139.611979 200.796459,144.75819 C200.796459,147.364385 200.796459,155.266272 200.796459,155.266272 L201.987847,155.266272 L201.987847,154.076229 L191.467895,154.076229 C186.315871,154.076229 182.13933,149.904401 182.13933,144.75819 L179.756555,144.75819 C179.756555,151.218886 184.9999,156.456315 191.467895,156.456315 L201.987847,156.456315 C202.645832,156.456315 203.179234,155.923515 203.179234,155.266272 L203.179234,144.75819 C203.179234,138.297493 197.935889,133.060064 191.467895,133.060064 C184.9999,133.060064 179.756555,138.297493 179.756555,144.75819 L180.947943,144.75819 Z" id="Shape" fill="#662059"></path>
            <path d="M222.980096,144.75819 L224.171483,144.75819 C224.171483,138.297493 218.928138,133.060064 212.460144,133.060064 C205.992149,133.060064 200.748804,138.297493 200.748804,144.75819 C200.748804,147.364385 200.748804,155.266272 200.748804,155.266272 C200.748804,155.923515 201.282206,156.456315 201.940191,156.456315 L212.460144,156.456315 C218.928138,156.456315 224.171483,151.218886 224.171483,144.75819 L221.788708,144.75819 C221.788708,149.904401 217.612168,154.076229 212.460144,154.076229 L201.940191,154.076229 L201.940191,155.266272 L203.131579,155.266272 L203.131579,144.75819 C203.131579,139.611979 207.30812,135.440151 212.460144,135.440151 C217.612168,135.440151 221.788708,139.611979 221.788708,144.75819 L222.980096,144.75819 Z" id="Shape" fill="#662059"></path>
            <path d="M217.321005,144.75819 C217.321005,142.102929 215.166059,139.950415 212.507799,139.950415 C209.849539,139.950415 207.694593,142.102929 207.694593,144.75819 L207.694593,149.518363 L212.460144,149.518363 C213.740478,149.543946 214.977245,149.053746 215.89168,148.158252 C216.806115,147.262759 217.321261,146.037336 217.321005,144.75819 Z" id="Shape" fill="#FFFFFF"></path>
            <path d="M217.321005,144.75819 L218.512392,144.75819 C218.512392,141.445686 215.824044,138.760372 212.507799,138.760372 C209.191554,138.760372 206.503206,141.445686 206.503206,144.75819 C206.503206,145.948233 206.503206,149.518363 206.503206,149.518363 C206.503206,150.175606 207.036608,150.708406 207.694593,150.708406 L212.460144,150.708406 C215.750069,150.708406 218.417081,148.044404 218.417081,144.75819 L216.034306,144.75819 C216.034306,146.729918 214.434099,148.32832 212.460144,148.32832 L207.694593,148.32832 L207.694593,149.518363 L208.885981,149.518363 L208.885981,144.75819 C208.885981,142.760172 210.507524,141.140458 212.507799,141.140458 C214.508074,141.140458 216.129617,142.760172 216.129617,144.75819 L217.321005,144.75819 Z" id="Shape" fill="#662059"></path>
            <path d="M168.855359,178.174606 L184.271914,178.174606 C184.929899,178.174606 185.463301,177.641805 185.463301,176.984562 C185.463301,176.32732 184.929899,175.794519 184.271914,175.794519 L168.855359,175.794519 C168.197374,175.794519 167.663971,176.32732 167.663971,176.984562 C167.663971,177.641805 168.197374,178.174606 168.855359,178.174606" id="Shape" fill="#662059"></path>
            <path d="M168.819617,184.672242 L184.307656,184.672242 C184.965641,184.672242 185.499043,184.139442 185.499043,183.482199 C185.499043,182.824956 184.965641,182.292156 184.307656,182.292156 L168.819617,182.292156 C168.161632,182.292156 167.62823,182.824956 167.62823,183.482199 C167.62823,184.139442 168.161632,184.672242 168.819617,184.672242" id="Shape" fill="#662059"></path>
            <path d="M191.57512,178.174606 L235.656459,178.174606 C236.314445,178.174606 236.847847,177.641805 236.847847,176.984562 C236.847847,176.32732 236.314445,175.794519 235.656459,175.794519 L191.57512,175.794519 C190.917134,175.794519 190.383732,176.32732 190.383732,176.984562 C190.383732,177.641805 190.917134,178.174606 191.57512,178.174606" id="Shape" fill="#662059"></path>
            <path d="M191.467895,184.672242 L235.549234,184.672242 C236.20722,184.672242 236.740622,184.139442 236.740622,183.482199 C236.740622,182.824956 236.20722,182.292156 235.549234,182.292156 L191.467895,182.292156 C190.80991,182.292156 190.276507,182.824956 190.276507,183.482199 C190.276507,184.139442 190.80991,184.672242 191.467895,184.672242" id="Shape" fill="#662059"></path>
            <path d="M185.463301,197.096294 L185.463301,155.361476 C185.463301,154.704233 184.929899,154.171432 184.271914,154.171432 C183.613929,154.171432 183.080526,154.704233 183.080526,155.361476 L183.080526,197.096294 C183.080526,197.753537 183.613929,198.286338 184.271914,198.286338 C184.929899,198.286338 185.463301,197.753537 185.463301,197.096294" id="Shape" fill="#662059"></path>
            <path d="M192.004019,197.215299 L192.004019,155.361476 C192.004019,154.704233 191.470617,154.171432 190.812632,154.171432 C190.154646,154.171432 189.621244,154.704233 189.621244,155.361476 L189.621244,197.215299 C189.621244,197.872541 190.154646,198.405342 190.812632,198.405342 C191.470617,198.405342 192.004019,197.872541 192.004019,197.215299" id="Shape" fill="#662059"></path>
            <path d="M192.957129,199.190771 L235.608804,199.190771 C236.266789,199.190771 236.800191,198.65797 236.800191,198.000727 L236.800191,189.56332 C236.800191,188.906077 236.266789,188.373277 235.608804,188.373277 C234.950819,188.373277 234.417416,188.906077 234.417416,189.56332 L234.417416,196.810684 L192.957129,196.810684 C192.299144,196.810684 191.765742,197.343484 191.765742,198.000727 C191.765742,198.65797 192.299144,199.190771 192.957129,199.190771 Z" id="Shape" fill="#662059"></path>
            <path d="M167.175502,164.298701 L167.175502,198.012628 C167.175502,198.66987 167.708905,199.202671 168.36689,199.202671 L192.957129,199.202671 C193.615114,199.202671 194.148517,198.66987 194.148517,198.012628 C194.148517,197.355385 193.615114,196.822584 192.957129,196.822584 L169.558278,196.822584 L169.558278,164.298701 C169.558278,163.641458 169.024875,163.108658 168.36689,163.108658 C167.708905,163.108658 167.175502,163.641458 167.175502,164.298701 Z" id="Shape" fill="#662059"></path>
            <path d="M236.800191,188.313775 L236.800191,164.298701 C236.800191,163.641458 236.266789,163.108658 235.608804,163.108658 C234.950819,163.108658 234.417416,163.641458 234.417416,164.298701 L234.417416,188.325675 C234.417416,188.982918 234.950819,189.515718 235.608804,189.515718 C236.266789,189.515718 236.800191,188.982918 236.800191,188.325675" id="Shape" fill="#662059"></path>
            <path d="M163.410718,165.488744 L217.523541,165.488744 C218.181526,165.488744 218.714928,164.955944 218.714928,164.298701 C218.714928,163.641458 218.181526,163.108658 217.523541,163.108658 L163.410718,163.108658 C162.752733,163.108658 162.21933,163.641458 162.21933,164.298701 C162.21933,164.955944 162.752733,165.488744 163.410718,165.488744" id="Shape" fill="#662059"></path>
            <path d="M225.756029,165.488744 L241.244067,165.488744 C241.902052,165.488744 242.435455,164.955944 242.435455,164.298701 C242.435455,163.641458 241.902052,163.108658 241.244067,163.108658 L225.756029,163.108658 C225.098044,163.108658 224.564641,163.641458 224.564641,164.298701 C224.564641,164.955944 225.098044,165.488744 225.756029,165.488744" id="Shape" fill="#662059"></path>
            <path d="M196.316842,149.613566 L191.551292,149.613566 C188.919351,149.613566 186.785742,147.482364 186.785742,144.853393 C186.785742,142.224422 188.919351,140.09322 191.551292,140.09322 C194.183233,140.09322 196.316842,142.224422 196.316842,144.853393" id="Shape" fill="#FFFFFF"></path>
            <path d="M196.316842,148.423523 L191.551292,148.423523 C189.577336,148.423523 187.977129,146.825122 187.977129,144.853393 C187.977129,142.881665 189.577336,141.283263 191.551292,141.283263 C193.525247,141.283263 195.125455,142.881665 195.125455,144.853393 C195.125455,145.510636 195.658857,146.043437 196.316842,146.043437 C196.974827,146.043437 197.50823,145.510636 197.50823,144.853393 C197.50823,141.567179 194.841218,138.903177 191.551292,138.903177 C188.261366,138.903177 185.594354,141.567179 185.594354,144.853393 C185.594354,148.139607 188.261366,150.80361 191.551292,150.80361 L196.316842,150.80361 C196.974827,150.80361 197.50823,150.270809 197.50823,149.613566 C197.50823,148.956324 196.974827,148.423523 196.316842,148.423523 Z" id="Shape" fill="#662059"></path>
            <path d="M207.897129,198.000727 L207.897129,164.298701 C207.897129,163.641458 207.363727,163.108658 206.705742,163.108658 C206.047756,163.108658 205.514354,163.641458 205.514354,164.298701 L205.514354,198.012628 C205.514354,198.66987 206.047756,199.202671 206.705742,199.202671 C207.363727,199.202671 207.897129,198.66987 207.897129,198.012628 L207.897129,198.000727 Z" id="Shape" fill="#662059"></path>
            <path d="M213.508565,164.298701 L213.508565,155.266272 C213.508565,154.609029 212.975162,154.076229 212.317177,154.076229 C211.659192,154.076229 211.125789,154.609029 211.125789,155.266272 L211.125789,164.298701 C211.125789,164.955944 211.659192,165.488744 212.317177,165.488744 C212.975162,165.488744 213.508565,164.955944 213.508565,164.298701" id="Shape" fill="#662059"></path>
            <rect id="Rectangle-path" fill="#FB5956" x="52.4925359" y="145.960134" width="33.0729187" height="52.0405937"></rect>
            <rect id="Rectangle-path" fill="#C93E4F" x="38.1720574" y="145.960134" width="14.3323923" height="52.0405937"></rect>
            <path d="M52.4925359,199.190771 L86.1134928,199.190771 C86.771478,199.190771 87.3048804,198.65797 87.3048804,198.000727 L87.3048804,145.960134 C87.3048804,145.302891 86.771478,144.77009 86.1134928,144.77009 L52.4925359,144.77009 C51.8345507,144.77009 51.3011483,145.302891 51.3011483,145.960134 C51.3011483,146.617376 51.8345507,147.150177 52.4925359,147.150177 L84.9221053,147.150177 L84.9221053,196.810684 L52.4925359,196.810684 C51.8345507,196.810684 51.3011483,197.343484 51.3011483,198.000727 C51.3011483,198.65797 51.8345507,199.190771 52.4925359,199.190771 Z" id="Shape" fill="#662059"></path>
            <path d="M38.1601435,199.190771 L52.4567943,199.190771 C53.1147794,199.190771 53.6481818,198.65797 53.6481818,198.000727 L53.6481818,186.885723 C53.6481818,186.22848 53.1147794,185.695679 52.4567943,185.695679 C51.7988091,185.695679 51.2654067,186.22848 51.2654067,186.885723 L51.2654067,196.810684 L38.1601435,196.810684 C37.5021584,196.810684 36.968756,197.343484 36.968756,198.000727 C36.968756,198.65797 37.5021584,199.190771 38.1601435,199.190771 Z" id="Shape" fill="#662059"></path>
            <path d="M53.6839234,176.579948 L53.6839234,145.960134 C53.6839234,145.302891 53.1505211,144.77009 52.4925359,144.77009 L38.1958852,144.77009 C37.5379,144.77009 37.0044976,145.302891 37.0044976,145.960134 L37.0044976,157.860567 C37.0044976,158.517809 37.5379,159.05061 38.1958852,159.05061 C38.8538703,159.05061 39.3872727,158.517809 39.3872727,157.860567 L39.3872727,147.150177 L51.3011483,147.150177 L51.3011483,176.579948 C51.3011483,177.237191 51.8345507,177.769991 52.4925359,177.769991 C53.1505211,177.769991 53.6839234,177.237191 53.6839234,176.579948 Z" id="Shape" fill="#662059"></path>
            <path d="M79.6680861,145.960134 C79.796456,142.179667 77.8505765,138.630182 74.5926219,136.701961 C71.3346673,134.77374 67.2832753,134.77374 64.0253207,136.701961 C60.767366,138.630182 58.8214865,142.179667 58.9498565,145.960134 C58.9498565,146.617376 59.4832588,147.150177 60.141244,147.150177 C60.7992292,147.150177 61.3326316,146.617376 61.3326316,145.960134 C61.2196353,143.040233 62.71472,140.292507 65.2291284,138.798998 C67.7435367,137.305489 70.8744059,137.305489 73.3888142,138.798998 C75.9032226,140.292507 77.3983073,143.040233 77.285311,145.960134 C77.285311,146.617376 77.8187134,147.150177 78.4766986,147.150177 C79.1346837,147.150177 79.6680861,146.617376 79.6680861,145.960134 Z" id="Shape" fill="#662059"></path>
            <path d="M66.6104785,145.960134 C66.7388484,142.179667 64.7929689,138.630182 61.5350142,136.701961 C58.2770596,134.77374 54.2256677,134.77374 50.967713,136.701961 C47.7097584,138.630182 45.7638789,142.179667 45.8922488,145.960134 C45.8922488,146.617376 46.4256512,147.150177 47.0836364,147.150177 C47.7416215,147.150177 48.2750239,146.617376 48.2750239,145.960134 C48.4406737,141.679631 51.9628253,138.294821 56.2513636,138.294821 C60.539902,138.294821 64.0620536,141.679631 64.2277033,145.960134 C64.2277033,146.617376 64.7611057,147.150177 65.4190909,147.150177 C66.0770761,147.150177 66.6104785,146.617376 66.6104785,145.960134 Z" id="Shape" fill="#662059"></path>
            <path d="M78.822201,189.872731 L78.822201,191.062775 C78.822201,191.720018 79.3556033,192.252818 80.0135885,192.252818 C80.6715737,192.252818 81.2049761,191.720018 81.2049761,191.062775 L81.2049761,189.872731 C81.2049761,189.215489 80.6715737,188.682688 80.0135885,188.682688 C79.3556033,188.682688 78.822201,189.215489 78.822201,189.872731 Z M78.822201,177.972298 L78.822201,181.542428 C78.822201,182.199671 79.3556033,182.732472 80.0135885,182.732472 C80.6715737,182.732472 81.2049761,182.199671 81.2049761,181.542428 L81.2049761,177.972298 C81.2049761,177.315056 80.6715737,176.782255 80.0135885,176.782255 C79.3556033,176.782255 78.822201,177.315056 78.822201,177.972298 Z" id="Shape" fill="#FFFFFF"></path>
            <rect id="Rectangle-path" fill="#C93E4F" x="11.4015789" y="162.335129" width="9.68598086" height="35.6774983"></rect>
            <rect id="Rectangle-path" fill="#FB5956" x="21.0756459" y="162.335129" width="23.0414354" height="35.6774983"></rect>
            <path d="M21.0756459,199.190771 L44.1170813,199.190771 C44.7750665,199.190771 45.3084689,198.65797 45.3084689,198.000727 L45.3084689,162.299428 C45.3084689,161.642185 44.7750665,161.109385 44.1170813,161.109385 L21.0756459,161.109385 C20.4176608,161.109385 19.8842584,161.642185 19.8842584,162.299428 C19.8842584,162.956671 20.4176608,163.489471 21.0756459,163.489471 L42.9256938,163.489471 L42.9256938,196.810684 L21.0756459,196.810684 C20.4176608,196.810684 19.8842584,197.343484 19.8842584,198.000727 C19.8842584,198.65797 20.4176608,199.190771 21.0756459,199.190771 Z" id="Shape" fill="#662059"></path>
            <path d="M22.2670335,183.315593 L22.2670335,162.335129 C22.2670335,161.677887 21.7336311,161.145086 21.0756459,161.145086 L11.2586124,161.145086 C10.6006273,161.145086 10.0672249,161.677887 10.0672249,162.335129 L10.0672249,198.036429 C10.0672249,198.693671 10.6006273,199.226472 11.2586124,199.226472 L21.0756459,199.226472 C21.7336311,199.226472 22.2670335,198.693671 22.2670335,198.036429 L22.2670335,190.420151 C22.2670335,189.762909 21.7336311,189.230108 21.0756459,189.230108 C20.4176608,189.230108 19.8842584,189.762909 19.8842584,190.420151 L19.8842584,196.846385 L12.45,196.846385 L12.45,163.525173 L19.8842584,163.525173 L19.8842584,183.327493 C19.8842584,183.984736 20.4176608,184.517537 21.0756459,184.517537 C21.7336311,184.517537 22.2670335,183.984736 22.2670335,183.327493 L22.2670335,183.315593 Z" id="Shape" fill="#662059"></path>
            <path d="M35.3127273,162.335129 C35.1525025,158.326835 31.8527903,155.159822 27.8367703,155.159822 C23.8207504,155.159822 20.5210381,158.326835 20.3608134,162.335129 C20.3608134,162.992372 20.8942158,163.525173 21.552201,163.525173 C22.2101861,163.525173 22.7435885,162.992372 22.7435885,162.335129 C22.875045,159.620986 25.1163832,157.48787 27.8367703,157.48787 C30.5571575,157.48787 32.7984957,159.620986 32.9299522,162.335129 C32.9299522,162.992372 33.4633545,163.525173 34.1213397,163.525173 C34.7793249,163.525173 35.3127273,162.992372 35.3127273,162.335129 Z" id="Shape" fill="#662059"></path>
            <path d="M36.3849761,187.028528 L36.3849761,191.514991 C36.3849761,192.172234 36.9183785,192.705035 37.5763636,192.705035 C38.2343488,192.705035 38.7677512,192.172234 38.7677512,191.514991 L38.7677512,187.028528 C38.7677512,186.371285 38.2343488,185.838485 37.5763636,185.838485 C36.9183785,185.838485 36.3849761,186.371285 36.3849761,187.028528" id="Shape" fill="#FFFFFF"></path>
            <polyline id="Shape" fill="#F4C95E" points="133.947703 15.245777 138.498804 1.26276817 143.03799 15.245777 157.763541 15.245777 145.849665 23.8973918 150.412679 37.8804006 138.498804 28.050643 126.584928 37.8804006 131.136029 23.8973918 119.222153 15.245777 127.299761 15.245777"></polyline>
            <path d="M135.067608,15.6146904 L138.48689,5.10660805 L141.965742,15.6146904 C142.131815,16.1256218 142.619979,16.4620751 143.157129,16.4358203 L154.213206,16.4358203 L145.265885,22.9334567 C144.848738,23.2378652 144.67553,23.7761271 144.836986,24.2663052 L148.125215,34.3578725 L139.368517,27.1343096 C138.928893,26.7733491 138.295079,26.7733491 137.855455,27.1343096 L129.098756,34.3578725 L132.386986,24.2663052 C132.548441,23.7761271 132.375233,23.2378652 131.958086,22.9334567 L122.903541,16.4358203 L127.323589,16.4358203 C127.981574,16.4358203 128.514976,15.9030198 128.514976,15.245777 C128.514976,14.5885342 127.981574,14.0557337 127.323589,14.0557337 L119.210239,14.0557337 C118.692946,14.0538844 118.233567,14.3856828 118.073247,14.8769543 C117.912928,15.3682257 118.088307,15.9067009 118.507321,16.2097121 L129.718278,24.3496083 L125.441196,37.5114872 C125.275793,38.0156868 125.464531,38.5683555 125.90393,38.8664787 C126.343329,39.1646019 126.927234,39.1361547 127.335502,38.796734 L138.48689,29.5857988 L149.638278,38.796734 C150.048525,39.1040725 150.609632,39.1147106 151.03126,38.8231437 C151.452888,38.5315768 151.640429,38.0032288 151.496842,37.5114872 L147.219761,24.3496083 L158.430718,16.2097121 C158.849731,15.9067009 159.02511,15.3682257 158.864791,14.8769543 C158.704472,14.3856828 158.245092,14.0538844 157.727799,14.0557337 L143.907703,14.0557337 L139.582967,0.858153449 C139.422268,0.36978998 138.965796,0.0397010478 138.451148,0.0397010478 C137.936501,0.0397010478 137.480029,0.36978998 137.31933,0.858153449 L132.76823,14.8411623 C132.617464,15.2501019 132.702531,15.7086488 132.989978,16.036477 C133.277425,16.3643052 133.721272,16.508976 134.146974,16.4135969 C134.572675,16.3182178 134.912138,15.9980453 135.031866,15.5789891 L135.067608,15.6146904 Z" id="Shape" fill="#662059"></path>
        </g>
    </g>
</svg>