<?xml version="1.0" encoding="UTF-8"?>
<svg width="300px" height="200px" viewBox="0 0 300 200" version="1.1" xmlns="http://www.w3.org/2000/svg" xmlns:xlink="http://www.w3.org/1999/xlink">
    <!-- Generator: Sketch 51.3 (57544) - http://www.bohemiancoding.com/sketch -->
    <title>decorated-christmas-wreath</title>
    <desc>Created with Sketch.</desc>
    <defs></defs>
    <g id="decorated-christmas-wreath" stroke="none" stroke-width="1" fill="none" fill-rule="evenodd">
        <g id="Wreath" transform="translate(95.000000, 41.000000)" fill-rule="nonzero">
            <path d="M55.352,14.787156 C28.0139049,14.787156 5.852,36.9675445 5.852,64.3284404 C5.852,91.6893362 28.0139049,113.869725 55.352,113.869725 C82.6900951,113.869725 104.852,91.6893362 104.852,64.3284404 C104.852,36.9675445 82.6900951,14.787156 55.352,14.787156 M55.352,94.8458716 C38.5238837,94.8458716 24.882,81.1926102 24.882,64.3504587 C24.882,47.5083073 38.5238837,33.8550459 55.352,33.8550459 C72.1801163,33.8550459 85.822,47.5083073 85.822,64.3504587 C85.822,81.1926102 72.1801163,94.8458716 55.352,94.8458716" id="Shape" fill="#2D9693"></path>
            <path d="M37.213,90.2880734 C50.698411,99.6791006 69.1262452,97.1493573 79.5870583,84.4710311 C90.0478714,71.792705 89.0448265,53.2039024 77.2805971,41.7268326 C65.5163676,30.2497629 46.9234963,29.7209768 34.5270425,40.5109105 C22.1305888,51.3008441 20.0744349,69.8026423 29.799,83.0550459 C30.1604704,83.5445019 30.8499519,83.6480104 31.339,83.2862385 C31.8280481,82.9244667 31.9314704,82.2344102 31.57,81.7449541 C22.5250853,69.4219214 24.4349828,52.2158701 35.9617542,42.1801359 C47.4885255,32.1444018 64.7790933,32.63365 75.7209157,43.3051482 C86.6627381,53.9766463 87.5982698,71.2632109 77.8721438,83.0551045 C68.1460179,94.846998 51.0094062,97.2025201 38.467,88.4715596 C37.9696951,88.1626537 37.3177848,88.2975952 36.9837125,88.7785913 C36.6496402,89.2595874 36.7504129,89.9181717 37.213,90.2770642" id="Shape" fill="#662059"></path>
            <path d="M104.753,64.3394495 L105.853,64.3394495 C105.853,36.3705338 83.1986083,13.6972477 55.253,13.6972477 C27.3073917,13.6972477 4.653,36.3705338 4.653,64.3394495 C4.653,92.3083653 27.3073917,114.981651 55.253,114.981651 C83.1986083,114.981651 105.853,92.3083653 105.853,64.3394495 L103.653,64.3394495 C103.650584,87.448232 87.3387987,107.337504 64.6926764,111.844517 C42.0465542,116.35153 19.3728533,104.221118 10.5370652,82.8713074 C1.70127723,61.521497 9.16409607,36.8980344 28.3618358,24.0587354 C47.5595754,11.2194363 73.1458241,13.7399395 89.474,30.0788991 C98.5671846,39.1557674 103.670116,51.4859195 103.653,64.3394495 L104.753,64.3394495" id="Shape" fill="#662059"></path>
            <ellipse id="Oval" fill="#F4C95E" cx="15.4" cy="63.1724771" rx="14.3" ry="14.3119266"></ellipse>
            <ellipse id="Oval" fill="#FB8D5C" cx="55.77" cy="103.223853" rx="14.3" ry="14.3119266"></ellipse>
            <ellipse id="Oval" fill="#C93E4F" cx="94.017" cy="63.1724771" rx="14.3" ry="14.3119266"></ellipse>
            <rect id="Rectangle-path" fill="#FB5956" x="45.254" y="15.8330275" width="3.993" height="5.73577982" rx="1.12293578"></rect>
            <path d="M52.041,22.1302752 C52.041,22.1302752 52.217,25.5211009 53.482,27.1284404 L51.04,26.4238532 L49.808,28.933945 C48.8225272,26.3952789 48.6157181,23.6201926 49.214,20.9633028 C49.214,20.9633028 58.014,25.1798165 56.914,21.2495413 C56.298,18.9376147 56.1,16.9559633 56.914,15.1284404 L57.024,14.8972477 C57.1381301,14.6646427 57.1381301,14.3922381 57.024,14.159633 C56.562,13.212844 54.824,11.4733945 49.236,16.4605505 L49.236,20.9633028" id="Shape" fill="#FB5956"></path>
            <path d="M49.214,16.3174312 C49.214,17.3412844 52.206,17.2311927 54.461,16.5266055 C55.4381832,16.334646 56.3088277,15.785133 56.903,14.9853211 L57.013,14.7541284 C57.1271301,14.5215234 57.1271301,14.2491188 57.013,14.0165138 C56.584,13.0697248 54.901,11.3302752 49.214,16.3174312 Z" id="Shape" fill="#C93E4F"></path>
            <path d="M42.471,22.1302752 C42.471,22.1302752 42.295,25.5211009 41.03,27.1284404 L43.472,26.4238532 L44.704,28.933945 C45.6894728,26.3952789 45.8962819,23.6201926 45.298,20.9633028 C45.298,20.9633028 36.498,25.1798165 37.598,21.2495413 C38.214,18.9376147 38.412,16.9559633 37.598,15.1284404 L37.488,14.8972477 C37.3738699,14.6646427 37.3738699,14.3922381 37.488,14.159633 C37.95,13.212844 39.688,11.4733945 45.276,16.4605505 L45.276,20.9633028" id="Shape" fill="#FB5956"></path>
            <path d="M45.199,16.3174312 C45.133,17.8807339 38.302,16.812844 37.499,14.9853211 L37.389,14.7541284 C37.2748699,14.5215234 37.2748699,14.2491188 37.389,14.0165138 C37.862,13.0697248 39.545,11.3302752 45.199,16.3174312 Z" id="Shape" fill="#C93E4F"></path>
            <path d="M48.114,21.5798165 L48.114,20.4788991 L46.354,20.4788991 L46.354,16.9779817 L48.114,16.9779817 L48.114,20.4788991 L48.114,22.6807339 C49.3290264,22.6807339 50.314,21.6949389 50.314,20.4788991 L50.314,16.9779817 C50.314,15.7619418 49.3290264,14.7761468 48.114,14.7761468 L46.354,14.7761468 C45.1389736,14.7761468 44.154,15.7619418 44.154,16.9779817 L44.154,20.4788991 C44.154,21.6949389 45.1389736,22.6807339 46.354,22.6807339 L48.114,22.6807339 L48.114,21.5798165 Z" id="Shape" fill="#662059"></path>
            <path d="M44.957,15.8880734 C44.5433659,15.9630148 44.1232597,15.9962087 43.703,15.987156 C42.6481419,15.9886889 41.5989471,15.8328482 40.59,15.5247706 C39.7127316,15.3052002 38.9366159,14.7925366 38.39,14.0715596 C38.0649804,13.5577828 37.3853487,13.4049846 36.872,13.7302752 C36.3586513,14.0555659 36.2059804,14.7357645 36.531,15.2495413 C37.3513827,16.4155299 38.5540672,17.2569425 39.93,17.6275229 C41.1560145,18.0037539 42.4316548,18.1930327 43.714,18.1889908 C44.2971365,18.1989152 44.8796925,18.1472533 45.452,18.0348624 C46.0595131,17.9010979 46.4436528,17.299763 46.3099999,16.6917432 C46.176347,16.0837233 45.5755132,15.6992632 44.968,15.8330275 L44.957,15.8880734 Z" id="Shape" fill="#662059"></path>
            <path d="M39.116,19.4 C39.1952416,18.864173 39.2356803,18.3233141 39.237,17.7816514 C39.2454717,16.7226828 39.0357763,15.6733309 38.621,14.6990826 L38.511,14.4678899 L38.258,14.5889908 L38.544,14.5889908 L38.544,14.4678899 L38.291,14.5889908 L38.511,14.6990826 L38.511,14.5889908 L38.269,14.5889908 L38.489,14.6990826 C38.5441374,14.5785998 38.6270805,14.4729477 38.731,14.3908257 C38.9003001,14.2705456 39.1074349,14.2157851 39.314,14.2366972 C39.9600008,14.284995 40.585555,14.4848867 41.14,14.8201835 C42.3851733,15.5235729 43.5443068,16.3696333 44.594,17.3412844 C45.0526065,17.7109746 45.7207685,17.6536293 46.1097897,17.211191 C46.498811,16.7687527 46.4706924,16.0981694 46.046,15.6899083 C44.8627362,14.6011047 43.5557816,13.6551741 42.152,12.8715596 C41.2869142,12.368489 40.3134306,12.0814872 39.314,12.0348624 C38.6424618,12.0228952 37.9855425,12.2317378 37.444,12.6293578 C37.0601681,12.9193524 36.7509521,13.2967596 36.542,13.7302752 C36.4117121,13.9977554 36.344,14.2914192 36.344,14.5889908 C36.3423696,14.8784481 36.4063041,15.1645115 36.531,15.4256881 L37.521,14.9412844 L36.52,15.4036697 L36.63,15.6348624 L37.631,15.1724771 L36.619,15.612844 C36.9114973,16.3095359 37.0575293,17.0590427 37.048,17.8146789 C37.0461906,18.249523 37.0131051,18.6836727 36.949,19.1137615 C36.8609106,19.7217814 37.2819868,20.286149 37.8895,20.3743119 C38.4970132,20.4624748 39.0609106,20.0410474 39.149,19.4330275 L39.116,19.4 Z" id="Shape" fill="#662059"></path>
            <path d="M41.371,22.0752294 C41.3249809,22.7152152 41.236789,23.3514616 41.107,23.9798165 C40.9691494,24.8508683 40.6506537,25.6833979 40.172,26.4238532 C39.8771481,26.7989788 39.8573929,27.3215264 40.1230786,27.7178788 C40.3887643,28.1142312 40.8793684,28.2941003 41.338,28.1633028 L42.9,27.7119266 L43.725,29.3963303 C43.9162742,29.7834216 44.3160096,30.0228454 44.7472564,30.0086166 C45.1785031,29.9943878 45.5616147,29.7291343 45.727,29.3302752 C46.4232137,27.5579006 46.795792,25.674811 46.827,23.7706422 C46.8323292,22.7141393 46.6916637,21.6619732 46.409,20.6440367 C46.3211296,20.3297464 46.0984593,20.0706742 45.8010903,19.9367465 C45.5037213,19.8028189 45.1623075,19.8078415 44.869,19.9504587 L44.704,20.0275229 C44.319,20.2036697 43.296,20.666055 42.163,21.0733945 C41.5966571,21.2787306 41.0202459,21.4551052 40.436,21.6018349 C39.9723033,21.7244457 39.4963271,21.7946092 39.017,21.8110092 C38.899985,21.8232429 38.782015,21.8232429 38.665,21.8110092 L38.566,21.8110092 L38.566,21.8990826 L38.632,21.8220183 L38.632,21.9100917 L38.698,21.8330275 L38.533,22.0091743 L38.753,21.9211009 L38.687,21.8330275 L38.522,22.0091743 L38.742,21.9211009 L38.676,21.9211009 L38.742,21.9211009 L38.676,21.9211009 L38.753,21.9211009 C38.7401161,21.8187532 38.7401161,21.7151918 38.753,21.612844 C38.8875159,21.0349882 38.5402829,20.4543905 37.9678588,20.3000336 C37.3954348,20.1456768 36.8037593,20.4730933 36.63,21.040367 C36.5510954,21.3273321 36.5104102,21.6234714 36.509,21.9211009 C36.502506,22.2677232 36.5778846,22.6109818 36.729,22.9229358 C36.9614528,23.3748587 37.3535358,23.7241036 37.829,23.9027523 C38.2299989,24.0513037 38.655538,24.122286 39.083,24.1119266 C39.8275699,24.0891862 40.566489,23.9745582 41.283,23.7706422 C42.8567509,23.3212995 44.39092,22.743205 45.87,22.0422018 L45.397,21.0513761 L44.297,21.3486239 C44.5231873,22.1733827 44.6342407,23.0255025 44.627,23.8807339 C44.6129263,24.996023 44.4614492,26.1053161 44.176,27.1834862 C44.066,27.612844 43.956,27.9651376 43.868,28.2073394 L43.769,28.4715596 L43.769,28.5376147 L44.781,28.9559633 L45.771,28.4715596 L44.539,25.9614679 C44.3042907,25.4847623 43.7628279,25.2439115 43.252,25.3889908 L40.81,26.093578 L41.118,27.1944954 L41.976,27.8770642 C42.7105771,26.8068109 43.1920758,25.5832359 43.384,24.2990826 C43.5149914,23.6227578 43.6031669,22.9388273 43.648,22.2513761 C43.6676496,21.8580562 43.4761478,21.484122 43.1456314,21.2704307 C42.815115,21.0567395 42.3957974,21.0357562 42.0456314,21.2153849 C41.6954654,21.3950136 41.4676496,21.7479645 41.448,22.1412844 L41.371,22.0752294 Z" id="Shape" fill="#662059"></path>
            <path d="M54.857,17.5394495 C56.1327498,17.1511895 57.2408672,16.3446138 58.003,15.2495413 C58.3280195,14.7357645 58.1753485,14.055566 57.6619999,13.7302754 C57.1486513,13.4049847 56.4690196,13.5577829 56.144,14.0715596 C55.6436155,14.7428543 54.936123,15.2303865 54.131,15.4587156 C53.7596224,15.5885112 53.4856428,15.90674 53.4122666,16.2935285 C53.3388904,16.6803169 53.4772652,17.0769026 53.7752666,17.3338955 C54.073268,17.5908883 54.4856224,17.6692451 54.857,17.5394495 Z" id="Shape" fill="#662059"></path>
            <path d="M49.071,18.0348624 C49.6432959,18.1473346 50.2258606,18.1989973 50.809,18.1889908 C51.4829037,18.1879831 52.1557856,18.1364629 52.822,18.0348624 C53.2149921,17.9758644 53.546683,17.7115143 53.6921279,17.3413903 C53.8375728,16.9712663 53.7746752,16.5515989 53.5271279,16.2404729 C53.2795807,15.9293468 52.8849921,15.7740295 52.492,15.8330275 C51.9350726,15.918972 51.3725053,15.9631317 50.809,15.9651376 C50.3887403,15.9741904 49.9686341,15.9409964 49.555,15.866055 C49.1620078,15.7795246 48.7527431,15.9094009 48.4813719,16.2067608 C48.2100008,16.5041206 48.1177509,16.923788 48.2393719,17.3076783 C48.360993,17.6915685 48.6780078,17.9813596 49.071,18.0678899 L49.071,18.0348624 Z" id="Shape" fill="#662059"></path>
            <path d="M49.929,23.8366972 C49.9214762,22.9814487 50.0325347,22.12929 50.259,21.3045872 L49.159,21.0073394 L48.686,21.9981651 C48.686,21.9981651 49.786,22.5045872 51.095,23.0220183 C51.8158566,23.2942509 52.5501483,23.5294202 53.295,23.7266055 C54.011511,23.9305215 54.7504301,24.0451495 55.495,24.0678899 C56.0825144,24.0935974 56.6644299,23.9441656 57.167,23.6385321 C57.4530382,23.4482285 57.6843616,23.1863494 57.838,22.8788991 C57.9891154,22.5669452 58.064494,22.2236865 58.058,21.8770642 C58.0552556,21.5831507 58.0145858,21.2908233 57.937,21.0073394 C57.6325802,19.9729225 57.4625152,18.9035793 57.431,17.8256881 C57.4214707,17.0700519 57.5675027,16.3205451 57.86,15.6238532 L56.848,15.1834862 L57.849,15.6458716 L58.014,15.3376147 L57.013,14.8752294 L58.014,15.3376147 C58.1386959,15.0764381 58.2026304,14.7903747 58.201,14.5009174 C58.2006168,14.2033896 58.1329243,13.9098106 58.003,13.6422018 C57.7940479,13.2086862 57.4848319,12.831279 57.101,12.5412844 C56.5594575,12.1436644 55.9025382,11.9348219 55.231,11.946789 C54.2278108,11.9916579 53.2503509,12.2787193 52.382,12.7834862 C50.9781638,13.5670148 49.6711994,14.5129525 48.488,15.6018349 C48.173025,15.8557414 48.0226698,16.2621569 48.0964771,16.6601352 C48.1702844,17.0581135 48.4563485,17.3834575 48.8413841,17.5073265 C49.2264197,17.6311955 49.6483175,17.5336084 49.94,17.253211 C50.9896298,16.2814826 52.1487726,15.4354154 53.394,14.7321101 C53.948445,14.3968133 54.5739992,14.1969216 55.22,14.1486239 C55.4155406,14.1356287 55.6096337,14.1900201 55.77,14.3027523 C55.8739195,14.3848743 55.9568626,14.4905264 56.012,14.6110092 L56.221,14.5119266 L55.99,14.5119266 L55.99,14.6110092 L56.199,14.5119266 L55.946,14.3908257 L55.946,14.5119266 L56.232,14.5119266 L55.979,14.3908257 L55.869,14.6220183 C55.4542237,15.5962667 55.2445283,16.6456186 55.253,17.7045872 C55.2802798,18.9754869 55.4725584,20.237442 55.825,21.4587156 C55.8376561,21.5610775 55.8376561,21.6646105 55.825,21.7669725 L56.012,21.7669725 L55.869,21.6568807 L55.869,21.733945 L56.056,21.733945 L55.913,21.6238532 L56.067,21.7449541 L55.957,21.5798165 L56.111,21.7009174 L56.001,21.5357798 C55.8564725,21.5872782 55.7032113,21.6097254 55.55,21.6018349 C54.9873041,21.5771324 54.4296255,21.4847245 53.889,21.3266055 C52.9228223,21.0573473 51.9748796,20.7263938 51.051,20.3357798 L50.072,19.906422 L49.797,19.7743119 L49.709,19.7743119 C49.4156925,19.6316947 49.0742787,19.6266721 48.7769097,19.7605998 C48.4795407,19.8945274 48.2568704,20.1535996 48.169,20.4678899 C47.886059,21.4857695 47.7453884,22.5379744 47.751,23.5944954 L47.751,23.6605505 C47.751,24.2685704 48.2434868,24.7614679 48.851,24.7614679 C49.4585132,24.7614679 49.951,24.2685704 49.951,23.6605505 L49.929,23.8366972 Z" id="Shape" fill="#662059"></path>
            <path d="M50.941,22.1853211 C50.9858331,22.8727723 51.0740086,23.5567028 51.205,24.2330275 C51.3969242,25.5171809 51.8784229,26.7407559 52.613,27.8110092 L53.471,27.1284404 L53.779,26.0275229 L51.337,25.3229358 C50.8261721,25.1778564 50.2847093,25.4187073 50.05,25.8954128 L48.818,28.4055046 L49.808,28.8899083 L50.82,28.4715596 C50.4723909,27.5504567 50.2252888,26.5944445 50.083,25.6201835 C50.0240512,25.2268635 49.7599215,24.8948959 49.3901058,24.7493297 C49.0202902,24.6037634 48.6009725,24.6667135 48.2901057,24.9144673 C47.9792389,25.1622211 47.8240511,25.5571388 47.883,25.9504587 C48.0496213,27.1027797 48.3447981,28.2327727 48.763,29.3192661 C48.9283853,29.7181252 49.3114969,29.9833787 49.7427436,29.9976074 C50.1739904,30.0118362 50.5737258,29.7724124 50.765,29.3853211 L51.59,27.7009174 L53.152,28.1522936 C53.6106316,28.2830911 54.1012357,28.1032221 54.3669214,27.7068696 C54.6326071,27.3105172 54.6128519,26.7879696 54.318,26.412844 C53.8085053,25.6194163 53.4746874,24.72599 53.339,23.7926606 C53.251,23.3082569 53.185,22.8678899 53.152,22.5486239 C53.119,22.2293578 53.152,22.2623853 53.152,22.1743119 L53.152,22.053211 C53.1216243,21.4451911 52.6045132,20.9769385 51.997,21.0073394 C51.3894868,21.0377404 50.9216243,21.5552828 50.952,22.1633028 L50.941,22.1853211 Z" id="Shape" fill="#662059"></path>
            <path d="M46.156,18.2550459 L46.156,19.3559633 C46.156,19.9639832 46.6484868,20.4568807 47.256,20.4568807 C47.8635132,20.4568807 48.356,19.9639832 48.356,19.3559633 L48.356,18.2550459 C48.356,17.647026 47.8635132,17.1541284 47.256,17.1541284 C46.6484868,17.1541284 46.156,17.647026 46.156,18.2550459" id="Shape" fill="#FFFFFF"></path>
            <rect id="Rectangle-path" fill="#FB5956" x="49.214" y="9.67889908" width="12.265" height="17.6366972" rx="3.43486239"></rect>
            <path d="M70.048,29.0110092 C70.048,29.0110092 70.576,39.4256881 74.448,44.3577982 L66.935,42.1559633 L63.129,49.8623853 C63.129,49.8623853 57.926,37.3559633 61.314,25.4110092 C61.314,25.4110092 88.231,38.3798165 85.008,26.2807339 C83.116,19.1908257 82.522,13.0697248 84.953,7.48807339 C85.0556667,7.24587156 85.1656667,7.00366972 85.283,6.76146789 C85.6121766,6.06449372 85.6121766,5.2566072 85.283,4.55963303 C83.875,1.66422018 78.683,-3.67522936 61.336,11.6385321 L61.336,25.4550459" id="Shape" fill="#FB5956"></path>
            <path d="M61.479,11.1541284 C61.611,14.3137615 70.675,13.9724771 77.594,11.7926606 C81.235,10.6917431 84.271,8.9853211 85.107,7.04770642 C85.2096667,6.80550459 85.3196667,6.56330275 85.437,6.32110092 C85.7661766,5.62412674 85.7661766,4.81624023 85.437,4.11926606 C84.018,1.17981651 78.837,-4.15963303 61.479,11.1541284 Z" id="Shape" fill="#C93E4F"></path>
            <path d="M40.645,29.0110092 C40.645,29.0110092 40.117,39.4256881 36.245,44.3577982 L43.758,42.1559633 L47.564,49.8623853 C47.564,49.8623853 52.789,37.3119266 49.39,25.3779817 C49.39,25.3779817 22.473,38.346789 25.696,26.2477064 C27.588,19.1577982 28.182,13.0366972 25.751,7.45504587 C25.6483333,7.21284404 25.5383333,6.9706422 25.421,6.72844037 C25.0918234,6.03146619 25.0918234,5.22357968 25.421,4.5266055 C26.829,1.63119266 32.021,-3.70825688 49.368,11.6055046 L49.368,25.4220183" id="Shape" fill="#FB5956"></path>
            <path d="M49.016,11.1541284 C48.818,15.9761468 27.808,12.6623853 25.388,7.0587156 C25.2853333,6.81651376 25.1753333,6.57431193 25.058,6.33211009 C24.7288234,5.63513592 24.7288234,4.8272494 25.058,4.13027523 C26.477,1.17981651 31.614,-4.15963303 49.016,11.1541284 Z" id="Shape" fill="#C93E4F"></path>
            <path d="M57.849,27.3266055 L57.849,26.2256881 L52.448,26.2256881 C51.160072,26.2256881 50.116,25.1807453 50.116,23.8917431 L50.116,13.1357798 C50.116,11.8467776 51.160072,10.8018349 52.448,10.8018349 L57.849,10.8018349 C58.4731827,10.7929938 59.0748491,11.0349824 59.5193473,11.4736439 C59.9638456,11.9123054 60.2140625,12.511014 60.214,13.1357798 L60.214,23.9137615 C60.214,25.2027637 59.169928,26.2477064 57.882,26.2477064 L57.882,28.4495413 C60.3849545,28.4495413 62.414,26.4188035 62.414,23.9137615 L62.414,13.1357798 C62.414,10.6307378 60.3849545,8.6 57.882,8.6 L52.481,8.6 C49.9780455,8.6 47.949,10.6307378 47.949,13.1357798 L47.949,23.9137615 C47.949,26.4188035 49.9780455,28.4495413 52.481,28.4495413 L57.882,28.4495413 L57.882,27.3486239 L57.849,27.3266055 Z" id="Shape" fill="#662059"></path>
            <path d="M48.774,12.0348624 C47.3242237,12.3116591 45.8496563,12.4371019 44.374,12.4091743 C40.8964087,12.4182701 37.437057,11.9061708 34.111,10.8899083 C30.679,9.78899083 27.687,8.01651376 26.092,5.46238532 C25.7669804,4.9486085 25.0873487,4.79581027 24.574,5.12110092 C24.0606513,5.44639157 23.9079804,6.12659015 24.233,6.64036697 C26.268,9.8440367 29.733,11.7926606 33.44,12.9926606 C36.9825555,14.0808085 40.6683654,14.6300588 44.374,14.6220183 C45.996328,14.6622356 47.618426,14.5330974 49.214,14.2366972 C49.8215131,14.1029328 50.2056528,13.5015979 50.0719999,12.893578 C49.938347,12.2855582 49.3375132,11.9010981 48.73,12.0348624 L48.774,12.0348624 Z" id="Shape" fill="#662059"></path>
            <path d="M28.083,20.2807339 C28.3158337,18.7429032 28.4371506,17.1902231 28.446,15.6348624 C28.4817132,12.6895038 27.9048254,9.7689168 26.752,7.0587156 C26.642,6.80183486 26.5246667,6.54495413 26.4,6.28807339 C26.3058749,6.09620992 26.256955,5.88530228 26.257,5.67155963 C26.2557569,5.4352714 26.3084284,5.20181749 26.411,4.98899083 C26.7400974,4.29278955 27.2303204,3.68516093 27.841,3.21651376 C28.7300951,2.57934769 29.8064016,2.25773638 30.899,2.30275229 C33.2530452,2.44823026 35.5383823,3.15402971 37.565,4.36146789 C41.5584238,6.60662069 45.2759766,9.31120681 48.642,12.4201835 C49.1006065,12.7898737 49.7687685,12.7325284 50.1577897,12.29009 C50.546811,11.8476517 50.5186924,11.1770684 50.094,10.7688073 C46.5978391,7.54337723 42.7361898,4.73894473 38.588,2.41284404 C36.2432258,1.0380696 33.6020578,0.248834601 30.888,0.111926606 C29.3120601,0.0638472877 27.7646642,0.540068399 26.488,1.46605505 C25.5960417,2.14568176 24.8794396,3.02896994 24.398,4.04220183 C24.1471316,4.55272985 24.0154825,5.11364644 24.013,5.68256881 C24.0132564,6.22808755 24.1373822,6.76641435 24.376,7.25688073 C24.486,7.48440367 24.5886667,7.71192661 24.684,7.93944954 C25.7160532,10.3755061 26.2293066,13.0001556 26.191,15.6458716 C26.182191,17.0980896 26.0682257,18.5477589 25.85,19.9834862 C25.7619106,20.5915061 26.1829868,21.1558738 26.7905,21.2440367 C27.3980132,21.3321996 27.9619106,20.9107722 28.05,20.3027523 L28.083,20.2807339 Z" id="Shape" fill="#662059"></path>
            <path d="M39.545,28.9559633 L39.545,29.066055 C39.3991016,31.1375757 39.1161479,33.1971375 38.698,35.2311927 C38.082,38.2366972 36.993,41.6385321 35.398,43.6862385 C35.1031481,44.0613641 35.0833929,44.5839117 35.3490786,44.9802641 C35.6147643,45.3766166 36.1053684,45.5564856 36.564,45.4256881 L43.164,43.5211009 L46.563,50.3908257 C46.7542742,50.777917 47.1540096,51.0173408 47.5852564,51.003112 C48.0165031,50.9888833 48.3996147,50.7236297 48.565,50.3247706 C50.5436126,45.1262377 51.5791867,39.6159677 51.623,34.053211 C51.6438532,31.0145286 51.2440542,27.9876002 50.435,25.0587156 C50.3471296,24.7444253 50.1244593,24.4853531 49.8270903,24.3514254 C49.5297213,24.2174978 49.1883075,24.2225204 48.895,24.3651376 L48.763,24.4311927 C48.081,24.7504587 44.902,26.2366972 41.063,27.6238532 C39.130384,28.3434724 37.1625192,28.9644547 35.167,29.4844037 C33.441114,29.959914 31.6651369,30.2296737 29.876,30.2880734 C28.9608161,30.3522173 28.0460408,30.1576654 27.236,29.7266055 C27.001854,29.577638 26.8119207,29.3685371 26.686,29.1211009 C26.5284578,28.7764264 26.4567435,28.398668 26.477,28.0201835 C26.4879155,27.5022711 26.5655565,26.9879329 26.708,26.4899083 C26.8425159,25.9120524 26.4952829,25.3314547 25.9228588,25.1770978 C25.3504348,25.022741 24.7587593,25.3501575 24.585,25.9174312 C24.3915277,26.6019875 24.2879897,27.3088535 24.277,28.0201835 C24.2654636,28.7286385 24.419924,29.4299458 24.728,30.0678899 C25.1942426,30.9583925 25.9803681,31.6389582 26.928,31.9724771 C27.8896968,32.3213561 28.9084806,32.4856926 29.931,32.4568807 C32.0460541,32.3892282 34.1446382,32.0601266 36.179,31.4770642 C40.873078,30.1313825 45.4496005,28.4045504 49.863,26.3137615 L49.39,25.3229358 L48.29,25.6201835 C49.0414327,28.3523681 49.411608,31.1754562 49.39,34.0091743 C49.3602365,37.6739696 48.8724481,41.3206399 47.938,44.8642202 C47.575,46.2623853 47.212,47.4073394 46.937,48.1669725 C46.805,48.5522936 46.695,48.8605505 46.607,49.0587156 L46.519,49.2899083 L46.519,49.3559633 L47.531,49.7743119 L48.521,49.2899083 L44.715,41.5834862 C44.4802907,41.1067807 43.9388279,40.8659298 43.428,41.0110092 L35.915,43.212844 L36.223,44.3137615 L37.114,45.0623853 C39.314,42.3211009 40.359,38.3688073 40.997,35.066055 C41.3782862,33.0914652 41.6354577,31.0948855 41.767,29.0880734 C41.7866496,28.6947535 41.5951478,28.3208192 41.2646314,28.107128 C40.934115,27.8934368 40.5147974,27.8724534 40.1646314,28.0520821 C39.8144654,28.2317108 39.5866496,28.5846617 39.567,28.9779817 L39.545,28.9559633 Z" id="Shape" fill="#662059"></path>
            <path d="M77.935,12.7504587 C81.3686987,11.7214424 84.3586419,9.57014378 86.427,6.64036697 C86.7520196,6.12659015 86.5993487,5.44639157 86.086,5.12110092 C85.5726513,4.79581027 84.8930196,4.9486085 84.568,5.46238532 C82.7585119,7.97035735 80.1650478,9.80279261 77.198,10.6697248 C76.8266224,10.7995203 76.5526427,11.1177492 76.4792665,11.5045377 C76.4058902,11.8913262 76.5442651,12.2879118 76.8422665,12.5449047 C77.1402679,12.8018976 77.5526224,12.8802544 77.924,12.7504587 L77.935,12.7504587 Z" id="Shape" fill="#662059"></path>
            <path d="M61.435,14.2366972 C63.0326187,14.548708 64.658465,14.6926103 66.286,14.666055 C68.2415281,14.6617289 70.1939872,14.5108483 72.127,14.2146789 C72.7345132,14.1234759 73.153127,13.5566438 73.062,12.9486239 C72.970873,12.3406039 72.4045132,11.9216411 71.797,12.012844 C69.9766234,12.2890839 68.1381809,12.4289221 66.297,12.4311927 C64.8213437,12.4591202 63.3467763,12.3336775 61.897,12.0568807 C61.5040079,11.9703504 61.0947432,12.1002267 60.8233721,12.3975865 C60.5520009,12.6949464 60.459751,13.1146137 60.5813721,13.4985039 C60.7029931,13.8823942 61.0200079,14.1721852 61.413,14.2587156 L61.435,14.2366972 Z" id="Shape" fill="#662059"></path>
            <path d="M61.314,34.2623853 L61.314,34.053211 C61.2919683,31.2194668 61.6621512,28.3963206 62.414,25.6642202 L61.314,25.3669725 L60.841,26.3577982 C60.841,26.3577982 64.009,27.8880734 68.057,29.4073394 C70.1761578,30.2170644 72.3349216,30.9188804 74.525,31.5100917 C76.5593618,32.0931541 78.6579459,32.4222558 80.773,32.4899083 C82.1236077,32.5611226 83.4655807,32.2358724 84.634,31.5541284 C85.1866212,31.1921553 85.63429,30.6909557 85.932,30.1009174 C86.240076,29.4629734 86.3945364,28.761666 86.383,28.053211 C86.3718856,27.3418911 86.26835,26.6350412 86.075,25.9504587 C85.0913871,22.5778361 84.5478761,19.092024 84.458,15.5798165 C84.4190471,12.9340426 84.9323263,10.3092608 85.965,7.8733945 C86.0676667,7.64587156 86.1703333,7.41834862 86.273,7.19082569 C86.5116178,6.7003593 86.6357436,6.1620325 86.636,5.61651376 C86.6335175,5.0475914 86.5018684,4.48667481 86.251,3.97614679 C85.7691984,2.96314359 85.0526603,2.07993437 84.161,1.4 C82.8843358,0.474013353 81.3369399,-0.00220775821 79.761,0.0458715596 C77.0469422,0.182779555 74.4057742,0.972014552 72.061,2.34678899 C67.9127557,4.67280439 64.0510968,7.47724385 60.555,10.7027523 C60.240025,10.9566588 60.0896698,11.3630743 60.1634771,11.7610526 C60.2372844,12.1590309 60.5233485,12.4843749 60.9083841,12.6082439 C61.2934197,12.7321129 61.7153175,12.6345258 62.007,12.3541284 C65.3883937,9.25375355 69.1207932,6.56019419 73.128,4.32844037 C75.1546177,3.12100219 77.4399548,2.41520273 79.794,2.26972477 C80.8865984,2.22470885 81.9629049,2.54632016 82.852,3.18348624 C83.4626796,3.6521334 83.9529026,4.25976202 84.282,4.9559633 C84.3842061,5.16891744 84.4368583,5.40228594 84.436,5.63853211 C84.4356575,5.85223019 84.3867576,6.06305153 84.293,6.25504587 C84.1683333,6.51192661 84.051,6.76880734 83.941,7.02568807 C82.787866,9.73579416 82.2109653,12.6564467 82.247,15.6018349 C82.338273,19.3037358 82.9076649,22.9782662 83.941,26.533945 C84.0832043,27.0320217 84.1608406,27.5463287 84.172,28.0642202 C84.1922565,28.4427047 84.1205422,28.8204631 83.963,29.1651376 C83.7499942,29.5654799 83.3917474,29.8688645 82.962,30.012844 C82.2554909,30.2585851 81.5094558,30.3705837 80.762,30.3431193 C78.8366601,30.2752592 76.9268286,29.9720933 75.075,29.440367 C72.0042251,28.5891386 68.9913383,27.5411034 66.055,26.3027523 C64.79,25.7743119 63.712,25.3009174 62.964,24.9706422 L62.095,24.5743119 L61.787,24.4311927 C61.4936925,24.2885754 61.1522787,24.2835528 60.8549097,24.4174805 C60.5575407,24.5514081 60.3348704,24.8104803 60.247,25.1247706 C59.4622624,28.0348826 59.081026,31.03916 59.114,34.053211 L59.114,34.2293578 C59.114,34.8373777 59.6064868,35.3302752 60.214,35.3302752 C60.8215132,35.3302752 61.314,34.8373777 61.314,34.2293578 L61.314,34.2623853 Z" id="Shape" fill="#662059"></path>
            <path d="M68.948,29.066055 C69.079571,31.0728643 69.3367423,33.0694422 69.718,35.0440367 C70.367,38.346789 71.456,42.2990826 73.601,45.040367 L74.459,44.3577982 L74.767,43.2568807 L67.254,41.0550459 C66.7431721,40.9099665 66.2017093,41.1508174 65.967,41.6275229 L62.161,49.333945 L63.151,49.8183486 L64.163,49.4 C63.0273214,46.4101909 62.2195815,43.3057352 61.754,40.1412844 C61.6950512,39.7479644 61.4309215,39.4159968 61.0611058,39.2704306 C60.6912902,39.1248643 60.2719725,39.1878144 59.9611057,39.4355682 C59.6502389,39.683322 59.4950511,40.0782397 59.554,40.4715596 C60.0417995,43.8299555 60.9014205,47.1236098 62.117,50.2917431 C62.2823853,50.6906022 62.6654969,50.9558557 63.0967436,50.9700845 C63.5279904,50.9843133 63.9277258,50.7448895 64.119,50.3577982 L67.518,43.4880734 L74.118,45.3926606 C74.5766316,45.5234581 75.0672357,45.343589 75.3329214,44.9472366 C75.5986071,44.5508842 75.5788519,44.0283366 75.284,43.653211 C73.546,41.4513761 72.424,37.7412844 71.83,34.6036697 C71.533,33.0293578 71.346,31.6091743 71.236,30.5743119 C71.236,30.0568807 71.148,29.6495413 71.126,29.3633028 C71.104,29.0770642 71.126,29.1100917 71.126,29.0330275 L71.126,28.9229358 C71.1063504,28.5296158 70.8785346,28.1766649 70.5283686,27.9970361 C70.1782026,27.8174074 69.758885,27.8383908 69.4283686,28.052082 C69.0978522,28.2657733 68.9063503,28.6397076 68.926,29.0330275 L68.948,29.066055 Z" id="Shape" fill="#662059"></path>
            <path d="M54.252,17.1211009 L54.252,20.4238532 C54.252,21.0318731 54.7444868,21.5247706 55.352,21.5247706 C55.9595132,21.5247706 56.452,21.0318731 56.452,20.4238532 L56.452,17.1211009 C56.452,16.513081 55.9595132,16.0201835 55.352,16.0201835 C54.7444868,16.0201835 54.252,16.513081 54.252,17.1211009" id="Shape" fill="#FFFFFF"></path>
            <path d="M5.68434189e-15,63.1834862 C0.0039418247,70.6633425 5.37329226,77.0606526 12.7340814,78.3555016 C20.0948705,79.6503507 27.3220456,75.4689169 29.8742247,68.4387123 C32.4264039,61.4085076 29.5667753,53.5591452 23.0922605,49.8229746 C16.6177457,46.0868041 8.39753082,47.542454 3.597,53.2752294 C3.20515397,53.7403646 3.26425238,54.4353501 3.729,54.8275229 C4.19374762,55.2196958 4.88815397,55.1605481 5.28,54.6954128 C9.39327473,49.7796546 16.4395001,48.5296031 21.9903945,51.7308677 C27.5412889,54.9321322 29.994024,61.6603433 27.8071501,67.6870791 C25.6202762,73.7138149 19.4252562,77.2988471 13.1154218,76.1891209 C6.80558739,75.0793947 2.20291198,69.5953451 2.2,63.1834862 C2.2,62.5754663 1.70751322,62.0825688 1.1,62.0825688 C0.492486775,62.0825688 -5.68434189e-14,62.5754663 -5.68434189e-14,63.1834862 Z" id="Shape" fill="#662059"></path>
            <path d="M69.399,96.0238532 C65.7646219,89.1354609 57.5660956,86.0439615 50.2936702,88.8196175 C43.0212448,91.5952735 38.9613615,99.3654221 40.8327736,106.926683 C42.7041857,114.487944 49.9185236,119.463066 57.6446128,118.520395 C65.3707019,117.577724 71.1794698,111.013634 71.181,103.223853 C71.181,102.615833 70.6885132,102.122936 70.081,102.122936 C69.4734868,102.122936 68.981,102.615833 68.981,103.223853 C68.97881,109.900322 63.9998313,115.525779 57.3779238,116.333491 C50.7560162,117.141204 44.5727802,112.877267 42.9684306,106.396758 C41.364081,99.9162485 44.842946,93.2563186 51.0756226,90.8763709 C57.3082993,88.4964232 64.335542,91.1445957 67.452,97.0477064 C67.7375312,97.585804 68.4048508,97.7903565 68.9425,97.5045872 C69.4801492,97.2188178 69.6845312,96.5509417 69.399,96.012844 L69.399,96.0238532 Z" id="Shape" fill="#662059"></path>
            <path d="M55.814,94.6807339 C51.1022099,94.6867992 47.2840602,98.5081333 47.278,103.223853 C47.278,103.831873 47.7704868,104.324771 48.378,104.324771 C48.9855132,104.324771 49.478,103.831873 49.478,103.223853 C49.478,99.7216585 52.3147238,96.8825688 55.814,96.8825688 C56.4215132,96.8825688 56.914,96.3896713 56.914,95.7816514 C56.914,95.1736315 56.4215132,94.6807339 55.814,94.6807339 Z" id="Shape" fill="#FFFFFF"></path>
            <path d="M15.4,71.693578 C20.1117901,71.6875127 23.9299398,67.8661786 23.936,63.1504587 C23.936,62.5424388 23.4435132,62.0495413 22.836,62.0495413 C22.2284868,62.0495413 21.736,62.5424388 21.736,63.1504587 C21.7299323,66.6544335 18.89006,69.4917484 15.389,69.4917431 C14.7814868,69.4917431 14.289,69.9846406 14.289,70.5926606 C14.289,71.2006805 14.7814868,71.693578 15.389,71.693578 L15.4,71.693578 Z" id="Shape" fill="#FFFFFF"></path>
            <path d="M80.575,70.6807339 C84.3468765,77.4565248 92.5622298,80.3713904 99.7561323,77.4863357 C106.950035,74.601281 110.881023,66.8152262 108.934167,59.307526 C106.987311,51.7998257 99.76921,46.9097162 92.0814099,47.8901428 C84.3936097,48.8705694 78.631462,55.4160524 78.628,63.1724771 C78.628,63.780497 79.1204868,64.2733945 79.728,64.2733945 C80.3355132,64.2733945 80.828,63.780497 80.828,63.1724771 C80.8249667,56.523592 85.759637,50.9084454 92.3490228,50.0627394 C98.9384087,49.2170335 105.129063,53.4043153 106.802403,59.838827 C108.475743,66.2733387 105.110308,72.9498963 98.9450876,75.4266511 C92.7798675,77.9034058 85.7361279,75.4085277 82.5,69.6018349 C82.1962434,69.0698174 81.5190741,68.8849809 80.9875,69.1889908 C80.4559259,69.4930008 80.2712434,70.1707349 80.575,70.7027523 L80.575,70.6807339 Z" id="Shape" fill="#662059"></path>
            <path d="M85.514,63.1834862 C85.514,67.8591593 89.3012233,71.6495413 93.973,71.6495413 C94.5805132,71.6495413 95.073,71.1566438 95.073,70.5486239 C95.073,69.9406039 94.5805132,69.4477064 93.973,69.4477064 C90.5162498,69.4477064 87.714,66.6431195 87.714,63.1834862 C87.714,62.5754663 87.2215132,62.0825688 86.614,62.0825688 C86.0064868,62.0825688 85.514,62.5754663 85.514,63.1834862 Z" id="Shape" fill="#FFFFFF"></path>
            <rect id="Rectangle-path" fill="#F7DCDC" x="72.061" y="78.9266055" width="8.239" height="8.73027523"></rect>
            <path d="M81.972,81.1394495 C80.0419415,84.2072377 77.6013541,86.9216769 74.756,89.1651376 C77.011219,90.5057598 79.8985196,90.0659306 81.6530864,88.1144886 C83.4076531,86.1630466 83.5411587,83.2431129 81.972,81.1394495" id="Shape" fill="#2C817F"></path>
            <path d="M80.3,79.653211 C78.4119277,82.7394841 75.9734645,85.4523913 73.106,87.6568807 C73.5470823,88.2673387 74.1086717,88.7806848 74.756,89.1651376 C77.6013541,86.9216769 80.0419415,84.2072377 81.972,81.1394495 C81.5222403,80.5346697 80.9531457,80.0288023 80.3,79.653211" id="Shape" fill="#631C4D"></path>
            <path d="M12.914,32.1486239 C10.5147969,32.1467456 8.3912074,33.7015719 7.66656464,35.9906331 C6.94192189,38.2796944 7.78345051,40.7747476 9.746,42.1559633 C11.3570821,38.851208 13.3230071,35.7318982 15.609,32.853211 C14.7859552,32.390801 13.8578587,32.1481573 12.914,32.1486239" id="Shape" fill="#F7DCDC"></path>
            <path d="M17.237,34.2954128 C15.097594,37.0046404 13.2537792,39.9350603 11.737,43.0366972 C13.9910213,43.5149747 16.3039968,42.5363991 17.5317941,40.5850308 C18.7595914,38.6336626 18.6419252,36.1231796 17.237,34.2954128" id="Shape" fill="#2C817F"></path>
            <path d="M15.576,32.853211 C13.2900071,35.7318982 11.3240821,38.851208 9.713,42.1559633 C10.3179904,42.5820441 11.0026469,42.8815971 11.726,43.0366972 C13.2427792,39.9350603 15.086594,37.0046404 17.226,34.2954128 C16.7749781,33.7076777 16.2100219,33.2171414 15.565,32.853211" id="Shape" fill="#631C4D"></path>
        </g>
    </g>
</svg>