<?xml version="1.0" encoding="UTF-8"?>
<svg width="300px" height="200px" viewBox="0 0 300 200" version="1.1" xmlns="http://www.w3.org/2000/svg" xmlns:xlink="http://www.w3.org/1999/xlink">
    <!-- Generator: Sketch 51.3 (57544) - http://www.bohemiancoding.com/sketch -->
    <title>hanging-candy-cane</title>
    <desc>Created with Sketch.</desc>
    <defs></defs>
    <g id="hanging-candy-cane" stroke="none" stroke-width="1" fill="none" fill-rule="evenodd">
        <g id="Candycane1" transform="translate(150.000000, 100.000000) scale(-1, 1) translate(-150.000000, -100.000000) translate(114.000000, 40.000000)" fill-rule="nonzero">
            <path d="M33.1005405,39.4064516 C33.1005405,36.0580645 32.3610811,22.1032258 32.3610811,22.1032258 C30.5708108,20.6903226 19.2064865,29.3419355 17.7664865,30.0580645 C13.1663781,32.4060359 10.9614649,37.7290456 12.5636276,42.6185898 C14.1657902,47.5081341 19.1007239,50.5167103 24.2084232,49.7178251 C29.3161224,48.9189399 33.084502,44.5490955 33.1005405,39.4064516 Z" id="Shape" fill="#FFFFFF"></path>
            <polygon id="Shape" fill="#FFFFFF" points="37.907027 96.116129 9.00972973 96.116129 25.9783784 77.283871 55.8291892 77.283871"></polygon>
            <path d="M68.7308108,59.1483871 L45.8854054,59.1483871 C45.8854054,59.1483871 53.4940541,51.9870968 47.7145946,44.5935484 L61.1221622,31.2580645 C61.1221622,31.2580645 71.0464865,40.4322581 68.7308108,59.1483871 Z" id="Shape" fill="#FFFFFF"></path>
            <path d="M47.6951351,44.5935484 L61.1027027,31.2580645 C61.1027027,31.2580645 52.9102703,19.2580645 32.3805405,22.1032258 L32.3805405,42.9677419 C37.2356854,39.8363964 43.632215,40.5145941 47.7145946,44.5935484" id="Shape" fill="#FB5956"></path>
            <path d="M5.02054054,114.445161 C3.10142483,112.539128 2.02304287,109.952332 2.02304287,107.254839 C2.02304287,104.557345 3.10142483,101.970549 5.02054054,100.064516 L8.91243243,96.1935484 L37.8097297,96.1935484 L19.3816216,114.522581 C15.3807954,118.412207 8.97874104,118.377694 5.02054054,114.445161 Z" id="Shape" fill="#FB5956"></path>
            <path d="M28.547027,76.6645161 L42.732973,62.5548387 L46.6248649,58.683871 L68.6140541,58.5483871 C66.3784322,65.5662942 62.4190457,71.9191405 57.0940541,77.0322581 L28.4691892,76.7612903" id="Shape" fill="#FB5956"></path>
            <path d="M45.3794595,20.6322581 L49.8162162,2.38064516 C49.995547,1.37417374 49.3570988,0.402507507 48.3583127,0.161834496 C47.3595266,-0.0788385152 46.3447597,0.494459869 46.0410811,1.47096774 L41.4875676,19.7225806 C41.3082368,20.7290521 41.946685,21.7007183 42.9454711,21.9413913 C43.9442572,22.1820643 44.9590241,21.6087659 45.2627027,20.6322581" id="Shape" fill="#662059"></path>
            <path d="M45.1264865,19.2774194 L38.6464865,6.9483871 C38.3328085,6.31918601 37.7010634,5.90836035 36.9957629,5.87491677 C36.2904624,5.84147319 35.6222888,6.19065997 35.2498531,6.78732726 C34.8774174,7.38399455 34.8591657,8.13450781 35.2021622,8.7483871 L41.6821622,21.0774194 C41.9958401,21.7066204 42.6275852,22.1174461 43.3328857,22.1508897 C44.0381862,22.1843333 44.7063598,21.8351465 45.0787955,21.2384792 C45.4512312,20.6418119 45.4694829,19.8912986 45.1264865,19.2774194" id="Shape" fill="#662059"></path>
            <path d="M51.5481081,69.9290323 C52.6160447,69.9348981 53.5393321,69.1893923 53.7530402,68.1486659 C53.9667483,67.1079396 53.4113168,66.0620423 52.4265966,65.6509252 C51.4418763,65.239808 50.3023079,65.5780491 49.705157,66.4586894 C49.108006,67.3393298 49.2196979,68.5169357 49.9718919,69.2709677 C50.3902437,69.6873663 50.9562833,69.9236858 51.5481081,69.9290323" id="Shape" fill="#FFFFFF"></path>
            <path d="M27.8659459,65.0903226 C22.745916,65.091362 18.5027212,69.0389185 18.1600214,74.1200014 C17.8173216,79.2010843 21.492387,83.6769704 26.5664014,84.3581864 C31.6404159,85.0394025 36.377075,81.6928394 37.4010811,76.7032258 L28.4886486,76.7032258 L35.9027027,69.3290323 C34.0936628,66.6808437 31.0848797,65.093965 27.8659459,65.0903226" id="Shape" fill="#F7DCDC"></path>
            <path d="M35.9610811,69.3483871 L28.547027,76.7225806 L37.4594595,76.7225806 C38.0024069,74.1394057 37.4611626,71.4477337 35.9610811,69.2709677" id="Shape" fill="#FF9994"></path>
            <path d="M59.5654054,21.5032258 C56.864839,21.5014862 54.2850294,22.6161977 52.4432432,24.5806452 C55.8372964,26.0653027 58.8113971,28.3586696 61.1027027,31.2580645 L53.5524324,38.7677419 C56.9016644,41.3879094 61.5753626,41.5356305 65.0850944,39.1322536 C68.5948262,36.7288767 70.123904,32.3336491 68.858196,28.2867364 C67.592488,24.2398236 63.8265146,21.4829112 59.5654054,21.483871" id="Shape" fill="#F7DCDC"></path>
            <path d="M52.4432432,24.6 C50.5940617,26.5807347 49.6620153,29.2404137 49.8727064,31.9352602 C50.0833975,34.6301068 51.4176228,37.114502 53.5524324,38.7870968 L61.1027027,31.2774194 C58.8113971,28.3780245 55.8372964,26.0846576 52.4432432,24.6" id="Shape" fill="#FF9994"></path>
            <path d="M13.3881081,48.3096774 C15.6913496,50.6037804 18.817174,51.8928671 22.0767568,51.8928671 C25.3363395,51.8928671 28.4621639,50.6037804 30.7654054,48.3096774 L33.6259459,45.4645161 C36.8500948,42.2577018 42.0774726,42.257702 45.3016213,45.4645165 C48.5257699,48.671331 48.5257701,53.8706046 45.3016216,57.0774194 L3.63891892,98.516129 C1.33241541,100.806988 0.0363606701,103.916006 0.0363606701,107.158065 C0.0363606701,110.400123 1.33241541,113.509142 3.63891892,115.8 L5.02054054,114.425806 L3.07459459,114.425806 C3.07160415,114.940264 3.27466408,115.434738 3.63891892,115.8 C5.94216044,118.094103 9.06798479,119.38319 12.3275676,119.38319 C15.5871503,119.38319 18.7129747,118.094103 21.0162162,115.8 L61.7448649,75.2903226 C74.5527168,62.5474395 74.5527168,41.8912702 61.7448649,29.1483871 L60.3632432,30.5225806 L62.3091892,30.5225806 C62.3121796,30.0081233 62.1091197,29.5136493 61.7448649,29.1483871 C48.9331014,16.4093945 28.165277,16.4093945 15.3535135,29.1483871 L13.4075676,31.083871 C12.852241,31.5568836 12.6103486,32.299584 12.7813424,33.0066174 C12.9523362,33.7136507 13.5073566,34.2656871 14.2182117,34.4357616 C14.9290669,34.605836 15.6757819,34.3652442 16.1513514,33.8129032 L18.0972973,31.8774194 C29.3865986,20.665053 47.6728608,20.665053 58.9621622,31.8774194 L60.3437838,30.5032258 L58.3978378,30.5032258 C58.3948474,31.0176832 58.5979073,31.5121571 58.9621622,31.8774194 C70.2351359,43.1060255 70.2351359,61.2939745 58.9621622,72.5225806 L18.1362162,113.032258 C16.5629701,114.599482 14.4277198,115.480145 12.2010811,115.480145 C9.97444238,115.480145 7.83919205,114.599482 6.26594595,113.032258 L4.88432432,114.406452 L6.83027027,114.406452 C6.83326072,113.891994 6.63020078,113.39752 6.26594595,113.032258 C4.69025034,111.46747 3.80482756,109.3437 3.80482756,107.129032 C3.80482756,104.914365 4.69025034,102.790594 6.26594595,101.225806 L47.9286486,59.7870968 C52.5728901,55.0633774 52.5303983,47.5020505 47.8333575,42.8302627 C43.1363168,38.1584749 35.5341179,38.1162115 30.7848649,42.7354839 L27.9243243,45.5806452 C26.3510782,47.1478693 24.2158279,48.0285317 21.9891892,48.0285317 C19.7625505,48.0285317 17.6273002,47.1478693 16.0540541,45.5806452 C15.5784846,45.0283042 14.8317696,44.7877124 14.1209144,44.9577868 C13.4100593,45.1278613 12.8550389,45.6798976 12.6840451,46.386931 C12.5130514,47.0939644 12.7549437,47.8366647 13.3102703,48.3096774 L13.3881081,48.3096774 Z" id="Shape" fill="#662059"></path>
            <path d="M9.00972973,98.0322581 L25.3751351,98.0322581 C26.4498514,98.0322581 27.3210811,97.1657124 27.3210811,96.0967742 C27.3210811,95.027836 26.4498514,94.1612903 25.3751351,94.1612903 L9.00972973,94.1612903 C7.93501346,94.1612903 7.06378378,95.027836 7.06378378,96.0967742 C7.06378378,97.1657124 7.93501346,98.0322581 9.00972973,98.0322581" id="Shape" fill="#662059"></path>
            <path d="M27.8659459,79.2193548 L56.7632432,79.2193548 C57.8379595,79.2193548 58.7091892,78.3528092 58.7091892,77.283871 C58.7091892,76.2149327 57.8379595,75.3483871 56.7632432,75.3483871 L27.8659459,75.3483871 C26.7912297,75.3483871 25.92,76.2149327 25.92,77.283871 C25.92,78.3528092 26.7912297,79.2193548 27.8659459,79.2193548" id="Shape" fill="#662059"></path>
            <path d="M55.9264865,60.4064516 L68.7308108,60.4064516 C69.8055271,60.4064516 70.6767568,59.539906 70.6767568,58.4709677 C70.6767568,57.4020295 69.8055271,56.5354839 68.7308108,56.5354839 L55.9654054,56.5354839 C54.8906891,56.5354839 54.0194595,57.4020295 54.0194595,58.4709677 C54.0194595,59.539906 54.8906891,60.4064516 55.9654054,60.4064516" id="Shape" fill="#662059"></path>
            <path d="M30.4345946,22.1225806 L30.4345946,42.9870968 C30.4345946,44.056035 31.3058243,44.9225806 32.3805405,44.9225806 C33.4552568,44.9225806 34.3264865,44.056035 34.3264865,42.9870968 L34.3264865,22.1225806 C34.3264865,21.0536424 33.4552568,20.1870968 32.3805405,20.1870968 C31.3058243,20.1870968 30.4345946,21.0536424 30.4345946,22.1225806" id="Shape" fill="#662059"></path>
            <path d="M48.8043243,46.2387097 L60.947027,34.1612903 C61.6082143,33.3933672 61.5637601,32.2486564 60.8449879,31.5337486 C60.1262157,30.8188408 58.9753173,30.7746256 58.2032432,31.4322581 L46.0605405,43.5096774 C45.3993533,44.2776005 45.4438075,45.4223113 46.1625797,46.1372191 C46.8813519,46.852127 48.0322503,46.8963422 48.8043243,46.2387097" id="Shape" fill="#662059"></path>
        </g>
    </g>
</svg>