<?xml version="1.0" encoding="UTF-8"?>
<svg width="300px" height="200px" viewBox="0 0 300 200" version="1.1" xmlns="http://www.w3.org/2000/svg" xmlns:xlink="http://www.w3.org/1999/xlink">
    <!-- Generator: Sketch 51.3 (57544) - http://www.bohemiancoding.com/sketch -->
    <title>holly-leaves-with-red-berries</title>
    <desc>Created with Sketch.</desc>
    <defs></defs>
    <g id="holly-leaves-with-red-berries" stroke="none" stroke-width="1" fill="none" fill-rule="evenodd">
        <g id="Holly" transform="translate(61.000000, 45.000000)" fill-rule="nonzero">
            <path d="M99.7793814,66.118 C107.578716,52.6163329 106.282539,35.729405 96.5134021,23.568 C96.3341205,23.3892354 96.3104505,23.1075691 96.457397,22.901557 C96.6043435,22.6955448 96.878984,22.6253623 97.1072165,22.7355 C100.64028,24.17996 104.422624,24.921548 108.241237,24.9185 C121.492352,24.8817495 133.114882,16.0952435 136.725773,3.3845 C136.806451,3.02175899 137.08586,2.73564256 137.447423,2.64552819 C137.808985,2.55541381 138.190579,2.67678438 138.43299,2.959 C143.684536,9.175 154.707216,15.243 169.181443,8.0465 C169.438384,7.91090567 169.753785,7.95653928 169.961462,8.15935632 C170.169139,8.36217336 170.221405,8.67560379 170.090722,8.9345 C164.533618,19.8821247 167.244036,33.2014382 176.641237,41.1245 C176.927166,41.3586937 177.053568,41.7352779 176.96661,42.0938691 C176.879652,42.4524602 176.594652,42.7298886 176.23299,42.808 C163.469332,46.4028891 154.645381,58.0013231 154.614433,71.224 C154.611376,75.0309451 155.355237,78.8017315 156.804124,82.324 C156.914599,82.5515351 156.844201,82.8253364 156.637558,82.9718339 C156.430914,83.1183315 156.148385,83.0947337 155.969072,82.916 C143.770393,73.1767136 126.831708,71.8844966 113.28866,79.66" id="Shape" fill="#2D9693"></path>
            <path d="M149.084536,12.1905 C151.41956,12.8926377 153.845612,13.2479533 156.284536,13.245 C161.057938,13.1746261 165.748339,11.9897686 169.979381,9.7855 L169.459794,8.768 L169.459794,9.915 C169.639305,9.91892756 169.817247,9.88091374 169.979381,9.804 L169.459794,8.7865 L168.272165,8.7865 C168.272165,9.44040514 168.803885,9.9705 169.459794,9.9705 L169.459794,8.7125 L168.439175,8.213 C168.364808,8.36901759 168.326747,8.53976587 168.327835,8.7125 L169.459794,8.7125 L168.439175,8.213 C166.43384,12.1930888 165.373523,16.5796439 165.340206,21.0335 C165.367766,25.551545 166.494874,29.9954144 168.624742,33.9835 C170.3362,37.2600039 172.660425,40.1799552 175.472165,42.586 L176.047423,41.883 L175.156701,41.883 C175.159682,42.145453 175.274361,42.3942868 175.472165,42.5675 L176.047423,41.883 L175.824742,41.069 C175.469819,41.1820501 175.229453,41.5115429 175.230928,41.883 L176.047423,41.883 L175.824742,41.069 C167.19518,43.4595849 160.001559,49.4125432 156.05575,57.4284919 C152.10994,65.4444406 151.788043,74.7593296 155.171134,83.027 L156.395876,82.5275 L155.078351,82.5275 C155.076381,82.6984329 155.107898,82.8681055 155.171134,83.027 L156.395876,82.5275 L155.468041,81.5285 C155.186875,81.7853942 155.025539,82.1472915 155.02268,82.5275 L156.37732,82.5275 L155.449485,81.5285 L156.340206,82.4905 L156.340206,81.1955 C156.009223,81.1952544 155.690629,81.3209791 155.449485,81.547 L156.340206,82.509 L157.156701,81.4915 C156.923482,81.3102777 156.635895,81.2125361 156.340206,81.214 L156.340206,82.509 L157.156701,81.4915 C150.111968,75.8667414 141.353372,72.8060313 132.327835,72.815 C130.584291,72.8132874 128.842477,72.9245217 127.113402,73.148 C126.088544,73.2808245 125.365737,74.2167732 125.498969,75.2385 C125.632201,76.2602268 126.571018,76.9808245 127.595876,76.848 C129.164705,76.6411703 130.74535,76.5361159 132.327835,76.5335 C140.512094,76.5291223 148.4528,79.3093406 154.837113,84.4145 C155.76442,85.161004 157.101326,85.113685 157.973196,84.3035 C158.455969,83.860582 158.731689,83.2370785 158.734021,82.583 C158.73207,82.2716585 158.66903,81.963706 158.548454,81.6765 C157.190666,78.3836788 156.490972,74.8581974 156.48866,71.298 C156.508893,58.9457808 164.716217,48.0939354 176.62268,44.6765 C177.862282,44.3375967 178.725863,43.2198823 178.738144,41.9385 C178.739662,41.1104602 178.372625,40.3244191 177.736082,39.7925 C175.297739,37.6932814 173.282492,35.1505279 171.797938,32.3 C169.942217,28.8314107 168.961399,24.9645754 168.940206,21.0335 C168.969396,17.1447787 169.896443,13.3149885 171.649485,9.841 C171.81828,9.49503301 171.907059,9.11571601 171.909278,8.731 C171.909278,7.34145157 170.779374,6.215 169.385567,6.215 C168.985586,6.21665369 168.591556,6.31169244 168.235052,6.4925 C164.517087,8.44188326 160.391966,9.49377506 156.191753,9.5635 C154.111635,9.57070567 152.041864,9.27147465 150.049485,8.6755 C149.402476,8.4348374 148.674936,8.57226777 148.161083,9.03221428 C147.64723,9.49216078 147.432072,10.1985324 147.60262,10.8656723 C147.773167,11.5328123 148.301205,12.0503526 148.973196,12.209 L149.084536,12.1905 Z" id="Shape" fill="#662059"></path>
            <path d="M101.393814,67.043 C109.539921,52.9036177 108.18579,35.2363156 97.9793814,22.495 L96.9587629,23.309 L98.257732,23.309 C98.2592003,23.0142145 98.1611592,22.7275061 97.9793814,22.495 L96.9587629,23.309 L97.9237113,24.197 C98.150425,23.956592 98.276535,23.6389718 98.2762887,23.309 L96.9773196,23.309 L97.942268,24.197 L96.9402062,23.272 L96.9402062,24.6225 C97.32158,24.6196502 97.6845865,24.458807 97.942268,24.1785 L96.9402062,23.2535 L96.4391753,24.4745 C96.5985568,24.537543 96.7687494,24.5689639 96.9402062,24.567 L96.9402062,23.2535 L96.4391753,24.4745 C104.727139,27.8482806 114.065916,27.5323288 122.10539,23.6061542 C130.144864,19.6799796 136.1195,12.5174408 138.525773,3.921 L137.727835,3.699 L137.727835,4.513 C138.092437,4.52094126 138.418111,4.28687012 138.525773,3.9395 L137.727835,3.7175 L137.727835,3.625 L137.041237,4.217 C137.219257,4.4190385 137.476659,4.5338399 137.746392,4.5315 L137.746392,3.625 L137.059794,4.217 C138.614295,6.05062491 140.419581,7.65733928 142.42268,8.99 C143.270488,9.48967681 144.362167,9.24201628 144.909617,8.42580849 C145.457067,7.60960071 145.269566,6.50919863 144.482474,5.919 C142.770068,4.77695722 141.227145,3.40066546 139.898969,1.8305 C139.36542,1.19590232 138.576969,0.829986607 137.746392,0.8315 C136.45109,0.844064631 135.32183,1.71297836 134.981443,2.959 C131.594634,14.8730777 120.699541,23.10812 108.278351,23.1425 C104.707241,23.1401944 101.170955,22.4426392 97.8680412,21.089 C97.579955,20.9687918 97.2710586,20.9059444 96.9587629,20.904 C96.3026797,20.9063241 95.6772652,21.181202 95.2329897,21.6625 C94.4203216,22.531706 94.3728575,23.8645269 95.1216495,24.789 C104.381196,36.3438815 105.610309,52.3689212 98.2206186,65.193 C97.8549414,65.7664798 97.8340681,66.4936647 98.1662513,67.0870537 C98.4984345,67.6804428 99.1301966,68.0445073 99.811763,68.0353102 C100.493329,68.0261131 101.114976,67.645135 101.430928,67.043 L101.393814,67.043 Z" id="Shape" fill="#662059"></path>
            <path d="M117.909278,58.9585 L107.610309,69.2445 C106.887784,69.969926 106.891938,71.1419326 107.619588,71.8622499 C108.347237,72.5825673 109.522836,72.578426 110.245361,71.853 L120.54433,61.567 C121.266855,60.841574 121.262701,59.6695674 120.535051,58.9492501 C119.807402,58.2289327 118.631803,58.233074 117.909278,58.9585" id="Shape" fill="#662059"></path>
            <path d="M126.872165,50.023 L122.975258,53.8895 C122.504551,54.3554636 122.318951,55.0363835 122.488371,55.6757637 C122.65779,56.3151438 123.156492,56.8158472 123.796618,56.9892637 C124.436745,57.1626802 125.121046,56.9824637 125.591753,56.5165 L129.48866,52.65 C129.959367,52.1840364 130.144967,51.5031165 129.975547,50.8637362 C129.806127,50.224356 129.307426,49.7236525 128.6673,49.5502361 C128.027173,49.3768196 127.342872,49.5570362 126.872165,50.023" id="Shape" fill="#662059"></path>
            <path d="M147.321649,29.636 L132.086598,44.843 C131.456084,45.5770065 131.498476,46.6711592 132.183903,47.354492 C132.86933,48.0378247 133.966837,48.0800871 134.703093,47.4515 L149.956701,32.2445 C150.587215,31.5104935 150.544823,30.4163408 149.859396,29.733008 C149.173969,29.0496753 148.076462,29.0074129 147.340206,29.636" id="Shape" fill="#662059"></path>
            <path d="M79.0329897,71.9455 C71.2336549,58.4438329 72.5298326,41.556905 82.2989691,29.3955 C82.4642072,29.2176324 82.4835996,28.949301 82.3456444,28.7496553 C82.2076891,28.5500096 81.9492923,28.4724592 81.7237113,28.563 C78.1906474,30.00746 74.4083038,30.749048 70.5896907,30.746 C57.3385756,30.7092495 45.7160462,21.9227435 42.1051546,9.212 C42.0244769,8.84925899 41.7450673,8.56314256 41.3835051,8.47302819 C41.0219428,8.38291381 40.6403492,8.50428438 40.3979381,8.7865 C35.1463918,15.0025 24.1237113,21.0705 9.64948454,13.874 C9.39254425,13.7384057 9.07714246,13.7840393 8.8694655,13.9868563 C8.66178853,14.1896734 8.60952235,14.5031038 8.74020619,14.762 C14.2973098,25.7096247 11.5868914,39.0289382 2.18969072,46.952 C1.90376175,47.1861937 1.77735958,47.5627779 1.86431765,47.9213691 C1.95127573,48.2799602 2.23627543,48.5573886 2.59793814,48.6355 C15.3615957,52.2303891 24.1855471,63.8288231 24.2164948,77.0515 C24.2195522,80.8584451 23.4756913,84.6292315 22.0268041,88.1515 C21.9359859,88.3763917 22.0137739,88.633999 22.2140315,88.7715327 C22.4142891,88.9090664 22.683443,88.8897333 22.8618557,88.725 C35.0605344,78.9857136 51.9992194,77.6934966 65.542268,85.469 L79.0886598,71.8715" id="Shape" fill="#2D9693"></path>
            <path d="M47.6721649,16.8525 C46.0053471,14.3817891 44.751929,11.6576869 43.9608247,8.7865 C43.6098,7.53461322 42.4626111,6.67116996 41.1587629,6.6775 C40.3281853,6.67598661 39.5397349,7.04190232 39.0061856,7.6765 C37.1524248,9.86076848 34.8896796,11.6641768 32.3443299,12.986 C29.3371171,14.552176 25.9948914,15.3708993 22.6020619,15.3725 C18.4018485,15.3027751 14.2767272,14.2508833 10.5587629,12.3015 C10.2022588,12.1206924 9.80822801,12.0256537 9.40824742,12.024 C8.02836553,11.9927294 6.87925358,13.0723963 6.82886598,14.4475 C6.82763076,14.8385379 6.9165143,15.2246328 7.08865979,15.576 C8.84107358,19.0502181 9.76808417,22.87986 9.79793814,26.7685 C9.77674483,30.6995754 8.79592747,34.5664107 6.94020619,38.035 C5.45489034,40.8850367 3.43975001,43.4276557 1.00206186,45.5275 C0.365519182,46.0594191 -0.00151803153,46.8454602 3.14694434e-13,47.6735 C0.0122817871,48.9548823 0.87586268,50.0725967 2.11546392,50.4115 C14.0734129,53.7811107 22.342535,64.6445795 22.3793814,77.033 C22.3765927,80.5931507 21.6769176,84.1185412 20.3195876,87.4115 C20.1994668,87.6988458 20.1364452,88.0067079 20.1340206,88.318 C20.1363518,88.9720785 20.4120722,89.595582 20.8948454,90.0385 C21.7667155,90.848685 23.1036213,90.896004 24.0309278,90.1495 C35.6212241,80.9182469 51.6953793,79.692889 64.5587629,87.06 C65.4399286,87.5195432 66.527826,87.2048989 67.0254926,86.3465665 C67.5231591,85.488234 67.2536646,84.3913676 66.414433,83.8595 C52.2317146,75.7382841 34.5102636,77.0882773 21.7298969,87.2635 L22.5463918,88.281 L22.5463918,86.986 C22.2507028,86.9845361 21.9631156,87.0822777 21.7298969,87.2635 L22.5463918,88.281 L23.4371134,87.319 C23.1959685,87.0929791 22.8773749,86.9672544 22.5463918,86.9675 L22.5463918,88.4475 L23.4371134,87.4855 L22.5092784,88.4845 L23.8639175,88.4845 C23.8658618,88.1070835 23.7114289,87.7456098 23.4371134,87.4855 L22.5092784,88.4845 L23.7340206,88.984 C23.7972569,88.8251055 23.828774,88.6554329 23.8268041,88.4845 L22.6020619,88.4845 L23.8268041,88.984 C27.2098952,80.7163296 26.8879977,71.4014406 22.9421884,63.3854919 C18.9963792,55.3695432 11.802758,49.4165849 3.17319588,47.026 L2.95051546,47.84 L3.76701031,47.84 C3.76848515,47.4685429 3.52811956,47.1390501 3.17319588,47.026 L2.95051546,47.84 L3.5257732,48.543 C3.72843092,48.3655237 3.84358419,48.1089088 3.84123711,47.84 L2.95051546,47.84 L3.5257732,48.543 C6.33751325,46.1369552 8.66173771,43.2170039 10.3731959,39.9405 C12.5030641,35.9524144 13.6301721,31.508545 13.657732,26.9905 C13.6244151,22.5366439 12.5640978,18.1500888 10.5587629,14.17 L9.53814433,14.6695 L10.6886598,14.6695 C10.6897474,14.4967659 10.651687,14.3260176 10.5773196,14.17 L9.55670103,14.6695 L9.55670103,15.8535 C10.2126103,15.8535 10.7443299,15.3234051 10.7443299,14.6695 L9.55670103,14.6695 L9.0371134,15.687 C9.19946671,15.7632712 9.37725478,15.8012522 9.55670103,15.798 L9.55670103,14.651 L9.0371134,15.6685 C13.2337659,17.8339902 17.8771677,18.9992095 22.6020619,19.0725 C26.6149677,19.0787723 30.5694261,18.1138108 34.1257732,16.2605 C37.1029905,14.7192072 39.7502951,12.6141185 41.9195876,10.063 L41.214433,9.471 L41.214433,10.3775 C41.4836554,10.3774308 41.740106,10.2630534 41.9195876,10.063 L41.214433,9.471 L41.214433,9.5635 L40.4164948,9.7855 C40.5241568,10.1328701 40.8498312,10.3669413 41.214433,10.359 L41.214433,9.545 L40.4164948,9.767 C41.3323876,13.0240154 42.7739138,16.1107026 44.6845361,18.906 C45.0554187,19.4603426 45.6966725,19.7730124 46.3632853,19.7245434 C47.029898,19.6760745 47.6188611,19.2739565 47.9051415,18.671832 C48.191422,18.0697075 48.1307823,17.36062 47.7463918,16.8155" id="Shape" fill="#662059"></path>
            <path d="M80.6474227,71.0205 C73.2924069,58.1823618 74.5581841,42.1663814 83.8391753,30.635 C84.5879673,29.7105269 84.5405032,28.377706 83.7278351,27.5085 C83.2835596,27.027202 82.6581451,26.7523241 82.0020619,26.75 C81.6897161,26.7514639 81.3807269,26.8143303 81.0927835,26.935 C71.2274679,30.9763621 59.9099234,28.9962632 52.014433,21.8475 C51.531791,21.3570136 50.8162378,21.1736005 50.1561463,21.3711775 C49.4960548,21.5687544 49.000173,22.1147712 48.8683449,22.7891792 C48.7365168,23.4635872 48.9904605,24.1552798 49.5278351,24.5855 C58.4629792,32.6540983 71.2481884,34.8983402 82.4103093,30.3575 L81.9092784,29.1365 L81.9092784,30.45 C82.0806944,30.4514957 82.2507976,30.4200914 82.4103093,30.3575 L81.9092784,29.1365 L80.9072165,30.0615 C81.1681235,30.3349773 81.5307051,30.4889383 81.9092784,30.487 L81.9092784,29.1365 L80.9072165,30.0615 L81.8721649,29.1735 L80.5731959,29.1735 C80.5729496,29.5034718 80.6990596,29.821092 80.9257732,30.0615 L81.8907216,29.1735 L80.8701031,28.3595 C80.6883253,28.5920061 80.5902842,28.8787145 80.5917526,29.1735 L81.8907216,29.1735 L80.8701031,28.3595 C70.6636942,41.1008156 69.3095634,58.7681177 77.4556701,72.9075 C77.9891678,73.7441673 79.0893961,74.0128384 79.9503592,73.5166925 C80.8113224,73.0205466 81.126931,71.9359733 80.6659794,71.0575 L80.6474227,71.0205 Z" id="Shape" fill="#662059"></path>
            <path d="M100.317526,87.8185 C100.317526,76.8962406 91.4361476,68.042 80.4804124,68.042 C69.5246772,68.042 60.643299,76.8962406 60.643299,87.8185 C60.643299,98.7407594 69.5246772,107.595 80.4804124,107.595 C91.4361476,107.595 100.317526,98.7407594 100.317526,87.8185" id="Shape" fill="#FB5956"></path>
            <path d="M96.0680412,101.1015 C105.419465,102.458926 114.433094,97.0514216 117.609303,88.1783502 C120.785512,79.3052788 117.242381,69.4303769 109.141735,64.5787705 C101.04109,59.7271642 90.6321903,61.2459718 84.2659794,68.2085" id="Shape" fill="#FB5956"></path>
            <path d="M80.4804124,109.445 C91.2220686,109.444188 100.345576,101.606278 101.933278,91.0150686 C103.520981,80.423859 97.094703,70.269143 86.822635,67.1374363 C76.550567,64.0057295 65.5263853,68.8402196 60.9005552,78.505177 C56.274725,88.1701344 59.4404249,99.7547279 68.3443299,105.745 C69.1949623,106.317167 70.3497904,106.093533 70.923711,105.2455 C71.4976315,104.397467 71.2733125,103.246167 70.4226804,102.674 C63.0243325,97.7154856 60.3811679,88.1050779 64.2080959,80.0780973 C68.0350239,72.0511167 77.1790155,68.0260415 85.7073652,70.6143773 C94.2357149,73.202713 99.5788852,81.6246107 98.2701784,90.415866 C96.9614715,99.2071213 89.3951924,105.718985 80.4804124,105.7265 C79.4555541,105.7265 78.6247423,106.554773 78.6247423,107.5765 C78.6247423,108.598227 79.4555541,109.4265 80.4804124,109.4265" id="Shape" fill="#662059"></path>
            <path d="M95.8082474,102.933 C103.844582,104.089869 111.856129,100.675631 116.570435,94.0848888 C121.284741,87.4941464 121.912408,78.8305044 118.197054,71.6327734 C114.4817,64.4350424 107.045453,59.9084657 98.9257732,59.902 C96.3933757,59.9018995 93.8807568,60.3465266 91.5030928,61.2155 C90.539726,61.5679957 90.045393,62.6323268 90.3989691,63.59275 C90.7525452,64.5531732 91.8201384,65.0459957 92.7835052,64.6935 C94.7566366,63.9708886 96.8422784,63.6013799 98.9443299,63.602 C105.644244,63.6533384 111.759867,67.4140946 114.812646,73.3601005 C117.865425,79.3061065 117.348993,86.4510943 113.472651,91.8993269 C109.596309,97.3475594 103.003028,100.195335 96.3649485,99.2885 C95.7019813,99.1926634 95.0380895,99.4567148 94.6233546,99.9811885 C94.2086198,100.505662 94.1060501,101.210878 94.3542825,101.831189 C94.6025148,102.451499 95.1638369,102.892664 95.8268041,102.9885 L95.8082474,102.933 Z" id="Shape" fill="#662059"></path>
            <path d="M81.2969072,101.046 C83.9177153,101.426813 86.582904,100.753813 88.7058718,99.1751267 C90.8288395,97.5964401 92.2355878,95.2414557 92.6164948,92.6285 C92.7650993,91.6067732 92.0547552,90.6584004 91.0298969,90.51025 C90.0050386,90.3620996 89.0537591,91.0702732 88.9051546,92.092 C88.4543304,95.1595313 85.8169985,97.4345613 82.7072165,97.4385 C82.4045136,97.4601743 82.1006411,97.4601743 81.7979381,97.4385 C81.134971,97.3426634 80.4710792,97.6067148 80.0563443,98.1311885 C79.6416095,98.6556623 79.5390398,99.3608784 79.7872721,99.9811887 C80.0355045,100.601499 80.5968266,101.042664 81.2597938,101.1385 L81.2969072,101.046 Z" id="Shape" fill="#FFFFFF"></path>
            <path d="M40.0453608,49.2275 L65.5793814,74.6835 C66.0328884,75.2114459 66.744962,75.4414116 67.4228393,75.2788487 C68.1007167,75.1162859 68.6299886,74.5886312 68.7930497,73.9128251 C68.9561108,73.237019 68.7254403,72.5271213 68.1958763,72.075 L42.6618557,46.619 C42.2083487,46.0910541 41.4962751,45.8610884 40.8183978,46.0236513 C40.1405204,46.1862141 39.6112485,46.7138688 39.4481874,47.3896749 C39.2851263,48.065481 39.5157968,48.7753787 40.0453608,49.2275" id="Shape" fill="#662059"></path>
            <path d="M30.6371134,39.848 L34.9979381,44.1955 C35.7341943,44.8240871 36.8317005,44.7818247 37.5171276,44.098492 C38.2025547,43.4151592 38.2449466,42.3210065 37.614433,41.587 L33.2536082,37.2395 C32.8001013,36.7115541 32.0880277,36.4815884 31.4101504,36.6441513 C30.732273,36.8067141 30.203001,37.3343688 30.03994,38.0101749 C29.8768789,38.685981 30.1075494,39.3958787 30.6371134,39.848" id="Shape" fill="#662059"></path>
            <path d="M58.342268,75.035 C54.9569847,75.0250773 51.7063397,76.3559654 49.3051546,78.735 C52.9204091,78.9777838 56.4853875,79.7122533 59.9010309,80.918 C60.5204244,79.0707962 61.3881176,77.3158193 62.4804124,75.701 C61.1481538,75.2475962 59.7500144,75.0163267 58.342268,75.0165" id="Shape" fill="#2C817F"></path>
            <path d="M46.7257732,82.361 C44.5384969,87.0023626 45.3449863,92.4975897 48.7743727,96.3196706 C52.2037592,100.141751 57.5922256,101.550856 62.4618557,99.899 C60.0420225,96.3321994 58.7493543,92.1245339 58.7505155,87.8185 C58.7492916,86.728685 58.8299294,85.6403086 58.9917526,84.5625 C55.0620754,83.1251252 50.9115494,82.3801881 46.7257732,82.361" id="Shape" fill="#F7DCDC"></path>
            <path d="M49.3051546,78.7535 C48.2482279,79.798906 47.3817105,81.0195916 46.7443299,82.361 C50.9301061,82.3801881 55.0806321,83.1251252 59.0103093,84.5625 C59.1908818,83.3059134 59.4827439,82.0677419 59.8824742,80.8625 C56.4668308,79.6567533 52.9018524,78.9222838 49.2865979,78.6795" id="Shape" fill="#631C4D"></path>
            <path d="M65.8020619,77.3475 C61.380983,83.5645679 61.380983,91.8874321 65.8020619,98.1045 C69.1597256,95.7074957 71.1515867,91.8431282 71.1515867,87.726 C71.1515867,83.6088718 69.1597256,79.7445043 65.8020619,77.3475" id="Shape" fill="#F34D4A"></path>
            <path d="M62.4804124,75.7195 C60.683561,78.3740637 59.504321,81.3953239 59.028866,84.5625 C58.8670428,85.6403086 58.786405,86.728685 58.7876289,87.8185 C58.7864677,92.1245339 60.079136,96.3321994 62.4989691,99.899 C63.6838842,99.4970571 64.8030724,98.9235895 65.8206186,98.197 C61.3995397,91.9799321 61.3995397,83.6570679 65.8206186,77.44 C64.8030724,76.7134105 63.6838842,76.1399429 62.4989691,75.738" id="Shape" fill="#631C4D"></path>
        </g>
    </g>
</svg>