<?xml version="1.0" encoding="UTF-8"?>
<svg width="300px" height="200px" viewBox="0 0 300 200" version="1.1" xmlns="http://www.w3.org/2000/svg" xmlns:xlink="http://www.w3.org/1999/xlink">
    <!-- Generator: Sketch 51.3 (57544) - http://www.bohemiancoding.com/sketch -->
    <title>mistle-toe-with-red-berries</title>
    <desc>Created with Sketch.</desc>
    <defs></defs>
    <g id="mistle-toe-with-red-berries" stroke="none" stroke-width="1" fill="none" fill-rule="evenodd">
        <g id="Mistletoe" transform="translate(91.000000, 40.000000)" fill-rule="nonzero">
            <path d="M67.7700307,32.1845308 C67.7700307,32.1845308 71.0894837,41.0924538 93.2484852,55.7209154 C121.130486,73.1727577 124.991446,49.0934654 100.811236,46.5238615 C99.3651199,46.3701808 97.9147179,46.1888423 96.4800862,45.9509423 C86.5992389,44.3123885 77.9809354,44.2212231 67.7700307,32.1845308" id="Shape" fill="#2D9693"></path>
            <path d="M50.332591,32.1845308 C50.332591,32.1845308 51.0679185,37.0399846 24.8541364,55.7209154 C-3.02786398,73.1727577 -6.88882476,49.0934654 17.291386,46.5238615 C18.7375017,46.3701808 20.1879038,46.1888423 21.6225354,45.9509423 C31.503452,44.3124 40.1216978,44.2212346 50.332591,32.1845423" id="Shape" fill="#2D9693"></path>
            <path d="M66.7507899,71.7491423 C66.7507899,71.7491423 68.4407632,78.6672923 89.2507438,92.5340769 C113.873242,107.945735 117.282823,86.6814 95.9293819,84.4121538 C94.6523271,84.2764385 93.3714596,84.1162962 92.1045602,83.9062038 C83.3787639,82.4592115 75.7680553,82.3787077 66.7507899,71.7491423 Z" id="Shape" fill="#2D9693"></path>
            <path d="M51.3520224,71.7491654 C51.3520224,71.7491654 51.6421224,76.9540731 28.8518894,92.5340769 C4.22940301,107.945735 0.819879709,86.6814 22.1732628,84.4121769 C23.4503177,84.2764615 24.7311851,84.1163192 25.9980846,83.9062269 C34.7238809,82.4592346 42.3345894,82.3787308 51.3520224,71.7491654 Z" id="Shape" fill="#2D9693"></path>
            <path d="M56.5937817,61.5736154 C56.5937817,61.5736154 53.0333595,75.6585462 40.2345976,72.43185 C31.6838583,70.2761308 35.4369913,65.2519846 42.9583458,67.3419346 C54.146229,70.4506962 56.5937817,61.5736154 56.5937817,61.5736154 Z" id="Shape" fill="#2D9693"></path>
            <path d="M61.6794374,61.5736154 C61.6794374,61.5736154 65.0380102,75.6585462 77.8367952,72.43185 C86.3875345,70.2761308 82.6344016,65.2519846 75.113047,67.3419346 C63.9251638,70.4506962 61.6794374,61.5736154 61.6794374,61.5736154 Z" id="Shape" fill="#2D9693"></path>
            <path d="M59.0513166,85.7991 C59.0513166,85.7991 52.5819914,94.2767885 35.3328374,101.479719 C16.7125608,109.2552 31.6595847,129.023388 45.92051,111.232027 C60.1814353,93.4406654 59.0513166,85.7991 59.0513166,85.7991 Z" id="Shape" fill="#2D9693"></path>
            <path d="M59.0724709,85.7991 C59.0724709,85.7991 65.5417846,94.2767885 82.7909385,101.479719 C101.411215,109.2552 86.4641913,129.023388 72.2032659,111.232027 C57.9423406,93.4406654 59.0724709,85.7991 59.0724709,85.7991 Z" id="Shape" fill="#2D9693"></path>
            <path d="M42.8527016,41.6758846 C42.8527016,41.6758846 33.1998375,55.0301538 39.673345,59.0205 C43.8960196,61.6234038 48.702626,58.4884846 47.3089281,49.1174423 C46.4715031,43.4867538 46.8045183,37.0151308 48.7026376,34.5804577" id="Shape" fill="#2D9693"></path>
            <path d="M75.2761001,41.7057808 C75.2761001,41.7057808 85.0875461,55.0301538 78.6140848,59.0204654 C74.3914102,61.6233692 69.5848038,58.48845 70.9785017,49.1174077 C71.8159267,43.4867192 71.4829116,37.0150962 69.5847922,34.5804231" id="Shape" fill="#2D9693"></path>
            <path d="M59.0514321,100.123754 C58.7449925,100.123833 58.451081,100.002293 58.2343955,99.785888 C58.01771,99.5694827 57.8960126,99.2759511 57.8960923,98.9699077 L57.8960923,51.6008077 C57.8960923,50.9635561 58.4133556,50.4469615 59.0514321,50.4469615 C59.6895087,50.4469615 60.2067719,50.9635561 60.2067719,51.6008077 L60.2067719,98.9699077 C60.2068516,99.2759511 60.0851543,99.5694827 59.8684688,99.785888 C59.6517832,100.002293 59.3578717,100.123833 59.0514321,100.123754 Z" id="Shape" fill="#662059"></path>
            <path d="M59.0514321,52.7546538 C58.4133556,52.7546538 57.8960923,52.2380593 57.8960923,51.6008077 L57.8960923,45.3707538 C57.8960923,44.7335022 58.4133556,44.2169077 59.0514321,44.2169077 C59.6895087,44.2169077 60.2067719,44.7335022 60.2067719,45.3707538 L60.2067719,51.6008423 C60.2067528,52.2380804 59.6894952,52.7546538 59.0514321,52.7546538 Z" id="Shape" fill="#662059"></path>
            <path d="M59.0514321,42.4793423 C58.4133556,42.4793423 57.8960923,41.9627478 57.8960923,41.3254962 L57.8960923,1.15384615 C57.8960923,0.516594519 58.4133556,0 59.0514321,0 C59.6895087,0 60.2067719,0.516594519 60.2067719,1.15384615 L60.2067719,41.3254962 C60.2067719,41.9627478 59.6895087,42.4793423 59.0514321,42.4793423 Z" id="Shape" fill="#662059"></path>
            <path d="M110.203987,63.1871538 C105.59165,63.1871538 99.4471375,60.96285 92.6347341,56.6984538 C82.2982978,50.9153756 73.4778178,42.7729291 66.8934166,32.9358808 L66.8888992,32.93025 C66.8230042,32.8534129 66.7679603,32.7679218 66.7253031,32.6761615 C65.2375123,30.3810398 63.903981,27.9897744 62.7335117,25.51815 C58.2605212,16.0411731 57.9096329,9.00767308 57.8972592,8.71301538 C57.8755455,8.08038962 58.368219,7.54840563 59.0014302,7.52074241 C59.6346414,7.49307919 60.1719463,7.98006633 60.2056282,8.61216923 C60.2135307,8.78231538 60.8335091,19.3567846 68.9490896,31.7865577 C77.689732,41.9210192 85.076478,43.0410692 93.6140117,44.3346346 C94.6204166,44.4873115 95.638167,44.6416846 96.6693424,44.8129615 C97.9386334,45.0231115 99.2936737,45.2022692 100.933043,45.3769269 C111.588349,46.50885 116.626024,51.50955 117.701264,55.4471654 C118.423059,57.7228699 117.61752,60.2051779 115.696345,61.6254231 C114.082534,62.7248369 112.155622,63.2727467 110.203987,63.1871538 Z M76.9101203,41.6973346 C81.9237839,46.7945041 87.6167394,51.1774781 93.8283965,54.7226192 C104.762382,61.5668192 111.693289,61.7178115 114.318752,59.7723808 C115.479606,58.9209353 115.947516,57.4121816 115.471781,56.0544923 C114.518395,52.5625269 109.576614,48.6159 100.689301,47.6710846 C99.0036603,47.4919269 97.6057569,47.3071269 96.2902061,47.0890962 C95.2702606,46.9200808 94.2627234,46.7673923 93.2664623,46.6164 C87.7628625,45.7819962 82.4521351,44.9774538 76.9101203,41.6973346 Z" id="Shape" fill="#662059"></path>
            <path d="M100.243698,53.8442654 C100.142739,53.8441894 100.042224,53.8309309 99.9447077,53.8048269 C99.4911444,53.6836731 88.6778339,50.7263654 75.2312729,40.6285615 C74.7239503,40.2449738 74.6227886,39.5238669 75.0050251,39.0158083 C75.3872616,38.5077497 76.1089292,38.4040966 76.6190324,38.7839885 C89.7102455,48.6147577 100.433243,51.5466808 100.540436,51.5748923 C101.100421,51.7245621 101.462769,52.265361 101.387706,52.8394297 C101.312642,53.4134983 100.823389,53.8432318 100.243698,53.8442654 Z" id="Shape" fill="#662059"></path>
            <path d="M7.9016968,63.1871538 C5.78021444,63.302715 3.68984131,62.6380924 2.02570786,61.3189154 C0.282702743,59.782276 -0.329549855,57.3305467 0.486795243,55.1564308 C1.69911641,51.3337385 6.79547049,46.4789192 17.1692666,45.37635 C18.8103228,45.2022577 20.1653631,45.0231 21.4335334,44.81295 C22.4642005,44.6416731 23.4818931,44.4873 24.4888642,44.3351885 C33.1228803,43.0264038 40.580125,41.8962231 49.451136,31.4383615 C49.7179874,31.1237541 50.1326266,30.9752244 50.5388629,31.048722 C50.9450993,31.1222196 51.281216,31.4065785 51.420601,31.7946835 C51.5599859,32.1827885 51.4814634,32.6156772 51.214612,32.9302846 C41.7829147,44.0478808 33.5511185,45.2952577 24.8352928,46.6164346 C23.8390433,46.7674269 22.8320607,46.9201038 21.811549,47.0891308 C20.4982512,47.3072077 19.1009023,47.4919615 17.4141524,47.6711192 C8.74289971,48.5928462 3.77065223,52.4448231 2.68977408,55.8534 C2.16432322,57.1534306 2.50718545,58.642803 3.54837641,59.5831154 C5.47317252,61.2671192 10.3314804,61.7561538 18.1915228,58.0732038 C18.5654971,57.8960101 19.0058126,57.932163 19.3457883,58.1679769 C19.6857639,58.4037908 19.8734449,58.8032288 19.8377847,59.2150838 C19.8021245,59.6269389 19.5485726,59.9882717 19.1731111,60.1623 C15.6741312,61.9596798 11.8314796,62.9909132 7.9016968,63.1871538 Z" id="Shape" fill="#662059"></path>
            <path d="M24.855569,56.8748077 C24.3327487,56.8754649 23.8746338,56.5254229 23.7385243,56.0212827 C23.6024149,55.5171425 23.8222314,54.9845434 24.274514,54.7226192 C56.3458574,36.1455808 57.8853708,8.88708462 57.897213,8.61383077 C57.9312296,7.98028795 58.4661364,7.4901378 59.1010771,7.51069615 C59.4071966,7.5238386 59.6955495,7.65789557 59.902697,7.883374 C60.1098445,8.10885243 60.2188169,8.40728086 60.2056397,8.71300385 C60.1932314,8.99915769 58.5871473,37.5146538 25.4343134,56.7193154 C25.2584733,56.8211362 25.0588277,56.8747754 24.855569,56.8748077 Z" id="Shape" fill="#662059"></path>
            <path d="M17.8597323,53.8437115 C17.2800691,53.843339 16.7904349,53.4140027 16.7150596,52.8400039 C16.6396844,52.266005 17.0019096,51.7250949 17.5618742,51.5754577 C17.6685005,51.5467269 28.423085,48.5911154 41.4832773,38.7839885 C41.9933483,38.4025844 42.716307,38.5055657 43.099272,39.0141776 C43.4822369,39.5227895 43.3806363,40.2450275 42.872169,40.6285615 C29.424938,50.7264115 18.6117199,53.6836962 18.1581566,53.8048385 C18.0607952,53.830689 17.9604756,53.8437567 17.8597323,53.8437115 Z" id="Shape" fill="#662059"></path>
            <path d="M92.1055884,85.0595308 C92.041706,85.0598301 91.9779195,85.0545523 91.9149574,85.0437577 C91.0146011,84.8950154 90.1255324,84.7598077 89.245487,84.6268385 C81.523577,83.4560885 74.2304945,82.3506923 65.8701321,72.4956808 C65.4576156,72.0096521 65.517719,71.2816697 66.0043768,70.8696865 C66.4910346,70.4577034 67.2199594,70.5177291 67.6324759,71.0037577 C75.4333303,80.1996 81.9952445,81.1934308 89.5929554,82.3450269 C90.4831563,82.4802462 91.3823804,82.6165846 92.2940128,82.7675769 C92.8868639,82.8660138 93.3051286,83.4019581 93.25595,84.0001568 C93.2067713,84.5983556 92.7065768,85.0589873 92.1055884,85.0595308 Z" id="Shape" fill="#662059"></path>
            <path d="M104.234346,99.2504885 C100.11958,99.2504885 94.6576648,97.2797192 88.6372583,93.5128038 C59.3278587,76.5352615 57.941786,52.0611 57.897213,51.0272654 C57.8754993,50.3946396 58.3681728,49.8626556 59.001384,49.8349924 C59.6345952,49.8073292 60.1719001,50.2943163 60.2055819,50.9264192 C60.2168696,51.1675731 61.6345293,75.2033423 89.8309092,91.5363923 C99.2700008,97.4430923 105.230607,97.7507538 107.676681,96.0762808 C108.640008,95.4456127 109.097068,94.2743544 108.815095,93.1589885 C108.315272,90.5988923 105.041062,87.4077923 98.8536741,86.0488615 C98.2325702,85.9101209 97.8408186,85.2958096 97.9775685,84.6750279 C98.1143184,84.0542461 98.7280528,83.6608576 99.350112,83.7952615 C107.053918,85.4865923 110.486051,89.6580115 111.0829,92.7161654 C111.550408,94.7356425 110.714034,96.8328524 108.984329,97.9783385 C107.567015,98.8741084 105.910268,99.3178216 104.234346,99.2504885 Z" id="Shape" fill="#662059"></path>
            <path d="M95.4282764,91.0113 C95.3272995,91.0115034 95.2267475,90.99824 95.129286,90.9718615 C94.7276206,90.8648192 85.1531925,88.24725 73.257941,79.3128346 C72.9282134,79.0652557 72.7557853,78.6608033 72.8056086,78.2518305 C72.8554319,77.8428578 73.1199374,77.4914975 73.4994884,77.3301036 C73.8790393,77.1687097 74.3159729,77.2218019 74.6457005,77.4693808 C86.1550917,86.1119538 95.631362,88.7170731 95.7261346,88.7430462 C96.2857204,88.8930354 96.6475291,89.433766 96.5721895,90.0074928 C96.49685,90.5812197 96.0076646,91.0104899 95.4282764,91.0113 Z" id="Shape" fill="#662059"></path>
            <path d="M29.1316318,84.7530346 C28.534514,84.752564 28.0361319,84.2977423 27.981967,83.7038548 C27.9278021,83.1099672 28.3357021,82.5727027 28.9229082,82.4644962 C35.3190195,81.2847346 44.2492185,78.3381462 50.46988,71.0037808 C50.8823965,70.5174399 51.6115747,70.4571611 52.0985451,70.8691443 C52.5855156,71.2811274 52.6458725,72.009363 52.233356,72.4957038 C45.5721057,80.3483885 36.1082783,83.4854077 29.3426084,84.7339154 C29.2730419,84.7469035 29.2024031,84.753305 29.1316318,84.7530346 Z" id="Shape" fill="#662059"></path>
            <path d="M14.1488733,99.0803308 C12.1263423,99.1827857 10.1267767,98.613415 8.46245252,97.4611385 C6.59404249,96.0628745 5.84904825,93.6162102 6.62169583,91.4158385 C7.71046495,87.9519923 12.4220909,83.7378 22.1161082,83.2600385 C22.7506714,83.2331111 23.288062,83.7226747 23.319377,84.3562179 C23.3506919,84.9897611 22.8641929,85.529803 22.2300593,85.5654231 C14.2684856,85.9564269 9.76107757,89.1328846 8.82631524,92.1076385 C8.34318979,93.3849566 8.77183164,94.82727 9.87447417,95.6345308 C12.3239332,97.5208038 18.601576,97.5884077 28.2380574,91.5555 C43.0103823,82.9985769 50.278082,72.4178769 53.7796397,65.0452038 C55.988056,60.6232988 57.3827683,55.8410045 57.8972708,50.9263615 C57.9309527,50.2942586 58.4682575,49.8072715 59.1014687,49.8349347 C59.7346799,49.8625979 60.2273534,50.3945819 60.2056397,51.0272077 C60.1610783,52.0610538 58.7744394,76.5352038 29.4317429,93.5319 C22.5098595,97.8645115 17.5421294,99.0803308 14.1488733,99.0803308 Z" id="Shape" fill="#662059"></path>
            <path d="M22.675154,91.0113 C22.0956587,91.0107721 21.6062083,90.5815867 21.530714,90.0077725 C21.4552198,89.4339584 21.8170411,88.8930642 22.3767297,88.7430462 C22.4714676,88.7171308 31.9466404,86.1119654 43.4560431,77.4693808 C43.7857707,77.2215999 44.2228122,77.1683211 44.6025383,77.329614 C44.9822644,77.4909068 45.2469857,77.8422672 45.2969842,78.2513409 C45.3469827,78.6604146 45.1746624,79.0650538 44.8449349,79.3128346 C32.9485395,88.24725 23.3752321,90.8648192 22.9735205,90.9719077 C22.8762538,90.9981924 22.7759184,91.0114393 22.675154,91.0113 Z" id="Shape" fill="#662059"></path>
            <path d="M43.8988733,74.0675654 C42.5669802,74.0587132 41.2413233,73.8849883 39.9522325,73.5503654 C35.8335154,72.5114538 34.5901734,70.9181538 34.272582,69.7631769 C34.0185103,68.8205738 34.3064966,67.8149035 35.0211845,67.149 C36.5527953,65.6233038 39.7892718,65.2649885 43.268208,66.2295346 C43.8817927,66.4015263 44.2402177,67.0370629 44.0694578,67.6502602 C43.8986978,68.2634576 43.2631897,68.6229241 42.6487956,68.4538385 C39.3994024,67.5501462 37.2827852,68.1563654 36.6526514,68.7828692 C36.527402,68.8598436 36.4659335,69.0085387 36.5003314,69.1513385 C36.6267024,69.6099462 37.6144949,70.5812538 40.5175056,71.3124923 C43.3836964,72.1793409 46.4805347,71.8330893 49.0838304,70.3547077 C49.944652,69.8324473 50.7314768,69.1972816 51.423278,68.4661846 C50.3092748,68.8749834 49.1371839,69.1039634 47.9510544,69.1445192 C47.5367387,69.1646597 47.1434173,68.9614026 46.9205686,68.611994 C46.6977199,68.2625853 46.6795599,67.820673 46.8729901,67.454202 C47.0664203,67.0877309 47.4417416,66.8529687 47.8563165,66.8391346 C51.3098387,66.8075245 54.3512524,64.5612435 55.3931064,61.2727269 C55.5595523,60.6639365 56.1848008,60.3015947 56.7966302,60.4593618 C57.4084597,60.617129 57.7799115,61.2364812 57.630445,61.84965 C57.5582363,62.1404192 55.808867,69.0127269 50.2736109,72.3334269 C48.349316,73.4871272 46.1431982,74.0872639 43.8988733,74.0675654 Z" id="Shape" fill="#662059"></path>
            <path d="M74.1729585,74.0675654 C71.9293372,74.0878528 69.7239715,73.4868137 67.8016639,72.3311654 C62.2776954,69.0093462 60.5424328,62.1380885 60.4713448,61.8473885 C60.3215751,61.2321211 60.6960521,60.6112085 61.3106536,60.4557479 C61.9252551,60.3002873 62.5505287,60.6683175 62.7120685,61.2806077 C63.3310776,63.1704288 64.6149739,64.7721246 66.3258906,65.78895 C68.5181017,67.0340654 71.3703468,67.1851038 74.803647,66.2295346 C77.7326183,65.4171115 80.5171605,65.5331654 82.2490495,66.5416615 C82.6057842,66.7493861 82.8244575,67.1314011 82.8226972,67.5438052 C82.820937,67.9562094 82.5990107,68.3363487 82.2405157,68.5410283 C81.8820208,68.7457079 81.4414212,68.7438322 81.0846865,68.5361077 C80.1538754,67.9929923 78.1771583,67.6876269 75.4219386,68.45385 C72.5871512,69.384122 69.5306934,69.3971362 66.6880665,68.4910385 C67.3735991,69.2149273 68.1529912,69.8439997 69.0055164,70.3615269 C71.6038446,71.835059 74.6938939,72.1788595 77.5532286,71.31255 C78.1710084,71.1588793 78.7968715,71.5331783 78.9528899,72.1496209 C79.1089082,72.7660635 78.7363048,73.3924161 78.1196109,73.5503769 C76.830509,73.8849618 75.5048525,74.0586823 74.1729585,74.0675654 Z" id="Shape" fill="#662059"></path>
            <path d="M34.0457657,119.6028 C33.0523511,119.605288 32.064912,119.449328 31.1207457,119.140812 C27.8741685,118.117427 25.6193331,115.170011 25.4839468,111.77265 C25.3051117,107.194454 28.8202216,102.948658 34.8874423,100.414477 C51.5901899,93.4406885 58.0703984,85.1801077 58.133584,85.09785 C58.4160113,84.7303275 58.891027,84.5669524 59.3401563,84.6828661 C59.7892856,84.7987797 60.1255741,85.1715404 60.194352,85.6297038 C60.2434309,85.9621154 61.2317894,93.9759346 46.8227611,111.95295 C42.8580739,116.898473 38.262652,119.6028 34.0457657,119.6028 Z M57.4408307,89.1971538 C54.1293842,92.3420654 47.3485331,97.7124 35.7787754,102.544131 C30.6384145,104.690688 27.6530395,108.107158 27.7929396,111.6825 C27.895941,114.1152 29.5163686,116.221739 31.8433992,116.948054 C35.8154575,118.257404 40.7408675,115.847169 45.0186749,110.510631 C53.5849996,99.8240308 56.4761682,92.8874308 57.4408307,89.1971538 Z" id="Shape" fill="#662059"></path>
            <path d="M50.1505787,99.0938308 C49.6863122,99.0941612 49.2669917,98.8167796 49.0861742,98.3897245 C48.9053567,97.9626694 48.9982068,97.4689923 49.321865,97.1365731 C52.2841178,94.2595155 54.8651473,91.0153413 57.0019402,87.4832538 C57.3094699,86.9260566 58.0104698,86.7224503 58.5692431,87.0280287 C59.1280163,87.333607 59.3338387,88.0331306 59.0294229,88.5920308 C56.7932796,92.3067591 54.0876689,95.71858 50.9792809,98.7433962 C50.7621519,98.9677421 50.4629988,99.0942455 50.1505787,99.0938308 Z" id="Shape" fill="#662059"></path>
            <path d="M44.149351,104.874358 C43.7434555,104.873989 43.367526,104.660925 43.1590684,104.313098 C42.9506107,103.965272 42.9402053,103.533709 43.1316583,103.176265 C43.4128729,102.766055 43.7624329,102.407038 44.1651445,102.114819 C44.5769653,101.736219 45.1309392,101.225769 45.7819385,100.612788 C46.0816981,100.326828 46.5118834,100.223173 46.9092287,100.341163 C47.306574,100.459152 47.6101705,100.7807 47.7047959,101.183771 C47.7994213,101.586841 47.6705705,102.009649 47.3671456,102.291727 C46.7082438,102.9126 46.1480542,103.42755 45.7317275,103.811781 C45.3876095,104.128408 45.1484195,104.347015 45.0463106,104.449546 C44.8262351,104.718314 44.4969951,104.874246 44.149351,104.874358 Z" id="Shape" fill="#662059"></path>
            <path d="M84.0621127,119.600538 C79.8187229,119.601692 75.2661873,116.900723 71.301477,111.952927 C56.8913742,93.9759231 57.8802988,85.9620923 57.9293777,85.6296923 C57.9981556,85.1715289 58.3344441,84.7987682 58.7835734,84.6828545 C59.2327027,84.5669409 59.7077184,84.730316 59.9901457,85.0978385 C60.0533313,85.1800962 66.5334936,93.4406885 83.2362874,100.414465 C83.6186726,100.572502 83.8872504,100.922685 83.9404316,101.332558 C83.9936127,101.74243 83.8232778,102.149415 83.4938558,102.399571 C83.1644338,102.649727 82.726219,102.704861 82.3449658,102.544119 C70.7735214,97.7112577 63.9915381,92.3386615 60.6800338,89.1948808 C61.6447425,92.8806577 64.5352987,99.8183423 73.1044541,110.510608 C77.1176771,115.516996 81.645396,117.9261 85.5255123,117.148604 C87.7197359,116.762659 89.5023597,115.162469 90.1197904,113.024504 C90.8102908,110.573735 89.8490134,107.906562 87.4807863,105.705923 C87.0134463,105.272168 86.9866754,104.542176 87.4209917,104.07544 C87.8553081,103.608705 88.586245,103.581968 89.053585,104.015723 C92.0784495,106.825973 93.2777962,110.337092 92.3436,113.649888 C91.478199,116.612034 89.0208101,118.838069 85.9847137,119.410108 C85.3517942,119.537359 84.7077299,119.601153 84.0621127,119.600538 Z" id="Shape" fill="#662059"></path>
            <path d="M73.9743787,104.874358 C73.6265909,104.874882 73.2970896,104.718832 73.0774076,104.449558 C72.9758648,104.348146 72.7400483,104.132931 72.4004478,103.819673 C69.9227869,101.537896 62.3837441,94.5934154 59.0942952,88.5920538 C58.7877186,88.0330599 58.9929299,87.3316976 59.5526474,87.0255173 C60.112365,86.719337 60.8146352,86.924283 61.1212118,87.4832769 C64.2284405,93.1544308 71.5587596,99.9051577 73.9664647,102.1227 C74.3669593,102.412232 74.7139932,102.769109 74.9920598,103.177385 C75.1827582,103.534763 75.1719657,103.965812 74.9636209,104.313225 C74.7552761,104.660638 74.3798604,104.873587 73.9743787,104.874358 Z" id="Shape" fill="#662059"></path>
            <path d="M47.3073568,47.8181308 C46.7354402,47.8174256 46.2501316,47.3988821 46.1661237,46.8339 C45.363925,41.4427154 45.5303517,34.3190654 47.7908203,31.4186769 C48.0431269,31.0897164 48.4526847,30.9211355 48.863809,30.9770167 C49.2749334,31.0328979 49.6244836,31.3046589 49.7795856,31.6889956 C49.9346876,32.0733324 49.8715208,32.5112181 49.6140967,32.8362 C48.0847387,34.7985231 47.5854817,40.6702962 48.4519866,46.4947385 C48.4970292,46.7974722 48.4198064,47.1056764 48.2373073,47.3515452 C48.0548083,47.597414 47.7819835,47.7608055 47.4788554,47.8057731 C47.4220682,47.8140702 47.3647485,47.8182005 47.3073568,47.8181308 Z" id="Shape" fill="#662059"></path>
            <path d="M42.5297263,61.0546846 C41.2998215,61.0321495 40.1005483,60.6677014 39.0665259,60.00225 C37.6741191,59.1634077 36.7129116,57.7642404 36.4303409,56.1649269 C35.2614605,50.2937192 41.6440428,41.3773269 41.9158943,41.0004115 C42.1574453,40.666079 42.5592429,40.4858423 42.9699338,40.5275949 C43.3806246,40.5693475 43.737815,40.8267462 43.9069548,41.2028314 C44.0760946,41.5789166 44.0314874,42.016552 43.7899363,42.3508846 C42.0992351,44.6935038 37.8879984,51.6605308 38.6969674,55.7164615 C38.8587708,56.684691 39.4375917,57.5333502 40.2805108,58.0382308 C41.2240672,58.7021353 42.4188416,58.9011797 43.527085,58.5790962 C44.6755899,58.0844203 45.5337609,57.0913688 45.8558225,55.8843462 C45.9901649,55.4915527 46.3254028,55.201092 46.733728,55.1237012 C47.1420531,55.0463105 47.560534,55.1939172 47.8296262,55.5102469 C48.0987183,55.8265766 48.176949,56.2628761 48.034493,56.6528077 C47.4818624,58.5192382 46.1046417,60.0306225 44.2959983,60.7554923 C43.7285385,60.954723 43.1312284,61.0559025 42.5297263,61.0546846 Z" id="Shape" fill="#662059"></path>
            <path d="M75.7536483,61.0479231 C74.720193,61.0533432 73.7082095,60.7534342 72.8449879,60.1859192 C70.1349073,58.4027538 69.0382356,54.3062654 69.8359169,48.9477462 C70.7024217,43.1221731 70.2025986,37.2504 68.6726746,35.2897731 C68.2821783,34.7868598 68.3729897,34.0631663 68.8756725,33.6720423 C69.3783554,33.2809183 70.1031886,33.3699807 70.495951,33.8711308 C72.756951,36.7698346 72.9239669,43.8940385 72.1217798,49.2869192 C71.4719012,53.6549654 72.217673,57.0088962 74.1165433,58.2585231 C75.3401621,58.9709901 76.8716548,58.8842666 78.0067919,58.0382308 C78.5498429,57.7034252 79.2618377,57.8716723 79.5970767,58.4140212 C79.9323157,58.9563701 79.7638509,59.6674444 79.2207999,60.00225 C78.184637,60.6653816 76.9841343,61.0274463 75.7536483,61.0479231 Z" id="Shape" fill="#662059"></path>
            <path d="M80.5634318,53.6144077 C80.0199386,53.6137018 79.5503321,53.2349859 79.4351732,52.7045192 C78.4050607,47.9415231 74.3861418,42.4444038 74.3455779,42.3892154 C74.1003379,42.057132 74.0513404,41.6195314 74.2170755,41.2415506 C74.3828105,40.8635699 74.7380449,40.6027568 75.148724,40.5575342 C75.5594031,40.5123117 75.9630007,40.6895649 76.2072116,41.0224038 C76.3843483,41.2629808 80.5600467,46.9769885 81.6939203,52.2166269 C81.8284777,52.8396944 81.4320298,53.4537919 80.8082368,53.58855 C80.7277691,53.6057206 80.6457157,53.6143875 80.5634318,53.6144077 Z" id="Shape" fill="#662059"></path>
            <ellipse id="Oval" fill="#FB5956" cx="52.193208" cy="33.2993538" rx="6.87926291" ry="6.87036923"></ellipse>
            <path d="M52.1932888,41.3238 C47.7577446,41.3189416 44.1632389,37.729083 44.1583742,33.2992731 C44.1583742,32.6620214 44.6756374,32.1454269 45.313714,32.1454269 C45.9517905,32.1454269 46.4690538,32.6620214 46.4690538,33.2992731 C46.46944,36.0732431 48.4641987,38.4464392 51.1996935,38.9273904 C53.9351882,39.4083416 56.6215351,37.8581715 57.5704588,35.2511079 C58.5193825,32.6440443 57.4568778,29.7328863 55.0506919,28.3471952 C52.6445061,26.961504 49.5894338,27.5014031 47.8054816,29.6275846 C47.3945752,30.1123752 46.6686059,30.1743007 46.1813319,29.7661251 C45.6940579,29.3579496 45.6287653,28.6332068 46.0352583,28.1447192 C48.4275989,25.2942866 52.4676726,24.4592855 55.7963056,26.1273091 C59.1249385,27.7953328 60.8695891,31.5291386 60.0114802,35.1483958 C59.1533713,38.7676529 55.9174409,41.3236377 52.1932888,41.3238 Z" id="Shape" fill="#662059"></path>
            <path d="M51.5434102,37.3653692 C50.9053336,37.3653692 50.3880704,36.8487747 50.3880704,36.2115231 C50.3880704,35.5742714 50.9053336,35.0576769 51.5434102,35.0576769 C52.8818713,35.0561699 53.966532,33.9729114 53.968041,32.6361808 C53.968041,31.9989291 54.4853042,31.4823346 55.1233808,31.4823346 C55.7614573,31.4823346 56.2787206,31.9989291 56.2787206,32.6361808 C56.2755757,35.2467374 54.1573462,37.3622285 51.5434102,37.3653692 Z" id="Shape" fill="#FFFFFF"></path>
            <ellipse id="Oval" fill="#FB5956" transform="translate(65.951731, 33.299361) rotate(-45.000000) translate(-65.951731, -33.299361) " cx="65.9517311" cy="33.2993609" rx="6.87926291" ry="6.87036923"></ellipse>
            <path d="M63.8809489,41.0054769 C63.7626524,41.0053535 63.6450743,40.9871147 63.5323136,40.9513962 C59.8136846,39.7787941 57.4750274,36.108766 57.9861197,32.2478173 C58.497212,28.3868686 61.7104724,25.4498754 65.6064604,25.2826522 C69.5024485,25.1154289 72.9561704,27.7662626 73.7970627,31.5691815 C74.637955,35.3721004 72.6232042,39.2289851 69.0190223,40.7158962 C68.429578,40.9577354 67.755364,40.6773061 67.5120602,40.0890975 C67.2687564,39.5008889 67.5482306,38.8269999 68.136724,38.5828615 C70.7050702,37.5237295 72.1409887,34.7755766 71.5419373,32.0657459 C70.942886,29.3559152 68.4818729,27.4670152 65.7057603,27.5863082 C62.9296477,27.7056012 60.6401866,29.798635 60.2764107,32.5498396 C59.9126348,35.3010443 61.5796038,37.9158622 64.2295496,38.7507577 C64.7727641,38.9228889 65.1092913,39.464751 65.0223237,40.0272497 C64.9353562,40.5897484 64.4508504,41.0049992 63.8809489,41.0054769 Z" id="Shape" fill="#662059"></path>
            <path d="M68.4696467,32.9854615 C68.1631745,32.9858084 67.8692053,32.864137 67.6528215,32.6473846 C66.7054304,31.7031249 65.1714297,31.7031249 64.2240386,32.6473846 C63.9321986,32.9388597 63.5068258,33.0527003 63.1081541,32.9460237 C62.7094825,32.8393472 62.3980796,32.5283601 62.291248,32.1302084 C62.1844164,31.7320566 62.2983863,31.307229 62.5902264,31.0157538 C64.4404634,29.1717402 67.4362234,29.1717402 69.2864604,31.0157538 C69.6168458,31.3457371 69.7156863,31.8419799 69.536899,32.2731169 C69.3581118,32.7042539 68.9368999,32.9853946 68.4696467,32.9854615 Z" id="Shape" fill="#FFFFFF"></path>
            <ellipse id="Oval" fill="#FB5956" transform="translate(59.072475, 21.057683) rotate(-45.000000) translate(-59.072475, -21.057683) " cx="59.072475" cy="21.0576832" rx="6.87926291" ry="6.87036923"></ellipse>
            <path d="M59.0722976,29.0777077 C55.4364204,29.0774363 52.2540656,26.6381871 51.3134635,23.1306242 C50.3728614,19.6230612 51.9085703,15.9218665 55.0576438,14.1068172 C58.2067174,12.2917678 62.1838702,12.8154832 64.7542587,15.3836769 C65.205398,15.834233 65.205398,16.5647286 64.7542587,17.0152846 C64.3031195,17.4658406 63.5716782,17.4658406 63.1205389,17.0152846 C61.1559293,15.0524713 58.0636978,14.7820186 55.7873811,16.3739121 C53.5110643,17.9658057 52.7080365,20.9603249 53.8830185,23.4753475 C55.0580005,25.99037 57.8716711,27.2995863 60.5555754,26.5801245 C63.2394796,25.8606628 65.0185367,23.3202954 64.7745696,20.5557 C64.7188017,19.9209368 65.1888362,19.3612093 65.8244211,19.3055135 C66.460006,19.2498177 67.0204581,19.7192445 67.076226,20.3540077 C67.2748878,22.5957269 66.5209514,24.8176131 64.9986021,26.4768631 C63.4762528,28.1361132 61.3256918,29.079918 59.0722976,29.0777077 Z" id="Shape" fill="#662059"></path>
            <path d="M57.0786663,24.7395115 C56.7721942,24.7398584 56.4782249,24.618187 56.2618411,24.4014346 C54.4154404,22.5535896 54.4154404,19.5617027 56.2618411,17.7138577 C56.553677,17.422399 56.9790371,17.3085715 57.3776924,17.4152528 C57.7763477,17.521934 58.087733,17.8329167 58.1945523,18.2310566 C58.3013717,18.6291965 58.1873968,19.0540067 57.8955609,19.3454654 C56.9506444,20.2918652 56.9506444,21.8234155 57.8955609,22.7698154 C58.2259484,23.0998101 58.3247785,23.5960671 58.1459715,24.0272064 C57.9671646,24.4583457 57.5459291,24.7394725 57.0786663,24.7395115 Z" id="Shape" fill="#FFFFFF"></path>
            <ellipse id="Oval" fill-opacity="0.5" fill="#F7DCDC" cx="72.832799" cy="113.451231" rx="5.77669903" ry="5.76923077"></ellipse>
            <ellipse id="Oval" fill-opacity="0.5" fill="#F7DCDC" cx="9.28988379" cy="49.1174308" rx="5.77669903" ry="5.76923077"></ellipse>
            <path d="M59.0514321,107.624885 C58.7449925,107.624964 58.451081,107.503424 58.2343955,107.287019 C58.01771,107.070613 57.8960126,106.777082 57.8960923,106.471038 L57.8960923,103.874885 C57.8960923,103.237633 58.4133556,102.721038 59.0514321,102.721038 C59.6895087,102.721038 60.2067719,103.237633 60.2067719,103.874885 L60.2067719,106.471038 C60.2068516,106.777082 60.0851543,107.070613 59.8684688,107.287019 C59.6517832,107.503424 59.3578717,107.624964 59.0514321,107.624885 Z" id="Shape" fill="#662059"></path>
        </g>
    </g>
</svg>