<?xml version="1.0" encoding="UTF-8"?>
<svg width="300px" height="200px" viewBox="0 0 300 200" version="1.1" xmlns="http://www.w3.org/2000/svg" xmlns:xlink="http://www.w3.org/1999/xlink">
    <!-- Generator: Sketch 51.3 (57544) - http://www.bohemiancoding.com/sketch -->
    <title>red-christmas-bow</title>
    <desc>Created with Sketch.</desc>
    <defs></defs>
    <g id="red-christmas-bow" stroke="none" stroke-width="1" fill="none" fill-rule="evenodd">
        <g id="Ribbon" transform="translate(79.000000, 41.000000)" fill-rule="nonzero">
            <rect id="Rectangle-path" fill="#FB5956" x="57.356" y="22.573913" width="27.924" height="40.2782609" rx="7.82608696"></rect>
            <path d="M104.832,66.6086957 C104.832,66.6086957 106.028,90.373913 114.894,101.643478 L97.786,96.7130435 L89.128,114.295652 C89.128,114.295652 77.246,85.6 84.968,58.4173913 C84.968,58.4173913 146.25,88.026087 138.918,60.4 C134.602,44.2 133.25,30.2956522 138.788,17.4869565 C139.030667,16.9304348 139.282,16.373913 139.542,15.8173913 C140.350699,14.1729024 140.350699,12.2444889 139.542,10.6 C136.344,3.97391304 124.514,-8.20869565 84.942,26.7478261 L84.942,58.2869565" id="Shape" fill="#FB5956"></path>
            <path d="M85.306,25.9130435 C85.592,33.1130435 106.236,32.3565217 121.992,27.373913 C130.286,24.7652174 137.202,20.9565217 139.1,16.5478261 C139.342667,15.9913043 139.594,15.4347826 139.854,14.8782609 C140.662699,13.2337719 140.662699,11.3053585 139.854,9.66086957 C136.63,3.13913043 124.826,-9.04347826 85.306,25.9130435 Z" id="Shape" fill="#C93E4F"></path>
            <path d="M37.856,66.6086957 C37.856,66.6086957 36.66,90.373913 27.794,101.643478 L44.902,96.7130435 L53.56,114.295652 C53.56,114.295652 65.442,85.6 57.72,58.4173913 C57.72,58.4173913 -3.562,88.026087 3.77,60.4 C8.086,44.2 9.438,30.2956522 3.9,17.4869565 C3.65733333,16.9304348 3.406,16.373913 3.146,15.8173913 C2.33730117,14.1729024 2.33730117,12.2444889 3.146,10.6 C6.344,3.97391304 18.174,-8.20869565 57.746,26.7478261 L57.746,58.2869565" id="Shape" fill="#FB5956"></path>
            <path d="M56.94,25.9130435 C56.498,36.9217391 8.658,29.3565217 3.12,16.5478261 C2.87733333,15.9913043 2.626,15.4347826 2.366,14.8782609 C1.55730117,13.2337719 1.55730117,11.3053585 2.366,9.66086957 C5.616,3.13913043 17.42,-9.04347826 56.94,25.9130435 Z" id="Shape" fill="#C93E4F"></path>
            <path d="M77.038,62.826087 L77.038,60.2173913 L64.74,60.2173913 C61.8681193,60.2173913 59.54,57.8814857 59.54,55 L59.54,30.4 C59.54,27.5185143 61.8681193,25.1826087 64.74,25.1826087 L77.038,25.1826087 C79.9098807,25.1826087 82.238,27.5185143 82.238,30.4 L82.238,55 C82.238,57.8814857 79.9098807,60.2173913 77.038,60.2173913 L77.038,65.4347826 C82.7817614,65.4347826 87.438,60.7629713 87.438,55 L87.438,30.4 C87.438,24.6370287 82.7817614,19.9652174 77.038,19.9652174 L64.74,19.9652174 C58.9962386,19.9652174 54.34,24.6370287 54.34,30.4 L54.34,55 C54.34,60.7629713 58.9962386,65.4347826 64.74,65.4347826 L77.038,65.4347826 L77.038,62.826087 Z" id="Shape" fill="#662059"></path>
            <path d="M56.368,27.8434783 C53.1041237,28.4702511 49.7846768,28.7587239 46.462,28.7043478 C38.5329287,28.7288899 30.6450833,27.5593432 23.062,25.2347826 C15.262,22.626087 8.476,18.6869565 4.862,12.8695652 C4.36504358,12.0820275 3.48709105,11.6203225 2.55885864,11.65837 C1.63062623,11.6964175 0.793134536,12.2284371 0.361858588,13.0540222 C-0.0694173607,13.8796073 -0.0289564826,14.8733319 0.468,15.6608696 C5.096,22.9913043 13.052,27.4782609 21.502,30.1913043 C29.581488,32.672208 37.9866563,33.9209313 46.436,33.8956522 C50.1436872,33.9521587 53.8471157,33.6199212 57.486,32.9043478 C58.9219403,32.5873844 59.8299069,31.162482 59.514,29.7217391 C59.1980931,28.2809963 57.7779403,27.3699931 56.342,27.6869565 L56.368,27.8434783 Z" id="Shape" fill="#662059"></path>
            <path d="M9.36,46.7826087 C9.89227132,43.2682532 10.1703311,39.7198528 10.192,36.1652174 C10.2826522,29.4203404 8.97215717,22.7304547 6.344,16.5217391 C6.084,15.9304348 5.81533333,15.3478261 5.538,14.773913 C5.33298518,14.35127 5.22630281,13.8874336 5.226,13.4173913 C5.23064809,12.8917793 5.35516198,12.3742109 5.59,11.9043478 C6.33072833,10.3268832 7.43601897,8.94959253 8.814,7.88695652 C10.8150894,6.44115036 13.2398255,5.70670642 15.704,5.8 C21.0453101,6.13263396 26.2315625,7.7330532 30.836,10.4695652 C39.9126333,15.5536599 48.3676866,21.6819693 56.03,28.7304348 C57.113979,29.6064399 58.693271,29.4705563 59.6127758,28.4221699 C60.5322806,27.3737835 60.4658184,25.7847926 59.462,24.8173913 C51.4910821,17.4454804 42.6863274,11.0365251 33.228,5.72173913 C27.8793747,2.59631969 21.8602401,0.806907682 15.678,0.504347826 C12.0920516,0.40776609 8.5742007,1.49873838 5.668,3.60869565 C3.62911012,5.16461726 1.98914131,7.1856636 0.884,9.50434783 C0.307632588,10.6817778 0.00536121437,11.9751877 1.13686838e-13,13.2869565 C0.00100229414,14.5431666 0.285445326,15.7828483 0.832,16.9130435 C1.07466667,17.4347826 1.30866667,17.9565217 1.534,18.4782609 C3.88280186,24.0271654 5.05171493,30.006783 4.966,36.0347826 C4.953033,39.3443826 4.7010397,42.6486887 4.212,45.9217391 C4.07731068,46.8537364 4.44840993,47.7870336 5.18550823,48.3700667 C5.92260652,48.9530997 6.91372105,49.0972919 7.7855085,48.7483276 C8.65729595,48.3993632 9.27731103,47.6102582 9.412,46.6782609 L9.36,46.7826087 Z" id="Shape" fill="#662059"></path>
            <path d="M35.256,66.6086957 L35.256,66.8434783 C34.9250426,71.5679428 34.2823,76.265198 33.332,80.9043478 C31.928,87.7391304 29.458,95.5130435 25.766,100.156522 C25.0690773,101.045406 25.0223832,102.283617 25.6503676,103.2228 C26.2783521,104.161983 27.4379617,104.588194 28.522,104.278261 L43.55,99.9478261 L51.35,115.6 C51.8021027,116.517238 52.7469318,117.084568 53.7662423,117.050852 C54.7855527,117.017136 55.6910892,116.388601 56.082,115.443478 C60.5754311,103.607873 62.9348448,91.0646913 63.05,78.4 C63.1327949,71.4602833 62.2578256,64.5424661 60.45,57.8434783 C60.2423063,57.0987469 59.7159948,56.4848584 59.0131226,56.1675081 C58.3102505,55.8501578 57.5032722,55.8620592 56.81,56.2 L56.498,56.3565217 C54.938,57.0869565 47.71,60.4782609 39.078,63.6347826 C34.6806129,65.2790928 30.2028479,66.6983113 25.662,67.8869565 C21.7350933,68.9695819 17.6943751,69.5825328 13.624,69.7130435 C11.5591876,69.854815 9.49619494,69.4119123 7.67,68.4347826 C7.14827005,68.1013639 6.7260504,67.632665 6.448,67.0782609 C6.10470044,66.3267589 5.94429444,65.504164 5.98,64.6782609 C6.00378259,63.5041042 6.17856075,62.3379422 6.5,61.2086957 C6.81794666,59.8394285 5.99721405,58.4636644 4.64421176,58.0979058 C3.29120948,57.7321471 1.89270383,58.5079819 1.482,59.8521739 C1.03965336,61.4233582 0.803658747,63.0457664 0.78,64.6782609 C0.74529557,66.3100823 1.09259905,67.9273174 1.794,69.4 C2.84698224,71.4308881 4.61805884,72.9939038 6.76,73.7826087 C8.95761741,74.5852022 11.2861274,74.9657356 13.624,74.9043478 C18.447331,74.7485001 23.2329592,73.994959 27.872,72.6608696 C38.5745725,69.5891547 49.009253,65.6456132 59.072,60.8695652 L57.954,58.5217391 L55.354,59.226087 C57.0958728,65.4490991 57.9708426,71.8840776 57.954,78.3478261 C57.8210526,86.7234279 56.6418535,95.0492484 54.444,103.130435 C53.612,106.33913 52.78,108.921739 52.182,110.695652 C51.87,111.582609 51.61,112.286957 51.454,112.730435 L51.246,113.252174 L51.246,113.408696 L53.638,114.4 L55.978,113.252174 L47.32,95.6695652 C46.7652325,94.5399803 45.4854113,93.9692685 44.278,94.3130435 L27.144,99.2173913 L27.872,101.826087 L29.9,103.443478 C34.814,97.1565217 37.284,88.1304348 38.766,80.5913043 C39.6300162,76.0844329 40.211822,71.5276849 40.508,66.9478261 C40.5797968,65.5070834 39.4739402,64.2807332 38.038,64.208696 C36.6020598,64.1366589 35.3797972,65.2462138 35.308,66.6869565 L35.256,66.6086957 Z" id="Shape" fill="#662059"></path>
            <path d="M122.798,29.6695652 C130.640369,27.3171686 137.469853,22.393782 142.194,15.6869565 C142.962228,14.4695288 142.601369,12.8577542 141.388,12.0869568 C140.17463,11.3161595 138.568228,11.6782247 137.8,12.8956522 C133.694369,18.5982777 127.811848,22.7656123 121.082,24.7391304 C120.204198,25.0466894 119.55661,25.8007535 119.383175,26.717274 C119.209741,27.6337946 119.536808,28.5735302 120.241175,29.1824916 C120.945542,29.791453 121.920198,29.9771244 122.798,29.6695652 Z" id="Shape" fill="#662059"></path>
            <path d="M85.202,32.9304348 C88.8408843,33.6460081 92.5443128,33.9782457 96.252,33.9217391 C100.708421,33.9164154 105.158191,33.5763344 109.564,32.9043478 C110.99994,32.6882361 111.98939,31.3450905 111.773999,29.9043479 C111.558608,28.4636053 110.21994,27.4708454 108.784,27.6869565 C104.636495,28.3217478 100.447476,28.644387 96.252,28.6521739 C92.9293167,28.7067344 89.6098511,28.4182601 86.346,27.7913043 C85.4171095,27.586265 84.4497566,27.8940153 83.808334,28.5986289 C83.1669113,29.3032425 82.9488661,30.2976716 83.236334,31.2073246 C83.5238018,32.1169775 84.2731095,32.8036563 85.202,33.0086957 L85.202,32.9304348 Z" id="Shape" fill="#662059"></path>
            <path d="M84.942,78.6869565 L84.942,78.3217391 C84.9244894,71.857946 85.7994716,65.4228756 87.542,59.2 L84.942,58.4956522 L83.824,60.8434783 C83.824,60.8434783 91.052,64.3391304 100.256,67.8086957 C105.085619,69.6661456 110.005925,71.2769057 114.998,72.6347826 C119.637041,73.968872 124.422669,74.7224131 129.246,74.8782609 C132.337321,75.0431879 135.40946,74.2997822 138.086,72.7391304 C139.36046,71.9009454 140.391861,70.7401136 141.076,69.373913 C141.777401,67.9012304 142.124704,66.2839953 142.09,64.6521739 C142.065456,63.0197506 141.829478,61.3974571 141.388,59.826087 C139.148614,52.1400975 137.907688,44.1961637 137.696,36.1913043 C137.610285,30.1633048 138.779198,24.1836871 141.128,18.6347826 C141.353333,18.1130435 141.587333,17.5913043 141.83,17.0695652 C142.376555,15.93937 142.660998,14.6996883 142.662,13.4434783 C142.655736,12.1318162 142.353511,10.8386066 141.778,9.66086957 C140.672859,7.34218534 139.03289,5.321139 136.994,3.76521739 C134.087799,1.65526012 130.569948,0.564287829 126.984,0.660869565 C120.80176,0.963429421 114.782625,2.75284143 109.434,5.87826087 C99.9899778,11.1619311 91.1942324,17.5356597 83.226,24.8695652 C82.4815136,25.4712133 82.1261285,26.4342413 82.3005822,27.3772769 C82.4750358,28.3203124 83.1511875,29.0912363 84.0612716,29.3847519 C84.9713558,29.6782675 85.9685686,29.4470285 86.658,28.7826087 C94.3201638,21.733959 102.775239,15.6056335 111.852,10.5217391 C116.456437,7.78522711 121.64269,6.18480787 126.984,5.85217391 C129.448175,5.75888033 131.872911,6.49332428 133.874,7.93913043 C135.244851,8.96251198 136.357882,10.2936822 137.124,11.826087 C137.357974,12.2962667 137.482439,12.8136319 137.488,13.3391304 C137.487697,13.8091727 137.381015,14.2730091 137.176,14.6956522 C136.898667,15.2869565 136.63,15.8695652 136.37,16.4434783 C133.744656,22.6439033 132.434204,29.3246896 132.522,36.0608696 C132.708494,44.5482062 133.993248,52.9752626 136.344,61.1304348 C136.664873,62.2598046 136.83964,63.4258926 136.864,64.6 C136.899706,65.4259031 136.7393,66.248498 136.396,67 C135.918654,67.8909044 135.118034,68.5634325 134.16,68.8782609 C132.573761,69.4332901 130.899035,69.689761 129.22,69.6347826 C124.81888,69.4848165 120.452814,68.792671 116.22,67.573913 C109.227531,65.6360861 102.366672,63.2485386 95.68,60.426087 C92.794,59.226087 90.48,58.1565217 88.634,57.373913 L86.658,56.4608696 L85.956,56.1217391 C85.2627278,55.7837983 84.4557495,55.7718969 83.7528774,56.0892472 C83.0500052,56.4065975 82.5236937,57.020486 82.316,57.7652174 C80.5078461,64.46414 79.632871,71.3820033 79.716,78.3217391 L79.716,78.7130435 C79.716,80.1537863 80.8800597,81.3217391 82.316,81.3217391 C83.7519403,81.3217391 84.916,80.1537863 84.916,78.7130435 L84.942,78.6869565 Z" id="Shape" fill="#662059"></path>
            <path d="M102.232,66.8173913 C102.528178,71.3972501 103.109984,75.9539981 103.974,80.4608696 C105.456,88 107.926,97.026087 112.84,103.313043 L114.868,101.695652 L115.596,99.0869565 L98.488,94.1565217 C97.2805887,93.8127467 96.0007675,94.3834585 95.446,95.5130435 L86.788,113.095652 L89.128,114.243478 L91.52,113.252174 C88.9335509,106.428978 87.0940776,99.3438755 86.034,92.1217391 C85.8946666,91.1897418 85.2703599,90.4031229 84.3962502,90.0581941 C83.5221405,89.7132654 82.5310259,89.8624298 81.7962499,90.4494985 C81.0614738,91.0365672 80.6946662,91.9723505 80.834,92.9043478 C81.9486511,100.57716 83.910722,108.101713 86.684,115.33913 C87.0749108,116.284253 87.9804473,116.912789 88.9997577,116.946505 C90.0190682,116.980221 90.9638973,116.41289 91.416,115.495652 L99.216,99.8434783 L114.244,104.173913 C115.328038,104.483846 116.487648,104.057635 117.115632,103.118452 C117.743617,102.179269 117.696923,100.941059 117,100.052174 C113.048,95.0956522 110.5,86.5913043 109.2,79.4434783 C108.524,75.8695652 108.082,72.6086957 107.848,70.2608696 C107.848,69.0869565 107.64,68.1478261 107.588,67.4956522 L107.588,66.7652174 L107.588,66.6086957 C107.541556,65.6766984 107.003082,64.8403581 106.175417,64.4147161 C105.347752,63.989074 104.356637,64.0387955 103.575417,64.5451508 C102.794196,65.0515062 102.341555,65.937568 102.388,66.8695652 L102.232,66.8173913 Z" id="Shape" fill="#662059"></path>
            <path d="M68.744,39.5304348 L68.744,47.1217391 C68.744,48.562482 69.9080597,49.7304348 71.344,49.7304348 C72.7799403,49.7304348 73.944,48.562482 73.944,47.1217391 L73.944,39.5304348 C73.944,38.089692 72.7799403,36.9217391 71.344,36.9217391 C69.9080597,36.9217391 68.744,38.089692 68.744,39.5304348" id="Shape" fill="#FFFFFF"></path>
        </g>
    </g>
</svg>