<?xml version="1.0" encoding="UTF-8"?>
<svg width="300px" height="200px" viewBox="0 0 300 200" version="1.1" xmlns="http://www.w3.org/2000/svg" xmlns:xlink="http://www.w3.org/1999/xlink">
    <!-- Generator: Sketch 51.3 (57544) - http://www.bohemiancoding.com/sketch -->
    <title>reindeer-with-red-nose-rudolph</title>
    <desc>Created with Sketch.</desc>
    <defs></defs>
    <g id="reindeer-with-red-nose-rudolph" stroke="none" stroke-width="1" fill="none" fill-rule="evenodd">
        <g id="Reindeer" transform="translate(65.000000, 0.000000)" fill-rule="nonzero">
            <path d="M30.3756875,100.565657 C30.5438461,104.351748 28.6151379,107.9243 25.3539461,109.867443 C22.0927543,111.810587 18.0256223,111.810587 14.7644305,109.867443 C11.5032387,107.9243 9.57453055,104.351748 9.74268908,100.565657 L20.6767609,100.565657" id="Shape" fill="#BFA28C"></path>
            <polygon id="Shape" fill="#93745F" points="137.185371 113.333333 136.01097 197.434343 129.997231 197.434343 123.355794 152.505051"></polygon>
            <path d="M36.6324064,155.090909 L41.2287662,197.515152 L48.052437,197.515152 L48.052437,164.464646 C69.1511459,164.464646 76.4000306,142.626263 76.4000306,142.626263 L36.6324064,142.626263 L36.6324064,155.171717 L36.6324064,155.090909 Z" id="Shape" fill="#93745F"></path>
            <path d="M101.487651,29.1111111 L130.462941,29.1111111 C134.524832,29.1095933 138.514433,30.1831394 142.02471,32.2222222 C145.534986,34.261305 149.524587,35.3348512 153.586478,35.3333333 L159.33699,35.3333333 L159.33699,44.0606061 C159.33699,44.0606061 148.119442,45.3131313 144.454503,46.0808081 C142.171951,46.7474851 140.286855,48.3610855 139.279389,50.5105897 C138.271924,52.6600938 138.239345,55.1380002 139.18995,57.3131313 C143.239607,67.4141414 148.706642,85.2121212 146.924794,104.484848 C144.191276,133.818182 125.967823,139.878788 125.967823,139.878788 L115.620951,197.616162 L108.007597,197.616162 L110.032426,142.747475 L57.994343,142.747475 C57.994343,142.747475 46.6350573,155.818182 29.9707219,155.818182 L29.9707219,197.616162 L22.3573682,197.616162 L20.6767609,157.454545 C20.4434574,151.906009 22.3161839,146.473804 25.9210657,142.242424 C29.3198929,138.256093 31.1860574,133.193155 31.1856188,127.959596 L31.1856188,121.676768 C31.1856162,116.143904 33.3899558,110.837946 37.3131388,106.927516 C41.2363218,103.017085 46.556562,100.822922 52.1020932,100.828283 L105.719542,100.828283 C108.926419,100.822987 111.646992,98.4779877 112.117998,95.3131313 L121.857422,30 L101.609141,29.0505051" id="Shape" fill="#AF8E77"></path>
            <path d="M82.0088044,102.626263 L105.719542,102.626263 C109.931639,102.630917 113.509364,99.5516419 114.122578,95.3939394 L123.031822,35.6161616 C123.193973,34.5004348 122.418876,33.4648107 121.300594,33.3030303 C120.182312,33.1412499 119.144317,33.9145763 118.982166,35.030303 L110.072922,94.8080808 C109.743188,96.976514 107.877308,98.5807642 105.679045,98.5858586 L82.0088044,98.5858586 C80.8905227,98.5858586 79.9839763,99.4903338 79.9839763,100.606061 C79.9839763,101.721787 80.8905227,102.626263 82.0088044,102.626263" id="Shape" fill="#662059"></path>
            <path d="M70.4065393,102.626263 L72.8768296,102.626263 C73.9951113,102.626263 74.9016578,101.721787 74.9016578,100.606061 C74.9016578,99.4903338 73.9951113,98.5858586 72.8768296,98.5858586 L70.4065393,98.5858586 C69.2882577,98.5858586 68.3817112,99.4903338 68.3817112,100.606061 C68.3817112,101.721787 69.2882577,102.626263 70.4065393,102.626263" id="Shape" fill="#662059"></path>
            <path d="M140.445344,66.4040404 C143.584318,76.2046994 145.235961,86.4187678 145.345428,96.7070707 C145.345428,99.1515152 145.244186,101.616162 145.001207,104.10101 C143.66482,118.383838 138.643247,126.727273 134.046887,131.616162 C132.263977,133.535565 130.219077,135.194951 127.972403,136.545455 C127.356999,136.910655 126.721556,137.24114 126.069064,137.535354 L125.583105,137.737374 L125.481864,137.737374 L125.724843,138.464646 L125.481864,137.737374 L125.724843,138.464646 L125.481864,137.737374 C124.778501,137.969265 124.2582,138.565857 124.125229,139.292929 L114.001089,195.373737 L110.174163,195.373737 L112.198992,142.606061 C112.198992,141.490334 111.292445,140.585859 110.174163,140.585859 L58.1563293,140.585859 C57.5644481,140.58582 57.0021827,140.844166 56.6174599,141.292929 C54.3048888,143.755867 51.6928674,145.920792 48.8421199,147.737374 C43.3067296,151.463536 36.8090106,153.512236 30.1327082,153.636364 C29.0144265,153.636364 28.1078801,154.540839 28.1078801,155.656566 L28.1078801,195.434343 L24.4429412,195.434343 L22.8230787,157.191919 C22.8230787,156.909091 22.8230787,156.626263 22.8230787,156.343434 C22.8244397,151.591692 24.5180496,146.995025 27.601673,143.373737 C31.3126051,139.020557 33.3508903,133.492525 33.3521849,127.777778 L33.3521849,121.494949 C33.3521849,111.096376 41.8011976,102.666667 52.2235829,102.666667 L61.6592819,102.666667 C62.7775636,102.666667 63.68411,101.762191 63.68411,100.646465 C63.68411,99.5307379 62.7775636,98.6262626 61.6592819,98.6262626 L52.2235829,98.6262626 C39.5692613,98.6374011 29.3136926,108.869539 29.3025286,121.494949 L29.3025286,127.777778 C29.3011677,132.52952 27.6075577,137.126187 24.5239343,140.747475 C20.760071,145.094043 18.6774465,150.639797 18.6519328,156.383838 C18.6519328,156.720539 18.6519328,157.063973 18.6519328,157.414141 L20.3527884,197.59596 C20.3527884,198.711686 21.2593348,199.616162 22.3776165,199.616162 L29.9909702,199.616162 C31.1092519,199.616162 32.0157983,198.711686 32.0157983,197.59596 L32.0157983,155.636364 L29.9909702,155.636364 L29.9909702,157.656566 C37.642811,157.511301 45.0812674,155.114787 51.3731551,150.767677 C54.3444267,148.809548 57.064406,146.496064 59.4724675,143.878788 L57.9335982,142.565657 L57.9335982,144.585859 L107.845611,144.585859 L105.820783,197.353535 C105.820783,198.469262 106.727329,199.373737 107.845611,199.373737 L115.843682,199.373737 C116.833831,199.389851 117.690392,198.689076 117.86851,197.717172 L127.992651,140.040404 L125.967823,139.676768 L126.615768,141.59596 C130.555192,140.00444 134.074712,137.529815 136.901895,134.363636 C142.105703,128.868687 147.55249,119.535354 148.929374,104.444444 C149.172353,101.818182 149.273594,99.2323232 149.273594,96.6666667 C149.165297,85.9740438 147.452182,75.3579277 144.191276,65.1717172 C143.855791,64.1061982 142.718075,63.513767 141.650117,63.848485 C140.582158,64.183203 139.98837,65.3183194 140.323854,66.3838384" id="Shape" fill="#662059"></path>
            <path d="M101.669885,30.8484848 L130.645176,30.8484848 C134.343652,30.8468377 137.976566,31.8226951 141.174282,33.6767677 L142.186696,31.9393939 L140.161868,31.9393939 C140.166208,32.65679 140.551557,33.3180762 141.174282,33.6767677 C144.991183,35.8974125 149.330026,37.0685241 153.748464,37.0707071 L157.474148,37.0707071 L157.474148,43.7777778 L159.498976,43.7777778 L159.276245,41.7575758 C159.276245,41.7575758 156.461734,42.0808081 153.201761,42.5050505 C149.941788,42.9292929 146.195856,43.4545455 144.191276,43.8989899 C141.947471,44.4167474 139.977035,45.7489739 138.663495,47.6363636 C137.364866,49.4388859 136.657529,51.5983906 136.638667,53.8181818 C136.635084,55.2015656 136.896236,56.5729135 137.408102,57.8585859 C137.821866,58.8962115 139.000376,59.4027175 140.040378,58.9898986 C141.08038,58.5770798 141.588046,57.4012622 141.174282,56.3636364 C140.853469,55.5601864 140.688559,54.703244 140.688323,53.8383838 C140.681065,52.460473 141.098076,51.1135711 141.882972,49.979798 C142.626034,48.9056059 143.745997,48.1486547 145.021455,47.8585859 C146.661566,47.4747475 150.407498,46.9494949 153.647223,46.5252525 L157.879114,46 L159.681211,45.7979798 C160.711717,45.6842119 161.489597,44.8121854 161.483308,43.7777778 L161.483308,35.0505051 C161.483308,33.9347783 160.576761,33.030303 159.45848,33.030303 L153.707968,33.030303 C150.009491,33.0319502 146.376578,32.0560927 143.178862,30.2020202 L142.166448,31.9393939 L144.191276,31.9393939 C144.186936,31.2219979 143.801587,30.5607117 143.178862,30.2020202 C139.361961,27.9813754 135.023118,26.8102638 130.604679,26.8080808 L101.669885,26.8080808 C100.551604,26.8080808 99.6450573,27.7125561 99.6450573,28.8282828 C99.6450573,29.9440096 100.551604,30.8484848 101.669885,30.8484848 Z" id="Shape" fill="#662059"></path>
            <path d="M64.3927998,156.383838 C59.8343601,160.246905 54.0330434,162.341222 48.052437,162.282828 C46.9341553,162.282828 46.0276089,163.187304 46.0276089,164.30303 L46.0276089,195.313131 L42.9498701,195.313131 L38.5357448,154.787879 C38.4561707,154.06613 37.9967111,153.441562 37.33044,153.149444 C36.6641689,152.857325 35.8923088,152.942036 35.3056118,153.371666 C34.7189149,153.801296 34.4065144,154.510575 34.4860886,155.232323 L39.0824484,197.656566 C39.1964768,198.684717 40.0705003,199.460821 41.1072765,199.454545 L47.9309473,199.454545 C49.049229,199.454545 49.9557754,198.55007 49.9557754,197.434343 L49.9557754,164.464646 L47.9309473,164.464646 L47.9309473,166.484848 C54.8596818,166.535602 61.576946,164.105708 66.8630901,159.636364 C67.4201092,159.174444 67.6878209,158.451126 67.5653806,157.738876 C67.4429404,157.026626 66.9489499,156.433652 66.2694906,156.183321 C65.5900313,155.93299 64.8283292,156.063333 64.2713102,156.525253 L64.3927998,156.383838 Z" id="Shape" fill="#662059"></path>
            <path d="M74.557437,141.919192 C73.4128992,144.929745 71.8741784,147.775989 69.9813254,150.383838 C69.5617526,150.972064 69.4885843,151.738934 69.7893824,152.395577 C70.0901804,153.05222 70.7192464,153.498876 71.4396173,153.567294 C72.1599882,153.635712 72.8622224,153.315498 73.2817953,152.727273 C75.4167975,149.789216 77.1402789,146.574417 78.4046104,143.171717 C78.756869,142.111777 78.181212,140.967616 77.1188445,140.616162 C76.0564769,140.264708 74.9096958,140.83905 74.557437,141.89899 L74.557437,141.919192 Z" id="Shape" fill="#662059"></path>
            <path d="M135.585756,131.616162 L134.431604,195.393939 L132.163797,195.393939 L125.76534,152.181818 C125.603189,151.066091 124.565193,150.292765 123.446912,150.454545 C122.32863,150.616326 121.553533,151.65195 121.715684,152.767677 L128.35712,197.69697 C128.508515,198.693006 129.372281,199.42553 130.381948,199.414141 L136.456432,199.414141 C137.574714,199.414141 138.481261,198.509666 138.481261,197.393939 L139.675909,131.616162 C139.675909,130.500435 138.769363,129.59596 137.651081,129.59596 C136.532799,129.59596 135.626253,130.500435 135.626253,131.616162 L135.585756,131.616162 Z" id="Shape" fill="#662059"></path>
            <path d="M132.305535,27.7575758 L132.305535,24.0606061 C132.305535,21.3828618 134.481246,19.2121212 137.165122,19.2121212 L159.154756,19.2121212 C164.075195,19.2121212 168.063999,15.2324301 168.063999,10.3232323 L168.063999,2.02020202 C168.063999,0.904475253 167.157453,-5.68434189e-14 166.039171,-5.68434189e-14 C164.920889,-5.68434189e-14 164.014343,0.904475253 164.014343,2.02020202 L164.014343,10.3232323 C164.014343,13.0009766 161.838632,15.1717172 159.154756,15.1717172 L137.165122,15.1717172 C132.244683,15.1717172 128.255879,19.1514083 128.255879,24.0606061 L128.255879,27.7777778 C128.255879,28.8935045 129.162425,29.7979798 130.280707,29.7979798 C131.398988,29.7979798 132.305535,28.8935045 132.305535,27.7777778 L132.305535,27.7575758 Z" id="Shape" fill="#662059"></path>
            <path d="M138.906474,19.2121212 C143.066482,19.2121212 146.438835,15.8474733 146.438835,11.6969697 L146.438835,6.54545455 C146.438835,5.42972778 145.532289,4.52525253 144.414007,4.52525253 C143.295725,4.52525253 142.389179,5.42972778 142.389179,6.54545455 L142.389179,11.6969697 C142.378119,13.6114304 140.825319,15.1606825 138.906474,15.1717172 C137.788193,15.1717172 136.881646,16.0761924 136.881646,17.1919192 C136.881646,18.307646 137.788193,19.2121212 138.906474,19.2121212 Z" id="Shape" fill="#662059"></path>
            <path d="M149.941788,19.2121212 C154.101796,19.2121212 157.474148,15.8474733 157.474148,11.6969697 L157.474148,4.42424242 C157.474148,3.30851566 156.567602,2.4040404 155.44932,2.4040404 C154.331038,2.4040404 153.424492,3.30851566 153.424492,4.42424242 L153.424492,11.6969697 C153.413432,13.6114304 151.860632,15.1606825 149.941788,15.1717172 C148.823506,15.1717172 147.91696,16.0761924 147.91696,17.1919192 C147.91696,18.307646 148.823506,19.2121212 149.941788,19.2121212 Z" id="Shape" fill="#662059"></path>
            <path d="M123.801257,27.7575758 L123.801257,24.0606061 C123.801257,19.1514083 119.812452,15.1717172 114.892013,15.1717172 L92.9023797,15.1717172 C91.6135369,15.1717172 90.3774819,14.6608961 89.4661324,13.7516288 C88.554783,12.8423615 88.0427922,11.6091305 88.0427922,10.3232323 L88.0427922,2.02020202 C88.0427922,0.904475253 87.1362458,-2.84217094e-14 86.0179641,-2.84217094e-14 C84.8996824,-2.84217094e-14 83.993136,0.904475253 83.993136,2.02020202 L83.993136,10.3232323 C83.993136,15.2324301 87.9819403,19.2121212 92.9023797,19.2121212 L114.892013,19.2121212 C117.575889,19.2121212 119.7516,21.3828618 119.7516,24.0606061 L119.7516,27.7777778 C119.7516,28.8935045 120.658147,29.7979798 121.776429,29.7979798 C122.89471,29.7979798 123.801257,28.8935045 123.801257,27.7777778 L123.801257,27.7575758 Z" id="Shape" fill="#662059"></path>
            <path d="M113.150661,15.1717172 C111.231816,15.1606825 109.679016,13.6114304 109.667956,11.6969697 L109.667956,6.54545455 C109.667956,5.42972778 108.76141,4.52525253 107.643128,4.52525253 C106.524847,4.52525253 105.6183,5.42972778 105.6183,6.54545455 L105.6183,11.6969697 C105.6183,15.8474733 108.990653,19.2121212 113.150661,19.2121212 C114.268942,19.2121212 115.175489,18.307646 115.175489,17.1919192 C115.175489,16.0761924 114.268942,15.1717172 113.150661,15.1717172 Z" id="Shape" fill="#662059"></path>
            <path d="M102.115348,15.1717172 C100.196503,15.1606825 98.6437031,13.6114304 98.6326432,11.6969697 L98.6326432,4.42424242 C98.6326432,3.30851566 97.7260968,2.4040404 96.6078151,2.4040404 C95.4895334,2.4040404 94.582987,3.30851566 94.582987,4.42424242 L94.582987,11.6969697 C94.582987,15.8474733 97.9553397,19.2121212 102.115348,19.2121212 C103.233629,19.2121212 104.140176,18.307646 104.140176,17.1919192 C104.140176,16.0761924 103.233629,15.1717172 102.115348,15.1717172 Z" id="Shape" fill="#662059"></path>
            <path d="M28.3508594,100.565657 C28.1323597,104.975792 24.4848202,108.43955 20.0591883,108.43955 C15.6335565,108.43955 11.9860169,104.975792 11.7675172,100.565657 L9.74268908,100.565657 L9.74268908,102.585859 L20.6767609,102.585859 C21.7950426,102.585859 22.701589,101.681383 22.701589,100.565657 C22.701589,99.4499298 21.7950426,98.5454545 20.6767609,98.5454545 L9.74268908,98.5454545 C8.62440739,98.5454545 7.71786096,99.4499298 7.71786096,100.565657 C7.53439978,105.083682 9.84569491,109.339093 13.7396544,111.652606 C17.6336139,113.966118 22.4847627,113.966118 26.3787222,111.652606 C30.2726817,109.339093 32.5839768,105.083682 32.4005157,100.565657 C32.4005157,99.4499298 31.4939692,98.5454545 30.3756875,98.5454545 C29.2574059,98.5454545 28.3508594,99.4499298 28.3508594,100.565657 Z" id="Shape" fill="#662059"></path>
            <path d="M112.057254,95.8787879 L149.253346,112.484848 C151.521154,105.79798 150.346753,94.8888889 150.346753,94.8888889 L113.555626,85.959596 L112.057254,95.8787879" id="Shape" fill="#FB5956"></path>
            <path d="M129.450527,105.878788 L148.443415,114.363636 C148.964246,114.599183 149.560621,114.604021 150.085223,114.376957 C150.609825,114.149892 151.013736,113.712098 151.197181,113.171717 C152.296905,109.359059 152.802272,105.400311 152.695554,101.434343 C152.695554,97.6565657 152.371581,94.7474747 152.371581,94.7070707 C152.27592,93.8626694 151.660856,93.1682669 150.832712,92.969697 L114.041585,84.040404 C113.488784,83.9032176 112.903634,84.0047003 112.429661,84.3199606 C111.955687,84.6352209 111.636739,85.1350936 111.551047,85.6969697 L110.052674,95.6161616 C109.918789,96.5119131 110.398764,97.3871052 111.227074,97.7575758 L120.926001,102.080808 C121.949229,102.538256 123.150403,102.081496 123.608898,101.060606 C124.067394,100.039716 123.609588,98.8412864 122.58636,98.3838384 L114.284565,94.6868687 L115.236234,88.4646465 L149.881043,96.8686869 L150.367002,94.8484848 L148.342173,95.0707071 L148.342173,95.1717172 C148.342173,95.7171717 148.625649,98.2424242 148.625649,101.353535 C148.720342,104.873472 148.283485,108.387581 147.329759,111.777778 L149.253346,112.424242 L150.083526,110.585859 L131.090638,102.10101 C130.428726,101.805093 129.658862,101.883974 129.071048,102.307939 C128.483233,102.731903 128.16677,103.436542 128.240868,104.156423 C128.314966,104.876305 128.768367,105.502063 129.430279,105.79798" id="Shape" fill="#662059"></path>
            <path d="M168.003254,120.484848 C168.003254,120.484848 163.953598,126.262626 153.56623,130.060606 L148.990118,115.919192 C148.253777,113.598004 149.192945,111.074488 151.26923,109.795288 C153.345515,108.516087 156.027572,108.808564 157.777872,110.505051 L168.023503,120.484848" id="Shape" fill="#F4C95E"></path>
            <path d="M160.389901,124.444444 C158.0052,125.96121 155.458432,127.207969 152.796795,128.161616 L153.485237,130.060606 L155.510065,129.434343 L150.933953,115.292929 C150.510785,113.870996 151.092701,112.342296 152.355264,111.559125 C153.617827,110.775954 155.249364,110.931644 156.340244,111.939394 L166.585875,121.919192 C167.103107,122.424416 167.8512,122.615953 168.548355,122.421652 C169.24551,122.227352 169.785812,121.676733 169.965735,120.977208 C170.145657,120.277683 169.937866,119.535527 169.420634,119.030303 L159.175004,109.050505 C156.76106,106.675403 153.032041,106.255749 150.14847,108.034684 C147.264899,109.813618 145.974967,113.329566 147.026035,116.545455 L151.602147,130.686869 C151.772281,131.206313 152.14608,131.634831 152.63825,131.874644 C153.13042,132.114457 153.698972,132.145106 154.214175,131.959596 C157.156494,130.92738 159.974788,129.572269 162.617212,127.919192 C163.267798,127.548922 163.660378,126.850577 163.637843,126.103633 C163.615308,125.356689 163.181338,124.683167 162.509607,124.352609 C161.837877,124.022051 161.03812,124.088458 160.430397,124.525253" id="Shape" fill="#662059"></path>
            <ellipse id="Oval" fill="#FB5956" cx="159.45848" cy="34.4848485" rx="4.73809778" ry="4.72727273"></ellipse>
            <path d="M159.45848,27.7373737 C156.723132,27.7373737 154.257123,29.3813432 153.210351,31.9027017 C152.163579,34.4240602 152.742186,37.3262694 154.676369,39.2560336 C156.610552,41.1857979 159.519407,41.7630832 162.046539,40.7187023 C164.573672,39.6743214 166.221406,37.2139473 166.221406,34.4848485 C166.221406,33.3691217 165.314859,32.4646465 164.196578,32.4646465 C163.078296,32.4646465 162.171749,33.3691217 162.171749,34.4848485 C162.171749,35.9799224 160.956977,37.1919192 159.45848,37.1919192 C157.959982,37.1919192 156.74521,35.9799224 156.74521,34.4848485 C156.74521,32.9897746 157.959982,31.7777778 159.45848,31.7777778 C160.576761,31.7777778 161.483308,30.8733025 161.483308,29.7575758 C161.483308,28.641849 160.576761,27.7373737 159.45848,27.7373737 Z" id="Shape" fill="#662059"></path>
            <path d="M158.770038,100.767677 C156.579476,100.767677 154.448004,101.476544 152.695554,102.787879 C152.695554,104.181818 152.594312,105.656566 152.432326,107.131313 C152.970427,107.009304 153.520617,106.948312 154.072437,106.949495 C155.977957,106.934888 157.814684,107.659209 159.195252,108.969697 L167.051585,116.626263 C169.239359,113.544558 169.521439,109.502641 167.782836,106.148171 C166.044233,102.793702 162.575363,100.687008 158.790286,100.686869" id="Shape" fill="#F7DCDC"></path>
            <path d="M152.675306,102.808081 C150.609427,104.362219 149.218322,106.646516 148.787636,109.191919 C149.7761,108.185008 151.034453,107.483624 152.412078,107.171717 C152.574064,105.69697 152.655057,104.222222 152.675306,102.828283" id="Shape" fill="#631C4D"></path>
            <path d="M154.052189,111.010101 C152.99916,111.0042 152.007315,111.503058 151.3858,112.351188 C150.764285,113.199319 150.588675,114.293589 150.913705,115.292929 L151.865374,118.242424 C155.187766,121.311439 160.148624,121.806391 164.014343,119.454545 L156.340244,111.939394 C155.721862,111.340925 154.893449,111.007416 154.03194,111.010101" id="Shape" fill="#ECAD51"></path>
            <path d="M154.052189,106.969697 C152.068692,106.971374 150.170072,107.772801 148.787636,109.191919 C148.693729,109.745936 148.646318,110.306804 148.645898,110.868687 C148.644078,113.672305 149.810246,116.350559 151.865374,118.262626 L150.913705,115.313131 C150.45958,113.879564 151.036324,112.321149 152.315249,111.526028 C153.594175,110.730906 155.250483,110.901008 156.340244,111.939394 L164.05484,119.474747 C165.217202,118.760479 166.222774,117.819049 167.011089,116.707071 L159.154756,109.050505 C157.774188,107.740017 155.93746,107.015697 154.03194,107.030303" id="Shape" fill="#631C4D"></path>
            <path d="M117.261062,47.010101 C112.241629,47.0239006 107.990176,50.7050139 107.269665,55.6611348 C106.549153,60.6172556 109.577152,65.3518118 114.385806,66.7878788 L117.342055,47.010101" id="Shape" fill="#F7DCDC"></path>
            <path d="M121.29047,47.8383838 L118.415214,67.1313131 C122.960611,66.6036492 126.586155,63.0995464 127.259175,58.5835883 C127.932196,54.0676302 125.485351,49.6626801 121.29047,47.8383838" id="Shape" fill="#AA7B67"></path>
            <path d="M117.321807,47.010101 L114.365558,66.7878788 C115.298536,67.0665326 116.266932,67.2094189 117.240814,67.2121212 C117.625225,67.2337577 118.010554,67.2337577 118.394966,67.2121212 L121.270222,47.9191919 C119.991801,47.3681477 118.613181,47.0861764 117.220565,47.0909091" id="Shape" fill="#631C4D"></path>
            <path d="M16.8903323,199.636364 L82.6769977,199.636364 C83.7952794,199.636364 84.7018258,198.731888 84.7018258,197.616162 C84.7018258,196.500435 83.7952794,195.59596 82.6769977,195.59596 L16.8903323,195.59596 C15.7720506,195.59596 14.8655042,196.500435 14.8655042,197.616162 C14.8655042,198.731888 15.7720506,199.636364 16.8903323,199.636364" id="Shape" fill="#662059"></path>
            <path d="M130.402196,199.636364 L142.166448,199.636364 C143.284729,199.636364 144.191276,198.731888 144.191276,197.616162 C144.191276,196.500435 143.284729,195.59596 142.166448,195.59596 L130.442693,195.59596 C129.324411,195.59596 128.417865,196.500435 128.417865,197.616162 C128.417865,198.731888 129.324411,199.636364 130.442693,199.636364" id="Shape" fill="#662059"></path>
            <path d="M2.93926662,199.636364 L6.50296409,199.636364 C7.62124578,199.636364 8.52779221,198.731888 8.52779221,197.616162 C8.52779221,196.500435 7.62124578,195.59596 6.50296409,195.59596 L2.87852177,195.59596 C1.76024008,195.59596 0.853693659,196.500435 0.853693659,197.616162 C0.853693659,198.731888 1.76024008,199.636364 2.87852177,199.636364" id="Shape" fill="#662059"></path>
            <path d="M149.638063,199.636364 L153.262506,199.636364 C154.380787,199.636364 155.287334,198.731888 155.287334,197.616162 C155.287334,196.500435 154.380787,195.59596 153.262506,195.59596 L149.638063,195.59596 C148.519782,195.59596 147.613235,196.500435 147.613235,197.616162 C147.613235,198.731888 148.519782,199.636364 149.638063,199.636364" id="Shape" fill="#662059"></path>
        </g>
    </g>
</svg>