<?xml version="1.0" encoding="UTF-8"?>
<svg width="300px" height="200px" viewBox="0 0 300 200" version="1.1" xmlns="http://www.w3.org/2000/svg" xmlns:xlink="http://www.w3.org/1999/xlink">
    <!-- Generator: Sketch 51.3 (57544) - http://www.bohemiancoding.com/sketch -->
    <title>santa-hat</title>
    <desc>Created with Sketch.</desc>
    <defs></defs>
    <g id="santa-hat" stroke="none" stroke-width="1" fill="none" fill-rule="evenodd">
        <g id="Santahat" transform="translate(84.000000, 41.000000)" fill-rule="nonzero">
            <path d="M103.790189,115.3 L12.4718868,115.3 C8.31412047,115.3 4.94358491,111.942136 4.94358491,107.8 L4.94358491,98.55 C4.94358491,94.4078644 8.31412047,91.05 12.4718868,91.05 L103.790189,91.05 C107.947955,91.05 111.318491,94.4078644 111.318491,98.55 L111.318491,107.8 C111.318491,111.942136 107.947955,115.3 103.790189,115.3" id="Shape" fill="#FFFFFF"></path>
            <path d="M129.286038,76.875 C129.285627,71.0785651 124.580913,66.3734979 118.762649,66.3508228 C112.944385,66.3281478 108.202864,70.996401 108.156933,76.7926553 C108.111002,82.5889096 112.777951,87.3311587 118.595849,87.4 C124.430581,87.4 129.160566,82.687797 129.160566,76.875" id="Shape" fill="#FFFFFF"></path>
            <path d="M99.4237736,74.15 L99.4237736,64.425 C99.4237736,60.9732203 102.232553,58.175 105.697358,58.175 C109.162164,58.175 111.970943,60.9732203 111.970943,64.425 L111.970943,68.4 L126.149245,68.85 L126.149245,57.35 C126.571972,37.7761829 116.33185,19.5062817 99.3834188,9.59577977 C82.4349873,-0.314722197 61.4308618,-0.314722197 44.4824302,9.59577977 C27.5339987,19.5062817 17.2938775,37.7761829 17.7166038,57.35 L17.7166038,89.15 L99.4488679,89.15 L99.4488679,63.625 C99.0945575,59.2281535 97.0110907,55.1487685 93.6520755,52.275 L99.4488679,74.05" id="Shape" fill="#FB5956"></path>
            <path d="M33.6766038,112.8 L12.6475472,112.8 C9.74281864,112.786317 7.39147002,110.443808 7.37773585,107.55 L7.37773585,98.625 C7.39147002,95.7311915 9.74281864,93.3886825 12.6475472,93.375 L103.539245,93.375 C106.443974,93.3886825 108.795322,95.7311915 108.809057,98.625 L108.809057,107.55 C108.795322,110.443808 106.443974,112.786317 103.539245,112.8 L43.6892453,112.8 C42.3033232,112.8 41.1798113,113.919288 41.1798113,115.3 C41.1798113,116.680712 42.3033232,117.8 43.6892453,117.8 L103.539245,117.8 C109.221526,117.8 113.827925,113.210919 113.827925,107.55 L113.827925,98.625 C113.827925,92.9640813 109.221526,88.375 103.539245,88.375 L12.6475472,88.375 C9.91881978,88.375 7.30185395,89.4549076 5.37235231,91.3771555 C3.44285066,93.2994034 2.35886792,95.906531 2.35886792,98.625 L2.35886792,107.55 C2.35886792,110.268469 3.44285066,112.875597 5.37235231,114.797845 C7.30185395,116.720092 9.91881978,117.8 12.6475472,117.8 L33.6766038,117.8 C35.0625259,117.8 36.1860377,116.680712 36.1860377,115.3 C36.1860377,113.919288 35.0625259,112.8 33.6766038,112.8" id="Shape" fill="#662059"></path>
            <path d="M116.262075,30.825 C121.085518,38.8190337 123.627722,47.9728676 123.614717,57.3 L123.614717,68.8 C123.614717,70.1807119 124.738229,71.3 126.124151,71.3 C127.510073,71.3 128.633585,70.1807119 128.633585,68.8 L128.633585,57.3 C128.649577,47.0671453 125.864603,37.0236142 120.578302,28.25 C120.204964,27.3476757 119.338686,26.7442892 118.359833,26.7047757 C117.38098,26.6652623 116.468539,27.1968471 116.023147,28.0661216 C115.577754,28.9353961 115.680851,29.9834098 116.28717,30.75 L116.262075,30.825 Z" id="Shape" fill="#662059"></path>
            <path d="M53.2,9.15 C73.5369315,1.32702841 96.6139627,7.03461418 110.916981,23.425 C111.494994,24.131628 112.413247,24.46883 113.313331,24.3049905 C114.213414,24.141151 114.952645,23.5022424 115.24249,22.6376412 C115.532334,21.7730399 115.326844,20.8198051 114.706226,20.15 C99.0122458,2.14294557 73.6692801,-4.12648118 51.3430189,4.475 C50.1564269,5.03667954 49.6055058,6.41502418 50.0797523,7.63555516 C50.5539987,8.85608614 51.8928773,9.50564554 53.1498113,9.125" id="Shape" fill="#662059"></path>
            <path d="M20.2009434,89.15 L20.2009434,57.3 C20.1898549,41.5197756 27.4517992,26.6081149 39.9,16.85 C40.6037796,16.2962384 40.9575556,15.4104911 40.828064,14.5264106 C40.6985724,13.6423301 40.105486,12.8942293 39.2722149,12.5639105 C38.4389437,12.2335917 37.4920814,12.3712383 36.7883019,12.925 C23.1320338,23.6294051 15.166637,39.9887858 15.1820755,57.3 L15.1820755,89.15 C15.1820755,90.5307119 16.3055873,91.65 17.6915094,91.65 C19.0774315,91.65 20.2009434,90.5307119 20.2009434,89.15" id="Shape" fill="#662059"></path>
            <path d="M101.933208,89.15 L101.933208,63.625 C101.933208,62.2442881 100.809696,61.125 99.4237736,61.125 C98.0378515,61.125 96.9143396,62.2442881 96.9143396,63.625 L96.9143396,89.15 C96.9143396,90.5307119 98.0378515,91.65 99.4237736,91.65 C100.809696,91.65 101.933208,90.5307119 101.933208,89.15" id="Shape" fill="#662059"></path>
            <path d="M101.933208,74.15 L101.933208,64.425 C101.933208,62.3539322 103.618475,60.675 105.697358,60.675 C107.776242,60.675 109.461509,62.3539322 109.461509,64.425 L109.461509,68.4 C109.461509,69.7807119 110.585021,70.9 111.970943,70.9 C113.356866,70.9 114.480377,69.7807119 114.480377,68.4 L114.480377,64.425 C114.480377,59.5925084 110.548086,55.675 105.697358,55.675 C100.846631,55.675 96.9143396,59.5925084 96.9143396,64.425 L96.9143396,74.15 C96.9143396,75.5307119 98.0378515,76.65 99.4237736,76.65 C100.809696,76.65 101.933208,75.5307119 101.933208,74.15 Z" id="Shape" fill="#662059"></path>
            <path d="M131.795472,76.875 C131.79514,69.6978359 125.966955,63.8734047 118.762744,63.8506652 C111.558532,63.8279256 105.693418,69.6154478 105.647436,76.7924657 C105.601454,83.9694836 111.391933,89.8311213 118.595849,89.9 C119.981771,89.9 121.105283,88.7807119 121.105283,87.4 C121.105283,86.0192881 119.981771,84.9 118.595849,84.9 C115.325377,84.9101186 112.371285,82.9552275 111.112686,79.9479638 C109.854086,76.9407001 110.539201,73.4741591 112.848186,71.1666887 C115.157171,68.8592183 118.634645,68.1658999 121.657157,69.4104079 C124.679669,70.6549159 126.651116,73.5918073 126.651132,76.85 C126.651132,78.2307119 127.774644,79.35 129.160566,79.35 C130.546488,79.35 131.67,78.2307119 131.67,76.85 L131.795472,76.875 Z" id="Shape" fill="#662059"></path>
            <path d="M73.1249057,14.275 C48.7188173,14.275 28.9337736,33.9856639 28.9337736,58.3 L28.9337736,59.725 C28.9337736,61.1057119 30.0572854,62.225 31.4432075,62.225 C32.8291297,62.225 33.9526415,61.1057119 33.9526415,59.725 L33.9526415,58.3 C33.9526415,36.7470876 51.4906616,19.275 73.1249057,19.275 C74.5108278,19.275 75.6343396,18.1557119 75.6343396,16.775 C75.6343396,15.3942881 74.5108278,14.275 73.1249057,14.275 Z" id="Shape" fill="#FFFFFF"></path>
            <path d="M28.9337736,71.075 L28.9337736,76.65 C28.9337736,78.0307119 30.0572854,79.15 31.4432075,79.15 C32.8291297,79.15 33.9526415,78.0307119 33.9526415,76.65 L33.9526415,71.1 C33.9526415,69.7192881 32.8291297,68.6 31.4432075,68.6 C30.0572854,68.6 28.9337736,69.7192881 28.9337736,71.1" id="Shape" fill="#FFFFFF"></path>
            <path d="M77.9932075,109 L90.7411321,109 C92.1270542,109 93.250566,107.880712 93.250566,106.5 C93.250566,105.119288 92.1270542,104 90.7411321,104 L77.9932075,104 C76.6072854,104 75.4837736,105.119288 75.4837736,106.5 C75.4837736,107.880712 76.6072854,109 77.9932075,109" id="Shape" fill="#662059"></path>
            <path d="M96.5128302,0.5 C93.6668985,0.500597687 90.9123169,1.50091234 88.7335849,3.325 C96.0048118,5.56944918 102.747279,9.25111068 108.558113,14.15 C109.013348,10.6954314 107.951711,7.21302472 105.644944,4.59415367 C103.338176,1.97528261 100.010189,0.474152526 96.5128302,0.475" id="Shape" fill="#F7DCDC"></path>
            <path d="M85.4713208,7.575 C82.8263224,13.3380527 85.0925121,20.1579501 90.6667912,23.2103086 C96.2410703,26.262667 103.23502,24.513428 106.701132,19.2 C100.650927,13.7013384 93.3737369,9.71650165 85.4713208,7.575" id="Shape" fill="#F34D4A"></path>
            <path d="M88.7335849,3.3 C87.3426918,4.45758361 86.2282543,5.90944633 85.4713208,7.55 C93.3737369,9.69150165 100.650927,13.6763384 106.701132,19.175 C107.687852,17.6677485 108.32244,15.959094 108.558113,14.175 C102.749437,9.26717879 96.0068238,5.57693448 88.7335849,3.325" id="Shape" fill="#631C4D"></path>
            <path d="M12.1456604,81.075 C7.57642708,81.0768033 3.39483317,83.6332319 1.32391453,87.6909032 C-0.747004107,91.7485744 -0.356787914,96.6208125 2.33377358,100.3 L2.33377358,98.6 C2.33377358,95.881531 3.41775632,93.2744034 5.34725797,91.3521555 C7.27675961,89.4299076 9.89372544,88.35 12.6224528,88.35 L15.1318868,88.35 L15.1318868,81.45 C14.1396124,81.1982485 13.1194145,81.0722531 12.0954717,81.075" id="Shape" fill="#F7DCDC"></path>
            <path d="M20.2009434,84.15 L20.2009434,88.375 L23.2373585,88.375 C22.5289621,86.7599078 21.4756356,85.318095 20.1507547,84.15" id="Shape" fill="#F34D4A"></path>
            <path d="M24.2662264,93.35 L12.6224528,93.35 C9.7177243,93.3636825 7.36637568,95.7061915 7.35264151,98.6 L7.35264151,104.275 C11.0715296,105.857018 15.3368454,105.491407 18.7298214,103.29978 C22.1227974,101.108153 24.198401,97.3779711 24.2662264,93.35" id="Shape" fill="#F7DCDC"></path>
            <path d="M23.2373585,88.35 L20.1507547,88.35 L20.1507547,89.15 C20.1507547,90.5307119 19.0272429,91.65 17.6413208,91.65 C16.2553986,91.65 15.1318868,90.5307119 15.1318868,89.15 L15.1318868,88.275 L12.6224528,88.275 C9.89372544,88.275 7.27675961,89.3549076 5.34725797,91.2771555 C3.41775632,93.1994034 2.33377358,95.806531 2.33377358,98.525 L2.33377358,100.225 C3.62092398,101.972229 5.35376484,103.344659 7.35264151,104.2 L7.35264151,98.525 C7.36637568,95.6311915 9.7177243,93.2886825 12.6224528,93.275 L24.2662264,93.275 L24.2662264,93.15 C24.2688152,91.4899548 23.9270801,89.8472819 23.2624528,88.325" id="Shape" fill="#631C4D"></path>
            <path d="M15.1820755,81.45 L15.1820755,89.15 C15.1820755,90.5307119 16.3055873,91.65 17.6915094,91.65 C19.0774315,91.65 20.2009434,90.5307119 20.2009434,89.15 L20.2009434,84.15 C18.7648445,82.8740812 17.0444529,81.9571319 15.1820755,81.475" id="Shape" fill="#631C4D"></path>
        </g>
    </g>
</svg>