<?xml version="1.0" encoding="UTF-8"?>
<svg width="300px" height="200px" viewBox="0 0 300 200" version="1.1" xmlns="http://www.w3.org/2000/svg" xmlns:xlink="http://www.w3.org/1999/xlink">
    <!-- Generator: Sketch 51.3 (57544) - http://www.bohemiancoding.com/sketch -->
    <title>snowflake-with-six-points</title>
    <desc>Created with Sketch.</desc>
    <defs></defs>
    <g id="snowflake-with-six-points" stroke="none" stroke-width="1" fill="none" fill-rule="evenodd">
        <g id="Snowflake1" transform="translate(95.000000, 40.000000)" fill-rule="nonzero">
            <polygon id="Shape" fill="#2D9693" points="69.8729412 33.6657534 38.3647059 33.6657534 22.6188235 60.8876712 38.3647059 88.109589 69.8729412 88.109589 85.6188235 60.8876712"></polygon>
            <polygon id="Shape" fill="#56B2AD" points="55 33.6657534 38.3647059 33.6657534 22.6188235 60.8876712 38.3647059 88.109589 54.3576471 88.109589"></polygon>
            <ellipse id="Oval" fill="#DAF2F1" cx="75.2258824" cy="23.9342466" rx="8.23529412" ry="8.21917808"></ellipse>
            <ellipse id="Oval" fill="#DAF2F1" cx="13.0658824" cy="60.4931507" rx="8.23529412" ry="8.21917808"></ellipse>
            <path d="M52.7105882,89.4575342 L52.7105882,117.40274 C52.7105882,118.310605 53.4480016,119.046575 54.3576471,119.046575 C55.2672925,119.046575 56.0047059,118.310605 56.0047059,117.40274 L56.0047059,89.4575342 C56.0047059,88.5496689 55.2672925,87.8136986 54.3576471,87.8136986 C53.4480016,87.8136986 52.7105882,88.5496689 52.7105882,89.4575342" id="Shape" fill="#662059"></path>
            <path d="M52.7105882,1.69315068 L52.7105882,77.6219178 C52.7105882,78.5297832 53.4480016,79.2657534 54.3576471,79.2657534 C55.2672925,79.2657534 56.0047059,78.5297832 56.0047059,77.6219178 L56.0047059,1.69315068 C56.0047059,0.785285343 55.2672925,0.0493150685 54.3576471,0.0493150685 C53.4480016,0.0493150685 52.7105882,0.785285343 52.7105882,1.69315068" id="Shape" fill="#662059"></path>
            <path d="M39.8141176,8.46575342 L53.3035294,21.9287671 C53.945944,22.566121 54.9834677,22.566121 55.6258824,21.9287671 L69.1152941,8.46575342 C69.6749265,7.81354475 69.6373002,6.84132465 69.0289277,6.23414265 C68.4205551,5.62696065 67.4464287,5.58940801 66.7929412,6.14794521 L54.4729412,18.4438356 L42.1529412,6.14794521 C41.7504167,5.67883371 41.1183932,5.47449543 40.5167217,5.61894224 C39.9150502,5.76338905 39.4452781,6.23224184 39.300548,6.83273594 C39.155818,7.43323004 39.3605569,8.06401663 39.8305882,8.46575342 L39.8141176,8.46575342 Z" id="Shape" fill="#662059"></path>
            <path d="M44.8541176,4.15890411 L53.3035294,12.5917808 C53.945944,13.2291347 54.9834677,13.2291347 55.6258824,12.5917808 L64.0752941,4.15890411 C64.6349265,3.50669543 64.5973002,2.53447533 63.9889277,1.92729334 C63.3805551,1.32011134 62.4064287,1.28255869 61.7529412,1.84109589 L54.4729412,9.10684932 L47.1929412,1.84109589 C46.7904167,1.37198439 46.1583932,1.16764612 45.5567217,1.31209293 C44.9550502,1.45653974 44.4852781,1.92539252 44.340548,2.52588662 C44.195818,3.12638072 44.4005569,3.75716732 44.8705882,4.15890411 L44.8541176,4.15890411 Z" id="Shape" fill="#662059"></path>
            <path d="M52.9411765,96.6739726 L39.4682353,110.186301 C38.9086029,110.83851 38.9462292,111.81073 39.5546018,112.417912 C40.1629743,113.025094 41.1371007,113.062647 41.7905882,112.50411 L55.28,99.0410959 C55.8396324,98.3888872 55.8020061,97.4166671 55.1936335,96.8094851 C54.585261,96.2023031 53.6111346,96.1647505 52.9576471,96.7232877" id="Shape" fill="#662059"></path>
            <path d="M68.7529412,110.186301 L61.0776471,102.526027 C60.6751225,102.056916 60.0430991,101.852578 59.4414276,101.997024 C58.839756,102.141471 58.3699839,102.610324 58.2252539,103.210818 C58.0805239,103.811312 58.2852628,104.442099 58.7552941,104.843836 L66.4305882,112.50411 C67.0840758,113.062647 68.0582022,113.025094 68.6665747,112.417912 C69.2749473,111.81073 69.3125735,110.83851 68.7529412,110.186301" id="Shape" fill="#662059"></path>
            <path d="M63.7294118,114.443836 L55.28,106.010959 C54.6375854,105.373605 53.6000617,105.373605 52.9576471,106.010959 L44.5082353,114.443836 C44.038204,114.845572 43.833465,115.476359 43.9781951,116.076853 C44.1229251,116.677347 44.5926972,117.1462 45.1943688,117.290647 C45.7960403,117.435094 46.4280637,117.230755 46.8305882,116.761644 L54.1105882,109.49589 L61.3905882,116.761644 C62.0440758,117.320181 63.0182022,117.282628 63.6265747,116.675446 C64.2349473,116.068264 64.2725735,115.096044 63.7129412,114.443836 L63.7294118,114.443836 Z" id="Shape" fill="#662059"></path>
            <path d="M103.341176,29.7534247 L4.94588235,88.4054795 C4.37297413,88.6638951 3.99743803,89.225278 3.97793624,89.8524464 C3.95843445,90.4796149 4.2983691,91.0631583 4.85411944,91.3565323 C5.40986977,91.6499064 6.08448412,91.6019315 6.59294118,91.2328767 L104.988235,32.5808219 C105.561144,32.3224062 105.93668,31.7610234 105.956181,31.1338549 C105.975683,30.5066865 105.635749,29.9231431 105.079998,29.629769 C104.524248,29.336395 103.849634,29.3843699 103.341176,29.7534247" id="Shape" fill="#662059"></path>
            <path d="M3.66117647,32.5808219 L35.68,51.6657534 C36.1884571,52.0348082 36.8630714,52.0827831 37.4188217,51.789409 C37.9745721,51.496035 38.3145067,50.9124916 38.2950049,50.2853231 C38.2755031,49.6581547 37.899967,49.0967718 37.3270588,48.8383562 L5.30823529,29.7534247 C4.79977824,29.3843699 4.12516389,29.336395 3.56941355,29.629769 C3.01366322,29.9231431 2.67372857,30.5066865 2.69323036,31.1338549 C2.71273214,31.7610234 3.08826824,32.3224062 3.66117647,32.5808219" id="Shape" fill="#662059"></path>
            <path d="M87.0352941,60.0657534 L71.2894118,32.8438356 C70.9940266,32.3332041 70.4472455,32.019577 69.8564706,32.0219178 L38.3647059,32.0219178 C37.773931,32.019577 37.2271498,32.3332041 36.9317647,32.8438356 L21.1858824,60.0657534 C20.8916636,60.5743579 20.8916636,61.2009845 21.1858824,61.709589 L36.9317647,88.9315068 C37.2271498,89.4421384 37.773931,89.7557655 38.3647059,89.7534247 L69.8564706,89.7534247 C70.4472455,89.7557655 70.9940266,89.4421384 71.2894118,88.9315068 L82.1105882,70.2410959 C82.5197205,69.4605198 82.239592,68.4968116 81.4754169,68.0559563 C80.7112418,67.615101 79.7346993,67.8538313 79.2611765,68.5972603 L68.9176471,86.4657534 L39.2705882,86.4657534 L24.4470588,60.8876712 L39.2705882,35.309589 L68.9176471,35.309589 L84.1858824,61.709589 C84.6594051,62.453018 85.6359476,62.6917483 86.4001228,62.250893 C87.1642979,61.8100377 87.4444264,60.8463295 87.0352941,60.0657534 Z" id="Shape" fill="#662059"></path>
            <path d="M11.9788235,62.5150685 L22.6352941,62.5150685 C23.5449396,62.5150685 24.2823529,61.7790982 24.2823529,60.8712329 C24.2823529,59.9633675 23.5449396,59.2273973 22.6352941,59.2273973 L11.9952941,59.2273973 C11.0856486,59.2273973 10.3482353,59.9633675 10.3482353,60.8712329 C10.3482353,61.7790982 11.0856486,62.5150685 11.9952941,62.5150685" id="Shape" fill="#662059"></path>
            <path d="M85.6023529,62.5150685 L96.2423529,62.5150685 C97.1519984,62.5150685 97.8894118,61.7790982 97.8894118,60.8712329 C97.8894118,59.9633675 97.1519984,59.2273973 96.2423529,59.2273973 L85.6023529,59.2273973 C84.6927075,59.2273973 83.9552941,59.9633675 83.9552941,60.8712329 C83.9552941,61.7790982 84.6927075,62.5150685 85.6023529,62.5150685" id="Shape" fill="#662059"></path>
            <path d="M35.0211765,98.6794521 L40.0941176,89.3424658 C40.5489404,88.5435443 40.2687233,87.5279053 39.4682353,87.0739726 C38.6677473,86.6200399 37.6501169,86.8997086 37.1952941,87.6986301 L32.1223529,97.0356164 C31.6675302,97.8345379 31.9477473,98.8501769 32.7482353,99.3041096 C33.5487233,99.7580423 34.5663537,99.4783736 35.0211765,98.6794521" id="Shape" fill="#662059"></path>
            <path d="M71.4541176,34.0438356 L76.5270588,24.7068493 C76.8212776,24.1900377 76.8168906,23.5558274 76.5155504,23.0431193 C76.2142102,22.5304113 75.6616975,22.2170979 75.0661386,22.2212015 C74.4705796,22.2253051 73.922454,22.5462021 73.6282353,23.0630137 L68.5552941,32.4 C68.2610753,32.9168116 68.2654623,33.5510219 68.5668025,34.06373 C68.8681427,34.5764381 69.4206554,34.8897514 70.0162144,34.8856478 C70.6117733,34.8815443 71.159899,34.5606473 71.4541176,34.0438356" id="Shape" fill="#662059"></path>
            <path d="M76.7905882,96.3616438 L71.4211765,87.1726027 C71.1407435,86.6375698 70.5889813,86.299048 69.9840354,86.2908758 C69.3790895,86.2827036 68.8183491,86.6061967 68.5235094,87.1334584 C68.2286696,87.66072 68.2471963,88.3068673 68.5717647,88.8164384 L73.9411765,97.9890411 C74.2216094,98.5240741 74.7733716,98.8625959 75.3783175,98.870768 C75.9832634,98.8789402 76.5440038,98.5554471 76.8388436,98.0281855 C77.1336833,97.5009238 77.1151566,96.8547766 76.7905882,96.3452055" id="Shape" fill="#662059"></path>
            <path d="M39.6329412,32.9260274 L34.2635294,23.7534247 C33.9830965,23.2183917 33.4313343,22.8798699 32.8263884,22.8716977 C32.2214425,22.8635255 31.660702,23.1870186 31.3658623,23.7142803 C31.0710226,24.241542 31.0895493,24.8876892 31.4141176,25.3972603 L36.8,34.569863 C37.0804329,35.104896 37.6321951,35.4434178 38.2371411,35.45159 C38.842087,35.4597621 39.4028274,35.136269 39.6976671,34.6090074 C39.9925068,34.0817457 39.9739801,33.4355985 39.6494118,32.9260274" id="Shape" fill="#662059"></path>
            <path d="M91.1529412,22.0438356 L86.4423529,40.4876712 C86.3323686,40.9105991 86.3956183,41.3598275 86.6181304,41.7361241 C86.8406426,42.1124208 87.2041067,42.3848202 87.6282353,42.4931507 L106.108235,47.1945205 C106.990591,47.4169475 107.886549,46.8833691 108.109412,46.0027397 C108.332275,45.1221104 107.79765,44.2279065 106.915294,44.0054795 L90.0329412,39.7150685 L94.3317647,22.8657534 C94.5546278,21.9851241 94.0200031,21.0909202 93.137647,20.8684932 C92.255291,20.6460662 91.3593338,21.1796446 91.1364706,22.060274 L91.1529412,22.0438356 Z" id="Shape" fill="#662059"></path>
            <path d="M97.4282353,24.1643836 L94.48,35.6712329 C94.3700157,36.0941607 94.4332653,36.5433891 94.6557775,36.9196858 C94.8782896,37.2959824 95.2417537,37.5683818 95.6658824,37.6767123 L107.195294,40.6191781 C108.07765,40.8416051 108.973607,40.3080266 109.196471,39.4273972 C109.419334,38.5467679 108.884709,37.652564 108.002353,37.430137 L98.0211765,34.8986301 L100.557647,24.9369863 C100.78051,24.0563569 100.245886,23.162153 99.3635294,22.939726 C98.4811733,22.717299 97.5852161,23.2508775 97.3623529,24.1315068 L97.4282353,24.1643836 Z" id="Shape" fill="#662059"></path>
            <path d="M18.8305882,98.9260274 L23.5411765,80.4821918 C23.6511608,80.0592639 23.5879111,79.6100355 23.365399,79.2337389 C23.1428868,78.8574422 22.7794227,78.5850428 22.3552941,78.4767123 L3.87529412,73.7753425 C3.30450979,73.6314574 2.70017104,73.802416 2.28992643,74.2238199 C1.87968182,74.6452237 1.72585728,75.2530515 1.88639701,75.8183405 C2.04693675,76.3836294 2.49745096,76.8204985 3.06823529,76.9643836 L19.9505882,81.2547945 L15.6517647,98.1041096 C15.5075975,98.6737769 15.6788913,99.276933 16.1011215,99.6863748 C16.5233516,100.095817 17.1323713,100.24934 17.6987686,100.089115 C18.2651659,99.928889 18.7028917,99.4792564 18.8470588,98.909589 L18.8305882,98.9260274 Z" id="Shape" fill="#662059"></path>
            <path d="M12.5552941,96.8054795 L15.5035294,85.2986301 C15.6135137,84.8757023 15.5502641,84.4264739 15.3277519,84.0501772 C15.1052398,83.6738806 14.7417757,83.4014812 14.3176471,83.2931507 L2.78823529,80.3506849 C2.21745097,80.2067999 1.61311222,80.3777585 1.20286761,80.7991623 C0.792623001,81.2205662 0.638798454,81.828394 0.799338189,82.3936829 C0.959877924,82.9589718 1.41039213,83.395841 1.98117647,83.539726 L11.9623529,86.0712329 L9.42588235,96.0328767 C9.20301921,96.9135061 9.73764389,97.80771 10.62,98.030137 C11.5023561,98.252564 12.3983133,97.7189855 12.6211765,96.8383562 L12.5552941,96.8054795 Z" id="Shape" fill="#662059"></path>
            <path d="M106.141176,74.8438356 L87.6776471,79.5780822 C87.2535184,79.6864127 86.8900544,79.9588121 86.6675422,80.3351087 C86.4450301,80.7114054 86.3817804,81.1606338 86.4917647,81.5835616 L91.2352941,100.010959 C91.4627055,100.891588 92.3623498,101.421487 93.2447059,101.194521 C94.127062,100.967554 94.6579996,100.06967 94.4305882,99.1890411 L90.0988235,82.339726 L106.981176,78.0164384 C107.863532,77.7894719 108.39447,76.8915882 108.167059,76.010959 C107.939647,75.1303297 107.040003,74.6004311 106.157647,74.8273973 L106.141176,74.8438356 Z" id="Shape" fill="#662059"></path>
            <path d="M107.294118,81.369863 L95.7647059,84.3287671 C95.3405773,84.4370976 94.9771132,84.709497 94.754601,85.0857937 C94.5320889,85.4620903 94.4688392,85.9113187 94.5788235,86.3342466 L97.5435294,97.8410959 C97.7709408,98.7217253 98.6705851,99.2516239 99.5529412,99.0246575 C100.435297,98.7976912 100.966235,97.8998075 100.738824,97.0191781 L98.1364706,87.1726027 L108.117647,84.6246575 C109.000003,84.3976912 109.530941,83.4998075 109.303529,82.6191781 C109.076118,81.7385487 108.176474,81.2086501 107.294118,81.4356164 L107.294118,81.369863 Z" id="Shape" fill="#662059"></path>
            <path d="M21.6470588,33.3369863 L18.7647059,22.1260274 C18.5372945,21.245398 17.6376502,20.7154994 16.7552941,20.9424658 C15.872938,21.1694321 15.3420004,22.0673158 15.5694118,22.9479452 L18.4517647,34.1589041 C18.6791761,35.0395335 19.5788204,35.5694321 20.4611765,35.3424658 C21.3435326,35.1154994 21.8744702,34.2176157 21.6470588,33.3369863" id="Shape" fill="#662059"></path>
            <path d="M3.84235294,47.2767123 L21.6470588,42.7890411 C22.5294149,42.5620748 23.0603525,41.664191 22.8329412,40.7835616 C22.6055298,39.9029323 21.7058855,39.3730337 20.8235294,39.6 L3.03529412,44.1534247 C2.4645098,44.3002461 2.01556525,44.7398287 1.85757353,45.3065858 C1.69958182,45.8733429 1.85654563,46.4811707 2.26933824,46.9011063 C2.68213084,47.321042 3.28803921,47.4892872 3.85882353,47.3424658" id="Shape" fill="#662059"></path>
            <path d="M2.68941176,40.7671233 L14.2188235,37.8082192 C14.6429522,37.6998887 15.0064162,37.4274893 15.2289284,37.0511926 C15.4514405,36.674896 15.5146902,36.2256676 15.4047059,35.8027397 L12.44,24.2958904 C12.2125886,23.415261 11.3129443,22.8853624 10.4305882,23.1123288 C9.54823213,23.3392951 9.01729451,24.2371788 9.24470588,25.1178082 L11.7976471,35.0794521 L1.81647059,37.6273973 C0.934114482,37.8543636 0.403176868,38.7522473 0.630588235,39.6328767 C0.857999603,40.5135061 1.75764389,41.0434047 2.64,40.8164384 L2.68941176,40.7671233 Z" id="Shape" fill="#662059"></path>
            <path d="M43.24,42.7890411 L46.9788235,42.7890411 C47.888469,42.7890411 48.6258824,42.0530708 48.6258824,41.1452055 C48.6258824,40.2373401 47.888469,39.5013699 46.9788235,39.5013699 L43.24,39.5013699 C42.3303545,39.5013699 41.5929412,40.2373401 41.5929412,41.1452055 C41.5929412,42.0530708 42.3303545,42.7890411 43.24,42.7890411" id="Shape" fill="#FFFFFF"></path>
            <path d="M65.6729412,74.8109589 L63.1694118,79.0356164 L60.2211765,79.0356164 C59.311531,79.0356164 58.5741176,79.7715867 58.5741176,80.6794521 C58.5741176,81.5873174 59.311531,82.3232877 60.2211765,82.3232877 L64.1082353,82.3232877 C64.6897579,82.3231864 65.2281294,82.0170402 65.5247059,81.5178082 L68.5058824,76.4876712 C68.8756607,75.9802092 68.9237297,75.306915 68.6297804,74.7522523 C68.3358311,74.1975895 67.7511435,73.8583201 67.1227453,73.8777837 C66.4943471,73.8972473 65.9318635,74.2720485 65.6729412,74.8438356 L65.6729412,74.8109589 Z" id="Shape" fill="#FFFFFF"></path>
            <path d="M42.4,55.660274 L102.072941,91.2328767 C102.581398,91.6019315 103.256013,91.6499064 103.811763,91.3565323 C104.367513,91.0631583 104.707448,90.4796149 104.687946,89.8524464 C104.668444,89.225278 104.292908,88.6638951 103.72,88.4054795 L44.0470588,52.8328767 C43.5386018,52.463822 42.8639874,52.415847 42.3082371,52.7092211 C41.7524867,53.0025951 41.4125521,53.5861385 41.4320539,54.213307 C41.4515557,54.8404755 41.8270918,55.4018583 42.4,55.660274" id="Shape" fill="#662059"></path>
            <path d="M43.4541176,82.569863 C44.3580248,82.574845 45.1395001,81.9416756 45.3203837,81.0577711 C45.5012673,80.1738665 45.0311472,79.2855701 44.1976749,78.9364022 C43.3642025,78.5872342 42.3996659,78.8745075 41.8942342,79.6224486 C41.3888025,80.3703897 41.483339,81.3705481 42.12,82.0109589 C42.4740951,82.3646125 42.953194,82.5653222 43.4541176,82.569863" id="Shape" fill="#FFFFFF"></path>
        </g>
    </g>
</svg>