<?xml version="1.0" encoding="UTF-8"?>
<svg width="300px" height="200px" viewBox="0 0 300 200" version="1.1" xmlns="http://www.w3.org/2000/svg" xmlns:xlink="http://www.w3.org/1999/xlink">
    <!-- Generator: Sketch 51.3 (57544) - http://www.bohemiancoding.com/sketch -->
    <title>snowy-christmas-tree</title>
    <desc>Created with Sketch.</desc>
    <defs></defs>
    <g id="snowy-christmas-tree" stroke="none" stroke-width="1" fill="none" fill-rule="evenodd">
        <g id="Christmastree_withsnow" transform="translate(66.000000, 1.000000)" fill-rule="nonzero">
            <path d="M162.002807,154.992593 L6.99719298,154.992593 C5.29535933,154.988785 3.76318273,153.961464 3.11439257,152.389182 C2.46560242,150.8169 2.82780665,149.008904 4.0322807,147.807407 L84.5148246,67.3777778 L164.997368,147.807407 C166.20569,149.012711 166.566027,150.827914 165.909622,152.402899 C165.253218,153.977884 163.710039,155.000804 162.002807,154.992593 Z" id="Shape" fill="#2D9693"></path>
            <path d="M47.0235088,140.711111 C64.0694682,135.507753 77.1950061,121.841269 81.6981579,104.607407 C94.669409,121.902493 117.089313,129.228738 137.779474,122.933333 C138.179737,122.814815 138.565175,122.637037 138.965439,122.503704 L133.925088,117.466667 L94.8475439,78.4148148 C88.8855988,72.4620213 79.2249275,72.4620213 73.2629825,78.4148148 L12.4822807,139.155556 C23.4669899,143.661981 35.6777225,144.211889 47.0235088,140.711111 Z" id="Shape" fill="#FFFFFF"></path>
            <path d="M27.8405263,126.474074 L84.7223684,69.6296296 L163.663158,148.518519 C164.289123,149.12462 164.642197,149.95861 164.641579,150.82963 C164.636875,151.69249 164.308963,152.522301 163.722456,153.155556 C163.103551,153.821709 162.230352,154.193382 161.320877,154.177778 L58.8090351,154.177778 C57.9902972,154.177778 57.3265789,154.84106 57.3265789,155.659259 C57.3265789,156.477459 57.9902972,157.140741 58.8090351,157.140741 L161.261579,157.140741 C162.990227,157.155564 164.646114,156.446365 165.827544,155.185185 C166.930707,154.002524 167.545079,152.446433 167.547193,150.82963 C167.554699,149.159002 166.886433,147.556218 165.694123,146.385185 L85.6414912,66.3851852 C85.0632778,65.8107799 84.1294415,65.8107799 83.5512281,66.3851852 L25.6316667,124.266667 C25.1279625,124.85446 25.1618285,125.730658 25.7094019,126.277871 C26.2569753,126.825085 27.1337501,126.858929 27.7219298,126.355556 L27.8405263,126.474074 Z" id="Shape" fill="#662059"></path>
            <path d="M47.5127193,154.177778 L8.10903509,154.177778 C7.19955993,154.193382 6.3263617,153.821709 5.70745614,153.155556 C5.1209489,152.522301 4.79303718,151.69249 4.78833333,150.82963 C4.78600311,149.958265 5.13934919,149.123632 5.76675439,148.518519 L20.0279825,133.703704 C20.3960757,133.32262 20.5327686,132.774239 20.3865703,132.265128 C20.240372,131.756018 19.8334934,131.363526 19.3192019,131.235499 C18.8049103,131.107472 18.2613389,131.263361 17.8932456,131.644444 L3.63201754,146.459259 L4.69938596,147.481481 L3.64684211,146.42963 C2.4531022,147.599696 1.78457226,149.203113 1.79377193,150.874074 C1.79588595,152.490877 2.41025767,154.046968 3.51342105,155.22963 C4.69485134,156.49081 6.35073743,157.200008 8.07938596,157.185185 L47.4830702,157.185185 C48.3018081,157.185185 48.9655263,156.521903 48.9655263,155.703704 C48.9655263,154.885504 48.3018081,154.222222 47.4830702,154.222222 L47.5127193,154.177778 Z" id="Shape" fill="#662059"></path>
            <path d="M97.8272807,111.6 L26.3580702,111.6 C24.5093637,111.602536 22.8415654,110.490776 22.1337527,108.784058 C21.42594,107.077339 21.8178128,105.112513 23.1263158,103.807407 L84.737193,42.237037 L146.34807,103.807407 C147.656573,105.112513 148.048446,107.077339 147.340633,108.784058 C146.632821,110.490776 144.965022,111.602536 143.116316,111.6 L108.085877,111.6" id="Shape" fill="#2D9693"></path>
            <path d="M112.236754,97.437037 C105.739649,95.466156 99.8721969,91.8295015 95.2181579,86.8888889 C88.6220006,80.2056455 78.5350534,78.3852591 70.0164035,82.3407407 C61.4749711,86.0476128 51.8871367,86.5732041 42.9912281,83.8222222 C42.6799123,83.7333333 42.3982456,83.6 42.0869298,83.4962963 L45.9264912,79.6592593 L75.7238596,49.8814815 C77.9067788,47.6966833 80.8694437,46.4689974 83.9589035,46.4689974 C87.0483633,46.4689974 90.0110282,47.6966833 92.1939474,49.8814815 L138.505877,96.162963 C130.160356,99.6104486 120.877119,100.060693 112.236754,97.437037 Z" id="Shape" fill="#FFFFFF"></path>
            <path d="M97.782807,110.118519 L26.3580702,110.118519 C25.5105795,110.136793 24.6957919,109.79168 24.1195614,109.17037 C23.5726928,108.582004 23.2659666,107.810407 23.2597368,107.007407 C23.2587704,106.195778 23.5910071,105.419284 24.1788596,104.859259 L84.7520175,44.3259259 L145.325175,104.859259 C145.913028,105.419284 146.245265,106.195778 146.244298,107.007407 C146.238069,107.810407 145.931342,108.582004 145.384474,109.17037 C144.808243,109.79168 143.993456,110.136793 143.145965,110.118519 L108.041404,110.118519 C107.222666,110.118519 106.558947,110.7818 106.558947,111.6 C106.558947,112.4182 107.222666,113.081481 108.041404,113.081481 L143.057018,113.081481 C144.739457,113.113343 146.356217,112.429365 147.504386,111.2 C148.567905,110.06223 149.161093,108.564357 149.164737,107.007407 C149.166103,105.413446 148.524855,103.886143 147.385789,102.77037 L85.6563158,41.1851852 C85.0781024,40.6107799 84.1442661,40.6107799 83.5660526,41.1851852 L21.9551754,102.755556 C20.8161095,103.871328 20.1748615,105.398631 20.1762281,106.992593 C20.1798723,108.549542 20.7730603,110.047416 21.8365789,111.185185 C22.9847483,112.41455 24.6015074,113.098528 26.2839474,113.066667 L97.782807,113.066667 C98.6015449,113.066667 99.2652632,112.403385 99.2652632,111.585185 C99.2652632,110.766986 98.6015449,110.103704 97.782807,110.103704 L97.782807,110.118519 Z" id="Shape" fill="#662059"></path>
            <path d="M44.3847368,60.6518519 L84.6630702,20.4 L130.767456,66.4740741 C131.961562,67.7471787 132.29972,69.6007888 131.632007,71.2131025 C130.964294,72.8254162 129.414262,73.8980915 127.669123,73.9555556 L41.6866667,73.9555556 C39.9415272,73.8980915 38.3914959,72.8254162 37.7237826,71.2131025 C37.0560692,69.6007888 37.3942271,67.7471787 38.5883333,66.4740741 L39.6408772,65.4222222" id="Shape" fill="#2D9693"></path>
            <path d="M45.4372807,61.6888889 L84.6778947,22.4296296 L129.729737,67.4518519 C130.278225,67.9789154 130.588614,68.7062464 130.589561,69.4666667 C130.590513,70.2274861 130.29857,70.9595172 129.774211,71.5111111 C129.230812,72.0929156 128.465341,72.4161417 127.669123,72.4 L41.6866667,72.4 C40.8904489,72.4161417 40.1249771,72.0929156 39.5815789,71.5111111 C39.0572197,70.9595172 38.7652762,70.2274861 38.7662281,69.4666667 C38.7671751,68.7062464 39.0775645,67.9789154 39.6260526,67.4518519 L40.6785965,66.4 C41.1823007,65.812207 41.1484347,64.9360086 40.6008613,64.3887952 C40.0532879,63.8415818 39.176513,63.8077381 38.5883333,64.3111111 L37.5357895,65.362963 C36.4283205,66.4477833 35.8033677,67.9317375 35.8013158,69.4814815 C35.7989755,70.9888139 36.3715055,72.4403886 37.4023684,73.5407407 C38.505681,74.7230317 40.0541842,75.38931 41.6718421,75.3777778 L127.654298,75.3777778 C129.271956,75.38931 130.820459,74.7230317 131.923772,73.5407407 C132.954635,72.4403886 133.527165,70.9888139 133.524825,69.4814815 C133.522773,67.9317375 132.89782,66.4477833 131.790351,65.362963 L85.6563158,19.3333333 C85.0781024,18.758928 84.1442661,18.758928 83.5660526,19.3333333 L43.2877193,59.5851852 C42.8646617,59.9472443 42.6803838,60.515731 42.8106499,61.056917 C42.940916,61.598103 43.3637403,62.0206494 43.9052824,62.1508298 C44.4468245,62.2810103 45.0156852,62.0968536 45.3779825,61.6740741 L45.4372807,61.6888889 Z" id="Shape" fill="#662059"></path>
            <path d="M108.189649,22.637037 L119.960351,34.4 C121.154457,35.6731046 121.492615,37.5267147 120.824902,39.1390284 C120.157188,40.7513421 118.607157,41.8240174 116.862018,41.8814815 L52.5827193,41.8814815 C50.8375798,41.8240174 49.2875486,40.7513421 48.6198352,39.1390284 C47.9521218,37.5267147 48.2902797,35.6731046 49.484386,34.4 L80.7790351,3.17037037 C81.8245232,2.12456411 83.2431133,1.53695167 84.7223684,1.53695167 C86.2016235,1.53695167 87.6202137,2.12456411 88.6657018,3.17037037 L102.941754,17.437037" id="Shape" fill="#2D9693"></path>
            <polygon id="Shape" fill="#6E425A" points="76.0648246 177.066667 76.0648246 155.659259 93.3799123 155.659259 93.3799123 197.437037 76.0648246 197.437037"></polygon>
            <path d="M76.0648246,177.081481 L77.5472807,177.081481 L77.5472807,157.140741 L91.8974561,157.140741 L91.8974561,195.955556 L77.5472807,195.955556 L77.5472807,177.081481 L74.5823684,177.081481 L74.5823684,197.451852 C74.5823684,198.270051 75.2460866,198.933333 76.0648246,198.933333 L93.3650877,198.933333 C94.1838256,198.933333 94.8475439,198.270051 94.8475439,197.451852 L94.8475439,155.674074 C94.8475439,154.855874 94.1838256,154.192593 93.3650877,154.192593 L76.0648246,154.192593 C75.2460866,154.192593 74.5823684,154.855874 74.5823684,155.674074 L74.5823684,177.081481 L76.0648246,177.081481 Z" id="Shape" fill="#662059"></path>
            <path d="M39.5074561,102.311111 L49.6622807,102.311111 C50.4810186,102.311111 51.1447368,101.647829 51.1447368,100.82963 C51.1447368,100.01143 50.4810186,99.3481481 49.6622807,99.3481481 L39.5074561,99.3481481 C38.6887182,99.3481481 38.025,100.01143 38.025,100.82963 C38.025,101.647829 38.6887182,102.311111 39.5074561,102.311111" id="Shape" fill="#FFFFFF"></path>
            <path d="M96.1521053,33.4666667 L103.920175,33.4666667 C104.738913,33.4666667 105.402632,32.8033848 105.402632,31.9851852 C105.402632,31.1669856 104.738913,30.5037037 103.920175,30.5037037 L96.1521053,30.5037037 C95.3333673,30.5037037 94.6696491,31.1669856 94.6696491,31.9851852 C94.6696491,32.8033848 95.3333673,33.4666667 96.1521053,33.4666667" id="Shape" fill="#FFFFFF"></path>
            <path d="M86.6495614,33.4666667 L89.3624561,33.4666667 C90.1811941,33.4666667 90.8449123,32.8033848 90.8449123,31.9851852 C90.8449123,31.1669856 90.1811941,30.5037037 89.3624561,30.5037037 L86.6495614,30.5037037 C85.8308235,30.5037037 85.1671053,31.1669856 85.1671053,31.9851852 C85.1671053,32.8033848 85.8308235,33.4666667 86.6495614,33.4666667" id="Shape" fill="#FFFFFF"></path>
            <path d="M60.2914912,99.3481481 L57.3265789,99.3481481 C56.507841,99.3481481 55.8441228,100.01143 55.8441228,100.82963 C55.8441228,101.647829 56.507841,102.311111 57.3265789,102.311111 L60.2914912,102.311111 C61.1102291,102.311111 61.7739474,101.647829 61.7739474,100.82963 C61.7739474,100.01143 61.1102291,99.3481481 60.2914912,99.3481481" id="Shape" fill="#FFFFFF"></path>
            <path d="M148.304912,144.325926 L143.857544,144.325926 C143.038806,144.325926 142.375088,144.989208 142.375088,145.807407 C142.375088,146.625607 143.038806,147.288889 143.857544,147.288889 L148.304912,147.288889 C149.12365,147.288889 149.787368,146.625607 149.787368,145.807407 C149.787368,144.989208 149.12365,144.325926 148.304912,144.325926" id="Shape" fill="#FFFFFF"></path>
            <path d="M76.0648246,169.851852 L92.1939474,169.851852" id="Shape" fill="#FFFFFF"></path>
            <path d="M76.0648246,171.333333 L92.1939474,171.333333 C93.0126853,171.333333 93.6764035,170.670051 93.6764035,169.851852 C93.6764035,169.033652 93.0126853,168.37037 92.1939474,168.37037 L76.0648246,168.37037 C75.2460866,168.37037 74.5823684,169.033652 74.5823684,169.851852 C74.5823684,170.670051 75.2460866,171.333333 76.0648246,171.333333" id="Shape" fill="#662059"></path>
            <path d="M76.0648246,182.355556 L84.7223684,182.355556" id="Shape" fill="#FFFFFF"></path>
            <path d="M76.0648246,183.911111 L84.7223684,183.911111 C85.5411063,183.911111 86.2048246,183.247829 86.2048246,182.42963 C86.2048246,181.61143 85.5411063,180.948148 84.7223684,180.948148 L76.0648246,180.948148 C75.2460866,180.948148 74.5823684,181.61143 74.5823684,182.42963 C74.5823684,183.247829 75.2460866,183.911111 76.0648246,183.911111" id="Shape" fill="#662059"></path>
            <path d="M48.9803509,198.933333 L133.34693,198.933333 C134.165668,198.933333 134.829386,198.270051 134.829386,197.451852 C134.829386,196.633652 134.165668,195.97037 133.34693,195.97037 L48.9803509,195.97037 C48.161613,195.97037 47.4978947,196.633652 47.4978947,197.451852 C47.4978947,198.270051 48.161613,198.933333 48.9803509,198.933333" id="Shape" fill="#662059"></path>
            <path d="M143.353509,198.933333 L149.04614,198.933333 C149.864878,198.933333 150.528596,198.270051 150.528596,197.451852 C150.528596,196.633652 149.864878,195.97037 149.04614,195.97037 L143.353509,195.97037 C142.534771,195.97037 141.871053,196.633652 141.871053,197.451852 C141.871053,198.270051 142.534771,198.933333 143.353509,198.933333" id="Shape" fill="#662059"></path>
            <path d="M156.325,198.933333 L166.865263,198.933333 C167.684001,198.933333 168.347719,198.270051 168.347719,197.451852 C168.347719,196.633652 167.684001,195.97037 166.865263,195.97037 L156.325,195.97037 C155.506262,195.97037 154.842544,196.633652 154.842544,197.451852 C154.842544,198.270051 155.506262,198.933333 156.325,198.933333" id="Shape" fill="#662059"></path>
            <path d="M1.48245614,198.933333 L38.1435965,198.933333 C38.9623344,198.933333 39.6260526,198.270051 39.6260526,197.451852 C39.6260526,196.633652 38.9623344,195.97037 38.1435965,195.97037 L1.48245614,195.97037 C0.663718222,195.97037 0,196.633652 0,197.451852 C0,198.270051 0.663718222,198.933333 1.48245614,198.933333" id="Shape" fill="#662059"></path>
            <path d="M71.2023684,25.8666667 C74.3151009,24.9233334 77.1262464,23.1815691 79.3558772,20.8148148 C82.515444,17.6285018 87.3322271,16.7581432 91.4082456,18.637037 C95.4947728,20.4225282 100.086294,20.6853291 104.350088,19.3777778 L104.78,19.2148148 L102.941754,17.3777778 L88.6212281,3.17037037 C87.57574,2.12456411 86.1571498,1.53695167 84.6778947,1.53695167 C83.1986397,1.53695167 81.7800495,2.12456411 80.7345614,3.17037037 L58.4977193,25.3925926 C62.5471235,27.0290707 67.0421193,27.1968015 71.2023684,25.8666667 Z" id="Shape" fill="#FFFFFF"></path>
            <path d="M111.806842,28.3555556 L118.907807,35.4518519 C119.456295,35.9789154 119.766685,36.7062464 119.767632,37.4666667 C119.768583,38.2274861 119.47664,38.9595172 118.952281,39.5111111 C118.408883,40.0929156 117.643411,40.4161417 116.847193,40.4 L52.5827193,40.4 C51.7865016,40.4161417 51.0210298,40.0929156 50.4776316,39.5111111 C49.9532723,38.9595172 49.6613288,38.2274861 49.6622807,37.4666667 C49.6632278,36.7062464 49.9736171,35.9789154 50.5221053,35.4518519 L81.8167544,4.17777778 C83.4140662,2.58415427 86.0010215,2.58415427 87.5983333,4.17777778 L106.529298,23.0962963 C107.117478,23.5996693 107.994253,23.5658256 108.541826,23.0186122 C109.0894,22.4713988 109.123266,21.5952004 108.619561,21.0074074 L89.6885965,2.08888889 C86.9331464,-0.663394858 82.4671168,-0.663394858 79.7116667,2.08888889 L48.4170175,33.362963 C47.3095486,34.4477833 46.6845958,35.9317375 46.6825439,37.4814815 C46.6802036,38.9888139 47.2527336,40.4403886 48.2835965,41.5407407 C49.3869091,42.7230317 50.9354123,43.38931 52.5530702,43.3777778 L116.787895,43.3777778 C118.405553,43.38931 119.954056,42.7230317 121.057368,41.5407407 C122.088231,40.4403886 122.660761,38.9888139 122.658421,37.4814815 C122.656369,35.9317375 122.031416,34.4477833 120.923947,33.362963 L113.822982,26.2666667 C113.234803,25.7632936 112.358028,25.7971374 111.810455,26.3443508 C111.262881,26.8915642 111.229015,27.7677626 111.732719,28.3555556 L111.806842,28.3555556 Z" id="Shape" fill="#662059"></path>
        </g>
    </g>
</svg>