<?xml version="1.0" encoding="UTF-8"?>
<svg width="300px" height="200px" viewBox="0 0 300 200" version="1.1" xmlns="http://www.w3.org/2000/svg" xmlns:xlink="http://www.w3.org/1999/xlink">
    <!-- Generator: Sketch 51.3 (57544) - http://www.bohemiancoding.com/sketch -->
    <title>baby-jesus-in-a-manger</title>
    <desc>Created with Sketch.</desc>
    <defs></defs>
    <g id="baby-jesus-in-a-manger" stroke="none" stroke-width="1" fill="none" fill-rule="evenodd">
        <g id="BabyJesus" transform="translate(62.000000, 0.000000)" fill-rule="nonzero">
            <polyline id="Shape" fill="#AF8E77" points="55.0152985 171.3381 36.7869403 198.497009 64.5125373 198.497009 83.8240299 172.717058"></polyline>
            <polyline id="Shape" fill="#AF8E77" points="115.987836 166.859769 138.271343 198.497009 110.545746 198.497009 91.2342537 172.717058"></polyline>
            <polyline id="Shape" fill="#F4C95E" points="79.3726119 18.7465344 85.0128358 1.50299139 90.6530597 18.7465344 108.881418 18.7465344 94.1270149 29.3973442 99.7672388 46.6408872 85.0128358 34.5191887 70.2584328 46.6408872 75.8986567 29.3973442 61.1442537 18.7465344 71.1566418 18.7465344 79.3726119 18.7465344"></polyline>
            <path d="M80.6406716,19.1536553 L85.0128358,5.75806216 L89.385,19.1536553 C89.5691258,19.7175028 90.1103552,20.0888017 90.7058955,20.0598278 L104.879104,20.0598278 L93.3476866,28.3335765 C92.8851941,28.6695119 92.6931575,29.2635204 92.8721642,29.8044652 L97.0990299,42.7535386 L85.845,33.5604845 C85.3575871,33.16214 84.6548756,33.16214 84.1674627,33.5604845 L72.9134328,42.7535386 L77.1402985,29.8044652 C77.3193052,29.2635204 77.1272686,28.6695119 76.6647761,28.3335765 L65.199403,20.0466949 L71.1434328,20.0466949 C71.8729433,20.0466949 72.4643284,19.4587134 72.4643284,18.7334014 C72.4643284,18.0080895 71.8729433,17.420108 71.1434328,17.420108 L61.1310448,17.420108 C60.5575203,17.4180672 60.0482044,17.7842292 59.8704581,18.3263806 C59.6927117,18.8685319 59.8871549,19.4627758 60.3517164,19.7971691 L74.326791,29.8963957 L69.043209,46.2337662 C68.8598253,46.7901846 69.0690799,47.400092 69.5562436,47.7290912 C70.0434073,48.0580904 70.6907839,48.026697 71.1434328,47.6521232 L85.0524627,36.2133372 L98.9614925,47.6521232 C99.4141415,48.026697 100.061518,48.0580904 100.548682,47.7290912 C101.035845,47.400092 101.2451,46.7901846 101.061716,46.2337662 L95.7781343,29.8963957 L109.753209,19.7971691 C110.21777,19.4627758 110.412214,18.8685319 110.234467,18.3263806 C110.056721,17.7842292 109.547405,17.4180672 108.973881,17.420108 L91.6173134,17.420108 L86.3337313,1.08273749 C86.1555642,0.543795297 85.6494721,0.179519787 85.0788806,0.179519787 C84.5082891,0.179519787 84.002197,0.543795297 83.8240299,1.08273749 L78.183806,18.3262805 C77.9888846,19.0053589 78.3689864,19.7161171 79.0442242,19.9351898 C79.7194619,20.1542624 80.4480559,19.803207 80.6935075,19.1405224" id="Shape" fill="#662059"></path>
            <path d="M62.0688806,25.5231286 L23.4458955,63.923829 C22.9970859,64.4448917 23.0272611,65.2216179 23.515159,65.7067079 C24.003057,66.1917978 24.7842793,66.2217994 25.3083582,65.7755727 L63.9313433,27.3748723 C64.3801529,26.8538096 64.3499777,26.0770834 63.8620798,25.5919934 C63.3741819,25.1069035 62.5929595,25.0769019 62.0688806,25.5231286" id="Shape" fill="#662059"></path>
            <path d="M64.4729104,36.8174522 L51.0790299,51.7101999 C50.7350977,52.0550457 50.6106473,52.5604512 50.7554567,53.0242629 C50.9002661,53.4880745 51.2906942,53.8345717 51.7705764,53.9251615 C52.2504586,54.0157513 52.7414507,53.8356443 53.0471642,53.4568802 L66.4806716,38.5509996 C66.8246038,38.2061538 66.9490542,37.7007482 66.8042448,37.2369366 C66.6594354,36.773125 66.2690072,36.4266278 65.7891251,36.336038 C65.3092429,36.2454481 64.8182508,36.4255552 64.5125373,36.8043193" id="Shape" fill="#662059"></path>
            <path d="M65.2522388,49.5301328 L59.0968657,57.9352109 C58.6664545,58.5227135 58.7965592,59.3458876 59.3874627,59.7738217 C59.9783662,60.2017557 60.8063053,60.0723998 61.2367164,59.4848971 L67.3920896,51.0798191 C67.6705168,50.6997715 67.7238676,50.2009087 67.5320452,49.7711476 C67.3402227,49.3413864 66.9323694,49.0460178 66.4621197,48.9963044 C65.99187,48.9465909 65.530666,49.1500851 65.2522388,49.5301328" id="Shape" fill="#662059"></path>
            <path d="M105.935821,28.2679119 L144.558806,66.6686123 C144.881619,67.0433949 145.388485,67.2066449 145.871009,67.0912434 C146.353533,66.975842 146.730277,66.601266 146.846346,66.1215192 C146.962416,65.6417723 146.798221,65.1378242 146.421269,64.8168685 L107.811493,26.4555669 C107.287414,26.0093403 106.506191,26.0393418 106.018293,26.5244318 C105.530395,27.0095217 105.50022,27.786248 105.94903,28.3073107" id="Shape" fill="#662059"></path>
            <path d="M103.426119,39.457172 L116.859627,54.3630527 C117.16534,54.7418168 117.656332,54.9219238 118.136215,54.831334 C118.616097,54.7407442 119.006525,54.394247 119.151334,53.9304353 C119.296144,53.4666237 119.171693,52.9612182 118.827761,52.6163724 L105.394254,37.7104918 C105.08854,37.3317277 104.597548,37.1516206 104.117666,37.2422104 C103.637784,37.3328002 103.247356,37.6792975 103.102546,38.1431091 C102.957737,38.6069207 103.082187,39.1123262 103.426119,39.457172" id="Shape" fill="#662059"></path>
            <path d="M102.475075,51.9728586 L108.630448,60.3779367 C109.060859,60.9654393 109.888798,61.0947952 110.479701,60.6668611 C111.070605,60.2389271 111.20071,59.4157531 110.770299,58.8282504 L104.614925,50.4231723 C104.184514,49.8356697 103.356575,49.7063137 102.765672,50.1342478 C102.174768,50.5621818 102.044663,51.3853559 102.475075,51.9728586" id="Shape" fill="#662059"></path>
            <path d="M73.6135075,188.542244 L84.8807463,173.544433 C85.206853,173.172412 85.2956764,172.650032 85.1106909,172.192104 C84.9257055,171.734175 84.498139,171.418003 84.0038131,171.373601 C83.5094872,171.329199 83.0318502,171.564063 82.7673134,171.981614 L71.5000746,187.031957 C71.1739679,187.403978 71.0851445,187.926358 71.27013,188.384286 C71.4551154,188.842214 71.8826819,189.158387 72.3770078,189.202789 C72.8713337,189.247191 73.3489707,189.012327 73.6135075,188.594776" id="Shape" fill="#662059"></path>
            <path d="M53.9189552,170.615789 L35.690597,197.774697 C35.4167502,198.177507 35.3891401,198.697781 35.6188319,199.127006 C35.8485238,199.556231 36.2979297,199.824168 36.7869403,199.823435 L64.5257463,199.823435 C64.9415078,199.823435 65.3330058,199.628813 65.5824627,199.298118 L70.4037313,192.849847 C70.7298381,192.477825 70.8186615,191.955445 70.633676,191.497517 C70.4486905,191.039589 70.0211241,190.723417 69.5267982,190.679015 C69.0324723,190.634613 68.5548353,190.869477 68.2902985,191.287028 L63.8652985,197.196848 L39.2570149,197.196848 L56.1116418,172.086677 C56.4684098,171.486668 56.2915808,170.714066 55.7088104,170.326625 C55.12604,169.939183 54.3403556,170.071881 53.9189552,170.628922 L53.9189552,170.615789 Z" id="Shape" fill="#662059"></path>
            <path d="M124.53403,180.912009 L136.29,197.183715 L110.928806,197.183715 L92.026791,171.049176 C91.5888232,170.495488 90.7894964,170.383944 90.2151454,170.796366 C89.6407944,171.208787 89.4959851,171.998283 89.8869403,172.585729 L109.198433,199.258719 C109.445012,199.603059 109.843218,199.808347 110.268358,199.810302 L138.892164,199.810302 C139.385497,199.808041 139.836448,199.532633 140.06151,199.09615 C140.286572,198.659667 140.248231,198.134863 139.96209,197.735298 L126.753134,179.34919 C126.315166,178.795502 125.51584,178.683958 124.941489,179.09638 C124.367138,179.508802 124.222328,180.298297 124.613284,180.885743 L124.53403,180.912009 Z" id="Shape" fill="#662059"></path>
            <path d="M10.1312687,199.810302 L83.8108209,199.810302 C84.5403313,199.810302 85.1317164,199.222321 85.1317164,198.497009 C85.1317164,197.771697 84.5403313,197.183715 83.8108209,197.183715 L10.1312687,197.183715 C9.4017582,197.183715 8.81037313,197.771697 8.81037313,198.497009 C8.81037313,199.222321 9.4017582,199.810302 10.1312687,199.810302" id="Shape" fill="#662059"></path>
            <path d="M95.4214925,199.810302 L129.091119,199.810302 C129.82063,199.810302 130.412015,199.222321 130.412015,198.497009 C130.412015,197.771697 129.82063,197.183715 129.091119,197.183715 L95.4214925,197.183715 C94.6919821,197.183715 94.100597,197.771697 94.100597,198.497009 C94.100597,199.222321 94.6919821,199.810302 95.4214925,199.810302" id="Shape" fill="#662059"></path>
            <path d="M150.370746,197.183715 L145.681567,197.183715 C144.952057,197.183715 144.360672,197.771697 144.360672,198.497009 C144.360672,199.222321 144.952057,199.810302 145.681567,199.810302 L150.370746,199.810302 C151.100257,199.810302 151.691642,199.222321 151.691642,198.497009 C151.691642,197.771697 151.100257,197.183715 150.370746,197.183715" id="Shape" fill="#662059"></path>
            <path d="M174.807313,197.183715 L156.222313,197.183715 C155.492803,197.183715 154.901418,197.771697 154.901418,198.497009 C154.901418,199.222321 155.492803,199.810302 156.222313,199.810302 L174.807313,199.810302 C175.536824,199.810302 176.128209,199.222321 176.128209,198.497009 C176.128209,197.771697 175.536824,197.183715 174.807313,197.183715" id="Shape" fill="#662059"></path>
            <path d="M1.32089552,199.810302 L4.27970149,199.810302 C5.00921195,199.810302 5.60059701,199.222321 5.60059701,198.497009 C5.60059701,197.771697 5.00921195,197.183715 4.27970149,197.183715 L1.32089552,197.183715 C0.591385069,197.183715 0,197.771697 0,198.497009 C0,199.222321 0.591385069,199.810302 1.32089552,199.810302" id="Shape" fill="#662059"></path>
            <path d="M54.1170896,198.812199 L60.5498507,188.056326 C60.8288101,187.442635 60.595661,186.718603 60.010084,186.380111 C59.424507,186.041619 58.6763046,186.19838 58.2779104,186.743032 L51.8451493,197.498906 C51.5485972,197.904327 51.5100472,198.442236 51.7457864,198.885367 C51.9815256,199.328498 52.4504289,199.599547 52.9543868,199.583997 C53.4583447,199.568448 53.909441,199.269011 54.1170896,198.812199" id="Shape" fill="#662059"></path>
            <path d="M49.4279104,194.557128 L62.4519403,171.942215 C62.6878956,171.534016 62.6868949,171.031668 62.4493153,170.624401 C62.2117357,170.217134 61.7736711,169.966822 61.3001362,169.967754 C60.8266013,169.968687 60.3895373,170.220722 60.1535821,170.628922 L47.1163433,193.243835 C46.7515882,193.874856 46.9704007,194.680391 47.6050747,195.043047 C48.2397487,195.405703 49.0499462,195.18815 49.4147015,194.557128" id="Shape" fill="#662059"></path>
            <path d="M119.765597,197.748431 L105.552761,177.208522 C105.136845,176.620291 104.322487,176.473968 103.725801,176.880255 C103.129116,177.286542 102.971983,178.094361 103.373284,178.692543 L117.586119,199.232453 C118.002036,199.820684 118.816394,199.967007 119.413079,199.56072 C120.009764,199.154433 120.166897,198.346614 119.765597,197.748431" id="Shape" fill="#662059"></path>
            <path d="M107.877537,169.197432 L121.086493,187.320881 C121.52446,187.874569 122.323787,187.986113 122.898138,187.573691 C123.472489,187.16127 123.617298,186.371774 123.226343,185.784328 L110.017388,167.660878 C109.57942,167.10719 108.780093,166.995647 108.205742,167.408068 C107.631391,167.82049 107.486582,168.609986 107.877537,169.197432" id="Shape" fill="#662059"></path>
            <path d="M18.294403,112.922808 C18.294403,112.922808 9.64253731,124.742449 10.1576866,138.348169 C10.7388806,153.700569 23.2345522,175.908361 61.3027612,180.24223 C99.3709701,184.576098 110.268358,173.912155 131.904627,173.912155 C153.540896,173.912155 161.122836,151.783161 163.038134,141.355611 C164.187313,135.1306 153.99,125.990077 153.99,125.990077 C147.253433,99.7242084 101.312687,93.8143879 101.312687,93.8143879 C92.4494776,84.2142128 73.5738806,70.0831753 46.7729104,71.2914052 C34.3168657,71.8561214 18.294403,78.0811324 18.294403,112.922808" id="Shape" fill="#C4C4C4"></path>
            <path d="M52.0036567,122.628046 C52.6112687,123.691814 53.3245522,124.900044 54.288806,126.370932 C58.5552985,132.9374 61.6329851,131.716037 63.9181343,133.69911 C66.2032836,135.682183 67.8808209,136.916679 69.1356716,138.269371 C70.4785201,139.709219 72.5354597,140.25117 74.4192537,139.661462 C103.241194,130.993725 137.465597,138.440099 138.31097,138.440099 C139.367687,138.440099 138.548731,127.277105 138.548731,127.277105 C139.869627,119.397344 128.774104,112.568218 124.507612,109.744637 L118.986269,109.744637 C112.976194,103.926747 100.731493,103.283234 100.731493,103.283234 L100.374851,103.204436 L92.1720896,100.577849 L84.5637313,103.204436 L79.4518657,102.468992 C79.4518657,102.468992 77.1799254,98.5291113 68.2770896,102.140668 C59.3742537,105.752225 59.4138806,114.485627 45.5180597,112.147964 L52.0564925,122.654312" id="Shape" fill="#E0E0E0"></path>
            <path d="M18.3472388,112.922808 C18.3472388,112.922808 29.9711194,137.10054 56.3097761,140.370641 C82.6484328,143.640741 91.9739552,132.661608 113.847985,135.117467 C135.722015,137.573326 144.466343,144.310521 153.567313,125.924413 C153.567313,125.924413 163.077761,130.757333 163.077761,141.355611 C163.077761,151.953889 153.567313,173.912155 131.944254,173.912155 C110.321194,173.912155 99.410597,184.576098 61.3423881,180.24223 C23.2741791,175.908361 10.7785075,153.700569 10.1973134,138.348169 C9.69537313,124.79498 18.3472388,112.922808 18.3472388,112.922808 Z" id="Shape" fill="#F4C95E"></path>
            <path d="M50.7884328,81.968481 C45.8442941,82.0944534 41.2878577,84.6599327 38.636194,88.8107398 C36.4038806,92.4879615 33.933806,98.3189844 39.6400746,105.292573 L45.7558209,111.85904 C59.6516418,114.209835 60.2856716,108.720268 63.9577612,105.292573 L60.9725373,103.112505 C57.5646269,108.365679 53.9585821,105.187509 53.1660448,103.887349 C52.0961194,102.127535 54.4869403,100.354589 54.4869403,100.354589 C52.9679104,97.7280023 49.3222388,99.0412958 49.8373881,95.6923975 C50.3525373,92.3434992 48.7674627,92.0414417 48.7674627,92.0414417 C50.8016418,90.6624836 50.8016418,87.0903254 50.8016418,87.0903254 C52.8358209,84.7263972 50.8016418,81.968481 50.8016418,81.968481" id="Shape" fill="#AF8E77"></path>
            <path d="M50.6299254,87.2741865 C52.6641045,84.9102583 50.6299254,82.152342 50.6299254,82.152342 L50.1676119,82.152342 C50.1676119,82.152342 62.0556716,80.6683204 64.6974627,92.2515687 C65.3296581,91.4303397 66.5106657,91.2718213 67.3392537,91.8969794 C67.7618597,92.1797579 68.0426541,92.6287329 68.1108048,93.1306477 C68.1789556,93.6325625 68.0279556,94.1394942 67.6958955,94.5235663 C67.6958955,94.5235663 71.3415672,94.996352 71.3415672,100.709178 L68.3695522,102.022472 C66.4803079,102.800675 64.7382204,103.893206 63.2180597,105.253174 L60.8140299,103.230702 C57.4061194,108.483876 53.8000746,105.305706 53.0075373,104.005545 C51.9376119,102.245732 54.3284328,100.472786 54.3284328,100.472786 C52.809403,97.8461987 49.1637313,99.1594922 49.6788806,95.8105939 C50.1940299,92.4616956 48.6089552,92.1596381 48.6089552,92.1596381" id="Shape" fill="#F2DDD7"></path>
            <path d="M11.9937313,131.335182 C12.8304955,126.95298 14.3032702,122.71492 16.3658955,118.75383 C17.1848507,117.164745 17.9377612,115.890851 18.4925373,115.010944 C18.7699254,114.577557 18.9944776,114.236101 19.1397761,114.012841 L19.3114925,113.763315 C19.6136457,113.352317 19.6496769,112.804726 19.4039552,112.358091 C18.6565058,111.103791 17.7704095,109.93647 16.7621642,108.877864 C15.892543,107.928106 14.8919205,107.105685 13.7901493,106.435138 C12.5761074,105.68117 11.1793496,105.268185 9.74820896,105.240041 C9.27772863,105.240019 8.80851041,105.288432 8.3480597,105.384503 C7.61854925,105.533192 7.14839812,106.24171 7.29794776,106.967022 C7.4474974,107.692334 8.16011641,108.159779 8.88962687,108.01109 C9.1718544,107.951015 9.45958787,107.920207 9.74820896,107.919159 C10.6859023,107.952535 11.5977422,108.233579 12.39,108.733401 C13.6716399,109.551705 14.7946902,110.592667 15.7054478,111.806508 C16.1149254,112.331825 16.4451493,112.804611 16.6564925,113.119802 L16.9074627,113.51379 L16.9074627,113.618853 L18.0698507,112.988472 L16.9999254,112.213629 C13.1406078,117.864497 10.4757801,124.235786 9.16701493,130.941194 C9.08443053,131.410388 9.2598807,131.887747 9.62727504,132.193452 C9.99466938,132.499158 10.4981919,132.586768 10.9481706,132.423279 C11.3981493,132.25979 11.7262217,131.870041 11.808806,131.400846 L11.9937313,131.335182 Z" id="Shape" fill="#662059"></path>
            <path d="M28.623806,167.555815 C16.4979851,158.927477 11.8616418,147.317963 11.4521642,138.295637 C11.4332878,137.826442 11.164084,137.402901 10.7459593,137.184557 C10.3278346,136.966213 9.824312,136.986238 9.4250637,137.237089 C9.02581541,137.48794 8.79149668,137.931506 8.81037313,138.4007 C9.18022388,148.19787 14.2128358,160.582227 27.0255224,169.696483 C27.6200734,170.117164 28.4450556,169.978989 28.8681716,169.387859 C29.2912877,168.79673 29.1523122,167.976496 28.5577612,167.555815 L28.623806,167.555815 Z" id="Shape" fill="#662059"></path>
            <path d="M161.017164,146.818911 C159.53802,153.187025 156.43053,159.067679 151.995448,163.891726 C146.858494,169.531897 139.544237,172.72362 131.891418,172.664526 C122.711194,172.664526 115.446269,174.542536 107.46806,176.381147 C97.9690674,178.780126 88.2089758,180.006349 78.4083582,180.032103 C72.7311202,180.012516 67.0596429,179.670503 61.4216418,179.007734 C49.8109701,177.69444 40.6571642,174.686998 33.5507463,170.760251 C32.9124246,170.397595 32.0992702,170.618088 31.7345149,171.252736 C31.3697597,171.887384 31.5915291,172.695859 32.2298507,173.058515 C39.6797015,177.169123 49.1769403,180.268496 61.078209,181.621188 C66.8168875,182.298518 72.5898023,182.649301 78.3687313,182.671823 C88.3604509,182.644042 98.3108886,181.395818 107.996418,178.955202 C116.027463,177.103458 123.028209,175.304246 131.772537,175.304246 C140.202262,175.384477 148.264016,171.876265 153.923955,165.664672 C158.671843,160.517627 162.00236,154.23873 163.59291,147.436159 C163.75705,146.72898 163.313511,146.023403 162.602239,145.860207 C161.890966,145.697012 161.181304,146.137998 161.017164,146.845177 L161.017164,146.818911 Z" id="Shape" fill="#662059"></path>
            <path d="M25.2158955,124.952576 C33.1317158,134.062821 44.1156838,139.99243 56.1116418,141.631402 C59.3490803,142.04332 62.609229,142.253857 65.8730597,142.261783 C73.2605653,142.147876 80.6029226,141.093025 87.7206716,139.123012 C94.100597,137.573326 100.057836,136.063038 107.349179,136.063038 C109.454755,136.06546 111.55845,136.188237 113.649851,136.43076 C123.807537,137.586458 131.125299,139.700861 137.30709,139.713994 C140.726998,139.847869 144.094991,138.850215 146.883582,136.87728 C149.749925,134.789143 152.246418,131.466511 154.716493,126.44973 L153.527687,125.871881 L152.920075,127.040712 L153.012537,126.856851 L152.920075,127.040712 L153.012537,126.856851 L152.920075,127.040712 C154.598478,127.991996 156.114356,129.202152 157.411119,130.626003 C160.163996,133.507447 161.700482,137.328905 161.70403,141.303079 C161.70403,142.028391 162.295415,142.616372 163.024925,142.616372 C163.754436,142.616372 164.345821,142.028391 164.345821,141.303079 C164.336528,136.610981 162.505195,132.103692 159.233955,128.721728 C157.755491,127.120731 156.029906,125.764167 154.12209,124.70305 C153.807185,124.54405 153.441351,124.517058 153.106291,124.628102 C152.77123,124.739146 152.494852,124.978976 152.338881,125.294032 C149.974478,130.100686 147.689328,133.042463 145.311716,134.762878 C142.975692,136.407243 140.152727,137.225676 137.293881,137.087407 C131.73291,137.087407 124.296269,135.012403 113.940448,133.817306 C111.748116,133.56461 109.542985,133.437448 107.33597,133.436451 C99.6615672,133.436451 93.4269403,135.025536 87.0734328,136.575223 C80.1587023,138.494186 73.0247924,139.522583 65.8466418,139.635196 C62.6933294,139.629149 59.543472,139.427385 56.4154478,139.031081 C45.0603553,137.488427 34.6593198,131.885985 27.1576119,123.27156 C26.8414319,122.92201 26.3617073,122.766722 25.8991459,122.864191 C25.4365844,122.96166 25.0614601,123.297078 24.9150787,123.744097 C24.7686973,124.191116 24.8732976,124.681823 25.1894776,125.031373 L25.2158955,124.952576 Z" id="Shape" fill="#662059"></path>
            <path d="M68.0789552,72.2895082 C62.1788324,70.7064923 56.0938613,69.9071922 49.9826866,69.9124471 C48.9083582,69.9124471 47.8164179,69.938713 46.7068657,69.9912447 C43.2587836,70.1039863 39.8495027,70.7509018 36.6020149,71.9086531 C30.6897553,74.1077038 25.7993381,78.3949183 22.8647015,83.9515541 C19.2454478,90.4392237 16.9735075,99.7110754 16.9735075,112.922808 C16.9746738,113.118479 17.0198033,113.311419 17.105597,113.487524 C18.4777697,116.145547 20.0915811,118.673221 21.9268657,121.038961 C22.2123715,121.414317 22.6775988,121.609721 23.147301,121.551566 C23.6170031,121.493412 24.0198211,121.190534 24.2040174,120.757024 C24.3882137,120.323513 24.3258044,119.825232 24.0402985,119.449876 C22.7945299,117.813407 21.643488,116.107743 20.5927612,114.341164 C20.2229104,113.710784 19.9323134,113.198599 19.760597,112.857143 L19.5624627,112.463155 L19.5624627,112.371224 L18.3736567,112.93594 L19.6945522,112.93594 C19.5418651,105.931938 20.4320975,98.944003 22.3363433,92.1990369 C24.8196269,84.2010798 28.7162687,79.4863563 33.0884328,76.6365096 C37.2503491,74.0833587 42.0284444,72.6949323 46.918209,72.6178316 C47.9837313,72.5652999 49.0360448,72.5434116 50.0751493,72.5521669 C55.9543014,72.5463899 61.8083307,73.3147805 67.4845522,74.8372975 C67.9460661,74.9779656 68.4480036,74.8571291 68.7936777,74.5221383 C69.1393518,74.1871476 69.2737057,73.691358 69.144092,73.2290475 C69.0144782,72.766737 68.6415411,72.4115395 68.1714179,72.3026412 L68.0789552,72.2895082 Z" id="Shape" fill="#662059"></path>
            <path d="M102.290149,92.9213483 C94.2229592,84.2707882 84.1715103,77.6879883 72.9926866,73.734131 C72.5467311,73.5792968 72.0515701,73.6727693 71.6937258,73.9793382 C71.3358816,74.2859071 71.1697191,74.7589974 71.2578303,75.2204005 C71.3459415,75.6818036 71.6749401,76.0614215 72.1208955,76.2162557 C82.8752648,80.0012869 92.5534243,86.3081423 100.335224,94.6023639 C100.644137,94.9834122 101.140536,95.1620626 101.623191,95.0658937 C102.105845,94.9697247 102.494673,94.6146928 102.632052,94.1447208 C102.76943,93.6747487 102.632566,93.1678139 102.27694,92.8294178 L102.290149,92.9213483 Z" id="Shape" fill="#662059"></path>
            <path d="M50.431791,80.8390486 C48.4176046,80.9537118 46.4361629,81.3974141 44.5670149,82.152342 C41.4938932,83.3616662 38.9078141,85.5451052 37.2096269,88.36422 C35.5660186,90.8796831 34.6519166,93.7970629 34.5678358,96.795564 C34.663243,100.328595 36.0105244,103.714623 38.3720149,106.35634 C38.84269,106.876811 39.6412028,106.938826 40.1874539,106.497332 C40.733705,106.055838 40.8357268,105.265989 40.419403,104.701591 C38.4468546,102.534457 37.3097433,99.7429337 37.2096269,96.8218299 C37.3134326,94.3003803 38.1131527,91.855962 39.521194,89.7563111 C40.9231259,87.4215152 43.0648821,85.6154261 45.6105224,84.6213337 C47.2089487,83.9930989 48.9000514,83.6293196 50.6167164,83.5444331 C51.3462268,83.5045409 51.9050856,82.8842204 51.8649625,82.1589085 C51.8248395,81.4335966 51.2009283,80.8779541 50.4714179,80.9178462 L50.431791,80.8390486 Z" id="Shape" fill="#662059"></path>
            <path d="M48.1862687,93.5123304 L48.3183582,92.9607471 L48.0409701,93.4729316 L48.1862687,93.4729316 L48.3183582,92.9213483 L48.0409701,93.4335328 C48.0997005,93.4829382 48.145102,93.5461344 48.1730597,93.6173938 C48.3036225,93.9380345 48.362225,94.2831439 48.3447761,94.6286298 C48.3409394,94.9719644 48.3100237,95.314471 48.2523134,95.6529987 C48.2091162,95.9178894 48.1870326,96.1857589 48.1862687,96.4541077 C48.1775322,96.9031863 48.2583406,97.3495385 48.4240299,97.7674011 C48.6883651,98.3962973 49.1522186,98.922047 49.7449254,99.2645557 C50.5110448,99.6979425 51.2243284,99.8949365 51.7923134,100.157595 C52.3029261,100.357165 52.7341893,100.716788 53.0207463,101.181964 L54.1699254,100.525317 L53.3773881,99.4746826 C53.0044349,99.7615981 52.6634606,100.087402 52.3602985,100.44652 C52.0734178,100.778363 51.8293634,101.144543 51.633806,101.536553 C51.3891465,102.022081 51.2581883,102.556368 51.2507463,103.099373 C51.2502609,103.678411 51.4102165,104.246394 51.7130597,104.740989 C52.1557857,105.431633 52.7301595,106.02947 53.403806,106.500803 C54.2945966,107.159522 55.3714452,107.522532 56.4814925,107.538304 C57.4619879,107.529647 58.4179671,107.232623 59.2289552,106.684664 C60.2505846,105.973165 61.1101811,105.055871 61.7518657,103.992412 C62.1458013,103.379523 61.9654289,102.565169 61.3489925,102.173501 C60.7325562,101.781832 59.9134879,101.961167 59.5195522,102.574055 C59.0784337,103.326529 58.4846536,103.979506 57.7759701,104.491464 C57.389313,104.762665 56.9282578,104.909354 56.4550746,104.911717 C55.8950884,104.890468 55.355358,104.697834 54.9096269,104.360134 C54.5302049,104.093348 54.2033532,103.759474 53.9453731,103.375164 C53.8877075,103.294394 53.8555207,103.198389 53.8529104,103.099373 C53.8608613,102.952282 53.9014591,102.808765 53.971791,102.679119 C54.1273527,102.387229 54.3279152,102.121351 54.566194,101.891143 L54.8435821,101.641617 L54.9228358,101.641617 L54.6850746,101.339559 L54.9228358,101.65475 L54.6850746,101.352692 L54.9228358,101.667883 C55.4593776,101.270676 55.6125588,100.537382 55.2794776,99.9606012 C54.8435147,99.2217303 54.2193292,98.6101968 53.4698507,98.187655 C52.505597,97.6360718 51.5941791,97.399679 51.1582836,97.1632862 C51.0319191,97.1098466 50.9191132,97.0290937 50.8280597,96.9268933 C50.7676588,96.81905 50.7444605,96.6945005 50.7620149,96.5723041 C50.7515705,96.44118 50.7515705,96.3094401 50.7620149,96.1783161 C50.8391313,95.7049657 50.8788795,95.2263419 50.8808955,94.7468262 C50.939178,93.7097997 50.6151329,92.6872279 49.9694776,91.8707136 C49.6282352,91.4630078 49.1657889,91.1733433 48.6485821,91.0433387 C47.9373094,90.8801435 47.2276473,91.3211296 47.0635075,92.0283088 C46.8993676,92.7354879 47.3429064,93.4410657 48.0541791,93.6042609 L48.1862687,93.5123304 Z" id="Shape" fill="#662059"></path>
            <path d="M49.4411194,82.9271852 L49.7713433,82.6907924 L49.4411194,82.9271852 L49.7713433,82.6907924 L49.4411194,82.9271852 C49.8367242,83.5170845 50.064894,84.2021914 50.1015672,84.9102583 C50.107777,85.4727274 49.9002107,86.0167985 49.5203731,86.4336787 C49.0461913,86.9849158 49.1112437,87.8139697 49.6656716,88.2854224 C50.2200996,88.7568752 51.0539525,88.6921972 51.5281343,88.1409602 C52.3137574,87.2461546 52.7456244,86.0980258 52.7433582,84.9102583 C52.7322895,84.052307 52.5387201,83.2063983 52.1753731,82.4281337 C52.0115752,82.0639391 51.8125017,81.716466 51.5809701,81.3906318 C51.3156286,80.9792166 50.8424543,80.7483285 50.3527988,80.7913388 C49.8631433,80.834349 49.4380126,81.1441422 49.2493295,81.595438 C49.0606465,82.0467338 49.1396259,82.5648722 49.4543284,82.9403181 L49.4411194,82.9271852 Z" id="Shape" fill="#662059"></path>
            <path d="M80.548209,101.759813 C80.1847388,101.224639 79.7065742,100.776137 79.1480597,100.44652 C77.837339,99.654534 76.3218891,99.2618715 74.7891045,99.3170874 C70.286845,99.5328671 65.9803564,101.212328 62.531194,104.097476 C60.4177612,105.883555 58.8458955,107.709033 57.0098507,109.022326 C54.9092911,110.554339 52.3479657,111.332205 49.7449254,111.228659 C48.3804735,111.21517 47.0195713,111.087771 45.6765672,110.847804 C44.9470567,110.728127 44.2580931,111.219092 44.1377239,111.944404 C44.0173547,112.669716 44.5111612,113.354714 45.2406716,113.474391 C46.7279944,113.735112 48.2346975,113.871297 49.7449254,113.881512 C51.9606495,113.923975 54.1580807,113.475354 56.1776866,112.568218 C58.5061521,111.338437 60.6058433,109.721652 62.3858955,107.78783 C64.1755157,105.909461 66.3273366,104.408729 68.7129851,103.375164 C70.6292474,102.522618 72.6914569,102.041233 74.7891045,101.956807 C75.8106922,101.907295 76.824774,102.153653 77.7082836,102.665986 C77.8882002,102.78013 78.0524789,102.916977 78.1970149,103.073107 L78.2762687,103.165037 L78.7385821,102.849847 L78.2630597,103.125638 L78.7253731,102.810448 L78.2498507,103.08624 C78.4747502,103.513688 78.9172482,103.78414 79.402398,103.790669 C79.8875479,103.797198 80.3372462,103.538753 80.5736994,103.117513 C80.8101527,102.696273 80.7952948,102.180053 80.535,101.772946 L80.548209,101.759813 Z" id="Shape" fill="#662059"></path>
            <path d="M54.4737313,103.611557 C54.7993611,103.963847 55.2013855,104.237806 55.6493284,104.412666 C56.0695512,104.578974 56.5179356,104.663677 56.9702239,104.662192 C57.5496659,104.673793 58.1180848,104.503789 58.5949254,104.176273 C58.8717735,103.977015 59.09794,103.716172 59.2553731,103.414563 C59.4216542,103.0938 59.507741,102.73792 59.5063433,102.377061 L59.5063433,102.10127 C59.4297446,101.375958 58.7762641,100.849714 58.0467537,100.925872 C57.3172433,101.00203 56.7879537,101.651749 56.8645522,102.377061 L57.2476119,102.377061 L56.9173881,102.206333 L56.9173881,102.377061 L57.3004478,102.377061 L56.9702239,102.206333 L57.3136567,102.377061 L57.1419403,102.022472 L56.9702239,102.206333 L57.3136567,102.377061 L57.1419403,102.022472 L57.0230597,102.022472 L56.6928358,102.022472 L56.4947015,101.904275 C55.9956029,101.417478 55.2014205,101.401678 54.6831352,101.868235 C54.1648498,102.334793 54.1020019,103.122087 54.5397761,103.664089 L54.4737313,103.611557 Z" id="Shape" fill="#662059"></path>
            <path d="M50.8544776,123.27156 C51.4752985,124.348461 52.1753731,125.582956 53.1924627,127.080111 C54.6150164,129.561382 56.7055237,131.598925 59.2289552,132.963666 C59.9831229,133.317014 60.7546111,133.632599 61.5405224,133.909237 C62.1075419,134.104622 62.6418525,134.383521 63.125597,134.736612 C63.7019103,135.182679 64.5328063,135.079782 64.9814552,134.506785 C65.4301041,133.933789 65.3266117,133.107675 64.7502985,132.661608 C64.0659269,132.154127 63.3090418,131.751303 62.5047761,131.466511 C61.3931997,131.107505 60.3323005,130.608795 59.3478358,129.982489 C57.7488072,128.815794 56.4013445,127.342116 55.3851493,125.648621 C54.4341045,124.203998 53.7208209,123.022034 53.1396269,121.984532 C52.7748716,121.353511 51.9646741,121.135958 51.3300001,121.498614 C50.6953261,121.86127 50.4765136,122.666804 50.8412687,123.297826 L50.8544776,123.27156 Z" id="Shape" fill="#662059"></path>
            <path d="M125.749254,101.615351 C137.921319,105.485544 147.686564,114.610694 152.325672,126.44973 C152.549498,126.978887 153.093056,127.302192 153.667853,127.248051 C154.24265,127.19391 154.715473,126.77487 154.835373,126.213337 C155.175532,124.86594 155.709387,123.574369 156.420448,122.37852 C156.934484,121.494681 157.616378,120.718584 158.428209,120.09339 C159.239514,119.476383 160.233497,119.143884 161.254925,119.147818 C161.984436,119.147818 162.575821,118.559837 162.575821,117.834525 C162.575821,117.109213 161.984436,116.521232 161.254925,116.521232 C159.622858,116.517773 158.036811,117.058828 156.750672,118.057785 C155.192654,119.339372 153.980517,120.986876 153.223881,122.851306 C152.822712,123.75786 152.504413,124.69847 152.272836,125.661754 L153.593731,125.937546 L154.808955,125.412228 C149.876937,112.903012 139.552054,103.259554 126.68709,99.1463593 C126.241134,98.9915251 125.745973,99.0849975 125.388129,99.3915664 C125.030285,99.6981353 124.864122,100.171226 124.952233,100.632629 C125.040344,101.094032 125.369343,101.47365 125.815299,101.628484 L125.749254,101.615351 Z" id="Shape" fill="#662059"></path>
            <path d="M50.8016418,118.386108 C49.4339941,115.657991 47.8389419,113.048551 46.033209,110.585145 C44.3669358,108.151485 42.2620966,106.045401 39.825,104.373267 C37.9680591,103.260056 36.201484,102.004224 34.5414179,100.617248 C33.9427717,100.049102 33.4898192,99.3465626 33.2205224,98.5685101 C32.8992983,97.6574622 32.7427801,96.6970805 32.758209,95.7317963 C32.833518,93.1361001 33.5795399,90.6033693 34.9244776,88.377353 C36.3410944,85.8913351 38.3970783,83.8245215 40.8817164,82.3887349 C44.8711386,80.2866508 49.3395436,79.2461027 53.8529104,79.3681599 C56.9582549,79.3898535 60.0544118,79.7064825 63.0991791,80.3137312 C65.7746907,80.838992 68.4202168,81.5053348 71.0245522,82.3099373 C80.838806,85.3042463 90.6134328,90.0452357 98.2878358,93.8800525 C103.756343,96.585437 110.915597,97.5704071 118.431493,99.4352838 C118.896585,99.5689001 119.397931,99.4388463 119.73808,99.096343 C120.078229,98.7538398 120.202673,98.2537713 120.062402,97.7930853 C119.922131,97.3323993 119.539622,96.9849182 119.065522,96.8874945 C111.404328,95.0094849 104.311119,93.9719831 99.4634328,91.5292573 C91.7626119,87.6944404 81.8691045,82.8746534 71.7246269,79.8015468 C69.0290857,78.9701091 66.2909622,78.2818461 63.5218657,77.7396761 C60.3248686,77.1013636 57.0740046,76.7671544 53.8132836,76.741573 C48.8471232,76.6157166 43.9326795,77.7693932 39.5476119,80.0904713 C36.6509295,81.7558587 34.2527367,84.1583815 32.5997015,87.0509266 C31.0203791,89.6752437 30.1512173,92.6613449 30.076791,95.7186634 C30.0638635,96.9937525 30.2785322,98.2610128 30.7108209,99.4615497 C31.1380248,100.640103 31.8448856,101.698797 32.7714179,102.547789 C34.5217841,104.005547 36.3856886,105.322972 38.345597,106.48767 C40.5332764,107.986908 42.4194048,109.879998 43.9065672,112.069167 C45.6433522,114.427255 47.1766414,116.927026 48.4900746,119.541807 C48.8529008,120.128418 49.6098543,120.336752 50.2244338,120.019148 C50.8390133,119.701544 51.1024632,118.965883 50.8280597,118.333577 L50.8016418,118.386108 Z" id="Shape" fill="#662059"></path>
            <path d="M69.5715672,137.783453 C69.7168657,137.665256 74.7362687,133.265723 76.3609701,123.770611 C76.6079857,121.982744 77.2929005,120.282567 78.3555224,118.819495 C79.6919986,117.265796 81.270755,115.935567 83.0314925,114.879615 C83.9118402,114.286778 84.6845406,113.54961 85.3166418,112.699548 C86.0174882,111.68459 86.4074716,110.489442 86.439403,109.258719 C86.4702986,107.97243 86.6928685,106.697806 87.0998507,105.476434 C87.4401704,104.341845 88.1691869,103.361478 89.1604478,102.705385 C90.0492124,102.191703 91.0653498,101.936855 92.0928358,101.96994 C93.862117,102.040663 95.6034951,102.432332 97.2311194,103.125638 C97.9708209,103.414563 98.5520149,103.71662 99.0275373,103.926747 L99.5294776,104.189406 L99.6483582,104.255071 L100.322015,103.125638 L99.8332836,101.904275 C98.6572941,102.410716 97.5659844,103.092734 96.5970896,103.926747 C95.6825264,104.692749 94.9053696,105.607536 94.2987313,106.632132 C93.5757878,107.872304 93.1719744,109.27075 93.1231343,110.703342 C93.0686038,112.403381 92.6402876,114.070925 91.8682836,115.588793 C91.0889552,117.256676 89.8869403,119.213483 88.3282836,122.076463 C87.0401732,124.338498 86.0670259,126.763991 85.4355224,129.286444 C85.0734944,130.964192 84.8482112,132.668247 84.7618657,134.382022 C84.7035048,135.107334 85.2475791,135.742354 85.9770896,135.800379 C86.7066,135.858404 87.3452959,135.317461 87.4036567,134.592149 C87.4790039,133.011284 87.6821972,131.439011 88.0112687,129.890559 C88.5879227,127.592635 89.4766883,125.383509 90.6530597,123.324092 C92.1720896,120.526777 93.3741045,118.569969 94.2591045,116.757624 C95.1801957,114.922039 95.693732,112.911067 95.7649254,110.860937 C95.8007851,109.857148 96.0867251,108.877912 96.5970896,108.01109 C97.2621463,106.916339 98.1647096,105.983076 99.2388806,105.27944 C99.6031208,105.032849 99.9825183,104.809152 100.374851,104.60966 L100.705075,104.452065 L100.784328,104.452065 L100.678657,104.189406 L100.784328,104.452065 L100.678657,104.189406 L100.784328,104.452065 C101.252595,104.26711 101.574242,103.833397 101.61353,103.333958 C101.652818,102.834518 101.402904,102.35636 100.969254,102.10127 C100.067324,101.599968 99.1316673,101.161161 98.1689552,100.787976 C96.2248895,99.9782312 94.1469536,99.5329775 92.04,99.4746826 C91.0434974,99.4629015 90.0521323,99.6182983 89.1076119,99.9343353 C87.5378258,100.477495 86.2130601,101.557272 85.3694776,102.981176 C84.3088667,104.905852 83.7502857,107.064104 83.7447761,109.258719 C83.7316755,109.774134 83.619589,110.282307 83.4145522,110.755873 C83.0367228,111.505703 82.4730352,112.147502 81.7766418,112.62075 C80.2000354,113.645706 78.7032013,114.787113 77.298806,116.035313 C75.3376921,118.03942 74.0778919,120.618199 73.7059701,123.389756 C73.172439,126.777701 71.9596278,130.024514 70.1395522,132.9374 C69.6362392,133.729014 69.0709036,134.47992 68.448806,135.183131 C68.2374627,135.419524 68.0657463,135.603385 67.9468657,135.708449 L67.8279851,135.826645 C67.4546324,136.129144 67.2764689,136.609705 67.3630349,137.080757 C67.4496008,137.551809 67.7871734,137.93868 68.2439926,138.090368 C68.7008118,138.242055 69.2044612,138.134514 69.5583582,137.809718 L69.5715672,137.783453 Z" id="Shape" fill="#662059"></path>
            <path d="M26.5103731,102.035605 C26.386028,102.693609 26.3285003,103.36237 26.3386567,104.031811 C26.3330053,105.682071 26.6609126,107.316637 27.3029104,108.838465 C28.250185,111.01389 29.8156455,112.867025 31.8071642,114.170436 C34.0691119,115.527192 36.1618382,117.14501 38.041791,118.990223 C38.6176025,119.64395 39.0857081,120.384176 39.4287313,121.183423 C39.858816,122.217342 40.1861943,123.290593 40.406194,124.387859 C40.8463438,126.209023 41.7207241,127.898171 42.9555224,129.31271 C44.6858955,131.387713 46.8125373,133.055596 48.4108209,134.710346 C49.1551828,135.441588 49.7991806,136.267343 50.3261194,137.166205 C50.7739029,137.942331 51.0148773,138.819312 51.026194,139.713994 C51.026194,140.439306 51.6175791,141.027287 52.3470896,141.027287 C53.0766,141.027287 53.6679851,140.439306 53.6679851,139.713994 C53.6377098,137.946659 53.040745,136.235087 51.9640299,134.828542 C50.3593245,132.872073 48.5918964,131.053312 46.6804478,129.391507 C45.8233071,128.591444 45.044858,127.711933 44.3556716,126.76492 C43.7276924,125.888405 43.2789064,124.897834 43.0347761,123.849409 C42.7785182,122.585289 42.3980361,121.349241 41.898806,120.159054 C41.1985038,118.571485 40.1464027,117.161792 38.8211194,116.035313 C37.0760389,114.582527 35.2407734,113.240317 33.326194,112.016635 C31.749558,110.998495 30.5092091,109.54148 29.7597761,107.827229 C29.2569124,106.629219 29.0008908,105.343082 29.0068657,104.044944 C28.9847051,103.681933 28.9847051,103.317921 29.0068657,102.95491 C29.0068657,102.823581 29.0068657,102.73165 29.0068657,102.679119 L28.4652985,102.560922 L29.0068657,102.679119 L28.4652985,102.560922 L29.0068657,102.679119 C29.1637104,101.953807 28.6994731,101.239409 27.9699627,101.083467 C27.2404522,100.927525 26.5219194,101.389091 26.3650746,102.114402 L26.5103731,102.035605 Z" id="Shape" fill="#662059"></path>
            <path d="M87.2055224,101.313293 C86.0438597,101.433397 84.8975518,101.67102 83.784403,102.022472 C81.3704796,102.726196 79.1575167,103.986039 77.3252239,105.699694 C75.4759701,107.498906 73.8644776,109.061725 72.3982836,110.703342 C70.8862005,112.398469 69.5579723,114.247286 68.435597,116.219174 C67.273209,118.254779 66.4146269,120.080257 65.7013433,121.30162 C65.4588231,121.775282 65.1570256,122.216547 64.8031343,122.614913 L64.5653731,122.798774 L64.5653731,123.310959 L64.9352239,122.943237 C64.8479172,122.862455 64.7367515,122.811797 64.618209,122.798774 L64.618209,123.310959 L64.9880597,122.943237 L64.8691791,123.061433 L65.0012687,122.956369 L64.8823881,123.074566 L65.0144776,122.969502 C64.8451772,122.55298 64.7685721,122.104956 64.7899254,121.656209 C64.7995885,120.620602 65.0197453,119.597627 65.4371642,118.648767 C65.761629,117.801998 66.3800916,117.098586 67.1807463,116.665694 C67.6101849,116.468632 67.9012629,116.058755 67.9443339,115.59046 C67.9874049,115.122165 67.7759254,114.666597 67.3895577,114.395363 C67.00319,114.12413 66.5006326,114.078438 66.071194,114.2755 C64.6869261,114.971652 63.6030207,116.142624 63.0199254,117.571866 C62.4525125,118.85543 62.1558067,120.241028 62.1481343,121.643076 C62.130152,122.403706 62.2555977,123.160958 62.5179851,123.875675 C62.6563312,124.242101 62.8674671,124.577081 63.138806,124.860645 C63.4709778,125.199526 63.9084708,125.417013 64.3804478,125.477893 L64.7106716,125.477893 C65.1286914,125.477493 65.540649,125.378472 65.9126866,125.188968 C66.4979302,124.871144 67.0000936,124.421348 67.3788806,123.875675 C67.9998557,122.997891 68.5476487,122.071124 69.016791,121.104626 C69.5715672,120.040858 70.1791791,118.832628 70.9056716,117.571866 C71.9464345,115.758049 73.1773172,114.058817 74.5777612,112.502554 C75.8986567,110.966 77.5101493,109.44258 79.3726119,107.643368 C80.9046468,106.222682 82.7505076,105.179116 84.7618657,104.596527 C85.4415598,104.38579 86.1342814,104.21909 86.8356716,104.097476 L87.4300746,104.005545 L87.615,104.005545 C88.3445105,103.951147 88.8915416,103.319067 88.8368284,102.593755 C88.7821151,101.868443 88.1463761,101.32456 87.4168657,101.378958 L87.2055224,101.313293 Z" id="Shape" fill="#662059"></path>
            <path d="M85.1977612,102.022472 C82.075261,100.332376 78.2291378,100.723644 75.515597,103.007442 C74.4993303,103.826818 73.3517791,104.470542 72.1208955,104.911717 C71.7622143,105.042364 71.3961386,105.151993 71.0245522,105.240041 L70.7339552,105.240041 L70.6679104,105.240041 L70.7471642,105.791624 L70.6679104,105.240041 L70.7471642,105.791624 L70.6679104,105.240041 C70.1959999,105.301036 69.7926656,105.60771 69.6098396,106.044542 C69.4270136,106.481375 69.4924715,106.981999 69.781556,107.357836 C70.0706405,107.733673 70.5394328,107.927623 71.0113433,107.866628 C73.279947,107.452465 75.4038033,106.466734 77.1799254,105.003648 C78.2570091,104.081252 79.6286372,103.56927 81.0501493,103.559025 C81.7521077,103.562027 82.4486051,103.681881 83.1107463,103.913614 C83.3087717,103.981543 83.5028079,104.060465 83.6919403,104.150007 L83.8240299,104.215672 L83.9957463,103.913614 L83.8108209,104.215672 L83.9825373,103.913614 L83.7976119,104.215672 C84.4148554,104.493026 85.1430778,104.261219 85.4835296,103.679012 C85.8239813,103.096805 85.6663121,102.352909 85.1185075,101.956807 L85.1977612,102.022472 Z" id="Shape" fill="#662059"></path>
            <path d="M100.612612,104.583394 L100.731493,104.583394 C103.169051,104.77483 105.58604,105.170218 107.956791,105.765358 C111.496791,106.645265 115.499104,108.208084 118.008806,110.663943 C118.346222,110.992379 118.83424,111.116893 119.289029,110.990582 C119.743817,110.864271 120.096283,110.506325 120.213656,110.051578 C120.331028,109.59683 120.195476,109.114369 119.85806,108.785933 C116.542612,105.59463 111.787388,103.966146 107.864328,103.033708 C105.528269,102.486527 103.151852,102.126407 100.75791,101.956807 C100.286,101.931001 99.8360897,102.157468 99.5776566,102.5509 C99.3192236,102.944331 99.2915298,103.444956 99.5050074,103.864193 C99.7184849,104.283431 100.140701,104.557588 100.612612,104.583394 Z" id="Shape" fill="#662059"></path>
            <path d="M112.461045,114.630089 C114.43625,114.132708 116.288243,113.238856 117.903134,112.003502 C118.61636,111.515814 119.362193,111.077032 120.135448,110.690209 C120.718095,110.395604 121.35796,110.229839 122.011119,110.20429 C122.622655,110.209468 123.217696,110.402087 123.715075,110.755873 C126.685007,112.605351 129.498958,114.69159 132.129179,116.994017 C133.55223,118.26196 134.796334,119.715368 135.827687,121.314753 C136.725732,122.671366 137.228622,124.248628 137.280672,125.871881 C137.281136,126.241535 137.250206,126.610568 137.188209,126.975047 C137.064192,127.700359 137.555042,128.388298 138.284552,128.511601 C139.014063,128.634904 139.705983,128.146879 139.83,127.421567 C139.917978,126.909642 139.962165,126.391225 139.96209,125.871881 C139.912009,123.766859 139.276503,121.71676 138.126045,119.948927 C136.34039,117.278391 134.106379,114.932852 131.521567,113.014738 C129.091119,111.09733 126.673881,109.560776 125.181269,108.575806 C124.249448,107.933917 123.144708,107.586096 122.011119,107.577703 C120.97503,107.599592 119.956237,107.846101 119.025896,108.300015 C117.730797,108.96255 116.477977,109.703776 115.274552,110.519481 C114.299711,111.204178 113.200758,111.694745 112.038358,111.964103 C111.308848,112.076527 110.809127,112.755645 110.922201,113.480957 C111.035276,114.206269 111.718325,114.703114 112.447836,114.59069" id="Shape" fill="#662059"></path>
            <path d="M50.2072388,83.5181672 L50.2072388,83.1110463 L50.2072388,83.5181672 L50.2072388,83.1110463 L50.2072388,83.5181672 C50.5900192,83.4975974 50.9736376,83.4975974 51.3564179,83.5181672 C53.5701092,83.5001091 55.7565593,84.0041941 57.7363433,84.9890559 C59.0062331,85.6480855 60.1188801,86.5707016 60.9989552,87.6944404 C62.1074084,89.1572988 62.8703781,90.8495127 63.2312687,92.6455567 C63.3430982,93.1435943 63.7349734,93.5321353 64.236202,93.6419399 C64.7374307,93.7517445 65.257256,93.5629305 65.5692537,93.1577411 L65.199403,92.8819495 L65.5560448,93.184007 L65.186194,92.9082154 L65.5428358,93.2102729 L65.7541791,93.0264118 L66.0183582,92.9213483 C66.1657132,92.9334779 66.3049615,92.9934715 66.4146269,93.0920765 C66.5110817,93.1516823 66.5924371,93.2325695 66.6523881,93.3284693 L66.6523881,93.4203998 L66.5731343,93.7093244 L66.5070896,93.8275208 C66.2065715,94.1975541 66.1307555,94.7002132 66.3088853,95.1416123 C66.487015,95.5830114 66.8912511,95.8941655 67.3656716,95.9550562 L67.4317164,95.4560047 L67.3392537,95.9550562 L67.4052985,95.4560047 L67.3128358,95.9550562 C67.7891161,96.0766795 68.2201425,96.3319833 68.5544776,96.6905005 C69.536176,97.8420391 70.0120336,99.337095 69.8753731,100.840508 C69.8753731,101.56582 70.4667582,102.153801 71.1962687,102.153801 C71.9257791,102.153801 72.5171642,101.56582 72.5171642,100.840508 C72.5471822,99.5233452 72.322988,98.2126704 71.8567164,96.9794251 C71.3878775,95.7378791 70.5194911,94.6851914 69.3866418,93.985116 C68.878966,93.6682 68.3133905,93.4539827 67.7223134,93.3547352 L67.550597,94.6680286 L68.5808955,95.4822705 C68.725037,95.2942775 68.8489956,95.0918032 68.9507463,94.8781556 C69.1787794,94.4299211 69.3007655,93.9358007 69.3073881,93.4335328 C69.3106548,92.9766561 69.2018414,92.5258761 68.9903731,92.1202393 C68.746357,91.6616043 68.3980997,91.2658865 67.9732836,90.9645411 C67.4122113,90.534266 66.7268155,90.2948373 66.0183582,90.2816285 C65.3354512,90.2882453 64.6729512,90.5139493 64.1294776,90.9251423 C63.8770149,91.108757 63.6504453,91.3251887 63.4558209,91.5686561 L64.5125373,92.3697651 L65.8334328,92.0808405 C65.3902288,89.9028027 64.4602941,87.8516655 63.1123881,86.0790894 C61.4950114,84.0408508 59.3003855,82.5312943 56.8117164,81.7452211 C55.0587588,81.177526 53.2264397,80.8894109 51.3828358,80.8915803 C50.8885842,80.8893953 50.3946209,80.9157054 49.9034328,80.9703779 C49.1739224,81.0610419 48.6564604,81.7225211 48.7476493,82.4478331 C48.8388381,83.173145 49.5041463,83.6876288 50.2336567,83.5969648 L50.2072388,83.5181672 Z" id="Shape" fill="#662059"></path>
            <path d="M58.2514925,98.0825916 C59.0186713,98.0000294 59.770232,97.8099044 60.483806,97.5178754 C61.1442399,97.2542154 61.7524507,96.8762715 62.2802239,96.401576 C62.9241228,95.8231863 63.3833575,95.0698099 63.6011194,94.2346418 C63.783497,93.5310892 63.3576998,92.8137517 62.6500746,92.6324238 C61.9424495,92.4510958 61.2209597,92.8744425 61.0385821,93.577995 C60.9497697,93.918184 60.7612664,94.224453 60.4970149,94.4579016 C60.040355,94.8391189 59.5030532,95.1129574 58.9251493,95.2590107 C58.7035748,95.319992 58.4786497,95.3682261 58.2514925,95.4034729 L58.0665672,95.4034729 C57.3370568,95.4651246 56.7959396,96.1030844 56.857948,96.8283963 C56.9199563,97.5537082 57.561609,98.0917112 58.2911194,98.0300598 L58.2514925,98.0825916 Z" id="Shape" fill="#662059"></path>
            <path d="M59.1497015,93.6699256 L58.6213433,93.7355903 L59.1497015,93.7355903 L58.6213433,93.8012549 L59.1497015,93.8012549 L59.1497015,93.6567926 C59.141253,93.4249839 59.1911986,93.1947504 59.295,92.987013 L59.4535075,92.8425507 C59.6186034,92.7659066 59.7998203,92.7298719 59.9818657,92.7374872 C60.7113761,92.7374872 61.3027612,92.1495057 61.3027612,91.4241938 C61.3027612,90.6988818 60.7113761,90.1109003 59.9818657,90.1109003 C59.366055,90.1038832 58.7580395,90.2482452 58.2118657,90.5311542 C57.5488745,90.8969955 57.0419672,91.4896503 56.7852985,92.1990369 C56.6156262,92.6663843 56.530654,93.1599441 56.5343284,93.6567926 C56.5237794,93.8185957 56.5237794,93.9809081 56.5343284,94.1427112 C56.5980362,94.6119058 56.908666,95.0116674 57.3492065,95.1914096 C57.789747,95.3711518 58.2932696,95.3035674 58.6701022,95.014115 C59.0469347,94.7246625 59.2398274,94.2573166 59.1761194,93.788122 L59.1497015,93.6699256 Z" id="Shape" fill="#662059"></path>
            <path d="M16.5904478,157.101999 C16.7621642,156.983803 27.1576119,149.695024 47.6711194,149.695024 C59.136311,149.839655 70.5072748,151.776352 81.3671642,155.434116 C81.8210691,155.600309 82.3300359,155.506537 82.6939107,155.189678 C83.0577855,154.872819 83.2183638,154.383557 83.1124972,153.914296 C83.0066306,153.445035 82.6512533,153.070838 82.1861194,152.938859 C71.0619593,149.194503 59.4145703,147.213478 47.6711194,147.068437 C26.2065672,147.068437 15.2167164,154.856267 15.058209,154.948198 C14.5013159,155.383645 14.3891265,156.178372 14.8039356,156.749417 C15.2187446,157.320463 16.0128101,157.464438 16.6036567,157.075733 L16.5904478,157.101999 Z" id="Shape" fill="#662059"></path>
            <path d="M149.06306,142.37998 L149.366866,142.37998 L149.06306,142.37998 L149.366866,142.37998 L149.06306,142.37998 C149.06306,142.37998 149.06306,142.590107 149.06306,142.91843 C149.018634,145.805494 148.128077,148.616967 146.500522,151.008318 C144.188955,154.396615 139.896045,157.903108 131.217761,159.439661 C121.020448,161.238873 113.940448,162.460236 108.392687,163.707865 C103.728854,164.64332 99.186771,166.101639 94.8535075,168.054866 C94.4172974,168.248719 94.1203855,168.661674 94.0770649,169.134769 C94.0337443,169.607864 94.2507691,170.06734 94.6445978,170.336325 C95.0384266,170.605311 95.5476579,170.641869 95.9762687,170.431928 C100.136236,168.559256 104.49674,167.162585 108.973881,166.268787 C114.41597,165.047424 121.482761,163.826062 131.680075,162.02685 C140.899925,160.411499 145.998582,156.471618 148.693209,152.531738 C150.615255,149.705913 151.662279,146.382026 151.704851,142.970962 C151.704851,142.498176 151.704851,142.222384 151.704851,142.182986 C151.65766,141.713791 151.362292,141.305268 150.93001,141.111305 C150.497728,140.917341 149.994205,140.967403 149.609115,141.242634 C149.224024,141.517865 149.015869,141.97645 149.06306,142.445644 L149.06306,142.37998 Z" id="Shape" fill="#662059"></path>
            <path d="M49.4014925,167.871005 C56.608828,169.491074 64.1114635,169.269685 71.2094776,167.227492 C81.116194,164.403911 87.4961194,160.569094 94.3119403,157.50912 C102.544992,153.70445 111.53277,151.787979 120.61097,151.901357 C121.340481,151.901357 121.931866,151.313376 121.931866,150.588064 C121.931866,149.862752 121.340481,149.27477 120.61097,149.27477 C111.151714,149.175979 101.790467,151.186443 93.215597,155.158325 C86.2016418,158.310229 80.0066418,162.013717 70.4697761,164.745367 C63.7974415,166.665632 56.7444881,166.873473 49.9694776,165.349482 C49.4975671,165.246259 49.0061163,165.40119 48.68025,165.755913 C48.3543837,166.110636 48.2436088,166.61126 48.389653,167.069206 C48.5356972,167.527152 48.9163731,167.872846 49.3882836,167.976069 L49.4014925,167.871005 Z" id="Shape" fill="#662059"></path>
            <path d="M36.0340299,162.460236 C38.539214,164.094612 41.23631,165.417757 44.0650746,166.400117 C44.7347727,166.589919 45.4376465,166.230197 45.6714207,165.578009 C45.905195,164.92582 45.5895624,164.205209 44.9500746,163.931125 C43.0591794,163.260815 41.2222492,162.448612 39.4551493,161.501532 C38.8211194,161.160076 38.3323881,160.871151 38.0153731,160.674157 L37.6587313,160.450897 L37.5794776,160.450897 C37.192511,160.181111 36.6901764,160.137073 36.2616983,160.335374 C35.8332203,160.533675 35.5436948,160.944187 35.5021834,161.412275 C35.460672,161.880362 35.6734811,162.334912 36.0604478,162.604699 L36.0340299,162.460236 Z" id="Shape" fill="#662059"></path>
            <path d="M19.0473134,111.819641 C18.5066434,111.473067 17.9364794,111.174245 17.3433582,110.926601 C16.0948023,110.373181 14.747408,110.073995 13.3806716,110.046695 C11.9698227,110.032299 10.5878794,110.444496 9.41798507,111.228659 C8.877735,111.656326 8.7599976,112.425565 9.14784059,112.993652 C9.53568357,113.56174 10.298191,113.736918 10.8973881,113.395593 C11.6311041,112.907417 12.4980087,112.655261 13.3806716,112.673282 C14.3930978,112.70129 15.3898455,112.928954 16.3130597,113.343061 C16.6385343,113.483241 16.9560266,113.641074 17.2641045,113.815847 L17.5150746,113.960309 L17.7264179,113.658252 L17.5150746,113.960309 L17.7264179,113.658252 L17.5150746,113.960309 C17.9067604,114.223058 18.4096792,114.258089 18.8343865,114.052206 C19.2590938,113.846323 19.5410664,113.430805 19.574088,112.962172 C19.6071096,112.49354 19.3861633,112.042991 18.9944776,111.780242 L19.0473134,111.819641 Z" id="Shape" fill="#662059"></path>
            <path d="M17.9245522,111.662046 C16.8077666,112.012515 15.7211311,112.451695 14.6751493,112.975339 C13.7381749,113.416827 12.8523541,113.958472 12.0333582,114.59069 C11.2079388,115.254087 10.5554874,116.105501 10.1312687,117.072815 C9.95194261,117.50682 10.0191177,118.002976 10.3074897,118.374385 C10.5958617,118.745795 11.0616201,118.936032 11.5293181,118.873437 C11.9970162,118.810841 12.3955994,118.504923 12.5749254,118.070918 C12.8567283,117.48778 13.2786272,116.982611 13.8033582,116.600029 C14.7787049,115.861342 15.8493889,115.256199 16.9867164,114.800817 C17.4886567,114.59069 17.9377612,114.419962 18.3076119,114.314899 L18.6774627,114.196702 L18.7699254,114.196702 C19.2229595,114.062982 19.5698284,113.699119 19.6798698,113.242178 C19.7899113,112.785237 19.6464073,112.304637 19.3034146,111.981416 C18.9604218,111.658195 18.470049,111.541458 18.0170149,111.675179 L17.9245522,111.662046 Z" id="Shape" fill="#662059"></path>
            <path d="M154.49194,126.817452 L154.12209,126.475996 L154.49194,126.817452 L154.12209,126.475996 L154.49194,126.817452 C155.147203,126.15918 155.868667,125.569487 156.645,125.057639 C158.007596,124.074988 159.626841,123.504901 161.307761,123.416022 L161.902164,123.416022 C162.631675,123.495806 163.288112,122.972503 163.368358,122.247191 C163.448604,121.521879 162.922272,120.86922 162.192761,120.789435 C161.90238,120.77369 161.611351,120.77369 161.32097,120.789435 C159.08465,120.879344 156.924874,121.624062 155.112761,122.930104 C154.19659,123.541461 153.346669,124.245652 152.576642,125.031373 C152.255743,125.376231 152.144264,125.865105 152.284199,126.313842 C152.424134,126.762578 152.794223,127.103003 153.255057,127.206881 C153.715891,127.31076 154.197459,127.16231 154.518358,126.817452 L154.49194,126.817452 Z" id="Shape" fill="#662059"></path>
            <path d="M154.188134,127.290238 L154.188134,127.132643 L154.188134,127.290238 L154.188134,127.132643 L154.188134,127.290238 C154.46965,127.27271 154.751992,127.27271 155.033507,127.290238 C156.75392,127.298088 158.442703,127.750666 159.93403,128.603531 C160.343493,128.862328 160.862701,128.8771 161.28638,128.642008 C161.710058,128.406916 161.969999,127.959805 161.963432,127.477448 C161.956866,126.99509 161.684848,126.555139 161.254925,126.331534 C159.356064,125.25361 157.206867,124.687713 155.020299,124.689917 C154.605071,124.687189 154.190166,124.71352 153.778657,124.768714 C153.306746,124.839094 152.908447,125.154439 152.733795,125.595963 C152.559142,126.037487 152.634671,126.538112 152.931929,126.909257 C153.229187,127.280401 153.703015,127.465681 154.174925,127.395301 L154.188134,127.290238 Z" id="Shape" fill="#662059"></path>
            <path d="M39.3362687,133.265723 C38.3848835,130.598108 37.1911484,128.022172 35.7698507,125.569823 C35.5733363,125.095817 35.1173517,124.778847 34.602111,124.75809 C34.0868702,124.737333 33.6065873,125.016584 33.3721451,125.473229 C33.1377029,125.929874 33.1919703,126.480414 33.5111194,126.883117 C34.4168749,128.409314 35.2114478,129.998091 35.8887313,131.637239 C36.1925373,132.346418 36.4302985,132.950533 36.588806,133.397052 L36.7737313,133.909237 L36.7737313,134.079965 C37.0144698,134.765385 37.7684858,135.126993 38.4578731,134.88764 C39.1472605,134.648288 39.5109623,133.898611 39.2702239,133.213191 L39.3362687,133.265723 Z" id="Shape" fill="#662059"></path>
            <path d="M41.1987313,135.721582 C41.8907049,134.526087 42.8320102,133.491685 43.959403,132.687874 C44.4952866,132.243846 44.5915151,131.462058 44.1791419,130.902651 C43.7667687,130.343245 42.9879699,130.199089 42.4007463,130.573471 C40.932692,131.607454 39.7144455,132.953271 38.8343284,134.513352 C38.5839234,134.937971 38.5933579,135.466158 38.8587693,135.88167 C39.1241807,136.297182 39.6010028,136.530248 40.0940216,136.48545 C40.5870405,136.440652 41.0134716,136.125512 41.1987313,135.66905 L41.1987313,135.721582 Z" id="Shape" fill="#662059"></path>
            <path d="M122.037537,135.98424 C121.849636,134.551269 121.540328,133.136638 121.11291,131.755436 C120.786551,130.649715 120.292109,129.600091 119.646716,128.64293 C119.31187,128.159714 118.891088,127.741353 118.405075,127.408434 C117.86699,127.045135 117.232646,126.848615 116.582239,126.843718 C116.110328,126.857794 115.681818,127.121113 115.458123,127.534485 C115.234428,127.947857 115.249534,128.448482 115.49775,128.847779 C115.745966,129.247075 116.189582,129.484381 116.661493,129.470305 L116.661493,128.380271 L116.661493,129.470305 L116.661493,128.380271 L116.661493,129.470305 C116.795649,129.474059 116.925147,129.520042 117.031343,129.601634 C117.467362,129.952727 117.811735,130.403241 118.035224,130.914928 C118.549974,132.026646 118.931256,133.194766 119.171194,134.395155 C119.290075,134.946739 119.369328,135.419524 119.422164,135.708449 L119.422164,136.102437 L119.422164,136.233766 C119.506058,136.959078 120.165452,137.479442 120.894963,137.396031 C121.624473,137.31262 122.147849,136.657021 122.063955,135.931709 L122.037537,135.98424 Z" id="Shape" fill="#662059"></path>
            <path d="M126.581418,136.772217 L126.475746,136.772217 L126.581418,136.772217 L126.475746,136.772217 L126.581418,136.772217 C127.081624,136.001878 127.691127,135.307417 128.391045,134.710346 C129.681002,133.546899 131.352058,132.888858 133.093433,132.858602 L133.714254,132.858602 C134.443764,132.92388 135.088374,132.388817 135.15403,131.663505 C135.219686,130.938193 134.681525,130.297293 133.952015,130.232015 C133.661418,130.232015 133.375224,130.232015 133.093433,130.232015 C130.640307,130.261942 128.286116,131.198199 126.488955,132.858602 C125.620046,133.621254 124.867984,134.506146 124.256642,135.485189 C123.96009,135.890611 123.92154,136.428519 124.157279,136.87165 C124.393018,137.314781 124.861921,137.585831 125.365879,137.570281 C125.869837,137.554731 126.320934,137.255295 126.528582,136.798482 L126.581418,136.772217 Z" id="Shape" fill="#662059"></path>
            <path d="M112.210075,133.92237 C112.210075,133.92237 112.210075,133.830439 112.210075,133.685977 C112.21367,132.45212 111.989824,131.228052 111.549627,130.07442 C111.222194,129.225542 110.686377,128.471589 109.99097,127.88122 C109.134962,127.197188 108.064108,126.834542 106.966119,126.856851 C106.236609,126.856851 105.645224,127.444833 105.645224,128.170144 C105.645224,128.895456 106.236609,129.483438 106.966119,129.483438 C107.444291,129.466802 107.91272,129.620493 108.287015,129.916825 C108.823173,130.433485 109.183415,131.103904 109.317313,131.834233 C109.463004,132.445389 109.538338,133.071032 109.541866,133.69911 L109.541866,133.817306 C109.512685,134.542618 110.080415,135.154119 110.809925,135.183131 C111.539436,135.212144 112.154476,134.647682 112.183657,133.92237 L112.210075,133.92237 Z" id="Shape" fill="#662059"></path>
            <path d="M19.7473881,148.591858 C19.8794776,148.526193 23.9742537,146.280461 32.5864925,145.045965 C33.3160029,144.944421 33.8245939,144.274123 33.7224625,143.548811 C33.620331,142.823499 32.9461522,142.317835 32.2166418,142.419378 C22.9703731,143.732672 18.571791,146.214796 18.4529104,146.280461 C18.0423483,146.515058 17.7888539,146.949607 17.787916,147.420417 C17.7869782,147.891226 18.0387395,148.32677 18.4483638,148.562982 C18.8579881,148.799194 19.3632438,148.800189 19.773806,148.565592 L19.7473881,148.591858 Z" id="Shape" fill="#FFFFFF"></path>
            <path d="M128.774104,157.141398 C131.12932,156.633715 133.407453,155.821309 135.550299,154.724938 C137.394748,153.805625 139.05184,152.554374 140.437612,151.034583 C141.966999,149.339729 142.866661,147.175356 142.98694,144.901503 C143.010536,144.432308 142.780578,143.986239 142.383689,143.731325 C141.9868,143.476411 141.483278,143.45138 141.062793,143.66566 C140.642309,143.879941 140.368745,144.300979 140.345149,144.770174 C140.253315,146.45922 139.576615,148.064673 138.429851,149.314169 C136.659912,151.15096 134.48487,152.553678 132.076343,153.411645 C131.181835,153.758256 130.269077,154.056374 129.34209,154.304684 L128.536343,154.501678 L128.325,154.501678 C127.59549,154.639487 127.116468,155.339185 127.255075,156.064497 C127.393682,156.789809 128.09743,157.266074 128.82694,157.128265 L128.774104,157.141398 Z" id="Shape" fill="#FFFFFF"></path>
            <path d="M92.1324627,10.0787976 C91.1886793,10.0773558 90.254274,10.2649479 89.385,10.6303809 L91.6041045,17.4332409 L99.1596269,17.4332409 C99.2535723,15.5171355 98.5539387,13.6464113 97.2236954,12.256826 C95.8934522,10.8672408 94.0487386,10.0801148 92.1192537,10.0787976" id="Shape" fill="#F7DCDC"></path>
            <path d="M87.1130597,12.1669342 C85.1392977,14.1500946 84.5385047,17.1092419 85.5839621,19.6983561 C86.6294195,22.2874703 89.1214701,24.0120932 91.926561,24.0877499 C94.7316519,24.1634065 97.3140786,22.5756483 98.4991791,20.0466949 L90.7058955,20.0466949 C90.1103552,20.0756688 89.5691258,19.7043698 89.385,19.1405224 L87.0998507,12.1538013" id="Shape" fill="#FFF1A2"></path>
            <path d="M89.385,10.6303809 C88.5338648,10.989838 87.7619625,11.5118891 87.1130597,12.1669342 L89.398209,19.1536553 C89.5823348,19.7175028 90.1235641,20.0888017 90.7191045,20.0598278 L98.5784328,20.0598278 C98.9668184,19.2348132 99.1910843,18.3429128 99.2388806,17.4332409 L91.6833582,17.4332409 L89.385,10.6303809" id="Shape" fill="#C53799"></path>
            <path d="M132.670746,108.260616 C130.809975,108.261256 129.024838,108.992915 127.704179,110.296221 C128.879776,111.084197 130.200672,112.016635 131.534776,113.06727 C134.048732,114.951635 136.23134,117.237062 137.993955,119.830731 C139.794269,117.764671 140.220201,114.845662 139.084623,112.356124 C137.949046,109.866586 135.459751,108.262065 132.710373,108.247483" id="Shape" fill="#FCEFEF"></path>
            <path d="M126.211567,112.476288 C126.093601,112.741251 125.992141,113.013179 125.907761,113.29053 C125.119157,115.977497 126.016313,118.873226 128.188892,120.653289 C130.361471,122.433351 133.39174,122.755482 135.893731,121.472348 L135.893731,121.380417 C134.862379,119.781033 133.618275,118.327625 132.195224,117.059682 C130.335474,115.387608 128.353051,113.855572 126.264403,112.476288" id="Shape" fill="#FEF7F7"></path>
            <path d="M127.69097,110.309354 C127.059386,110.930741 126.552798,111.666192 126.198358,112.476288 C128.287006,113.855572 130.269429,115.387608 132.129179,117.059682 C133.55223,118.327625 134.796334,119.781033 135.827687,121.380417 L135.827687,121.472348 C136.620522,121.065384 137.32867,120.512821 137.914701,119.843864 C136.152087,117.250195 133.969479,114.964768 131.455522,113.080403 C130.134627,112.029768 128.813731,111.09733 127.624925,110.309354" id="Shape" fill="#C53799"></path>
        </g>
    </g>
</svg>