<?xml version="1.0" encoding="UTF-8"?>
<svg width="300px" height="200px" viewBox="0 0 300 200" version="1.1" xmlns="http://www.w3.org/2000/svg" xmlns:xlink="http://www.w3.org/1999/xlink">
    <!-- Generator: Sketch 51.3 (57544) - http://www.bohemiancoding.com/sketch -->
    <title>brightly-shining-christmas-light</title>
    <desc>Created with Sketch.</desc>
    <defs></defs>
    <g id="brightly-shining-christmas-light" stroke="none" stroke-width="1" fill="none" fill-rule="evenodd">
        <g id="Singlelight" transform="translate(150.500000, 100.500000) rotate(-180.000000) translate(-150.500000, -100.500000) translate(106.000000, 41.000000)" fill-rule="nonzero">
            <path d="M56.345814,73.9789474 C58.4405473,66.7879383 59.3902711,59.3149402 59.1604651,51.8315789 C59.1604651,37.4947368 49.2774419,21.4736842 43.8174419,21.4736842 C38.3574419,21.4736842 28.4744186,37.8736842 28.4744186,51.8315789 C28.2638753,59.3680402 29.46226,66.8778509 32.0086047,73.9789474 L56.345814,73.9789474" id="Shape" fill="#F4C95E"></path>
            <path d="M28.4744186,51.9578947 C24.3240953,51.9547271 20.5551144,54.3655456 18.835686,58.1232842 C17.1162576,61.8810228 17.763895,66.2917691 20.4919439,69.4032577 C23.2199928,72.5147463 27.5246855,73.7524028 31.5006977,72.5684211 C29.4030587,65.9005851 28.381614,58.9440177 28.4744186,51.9578947" id="Shape" fill="#F7DCDC"></path>
            <path d="M28.4744186,51.9578947 C28.381614,58.9440177 29.4030587,65.9005851 31.5006977,72.5684211 C36.5303155,71.0706953 39.6954092,66.130753 38.9365898,60.9628002 C38.1777704,55.7948473 33.7245384,51.9619017 28.4744186,51.9578947" id="Shape" fill="#ECAD51"></path>
            <path d="M56.345814,94.4631579 L56.345814,92.3578947 L34.1248837,92.3578947 L34.1248837,76.0842105 L54.2295349,76.0842105 L54.2295349,94.4631579 L56.345814,94.4631579 L58.462093,94.4631579 L58.462093,73.9789474 C58.462093,72.8162426 57.5146026,71.8736842 56.345814,71.8736842 L32.0086047,71.8736842 C30.839816,71.8736842 29.8923256,72.8162426 29.8923256,73.9789474 L29.8923256,94.4631579 C29.8923256,95.6258626 30.839816,96.5684211 32.0086047,96.5684211 L56.345814,96.5684211 C57.5146026,96.5684211 58.462093,95.6258626 58.462093,94.4631579 L56.345814,94.4631579 Z" id="Shape" fill="#662059"></path>
            <path d="M42.0609302,94.4631579 L42.0609302,113.684211 C42.0609302,114.846915 43.0084206,115.789474 44.1772093,115.789474 C45.345998,115.789474 46.2934884,114.846915 46.2934884,113.684211 L46.2934884,94.4842105 C46.2934884,93.3215058 45.345998,92.3789474 44.1772093,92.3789474 C43.0084206,92.3789474 42.0609302,93.3215058 42.0609302,94.4842105" id="Shape" fill="#662059"></path>
            <path d="M32.0086047,86.3368421 L56.345814,86.3368421 C57.5146026,86.3368421 58.462093,85.3942837 58.462093,84.2315789 C58.462093,83.0688742 57.5146026,82.1263158 56.345814,82.1263158 L32.0086047,82.1263158 C30.839816,82.1263158 29.8923256,83.0688742 29.8923256,84.2315789 C29.8923256,85.3942837 30.839816,86.3368421 32.0086047,86.3368421" id="Shape" fill="#662059"></path>
            <path d="M61.2767442,51.8315789 C61.0745893,44.2813144 59.0572117,36.8890788 55.3934884,30.2736842 C53.9510581,27.5320623 52.1429241,24.9968556 50.0181395,22.7368421 C49.152042,21.827693 48.1702433,21.0350185 47.0976744,20.3789474 C45.1012776,19.0190485 42.4701178,19.0190485 40.4737209,20.3789474 C38.5197787,21.6773965 36.826082,23.3265804 35.4793023,25.2421053 C29.8530441,33.003017 26.6643583,42.2482241 26.315814,51.8105263 C26.1053425,59.6376961 27.3686204,67.4349613 30.0404651,74.8 C30.5021367,75.8696882 31.7480865,76.3645313 32.823372,75.905263 C33.8986575,75.4459946 34.39609,74.2065304 33.9344186,73.1368421 C31.5160474,66.2986627 30.3756468,59.0780461 30.5695349,51.8315789 C30.8090176,45.0319899 32.6502207,38.3833571 35.9448837,32.4210526 C37.2034448,29.995957 38.7758032,27.7452454 40.6218605,25.7263158 C41.2505021,25.0695824 41.9618187,24.4964151 42.7381395,24.0210526 C43.0774392,23.7873791 43.4704797,23.6425663 43.8809302,23.6 C44.2909687,23.6443141 44.6835894,23.7889722 45.0237209,24.0210526 C46.5005573,25.0189732 47.7839026,26.2742417 48.8118605,27.7263158 C51.2398105,31.0306682 53.1717374,34.6687478 54.5469767,38.5263158 C56.1587936,42.7831872 57.0249098,47.2834856 57.1076744,51.8315789 C57.1076744,52.9942837 58.0551648,53.9368421 59.2239535,53.9368421 C60.3927421,53.9368421 61.3402326,52.9942837 61.3402326,51.8315789 L61.2767442,51.8315789 Z" id="Shape" fill="#662059"></path>
            <path d="M58.3351163,74.6947368 C59.3921641,71.2650811 60.1011311,67.7386977 60.4513953,64.1684211 C60.5459046,63.416283 60.2298742,62.6711211 59.6223497,62.2136307 C59.0148253,61.7561404 58.2081043,61.6558251 57.5060707,61.9504728 C56.804037,62.2451205 56.3133464,62.8899672 56.2188372,63.6421053 C55.9194972,66.064979 55.4814208,68.4688865 54.9067442,70.8421053 C54.7162791,71.6421053 54.525814,72.2526316 54.42,72.6315789 L54.2930233,73.0526316 C54.0106145,73.765619 54.13997,74.5749496 54.6307464,75.1656418 C55.1215227,75.756334 55.8961904,76.0350744 56.6532585,75.8933808 C57.4103265,75.7516871 58.0301984,75.2119432 58.2716279,74.4842105 L58.3351163,74.6947368 Z" id="Shape" fill="#662059"></path>
            <path d="M50.3567442,54.0631579 C50.698975,52.7500757 50.8696831,51.3985954 50.8646512,50.0421053 C50.8094356,47.140234 50.1764588,44.2780433 49.0023256,41.6210526 C48.4816095,40.3685324 47.8513605,39.1639078 47.1188372,38.0210526 C46.6954359,37.396778 45.9694078,37.0446306 45.2142406,37.0972609 C44.4590734,37.1498912 43.7894949,37.5993034 43.457729,38.2762082 C43.125963,38.9531131 43.1824127,39.7546728 43.605814,40.3789474 C44.2236818,41.3556694 44.7547628,42.3841257 45.1930233,43.4526316 C46.1052127,45.5487629 46.6010704,47.800678 46.6532558,50.0842105 C46.6518311,51.042727 46.5309874,51.9973725 46.2934884,52.9263158 C46.0461947,53.6696121 46.233975,54.4880286 46.7809766,55.0509714 C47.3279781,55.6139143 48.1438315,55.8283802 48.898978,55.6077373 C49.6541246,55.3870943 50.2238075,54.7677945 50.377907,54 L50.3567442,54.0631579 Z" id="Shape" fill="#FFFFFF"></path>
            <path d="M42.0609302,2.10526316 L42.0609302,11.1789474 C42.0609302,12.3416521 43.0084206,13.2842105 44.1772093,13.2842105 C45.345998,13.2842105 46.2934884,12.3416521 46.2934884,11.1789474 L46.2934884,2.10526316 C46.2934884,0.942558421 45.345998,0 44.1772093,0 C43.0084206,0 42.0609302,0.942558421 42.0609302,2.10526316" id="Shape" fill="#F4C95E"></path>
            <path d="M19.6283721,22.1473684 L25.1306977,27.6631579 C25.9703531,28.3784775 27.2219923,28.3303837 28.0036803,27.5527647 C28.7853683,26.7751456 28.8337137,25.5300216 28.1146512,24.6947368 L22.6334884,19.2421053 C21.7938329,18.5267857 20.5421937,18.5748794 19.7605057,19.3524985 C18.9788178,20.1301175 18.9304724,21.3752415 19.6495349,22.2105263" id="Shape" fill="#F4C95E"></path>
            <path d="M9.91465116,46.9894737 L17.5755814,48.3368421 C18.3316551,48.4684664 19.1008842,48.1888312 19.5935074,47.6032726 C20.0861307,47.017714 20.2273068,46.2151921 19.9638563,45.4980093 C19.7004057,44.7808265 19.0723528,44.2579399 18.3162791,44.1263158 L10.6553488,42.7789474 C9.89927515,42.6473232 9.13004616,42.9269584 8.63742298,43.512517 C8.14479981,44.0980756 8.00362363,44.9005973 8.26707415,45.6177801 C8.53052466,46.3349629 9.15857747,46.8578495 9.91465116,46.9894737" id="Shape" fill="#F4C95E"></path>
            <path d="M65.6786047,19.4105263 L60.4725581,24.5894737 C59.7534956,25.4247585 59.801841,26.6698825 60.583529,27.4475015 C61.365217,28.2251206 62.6168562,28.2732143 63.4565116,27.5578947 L68.6625581,22.3789474 C69.2664937,21.8644424 69.5295595,21.0565929 69.3435982,20.287539 C69.1576369,19.5184852 68.5540344,18.9180246 67.7809564,18.7330313 C67.0078785,18.548038 66.1958018,18.8097344 65.6786047,19.4105263" id="Shape" fill="#F4C95E"></path>
            <path d="M77.1911628,42.9684211 L69.8053488,44.2736842 C69.0492751,44.4053083 68.4212222,44.9281949 68.1577716,45.6453777 C67.8943211,46.3625606 68.0354973,47.1650824 68.5281205,47.750641 C69.0207437,48.3361997 69.7899728,48.6158348 70.5460465,48.4842105 L77.9318605,47.1789474 C78.6879342,47.0473233 79.3159871,46.5244366 79.5794377,45.8072538 C79.8428882,45.090071 79.7017121,44.2875492 79.2090888,43.7019905 C78.7164656,43.1164319 77.9472365,42.8367968 77.1911628,42.9684211" id="Shape" fill="#F4C95E"></path>
            <path d="M86.7567442,114.315789 L75.0325581,110.547368 C68.0763912,108.320253 60.5931437,108.320253 53.6369767,110.547368 L52.0074419,111.073684 C45.8974083,113.028794 39.3249173,113.028794 33.2148837,111.073684 C26.2587167,108.846569 18.7754693,108.846569 11.8193023,111.073684 L1.55534884,114.378947 C0.810132331,114.590515 0.240762974,115.190368 0.0711482926,115.942613 C-0.0984663889,116.694857 0.158804776,117.479165 0.741788533,117.987103 C1.32477229,118.495041 2.14021591,118.64536 2.86744186,118.378947 L13.1313953,115.073684 C19.2414289,113.118575 25.8139199,113.118575 31.9239535,115.073684 C38.8801205,117.3008 46.3633679,117.3008 53.3195349,115.073684 L54.9490698,114.547368 C61.0591033,112.592259 67.6315943,112.592259 73.7416279,114.547368 L85.465814,118.315789 C86.5601006,118.626458 87.705437,118.020646 88.058457,116.944442 C88.4114769,115.868238 87.8457761,114.706994 86.777907,114.315789 L86.7567442,114.315789 Z" id="Shape" fill="#662059"></path>
        </g>
    </g>
</svg>