<?xml version="1.0" encoding="UTF-8"?>
<svg width="300px" height="200px" viewBox="0 0 300 200" version="1.1" xmlns="http://www.w3.org/2000/svg" xmlns:xlink="http://www.w3.org/1999/xlink">
    <!-- Generator: Sketch 51.3 (57544) - http://www.bohemiancoding.com/sketch -->
    <title>colorful-christmas-presents</title>
    <desc>Created with Sketch.</desc>
    <defs></defs>
    <g id="colorful-christmas-presents" stroke="none" stroke-width="1" fill="none" fill-rule="evenodd">
        <g id="Groupofpresents" transform="translate(50.000000, 135.000000)" fill-rule="nonzero">
            <path d="M194.038738,43.0116071 C192.898162,41.2583014 190.663311,40.5592372 188.717374,41.3470777 C186.771437,42.1349182 185.665018,44.1867435 186.082898,46.2326429 C186.500779,48.2785423 188.32472,49.7396275 190.425852,49.7116071 C192.196166,49.7116071 196.796574,50.66875 197.483023,49.16125 C197.67571,48.5510714 194.472284,43.63375 194.038738,43.0116071 Z" id="Shape" fill="#FFFFFF"></path>
            <rect id="Rectangle-path" fill="#56B2AD" x="82.5330345" y="12.9333929" width="33.443281" height="52.3198214"></rect>
            <rect id="Rectangle-path" fill="#2D9693" x="68.0453618" y="12.9333929" width="14.4876727" height="52.3198214"></rect>
            <path d="M82.5330345,66.4616071 L116.518248,66.4616071 C117.183362,66.4616071 117.722544,65.9259478 117.722544,65.2651786 L117.722544,12.9453571 C117.722544,12.2845879 117.183362,11.7489286 116.518248,11.7489286 L82.5330345,11.7489286 C81.8679206,11.7489286 81.3287392,12.2845879 81.3287392,12.9453571 C81.3287392,13.6061264 81.8679206,14.1417857 82.5330345,14.1417857 L115.313953,14.1417857 L115.313953,64.06875 L82.5330345,64.06875 C81.8679206,64.06875 81.3287392,64.6044093 81.3287392,65.2651786 C81.3287392,65.9259478 81.8679206,66.4616071 82.5330345,66.4616071 Z" id="Shape" fill="#662059"></path>
            <path d="M68.0453618,66.4616071 L82.4969056,66.4616071 C83.1620196,66.4616071 83.701201,65.9259478 83.701201,65.2651786 L83.701201,54.0905357 C83.701201,53.4297665 83.1620196,52.8941071 82.4969056,52.8941071 C81.8317917,52.8941071 81.2926103,53.4297665 81.2926103,54.0905357 L81.2926103,64.06875 L68.0453618,64.06875 C67.3802479,64.06875 66.8410665,64.6044093 66.8410665,65.2651786 C66.8410665,65.9259478 67.3802479,66.4616071 68.0453618,66.4616071 Z" id="Shape" fill="#662059"></path>
            <path d="M83.7373298,43.7294643 L83.7373298,12.9453571 C83.7373298,12.2845879 83.1981484,11.7489286 82.5330345,11.7489286 L68.0814906,11.7489286 C67.4163767,11.7489286 66.8771953,12.2845879 66.8771953,12.9453571 L66.8771953,24.9096429 C66.8771953,25.5704121 67.4163767,26.1060714 68.0814906,26.1060714 C68.7466046,26.1060714 69.285786,25.5704121 69.285786,24.9096429 L69.285786,14.1417857 L81.3287392,14.1417857 L81.3287392,43.7294643 C81.3287392,44.3902335 81.8679206,44.9258929 82.5330345,44.9258929 C83.1981484,44.9258929 83.7373298,44.3902335 83.7373298,43.7294643 Z" id="Shape" fill="#662059"></path>
            <path d="M110.003011,12.9453571 C110.132771,9.14460668 108.16581,5.57607569 104.872558,3.63750875 C101.579306,1.69894182 97.4840201,1.69894182 94.1907681,3.63750875 C90.897516,5.57607569 88.9305544,9.14460668 89.0603151,12.9453571 C89.0603151,13.6061264 89.5994965,14.1417857 90.2646104,14.1417857 C90.9297244,14.1417857 91.4689058,13.6061264 91.4689058,12.9453571 C91.6363502,8.641887 95.1966616,5.23891579 99.5316629,5.23891579 C103.866664,5.23891579 107.426976,8.641887 107.59442,12.9453571 C107.59442,13.6061264 108.133601,14.1417857 108.798715,14.1417857 C109.463829,14.1417857 110.003011,13.6061264 110.003011,12.9453571 Z" id="Shape" fill="#662059"></path>
            <path d="M96.803934,12.9453571 C96.9336947,9.14460668 94.9667331,5.57607569 91.6734811,3.63750875 C88.380229,1.69894182 84.2849434,1.69894182 80.9916914,3.63750875 C77.6984393,5.57607569 75.7314777,9.14460668 75.8612384,12.9453571 C75.8612384,13.6061264 76.4004198,14.1417857 77.0655337,14.1417857 C77.7306477,14.1417857 78.2698291,13.6061264 78.2698291,12.9453571 C78.4372735,8.641887 81.9975849,5.23891579 86.3325862,5.23891579 C90.6675876,5.23891579 94.2278989,8.641887 94.3953434,12.9453571 C94.3953434,13.6061264 94.9345248,14.1417857 95.5996387,14.1417857 C96.2647527,14.1417857 96.803934,13.6061264 96.803934,12.9453571 Z" id="Shape" fill="#662059"></path>
            <path d="M102.199177,57.0816071 L102.199177,58.2780357 C102.199177,58.938805 102.738358,59.4744643 103.403472,59.4744643 C104.068586,59.4744643 104.607768,58.938805 104.607768,58.2780357 L104.607768,57.0816071 C104.607768,56.4208379 104.068586,55.8851786 103.403472,55.8851786 C102.738358,55.8851786 102.199177,56.4208379 102.199177,57.0816071 Z M102.199177,45.1173214 L102.199177,48.7066071 C102.199177,49.3673764 102.738358,49.9030357 103.403472,49.9030357 C104.068586,49.9030357 104.607768,49.3673764 104.607768,48.7066071 L104.607768,45.1173214 C104.607768,44.4565522 104.068586,43.9208929 103.403472,43.9208929 C102.738358,43.9208929 102.199177,44.4565522 102.199177,45.1173214 Z" id="Shape" fill="#FFFFFF"></path>
            <rect id="Rectangle-path" fill="#CEA045" x="40.9968889" y="29.39625" width="9.79092095" height="35.8689286"></rect>
            <rect id="Rectangle-path" fill="#F4C95E" x="50.7757669" y="29.39625" width="23.2910715" height="35.8689286"></rect>
            <path d="M50.7757669,66.4616071 L74.0668384,66.4616071 C74.7319523,66.4616071 75.2711337,65.9259478 75.2711337,65.2651786 L75.2711337,29.3723214 C75.2711337,28.7115522 74.7319523,28.1758929 74.0668384,28.1758929 L50.7757669,28.1758929 C50.110653,28.1758929 49.5714716,28.7115522 49.5714716,29.3723214 C49.5714716,30.0330907 50.110653,30.56875 50.7757669,30.56875 L72.8625431,30.56875 L72.8625431,64.06875 L50.7757669,64.06875 C50.110653,64.06875 49.5714716,64.6044093 49.5714716,65.2651786 C49.5714716,65.9259478 50.110653,66.4616071 50.7757669,66.4616071 Z" id="Shape" fill="#662059"></path>
            <path d="M51.9800622,50.50125 L51.9800622,29.39625 C51.9800622,28.7354807 51.4408808,28.1998214 50.7757669,28.1998214 L40.8523735,28.1998214 C40.1872595,28.1998214 39.6480781,28.7354807 39.6480781,29.39625 L39.6480781,65.2891071 C39.6480781,65.9498764 40.1872595,66.4855357 40.8523735,66.4855357 L50.7757669,66.4855357 C51.4408808,66.4855357 51.9800622,65.9498764 51.9800622,65.2891071 L51.9800622,57.6319643 C51.9800622,56.971195 51.4408808,56.4355357 50.7757669,56.4355357 C50.110653,56.4355357 49.5714716,56.971195 49.5714716,57.6319643 L49.5714716,64.0926786 L42.0566688,64.0926786 L42.0566688,30.5926786 L49.5714716,30.5926786 L49.5714716,50.50125 C49.5714716,51.1620193 50.110653,51.6976786 50.7757669,51.6976786 C51.4408808,51.6976786 51.9800622,51.1620193 51.9800622,50.50125 Z" id="Shape" fill="#662059"></path>
            <path d="M65.167096,29.39625 C65.2777688,26.6425591 63.8621166,24.049658 61.4784197,22.64009 C59.0947228,21.2305221 56.1255629,21.2305221 53.741866,22.64009 C51.3581691,24.049658 49.9425169,26.6425591 50.0531897,29.39625 C50.0531897,30.0570193 50.5923711,30.5926786 51.257485,30.5926786 C51.922599,30.5926786 52.4617803,30.0570193 52.4617803,29.39625 C52.594661,26.6675438 54.8602824,24.5229825 57.6101428,24.5229825 C60.3600032,24.5229825 62.6256246,26.6675438 62.7585053,29.39625 C62.7585053,30.0570193 63.2976867,30.5926786 63.9628007,30.5926786 C64.6279146,30.5926786 65.167096,30.0570193 65.167096,29.39625 Z" id="Shape" fill="#662059"></path>
            <path d="M66.2509618,54.2341071 L66.2509618,58.7446429 C66.2509618,59.4054121 66.7901431,59.9410714 67.4552571,59.9410714 C68.120371,59.9410714 68.6595524,59.4054121 68.6595524,58.7446429 L68.6595524,54.2341071 C68.6595524,53.5733379 68.120371,53.0376786 67.4552571,53.0376786 C66.7901431,53.0376786 66.2509618,53.5733379 66.2509618,54.2341071" id="Shape" fill="#FFFFFF"></path>
            <path d="M134.931924,19.9923214 L131.319038,19.9923214" id="Shape" fill="#FFFFFF"></path>
            <path d="M134.931924,18.7958929 L131.319038,18.7958929 C130.653924,18.7958929 130.114743,19.3315522 130.114743,19.9923214 C130.114743,20.6530907 130.653924,21.18875 131.319038,21.18875 L134.931924,21.18875 C135.597038,21.18875 136.136219,20.6530907 136.136219,19.9923214 C136.136219,19.3315522 135.597038,18.7958929 134.931924,18.7958929" id="Shape" fill="#662059"></path>
            <polygon id="Shape" fill="#FB5956" points="105.234001 22.3492857 105.234001 31.40625 106.101094 31.40625 111.074834 31.40625 111.074834 31.40625 111.074834 31.40625 111.074834 31.40625 111.074834 65.2891071 135.919446 65.2891071 179.033218 65.2891071 179.033218 55.5501786 179.033218 56.8183929 179.033218 31.40625 184.801793 31.40625 184.874051 31.40625 184.874051 22.3492857"></polygon>
            <path d="M134.42612,22.3253571 L155.693975,22.3253571 C159.994997,22.3253571 163.872513,19.7514081 165.518443,15.8037383 C167.164373,11.8560686 166.25458,7.31210414 163.213298,4.29068852 C160.172016,1.26927291 155.598174,0.365422184 151.624547,2.00060053 C147.650921,3.63577888 145.060048,7.48796592 145.060048,11.7608929 C145.060048,7.48796592 142.469174,3.63577888 138.495548,2.00060053 C134.521921,0.365422184 129.948079,1.26927291 126.906797,4.29068852 C123.865515,7.31210414 122.955722,11.8560686 124.601652,15.8037383 C126.247582,19.7514081 130.125098,22.3253571 134.42612,22.3253571 Z" id="Shape" fill="#FB5956"></path>
            <rect id="Rectangle-path" fill="#F4C95E" x="111.556552" y="44.1123214" width="38.2604623" height="6.60428571"></rect>
            <rect id="Rectangle-path" fill="#F4C95E" x="127.368949" y="23.0671429" width="6.64771017" height="42.1621429"></rect>
            <rect id="Rectangle-path" fill="#C93E4F" x="149.817014" y="31.2267857" width="29.2162045" height="34.0623214"></rect>
            <rect id="Rectangle-path" fill="#C93E4F" x="155.681932" y="22.0980357" width="29.2162045" height="9.30821429"></rect>
            <rect id="Rectangle-path" fill="#CEA045" x="149.949487" y="44.1123214" width="29.7220085" height="6.60428571"></rect>
            <path d="M166.809621,64.0926786 L112.279129,64.0926786 L112.279129,31.40625 C112.279129,30.7454807 111.739948,30.2098214 111.074834,30.2098214 L106.438297,30.2098214 L106.438297,23.5457143 L183.669755,23.5457143 L183.669755,30.2098214 L179.033218,30.2098214 C178.368105,30.2098214 177.828923,30.7454807 177.828923,31.40625 L177.828923,61.0657143 C177.828923,61.7264835 178.368105,62.2621429 179.033218,62.2621429 C179.698332,62.2621429 180.237514,61.7264835 180.237514,61.0657143 L180.237514,32.6026786 L184.874051,32.6026786 C185.539165,32.6026786 186.078346,32.0670193 186.078346,31.40625 L186.078346,22.3492857 C186.078346,21.6885165 185.539165,21.1528571 184.874051,21.1528571 L105.234001,21.1528571 C104.568887,21.1528571 104.029706,21.6885165 104.029706,22.3492857 L104.029706,31.40625 C104.029706,32.0670193 104.568887,32.6026786 105.234001,32.6026786 L109.870538,32.6026786 L109.870538,65.3010714 C109.870538,65.9618407 110.40972,66.4975 111.074834,66.4975 L166.809621,66.4975 C167.474735,66.4975 168.013916,65.9618407 168.013916,65.3010714 C168.013916,64.6403022 167.474735,64.1046429 166.809621,64.1046429 L166.809621,64.0926786 Z" id="Shape" fill="#662059"></path>
            <path d="M123.792192,11.7608929 L124.996487,11.7608929 C124.996487,6.5870696 129.218278,2.39285714 134.42612,2.39285714 C139.633962,2.39285714 143.855752,6.5870696 143.855752,11.7608929 C143.855752,14.3810714 143.855752,22.3253571 143.855752,22.3253571 L145.060048,22.3253571 L145.060048,21.1289286 L134.42612,21.1289286 C129.218278,21.1289286 124.996487,16.9347161 124.996487,11.7608929 L122.587897,11.7608929 C122.587897,18.2562546 127.88805,23.5217857 134.42612,23.5217857 L145.060048,23.5217857 C145.725161,23.5217857 146.264343,22.9861264 146.264343,22.3253571 L146.264343,11.7608929 C146.264343,5.26553109 140.96419,-5.68434189e-14 134.42612,-5.68434189e-14 C127.88805,-5.68434189e-14 122.587897,5.26553109 122.587897,11.7608929 L123.792192,11.7608929 Z" id="Shape" fill="#662059"></path>
            <path d="M166.31586,11.7608929 L167.520155,11.7608929 C167.520155,5.26553109 162.220002,0 155.681932,0 C149.143862,0 143.843709,5.26553109 143.843709,11.7608929 C143.843709,14.3810714 143.843709,22.3253571 143.843709,22.3253571 C143.843709,22.9861264 144.382891,23.5217857 145.048005,23.5217857 L155.681932,23.5217857 C162.220002,23.5217857 167.520155,18.2562546 167.520155,11.7608929 L165.111565,11.7608929 C165.111565,16.9347161 160.889774,21.1289286 155.681932,21.1289286 L145.048005,21.1289286 L145.048005,22.3253571 L146.2523,22.3253571 L146.2523,11.7608929 C146.2523,6.5870696 150.47409,2.39285714 155.681932,2.39285714 C160.889774,2.39285714 165.111565,6.5870696 165.111565,11.7608929 L166.31586,11.7608929 Z" id="Shape" fill="#662059"></path>
            <path d="M160.559328,11.7608929 C160.559328,9.09138507 158.381035,6.92732143 155.693975,6.92732143 C153.006915,6.92732143 150.828622,9.09138507 150.828622,11.7608929 L150.828622,16.5466071 L155.645803,16.5466071 C156.94001,16.5723274 158.190176,16.079497 159.114518,15.1791987 C160.03886,14.2789003 160.559587,13.0469022 160.559328,11.7608929 Z" id="Shape" fill="#FFFFFF"></path>
            <path d="M160.559328,11.7608929 L161.763624,11.7608929 C161.763624,8.43061582 159.046149,5.73089286 155.693975,5.73089286 C152.341801,5.73089286 149.624327,8.43061582 149.624327,11.7608929 C149.624327,12.9573214 149.624327,16.5466071 149.624327,16.5466071 C149.624327,17.2073764 150.163508,17.7430357 150.828622,17.7430357 L155.645803,17.7430357 C158.971373,17.7430357 161.66728,15.0647391 161.66728,11.7608929 L159.258689,11.7608929 C159.258689,13.7432006 157.641145,15.3501786 155.645803,15.3501786 L150.828622,15.3501786 L150.828622,16.5466071 L152.032917,16.5466071 L152.032917,11.7608929 C152.032917,9.75215432 153.672029,8.12375 155.693975,8.12375 C157.715922,8.12375 159.355033,9.75215432 159.355033,11.7608929 L160.559328,11.7608929 Z" id="Shape" fill="#662059"></path>
            <path d="M111.556552,45.3207143 L127.140133,45.3207143 C127.805247,45.3207143 128.344428,44.785055 128.344428,44.1242857 C128.344428,43.4635165 127.805247,42.9278571 127.140133,42.9278571 L111.556552,42.9278571 C110.891438,42.9278571 110.352256,43.4635165 110.352256,44.1242857 C110.352256,44.785055 110.891438,45.3207143 111.556552,45.3207143" id="Shape" fill="#662059"></path>
            <path d="M111.520423,51.8891071 L127.176262,51.8891071 C127.841376,51.8891071 128.380557,51.3534478 128.380557,50.6926786 C128.380557,50.0319093 127.841376,49.49625 127.176262,49.49625 L111.520423,49.49625 C110.855309,49.49625 110.316128,50.0319093 110.316128,50.6926786 C110.316128,51.3534478 110.855309,51.8891071 111.520423,51.8891071" id="Shape" fill="#662059"></path>
            <path d="M134.534506,45.3207143 L179.093433,45.3207143 C179.758547,45.3207143 180.297729,44.785055 180.297729,44.1242857 C180.297729,43.4635165 179.758547,42.9278571 179.093433,42.9278571 L134.534506,42.9278571 C133.869392,42.9278571 133.330211,43.4635165 133.330211,44.1242857 C133.330211,44.785055 133.869392,45.3207143 134.534506,45.3207143" id="Shape" fill="#662059"></path>
            <path d="M134.42612,51.8891071 L178.985047,51.8891071 C179.650161,51.8891071 180.189342,51.3534478 180.189342,50.6926786 C180.189342,50.0319093 179.650161,49.49625 178.985047,49.49625 L134.42612,49.49625 C133.761006,49.49625 133.221825,50.0319093 133.221825,50.6926786 C133.221825,51.3534478 133.761006,51.8891071 134.42612,51.8891071" id="Shape" fill="#662059"></path>
            <path d="M128.344428,64.3798214 L128.344428,22.4210714 C128.344428,21.7603022 127.805247,21.2246429 127.140133,21.2246429 C126.475019,21.2246429 125.935838,21.7603022 125.935838,22.4210714 L125.935838,64.3798214 C125.935838,65.0405907 126.475019,65.57625 127.140133,65.57625 C127.805247,65.57625 128.344428,65.0405907 128.344428,64.3798214" id="Shape" fill="#662059"></path>
            <path d="M134.968053,64.5473214 L134.968053,22.4210714 C134.968053,21.7603022 134.428871,21.2246429 133.763757,21.2246429 C133.098643,21.2246429 132.559462,21.7603022 132.559462,22.4210714 L132.559462,64.5473214 C132.559462,65.2080907 133.098643,65.74375 133.763757,65.74375 C134.428871,65.74375 134.968053,65.2080907 134.968053,64.5473214" id="Shape" fill="#662059"></path>
            <path d="M180.237514,61.05375 L180.237514,56.8183929 C180.237514,56.1576236 179.698332,55.6219643 179.033218,55.6219643 C178.368105,55.6219643 177.828923,56.1576236 177.828923,56.8183929 L177.828923,61.05375 C177.828923,61.7145193 178.368105,62.2501786 179.033218,62.2501786 C179.698332,62.2501786 180.237514,61.7145193 180.237514,61.05375" id="Shape" fill="#662059"></path>
            <path d="M135.919446,66.4855357 L172.530024,66.4855357 C173.195138,66.4855357 173.734319,65.9498764 173.734319,65.2891071 C173.734319,64.6283379 173.195138,64.0926786 172.530024,64.0926786 L135.919446,64.0926786 C135.254332,64.0926786 134.715151,64.6283379 134.715151,65.2891071 C134.715151,65.9498764 135.254332,66.4855357 135.919446,66.4855357" id="Shape" fill="#662059"></path>
            <path d="M109.870538,31.40625 L109.870538,65.3010714 C109.870538,65.9618407 110.40972,66.4975 111.074834,66.4975 L135.919446,66.4975 C136.58456,66.4975 137.123741,65.9618407 137.123741,65.3010714 C137.123741,64.6403022 136.58456,64.1046429 135.919446,64.1046429 L112.279129,64.1046429 L112.279129,31.40625 C112.279129,30.7454807 111.739948,30.2098214 111.074834,30.2098214 C110.40972,30.2098214 109.870538,30.7454807 109.870538,31.40625 Z" id="Shape" fill="#662059"></path>
            <path d="M180.237514,55.5501786 L180.237514,31.40625 C180.237514,30.7454807 179.698332,30.2098214 179.033218,30.2098214 C178.368105,30.2098214 177.828923,30.7454807 177.828923,31.40625 L177.828923,55.5621429 C177.828923,56.2229121 178.368105,56.7585714 179.033218,56.7585714 C179.698332,56.7585714 180.237514,56.2229121 180.237514,55.5621429" id="Shape" fill="#662059"></path>
            <path d="M106.101094,32.6026786 L160.800187,32.6026786 C161.465301,32.6026786 162.004483,32.0670193 162.004483,31.40625 C162.004483,30.7454807 161.465301,30.2098214 160.800187,30.2098214 L106.101094,30.2098214 C105.43598,30.2098214 104.896799,30.7454807 104.896799,31.40625 C104.896799,32.0670193 105.43598,32.6026786 106.101094,32.6026786" id="Shape" fill="#662059"></path>
            <path d="M169.085739,32.6026786 L184.741578,32.6026786 C185.406692,32.6026786 185.945874,32.0670193 185.945874,31.40625 C185.945874,30.7454807 185.406692,30.2098214 184.741578,30.2098214 L169.085739,30.2098214 C168.420625,30.2098214 167.881444,30.7454807 167.881444,31.40625 C167.881444,32.0670193 168.420625,32.6026786 169.085739,32.6026786" id="Shape" fill="#662059"></path>
            <path d="M139.327602,16.5944643 L134.51042,16.5944643 C131.849965,16.5944643 129.693239,14.451827 129.693239,11.80875 C129.693239,9.16567298 131.849965,7.02303571 134.51042,7.02303571 C137.170876,7.02303571 139.327602,9.16567298 139.327602,11.80875" id="Shape" fill="#FFFFFF"></path>
            <path d="M139.327602,15.3980357 L134.51042,15.3980357 C132.515079,15.3980357 130.897535,13.7910578 130.897535,11.80875 C130.897535,9.82644224 132.515079,8.21946429 134.51042,8.21946429 C136.505762,8.21946429 138.123306,9.82644224 138.123306,11.80875 C138.123306,12.4695193 138.662488,13.0051786 139.327602,13.0051786 C139.992716,13.0051786 140.531897,12.4695193 140.531897,11.80875 C140.531897,8.50490373 137.83599,5.82660714 134.51042,5.82660714 C131.184851,5.82660714 128.488944,8.50490373 128.488944,11.80875 C128.488944,15.1125963 131.184851,17.7908929 134.51042,17.7908929 L139.327602,17.7908929 C139.992716,17.7908929 140.531897,17.2552335 140.531897,16.5944643 C140.531897,15.933695 139.992716,15.3980357 139.327602,15.3980357 Z" id="Shape" fill="#662059"></path>
            <path d="M151.021309,65.2891071 L151.021309,31.40625 C151.021309,30.7454807 150.482128,30.2098214 149.817014,30.2098214 C149.1519,30.2098214 148.612719,30.7454807 148.612719,31.40625 L148.612719,65.3010714 C148.612719,65.9618407 149.1519,66.4975 149.817014,66.4975 C150.482128,66.4975 151.021309,65.9618407 151.021309,65.3010714 L151.021309,65.2891071 Z" id="Shape" fill="#662059"></path>
            <path d="M156.705583,31.40625 L156.705583,22.3253571 C156.705583,21.6645879 156.166402,21.1289286 155.501288,21.1289286 C154.836174,21.1289286 154.296993,21.6645879 154.296993,22.3253571 L154.296993,31.40625 C154.296993,32.0670193 154.836174,32.6026786 155.501288,32.6026786 C156.166402,32.6026786 156.705583,32.0670193 156.705583,31.40625" id="Shape" fill="#662059"></path>
            <ellipse id="Oval" fill="#FB5956" cx="30.8326364" cy="54.0307143" rx="11.7298364" ry="11.6532143"></ellipse>
            <path d="M36.9986284,65.325 C42.7325637,62.2342288 45.2521963,55.385075 42.8756157,49.3495003 C40.4990352,43.3139255 33.97021,39.9813155 27.6472753,41.576261 C21.3243406,43.1712066 17.1866377,49.1944235 17.9961748,55.6252813 C18.8057119,62.0561392 24.3090702,66.8815121 30.8326364,66.8803571 C31.4977503,66.8803571 32.0369317,66.3446978 32.0369317,65.6839286 C32.0369317,65.0231593 31.4977503,64.4875 30.8326364,64.4875 C25.529564,64.482052 21.0607482,60.5537914 20.4095721,55.3252265 C19.7583959,50.0966617 23.1287369,45.2048097 28.2705541,43.9154729 C33.4123713,42.6261361 38.7158074,45.3429944 40.6402865,50.252272 C42.5647656,55.1615497 40.5077504,60.7261956 35.8425049,63.23125 C35.463882,63.4449714 35.2287887,63.8431315 35.2257824,64.2757474 C35.2227761,64.7083632 35.4523135,65.1097101 35.8279301,65.3286045 C36.2035467,65.547499 36.6681774,65.5506857 37.0468003,65.3369643 L36.9986284,65.325 Z" id="Shape" fill="#662059"></path>
            <path d="M38.4558258,55.4305357 C38.4574284,52.1788549 36.688203,49.1807486 33.8313317,47.5939286 C33.4548601,47.3802071 32.9922173,47.3822536 32.6176763,47.5992972 C32.2431353,47.8163407 32.0135978,48.2154073 32.0155285,48.6461723 C32.0174592,49.0769373 32.2505647,49.4739572 32.6270364,49.6876786 C34.7264459,50.8514924 36.0262629,53.0540739 36.0231492,55.4425 C36.0231492,56.1032693 36.5623306,56.6389286 37.2274446,56.6389286 C37.8925585,56.6389286 38.4317399,56.1032693 38.4317399,55.4425 L38.4558258,55.4305357 Z" id="Shape" fill="#FFFFFF"></path>
            <path d="M35.1680996,39.195 L26.051584,39.195 C25.3332609,39.195 24.750945,39.7735121 24.750945,40.4871429 L24.750945,43.8969643 L36.4807815,43.8969643 L36.4807815,40.4991071 C36.4807815,39.7788687 35.8930737,39.195 35.1680996,39.195 Z" id="Shape" fill="#F4C95E"></path>
            <path d="M35.1680996,39.195 L35.1680996,37.9985714 L26.051584,37.9985714 C24.6708861,38.0051189 23.5532403,39.115464 23.5466497,40.4871429 L23.5466497,43.8969643 C23.5466497,44.5577335 24.0858311,45.0933929 24.750945,45.0933929 L36.4807815,45.0933929 C37.1458954,45.0933929 37.6850768,44.5577335 37.6850768,43.8969643 L37.6850768,40.4991071 C37.6784862,39.1274283 36.5608404,38.0170832 35.1801425,38.0105357 L35.1801425,40.4033929 L35.2764861,40.5110714 L35.2764861,42.7244643 L25.9552404,42.7244643 L25.9552404,40.4991071 L26.0636269,40.3914286 L35.1801425,40.3914286 L35.1801425,39.195 L35.1680996,39.195 Z" id="Shape" fill="#662059"></path>
            <path d="M35.2403573,38.8958929 C35.2403573,36.3519312 33.164509,34.2896429 30.6038203,34.2896429 C28.0431316,34.2896429 25.9672833,36.3519312 25.9672833,38.8958929 C25.9672833,39.5566621 26.5064647,40.0923214 27.1715786,40.0923214 C27.8366926,40.0923214 28.375874,39.5566621 28.375874,38.8958929 C28.375874,37.6734697 29.3733595,36.6825 30.6038203,36.6825 C31.8342811,36.6825 32.8317666,37.6734697 32.8317666,38.8958929 C32.8317666,39.5566621 33.370948,40.0923214 34.036062,40.0923214 C34.7011759,40.0923214 35.2403573,39.5566621 35.2403573,38.8958929 Z" id="Shape" fill="#662059"></path>
            <path d="M31.7840297,34.8998214 L30.2786606,28.6544643 C30.0907218,28.0508313 29.4627089,27.6964442 28.8445862,27.8452173 C28.2264635,27.9939905 27.8313445,28.5946306 27.9423276,29.2167857 L29.4476968,35.42625 C29.6356356,36.029883 30.2636484,36.3842701 30.8817711,36.2354969 C31.4998939,36.0867238 31.8950128,35.4860837 31.7840297,34.8639286" id="Shape" fill="#662059"></path>
            <path d="M31.6756431,35.7373214 L33.8795036,31.5378571 C34.0917751,31.1583847 34.0804796,30.6944514 33.8499889,30.3256187 C33.6194981,29.9567859 33.2059828,29.7409345 32.7694907,29.7616078 C32.3329986,29.7822811 31.942028,30.0362349 31.7479008,30.4251786 L29.5440404,34.6366071 C29.3317688,35.0160795 29.3430643,35.4800129 29.5735551,35.8488456 C29.8040459,36.2176783 30.2175611,36.4335298 30.6540533,36.4128565 C31.0905454,36.3921832 31.481516,36.1382294 31.6756431,35.7492857" id="Shape" fill="#662059"></path>
            <ellipse id="Oval" fill="#56B2AD" cx="13.0211086" cy="54.0307143" rx="11.7298364" ry="11.6532143"></ellipse>
            <path d="M19.1871007,65.325 C24.9210359,62.2342288 27.4406685,55.385075 25.0640879,49.3495003 C22.6875074,43.3139255 16.1586822,39.9813155 9.83574751,41.576261 C3.51281283,43.1712066 -0.624890039,49.1944235 0.184647053,55.6252813 C0.994184144,62.0561392 6.49754245,66.8815121 13.0211086,66.8803571 C13.6862226,66.8803571 14.2254039,66.3446978 14.2254039,65.6839286 C14.2254039,65.0231593 13.6862226,64.4875 13.0211086,64.4875 C7.71919362,64.4760374 3.25548383,60.5443611 2.60895084,55.3163762 C1.96241784,50.0883914 5.33539339,45.20019 10.4768355,43.914039 C15.6182776,42.627888 20.9191778,45.3462868 22.841844,50.2550421 C24.7645102,55.1637974 22.7072462,60.7267198 18.0430201,63.23125 C17.6643972,63.4449714 17.4293039,63.8431315 17.4262976,64.2757474 C17.4232912,64.7083632 17.6528286,65.1097101 18.0284452,65.3286045 C18.4040618,65.547499 18.8686925,65.5506857 19.2473154,65.3369643 L19.1871007,65.325 Z" id="Shape" fill="#662059"></path>
            <path d="M20.644298,55.4305357 C20.6459006,52.1788549 18.8766752,49.1807486 16.019804,47.5939286 C15.6433323,47.3802071 15.1806895,47.3822536 14.8061485,47.5992972 C14.4316075,47.8163407 14.2020701,48.2154073 14.2040008,48.6461723 C14.2059315,49.0769373 14.439037,49.4739572 14.8155086,49.6876786 C16.9149181,50.8514924 18.2147351,53.0540739 18.2116214,55.4425 C18.2116214,56.1032693 18.7508028,56.6389286 19.4159168,56.6389286 C20.0810307,56.6389286 20.6202121,56.1032693 20.6202121,55.4425 L20.644298,55.4305357 Z" id="Shape" fill="#FFFFFF"></path>
            <path d="M17.3565718,39.195 L8.26414211,39.195 C7.54854365,39.2014929 6.97003871,39.7762189 6.96350316,40.4871429 L6.96350316,43.8969643 L18.6934002,43.8969643 L18.6933396,40.4991071 C18.6967487,40.1480283 18.5562088,39.8106862 18.3040533,39.5646915 C18.0518978,39.3186968 17.7098387,39.185231 17.3565718,39.195 Z" id="Shape" fill="#F4C95E"></path>
            <path d="M17.3565718,39.195 L17.3565718,37.9985714 L8.26414211,37.9985714 C6.88344422,38.0051189 5.7657984,39.115464 5.75920784,40.4871429 L5.75920784,43.8969643 C5.75920784,44.5577335 6.29838922,45.0933929 6.96350316,45.0933929 L18.6933396,45.0933929 C19.3584535,45.0933929 19.8976349,44.5577335 19.8976349,43.8969643 L19.8976349,40.4991071 C19.8910443,39.1274283 18.7733985,38.0170832 17.3927006,38.0105357 L17.3927006,40.4033929 L17.4890443,40.5110714 L17.4890443,42.7244643 L8.14371257,42.7244643 L8.14371257,40.4991071 L8.25209915,40.3914286 L17.3686147,40.3914286 L17.3686147,39.195 L17.3565718,39.195 Z" id="Shape" fill="#662059"></path>
            <path d="M17.4288295,38.8958929 C17.4288295,36.3519312 15.3529812,34.2896429 12.7922925,34.2896429 C10.2316038,34.2896429 8.15575553,36.3519312 8.15575553,38.8958929 C8.15575553,39.5566621 8.69493691,40.0923214 9.36005085,40.0923214 C10.0251648,40.0923214 10.5643462,39.5566621 10.5643462,38.8958929 C10.5643462,37.6734697 11.5618317,36.6825 12.7922925,36.6825 C14.0227533,36.6825 15.0202389,37.6734697 15.0202389,38.8958929 C15.0202389,39.5566621 15.5594202,40.0923214 16.2245342,40.0923214 C16.8896481,40.0923214 17.4288295,39.5566621 17.4288295,38.8958929 Z" id="Shape" fill="#662059"></path>
            <path d="M13.9725019,34.8998214 L12.4671328,28.6544643 C12.279194,28.0508313 11.6511811,27.6964442 11.0330584,27.8452173 C10.4149357,27.9939905 10.0198167,28.5946306 10.1307999,29.2167857 L11.636169,35.42625 C11.8241078,36.029883 12.4521206,36.3842701 13.0702434,36.2354969 C13.6883661,36.0867238 14.083485,35.4860837 13.9725019,34.8639286" id="Shape" fill="#662059"></path>
            <path d="M13.8641153,35.7373214 L16.0679758,31.5378571 C16.2802474,31.1583847 16.2689519,30.6944514 16.0384611,30.3256187 C15.8079703,29.9567859 15.3944551,29.7409345 14.9579629,29.7616078 C14.5214708,29.7822811 14.1305002,30.0362349 13.9363731,30.4251786 L11.7325126,34.6366071 C11.5202411,35.0160795 11.5315366,35.4800129 11.7620273,35.8488456 C11.9925181,36.2176783 12.4060334,36.4335298 12.8425255,36.4128565 C13.2790176,36.3921832 13.6699882,36.1382294 13.8641153,35.7492857" id="Shape" fill="#662059"></path>
            <path d="M164.388987,37.8669643 C164.388987,37.8669643 171.096912,45.30875 172.819055,47.0196429 L174.529154,48.7185714 L174.529154,58.0985714 C171.441501,56.4341333 168.603881,54.3480115 166.099087,51.9010714 L164.388987,37.8669643 Z" id="Shape" fill="#FFFFFF"></path>
            <path d="M188.330378,56.0646429 L194.08691,61.7835714 C194.08691,61.7835714 199.26538,58.29 198.036999,49.5321429 L189.02887,49.5321429 C190.378713,51.6001332 190.087406,54.3245305 188.330378,56.0646429" id="Shape" fill="#FB5956"></path>
            <path d="M158.186866,37.8669643 C159.009068,37.049415 160.124647,36.5900602 161.287927,36.5900602 C162.451207,36.5900602 163.566786,37.049415 164.388987,37.8669643 L166.099087,39.5658929 L166.099087,51.8891071 L158.186866,44.0285714 C157.363942,43.2117407 156.901566,42.1034491 156.901566,40.9477679 C156.901566,39.7920866 157.363942,38.683795 158.186866,37.8669643 Z" id="Shape" fill="#FB5956"></path>
            <path d="M181.477938,53.7794643 C182.817842,54.7482827 184.085643,55.811877 185.271468,56.9619643 L188.318335,56.0526786 L194.074867,61.7716071 C190.523229,63.8659756 186.475107,64.9849436 182.345031,65.0139286 L181.477938,53.7794643" id="Shape" fill="#FFFFFF"></path>
            <path d="M174.456896,47.8930357 L180.538588,53.935 L182.248687,55.6339286 L182.248687,65.0139286 C179.221168,64.0585049 176.4811,62.3684572 174.276252,60.0966071 L174.456896,47.8930357 Z" id="Shape" fill="#FB5956"></path>
            <path d="M178.358813,59.0796429 C179.019731,59.0832689 179.59113,58.6224309 179.723388,57.9791009 C179.855647,57.335771 179.511904,56.6892446 178.902487,56.4351106 C178.293069,56.1809766 177.58782,56.3900619 177.218259,56.9344339 C176.848697,57.4788059 176.917821,58.2067487 177.383334,58.6728571 C177.642241,58.9302559 177.992548,59.0763379 178.358813,59.0796429" id="Shape" fill="#FFFFFF"></path>
            <path d="M196.965176,58.0866071 C196.327999,59.5362852 195.339096,60.8064733 194.08691,61.7835714 C193.004448,62.45551 191.854084,63.0128994 190.654668,63.4466071 C191.544729,64.7867169 193.132792,65.4968387 194.732708,65.2701528 C196.332624,65.0434668 197.657553,63.9206144 198.135038,62.3867424 C198.612522,60.8528705 198.156957,59.1829787 196.965176,58.0985714" id="Shape" fill="#F7DCDC"></path>
            <path d="M194.110996,56.9739286 C192.831052,56.9763797 191.623254,57.5630998 190.835313,58.5651786 L194.074867,61.7835714 C195.327053,60.8064733 196.315956,59.5362852 196.953133,58.0866071 C196.182355,57.3706095 195.166227,56.9728017 194.110996,56.9739286" id="Shape" fill="#FF9994"></path>
            <path d="M190.835313,58.5651786 C189.715997,59.981256 189.643041,61.9526979 190.654668,63.4466071 C191.854084,63.0128994 193.004448,62.45551 194.08691,61.7835714 L190.835313,58.5651786" id="Shape" fill="#FFFFFF"></path>
            <path d="M186.499849,41.1691071 C185.44233,42.2192488 184.848182,43.6438287 184.848182,45.1292857 C184.848182,46.6147427 185.44233,48.0393226 186.499849,49.0894643 L187.704145,50.2858929 C188.941257,51.5149237 188.941257,53.5075762 187.704145,54.736607 C186.467033,55.9656378 184.461278,55.9656378 183.224166,54.7366071 L165.328338,37.0294643 C163.126811,34.8423183 159.55743,34.8423184 157.355903,37.0294645 C155.154376,39.2166107 155.154376,42.7626752 157.355903,44.9498214 L174.830228,62.31 C177.541846,65.0132756 181.225255,66.5327502 185.066738,66.5327502 C188.908221,66.5327502 192.59163,65.0132756 195.303248,62.31 L194.448199,61.4605357 L194.929917,62.5133929 C195.045965,62.4549217 195.151708,62.3781527 195.243033,62.2860714 C197.964084,59.592166 199.493549,55.9328176 199.493549,52.1164286 C199.493549,48.3000395 197.964084,44.6406912 195.243033,41.9467857 L194.424113,41.1332143 C193.946296,40.7266956 193.234035,40.7540275 192.789206,41.1959511 C192.344376,41.6378748 192.316865,42.3454832 192.726056,42.8201786 L193.544977,43.63375 C198.246328,48.3058018 198.246328,55.8791982 193.544977,60.55125 L194.400027,61.4007143 L193.858094,60.3358929 C193.742046,60.394364 193.636303,60.471133 193.544977,60.5632143 C188.842206,65.2338553 181.219013,65.2338553 176.516241,60.5632143 L159.041916,43.2030357 C157.7782,41.9475741 157.7782,39.9120687 159.041916,38.6566071 C160.305633,37.4011456 162.354522,37.4011456 163.618238,38.6566071 L181.502024,56.4235714 C183.704866,58.4080435 187.08763,58.3259547 189.190318,56.2370012 C191.293007,54.1480477 191.375636,50.787381 189.378115,48.5989286 L188.17382,47.4025 C187.564886,46.8007027 187.222522,45.9825921 187.222522,45.1292857 C187.222522,44.2759793 187.564886,43.4578688 188.17382,42.8560714 C188.583012,42.3813761 188.5555,41.6737677 188.110671,41.231844 C187.665841,40.7899203 186.95358,40.7625885 186.475764,41.1691071 L186.499849,41.1691071 Z" id="Shape" fill="#662059"></path>
            <path d="M164.894791,39.5658929 L164.894791,46.5410714 C164.894791,47.2018407 165.433973,47.7375 166.099087,47.7375 C166.764201,47.7375 167.303382,47.2018407 167.303382,46.5410714 L167.303382,39.5658929 C167.303382,38.9051236 166.764201,38.3694643 166.099087,38.3694643 C165.433973,38.3694643 164.894791,38.9051236 164.894791,39.5658929" id="Shape" fill="#662059"></path>
            <path d="M173.011742,47.6298214 L173.011742,59.9530357 C173.011742,60.613805 173.550923,61.1494643 174.216037,61.1494643 C174.881151,61.1494643 175.420333,60.613805 175.420333,59.9530357 L175.420333,47.6298214 C175.420333,46.9690522 174.881151,46.4333929 174.216037,46.4333929 C173.550923,46.4333929 173.011742,46.9690522 173.011742,47.6298214" id="Shape" fill="#662059"></path>
            <path d="M181.140735,59.5701786 L181.140735,65.0139286 C181.140735,65.6746978 181.679917,66.2103571 182.345031,66.2103571 C183.010145,66.2103571 183.549326,65.6746978 183.549326,65.0139286 L183.549326,59.5701786 C183.549326,58.9094093 183.010145,58.37375 182.345031,58.37375 C181.679917,58.37375 181.140735,58.9094093 181.140735,59.5701786" id="Shape" fill="#662059"></path>
            <path d="M198.024956,48.32375 L189.02887,48.32375 C188.363756,48.32375 187.824574,48.8594093 187.824574,49.5201786 C187.824574,50.1809478 188.363756,50.7166071 189.02887,50.7166071 L198.036999,50.7166071 C198.702113,50.7166071 199.241294,50.1809478 199.241294,49.5201786 C199.241294,48.8594093 198.702113,48.32375 198.036999,48.32375" id="Shape" fill="#662059"></path>
            <path d="M187.354899,56.7944643 L192.569498,61.975 C192.863815,62.3164322 193.325938,62.4651552 193.765868,62.3600228 C194.205797,62.2548905 194.549285,61.9136466 194.655109,61.4765906 C194.760932,61.0395345 194.611231,60.5804308 194.267554,60.2880357 L189.052956,55.1075 C188.575139,54.7009813 187.862878,54.7283132 187.418049,55.1702369 C186.973219,55.6121605 186.945708,56.319769 187.354899,56.7944643" id="Shape" fill="#662059"></path>
        </g>
    </g>
</svg>