<?xml version="1.0" encoding="UTF-8"?>
<svg width="300px" height="200px" viewBox="0 0 300 200" version="1.1" xmlns="http://www.w3.org/2000/svg" xmlns:xlink="http://www.w3.org/1999/xlink">
    <!-- Generator: Sketch 51.3 (57544) - http://www.bohemiancoding.com/sketch -->
    <title>decorated-christmas-tree</title>
    <desc>Created with Sketch.</desc>
    <defs></defs>
    <g id="decorated-christmas-tree" stroke="none" stroke-width="1" fill="none" fill-rule="evenodd">
        <g id="Christmastree_withornaments" transform="translate(69.000000, 2.000000)" fill-rule="nonzero">
            <ellipse id="Oval" fill="#F7DCDC" cx="150.780949" cy="80.7100592" rx="9.1970073" ry="9.19903474"></ellipse>
            <ellipse id="Oval" fill="#F7DCDC" cx="31.7909489" cy="56.5521801" rx="10.9578832" ry="10.9602988"></ellipse>
            <path d="M148.996277,163.894086 L25.3661314,163.894086 C23.9533848,163.860806 22.693285,162.997004 22.1525141,161.691141 C21.6117433,160.385278 21.892134,158.883261 22.8675912,157.860567 L87.1990511,93.5149251 L151.530511,157.860567 C152.509988,158.887996 152.787784,160.398256 152.238039,161.707094 C151.688293,163.015931 150.415482,163.874609 148.996277,163.894086" id="Shape" fill="#2D9693"></path>
            <path d="M115.480146,119.017553 C114.20708,119.267462 113.100584,119.46977 112.017883,119.600674 C111.360785,119.689402 110.900015,120.294131 110.988723,120.951373 C111.077431,121.608616 111.682026,122.069489 112.339124,121.980761 C113.421825,121.826055 114.623504,121.623748 115.908467,121.373839 C116.565565,121.245676 116.994375,120.60898 116.866241,119.951737 C116.738107,119.294494 116.10155,118.86559 115.444453,118.993752 L115.480146,119.017553 Z M126.902044,116.078146 C125.712263,116.435159 124.605766,116.768371 123.49927,117.077783 C123.08908,117.192576 122.771276,117.517532 122.665573,117.930243 C122.55987,118.342953 122.682327,118.780717 122.986814,119.078634 C123.291302,119.376551 123.731561,119.48936 124.141752,119.374566 C125.272044,119.053254 126.426131,118.720042 127.604015,118.351129 C128.022255,118.235903 128.344644,117.902121 128.445348,117.480063 C128.546051,117.058004 128.409106,116.614576 128.087964,116.322855 C127.766822,116.031133 127.312391,115.937364 126.902044,116.078146 Z M138.002701,112.0558 C136.916034,112.51595 135.821436,112.956266 134.718905,113.376748 C134.321467,113.529806 134.035856,113.883315 133.96966,114.304112 C133.903464,114.724909 134.066739,115.149064 134.397981,115.416802 C134.729223,115.684541 135.178109,115.755187 135.575547,115.602129 C136.701873,115.173713 137.820268,114.725464 138.93073,114.25738 C139.321792,114.089441 139.593574,113.725584 139.643698,113.30287 C139.693822,112.880156 139.514673,112.462805 139.173735,112.20803 C138.832796,111.953255 138.381865,111.899761 137.990803,112.0677 L138.002701,112.0558 Z M148.484672,106.783908 C147.509051,107.37893 146.485839,107.973951 145.438832,108.533272 C145.064772,108.735223 144.826843,109.121437 144.81467,109.546429 C144.802497,109.971422 145.017929,110.370627 145.379816,110.593668 C145.741703,110.816708 146.195064,110.8297 146.569124,110.627748 C147.651825,110.044627 148.71073,109.437705 149.733942,108.818882 C150.200326,108.45131 150.324371,107.796073 150.024628,107.283399 C149.724885,106.770726 149.093124,106.557578 148.544161,106.783908 L148.484672,106.783908 Z M157.277153,99.4889425 C156.565387,100.38824 155.785782,101.231672 154.945182,102.011834 C154.465501,102.462046 154.44153,103.215958 154.891642,103.695746 C155.341754,104.175533 156.095501,104.199509 156.575182,103.749298 C157.492023,102.898534 158.343165,101.979575 159.121314,101.000298 C159.528715,100.484362 159.440822,99.7357772 158.925,99.3282867 C158.409178,98.9207962 157.660758,99.0087083 157.253358,99.5246438 L157.277153,99.4889425 Z M159.430657,89.5520809 C159.796477,90.5428197 159.985743,91.5900543 159.989854,92.6461935 C159.989854,93.3034363 160.522537,93.8362368 161.179635,93.8362368 C161.836733,93.8362368 162.369416,93.3034363 162.369416,92.6461935 C162.364733,91.3140955 162.127164,89.9930804 161.667445,88.7428515 C161.431359,88.1435621 160.761405,87.840937 160.15581,88.0600304 C159.550215,88.2791237 159.228828,88.9403977 159.430657,89.5520809 Z M151.911241,82.2571155 C152.944716,82.6182022 153.931308,83.101619 154.85,83.6970679 C155.398178,84.0453242 156.124284,83.8895878 156.481506,83.34714 C156.838728,82.8046922 156.695089,82.0759428 156.158759,81.7096955 C155.080259,81.0105651 153.921878,80.4432328 152.708394,80.0198341 C152.301175,79.8442513 151.830122,79.9097554 151.486232,80.1897865 C151.142342,80.4698177 150.982688,80.9179012 151.072004,81.3523536 C151.161321,81.7868061 151.484784,82.1355248 151.911241,82.2571155 Z M140.644015,81.2098774 C141.762409,81.1146739 142.868905,81.0670722 143.963504,81.0670722 L144.118175,81.0670722 C144.775273,81.0670722 145.307956,80.5342716 145.307956,79.8770289 C145.307956,79.2197861 144.775273,78.6869856 144.118175,78.6869856 L143.963504,78.6869856 C142.773723,78.6869856 141.583942,78.6869856 140.394161,78.8416912 C139.737063,78.8942707 139.246994,79.4696953 139.299562,80.1269379 C139.35213,80.7841806 139.927428,81.2743571 140.584526,81.2217778 L140.644015,81.2098774 Z M129.162628,83.3281544 C130.257226,83.0306436 131.411314,82.7450332 132.577299,82.4832237 C133.002367,82.3896882 133.345257,82.0764369 133.476804,81.6614684 C133.608352,81.2464999 133.508573,80.7928579 133.215052,80.4714249 C132.921532,80.149992 132.478863,80.0096014 132.053796,80.1031371 C130.864015,80.376847 129.674234,80.6624574 128.484453,80.9718687 C127.87139,81.1598515 127.517545,81.7999601 127.684361,82.4192414 C127.851177,83.0385226 128.47864,83.4141793 129.103139,83.2686523 L129.162628,83.3281544 Z M118.061971,87.1005917 L118.276131,87.0053883 C118.71635,86.8268818 119.787153,86.3865657 121.333869,85.8153449 C121.733432,85.6686642 122.024409,85.3199139 122.097189,84.9004649 C122.16997,84.4810159 122.013498,84.0545925 121.686715,83.7818242 C121.359932,83.5090559 120.912483,83.4313828 120.51292,83.5780635 C118.407007,84.3515917 117.133942,84.8990116 117.110146,84.910912 C116.719084,85.0788508 116.447302,85.442708 116.397178,85.865422 C116.347054,86.288136 116.526203,86.7054866 116.867141,86.9602619 C117.20808,87.2150371 117.659011,87.2685305 118.050073,87.1005917 L118.061971,87.1005917 Z" id="Shape" fill="#FB5956"></path>
            <path d="M40.059927,142.651813 L87.3656204,95.3356914 L150.72146,158.705497 C151.223843,159.192366 151.507211,159.862293 151.506715,160.561965 C151.50294,161.255083 151.239767,161.921653 150.769051,162.430333 C150.272333,162.96544 149.571527,163.263998 148.841606,163.251463 L72.0769343,163.251463 C71.4198364,163.251463 70.8871533,163.784263 70.8871533,164.441506 C70.8871533,165.098749 71.4198364,165.631549 72.0769343,165.631549 L148.853504,165.631549 C150.240872,165.643457 151.569844,165.073772 152.518029,164.060692 C153.4034,163.110685 153.896479,161.860709 153.898175,160.561965 C153.905559,159.219716 153.369014,157.931725 152.410949,156.991835 L88.1627737,92.7294965 C87.6987146,92.2680887 86.9492416,92.2680887 86.4851825,92.7294965 L38.3466423,140.961952 C37.9423824,141.434114 37.9695623,142.137946 38.4090306,142.577511 C38.8484989,143.017076 39.5521757,143.044262 40.0242336,142.639913 L40.059927,142.651813 Z" id="Shape" fill="#662059"></path>
            <path d="M65.390365,163.251463 L25.889635,163.251463 C25.1597138,163.263998 24.4589074,162.96544 23.9621898,162.430333 C23.4914742,161.921653 23.2283007,161.255083 23.2245255,160.561965 C23.2226554,159.862016 23.5062418,159.191573 24.009781,158.705497 L28.9830657,153.445506 C29.3779357,152.96227 29.332489,152.256008 28.8789428,151.827391 C28.4253966,151.398773 27.7178494,151.393429 27.2578832,151.815147 L22.2845985,157.075138 L23.1531387,157.896268 L22.3083942,157.051337 C21.3503293,157.991227 20.8137845,159.279218 20.8211679,160.621467 C20.8228645,161.920212 21.3159434,163.170187 22.2013139,164.120194 C23.1494993,165.133274 24.4784707,165.702959 25.8658394,165.691052 L65.3665693,165.691052 C66.0236673,165.691052 66.5563504,165.158251 66.5563504,164.501008 C66.5563504,163.843765 66.0236673,163.310965 65.3665693,163.310965 L65.390365,163.251463 Z" id="Shape" fill="#662059"></path>
            <path d="M97.8356934,129.049618 L40.500146,129.049618 C39.0164219,129.051655 37.6778901,128.158602 37.1098179,126.78763 C36.5417457,125.416658 36.8562526,123.838354 37.9064234,122.78999 L87.3656204,73.3317907 L136.81292,122.78999 C137.86309,123.838354 138.177597,125.416658 137.609525,126.78763 C137.041453,128.158602 135.702921,129.051655 134.219197,129.049618 L106.164161,129.049618" id="Shape" fill="#2D9693"></path>
            <path d="M97.8356934,127.859575 L40.500146,127.859575 C39.8199719,127.874254 39.1660444,127.597032 38.7035766,127.097947 C38.264674,126.625324 38.0185035,126.005517 38.0135036,125.360484 C38.012728,124.708519 38.2793726,124.084777 38.7511679,123.634921 L87.3656204,75.0097517 L135.980073,123.634921 C136.451868,124.084777 136.718513,124.708519 136.717737,125.360484 C136.712737,126.005517 136.466567,126.625324 136.027664,127.097947 C135.565197,127.597032 134.911269,127.874254 134.231095,127.859575 L106.164161,127.859575 C105.507063,127.859575 104.97438,128.392375 104.97438,129.049618 C104.97438,129.706861 105.507063,130.239661 106.164161,130.239661 L134.266788,130.239661 C135.617071,130.265255 136.91464,129.71583 137.836131,128.728307 C138.689684,127.81436 139.165761,126.611149 139.168686,125.360484 C139.169783,124.080088 138.655134,122.853237 137.740949,121.95696 L88.2936496,72.4987604 C87.8295905,72.0373525 87.0801176,72.0373525 86.6160584,72.4987604 L37.1687591,121.95696 C36.2545742,122.853237 35.7399251,124.080088 35.7410219,125.360484 C35.7439466,126.611149 36.2200241,127.81436 37.0735766,128.728307 C37.9950677,129.71583 39.2926369,130.265255 40.6429197,130.239661 L97.8356934,130.239661 C98.4927913,130.239661 99.0254745,129.706861 99.0254745,129.049618 C99.0254745,128.392375 98.4927913,127.859575 97.8356934,127.859575 Z" id="Shape" fill="#662059"></path>
            <path d="M55.0035766,88.1121285 L87.329927,55.7786519 L124.332117,92.7889987 C125.290476,93.8116572 125.561872,95.3006237 125.025983,96.5957618 C124.490093,97.8908999 123.246078,98.7525577 121.845474,98.7987174 L52.8381752,98.7987174 C51.4375713,98.7525577 50.1935562,97.8908999 49.6576667,96.5957618 C49.1217772,95.3006237 49.393174,93.8116572 50.3515328,92.7889987 L51.1962774,91.944068" id="Shape" fill="#2D9693"></path>
            <path d="M55.8364234,88.921358 L87.329927,57.4209117 L123.49927,93.6815312 C123.939473,94.1049104 124.188583,94.6891603 124.189343,95.2999901 C124.190107,95.9111405 123.955801,96.4991659 123.534964,96.9422498 C123.098846,97.4096013 122.484498,97.6692421 121.845474,97.6562758 L52.8381752,97.6562758 C52.1991514,97.6692421 51.5848035,97.4096013 51.1486861,96.9422498 C50.7278489,96.4991659 50.4935426,95.9111405 50.4943066,95.2999901 C50.4950666,94.6891603 50.7441771,94.1049104 51.1843796,93.6815312 L52.0291241,92.8366004 C52.4333841,92.3644385 52.4062041,91.6606066 51.9667358,91.2210414 C51.5272675,90.7814763 50.8235907,90.7542903 50.3515328,91.1586394 L49.5067883,92.0035701 C48.6179623,92.8749838 48.1163914,94.0670134 48.1147445,95.3118905 C48.1128663,96.5226993 48.572364,97.6887191 49.399708,98.5726092 C50.2851982,99.5223189 51.5279869,100.057526 52.8262774,100.048263 L121.833577,100.048263 C123.131867,100.057526 124.374656,99.5223189 125.260146,98.5726092 C126.08749,97.6887191 126.546988,96.5226993 126.545109,95.3118905 C126.543463,94.0670134 126.041892,92.8749838 125.153066,92.0035701 L88.1508759,54.9932234 C87.6868168,54.5318155 86.9373438,54.5318155 86.4732847,54.9932234 L54.1469343,87.3266999 C53.7433332,87.6004241 53.5475793,88.0927669 53.6530115,88.5689703 C53.7584438,89.0451737 54.1437151,89.4088198 54.6251212,89.4865154 C55.1065272,89.5642111 55.5865965,89.340225 55.8364234,88.921358 Z" id="Shape" fill="#662059"></path>
            <path d="M106.164161,57.5875178 L115.682409,67.0245612 C116.640768,68.0472196 116.912164,69.5361862 116.376275,70.8313243 C115.840385,72.1264624 114.59637,72.9881202 113.195766,73.0342799 L61.5830657,73.0342799 C60.1824618,72.9881202 58.9384467,72.1264624 58.4025572,70.8313243 C57.8666677,69.5361862 58.1380645,68.0472196 59.0964234,67.0245612 L87.3775182,38.7372318 L101.999927,53.362864" id="Shape" fill="#2D9693"></path>
            <path d="M105.367007,58.4205481 L114.813869,67.8694919 C115.254071,68.2928711 115.503182,68.877121 115.503942,69.4879508 C115.504706,70.0991012 115.270399,70.6871266 114.849562,71.1302106 C114.413445,71.597562 113.799097,71.8572029 113.160073,71.8442366 L61.5830657,71.8442366 C60.9440419,71.8572029 60.329694,71.597562 59.8935766,71.1302106 C59.4727394,70.6871266 59.2384331,70.0991012 59.2391971,69.4879508 C59.2399572,68.877121 59.4890676,68.2928711 59.9292701,67.8694919 L87.3656204,40.4270933 L101.143285,54.2077948 C101.434055,54.5474048 101.890608,54.695334 102.325236,54.5907628 C102.759863,54.4861915 103.099211,54.1467688 103.20376,53.7120453 C103.308308,53.2773218 103.160411,52.8206683 102.820876,52.5298337 L88.1984672,37.9042015 C87.734408,37.4427936 86.9849351,37.4427936 86.5208759,37.9042015 L58.239781,66.1915309 C57.350955,67.0629445 56.8493841,68.2549741 56.8477372,69.4998512 C56.845859,70.71066 57.3053568,71.8766799 58.1327007,72.7605699 C59.0181909,73.7102796 60.2609796,74.2454872 61.5592701,74.2362236 L113.136277,74.2362236 C114.434568,74.2454872 115.677357,73.7102796 116.562847,72.7605699 C117.390191,71.8766799 117.849688,70.71066 117.84781,69.4998512 C117.846163,68.2549741 117.344592,67.0629445 116.455766,66.1915309 L107.044599,56.7901888 C106.753828,56.4505788 106.297275,56.3026495 105.862647,56.4072208 C105.42802,56.511792 105.088672,56.8512147 104.984124,57.2859382 C104.879575,57.7206617 105.027472,58.1773153 105.367007,58.4681498 L105.367007,58.4205481 Z" id="Shape" fill="#662059"></path>
            <polygon id="Shape" fill="#6E425A" points="80.4172993 181.649532 80.4172993 164.453406 94.3139416 164.453406 94.3139416 198.012628 80.4172993 198.012628"></polygon>
            <path d="M80.4172993,181.637632 L81.6070803,181.637632 L81.6070803,165.631549 L93.0765693,165.631549 L93.0765693,196.810684 L81.5594891,196.810684 L81.5594891,181.637632 L79.179927,181.637632 L79.179927,198.000727 C79.179927,198.65797 79.7126101,199.190771 80.369708,199.190771 L94.2663504,199.190771 C94.9234483,199.190771 95.4561314,198.65797 95.4561314,198.000727 L95.4561314,164.441506 C95.4561314,163.784263 94.9234483,163.251463 94.2663504,163.251463 L80.4172993,163.251463 C79.7602014,163.251463 79.2275182,163.784263 79.2275182,164.441506 L79.2275182,181.637632 L80.4172993,181.637632 Z" id="Shape" fill="#662059"></path>
            <ellipse id="Oval" fill="#FB5956" transform="translate(69.050119, 57.037050) rotate(-8.610000) translate(-69.050119, -57.037050) " cx="69.0501188" cy="57.03705" rx="6.46051095" ry="6.46193514"></ellipse>
            <ellipse id="Oval" fill="#FB5956" cx="116.967372" cy="142.56851" rx="6.46051095" ry="6.46193514"></ellipse>
            <path d="M119.727664,147.066874 C117.91047,148.182464 115.600293,148.09309 113.874679,146.840438 C112.149065,145.587786 111.347968,143.418635 111.845045,141.34475 C112.342123,139.270866 114.03945,137.700812 116.145335,137.366916 C118.25122,137.03302 120.350794,138.00106 121.464745,139.81951 C121.633509,140.261096 122.047596,140.56089 122.519711,140.583294 C122.991825,140.605698 123.432428,140.346462 123.642233,139.922841 C123.852037,139.499221 123.791253,138.991555 123.487372,138.629467 C121.868222,135.991166 118.819276,134.588592 115.762855,135.076039 C112.706434,135.563486 110.244764,137.844909 109.526204,140.856035 C108.807643,143.86716 109.973775,147.014686 112.480603,148.830306 C114.987432,150.645925 118.34102,150.771894 120.976934,149.14945 C121.418423,148.980648 121.718151,148.566469 121.74055,148.094251 C121.762949,147.622033 121.50377,147.181332 121.080243,146.971481 C120.656715,146.76163 120.149162,146.822429 119.787153,147.126376 L119.727664,147.066874 Z" id="Shape" fill="#662059"></path>
            <ellipse id="Oval" fill="#FB5956" cx="49.8994161" cy="161.5259" rx="10.1250365" ry="10.1272685"></ellipse>
            <path d="M43.4032117,155.385277 C46.2058658,152.431753 50.6502346,151.746573 54.2119647,153.718912 C57.7736949,155.691251 59.5521652,159.822382 58.5372239,163.765867 C57.5222825,167.709353 53.9705682,170.46804 49.8994161,170.475026 L49.1855474,170.475026 C48.5284495,170.422446 47.9531518,170.912623 47.9005839,171.569865 C47.8480161,172.227108 48.3380846,172.802533 48.9951825,172.855112 C49.2965937,172.855112 49.5980049,172.855112 49.8994161,172.855112 C55.0747256,172.877525 59.6055781,169.384918 60.9023013,164.37354 C62.1990244,159.362162 59.9310498,154.109544 55.39467,151.617893 C50.8582903,149.126241 45.2099467,150.030744 41.6780292,153.814419 C41.2831592,154.297655 41.3286059,155.003917 41.7821521,155.432534 C42.2356983,155.861152 42.9432455,155.866496 43.4032117,155.444779 L43.4032117,155.385277 Z" id="Shape" fill="#662059"></path>
            <path d="M43.760146,168.023536 C41.9701782,166.332451 40.958354,163.976749 40.9641606,161.514 C40.9641606,161.291858 40.9641606,161.069717 40.9641606,160.847575 C41.0134429,160.190333 40.5207111,159.617572 39.8636131,159.568279 C39.2065152,159.518986 38.6338809,160.011826 38.5845985,160.669069 C38.5845985,160.946746 38.5845985,161.228389 38.5845985,161.514 C38.5905731,164.629932 39.8820316,167.605247 42.1539416,169.737199 C42.6370707,170.132156 43.3431771,170.086699 43.7717001,169.633053 C44.200223,169.179407 44.2055661,168.471704 43.7839416,168.011636 L43.760146,168.023536 Z" id="Shape" fill="#662059"></path>
            <path d="M68.2458394,51.8634095 C70.3583679,51.5419238 72.455914,52.5280107 73.5564964,54.3600265 C74.6570788,56.1920423 74.5428839,58.5074171 73.2673728,60.2221917 C71.9918617,61.9369662 69.8074678,62.7117735 67.7368308,62.183882 C65.6661938,61.6559904 64.1191085,59.9298738 63.819854,57.813626 C63.7560938,57.3884645 63.470406,57.0296222 63.0704064,56.8722715 C62.6704068,56.7149209 62.2168648,56.7829671 61.8806254,57.050778 C61.544386,57.3185889 61.3765318,57.7454775 61.440292,58.170639 C61.8993075,61.2379405 64.1613627,63.7261492 67.1706749,64.4739283 C70.1799871,65.2217075 73.3432336,64.0816233 75.1840133,61.5857942 C77.0247929,59.0899651 77.1801734,55.7304742 75.5776332,53.0753171 C73.9750929,50.42016 70.9305923,48.9928334 67.8651095,49.459522 C67.4400416,49.5232962 67.0812784,49.809047 66.9239624,50.2091348 C66.7666464,50.6092226 66.8346777,51.0628646 67.1024296,51.3991781 C67.3701814,51.7354917 67.796976,51.9033829 68.2220438,51.8396086 L68.2458394,51.8634095 Z" id="Shape" fill="#662059"></path>
            <path d="M84.2364964,87.3624012 L86.4375912,87.3624012 L87.8415328,87.3624012 C88.4986308,87.3624012 89.0313139,86.8296007 89.0313139,86.1723579 C89.0313139,85.5151152 88.4986308,84.9823146 87.8415328,84.9823146 L86.4613869,84.9823146 L84.3078832,84.9823146 C83.8828154,84.9695598 83.4832334,85.1845948 83.2596559,85.5464181 C83.0360784,85.9082413 83.0224722,86.3618833 83.2239625,86.7364614 C83.4254528,87.1110395 83.8114285,87.3496464 84.2364964,87.3624012 Z M72.2435036,86.4460679 C73.4253528,86.6047403 74.6151338,86.7435787 75.8128467,86.8625831 C76.2379145,86.9050992 76.6533705,86.7175648 76.9027164,86.3706222 C77.1520622,86.0236796 77.1974164,85.5700376 77.0216945,85.1805789 C76.8459725,84.7911201 76.4758707,84.5250126 76.0508029,84.4824964 C74.8689538,84.3634921 73.6990024,84.2286205 72.5409489,84.0778817 C71.883851,83.9924402 71.2819191,84.4559766 71.1964964,85.1132194 C71.1110736,85.7704622 71.5745079,86.3725268 72.2316058,86.4579683 L72.2435036,86.4460679 Z M60.4289781,84.1611848 C61.5870316,84.4547288 62.7768127,84.7284387 63.9983212,84.9823146 C64.423389,85.0715986 64.8637898,84.9272793 65.1536288,84.6037206 C65.4434678,84.2801619 65.5387116,83.8265199 65.4034828,83.4136773 C65.268254,83.0008347 64.923097,82.6915119 64.4980292,82.602228 C63.3320438,82.3562857 62.1858881,82.0905094 61.059562,81.804899 C60.4221771,81.6438746 59.7749671,82.0301549 59.6139781,82.6676804 C59.4529892,83.3052059 59.8391844,83.9525585 60.4765693,84.113583 L60.4289781,84.1611848 Z M48.9475912,80.4720505 C50.0501217,80.9163333 51.1804136,81.3407821 52.3384672,81.7453968 C52.7401562,81.8857001 53.1861667,81.8009999 53.5084907,81.5232019 C53.8308147,81.2454039 53.9804835,80.8167123 53.9011184,80.398611 C53.8217533,79.9805097 53.5254117,79.6365183 53.1237226,79.496215 C51.9973966,79.0995339 50.8988321,78.7028528 49.8280292,78.3061717 C49.425257,78.0797848 48.9278716,78.1070878 48.5522869,78.3762009 C48.1767022,78.645314 47.9908341,79.1075744 48.0755544,79.561851 C48.1602748,80.0161276 48.5002638,80.380275 48.9475912,80.4958514 L48.9475912,80.4720505 Z M38.1443796,74.9740504 C39.1358637,75.6166738 40.1789051,76.24343 41.2735036,76.8543189 C41.8484643,77.1829402 42.5809036,76.98314 42.9094526,76.4080526 C43.2380015,75.8329652 43.0382453,75.1003645 42.4632847,74.7717431 C41.4083455,74.1846551 40.4128954,73.5856666 39.4769343,72.9747777 C39.1224926,72.7029307 38.6456891,72.6525405 38.242274,72.8442947 C37.838859,73.0360488 37.5768001,73.4376405 37.5636848,73.8841973 C37.5505695,74.3307542 37.7886075,74.7470401 38.180073,74.96215 L38.1443796,74.9740504 Z M29.2686131,66.4176391 C29.9204225,67.5048421 30.6775979,68.5252612 31.5291971,69.4641499 C31.8139925,69.7808954 32.2460988,69.9216101 32.6627456,69.8332884 C33.0793924,69.7449666 33.4172812,69.4410265 33.5491325,69.0359593 C33.6809838,68.6308921 33.5867663,68.1862372 33.3019708,67.8694919 C32.5539564,67.0481727 31.8884468,66.1553164 31.3150365,65.2037949 C31.1279995,64.7898537 30.7216799,64.518519 30.2677457,64.5044284 C29.8138116,64.4903378 29.3914525,64.7359496 29.1791132,65.1374938 C28.966774,65.539038 29.0014974,66.0264646 29.2686131,66.3938382 L29.2686131,66.4176391 Z M29.7326277,53.9816866 C28.9234035,55.0571137 28.307429,56.2651731 27.9122628,57.5518165 C27.7715117,57.9622545 27.8652604,58.4167854 28.1569173,58.7379983 C28.4485743,59.0592112 28.891905,59.1961865 29.3138703,59.0954605 C29.7358357,58.9947344 30.0695444,58.6722745 30.1847445,58.253942 C30.5060856,57.2496242 30.9970272,56.3077744 31.6362774,55.4692407 C31.9674834,54.9433159 31.8382457,54.2510255 31.3396116,53.8800846 C30.8409775,53.5091437 30.1409207,53.5845104 29.7326277,54.0530892 L29.7326277,53.9816866 Z M39.7624818,46.710522 C39.1279319,46.9881987 38.4854501,47.2936432 37.8350365,47.6268553 C37.3591241,47.8727976 36.8990754,48.1227067 36.4548905,48.3765826 C36.0676425,48.5792028 35.822626,48.9778655 35.8167111,49.4149548 C35.8107963,49.8520441 36.0449352,50.2571938 36.4265585,50.4702233 C36.8081817,50.6832527 37.2758524,50.6698667 37.6446715,50.4353575 L38.929635,49.733232 C39.5245255,49.4238207 40.1154501,49.1421771 40.7024088,48.8883012 C41.2680162,48.604601 41.5126803,47.9277345 41.2592317,47.347843 C41.0057831,46.7679516 40.3428939,46.4879172 39.7505839,46.710522 L39.7624818,46.710522 Z M51.660292,44.0805263 C50.4705109,44.1519289 49.2807299,44.2709332 48.019562,44.4375393 C47.5944942,44.494936 47.2323294,44.7747938 47.0694916,45.1716929 C46.9066538,45.568592 46.967882,46.022234 47.230112,46.3617363 C47.4923421,46.7012386 47.9157351,46.8750227 48.3408029,46.8176259 C49.5305839,46.6629202 50.6251825,46.5558163 51.8030657,46.4844137 C52.2281335,46.4674073 52.6118415,46.2248717 52.8096507,45.8481678 C53.0074598,45.4714639 52.9893181,45.0178219 52.7620594,44.6581245 C52.5348007,44.298427 52.132951,44.0873207 51.7078832,44.1043271 L51.660292,44.0805263 Z M63.5581022,43.7354137 C62.3683212,43.7354137 61.1785401,43.8187167 59.9887591,43.8425176 C59.3316612,43.8425176 58.7989781,44.3753181 58.7989781,45.0325609 C58.7989781,45.6898037 59.3316612,46.2226042 59.9887591,46.2226042 C61.1785401,46.2226042 62.3683212,46.2226042 63.5581022,46.1155003 C64.1475245,46.0479765 64.5971417,45.5564461 64.6121186,44.9632286 C64.6270956,44.3700111 64.202855,43.8564087 63.6175912,43.7592146 L63.5581022,43.7354137 Z M75.1822628,42.3906648 C73.9924818,42.6286734 72.8027007,42.8190804 71.72,42.9856864 C71.0629021,43.0809867 70.6074581,43.6910433 70.7027373,44.348286 C70.7980165,45.0055287 71.4079386,45.4610732 72.0650365,45.365773 C73.2548175,45.199167 74.4445985,44.9968596 75.6343796,44.7469505 C76.0594474,44.664044 76.408006,44.3606143 76.5487566,43.9509604 C76.6895072,43.5413064 76.6010665,43.0876645 76.3167493,42.760917 C76.032432,42.4341696 75.5954328,42.2839574 75.170365,42.3668639 L75.1822628,42.3906648 Z" id="Shape" fill="#FB5956"></path>
            <path d="M49.8994161,122.77809 L58.0494161,122.77809 C58.706514,122.77809 59.2391971,122.245289 59.2391971,121.588047 C59.2391971,120.930804 58.706514,120.398003 58.0494161,120.398003 L49.8994161,120.398003 C49.2423181,120.398003 48.709635,120.930804 48.709635,121.588047 C48.709635,122.245289 49.2423181,122.77809 49.8994161,122.77809" id="Shape" fill="#FFFFFF"></path>
            <path d="M97.7405109,67.5005785 L103.974964,67.5005785 C104.632061,67.5005785 105.164745,66.967778 105.164745,66.3105352 C105.164745,65.6532924 104.632061,65.1204919 103.974964,65.1204919 L97.7405109,65.1204919 C97.083413,65.1204919 96.5507299,65.6532924 96.5507299,66.3105352 C96.5507299,66.967778 97.083413,67.5005785 97.7405109,67.5005785" id="Shape" fill="#FFFFFF"></path>
            <path d="M90.1021168,67.5005785 L92.2794161,67.5005785 C92.936514,67.5005785 93.4691971,66.967778 93.4691971,66.3105352 C93.4691971,65.6532924 92.936514,65.1204919 92.2794161,65.1204919 L90.1021168,65.1204919 C89.4450189,65.1204919 88.9123358,65.6532924 88.9123358,66.3105352 C88.9123358,66.967778 89.4450189,67.5005785 90.1021168,67.5005785" id="Shape" fill="#FFFFFF"></path>
            <path d="M66.580146,120.398003 L64.2005839,120.398003 C63.543486,120.398003 63.0108029,120.930804 63.0108029,121.588047 C63.0108029,122.245289 63.543486,122.77809 64.2005839,122.77809 L66.580146,122.77809 C67.2372439,122.77809 67.769927,122.245289 67.769927,121.588047 C67.769927,120.930804 67.2372439,120.398003 66.580146,120.398003" id="Shape" fill="#FFFFFF"></path>
            <path d="M80.4172993,175.842121 L93.3621168,175.842121" id="Shape" fill="#FFFFFF"></path>
            <path d="M80.4172993,176.984562 L93.3621168,176.984562 C94.0192147,176.984562 94.5518978,176.451762 94.5518978,175.794519 C94.5518978,175.137276 94.0192147,174.604476 93.3621168,174.604476 L80.4172993,174.604476 C79.7602014,174.604476 79.2275182,175.137276 79.2275182,175.794519 C79.2275182,176.451762 79.7602014,176.984562 80.4172993,176.984562" id="Shape" fill="#662059"></path>
            <path d="M80.4172993,185.897987 L87.3656204,185.897987" id="Shape" fill="#FFFFFF"></path>
            <path d="M80.4172993,187.07613 L87.3656204,187.07613 C88.0227184,187.07613 88.5554015,186.543329 88.5554015,185.886086 C88.5554015,185.228844 88.0227184,184.696043 87.3656204,184.696043 L80.4172993,184.696043 C79.7602014,184.696043 79.2275182,185.228844 79.2275182,185.886086 C79.2275182,186.543329 79.7602014,187.07613 80.4172993,187.07613" id="Shape" fill="#662059"></path>
            <path d="M87.3656204,38.7491323 L87.3656204,28.050643" id="Shape" fill="#FFFFFF"></path>
            <path d="M88.5554015,38.7372318 L88.5554015,28.0268421 C88.5554015,27.3695993 88.0227184,26.8367988 87.3656204,26.8367988 C86.7085225,26.8367988 86.1758394,27.3695993 86.1758394,28.0268421 L86.1758394,38.7372318 C86.1758394,39.3944746 86.7085225,39.9272751 87.3656204,39.9272751 C88.0227184,39.9272751 88.5554015,39.3944746 88.5554015,38.7372318" id="Shape" fill="#662059"></path>
            <ellipse id="Oval" fill="#FB5956" cx="80.4172993" cy="129.489934" rx="5.65145985" ry="5.6527057"></ellipse>
            <path d="M86.0687591,129.489934 L87.2585401,129.489934 C87.2585401,125.710788 84.1956123,122.647185 80.4172993,122.647185 C76.6389863,122.647185 73.5760584,125.710788 73.5760584,129.489934 C73.5760584,133.26908 76.6389863,136.332683 80.4172993,136.332683 C84.1956123,136.332683 87.2585401,133.26908 87.2585401,129.489934 L84.8789781,129.489934 C84.8808521,131.619063 83.3787208,133.452988 81.2913016,133.870065 C79.2038825,134.287141 77.1126125,133.171194 76.2965316,131.204748 C75.4804508,129.238302 76.1668731,126.969097 77.9359764,125.784999 C79.7050797,124.600902 82.0640917,124.831735 83.570219,126.336319 C84.4094116,127.170936 84.8805649,128.306238 84.8789781,129.489934 L86.0687591,129.489934 Z" id="Shape" fill="#662059"></path>
            <ellipse id="Oval" fill="#FB5956" cx="98.7161314" cy="86.3627649" rx="5.65145985" ry="5.6527057"></ellipse>
            <path d="M105.557372,86.3627649 C105.557372,82.5836189 102.494444,79.5200159 98.7161314,79.5200159 C94.9378184,79.5200159 91.8748905,82.5836189 91.8748905,86.3627649 C91.8748905,90.1419108 94.9378184,93.2055139 98.7161314,93.2055139 C99.3732293,93.2055139 99.9059124,92.6727133 99.9059124,92.0154706 C99.9059124,91.3582278 99.3732293,90.8254273 98.7161314,90.8254273 C96.2520142,90.8254273 94.2544526,88.8274252 94.2544526,86.3627649 C94.2544526,83.8981045 96.2520142,81.9001025 98.7161314,81.9001025 C101.180249,81.9001025 103.17781,83.8981045 103.17781,86.3627649 C103.17781,87.0200076 103.710493,87.5528082 104.367591,87.5528082 C105.024689,87.5528082 105.557372,87.0200076 105.557372,86.3627649 Z" id="Shape" fill="#662059"></path>
            <path d="M139.870657,199.190771 L152.708394,199.190771 C153.365492,199.190771 153.898175,198.65797 153.898175,198.000727 C153.898175,197.343484 153.365492,196.810684 152.708394,196.810684 L139.870657,196.810684 C139.213559,196.810684 138.680876,197.343484 138.680876,198.000727 C138.680876,198.65797 139.213559,199.190771 139.870657,199.190771" id="Shape" fill="#662059"></path>
            <path d="M22.0228467,199.190771 L133.529124,199.190771 C134.186222,199.190771 134.718905,198.65797 134.718905,198.000727 C134.718905,197.343484 134.186222,196.810684 133.529124,196.810684 L22.0228467,196.810684 C21.3657488,196.810684 20.8330657,197.343484 20.8330657,198.000727 C20.8330657,198.65797 21.3657488,199.190771 22.0228467,199.190771" id="Shape" fill="#662059"></path>
            <path d="M88.5435036,145.841129 C85.3894337,145.841129 82.8325547,148.398572 82.8325547,151.553337 C82.8325547,154.708102 85.3894337,157.265545 88.5435036,157.265545 C91.6975736,157.265545 94.2544526,154.708102 94.2544526,151.553337 C94.2544526,148.398572 91.6975736,145.841129 88.5435036,145.841129" id="Shape" fill="#2C817F"></path>
            <ellipse id="Oval" fill="#F7DCDC" cx="8.32846715" cy="105.950878" rx="8.32846715" ry="8.33030313"></ellipse>
            <path d="M105.069562,185.17206 C105.2282,186.251033 105.374939,187.36174 105.509781,188.504182 C105.558664,188.929343 105.830604,189.296124 106.223165,189.466362 C106.615726,189.6366 107.069268,189.584431 107.412946,189.329507 C107.756624,189.074583 107.938226,188.655633 107.889343,188.230472 C107.754501,187.064229 107.603796,185.929721 107.437226,184.826948 C107.341947,184.172991 106.734688,183.720111 106.080876,183.815411 C105.427063,183.910711 104.974283,184.518104 105.069562,185.17206 Z M102.594818,173.723844 C102.912092,174.802816 103.21747,175.929391 103.510949,177.103567 C103.588212,177.539639 103.901182,177.896726 104.323293,178.030423 C104.745404,178.16412 105.206825,178.052308 105.520956,177.740204 C105.835088,177.428099 105.949962,176.967336 105.819124,176.544246 C105.525645,175.330402 105.212336,174.16416 104.879197,173.045519 C104.691924,172.414566 104.028734,172.054926 103.39792,172.24224 C102.767106,172.429554 102.407545,173.092891 102.594818,173.723844 Z M98.1331387,163.013454 C98.6883698,163.973422 99.2198054,164.99686 99.7274453,166.083766 C100.014005,166.665559 100.713557,166.910711 101.300481,166.635023 C101.887405,166.359335 102.145548,165.664338 101.880949,165.072229 C101.341582,163.929787 100.778418,162.846848 100.19146,161.823411 C99.9888843,161.436077 99.5903095,161.191007 99.1533165,161.185091 C98.7163235,161.179175 98.3112631,161.413365 98.0982806,161.795073 C97.8852981,162.17678 97.8986812,162.644554 98.1331387,163.013454 Z M90.8754745,154.219034 C91.7533965,154.963668 92.5876297,155.758351 93.3740146,156.599121 C93.8274122,157.075622 94.5811588,157.09427 95.0575547,156.640772 C95.5339507,156.187275 95.5525946,155.433362 95.0991971,154.956861 C94.2481551,154.060944 93.3464046,153.214621 92.3983942,152.422069 C91.8923213,152.057123 91.1903594,152.145158 90.7900339,152.623778 C90.3897083,153.102397 90.4269984,153.809028 90.8754745,154.242835 L90.8754745,154.219034 Z M80.9408029,148.554428 C82.0235036,148.959043 83.0824088,149.411259 84.1294161,149.911077 C84.7103464,150.139286 85.3688373,149.879707 85.6378995,149.316429 C85.9069617,148.753152 85.6951284,148.07766 85.1526277,147.768999 C84.0342336,147.23348 82.9158394,146.757463 81.7855474,146.329047 C81.1711609,146.095726 80.4839997,146.40475 80.2507299,147.019272 C80.0174602,147.633794 80.3264164,148.321107 80.9408029,148.554428 Z M69.6616788,145.329411 L73.1120438,146.174341 C73.7494288,146.335366 74.3966387,145.949085 74.5576277,145.31156 C74.7186167,144.674034 74.3324215,144.026682 73.6950365,143.865657 L70.2089781,143.020727 C69.794537,142.922939 69.3594203,143.053731 69.0675322,143.363833 C68.7756442,143.673935 68.6713295,144.116236 68.7938826,144.524125 C68.9164356,144.932014 69.2472377,145.243524 69.6616788,145.341311 L69.6616788,145.329411 Z M58.0613139,142.699415 L61.5473723,143.472943 C62.2044702,143.617536 62.8543436,143.201952 62.9989051,142.544709 C63.1434667,141.887466 62.7279738,141.23745 62.0708759,141.092856 L58.5848175,140.319328 C57.9277196,140.174735 57.2778462,140.590319 57.1332847,141.247562 C56.9887231,141.904805 57.404216,142.554821 58.0613139,142.699415 Z M46.4371533,140.09322 L49.9232117,140.91435 C50.5638821,141.06223 51.2031019,140.662629 51.3509489,140.021817 C51.4987959,139.381006 51.0992836,138.741645 50.4586131,138.593765 L46.9844526,137.772636 C46.561456,137.641769 46.1007944,137.756668 45.7887591,138.070869 C45.4767238,138.38507 45.3649364,138.846592 45.4986036,139.268796 C45.6322708,139.691 45.9892796,140.004039 46.4252555,140.08132 L46.4371533,140.09322 Z M34.8605839,137.08241 L38.3228467,138.034445 C38.7385499,138.161912 39.1906641,138.052416 39.502026,137.748863 C39.8133879,137.445311 39.9344055,136.99605 39.8176575,136.577126 C39.7009095,136.158203 39.3649907,135.83634 38.9415328,135.737662 L35.5149635,134.785627 C35.0989103,134.642301 34.6377397,134.740365 34.3159614,135.040585 C33.9941831,135.340805 33.8643466,135.794152 33.9783982,136.219247 C34.0924498,136.644342 34.4317637,136.971762 34.8605839,137.07051 L34.8605839,137.08241 Z M23.4386861,133.345675 C24.5412165,133.766156 25.6754745,134.162838 26.8414599,134.535718 C27.2478029,134.692421 27.7072734,134.614547 28.0393204,134.332697 C28.3713674,134.050847 28.5229263,133.610063 28.4344413,133.183554 C28.3459564,132.757044 28.0315684,132.41297 27.6148175,132.286536 C26.4805596,131.897789 25.3740633,131.501107 24.2953285,131.096493 C23.6809419,130.863171 22.9937807,131.172196 22.7605109,131.786718 C22.5272412,132.40124 22.8361974,133.088552 23.4505839,133.321874 L23.4386861,133.345675 Z M12.5045985,128.097584 C13.5040146,128.72434 14.5668856,129.331262 15.6932117,129.91835 C16.0705757,130.128109 16.5319313,130.116947 16.8987148,129.889184 C17.2654982,129.661421 17.4801504,129.2528 17.4595919,128.821473 C17.4390335,128.390147 17.1864906,128.003803 16.799708,127.811973 C15.7289051,127.252653 14.7175912,126.62193 13.789562,126.08641 C13.4303797,125.858949 12.9771591,125.84043 12.6006239,126.037828 C12.2240888,126.235227 11.9814438,126.618555 11.964091,127.043415 C11.9467383,127.468275 12.157314,127.870122 12.5164964,128.097584 L12.5045985,128.097584 Z M4.17613139,118.839047 C4.58409184,120.084242 5.18642689,121.257046 5.96080292,122.313973 C6.35529728,122.815698 7.0752814,122.916774 7.59262129,122.543057 C8.10996118,122.169341 8.24039644,121.453938 7.88824818,120.921622 C7.25920622,120.06797 6.76929399,119.120062 6.43671533,118.11312 C6.20583816,117.530904 5.56328434,117.227339 4.96705519,117.418802 C4.37082604,117.610265 4.02502425,118.231214 4.17613139,118.839047 Z M7.06729927,106.653003 C6.29262518,107.665017 5.63037988,108.758361 5.09226277,109.913722 C4.80971067,110.508527 5.06273515,111.219815 5.65740876,111.50243 C6.25208237,111.785044 6.96321432,111.531964 7.24576642,110.937159 C7.71272323,109.93756 8.28721005,108.991842 8.95905109,108.116756 C9.37302278,107.597535 9.28779348,106.840958 8.76868613,106.426895 C8.24957878,106.012832 7.49316877,106.09808 7.07919708,106.617302 L7.06729927,106.653003 Z M18.7152555,102.15464 C17.9978468,102.05355 17.2743442,102.00186 16.549854,101.999934 C15.9810219,101.999309 15.4127324,102.035084 14.8484672,102.107038 C14.4233993,102.162309 14.0601007,102.440202 13.8954223,102.836038 C13.730744,103.231875 13.7897044,103.685517 14.0500939,104.026082 C14.3104833,104.366647 14.7327424,104.542395 15.1578102,104.487124 C15.6235305,104.429381 16.0924725,104.401556 16.5617518,104.403821 C17.1787482,104.405041 17.7949275,104.44878 18.4059124,104.534726 C18.8373563,104.589997 19.2655071,104.410846 19.5290846,104.064758 C19.7926621,103.71867 19.8516225,103.258223 19.6837561,102.856864 C19.5158897,102.455505 19.1466993,102.174209 18.7152555,102.118938 L18.7152555,102.15464 Z M30.1371533,106.772008 C29.1139416,106.141285 28.0431387,105.581964 26.9485401,104.963142 C26.5685949,104.754454 26.1052448,104.768955 25.7390869,105.000994 C25.372929,105.233032 25.1619091,105.645888 25.1882753,106.078643 C25.2146415,106.511398 25.4742211,106.895569 25.8658394,107.081419 C26.9009489,107.616938 27.9122628,108.188159 28.8878832,108.795081 C29.4438813,109.106137 30.1461781,108.923955 30.4809493,108.381825 C30.8157204,107.839695 30.6641594,107.130013 30.1371533,106.772008 Z M39.7624818,114.209778 C39.7624818,114.209778 38.7154745,113.198241 37.0140876,111.829692 C36.5081222,111.409056 35.7570391,111.47832 35.3364965,111.984397 C34.9159539,112.490474 34.9852026,113.241723 35.4911679,113.662358 C36.3121168,114.352583 36.9664964,114.935705 37.4186131,115.340319 L37.930219,115.816337 L38.0610949,115.935341 C38.5309199,116.395411 39.2846665,116.387419 39.744635,115.91749 C40.2046036,115.447562 40.1966133,114.693649 39.7267883,114.233579 L39.7624818,114.209778 Z" id="Shape" fill="#FB5956"></path>
            <polyline id="Shape" fill="#F4C95E" points="82.8206569 15.245777 87.3656204 1.26276817 91.9105839 15.245777 106.616277 15.245777 94.7184672 23.8973918 99.2634307 37.8804006 87.3656204 28.050643 75.4678102 37.8804006 80.0127737 23.8973918 68.1149635 15.245777 76.1935766 15.245777"></polyline>
            <path d="M83.9509489,15.6146904 L87.3656204,5.10660805 L90.780292,15.6146904 C90.9461411,16.1256218 91.4336471,16.4620751 91.970073,16.4358203 L103.011241,16.4358203 L94.0759854,22.9334567 C93.6594007,23.2378652 93.4864261,23.7761271 93.6476642,24.2663052 L96.9314599,34.3578725 L88.1865693,27.1343096 C87.7475379,26.7733491 87.1145789,26.7733491 86.6755474,27.1343096 L77.9306569,34.3578725 L81.2144526,24.2663052 C81.3756907,23.7761271 81.2027161,23.2378652 80.7861314,22.9334567 L71.8508759,16.4358203 L76.2649635,16.4358203 C76.9220614,16.4358203 77.4547445,15.9030198 77.4547445,15.245777 C77.4547445,14.5885342 76.9220614,14.0557337 76.2649635,14.0557337 L68.0911679,14.0557337 C67.5745725,14.0538844 67.1158123,14.3856828 66.9557093,14.8769543 C66.7956064,15.3682257 66.9707488,15.9067009 67.3891971,16.2097121 L78.5850365,24.3496083 L74.3137226,37.5114872 C74.148542,38.0156868 74.3370256,38.5683555 74.7758325,38.8664787 C75.2146394,39.1646019 75.7977562,39.1361547 76.2054745,38.796734 L87.3418248,29.5857988 L98.4781752,38.796734 C98.8858934,39.1361547 99.4690102,39.1646019 99.9078171,38.8664787 C100.346624,38.5683555 100.535108,38.0156868 100.369927,37.5114872 L96.0986131,24.3496083 L107.353942,16.2097121 C107.77239,15.9067009 107.947532,15.3682257 107.787429,14.8769543 C107.627326,14.3856828 107.168566,14.0538844 106.651971,14.0557337 L92.7791241,14.0557337 L88.4959124,0.858153449 C88.3354305,0.36978998 87.8795739,0.0397010478 87.3656204,0.0397010478 C86.8516669,0.0397010478 86.3958104,0.36978998 86.2353285,0.858153449 L81.690365,14.8411623 C81.5147918,15.4565105 81.857164,16.1005654 82.4653765,16.2990784 C83.0735889,16.4975915 83.7298613,16.179482 83.9509489,15.5789891 L83.9509489,15.6146904 Z" id="Shape" fill="#662059"></path>
        </g>
    </g>
</svg>