<?xml version="1.0" encoding="UTF-8"?>
<svg width="300px" height="200px" viewBox="0 0 300 200" version="1.1" xmlns="http://www.w3.org/2000/svg" xmlns:xlink="http://www.w3.org/1999/xlink">
    <!-- Generator: Sketch 51.3 (57544) - http://www.bohemiancoding.com/sketch -->
    <title>decorated-garland</title>
    <desc>Created with Sketch.</desc>
    <defs></defs>
    <g id="decorated-garland" stroke="none" stroke-width="1" fill="none" fill-rule="evenodd">
        <g id="Group-3" transform="translate(0.000000, 47.000000)" fill-rule="nonzero">
            <rect id="Rectangle-path" fill="#2D9693" x="4.15368367" y="29.7889035" width="287.916888" height="42.6232145"></rect>
            <path d="M277.939056,31.3254887 L4.15377551,31.3254887 C3.30844171,31.3254887 2.62316327,30.6376943 2.62316327,29.7892568 C2.62316327,28.9408194 3.30844171,28.2530249 4.15377551,28.2530249 L277.93898,28.2530249 C278.784313,28.2530037 279.469609,28.940781 279.46963,29.7892184 C279.469651,30.6376558 278.78439,31.3254675 277.939056,31.3254887 Z" id="Shape" fill="#662059"></path>
            <path d="M292.070311,73.9484267 L4.15377551,73.9484267 C3.30844171,73.9484267 2.62316327,73.2606322 2.62316327,72.4121948 C2.62316327,71.5637573 3.30844171,70.8759629 4.15377551,70.8759629 L292.070311,70.8759629 C292.915645,70.8759629 293.600923,71.5637573 293.600923,72.4121948 C293.600923,73.2606322 292.915645,73.9484267 292.070311,73.9484267 Z" id="Shape" fill="#662059"></path>
            <path d="M110.918862,61.0995214 C110.918862,61.0995214 61.1715612,61.3606809 53.524148,57.8437852 L58.7199949,66.9844417 L49.9079082,74.4006012 C49.9079082,74.4006012 103.917092,79.5959991 118.374107,71.3704913 L110.918862,61.0995214 Z" id="Shape" fill="#FB5956"></path>
            <path d="M83.9436582,77.5669594 C67.1233622,77.5669594 50.9749592,76.0464739 49.7620255,75.9302119 C49.1478997,75.8712824 48.6290544,75.4480699 48.4460091,74.8567615 C48.2629638,74.265453 48.4515043,73.6216514 48.9242296,73.2238014 L53.6969235,69.2069545 C54.115862,68.854279 54.6904391,68.7527151 55.204217,68.9405209 C55.7179949,69.1283267 56.0929186,69.57697 56.1877579,70.1174513 C56.2825971,70.6579325 56.0829437,71.2081397 55.6640051,71.5608151 L53.7350051,73.1847965 C65.58825,74.1239412 102.722066,76.5062988 116.064781,70.7979377 L110.142628,62.6390101 C104.270541,62.6652643 69.5985918,62.6525136 56.6660969,60.2709087 L60.0494388,66.2230545 C60.3215645,66.6998839 60.319234,67.2862792 60.0433269,67.7609146 C59.7674198,68.23555 59.2599517,68.526147 58.7124587,68.5230244 C58.1649656,68.5199017 57.6608209,68.2235348 57.3903061,67.7457829 L52.1945969,58.6048959 C51.8650296,58.0254196 51.9458317,57.2986821 52.3945648,56.8063775 C52.8432979,56.3140729 53.5573455,56.1687816 54.1616786,56.4468128 C60.1832296,59.2169768 97.1750204,59.6370441 110.910918,59.5635354 C111.401749,59.5661413 111.862846,59.8000336 112.156041,60.1951264 L119.611056,70.4656814 C119.868069,70.8195564 119.962395,71.2666993 119.870333,71.6947545 C119.778271,72.1228097 119.508572,72.4910855 119.129005,72.7070438 C112.443842,76.5108 97.9598265,77.566222 83.9436582,77.5669594 Z" id="Shape" fill="#662059"></path>
            <path d="M186.676056,61.0995214 C186.676056,61.0995214 236.423357,61.3606809 244.07077,57.8437852 L238.874985,66.9844417 L247.687071,74.4006012 C247.687071,74.4006012 193.677888,79.5959991 179.220872,71.3704913 L186.676056,61.0995214 Z" id="Shape" fill="#FB5956"></path>
            <path d="M213.650342,77.5669594 C199.632689,77.5669594 185.151658,76.5108 178.465699,72.7069823 C178.086239,72.4909474 177.816582,72.1227462 177.724394,71.6947752 C177.632207,71.2668042 177.726241,70.8196859 177.982898,70.46562 L185.438648,60.1950649 C185.727115,59.7983458 186.18695,59.5636828 186.676286,59.5634739 L186.683755,59.5634739 C200.451796,59.6384881 237.412194,59.216178 243.432995,56.4467513 C244.037349,56.168345 244.751668,56.3135057 245.200519,56.8059396 C245.64937,57.2983736 245.730018,58.0253708 245.400077,58.6048345 L240.204367,67.7457214 C239.934034,68.2235698 239.42992,68.5200334 238.882433,68.5231365 C238.334946,68.5262397 237.827528,68.2355093 237.551835,67.7607558 C237.276141,67.2860022 237.27419,66.6995836 237.546719,66.222993 L240.929372,60.2700945 C227.996893,62.6516994 193.342883,62.6562006 187.452107,62.6389641 L181.529954,70.7978916 C194.87498,76.5047472 232.007281,74.1231423 243.860556,73.1847504 L241.930852,71.5607536 C241.511913,71.2080782 241.31226,70.6578711 241.407099,70.1173898 C241.501939,69.5769086 241.876862,69.1282652 242.39064,68.9404595 C242.904418,68.7526537 243.478995,68.8542176 243.897934,69.206893 L248.670628,73.2237554 C249.143164,73.6215672 249.331677,74.2651497 249.148831,74.8563429 C248.965985,75.4475361 248.447501,75.8708479 247.833582,75.9301658 C246.619791,76.0464893 230.469138,77.5669594 213.650342,77.5669594 Z" id="Shape" fill="#662059"></path>
            <path d="M176.063648,31.1634623 C175.254219,31.1629436 174.585142,30.529956 174.536833,29.7190032 C174.488525,28.9080504 175.07769,28.1995578 175.881291,28.1022438 C182.631617,26.9938854 188.121237,22.0424683 189.937806,15.4238296 C190.172204,14.6102263 191.018229,14.1402871 191.829582,14.3730103 C192.640935,14.6057334 193.111788,15.4533971 192.882444,16.2684499 C190.729119,24.0769259 184.222677,29.8984242 176.247505,31.1522017 C176.186499,31.1596434 176.125103,31.1634037 176.063648,31.1634623 Z" id="Shape" fill="#662059"></path>
            <path d="M27.8087602,83.2235649 C26.9658569,83.2177043 26.2839872,82.533331 26.278148,81.687333 C26.2763952,81.2761414 26.442173,80.8820976 26.7370255,80.5966084 C27.3449778,80.0280195 28.2874813,80.0280195 28.8954337,80.5966084 C29.4873819,81.1965149 29.4873819,82.1630346 28.8954337,82.7629412 C28.6073107,83.0534221 28.2171173,83.218819 27.8087602,83.2235649 Z" id="Shape" fill="#662059"></path>
            <path d="M36.7218827,31.6150223 C22.016648,31.6150223 15.3770204,19.2951646 15.3082653,19.1638629 C14.9142848,18.4131951 15.2012109,17.4841018 15.9491327,17.0886748 C16.6970544,16.6932478 17.6227491,16.9812273 18.0167296,17.7318951 C22.274232,25.0785594 30.40424,29.2644217 38.833148,28.4495551 C39.673956,28.3783287 40.4135586,29.0036043 40.4864957,29.8473301 C40.5594327,30.6910558 39.9381803,31.4348379 39.0977143,31.5100209 C38.2838673,31.5812815 37.4919235,31.616282 36.7218827,31.6150223 Z" id="Shape" fill="#662059"></path>
            <path d="M273.732857,22.5724081 C272.88964,22.5673006 272.207334,21.882489 272.202245,21.0361762 C272.203362,20.6255667 272.368687,20.2325994 272.661122,19.9454516 C273.269369,19.3776129 274.211284,19.3776129 274.819531,19.9454516 C275.411449,20.551501 275.411449,21.5214813 274.819531,22.1275307 C274.527386,22.4099476 274.138461,22.569171 273.732857,22.5724081 Z" id="Shape" fill="#662059"></path>
            <path d="M181.452184,16.504753 C180.61508,16.4989065 179.935615,15.8236094 179.921571,14.9835301 C179.919769,14.5723284 180.085554,14.1782657 180.380449,13.8928055 C180.985439,13.3167143 181.933867,13.3167143 182.538857,13.8928055 C182.977297,14.3310656 183.108002,14.9919896 182.869568,15.5650927 C182.631134,16.1381958 182.070954,16.5095699 181.452184,16.504753 Z" id="Shape" fill="#662059"></path>
            <path d="M82.6043724,21.0826933 C81.985474,21.0802429 81.4284318,20.7054182 81.1911043,20.1317281 C80.9537768,19.5580379 81.0824806,18.8974429 81.5176378,18.4557368 C82.1286791,17.8796343 83.0806934,17.8796343 83.6917347,18.4557368 C84.2826819,19.0557631 84.2826819,20.0212905 83.6917347,20.6213168 C83.4053792,20.9149262 83.0137304,21.081106 82.6043724,21.0826933 Z" id="Shape" fill="#662059"></path>
            <path d="M108.120306,10.3748191 C107.503059,10.3768581 106.945402,10.0054114 106.707487,9.43376395 C106.469573,8.86211648 106.598283,8.20290887 107.033571,7.76367043 C107.64727,7.19508288 108.593219,7.19508288 109.206918,7.76367043 C109.798862,8.36328546 109.798862,9.32963541 109.206918,9.92925043 C108.919278,10.2185822 108.527515,10.3792261 108.120306,10.3748191 Z" id="Shape" fill="#662059"></path>
            <path d="M179.30873,88.6768962 C178.903032,88.6734318 178.514097,88.5139877 178.221995,88.231389 C177.933953,87.9424927 177.77396,87.5493475 177.778117,87.1406643 C177.7765,86.7324724 177.93611,86.3402701 178.221995,86.0499397 C178.659888,85.6067983 179.321383,85.4736041 179.895691,85.7129351 C180.469999,85.952266 180.842958,86.516547 180.839342,87.1406643 C180.833503,87.9866623 180.151633,88.6710356 179.30873,88.6768962 Z" id="Shape" fill="#662059"></path>
            <path d="M273.61627,84.0846997 C272.85697,84.0841054 272.213007,83.5246347 272.103597,82.7704994 C271.087179,75.769691 263.015587,73.9019096 258.407311,73.9019096 C257.561977,73.9019096 256.876699,73.2141151 256.876699,72.3656777 C256.876699,71.5172402 257.561977,70.8294458 258.407311,70.8294458 C265.901923,70.8294458 273.9795,74.3842864 275.131944,82.3264362 C275.190838,82.7295288 275.087665,83.1395861 274.845149,83.4662836 C274.602634,83.7929811 274.24067,84.0095193 273.83899,84.0682006 C273.765302,84.0796055 273.690828,84.0851225 273.61627,84.0846997 Z" id="Shape" fill="#662059"></path>
            <path d="M277.726791,31.3359965 C277.348622,31.3359965 277.109464,31.3269942 277.039209,31.3239986 C276.195732,31.287274 275.541075,30.5721539 275.575867,29.7255032 C275.581109,29.3143434 275.754981,28.9235338 276.056513,28.6451641 C276.358045,28.3667943 276.760569,28.2254837 277.169235,28.2545304 C277.31423,28.26278 291.497801,28.7248478 296.639694,19.3972012 C296.903325,18.91508 297.403649,18.6112049 297.951491,18.6004719 C298.499333,18.5897389 299.01109,18.8737857 299.293267,19.3452137 C299.575443,19.8166417 299.584978,20.4035092 299.318265,20.8839203 C293.898367,30.7178936 280.903117,31.3359965 277.726791,31.3359965 Z" id="Shape" fill="#662059"></path>
            <path d="M277.640097,31.3412351 C277.433816,31.3412351 277.226051,31.3352284 277.015301,31.3232304 C276.171714,31.273321 275.528039,30.546694 275.577367,29.6999864 C275.593977,29.290591 275.775582,28.905533 276.08053,28.6331269 C276.385478,28.3607208 276.787602,28.2243414 277.194673,28.2552678 C278.867425,28.4204129 280.527809,27.8382166 281.734194,26.6635319 C283.27293,25.0038906 284.073112,22.7875913 283.950888,20.5238583 C283.92702,19.973038 284.199171,19.4516444 284.663948,19.1577574 C285.128726,18.8638704 285.714799,18.8425936 286.199517,19.1020101 C286.684235,19.3614267 286.993206,19.8617232 287.009051,20.4128348 C287.171981,23.5422471 286.037398,26.5998231 283.874587,28.8598672 C282.210637,30.4904644 279.965249,31.3841438 277.640097,31.3412351 Z" id="Shape" fill="#662059"></path>
            <path d="M9.73812245,78.1363023 C9.13645288,78.1361703 8.59070197,77.7821621 8.34344917,77.2316299 C8.09619636,76.6810977 8.19333723,76.0362325 8.59169388,75.5836687 C12.921949,70.6599226 21.4666224,70.8932148 21.828352,70.9022171 C22.6706719,70.9338115 23.3290345,71.6429443 23.3010472,72.4884805 C23.2730598,73.3340166 22.569256,73.9977299 21.7267041,73.9731446 C21.657199,73.9776458 14.2575,73.7833586 10.8861122,77.6164414 C10.5959529,77.9476483 10.177541,78.1371239 9.73812245,78.1363023 Z" id="Shape" fill="#662059"></path>
            <path d="M15.9428418,85.5714188 C15.2345337,85.5704443 14.6192426,85.0822394 14.4548265,84.3907478 C13.7739396,81.4925612 14.5001962,78.4419444 16.4129388,76.1657623 C19.0272245,72.8450128 23.4008418,70.8294612 24.6257755,70.8294612 C25.4443625,70.8295203 26.118031,71.4759614 26.1548367,72.296723 C26.1916424,73.1174845 25.5785577,73.8220524 24.7632857,73.8959183 C22.163074,74.8370196 19.9082382,76.5472348 18.2962959,78.800907 C17.3311359,80.23026 17.0175231,82.0042748 17.4338265,83.6796414 C17.541411,84.1370963 17.4347261,84.6188154 17.1441898,84.987451 C16.8536534,85.3560866 16.4111485,85.5711855 15.9428418,85.5714188 Z" id="Shape" fill="#662059"></path>
            <ellipse id="Oval" fill="#C4C4C4" cx="147.873796" cy="28.7291646" rx="27.093398" ry="27.1928713"></ellipse>
            <path d="M147.874378,57.4579299 C133.445972,57.450289 121.281452,46.6598775 119.500561,32.2892298 C117.719671,17.9185822 126.879871,4.46605224 140.866783,0.911122517 C154.853696,-2.6438072 169.289085,4.8116407 174.537415,18.3009997 C179.785746,31.7903587 174.204166,47.0911394 161.518347,53.9901629 C161.037656,54.2530932 160.453668,54.2384137 159.986693,53.9516624 C159.519718,53.664911 159.240826,53.1497291 159.255228,52.6004685 C159.26963,52.0512079 159.575134,51.5514619 160.05649,51.2897591 C171.398605,45.1261619 176.391593,31.4493766 171.70212,19.3900674 C167.012646,7.33075825 154.108951,0.664608758 141.605582,3.84196103 C129.102212,7.0193133 120.913884,19.0453611 122.507151,31.8914775 C124.100417,44.7375939 134.976437,54.3817518 147.874347,54.3854814 C148.717787,54.38815 149.400126,55.0751494 149.400134,55.9216903 C149.400143,56.7682312 148.717818,57.4552444 147.874378,57.4579299 Z" id="Shape" fill="#662059"></path>
            <path d="M165.966689,30.2655809 C165.560713,30.2656869 165.171334,30.1038683 164.884266,29.815746 C164.597197,29.5276237 164.435971,29.1368155 164.436077,28.729349 C164.430374,22.7080806 161.187068,17.15874 155.953423,14.2154142 C155.217037,13.8005566 154.954601,12.8654566 155.36698,12.1258259 C155.77936,11.3861953 156.710696,11.1215766 157.448158,11.5345052 C163.648896,15.021069 167.491322,21.5957603 167.497286,28.729349 C167.497391,29.1368128 167.336167,29.5276187 167.049102,29.8157406 C166.762037,30.1038625 166.372662,30.2656828 165.966689,30.2655809 Z" id="Shape" fill="#FFFFFF"></path>
            <path d="M164.125179,39.0261429 C163.157073,39.0156634 162.374819,38.2305372 162.364378,37.2588771 C162.362834,36.7858157 162.550812,36.3319863 162.886041,35.9994435 C163.584036,35.3464554 164.666321,35.3464554 165.364316,35.9994435 C165.697007,36.3336954 165.884526,36.7864158 165.88598,37.2588771 C165.875538,38.2305372 165.093284,39.0156634 164.125179,39.0261429 Z" id="Shape" fill="#FFFFFF"></path>
            <polyline id="Shape" fill="#FFFFFF" points="140.908163 27.5538551 143.885204 18.357971 146.862245 27.5538551 156.494388 27.5538551 148.702041 33.2363768 151.679082 42.4307246 143.885204 35.9662609 136.091327 42.4307246 139.068367 33.2363768 131.27602 27.5538551"></polyline>
            <path d="M151.678485,43.9678936 C151.32274,43.9680093 150.978093,43.8435998 150.703913,43.6160965 L143.884929,37.9586922 L137.065929,43.6160504 C136.541175,44.0513541 135.793023,44.0864401 135.230114,43.7021444 C134.667204,43.3178488 134.424874,42.6065647 134.635485,41.9567971 L137.269209,33.8225722 L130.375469,28.7960214 C129.691527,28.2972336 129.53995,27.3364054 130.036913,26.6499516 C130.533877,25.9634979 131.49119,25.8113646 132.175133,26.3101525 L139.968704,31.9930122 C140.50515,32.3843028 140.729618,33.0777422 140.524745,33.7107652 L139.17499,37.8806516 L142.910342,34.7811809 C143.475831,34.3116063 144.293996,34.3116063 144.859485,34.7811809 L148.594837,37.8806516 L147.245082,33.7107652 C147.040208,33.0777422 147.264676,32.3843028 147.801122,31.9930122 L151.783148,29.0893957 L146.862474,29.0893957 C146.199264,29.0897026 145.611381,28.6611021 145.406602,28.0279823 L143.884959,23.3292788 L142.364816,28.0279823 C142.102131,28.8330925 141.239702,29.272866 140.43694,29.0110531 C139.634178,28.7492401 139.194047,27.8846495 139.453071,27.0783452 L142.429102,17.8834597 C142.63415,17.2505389 143.22187,16.8220656 143.884974,16.8220656 C144.548079,16.8220656 145.135799,17.2505389 145.340847,17.8834597 L147.974571,26.0169319 L156.494587,26.0169319 C157.157772,26.0168044 157.745596,26.4453463 157.950559,27.0783804 C158.155521,27.7114145 157.930989,28.4049141 157.394418,28.7960983 L150.500679,33.822649 L153.134403,41.9568739 C153.286105,42.4246181 153.205377,42.9369934 152.91728,43.3349342 C152.629182,43.732875 152.168587,43.968215 151.678485,43.9678936 Z" id="Shape" fill="#662059"></path>
            <ellipse id="Oval" fill="#F7DCDC" cx="123.631393" cy="18.3582783" rx="7.65306122" ry="7.68115942"></ellipse>
            <ellipse id="Oval" fill="#C4C4C4" cx="223.561867" cy="62.1711046" rx="6.20692347" ry="6.22971217"></ellipse>
            <path d="M223.561959,69.9368183 C219.945958,69.9358034 216.813233,67.4203505 216.018587,63.8797931 C215.223942,60.3392357 216.979475,56.7185871 220.245783,55.1615378 C223.512091,53.6044885 227.41736,54.5266321 229.649383,57.3819915 C231.881406,60.2373509 231.844432,64.2637998 229.560352,67.0773838 C229.026241,67.7352536 228.0619,67.8339898 227.406436,67.2979174 C226.750973,66.761845 226.652598,65.7939635 227.186709,65.1360936 C227.8704,64.3007085 228.24205,63.251963 228.237505,62.1708896 C228.237505,60.2724917 227.098081,58.5610365 225.350577,57.8346214 C223.603073,57.1082063 221.591656,57.5098973 220.254303,58.8523749 C218.916951,60.1948526 218.517052,62.213719 219.24109,63.9675225 C219.965128,65.721326 221.670506,66.864659 223.561959,66.8643545 C224.407293,66.8643546 225.092571,67.552149 225.092571,68.4005864 C225.092571,69.2490237 224.407293,69.9368182 223.561959,69.9368183 Z" id="Shape" fill="#662059"></path>
            <path d="M225.376515,64.5089884 C224.970539,64.5090944 224.581161,64.3472759 224.294092,64.0591535 C224.007024,63.7710312 223.845797,63.380223 223.845903,62.9727565 C223.844518,62.0222039 223.332584,61.1462545 222.506617,60.6811594 C221.770231,60.2663018 221.507795,59.3312018 221.920174,58.5915711 C222.332554,57.8519405 223.26389,57.5873218 224.001352,58.0002504 C225.794271,59.0087293 226.905275,60.9099353 226.907128,62.9727565 C226.907233,63.380223 226.746007,63.7710312 226.458938,64.0591535 C226.17187,64.3472759 225.782491,64.5090944 225.376515,64.5089884 Z" id="Shape" fill="#FFFFFF"></path>
            <ellipse id="Oval" fill="#F7DCDC" cx="218.008087" cy="64.4075817" rx="2.71951531" ry="2.7295"></ellipse>
            <rect id="Rectangle-path" fill="#FB5956" x="140.575347" y="50.3453452" width="16.4442245" height="23.7163786" rx="4.59932143"></rect>
            <path d="M168.508607,76.3359307 C168.508607,76.3359307 169.21927,90.3376858 174.431679,96.9643142 L164.354342,94.0579017 L159.257755,104.404746 C159.257755,104.404746 152.257163,87.5365359 156.802913,71.493267 C156.802913,71.493267 192.88073,88.9251667 188.562291,72.6666562 C186.028714,63.1280081 185.227959,54.9406757 188.482699,47.4024933 C188.623638,47.076085 188.77224,46.7508699 188.928505,46.4268478 C189.382094,45.4663488 189.371788,44.350125 188.900541,43.3982281 C187.011138,39.4999936 180.059832,32.3213049 156.802852,52.9138174 L156.802852,71.493267" id="Shape" fill="#FB5956"></path>
            <path d="M157.022066,52.3261472 C157.19423,56.5704948 169.349388,56.1221762 178.623276,53.1872052 C183.500112,51.6437991 187.580189,49.4126835 188.701898,46.8148078 C188.842837,46.4883995 188.991439,46.1631843 189.147704,45.8391623 C189.601293,44.8786633 189.590987,43.7624395 189.11974,42.8105426 C187.230352,38.9123388 180.279046,31.7336501 157.022066,52.3261472 Z" id="Shape" fill="#C93E4F"></path>
            <path d="M129.086296,76.3359307 C129.086296,76.3359307 128.375633,90.3376858 123.163224,96.9643142 L133.240561,94.0579017 L138.337148,104.404746 C138.337148,104.404746 145.33774,87.5365359 140.79199,71.493267 C140.79199,71.493267 104.714173,88.9251667 109.032612,72.6666562 C111.566189,63.1280081 112.366944,54.9406757 109.112204,47.4024933 C108.971265,47.076085 108.822663,46.7508699 108.666398,46.4268478 C108.212809,45.4663488 108.223116,44.350125 108.694362,43.3982281 C110.583765,39.4999936 117.535071,32.3213049 140.792051,52.9138174 L140.792051,71.493267" id="Shape" fill="#FB5956"></path>
            <path d="M140.310122,52.3261472 C140.047408,58.8024554 111.885122,54.3529901 108.630276,46.8148078 C108.489337,46.4883995 108.340735,46.1631843 108.184469,45.8391623 C107.73088,44.8786633 107.741187,43.7624395 108.212434,42.8105426 C110.101837,38.9123388 117.053143,31.7336501 140.310122,52.3261472 Z" id="Shape" fill="#C93E4F"></path>
            <path d="M152.155316,75.5979096 L144.908832,75.5979096 C141.52498,75.5940153 138.782793,72.841761 138.778913,69.4454852 L138.778913,54.961553 C138.782793,51.5652773 141.52498,48.8130229 144.908832,48.8091287 L152.155332,48.8091287 C155.53916,48.8130568 158.281309,51.5653012 158.285189,54.961553 L158.285189,69.4454852 C158.281309,72.841743 155.53915,75.5939899 152.155316,75.5979096 Z M144.908832,51.8815617 C143.214847,51.8835173 141.842086,53.2613177 141.840138,54.9615223 L141.840138,69.4454545 C141.842086,71.1456591 143.214847,72.5234595 144.908832,72.5254151 L152.155332,72.5254151 C153.849317,72.5234595 155.222077,71.1456591 155.224026,69.4454545 L155.224026,54.961553 C155.222077,53.2613485 153.849317,51.883548 152.155332,51.8815925 L144.908847,51.8815925 L144.908832,51.8815617 Z" id="Shape" fill="#662059"></path>
            <path d="M133.991311,57.0528716 C125.18876,57.0528716 112.324332,54.6277606 107.082276,46.2887406 C106.790432,45.8245925 106.767472,45.2394338 107.022044,44.7536882 C107.276617,44.2679426 107.770045,43.9554064 108.31646,43.9338089 C108.862876,43.9122115 109.379264,44.1848339 109.671107,44.648982 C115.355602,53.692349 133.487526,54.9233009 139.973189,53.4628052 C140.506673,53.3422107 141.063734,53.5164322 141.434531,53.919842 C141.805329,54.3232518 141.933531,54.8945625 141.770845,55.4185668 C141.608159,55.9425711 141.1793,56.3396603 140.645816,56.4602548 C138.454172,56.8892024 136.223965,57.0878134 133.991311,57.0528716 Z" id="Shape" fill="#662059"></path>
            <path d="M138.336459,105.941562 C137.7542,105.941841 137.222268,105.610342 136.964296,105.086434 L132.435214,95.8885525 L123.586362,98.4404333 C122.947379,98.6248861 122.262833,98.3742074 121.892337,97.8200867 C121.521842,97.2659661 121.550147,96.5351557 121.962383,96.0115739 C125.587867,91.4028783 126.916699,82.70756 127.358388,78.5639432 C120.253148,80.8713635 112.473781,82.3760258 109.049342,79.5300948 C107.188393,77.9833551 106.685418,75.5417449 107.553857,72.2704928 L109.291485,64.0665075 C110.302018,58.6734601 109.75244,53.1027482 107.70776,48.0133299 C107.574735,47.7042861 107.434974,47.3997435 107.28848,47.0959383 C106.626998,45.7124795 106.637727,44.1002405 107.317561,42.7257733 C108.54582,40.0826628 110.958473,38.1877109 113.809959,37.6264974 C120.318122,36.3160916 129.735658,41.0747696 141.804168,51.7616281 C142.214767,52.124361 142.401241,52.6794745 142.293288,53.2176813 C142.185334,53.7558882 141.799371,54.1953376 141.280912,54.3703498 C140.762453,54.5453619 140.190346,54.4293208 139.780286,54.0659759 C125.688643,41.588593 118.210454,39.8753412 114.410832,40.6396933 C112.497263,41.0128166 110.880944,42.290333 110.070903,44.0699148 C109.803695,44.5981141 109.79377,45.2203992 110.043995,45.7569125 C110.210658,46.1019604 110.368602,46.4477611 110.517827,46.7943145 C112.803733,52.4372376 113.423546,58.621165 112.303286,64.6079986 L110.529781,72.9860081 C109.978224,75.0705672 110.142643,76.4500267 111.000628,77.1626386 C113.486342,79.2269501 120.91673,77.5902026 128.361276,74.9835551 C128.501552,74.9074864 128.6529,74.8540871 128.809745,74.8253232 C132.661694,73.4515671 136.439768,71.8774513 140.128622,70.1093678 C140.535518,69.9125691 141.008261,69.9062766 141.420213,70.0921761 C141.832166,70.2780755 142.141227,70.6371679 142.264607,71.0732612 C146.902776,87.4437322 140.043429,104.286779 139.748969,104.996334 C139.51852,105.552181 138.985334,105.92127 138.385776,105.939979 C138.369337,105.941562 138.352898,105.941562 138.336459,105.941562 Z M133.240898,92.5220386 C133.823125,92.5218717 134.355003,92.8533366 134.613061,93.3771667 L138.086832,100.431236 C139.711607,95.106933 142.203337,84.2843023 139.769908,73.669447 C137.763964,74.5883287 134.384372,76.0690412 130.542138,77.4665206 C130.309699,80.331209 129.425571,88.3559159 126.510077,94.4003278 L132.817867,92.5820591 C132.955378,92.5422712 133.097772,92.5220467 133.240883,92.5219771 L133.240898,92.5220386 Z" id="Shape" fill="#662059"></path>
            <path d="M178.58527,54.6142571 C177.839329,54.6139813 177.202142,54.0742199 177.076557,53.3362266 C176.950973,52.5982333 177.373543,51.8768058 178.077107,51.6280528 C182.73476,49.9823029 186.047005,47.6336962 187.924439,44.6489513 C188.216279,44.1847921 188.732671,43.912158 189.279094,43.9337476 C189.825518,43.9553372 190.318958,44.2678705 190.573541,44.7536193 C190.828124,45.239368 190.805172,45.8245354 190.513332,46.2886945 C188.25926,49.8727235 184.417791,52.6444084 179.093526,54.5264307 C178.930291,54.5844066 178.758424,54.6141053 178.58527,54.6142571 Z" id="Shape" fill="#662059"></path>
            <path d="M163.486929,57.034867 C161.293674,57.0706797 159.10263,56.8781332 156.948949,56.4603162 C156.124254,56.2738933 155.60628,55.4517657 155.79202,54.6240429 C155.977761,53.7963201 156.796882,53.2764438 157.621577,53.4628667 C161.998547,54.1716804 166.4621,54.1501393 170.832077,53.399113 C171.66717,53.2721887 172.446932,53.8479834 172.57474,54.6859364 C172.702548,55.5238895 172.130119,56.3074431 171.295439,56.437073 C168.711116,56.8316627 166.100983,57.0314859 163.486929,57.034867 Z" id="Shape" fill="#662059"></path>
            <path d="M155.268857,84.9398278 C154.425803,84.9399608 153.741415,84.2557461 153.738245,83.4096026 C153.690068,79.2429212 154.225927,75.090141 155.330082,71.0732458 C155.453462,70.6371525 155.762523,70.2780602 156.174476,70.0921607 C156.586428,69.9062613 157.05917,69.9125537 157.466066,70.1093525 C166.663194,74.5507678 182.707714,80.3926583 186.594031,77.1626693 C187.452015,76.4500574 187.61648,75.070598 187.084301,73.0625432 C184.946832,65.0153304 183.274209,55.601409 187.078316,46.7913342 C187.227796,46.4462812 187.384745,46.0997226 187.552148,45.7554223 C187.801502,45.2193748 187.791029,44.5979443 187.523755,44.0706675 C186.713913,42.2910429 185.097896,41.0132778 183.184469,40.6396472 C179.396801,39.8812864 171.912643,41.5855359 157.814265,54.0659299 C157.404205,54.4292747 156.832098,54.5453158 156.313639,54.3703037 C155.79518,54.1952915 155.409217,53.7558421 155.301263,53.2176353 C155.19331,52.6794284 155.379784,52.124315 155.790383,51.761582 C167.860393,41.0754762 177.27127,36.3182577 183.785281,37.6272041 C186.636697,38.1881749 189.049217,40.0832415 190.276929,42.72648 C190.958416,44.1006063 190.968897,45.7137155 190.305321,47.0966449 C190.158842,47.4019454 190.019832,47.7069899 189.888291,48.0117783 C187.157403,54.3337258 187.203735,61.5880739 190.040755,72.2704159 C190.910694,75.5416528 190.406969,77.9832783 188.54602,79.530018 C182.659745,84.4222559 163.91273,76.4597971 157.824658,73.6693855 C157.11202,76.8618835 156.767959,80.1261148 156.79927,83.3976046 C156.802531,84.2460239 156.119958,84.9364815 155.274643,84.9398432 L155.268658,84.9398432 L155.268857,84.9398278 Z" id="Shape" fill="#662059"></path>
            <path d="M159.258306,105.941562 C159.241867,105.941562 159.225429,105.941562 159.208974,105.940026 C158.609416,105.921316 158.07623,105.552227 157.845781,104.99638 C156.209987,100.736096 155.054825,96.3053062 154.401903,91.7868901 C154.275784,90.9476589 154.85129,90.1646785 155.687426,90.0379273 C156.523562,89.911176 157.303794,90.4886378 157.43025,91.327818 C157.897763,94.4116946 158.5907,97.4568702 159.503449,100.438687 L162.981704,93.3771206 C163.309347,92.7107825 164.065606,92.3758194 164.776883,92.5819977 L171.084673,94.4002664 C167.564571,87.1016287 167.005592,76.9173791 166.980122,76.4140635 C166.938038,75.5668896 167.587499,74.8455594 168.43151,74.8020646 C169.267135,74.7819884 169.972668,75.4209517 170.038347,76.257291 C170.044332,76.3930632 170.787214,89.8515913 175.633148,96.0115278 C176.045011,96.535342 176.072992,97.2660689 175.702398,97.8200645 C175.331805,98.37406 174.647346,98.6246972 174.008372,98.4403872 L165.159536,95.8884603 L160.630454,105.086341 C160.37251,105.610281 159.84058,105.941818 159.258306,105.941562 Z" id="Shape" fill="#662059"></path>
            <path d="M148.798133,66.3542794 C148.392157,66.3543854 148.002778,66.1925669 147.71571,65.9044446 C147.428641,65.6163222 147.267415,65.225514 147.26752,64.8180475 L147.26752,60.3399316 C147.26752,59.4914942 147.952799,58.8036997 148.798133,58.8036997 C149.643466,58.8036997 150.328745,59.4914942 150.328745,60.3399316 L150.328745,64.8180475 C150.32885,65.225514 150.167624,65.6163222 149.880556,65.9044446 C149.593487,66.1925669 149.204109,66.3543854 148.798133,66.3542794 Z" id="Shape" fill="#FFFFFF"></path>
            <path d="M58.3628571,38.2128771 L68.6969235,44.6777096 C68.6969235,44.6777096 71.8462959,52.065249 65.1193929,53.9940035 C58.3924898,55.922758 57.1975561,47.695038 57.0700255,45.8572745 C57.0699949,45.8572745 56.3789388,41.1449446 58.3628571,38.2128771 Z" id="Shape" fill="#FFFFFF"></path>
            <path d="M85.6708316,44.0954162 C85.1150956,44.0948139 84.6033465,43.7919295 84.3338651,43.3041177 C84.0643836,42.8163059 84.0795136,42.2202169 84.3733929,41.7468096 L87.4854337,36.7360513 C87.9324546,36.0160376 88.876388,35.7960637 89.5937679,36.2447259 C90.3111477,36.6933881 90.5303169,37.6407872 90.0832959,38.3608009 L86.9712551,43.3715591 C86.6917725,43.82243 86.1998968,44.0962237 85.6708316,44.0954162 Z" id="Shape" fill="#662059"></path>
            <path d="M88.8975765,75.6886701 C88.8975765,75.6886701 86.5199235,61.9783536 85.7650714,58.713569 L85.0107092,55.4509043 L93.5434898,42.0913864 L97.1892704,57.8595316 L88.8975765,75.6886701 Z" id="Shape" fill="#FFFFFF"></path>
            <path d="M74.2467857,36.652342 L71.7119082,25.6888081 C71.7119082,25.6888081 63.0838469,26.0305429 58.0954592,37.275791 L68.6309235,43.8666252 C68.5679855,40.4316794 70.9108299,37.4220005 74.2467857,36.652342 Z" id="Shape" fill="#FB5956"></path>
            <path d="M96.1541786,80.2282814 C92.9013341,80.985936 89.6524291,78.9535034 88.8975459,75.6887162 L88.1431837,72.426067 L97.1892245,57.8595162 L100.677168,72.9450368 C101.43203,76.2098234 99.4070206,79.4706403 96.1541786,80.2282814 Z" id="Shape" fill="#FB5956"></path>
            <path d="M80.8476276,42.4172058 C79.7010765,35.9133377 74.246801,36.652342 74.246801,36.652342 L71.7119082,25.6888081 C77.4071943,25.8126667 82.9672803,27.4540325 87.8224439,30.4447209 L80.8476276,42.4172058 Z" id="Shape" fill="#FFFFFF"></path>
            <path d="M84.4464949,56.4375339 L81.7638673,44.8350043 L81.0095051,41.5723397 L87.8224439,30.4447055 C90.6640395,33.7894997 92.6303044,37.7923394 93.5434898,42.091371 L84.4464949,56.4375339 Z" id="Shape" fill="#FB5956"></path>
            <path d="M94.35975,76.202509 C93.894553,76.196857 93.4498339,76.0096014 93.1198622,75.6804359 C92.7860761,75.3531967 92.5984455,74.9043086 92.599699,74.4359959 C92.5981447,73.9632293 92.7855103,73.5095746 93.1198622,73.1765623 C93.8182858,72.5231951 94.9012142,72.5231951 95.5996378,73.1765623 C95.9342821,73.5093775 96.1217008,73.9631609 96.119801,74.4359959 C96.1213998,74.9043778 95.933715,75.3533955 95.5996378,75.6804359 C95.2697485,76.0097249 94.8249771,76.1970025 94.35975,76.202509 Z" id="Shape" fill="#FFFFFF"></path>
            <ellipse id="Oval" fill="#F7DCDC" transform="translate(71.185918, 26.434987) rotate(-58.064820) translate(-71.185918, -26.434987) " cx="71.1859175" cy="26.4349873" rx="5.75810204" ry="5.7792429"></ellipse>
            <path d="M94.7341684,81.9333299 C91.1775728,81.9280216 88.0921363,79.4671405 87.2836378,75.9909391 L79.4004031,41.896838 C78.8394607,39.4704214 76.4249232,37.9598254 74.0073827,38.5228272 C71.5898421,39.0858291 70.0847719,41.5092316 70.6457143,43.9356481 L71.1868163,46.276758 C72.1368924,50.4058316 69.5775381,54.5275822 65.4657092,55.4904009 C64.9330262,55.6144805 64.3748533,55.4439084 64.0014487,55.0429375 C63.6280442,54.6419666 63.4961371,54.0715139 63.6554156,53.5464633 C63.814694,53.0214128 64.2409599,52.6215321 64.7736429,52.4974525 C67.2397649,51.9199469 68.7747196,49.4478207 68.2048163,46.9713652 L67.6637602,44.63024 C67.0536425,41.9913462 67.8925537,39.2262188 69.864484,37.3764546 C71.8364143,35.5266904 74.6417806,34.8733126 77.2238286,35.6624422 C79.8058765,36.4515719 81.7723315,38.5633215 82.382449,41.2022154 L90.265699,75.2963626 C90.8384127,77.7733205 93.3033147,79.3153109 95.7712117,78.7404946 C98.2391088,78.1656782 99.7754585,75.6917264 99.2027449,73.2147684 L91.4988673,39.8947438 C89.4102969,30.8612479 80.4208691,25.2374898 71.4204184,27.3337284 C62.4199676,29.429967 56.8167816,38.4523995 58.905352,47.4858954 L59.2678316,49.0528519 C59.3914574,49.5874906 59.2215093,50.1477129 58.8220051,50.5224884 C58.422501,50.8972639 57.854135,51.0296552 57.3310051,50.869792 C56.8078753,50.7099287 56.4094574,50.2820979 56.2858316,49.7474591 L55.923352,48.1805026 C54.325035,41.2675752 56.5226411,34.0239441 61.6883534,29.1782152 C66.8540657,24.3324864 74.2030896,22.6208412 80.9671189,24.6880398 C87.7311481,26.7552385 92.8825658,32.2872244 94.4808827,39.2001519 L102.18476,72.5201765 C102.708999,74.800425 102.169523,77.1961707 100.719206,79.0285158 C99.2688888,80.8608609 97.0657727,81.9301346 94.7341684,81.9333299 Z" id="Shape" fill="#662059"></path>
            <path d="M88.1416378,73.9619148 C87.5859017,73.9613125 87.0741527,73.6584281 86.8046712,73.1706162 C86.5351897,72.6828044 86.5503197,72.0867155 86.844199,71.6133081 L91.9651684,63.3680597 C92.4121893,62.648046 93.3561227,62.4280721 94.0735026,62.8767343 C94.7908824,63.3253966 95.0100516,64.2727956 94.5630306,64.9928093 L89.4420612,73.2380577 C89.1625786,73.6889286 88.6707029,73.9627222 88.1416378,73.9619148 Z" id="Shape" fill="#662059"></path>
            <path d="M84.5617194,58.4781414 C84.0059834,58.4775391 83.4942343,58.1746547 83.2247528,57.6868429 C82.9552713,57.1990311 82.9704014,56.6029421 83.2642806,56.1295348 L92.3104439,41.5630916 C92.7574648,40.8430779 93.7013982,40.623104 94.4187781,41.0717662 C95.1361579,41.5204284 95.3553271,42.4678275 94.9083061,43.1878412 L85.8621429,57.7542843 C85.5826602,58.2051552 85.0907845,58.4789489 84.5617194,58.4781414 Z" id="Shape" fill="#662059"></path>
            <path d="M83.8233367,38.4178104 C83.2676007,38.4172081 82.7558516,38.1143237 82.4863702,37.6265119 C82.2168887,37.1387001 82.2320187,36.5426111 82.525898,36.0692038 L86.5235816,29.6324843 C86.8115045,29.1639724 87.3271968,28.885907 87.8753661,28.9035917 C88.4235355,28.9212763 88.9203713,29.232007 89.1777219,29.7181102 C89.4350726,30.2042134 89.4135914,30.7913679 89.1214133,31.2572186 L85.1237602,37.6939533 C84.8442776,38.1448242 84.3524019,38.4186179 83.8233367,38.4178104 Z" id="Shape" fill="#662059"></path>
            <path d="M68.6293163,45.4028571 C68.3436113,45.4029581 68.0636424,45.3223744 67.8214133,45.1703177 L57.28575,38.5798829 C56.5683701,38.1312207 56.349201,37.1838217 56.7962219,36.463808 C57.2432429,35.7437943 58.1871763,35.5238204 58.9045561,35.9724826 L69.4402194,42.5629174 C70.020178,42.9257416 70.2902246,43.630484 70.1019529,44.2898479 C69.9136812,44.9492119 69.3127136,45.4034193 68.6293163,45.4028571 Z" id="Shape" fill="#662059"></path>
            <path d="M74.2974337,38.414062 C73.5860408,38.413142 72.9689779,37.9205954 72.8079337,37.2251261 L70.5112653,27.29288 C70.3201565,26.4664001 70.8327756,25.6409128 71.6562322,25.4491023 C72.4796887,25.2572918 73.3021564,25.7717929 73.4932653,26.5982728 L75.7899337,36.5305188 C75.8955245,36.9871462 75.7876152,37.4671735 75.4969007,37.8340568 C75.2061862,38.2009401 74.764483,38.4145268 74.2974337,38.414062 Z" id="Shape" fill="#662059"></path>
            <path d="M239.232061,38.2128771 L228.897995,44.6777096 C228.897995,44.6777096 225.748622,52.065249 232.475526,53.9940035 C239.202429,55.922758 240.397378,47.695038 240.524893,45.8572745 C240.524908,45.8572745 241.215964,41.1449446 239.232061,38.2128771 Z" id="Shape" fill="#FFFFFF"></path>
            <path d="M211.923964,44.0954162 C211.394899,44.0962237 210.903023,43.82243 210.623541,43.3715591 L207.5115,38.3608009 C207.222328,37.8950337 207.202697,37.3098092 207.460002,36.8255759 C207.717307,36.3413427 208.212456,36.0316671 208.758933,36.0132011 C209.30541,35.9947351 209.82019,36.270284 210.109362,36.7360513 L213.221403,41.7468096 C213.515584,42.2201709 213.530868,42.8164209 213.261328,43.3043386 C212.991788,43.7922563 212.479821,44.095095 211.923964,44.0954162 Z" id="Shape" fill="#662059"></path>
            <path d="M208.697342,75.6886701 C208.697342,75.6886701 211.074995,61.9783536 211.829847,58.713569 L212.584209,55.4509043 L204.051429,42.0913864 L200.405663,57.8595162 L208.697342,75.6886701 Z" id="Shape" fill="#FFFFFF"></path>
            <path d="M223.348117,36.652342 L225.88301,25.6888081 C225.88301,25.6888081 234.511071,26.0305429 239.499459,37.275791 L228.963995,43.8666252 C229.026931,40.4316748 226.684079,37.4219942 223.348117,36.652342 Z" id="Shape" fill="#FB5956"></path>
            <path d="M201.440801,80.2282814 C204.693645,80.985936 207.94255,78.9535034 208.697434,75.6887162 L209.451796,72.426067 L200.405755,57.8595162 L196.917811,72.9450368 C196.162949,76.2098234 198.187959,79.4706403 201.440801,80.2282814 Z" id="Shape" fill="#FB5956"></path>
            <path d="M216.747276,42.4172058 C217.893827,35.9133377 223.348102,36.652342 223.348102,36.652342 L225.882995,25.6888081 C220.187709,25.8126667 214.627623,27.4540325 209.772459,30.4447209 L216.747276,42.4172058 Z" id="Shape" fill="#FFFFFF"></path>
            <path d="M213.148454,56.4375339 L215.831082,44.8350043 L216.585444,41.5723397 L209.772505,30.4447055 C206.930909,33.7894997 204.964645,37.7923394 204.051459,42.091371 L213.148454,56.4375339 Z" id="Shape" fill="#FB5956"></path>
            <path d="M203.232015,76.202509 C202.767039,76.1968543 202.322555,76.0095843 201.992878,75.6804359 C201.65851,75.3535941 201.470771,74.9044468 201.472714,74.4359959 C201.470469,73.9630927 201.657941,73.5091806 201.992878,73.1765623 C202.694234,72.5307145 203.771296,72.5307145 204.472653,73.1765623 C204.807005,73.5095746 204.994371,73.9632293 204.992816,74.4359959 C204.99407,74.9043086 204.806439,75.3531967 204.472653,75.6804359 C204.144205,76.0123363 203.69809,76.2000659 203.232015,76.202509 Z" id="Shape" fill="#FFFFFF"></path>
            <ellipse id="Oval" fill="#F7DCDC" transform="translate(226.408988, 26.434994) rotate(-31.935180) translate(-226.408988, -26.434994) " cx="226.408988" cy="26.4349937" rx="5.75810204" ry="5.7792429"></ellipse>
            <path d="M202.861332,81.9333299 C200.528614,81.9331355 198.32346,80.8646819 196.872373,79.0315267 C195.421286,77.1983714 194.88286,74.800865 195.410066,72.5201612 L203.113944,39.2001365 C205.584728,28.513469 216.219259,21.8605333 226.866834,24.3403887 C237.514409,26.820244 244.143008,37.4938196 241.672224,48.1804872 L241.310495,49.7467217 C241.117995,50.5715808 240.296712,51.0845117 239.474367,50.8934716 C238.652023,50.7024314 238.138814,49.8794823 238.326995,49.05362 L238.688724,47.4866635 C240.767554,38.4570355 235.16468,29.4443121 226.170061,27.3492765 C217.175442,25.2542408 208.190371,30.8691254 206.094459,39.8947745 L198.390582,73.2147991 C197.831491,75.686982 199.368073,78.1478514 201.828526,78.7207426 C204.288979,79.2936339 206.748125,77.7631285 207.330612,75.2963933 L215.213862,41.2022461 C216.157022,37.1228698 220.216495,34.5832713 224.280949,35.5298942 C228.345403,36.4765171 230.875711,40.5508944 229.932551,44.6302707 L229.388464,46.972118 C228.817941,49.448746 230.353655,51.9212178 232.820388,52.4974525 C233.642854,52.6897324 234.154716,53.5143021 233.964194,54.3400335 C233.773672,55.1657649 232.952776,55.6805635 232.129821,55.4904009 C228.017651,54.5279782 225.457868,50.4060773 226.407964,46.276758 L226.950551,43.9349107 C227.507448,41.509344 226.003952,39.0888126 223.588883,38.5228426 C222.427879,38.2516153 221.207069,38.4548341 220.195466,39.0877183 C219.183864,39.7206024 218.464489,40.7312126 218.195862,41.8968533 L210.311112,75.9910006 C209.502613,79.4668785 206.417613,81.927634 202.861332,81.9333299 Z" id="Shape" fill="#662059"></path>
            <path d="M209.453128,73.9619148 C208.924062,73.9627222 208.432187,73.6889286 208.152704,73.2380577 L203.031735,64.9928093 C202.584714,64.2727956 202.803883,63.3253966 203.521263,62.8767343 C204.238643,62.4280721 205.182576,62.648046 205.629597,63.3680597 L210.750566,71.6133081 C211.044747,72.0866694 211.060031,72.6829195 210.790491,73.1708372 C210.520951,73.6587548 210.008984,73.9615936 209.453128,73.9619148 Z" id="Shape" fill="#662059"></path>
            <path d="M213.033015,58.4781414 C212.50395,58.4789489 212.012074,58.2051552 211.732592,57.7542843 L202.686429,43.1878412 C202.239408,42.4678275 202.458577,41.5204284 203.175957,41.0717662 C203.893336,40.623104 204.83727,40.8430779 205.284291,41.5630916 L214.330454,56.1295348 C214.624635,56.6028961 214.639919,57.1991461 214.370379,57.6870638 C214.100839,58.1749815 213.588872,58.4778202 213.033015,58.4781414 Z" id="Shape" fill="#662059"></path>
            <path d="M213.771413,38.4178104 C213.242348,38.4186179 212.750472,38.1448242 212.47099,37.6939533 L208.474056,31.2572339 C208.027035,30.5372202 208.246204,29.5898212 208.963584,29.141159 C209.680964,28.6924968 210.624897,28.9124706 211.071918,29.6324843 L215.068852,36.0692038 C215.363033,36.5425651 215.378317,37.1388151 215.108777,37.6267328 C214.839237,38.1146505 214.32727,38.4174892 213.771413,38.4178104 Z" id="Shape" fill="#662059"></path>
            <path d="M228.965434,45.4028571 C228.282092,45.403402 227.681146,44.9493132 227.492731,44.2900485 C227.304316,43.6307839 227.574068,42.926023 228.153796,42.5629328 L238.688709,35.972498 C239.405948,35.5258472 240.34806,35.7461517 240.794752,36.4649772 C241.241445,37.1838028 241.02415,38.1298861 240.309,38.5798983 L229.774087,45.170333 C229.531543,45.3223013 229.251359,45.4028667 228.965434,45.4028571 Z" id="Shape" fill="#662059"></path>
            <path d="M223.297393,38.414062 C222.830386,38.4142716 222.388792,38.2006567 222.098013,37.8338799 C221.807235,37.467103 221.699036,36.9872296 221.804143,36.5305342 L224.100061,26.5982881 C224.292808,25.7732415 225.114535,25.2604399 225.937021,25.4519278 C226.759506,25.6434158 227.272389,26.4669363 227.083561,27.2928954 L224.787643,37.2251414 C224.626463,37.9208367 224.009036,38.4134197 223.297393,38.414062 Z" id="Shape" fill="#662059"></path>
            <ellipse id="Oval" fill="#2D9693" transform="translate(251.568621, 58.044807) rotate(-38.094490) translate(-251.568621, -58.044807) " cx="251.568621" cy="58.0448071" rx="7.503" ry="7.53054725"></ellipse>
            <path d="M251.577842,67.1073864 C247.723811,67.1124874 244.291256,64.6622198 243.031291,61.0065861 C241.771327,57.3509524 242.961641,53.295628 245.994995,50.9094342 C246.660366,50.3857872 247.622702,50.5026572 248.144434,51.1704708 C248.666165,51.8382844 248.549723,52.804154 247.884352,53.3278012 C246.205265,54.6489892 245.355991,56.7688886 245.656445,58.8889537 C245.956898,61.0090187 247.361432,62.8071612 249.340973,63.6060382 C251.320513,64.4049151 253.574321,64.0831582 255.253408,62.7619701 C255.918779,62.2383231 256.881115,62.3551932 257.402847,63.0230067 C257.924578,63.6908203 257.808136,64.65669 257.142765,65.1803371 C255.555668,66.4310053 253.595668,67.1097239 251.577842,67.1073864 Z" id="Shape" fill="#662059"></path>
            <ellipse id="Oval" fill="#2D9693" transform="translate(6.501100, 59.557800) rotate(-20.631050) translate(-6.501100, -59.557800) " cx="6.50109958" cy="59.5578002" rx="4.97043367" ry="4.98868261"></ellipse>
            <path d="M6.49752551,66.0864835 C3.35673662,66.0833774 0.666926237,63.8278232 0.105358005,60.7262987 C-0.456210226,57.6247742 1.27094133,54.5635927 4.20982653,53.4515907 C4.72190943,53.2559516 5.29913067,53.3500392 5.72320913,53.6982734 C6.1472876,54.0465077 6.35349589,54.5957373 6.26385458,55.1382666 C6.17421327,55.6807958 5.80240439,56.1338179 5.28903061,56.3260188 C3.51855216,57.0029779 2.62666666,58.9892817 3.29407663,60.7689486 C3.96148659,62.5486155 5.93694831,63.4516973 7.7127551,62.7889464 C8.50272865,62.4931899 9.38222626,62.8945019 9.67953819,63.6863834 C9.97685012,64.4782649 9.57994635,65.3623273 8.79195918,65.6633745 C8.05885164,65.9422146 7.2815088,66.0855618 6.49752551,66.0864835 Z" id="Shape" fill="#662059"></path>
            <ellipse id="Oval" fill="#2D9693" transform="translate(40.630459, 51.408889) rotate(-18.929080) translate(-40.630459, -51.408889) " cx="40.6304591" cy="51.408889" rx="8.56518367" ry="8.59663072"></ellipse>
            <path d="M40.6209031,61.5467954 C35.6874686,61.5401415 31.4809104,57.9569241 30.6722297,53.0723471 C29.863549,48.18777 32.6894723,43.4317042 37.355648,41.8240667 C37.8731699,41.6448794 38.4466405,41.7568019 38.859549,42.1175785 C39.2724574,42.4783551 39.4619032,43.0330269 39.3563621,43.5721804 C39.250821,44.1113339 38.8663706,44.5528372 38.3481582,44.7300029 C35.9623221,45.5417614 34.1911009,47.5720239 33.7044572,50.0528455 C33.2178136,52.5336671 34.0900454,55.08629 35.9912319,56.7451872 C37.8924184,58.4040844 40.5322972,58.9159848 42.9123367,58.0872626 C43.4304313,57.9056038 44.0057752,58.0162424 44.420279,58.3772399 C44.8347829,58.7382374 45.0250007,59.2943378 44.9188288,59.8347461 C44.8126568,60.3751545 44.4263463,60.8171532 43.9063316,60.9931988 C42.8491809,61.3586346 41.7389972,61.5457012 40.6209031,61.5467954 Z" id="Shape" fill="#662059"></path>
            <ellipse id="Oval" fill="#2D9693" transform="translate(109.654937, 39.356462) rotate(-18.690860) translate(-109.654937, -39.356462) " cx="109.654937" cy="39.3564617" rx="4.79106122" ry="4.80865159"></ellipse>
            <path d="M109.660699,45.7014084 C106.949048,45.7004488 104.538948,43.9667612 103.666821,41.3897586 C103.40544,40.5888968 103.83568,39.7261983 104.631089,39.4562497 C105.426498,39.1863011 106.290095,39.6098928 106.566612,40.4056177 C107.147022,42.1132387 108.994965,43.0272206 110.697754,42.4488562 C112.400542,41.8704919 113.315696,40.0180042 112.743612,38.3075551 C112.562384,37.7860397 112.674042,37.2070217 113.036057,36.7910358 C113.398073,36.37505 113.954717,36.1861343 114.493976,36.2962424 C115.033235,36.4063506 115.472095,36.7985322 115.643403,37.3234142 C116.296147,39.2591635 115.979854,41.391977 114.793711,43.0530155 C113.607567,44.7140541 111.696831,45.6999042 109.660699,45.7014084 Z" id="Shape" fill="#662059"></path>
            <ellipse id="Oval" fill="#F4C95E" cx="82.0635459" cy="71.6769235" rx="11.9075816" ry="11.9513003"></ellipse>
            <path d="M82.0632857,85.1648551 C75.2887202,85.1617997 69.5766885,80.0959003 68.7398495,73.3485364 C67.9030105,66.6011725 72.2033067,60.2843633 78.7703822,58.6144438 C85.3374578,56.9445244 92.1157262,60.4442028 94.5808384,66.7775186 C97.0459506,73.1108344 94.426292,80.2953712 88.4704286,83.5356043 C87.9897374,83.7985346 87.40575,83.7838552 86.9387751,83.4971038 C86.4718001,83.2103524 86.1929076,82.6951706 86.2073095,82.14591 C86.2217114,81.5966493 86.5272157,81.0969033 87.0085714,80.8352006 C91.6118912,78.3328565 93.6378218,72.7813657 91.7338797,67.8868275 C89.8299377,62.9922893 84.5922133,60.2870967 79.5173398,61.5771993 C74.4424664,62.8673019 71.1192965,67.7487915 71.766333,72.9628523 C72.4133695,78.1769131 76.8280368,82.0911155 82.0631633,82.0923913 C82.9084971,82.0923574 83.5938029,82.7801243 83.5938367,83.6285617 C83.5938705,84.4769992 82.9086195,85.1648211 82.0632857,85.1648551 Z" id="Shape" fill="#662059"></path>
            <path d="M88.483148,74.7502936 C87.6378142,74.7502936 86.9525357,74.0624992 86.9525357,73.2140617 C86.9503893,70.879399 85.6927448,68.7277333 83.6633571,67.5867061 C82.927357,67.1712489 82.6655425,66.2360908 83.0782152,65.496676 C83.490888,64.7572612 84.4221742,64.4928798 85.1595918,64.9057971 C88.1548628,66.5910929 90.0107764,69.7676191 90.0137602,73.2140464 C90.0137643,73.6214831 89.8525056,74.0122336 89.5654597,74.3003363 C89.2784138,74.588439 88.8890942,74.7502936 88.483148,74.7502936 Z" id="Shape" fill="#FFFFFF"></path>
            <ellipse id="Oval" fill="#F7DCDC" cx="71.4089847" cy="67.1189081" rx="3.36353571" ry="3.37588493"></ellipse>
            <ellipse id="Oval" fill="#F4C95E" cx="25.8956786" cy="54.3845751" rx="11.9075816" ry="11.9513003"></ellipse>
            <path d="M25.8954949,67.8717539 C19.1219269,67.8677632 13.4114073,62.8018705 12.5755238,56.0553957 C11.7396403,49.3089209 16.0400304,42.9935588 22.6063224,41.32461 C29.1726143,39.6556613 35.9495119,43.1555187 38.4136545,49.4881403 C40.8777971,55.8207619 38.2578904,63.0039919 32.3026378,66.2432559 C31.5598247,66.6471075 30.6314737,66.3707605 30.2281555,65.6257342 C29.8248373,64.8807079 30.098993,63.948598 30.8407806,63.5428522 C35.4450971,61.0410335 37.4722138,55.4892078 35.5688267,50.5937765 C33.6654396,45.6983451 28.4274824,42.9920246 23.3518178,44.2815557 C18.2761531,45.5710868 14.951927,50.4527288 15.5983942,55.6674951 C16.2448615,60.8822614 20.6596189,64.7974547 25.8953724,64.7992901 C26.4422075,64.7992682 26.9475157,65.092052 27.2209522,65.5673529 C27.4943887,66.0426537 27.494412,66.628262 27.2210134,67.1035848 C26.9476148,67.5789075 26.44233,67.871732 25.8954949,67.8717539 Z" id="Shape" fill="#662059"></path>
            <path d="M32.3154031,57.4579299 C31.4700693,57.4579299 30.7847908,56.7701354 30.7847908,55.921698 C30.7826444,53.5870353 29.5249999,51.4353696 27.4956122,50.2943423 C26.7596121,49.8788852 26.4977976,48.943727 26.9104703,48.2043122 C27.3231431,47.4648975 28.2544293,47.200516 28.9918469,47.6134333 C31.9871179,49.2987292 33.8430315,52.4752553 33.8460153,55.9216826 C33.8460194,56.3291193 33.6847607,56.7198698 33.3977148,57.0079725 C33.1106689,57.2960752 32.7213493,57.4579299 32.3154031,57.4579299 Z" id="Shape" fill="#FFFFFF"></path>
            <ellipse id="Oval" fill="#F7DCDC" cx="15.241102" cy="49.8265597" rx="3.36353571" ry="3.37588493"></ellipse>
            <ellipse id="Oval" fill="#C4C4C4" transform="translate(49.184770, 31.668388) rotate(-17.569939) translate(-49.184770, -31.668388) " cx="49.1847705" cy="31.6683879" rx="6.20692881" ry="6.22971753"></ellipse>
            <path d="M49.1857653,39.4327067 C48.2096491,39.4332742 47.2422367,39.2484992 46.3345561,38.8881278 C45.8252367,38.686447 45.4620226,38.2270977 45.3820091,37.6834613 C45.3019955,37.139825 45.5173677,36.5946916 45.9468333,36.2538219 C46.376299,35.9129522 46.9544551,35.8282569 47.4630765,36.0317043 C48.4628781,36.4351626 49.5718893,36.474444 50.5975408,36.1427278 C53.0592929,35.3595103 54.4224665,32.7217439 53.6424037,30.2508614 C52.8623409,27.7799788 50.2343841,26.4114899 47.7724484,27.194126 C45.3105128,27.976762 43.9467207,30.6142063 44.7262041,33.085273 C44.891217,33.6083888 44.7656373,34.1801243 44.3967694,34.5851123 C44.0279015,34.9901003 43.4717854,35.1668135 42.9379046,35.0486857 C42.4040238,34.9305579 41.9734874,34.5355355 41.8084745,34.0124197 C40.7950065,30.8077939 41.9497026,27.3124646 44.6700138,25.3503818 C47.3903249,23.388299 51.0592716,23.4044722 53.7623062,25.3904618 C56.4653407,27.3764514 57.5894023,30.8818257 56.5479274,34.0773931 C55.5064526,37.2729605 52.5356528,39.4339513 49.1857653,39.4327067 Z" id="Shape" fill="#662059"></path>
            <path d="M48.9705153,35.1833203 C48.2157255,35.1825113 47.5741549,34.6296775 47.459117,33.8809665 C47.3440792,33.1322554 47.7899067,32.4111162 48.5093878,32.1821223 C49.411862,31.8938011 50.0892467,31.1393714 50.2813929,30.2085713 C50.4522771,29.3775268 51.2620364,28.8428698 52.0900408,29.0143814 C52.9180453,29.1858931 53.4507465,29.9986254 53.2798622,30.8296699 C52.8630994,32.8497199 51.3922346,34.486582 49.4331429,35.1105183 C49.2836484,35.1588028 49.1275597,35.1833659 48.9705153,35.1833203 Z" id="Shape" fill="#FFFFFF"></path>
            <ellipse id="Oval" fill="#F7DCDC" transform="translate(45.383861, 27.029288) rotate(-17.569980) translate(-45.383861, -27.029288) " cx="45.3838611" cy="27.0292877" rx="2.71951531" ry="2.7295"></ellipse>
            <ellipse id="Oval" fill="#F4C95E" cx="206.500347" cy="33.3415472" rx="11.9075816" ry="11.9513003"></ellipse>
            <path d="M206.501005,46.8288951 C199.727371,46.8252527 194.016559,41.7595581 193.18041,35.0130502 C192.34426,28.2665423 196.644498,21.950969 203.210811,20.2818355 C209.777124,18.6127019 216.554167,22.1124694 219.018414,28.4451208 C221.482661,34.7777722 218.86277,41.9611021 212.907459,45.2003971 C212.426768,45.4633274 211.842781,45.4486479 211.375806,45.1618966 C210.908831,44.8751452 210.629938,44.3599633 210.64434,43.8107027 C210.658742,43.2614421 210.964246,42.7616961 211.445602,42.4999933 C216.050305,39.99805 218.077589,34.4457816 216.173996,29.5500011 C214.270404,24.6542206 209.031958,21.9478185 203.955957,23.2376467 C198.879956,24.5274749 195.555718,29.4096824 196.202576,34.6248032 C196.849434,39.8399241 201.264853,43.7550809 206.501005,43.7564313 C207.346339,43.7564313 208.031617,44.4442257 208.031617,45.2926632 C208.031617,46.1411006 207.346339,46.8288951 206.501005,46.8288951 Z" id="Shape" fill="#662059"></path>
            <path d="M212.919413,36.4150096 C212.513437,36.4151155 212.124059,36.253297 211.83699,35.9651747 C211.549922,35.6770524 211.388695,35.2862442 211.388801,34.8787777 C211.386632,32.5443205 210.129344,30.3927742 208.100372,29.251422 C207.363986,28.8365644 207.10155,27.9014644 207.513929,27.1618338 C207.926309,26.4222031 208.857645,26.1575844 209.595107,26.570513 C212.591027,28.2552458 214.447385,31.432042 214.450026,34.8787623 C214.450135,35.2862315 214.28891,35.6770436 214.001842,35.9651693 C213.714773,36.2532949 213.325392,36.4151155 212.919413,36.4150096 Z" id="Shape" fill="#FFFFFF"></path>
            <ellipse id="Oval" fill="#F7DCDC" cx="195.845786" cy="28.7835319" rx="3.36353571" ry="3.37588493"></ellipse>
            <path d="M103.834148,53.1747771 C103.427544,53.175911 103.036955,53.0157889 102.747413,52.7292699 C102.465605,52.4362542 102.306703,52.0457895 102.303536,51.6385452 C102.307553,50.9451412 102.773888,50.3403953 103.441671,50.1626027 C104.109455,49.98481 104.813125,50.2780502 105.15905,50.8782845 C105.504975,51.4785187 105.407389,52.236933 104.920883,52.7292699 C104.631419,53.0159082 104.240779,53.1760513 103.834148,53.1747771 Z" id="Shape" fill="#FFFFFF"></path>
            <path d="M13.9876531,39.4402035 C13.1447498,39.4343428 12.46288,38.7499696 12.4570408,37.9039716 C12.4601473,37.496715 12.6190584,37.1062285 12.9009184,36.813247 C13.5149047,36.2453976 14.460279,36.2453976 15.0742653,36.813247 C15.3558303,37.1064215 15.5146911,37.4967845 15.5181429,37.9039716 C15.5123044,38.7499221 14.8305085,39.4342759 13.9876531,39.4402035 Z" id="Shape" fill="#FFFFFF"></path>
            <path d="M61.9411071,46.9990942 C61.5386145,47.0028941 61.1519311,46.8420419 60.8701224,46.553587 C60.5777699,46.2663192 60.4122348,45.8734941 60.4104949,45.4628623 C60.4124129,45.0566636 60.5782391,44.6685795 60.8701224,44.3871928 C61.4751125,43.8111015 62.4235406,43.8111015 63.0285306,44.3871928 C63.31589,44.6703179 63.4759194,45.0587275 63.4717194,45.4628623 C63.476018,45.8716037 63.3161383,46.2648621 63.0281557,46.553902 C62.7401731,46.8429419 62.3483533,47.0034086 61.9411071,46.9990942 Z" id="Shape" fill="#FFFFFF"></path>
            <path d="M45.6402398,67.6152186 C44.7976117,67.6086979 44.1161243,66.9247084 44.1096276,66.0789867 C44.1127951,65.6717423 44.2716973,65.2812777 44.5535051,64.988262 C45.1672041,64.4196745 46.1131531,64.4196745 46.726852,64.988262 C47.0089547,65.2810847 47.1679072,65.671673 47.1707296,66.0789867 C47.1642337,66.924661 46.4828201,67.6086311 45.6402398,67.6152186 Z" id="Shape" fill="#FFFFFF"></path>
            <path d="M99.3499286,38.2272716 C98.5073005,38.220751 97.8258131,37.5367615 97.8193163,36.6910397 C97.8222888,36.283552 97.9812065,35.8928017 98.2631939,35.5996238 C98.8771802,35.0317744 99.8225545,35.0317744 100.436541,35.5996238 C100.718236,35.892993 100.877103,36.2836208 100.880418,36.6910397 C100.873922,37.536714 100.192509,38.2206842 99.3499286,38.2272716 Z" id="Shape" fill="#FFFFFF"></path>
            <path d="M194.308423,52.4374165 C193.68719,52.4389696 193.126958,52.0625872 192.891602,51.4855491 C192.656247,50.9085111 192.792699,50.2458828 193.236689,49.8097687 C193.844935,49.24193 194.786851,49.24193 195.395097,49.8097687 C195.987015,50.4158181 195.987015,51.3857984 195.395097,51.9918478 C195.103336,52.2749415 194.714222,52.4344899 194.308423,52.4374165 Z" id="Shape" fill="#FFFFFF"></path>
            <path d="M260.139781,54.4799751 C259.518374,54.4821822 258.957758,54.1058063 258.722565,53.5285115 C258.487373,52.9512167 258.62463,52.2884324 259.069546,51.8530186 C259.677786,51.2851649 260.619714,51.2851649 261.227954,51.8530186 C261.515254,52.1422963 261.674678,52.5353175 261.670393,52.9437432 C261.671859,53.3516255 261.512859,53.7436029 261.227954,54.0344678 C260.935637,54.3176316 260.546029,54.4771404 260.139781,54.4799751 Z" id="Shape" fill="#FFFFFF"></path>
            <path d="M246.36427,40.6388945 C245.746941,40.6407272 245.189306,40.26912 244.951418,39.6973718 C244.713531,39.1256237 244.842245,38.4663461 245.277536,38.026993 C245.88902,37.4512795 246.840899,37.4512795 247.452383,38.026993 C247.890984,38.4654421 248.02158,39.126701 247.782779,39.6999186 C247.543978,40.2731361 246.983282,40.6442861 246.36427,40.6388945 Z" id="Shape" fill="#FFFFFF"></path>
            <path d="M279.272434,66.6475614 C278.552152,66.6393014 277.937475,66.1226737 277.802892,65.4124315 C277.668308,64.7021894 278.051114,63.9951583 278.718088,63.7220939 C279.385061,63.4490296 280.151366,63.6856048 280.550135,64.2876871 C280.948905,64.8897695 280.869629,65.6905072 280.360607,66.2020542 C280.066574,66.4825643 279.678059,66.6416258 279.272434,66.6475614 Z" id="Shape" fill="#FFFFFF"></path>
            <path d="M37.6202296,91.9023841 C37.2130856,91.9063562 36.8214648,91.7457795 36.5335569,91.4568146 C36.2456491,91.1678497 36.0856598,90.774791 36.0896173,90.3661522 C36.0886288,89.958083 36.2481441,89.5661118 36.5334949,89.2754275 C37.144367,88.715075 38.080281,88.715075 38.6911531,89.2754275 C38.984973,89.5616646 39.1507844,89.9551201 39.1507844,90.3660907 C39.1507844,90.7770614 38.984973,91.1705168 38.6911531,91.4567539 C38.4096591,91.7456531 38.022814,91.9066262 37.6202296,91.9023841 Z" id="Shape" fill="#FFFFFF"></path>
            <path d="M108.870673,31.3375328 C101.874921,31.3296243 95.3036276,27.9687811 91.1856735,22.2926603 C90.8503338,21.8585809 90.7714201,21.2778315 90.9786993,20.7694772 C91.1859785,20.2611229 91.6479081,19.9025223 92.1902431,19.8289435 C92.7325781,19.7553647 93.2727889,19.9780046 93.607102,20.4128809 C96.8894233,24.9415786 101.986495,27.7964488 107.550031,28.2223157 C104.777009,25.3757903 102.53751,22.0512198 100.938796,18.4078371 C100.608187,17.6284094 100.968679,16.7274758 101.744575,16.3940531 C102.520471,16.0606303 103.418847,16.4205952 103.752643,17.1986536 C103.790755,17.2879241 107.602347,26.0860009 112.739005,28.0572936 C113.367111,28.2982702 113.764956,28.9224704 113.719621,29.5958336 C113.674286,30.2691969 113.19639,30.8340032 112.541694,30.9879786 C111.33393,31.2354792 110.103262,31.3526633 108.870673,31.3375328 Z" id="Shape" fill="#662059"></path>
            <path d="M114.251005,30.6188835 C113.891052,30.6193827 113.542573,30.4918144 113.267464,30.2588368 C109.241388,26.8653006 110.477541,20.9934383 110.532092,20.7451525 C110.71546,19.9192386 111.529767,19.3976787 112.353334,19.5786553 C113.176901,19.7596319 113.69957,20.5749885 113.522311,21.4022449 C113.509607,21.4636942 112.646388,25.7236652 115.236031,27.9064817 C115.728595,28.3218663 115.90978,29.0020625 115.689463,29.6087357 C115.469146,30.2154089 114.894359,30.6190494 114.251005,30.6188835 Z" id="Shape" fill="#662059"></path>
            <ellipse id="Oval" fill="#C4C4C4" cx="268.206444" cy="46.5635571" rx="11.9075816" ry="11.9513003"></ellipse>
            <path d="M268.206811,60.0510739 C261.433177,60.0474315 255.722365,54.981737 254.886216,48.2352291 C254.050066,41.4887211 258.350304,35.1731479 264.916618,33.5040143 C271.482931,31.8348808 278.259973,35.3346483 280.72422,41.6672996 C283.188467,47.999951 280.568576,55.1832809 274.613265,58.4225759 C273.870452,58.8264275 272.942101,58.5500805 272.538783,57.8050542 C272.135465,57.0600279 272.409621,56.127918 273.151408,55.7221722 C277.756111,53.2202289 279.783395,47.6679604 277.879803,42.7721799 C275.97621,37.8763994 270.737764,35.1699974 265.661763,36.4598255 C260.585762,37.7496537 257.261524,42.6318612 257.908382,47.8469821 C258.55524,53.0621029 262.970659,56.9772597 268.206811,56.9786101 C268.753646,56.9786101 269.258943,57.2714143 269.53236,57.7467261 C269.805778,58.2220379 269.805778,58.8076462 269.53236,59.282958 C269.258943,59.7582698 268.753646,60.0510739 268.206811,60.0510739 Z" id="Shape" fill="#662059"></path>
            <path d="M274.626704,49.6372499 C274.220728,49.6373558 273.83135,49.4755373 273.544281,49.187415 C273.257213,48.8992927 273.095986,48.5084845 273.096092,48.101018 C273.094169,45.7660989 271.83612,43.6142216 269.806179,42.4736623 C269.328269,42.2060654 269.029089,41.7027159 269.021507,41.1535091 C269.013926,40.6043023 269.299098,40.0928271 269.769438,39.8120444 C270.239778,39.5312617 270.8237,39.5239063 271.300913,39.7927533 C274.297467,41.4770372 276.154459,44.6539469 276.157316,48.1010026 C276.157426,48.5084718 275.996201,48.8992839 275.709132,49.1874096 C275.422064,49.4755352 275.032683,49.6373558 274.626704,49.6372499 Z" id="Shape" fill="#FFFFFF"></path>
            <ellipse id="Oval" fill="#F7DCDC" cx="257.551883" cy="42.0055417" rx="3.36353571" ry="3.37588493"></ellipse>
        </g>
    </g>
</svg>