<?xml version="1.0" encoding="UTF-8"?>
<svg width="300px" height="200px" viewBox="0 0 300 200" version="1.1" xmlns="http://www.w3.org/2000/svg" xmlns:xlink="http://www.w3.org/1999/xlink">
    <!-- Generator: Sketch 51.3 (57544) - http://www.bohemiancoding.com/sketch -->
    <title>festive-christmas-stockings</title>
    <desc>Created with Sketch.</desc>
    <defs></defs>
    <g id="festive-christmas-stockings" stroke="none" stroke-width="1" fill="none" fill-rule="evenodd">
        <g id="Stockings" transform="translate(99.000000, 40.000000)" fill-rule="nonzero">
            <path d="M77.7993333,32.5028571 L77.7993333,16.7485714 L36.8053333,16.7485714 L36.8053333,39.72 L9.13266667,60.0342857 C4.79540568,63.2179505 2.09752718,68.160341 1.76816667,73.5257143 C14.2884164,69.3473229 27.9500215,75.2596336 33.4578333,87.24 L58.3151667,67.8514286 C55.2995903,60.5919083 55.7524346,52.3570536 59.5458963,45.4709324 C63.339358,38.5848112 70.0619868,33.7943132 77.8165,32.4514286" id="Shape" fill="#2D9693"></path>
            <path d="M9.888,72.2057143 C7.1166655,72.20643 4.36347277,72.652118 1.73383333,73.5257143 C1.28619621,80.556343 4.95205312,87.2108194 11.1382226,90.597108 C17.3243921,93.9833967 24.9138301,93.4900313 30.6081667,89.3314286 L33.4235,87.2742857 C29.1988742,78.0921275 20.0069848,72.207033 9.888,72.2057143 Z" id="Shape" fill="#FFFFFF"></path>
            <path d="M77.7993333,32.5028571 C70.0448201,33.8457418 63.3221914,38.6362398 59.5287296,45.522361 C55.7352679,52.4084822 55.2824236,60.6433369 58.298,67.9028571 L77.7993333,53.6571429 L77.7993333,32.5028571 Z" id="Shape" fill="#FFFFFF"></path>
            <path d="M35.7753333,38.3314286 L21.4926667,48.8228571 L14.626,53.8114286 L8.17133333,58.6628571 C3.42308652,62.1445751 0.467490071,67.5514667 0.103,73.4228571 C0.0749244045,73.986656 0.326592776,74.5281203 0.775918954,74.8706417 C1.22524513,75.213163 1.81462934,75.3128332 2.35183333,75.1371429 C14.0532157,71.2353719 26.8176305,76.7732412 31.9471667,87.9771429 C32.1669194,88.4508266 32.5908395,88.7987015 33.09878,88.9221735 C33.6067204,89.0456454 34.1433214,88.9312571 34.5565,88.6114286 L59.4138333,69.2228571 C60.0222552,68.7495667 60.2399233,67.9291846 59.946,67.2171429 C57.1312509,60.4382924 57.5552085,52.7492127 61.098222,46.3199425 C64.6412355,39.8906723 70.9190185,35.4185503 78.1598333,34.1657143 C78.9925469,34.0223531 79.596951,33.2951653 79.5846667,32.4514286 L79.5846667,16.6971429 C79.5846667,15.750369 78.8160888,14.9828571 77.868,14.9828571 L36.8053333,14.9828571 C35.8572445,14.9828571 35.0886667,15.750369 35.0886667,16.6971429 L35.0886667,28.6971429 C35.0886667,29.6439167 35.8572445,30.4114286 36.8053333,30.4114286 C37.7534222,30.4114286 38.522,29.6439167 38.522,28.6971429 L38.522,18.4114286 L76.0998333,18.4114286 L76.0998333,32.4514286 L77.8165,32.4514286 L77.5246667,30.7371429 C69.2623363,32.168198 62.0984224,37.2700346 58.0520781,44.6046969 C54.0057338,51.9393593 53.5151753,60.7125089 56.7186667,68.4514286 L58.298,67.8 L57.2336667,66.4457143 L32.3763333,85.8342857 L33.4406667,87.1885714 L35.0028333,86.4685714 C29.147461,73.6784006 14.5804186,67.3511172 1.21883333,71.7942857 L1.751,73.4228571 L3.46766667,73.5257143 C3.76600917,68.6634339 6.21274597,64.185018 10.1455,61.3028571 L16.7546667,56.4514286 L23.6213333,51.4628571 L37.904,40.9714286 C38.3977114,40.6070177 38.6592386,40.0072616 38.5900668,39.3980826 C38.5208951,38.7889036 38.1315332,38.2628505 37.5686501,38.0180825 C37.005767,37.7733144 36.3548779,37.8470175 35.8611667,38.2114286" id="Shape" fill="#662059"></path>
            <path d="M9.888,72.2057143 L9.888,70.4914286 C6.93010486,70.490723 3.99136936,70.9653622 1.1845,71.8971429 C0.51992882,72.1199854 0.0578156597,72.7239711 0.0171666667,73.4228571 C0.0171666667,73.8457143 0.0171666667,74.2685714 0.0171666667,74.6914286 C0.0122520887,78.7216187 1.2400779,82.657174 3.53633333,85.9714286 C6.58785671,90.3901122 11.2998388,93.3878727 16.5997015,94.2823362 C21.8995641,95.1767998 27.3363516,93.8918583 31.6725,90.72 L34.4878333,88.6628571 C35.1521786,88.1815228 35.382382,87.2979057 35.0371667,86.5542857 C30.5231676,76.7475578 20.6960993,70.4709763 9.888,70.4914286 L9.888,73.92 C19.3404904,73.9260491 27.9233558,79.4302133 31.8613333,88.0114286 L33.4235,87.2914286 L32.4106667,85.9028571 L29.5953333,87.96 C26.0059319,90.5822084 21.5068432,91.642654 17.1221229,90.8999645 C12.7374026,90.157275 8.84011356,87.6746403 6.31733333,84.0171429 C4.41569872,81.2781503 3.39746931,78.0243354 3.399,74.6914286 C3.399,74.3371429 3.399,73.9885714 3.399,73.6457143 L1.68233333,73.5428571 L2.2145,75.1714286 C4.67237434,74.3542017 7.24596678,73.9374412 9.8365,73.9371429 L9.8365,72.2228571 L9.888,72.2057143 Z" id="Shape" fill="#662059"></path>
            <path d="M77.7993333,32.5028571 L77.5075,30.7885714 C69.2451696,32.2196266 62.0812557,37.3214631 58.0349114,44.6561255 C53.9885672,51.9907878 53.4980086,60.7639374 56.7015,68.5028571 C56.9051334,68.9852122 57.3182997,69.3482229 57.8233223,69.4884979 C58.328345,69.628773 58.8698716,69.5309377 59.2936667,69.2228571 L78.795,54.9771429 C79.2386111,54.6534319 79.5002587,54.1372353 79.4988333,53.5885714 L79.4988333,32.5028571 C79.5062769,31.9928885 79.2859468,31.5060911 78.8977027,31.1747188 C78.5094586,30.8433465 77.9936209,30.7018134 77.4903333,30.7885714 L77.7821667,32.5028571 L76.0655,32.5028571 L76.0655,52.8 L57.1821667,66.5142857 L58.195,67.9028571 L59.7743333,67.2514286 C56.9595843,60.4725781 57.3835419,52.7834984 60.9265553,46.3542282 C64.4695688,39.924958 70.7473518,35.452836 77.9881667,34.2 L77.6963333,32.4857143 L77.7993333,32.5028571 Z" id="Shape" fill="#662059"></path>
            <rect id="Rectangle-path" fill="#FFFFFF" x="32.3591667" y="1.71428571" width="49.8863333" height="15.0342857"></rect>
            <path d="M39.7751667,0 L32.3591667,0 C31.4110778,0 30.6425,0.767511857 30.6425,1.71428571 L30.6425,16.7485714 C30.6425,17.6953453 31.4110778,18.4628571 32.3591667,18.4628571 L82.2455,18.4628571 C83.1935888,18.4628571 83.9621667,17.6953453 83.9621667,16.7485714 L83.9621667,1.71428571 C83.9621667,0.767511857 83.1935888,0 82.2455,0 L51.2596667,0 C50.3115778,0 49.543,0.767511857 49.543,1.71428571 C49.543,2.66105957 50.3115778,3.42857143 51.2596667,3.42857143 L80.5288333,3.42857143 L80.5288333,15.0342857 L34.0758333,15.0342857 L34.0758333,3.42857143 L39.7751667,3.42857143 C40.7232555,3.42857143 41.4918333,2.66105957 41.4918333,1.71428571 C41.4918333,0.767511857 40.7232555,0 39.7751667,0 Z" id="Shape" fill="#662059"></path>
            <path d="M96.0131667,57.4285714 L96.0131667,41.6742857 L55.0191667,41.6742857 L55.0191667,64.6457143 L27.3465,84.96 C23.0110766,88.1452674 20.3137051,93.0867292 19.982,98.4514286 C32.5022498,94.2730372 46.1638548,100.185348 51.6716667,112.165714 L76.5118333,92.7771429 C73.4962569,85.5176226 73.9491012,77.2827679 77.742563,70.3966467 C81.5360247,63.5105255 88.2586534,58.7200275 96.0131667,57.3771429" id="Shape" fill="#FB5956"></path>
            <path d="M28.119,97.1314286 C25.3476655,97.1321443 22.5944728,97.5778323 19.9648333,98.4514286 C19.5171962,105.482057 23.1830531,112.136534 29.3692226,115.522822 C35.5553921,118.909111 43.1448301,118.415746 48.8391667,114.257143 L51.6545,112.2 C47.4298742,103.017842 38.2379848,97.1327473 28.119,97.1314286 Z" id="Shape" fill="#FFFFFF"></path>
            <path d="M96.0131667,57.4285714 C88.2586534,58.771456 81.5360247,63.561954 77.742563,70.4480753 C73.9491012,77.3341965 73.4962569,85.5690512 76.5118333,92.8285714 L88.9748333,83.7257143 C93.3962666,80.4992881 96.0109581,75.3599479 96.0131667,69.8914286 L96.0131667,57.4285714" id="Shape" fill="#FFFFFF"></path>
            <path d="M72.8038333,97.9028571 L77.559,94.1828571 C78.1674219,93.7095667 78.38509,92.8891846 78.0911667,92.1771429 C75.2764176,85.3982924 75.7003752,77.7092127 79.2433887,71.2799425 C82.7864021,64.8506723 89.0641851,60.3785503 96.305,59.1257143 C97.1377135,58.9823531 97.7421177,58.2551653 97.7298333,57.4114286 L97.7298333,41.6571429 C97.7298333,40.710369 96.9612555,39.9428571 96.0131667,39.9428571 L55.0191667,39.9428571 C54.0710778,39.9428571 53.3025,40.710369 53.3025,41.6571429 L53.3025,63.7714286 L46.5903333,68.76 C46.0445336,69.1033214 45.7375319,69.7232086 45.7955717,70.364755 C45.8536115,71.0063015 46.2668951,71.5612061 46.8654741,71.8012841 C47.4640531,72.0413621 48.1468802,71.9260853 48.6331667,71.5028571 L56.032,66 C56.4642667,65.6762496 56.7186667,65.1681554 56.7186667,64.6285714 L56.7186667,43.3714286 L94.2965,43.3714286 L94.2965,57.4114286 L96.0131667,57.4114286 L95.7213333,55.6971429 C87.459003,57.128198 80.2950891,62.2300346 76.2487448,69.5646969 C72.2024005,76.8993593 71.7118419,85.6725089 74.9153333,93.4114286 L76.4946667,92.76 L75.4303333,91.4057143 L70.6751667,95.1257143 C70.190655,95.5023743 69.9441725,96.1085479 70.0285669,96.7158954 C70.1129612,97.3232428 70.5154109,97.8394936 71.0843169,98.0701811 C71.6532229,98.3008685 72.302155,98.2109457 72.7866667,97.8342857" id="Shape" fill="#662059"></path>
            <path d="M63.9458333,104.811429 L68.9241667,100.92 C69.4086784,100.54334 69.6551609,99.9371664 69.5707665,99.3298189 C69.4863722,98.7224714 69.0839225,98.2062206 68.5150165,97.9755332 C67.9461104,97.7448457 67.2971783,97.8347685 66.8126667,98.2114286 L61.8343333,102.102857 C61.3498216,102.479517 61.1033391,103.085691 61.1877335,103.693038 C61.2721278,104.300386 61.6745775,104.816637 62.2434835,105.047324 C62.8123896,105.278011 63.4613217,105.188089 63.9458333,104.811429" id="Shape" fill="#662059"></path>
            <path d="M39.8095,73.7485714 L26.3165,83.5885714 C21.5682532,87.0702894 18.6126567,92.477181 18.2481667,98.3485714 C18.2200911,98.9123703 18.4717594,99.4538346 18.9210856,99.796356 C19.3704118,100.138877 19.959796,100.238547 20.497,100.062857 C32.1990178,96.1485571 44.9729919,101.679966 50.1095,112.885714 C50.3292527,113.359398 50.7531728,113.707273 51.2611133,113.830745 C51.7690538,113.954217 52.3056547,113.839829 52.7188333,113.52 L59.0533333,108.582857 C59.8023233,108.000591 59.9368243,106.922237 59.3537497,106.174286 C58.7706752,105.426335 57.6908235,105.29202 56.9418333,105.874286 L50.6073333,110.811429 L51.6716667,112.165714 L53.2338333,111.445714 C47.378461,98.6555434 32.8114186,92.3282601 19.4498333,96.7714286 L19.982,98.4 L21.6986667,98.5028571 C21.9970092,93.6405767 24.443746,89.1621609 28.3765,86.28 L41.8695,76.44 C42.6374519,75.8814034 42.8065391,74.8068868 42.2471667,74.04 C41.6877943,73.2731132 40.6117853,73.1042606 39.8438333,73.6628571 L39.8095,73.7485714 Z" id="Shape" fill="#662059"></path>
            <path d="M28.119,97.1314286 L28.119,95.4171429 C25.1611049,95.4164373 22.2223694,95.8910765 19.4155,96.8228571 C18.7509288,97.0456997 18.2888157,97.6496854 18.2481667,98.3485714 C18.2481667,98.7714286 18.2481667,99.1942857 18.2481667,99.6171429 C18.2432521,103.647333 19.4710779,107.582888 21.7673333,110.897143 C24.8188567,115.315827 29.5308388,118.313587 34.8307015,119.208051 C40.1305641,120.102514 45.5673516,118.817573 49.9035,115.645714 L52.7188333,113.588571 C53.3831786,113.107237 53.613382,112.22362 53.2681667,111.48 C48.7669837,101.683515 38.9639483,95.4027398 28.1705,95.4 L28.1705,98.8285714 C37.6229904,98.8346205 46.2058558,104.338785 50.1438333,112.92 L51.706,112.2 L50.6931667,110.811429 L47.8778333,112.868571 C44.2884319,115.49078 39.7893432,116.551225 35.4046229,115.808536 C31.0199026,115.065846 27.1226136,112.583212 24.5998333,108.925714 C22.6981987,106.186722 21.6799693,102.932907 21.6815,99.6 C21.6815,99.2457143 21.6815,98.8971429 21.6815,98.5542857 L19.9648333,98.4514286 L20.497,100.08 C22.9548743,99.2627731 25.5284668,98.8460126 28.119,98.8457143 L28.119,97.1314286 Z" id="Shape" fill="#662059"></path>
            <path d="M96.0131667,57.4285714 L95.7213333,55.7142857 C87.459003,57.1453409 80.2950891,62.2471774 76.2487448,69.5818398 C72.2024005,76.9165021 71.7118419,85.6896517 74.9153333,93.4285714 C75.1189667,93.9109265 75.532133,94.2739372 76.0371557,94.4142122 C76.5421784,94.5544873 77.083705,94.456652 77.5075,94.1485714 L89.9705,85.0457143 C94.8355415,81.4955758 97.7118802,75.8400411 97.7126667,69.8228571 L97.7126667,57.36 C97.7201102,56.8500314 97.4997801,56.363234 97.111536,56.0318617 C96.7232919,55.7004893 96.2074543,55.5589562 95.7041667,55.6457143 L95.996,57.36 L94.2793333,57.36 L94.2793333,69.8228571 C94.2811806,74.7487537 91.9275426,79.3794354 87.9448333,82.2857143 L75.4818333,91.3885714 L76.4946667,92.7771429 L78.074,92.1257143 C75.2592509,85.3468639 75.6832085,77.6577842 79.226222,71.2285139 C82.7692355,64.7992437 89.0470185,60.3271217 96.2878333,59.0742857 L95.996,57.36" id="Shape" fill="#662059"></path>
            <rect id="Rectangle-path" fill="#FFFFFF" x="50.573" y="26.64" width="49.8863333" height="15.0342857"></rect>
            <path d="M82.2455,24.9257143 L50.573,24.9257143 C49.6249112,24.9257143 48.8563333,25.6932261 48.8563333,26.64 L48.8563333,41.6742857 C48.8563333,42.6210596 49.6249112,43.3885714 50.573,43.3885714 L100.459333,43.3885714 C101.407422,43.3885714 102.176,42.6210596 102.176,41.6742857 L102.176,26.64 C102.176,25.6932261 101.407422,24.9257143 100.459333,24.9257143 L93.7128333,24.9257143 C92.7647445,24.9257143 91.9961667,25.6932261 91.9961667,26.64 C91.9961667,27.5867739 92.7647445,28.3542857 93.7128333,28.3542857 L98.7426667,28.3542857 L98.7426667,39.96 L52.2896667,39.96 L52.2896667,28.3542857 L82.2455,28.3542857 C83.1935888,28.3542857 83.9621667,27.5867739 83.9621667,26.64 C83.9621667,25.6932261 83.1935888,24.9257143 82.2455,24.9257143 Z" id="Shape" fill="#662059"></path>
            <path d="M19.9648333,37.3542857 C13.4243333,37.3542857 8.11983333,43.1142857 8.11983333,50.2114286 C8.10835086,52.6853454 8.77311797,55.1154926 10.0425,57.24 L14.7118333,53.8114286 L21.5785,48.8228571 L29.7498333,42.8228571 C27.6636088,39.4660695 24.0065716,37.4041635 20.0506667,37.3542857" id="Shape" fill="#F7DCDC"></path>
            <path d="M31.1575,46.0285714 L23.6213333,51.5828571 L16.7546667,56.5714286 L12.2055,59.9142857 C14.2931688,61.9152991 17.0711545,63.0384546 19.9648333,63.0514286 C26.5053333,63.0514286 31.8098333,57.2914286 31.8098333,50.1942857 C31.8121001,48.7633409 31.5920384,47.3407073 31.1575,45.9771429" id="Shape" fill="#2C817F"></path>
            <path d="M29.664,42.8228571 L21.4926667,48.8228571 L14.626,53.8114286 L9.95666667,57.24 C10.5473508,58.2243686 11.2692314,59.1240261 12.1025,59.9142857 L16.6516667,56.5714286 L23.5183333,51.5828571 L31.1403333,45.9771429 C30.783895,44.8645749 30.2817097,43.803955 29.6468333,42.8228571" id="Shape" fill="#631C4D"></path>
            <path d="M76.2886667,84.3085714 C76.3982534,86.2755989 76.749955,88.2216685 77.3358333,90.1028571 L82.297,86.4857143 C80.5491831,85.1913453 78.4609846,84.4346784 76.2886667,84.3085714" id="Shape" fill="#F7DCDC"></path>
            <path d="M84.7861667,88.8857143 L77.5418333,94.1657143 L72.8038333,97.8685714 C72.0588236,98.4481075 70.9849668,98.3178914 70.4005,97.5771429 L69.2331667,98.4857143 C69.8135076,99.2296907 69.6831107,100.302058 68.9413333,100.885714 L65.508,103.594286 C67.4961703,107.453903 71.4618322,109.896002 75.808,109.937143 C82.3485,109.937143 87.653,104.177143 87.653,97.08 C87.6706771,94.1097994 86.7050706,91.2169975 84.9063333,88.8514286" id="Shape" fill="#F7DCDC"></path>
            <path d="M72.8725,84.6514286 C67.3828699,86.2969806 63.6766272,91.4096988 63.8256667,97.1314286 C63.8264342,98.1874042 63.947377,99.2398719 64.1861667,100.268571 L66.8298333,98.2114286 C67.5748431,97.6318925 68.6486999,97.7621086 69.2331667,98.5028571 L70.4005,97.5942857 C69.8201591,96.8503093 69.950556,95.7779419 70.6923333,95.1942857 L74.4518333,92.2628571 C73.5662272,89.813449 73.034444,87.2505767 72.8725,84.6514286" id="Shape" fill="#F34D4A"></path>
            <path d="M72.8725,84.6514286 C73.034444,87.2505767 73.5662272,89.813449 74.4518333,92.2628571 L70.6923333,95.1942857 C69.950556,95.7779419 69.8201591,96.8503093 70.4005,97.5942857 C70.9849668,98.3350343 72.0588236,98.4652503 72.8038333,97.8857143 L77.5418333,94.1828571 C77.1180383,94.4909377 76.5765117,94.588773 76.071489,94.4484979 C75.5664663,94.3082229 75.1533001,93.9452122 74.9496667,93.4628571 C73.7755515,90.6490817 73.0793437,87.6595399 72.8896667,84.6171429" id="Shape" fill="#631C4D"></path>
            <path d="M67.877,97.8514286 C67.4977034,97.8526077 67.1294772,97.9791983 66.8298333,98.2114286 L64.1861667,100.268571 C64.4508477,101.463994 64.8782653,102.617574 65.4565,103.697143 L68.8898333,100.988571 C69.6316107,100.404915 69.7620076,99.3325479 69.1816667,98.5885714 C68.8540887,98.1745851 68.3538563,97.9343007 67.8255,97.9371429" id="Shape" fill="#631C4D"></path>
            <path d="M75.6706667,84.2914286 C74.7263275,84.290841 73.785853,84.4118383 72.8725,84.6514286 C73.062177,87.6938256 73.7583849,90.6833674 74.9325,93.4971429 C75.1361334,93.9794979 75.5492997,94.3425086 76.0543223,94.4827837 C76.559345,94.6230587 77.1008716,94.5252234 77.5246667,94.2171429 L84.769,88.9371429 C84.0588812,88.012114 83.2207886,87.1924996 82.2798333,86.5028571 L77.3186667,90.12 C76.7327883,88.2388113 76.3810868,86.2927417 76.2715,84.3257143 L75.6535,84.3257143" id="Shape" fill="#631C4D"></path>
            <path d="M58.3838333,76.4571429 L66.3663333,70.0285714 C66.7697353,69.7017771 67.0032662,69.2101516 67.0015,68.6914286 L67.0015,62.2971429 C67.0015,61.350369 66.2329222,60.5828571 65.2848333,60.5828571 C64.3367445,60.5828571 63.5681667,61.350369 63.5681667,62.2971429 L63.5681667,67.8857143 L56.238,73.8 C55.7269954,74.1742488 55.4640164,74.799188 55.5539324,75.4256077 C55.6438484,76.0520273 56.0720333,76.5780322 56.6677379,76.7938648 C57.2634425,77.0096975 57.9297677,76.8802501 58.401,76.4571429 L58.3838333,76.4571429 Z" id="Shape" fill="#FFFFFF"></path>
            <path d="M67.1045,54.36 L67.1045,51.1714286 C67.1045,50.2246547 66.3359222,49.4571429 65.3878333,49.4571429 C64.4397445,49.4571429 63.6711667,50.2246547 63.6711667,51.1714286 L63.6711667,54.3942857 C63.6711667,55.3410596 64.4397445,56.1085714 65.3878333,56.1085714 C66.3359222,56.1085714 67.1045,55.3410596 67.1045,54.3942857" id="Shape" fill="#FFFFFF"></path>
        </g>
    </g>
</svg>