<?xml version="1.0" encoding="UTF-8"?>
<svg width="300px" height="200px" viewBox="0 0 300 200" version="1.1" xmlns="http://www.w3.org/2000/svg" xmlns:xlink="http://www.w3.org/1999/xlink">
    <!-- Generator: Sketch 51.3 (57544) - http://www.bohemiancoding.com/sketch -->
    <title>garland-with-bells-and-bow</title>
    <desc>Created with Sketch.</desc>
    <defs></defs>
    <g id="garland-with-bells-and-bow" stroke="none" stroke-width="1" fill="none" fill-rule="evenodd">
        <g id="Group-2" transform="translate(60.000000, 37.000000)" fill-rule="nonzero">
            <path d="M170.793486,83.7605724 C170.793485,38.9396989 134.515761,2.60520234 89.76492,2.60520234 C45.0140792,2.60520234 8.73635467,38.9396989 8.736354,83.7605724 M39.90501,83.7605724 C39.90501,56.1807303 62.2279554,33.8228507 89.764704,33.8228507 C117.301453,33.8228507 139.624398,56.1807303 139.624398,83.7605724" id="Shape" fill="#2D9693"></path>
            <path d="M147.301272,85.5633713 L139.431546,85.5633713 C138.954118,85.5634956 138.496209,85.3735965 138.158617,85.0354758 C137.821024,84.6973551 137.631422,84.2387293 137.631546,83.7605544 C137.615309,57.1880084 116.103108,35.655324 89.572077,35.655324 C63.0410456,35.655324 41.5288448,57.1880084 41.512608,83.7605544 C41.512608,84.7562226 40.7067205,85.5633713 39.712608,85.5633713 L27.370998,85.5633713 C26.3768855,85.5633713 25.570998,84.7562226 25.570998,83.7605544 C25.570998,82.7648861 26.3768855,81.9577375 27.370998,81.9577375 L37.94337,81.9577375 C38.9130174,54.1008118 61.7413487,32.0199657 89.571645,32.0199657 C117.401941,32.0199657 140.230273,54.1008118 141.19992,81.9577375 L147.30129,81.9577375 C147.944368,81.9577407 148.538595,82.3013586 148.860131,82.8591537 C149.181667,83.4169488 149.181664,84.1041787 148.860122,84.6619706 C148.53858,85.2197625 147.94435,85.5633745 147.301272,85.5633713 Z" id="Shape" fill="#662059"></path>
            <path d="M8.543952,85.5633713 C7.54983945,85.5633713 6.743952,84.7562226 6.743952,83.7605544 C6.67854129,55.3227073 21.2176375,28.8492306 45.23301,13.6778501 C45.7759222,13.3325339 46.46153,13.3035421 47.0315714,13.6017956 C47.6016129,13.900049 47.9694852,14.480236 47.9966144,15.1238057 C48.0237436,15.7673754 47.7060082,16.3765542 47.163096,16.7218704 C24.1899672,31.2337024 10.2815813,56.5574819 10.343952,83.7605544 C10.343952,84.2386911 10.1543097,84.6972447 9.81674421,85.0353384 C9.47917872,85.3734322 9.02134168,85.5633713 8.543952,85.5633713 Z" id="Shape" fill="#662059"></path>
            <path d="M159.760602,44.9823955 C159.117525,44.9838298 158.522791,44.6406833 158.201424,44.0827899 C138.436079,9.85253282 96.5458536,-4.60947993 59.919498,10.1523335 C58.9977121,10.5252113 57.9486521,10.0790639 57.576357,9.15583549 C57.2040619,8.23260706 57.6495121,7.18190538 58.571298,6.80902761 C96.8599062,-8.62521464 140.653049,6.49209005 161.316324,42.2764034 C161.639041,42.8337522 161.640098,43.5212636 161.319098,44.0796056 C160.998097,44.6379476 160.403885,44.9821566 159.760602,44.9823955 Z" id="Shape" fill="#662059"></path>
            <path d="M170.601084,85.5633713 L155.851272,85.5633713 C154.857159,85.5633713 154.051272,84.7562226 154.051272,83.7605544 C154.051272,82.7648861 154.857159,81.9577375 155.851272,81.9577375 L168.781734,81.9577375 C168.578049,72.0994249 166.528699,62.3669878 162.740124,53.2659065 C162.491211,52.6712245 162.578425,51.988667 162.968839,51.475931 C163.359252,50.9631951 163.993392,50.6983888 164.63184,50.7814888 C165.270288,50.8645887 165.815786,51.2829359 166.062384,51.8785848 C170.266411,61.9794374 172.421156,72.8173171 172.401048,83.7606265 C172.401153,84.2387826 172.211547,84.6973844 171.873965,85.0354885 C171.536382,85.3735926 171.078493,85.5634861 170.601084,85.5633713 Z" id="Shape" fill="#662059"></path>
            <path d="M107.328276,116.64379 C108.792877,120.158104 112.820829,121.822485 116.333478,120.364809 C119.846128,118.907134 121.518461,114.877254 120.072276,111.355299" id="Shape" fill="#F4C95E"></path>
            <polygon id="Shape" fill="#F4C95E" points="140.3784 102.346479 86.6106 124.658141 83.8836 114.57138 135.1836 93.2837183"></polygon>
            <path d="M101.857911,65.288695 C108.195216,65.2886807 114.272966,67.8100949 118.754122,72.2982539 C123.235278,76.7864128 125.752767,82.8736687 125.752767,89.2208911 L125.752767,105.456844 L77.9631087,105.456844 L77.9631087,89.2208911 C77.9631087,76.0035042 88.6611759,65.288695 101.857911,65.288695 Z" id="Shape" fill="#F4C95E" transform="translate(101.857938, 85.372769) rotate(-22.505640) translate(-101.857938, -85.372769) "></path>
            <path d="M87.45831,114.889956 C86.730416,114.889793 86.0742138,114.450713 85.795416,113.777275 L79.590402,98.7790468 C76.0765527,90.2848611 77.3541356,80.55836 82.9418975,73.2634222 C88.5296594,65.9684843 97.5786863,62.2133845 106.680297,63.4126323 C115.781909,64.6118801 123.553353,70.5832814 127.067202,79.077467 L133.272288,94.0765792 C133.518468,94.6716037 133.429002,95.35297 133.037591,95.864014 C132.646179,96.375058 132.012288,96.6381399 131.374697,96.5541593 C130.737105,96.4701788 130.19268,96.0518944 129.9465,95.4568699 L123.741414,80.4577577 C119.070576,69.1665511 106.145084,63.8056073 94.8715201,68.4837547 C83.5979559,73.161902 78.2453884,86.1076213 82.916226,97.3988282 L89.121312,112.397075 C89.3514384,112.953371 89.2890668,113.588014 88.9550624,114.088695 C88.621058,114.589376 88.0595233,114.889984 87.45831,114.889956 Z" id="Shape" fill="#662059"></path>
            <path d="M118.416906,85.2887121 C117.688865,85.2881768 117.032716,84.8487835 116.754012,84.1751482 C115.310724,80.6857189 112.542507,77.9134752 109.05837,76.4683136 C105.574234,75.0231519 101.6596,75.0234598 98.17569,76.4691696 L96.79581,73.1381769 C101.161998,71.3260644 106.06811,71.3254414 110.434756,73.136445 C114.801403,74.9474486 118.270854,78.4217155 120.0798,82.7948755 C120.309312,83.351275 120.246708,83.9856592 119.912885,84.4862928 C119.579062,84.9869264 119.017979,85.2878824 118.416906,85.2887121 Z" id="Shape" fill="#FFFFFF"></path>
            <path d="M113.70069,122.71566 C110.183446,122.709793 107.014424,120.587095 105.665724,117.33362 C105.285168,116.413792 105.721169,115.359139 106.63956,114.977988 C107.557951,114.596836 108.610956,115.033519 108.991512,115.953348 C110.06913,118.558225 113.051083,119.794946 115.65189,118.715642 C118.252697,117.636337 119.487486,114.649718 118.409868,112.044841 C118.163691,111.449816 118.25316,110.768451 118.644573,110.25741 C119.035986,109.746369 119.669878,109.48329 120.307467,109.567274 C120.945057,109.651257 121.489479,110.069543 121.735656,110.664568 C122.843613,113.353187 122.540696,116.418028 120.927934,118.836899 C119.315171,121.25577 116.604763,122.710408 113.70069,122.71566 Z" id="Shape" fill="#662059"></path>
            <path d="M99.110844,121.275515 C98.2521517,121.275522 97.5130218,120.668031 97.3454418,119.824531 C97.1778618,118.981032 97.6285003,118.136427 98.421786,117.807202 L137.798586,101.465659 L134.409402,95.5554479 L111.186936,105.192766 C110.592841,105.439328 109.912541,105.349719 109.402298,104.957694 C108.892056,104.565668 108.629388,103.930785 108.71324,103.292197 C108.797093,102.65361 109.214725,102.108335 109.80882,101.861774 L134.493786,91.6170501 C135.329816,91.2702774 136.292935,91.5988525 136.743786,92.3846535 L141.939882,101.448027 C142.19724,101.897661 142.249097,102.436433 142.082236,102.927026 C141.915374,103.417619 141.545912,103.812642 141.068016,104.011416 L99.799848,121.138177 C99.5814333,121.228896 99.3472951,121.275566 99.110844,121.275515 Z" id="Shape" fill="#662059"></path>
            <path d="M86.609286,126.462148 C85.7972259,126.461796 85.0861921,125.916324 84.87432,125.131164 L82.14795,115.043141 C81.9103767,114.168171 82.3590893,113.252701 83.19555,112.905812 L103.199454,104.604759 C104.117116,104.226738 105.167146,104.663793 105.54701,105.581885 C105.926874,106.499976 105.493288,107.552806 104.577642,107.935698 L86.036202,115.629399 L88.347726,124.187497 C88.4727067,124.648824 88.4095743,125.140983 88.1722197,125.555685 C87.934865,125.970387 87.5427351,126.273655 87.08211,126.398761 C86.9281072,126.441296 86.7690367,126.462621 86.609286,126.462148 Z" id="Shape" fill="#662059"></path>
            <ellipse id="Oval" fill="#F7DCDC" transform="translate(81.396331, 94.588111) rotate(-22.505640) translate(-81.396331, -94.588111) " cx="81.3963306" cy="94.5881113" rx="6.674832" ry="6.68527775"></ellipse>
            <path d="M64.03428,113.434145 C63.3631283,115.808885 64.0078874,118.36185 65.7256827,120.131364 C67.4434781,121.900877 69.9733358,122.618108 72.3622829,122.012883 C74.7512299,121.407657 76.6363284,119.571923 77.30748,117.197183" id="Shape" fill="#F4C95E"></path>
            <polygon id="Shape" fill="#F4C95E" points="98.8164 122.736338 85.9698 119.094648 42.8166 106.860732 46.9206 97.2517183 100.35 112.398986"></polygon>
            <path d="M79.097217,65.4156813 C85.4345262,65.4156287 91.5122926,67.9370228 95.9934588,72.425178 C100.474625,76.9133333 102.992111,83.0005978 102.992092,89.3478246 L102.992092,105.583711 L55.2026116,105.583711 L55.2026116,89.3478246 C55.2025925,83.0006447 57.7200419,76.9134211 62.2011497,72.4252736 C66.6822574,67.9371262 72.7599545,65.4157004 79.097217,65.4156813 Z" id="Shape" fill="#F4C95E" transform="translate(79.097352, 85.499696) rotate(15.804834) translate(-79.097352, -85.499696) "></path>
            <path d="M96.62706,113.147011 C96.4612017,113.146921 96.2961559,113.123812 96.136632,113.078341 L50.154012,100.041361 C49.1976206,99.7701998 48.6416662,98.7739866 48.91212,97.816018 L53.326872,82.1936541 C55.8271207,73.3469286 62.8497433,66.5081714 71.7493856,64.2534763 C80.649028,61.9987812 90.0736227,64.6706899 96.473016,71.2627204 C102.872409,77.8547508 105.274381,87.3654166 102.774132,96.212142 L98.358516,111.835353 C98.1390956,112.611132 97.4321061,113.146709 96.62706,113.147011 Z M52.866324,97.0642614 L95.38605,109.118833 L99.311238,95.229751 C102.634556,83.4698782 95.8102727,71.2383201 84.0687748,67.9098011 C72.3272769,64.5812821 60.1148305,71.4162446 56.791512,83.1761172 L52.866324,97.0642614 Z" id="Shape" fill="#662059"></path>
            <path d="M93.260844,96.1047482 C93.0943628,96.1052916 92.928647,96.0821714 92.768652,96.0360789 C91.8124301,95.7647675 91.256826,94.7684744 91.527642,93.8107358 C92.5548895,90.1761435 92.0983788,86.2816967 90.2585496,82.9842387 C88.4187205,79.6867806 85.3463036,77.2564603 81.717282,76.2279887 C80.7638043,75.95408 80.2111407,74.9593558 80.4813395,74.0034492 C80.7515384,73.0475427 81.7428011,72.4905953 82.698138,72.7579268 C87.2459604,74.0469519 91.0961393,77.0928394 93.4014799,81.225371 C95.7068204,85.3579026 96.2784316,90.2384742 94.990536,94.7931628 C94.7718239,95.568664 94.0654302,96.1043059 93.260844,96.1047482 Z" id="Shape" fill="#FFFFFF"></path>
            <path d="M70.683498,124.030815 C67.9555996,124.033213 65.3844596,122.754196 63.7380222,120.57578 C62.0915847,118.397364 61.5604298,115.571706 62.303202,112.94277 C62.5757885,111.987171 63.5692448,111.43289 64.5239662,111.703736 C65.4786877,111.974582 66.034353,112.968333 65.766096,113.925161 C65.0143671,116.632801 66.5887942,119.43981 69.2886432,120.205426 C71.9884922,120.971042 74.7984799,119.407355 75.575574,116.706907 C75.7496472,116.086017 76.2416704,115.605591 76.865813,115.447079 C77.4899555,115.288567 78.151096,115.476126 78.5995306,115.938918 C79.0479651,116.401711 79.2153507,117.069205 79.038468,117.689298 C77.9774284,121.432959 74.5689739,124.020014 70.683498,124.030815 Z" id="Shape" fill="#662059"></path>
            <path d="M98.8173,124.539642 C98.6508621,124.539554 98.4852335,124.516446 98.325108,124.470972 L59.863284,113.534328 C58.9070322,113.26256 58.351804,112.265841 58.623147,111.308092 C58.89449,110.350344 59.8896522,109.794247 60.845904,110.066015 L97.337214,120.442776 L98.337402,113.701575 L47.954106,99.4163606 L45.278802,105.678697 L52.966602,107.838905 C53.5858154,108.012808 54.0653612,108.504364 54.224599,109.128409 C54.3838368,109.752454 54.1985746,110.414181 53.738599,110.864323 C53.2786233,111.314466 52.6138154,111.484636 51.994602,111.310734 L42.331032,108.595944 C41.8320157,108.455511 41.4176043,108.106548 41.1937746,107.638294 C40.969945,107.17004 40.9584007,106.627899 41.162094,106.150513 L45.26658,96.5413544 C45.6206784,95.7061151 46.5411007,95.2665192 47.411982,95.5167054 L100.840698,110.664586 C101.711328,110.910889 102.263814,111.766545 102.130938,112.662828 L100.59813,123.000865 C100.466319,123.884393 99.7092399,124.538568 98.8173,124.539642 Z" id="Shape" fill="#662059"></path>
            <ellipse id="Oval" fill="#F7DCDC" transform="translate(49.301860, 95.337081) rotate(-74.195030) translate(-49.301860, -95.337081) " cx="49.3018598" cy="95.3370807" rx="6.674832" ry="6.68527775"></ellipse>
            <ellipse id="Oval" fill="#F7DCDC" transform="translate(99.109823, 96.795693) rotate(-74.195030) translate(-99.109823, -96.795693) " cx="99.109823" cy="96.7956928" rx="6.674832" ry="6.68527775"></ellipse>
            <path d="M51.430968,54.4527369 C51.430968,54.4527369 35.341938,51.1319482 28.597626,43.8835966 L30.1653,56.1332146 L17.2728,60.2241487 C17.2728,60.2241487 35.55909,71.3781769 54.9504,68.9429318 L51.430968,54.4527369 Z" id="Shape" fill="#FB5956"></path>
            <path d="M49.217976,71.0968293 C31.858776,71.0977127 17.027154,62.1857397 16.336332,61.7640789 C15.7337647,61.3965533 15.4011535,60.7103139 15.4855607,60.0087778 C15.5699679,59.3072418 16.0558271,58.7197873 16.728318,58.5061544 L23.711202,56.2904023 C24.3243155,56.0951065 24.9948849,56.2424473 25.4700659,56.6768686 C25.9452469,57.11129 26.1527639,57.7667157 26.0143707,58.3960117 C25.8759775,59.0253077 25.412724,59.5327573 24.799284,59.727022 L21.919104,60.6407617 C27.810414,63.4884732 39.948102,68.3335437 52.71246,67.3564349 L49.946544,55.9664721 C46.745568,55.2085499 37.50651,52.7464068 30.969144,48.2367144 L31.95,55.9039685 C32.031642,56.542707 31.7668518,57.1765494 31.2553733,57.5667333 C30.7438948,57.9569173 30.0634337,58.0441645 29.4703133,57.7956099 C28.8771928,57.5470553 28.461522,57.0004602 28.37988,56.3617217 L26.812782,44.1126085 C26.713356,43.336179 27.1256889,42.5842422 27.833228,42.2517072 C28.5407671,41.9191722 29.3817227,42.0820782 29.914434,42.6548687 C36.184554,49.3934197 51.639246,52.6548777 51.794802,52.6865532 C52.4761739,52.8276296 53.0154368,53.3492282 53.179956,54.0263346 L56.6991,68.5166558 C56.8204581,69.0158802 56.7233164,69.5432493 56.4320861,69.9662365 C56.1408558,70.3892238 55.6832246,70.6676154 55.174194,70.7314524 C53.198295,70.9770622 51.2090329,71.099091 49.217976,71.0968293 Z" id="Shape" fill="#662059"></path>
            <path d="M128.530224,54.4527369 C128.530224,54.4527369 144.619254,51.1319482 151.363566,43.8835966 L149.795892,56.1332146 L162.688392,60.2240946 C162.688392,60.2240946 144.402102,71.3781228 125.010792,68.9428777 L128.530224,54.4527369 Z" id="Shape" fill="#FB5956"></path>
            <path d="M125.012214,70.7455865 C124.459638,70.7461329 123.93743,70.4924464 123.595763,70.0574807 C123.254097,69.622515 123.130835,69.0544734 123.261426,68.5167099 L126.78057,54.0263887 C126.945641,53.3495992 127.484649,52.8282466 128.165724,52.6866073 C128.320416,52.6549138 143.776854,49.3934738 150.046974,42.6549228 C150.579853,42.0822443 151.420814,41.9194005 152.128418,42.2518718 C152.836023,42.5843431 153.248572,43.3361539 153.149508,44.1126625 L151.771392,54.868827 L163.232334,58.5061544 C163.905359,58.7190312 164.391979,59.3063388 164.476795,60.0081097 C164.56161,60.7098807 164.228958,61.3965149 163.626084,61.7640789 C157.56922,65.2213724 151.051357,67.7965554 144.269046,69.4119707 C143.302117,69.6433839 142.330963,69.0459043 142.099911,68.0774625 C141.868859,67.1090208 142.465405,66.1363462 143.432334,65.904933 C148.477541,64.6754408 153.377787,62.9116933 158.050296,60.6434839 L149.252436,57.851227 C148.422638,57.5884475 147.899422,56.76867 148.009662,55.9040406 L148.992282,48.2367865 C142.45497,52.7456315 133.215912,55.208622 130.014882,55.9665442 L126.759402,69.3688293 C126.562973,70.1759221 125.84164,70.7443214 125.012214,70.7455865 Z" id="Shape" fill="#662059"></path>
            <rect id="Rectangle-path" fill="#FB5956" x="80.31141" y="43.3954479" width="19.338408" height="27.8319234" rx="5.408802"></rect>
            <path d="M99.395028,68.2131876 C99.395028,68.2131876 141.82254,88.6700935 136.744002,69.5901972 C133.764516,58.3962907 132.822828,48.7881961 136.650402,39.9418997 C136.816146,39.5588492 136.990902,39.1771989 137.17467,38.7969487 C137.708091,37.6697726 137.69597,36.3598486 137.141784,35.2427673 C134.919846,30.6680654 126.74511,22.2436462 99.394902,46.4096135 L99.394902,68.2131876" id="Shape" fill="#FB5956"></path>
            <path d="M99.652752,45.7199639 C99.855216,50.7008406 114.149682,50.1747245 125.055774,46.7304428 C130.790934,44.9192068 135.589104,42.3009217 136.908234,39.2522321 C137.073978,38.8691816 137.248734,38.4875313 137.432502,38.1072811 C137.965923,36.980105 137.953802,35.6701809 137.399616,34.5530997 C135.177696,29.9784338 127.00296,21.5540146 99.652752,45.7199639 Z" id="Shape" fill="#C93E4F"></path>
            <path d="M80.566164,68.2131876 C80.566164,68.2131876 38.138652,88.6700755 43.217136,69.5901972 C46.196622,58.3962907 47.13831,48.7881961 43.310736,39.9418997 C43.144992,39.5588492 42.970236,39.1771989 42.786468,38.7969487 C42.2530474,37.6697726 42.2651678,36.3598486 42.819354,35.2427673 C45.041292,30.6680654 53.216028,22.2436462 80.566236,46.4096135 L80.566236,68.2131876" id="Shape" fill="#FB5956"></path>
            <path d="M79.999506,45.7199639 C79.690554,53.3201172 46.571706,48.0985285 42.744006,39.2522321 C42.578262,38.8691816 42.403506,38.4875313 42.219738,38.1072811 C41.6863174,36.980105 41.6984378,35.6701809 42.252624,34.5530997 C44.474562,29.9784338 52.649298,21.5540146 79.999506,45.7199639 Z" id="Shape" fill="#C93E4F"></path>
            <path d="M93.928824,73.0299177 L85.408704,73.0299177 C81.4292941,73.0253477 78.2044829,69.7954899 78.19992,65.8098524 L78.19992,48.812498 C78.2044829,44.8268605 81.4292941,41.5970027 85.408704,41.5924327 L93.928824,41.5924327 C97.9082339,41.5970027 101.133045,44.8268605 101.137608,48.812498 L101.137608,65.8098524 C101.133045,69.7954899 97.9082339,73.0253477 93.928824,73.0299177 Z M85.408704,45.1980304 C83.4165564,45.2003155 81.8021735,46.8172329 81.799902,48.812498 L81.799902,65.8098524 C81.8021933,67.8050965 83.4165595,69.421989 85.408686,69.4242839 L93.928806,69.4242839 C95.9209325,69.421989 97.5352987,67.8050965 97.53759,65.8098524 L97.53759,48.812498 C97.5352987,46.817254 95.9209325,45.2003614 93.928806,45.1980665 L85.408686,45.1980665 L85.408704,45.1980304 Z" id="Shape" fill="#662059"></path>
            <path d="M72.569628,51.2667268 C62.217828,51.2667268 47.088378,48.420782 40.923738,38.6346772 C40.5805336,38.0899717 40.5535426,37.4032593 40.8529321,36.8332177 C41.1523216,36.2631762 41.7326072,35.8964084 42.3752011,35.8710723 C43.017795,35.8457363 43.6250717,36.165681 43.968276,36.7103865 C50.654124,47.3230648 71.980776,48.7684913 79.60617,47.0536879 C80.2339756,46.9116786 80.8897086,47.1162736 81.3259161,47.5902651 C81.7621237,48.0642567 81.9123931,48.7354796 81.7200174,49.3506354 C81.5276418,49.9657913 81.0219103,50.4312225 80.39367,50.5712901 C77.8168699,51.0747782 75.1946845,51.30785 72.569628,51.2667268 Z" id="Shape" fill="#662059"></path>
            <path d="M49.905288,79.4692192 C47.5394053,79.641572 45.1859015,78.9975999 43.236144,77.6443899 C41.047668,75.8310085 40.45617,72.964818 41.477454,69.1258997 L42.924132,62.3089983 C43.4268931,60.0702285 43.7664584,57.7978079 43.940142,55.5097104 C44.3898637,50.4474236 43.6072486,45.3514093 41.65938,40.6584834 C41.503806,40.2975594 41.339466,39.940169 41.166306,39.5827786 C40.3878633,37.9604346 40.399864,36.0692046 41.198832,34.4569014 C42.6419839,31.3539772 45.4792092,29.1289983 48.83301,28.470107 C56.490048,26.9349003 67.562496,32.5158806 81.755964,45.0572485 C82.2388275,45.4829271 82.4581214,46.1343703 82.3311683,46.7659731 C82.2042152,47.397576 81.7503222,47.9132838 81.1406145,48.1186661 C80.5309069,48.3240485 79.8581094,48.1878706 79.375878,47.7614738 C62.802342,33.1188687 54.006246,31.1118287 49.540518,32.0053048 C47.2899092,32.4444561 45.389277,33.9445285 44.436708,36.0334828 C44.1229988,36.6529878 44.1119748,37.3827526 44.406828,38.0114794 C44.601948,38.4155268 44.787396,38.8207519 44.963172,39.2271549 C47.1416991,44.4436242 48.0235787,50.1117287 47.533086,55.7447617 C47.3479437,58.2060481 46.9842901,60.6505859 46.445004,63.0590242 L44.977248,69.9656699 C44.328618,72.4119662 44.521974,74.0308056 45.530964,74.8670783 C50.102154,78.6549228 68.969628,71.8010637 79.78545,66.5889037 C80.3647862,66.3096318 81.0488718,66.3611298 81.5800185,66.723999 C82.1111652,67.0868681 82.4086791,67.7059798 82.3604896,68.3481207 C82.3123,68.9902616 81.9257282,69.5578753 81.346392,69.837147 C78.88545,71.0237611 60.977736,79.4692192 49.905288,79.4692192 Z" id="Shape" fill="#662059"></path>
            <path d="M125.01045,48.4048811 C124.133223,48.4045574 123.383891,47.7711303 123.236203,46.9050717 C123.088516,46.0390131 123.585459,45.1923951 124.41285,44.9004755 C129.88845,42.9700192 133.78545,40.214738 135.993312,36.7102783 C136.336516,36.1655728 136.943793,35.8456281 137.586387,35.8709642 C138.228981,35.8963002 138.809266,36.263068 139.108656,36.8331096 C139.408045,37.4031511 139.381054,38.0898636 139.03785,38.634569 C136.387062,42.8423437 131.86773,46.0949499 125.608158,48.3018141 C125.416194,48.3698507 125.214078,48.404703 125.01045,48.4048811 Z" id="Shape" fill="#662059"></path>
            <path d="M107.2548,51.2455977 C104.675532,51.2876252 102.098865,51.0616657 99.566136,50.5713442 C98.5962948,50.352571 97.9871567,49.3877782 98.2055881,48.4164192 C98.4240195,47.4450602 99.3873047,46.8349688 100.357146,47.053742 C105.504498,47.8851042 110.753562,47.8598255 115.892694,46.9789251 C116.874763,46.8299754 117.791764,47.5056886 117.942066,48.4890532 C118.092368,49.4724177 117.419192,50.3919427 116.437608,50.5440676 C113.398444,51.0071311 110.328928,51.2416299 107.2548,51.2455977 Z" id="Shape" fill="#662059"></path>
            <path d="M130.055382,79.4682997 C118.982916,79.4682997 101.076084,71.0237611 98.615142,69.837129 C97.7195659,69.4054122 97.3429868,68.3282926 97.774029,67.4313149 C98.2050712,66.5343373 99.2805079,66.1571688 100.176084,66.5888856 C110.990142,71.8001623 129.856752,78.6575549 134.428824,74.8661769 C135.437814,74.0299042 135.631224,72.4110648 135.005382,70.0545487 C132.491718,60.610889 130.524714,49.5633532 134.998344,39.2244507 C135.17412,38.8212808 135.358692,38.4181108 135.55206,38.0149408 C135.849123,37.3848494 135.83809,36.6524894 135.52218,36.031662 C134.569805,33.943216 132.669369,32.443718 130.41918,32.0052507 C125.950824,31.1144068 117.158238,33.1179313 100.585584,47.7614197 C100.103353,48.1878165 99.4305551,48.3239944 98.8208475,48.1186121 C98.2111398,47.9132297 97.7572468,47.3975219 97.6302937,46.7659191 C97.5033406,46.1343162 97.7226345,45.482873 98.205498,45.0571944 C112.39983,32.5140597 123.481098,26.9401104 131.125806,28.470053 C134.479078,29.1283649 137.316209,31.3522864 138.760002,34.4542152 C139.561432,36.0667961 139.573757,37.9598309 138.793392,39.5827425 C138.624642,39.9366175 138.457656,40.296658 138.302964,40.6566806 C135.09144,48.0756868 135.145926,56.5888946 138.482262,69.1249623 C139.50531,72.9638625 138.91293,75.830071 136.724454,77.6443358 C134.774316,78.9966023 132.421073,79.6402047 130.055382,79.4682997 Z" id="Shape" fill="#662059"></path>
            <path d="M89.980776,62.1822062 C89.5033483,62.1823306 89.0454391,61.9924314 88.7078467,61.6543107 C88.3702543,61.31619 88.1806518,60.8575642 88.180776,60.3793893 L88.180776,55.1249893 C88.180776,54.129321 88.9866635,53.3221724 89.980776,53.3221724 C90.9748885,53.3221724 91.780776,54.129321 91.780776,55.1249893 L91.780776,60.3793893 C91.7809002,60.8575642 91.5912977,61.31619 91.2537053,61.6543107 C90.9161129,61.9924314 90.4582037,62.1823306 89.980776,62.1822062 Z" id="Shape" fill="#FFFFFF"></path>
            <path d="M91.945998,24.6963065 C91.1290285,24.6962521 90.4140423,24.1463941 90.2030575,23.3559033 C89.9920726,22.5654124 90.3377453,21.731574 91.0457127,21.3232336 C91.7536802,20.9148932 92.6472528,21.0339615 93.223998,21.6134896 C93.9200941,22.3243642 93.9200941,23.4624707 93.223998,24.1733454 C92.8807348,24.5053842 92.4231998,24.6926087 91.945998,24.6963065 Z" id="Shape" fill="#FFFFFF"></path>
            <path d="M63.775296,22.0827448 C63.2964567,22.0875675 62.8358366,21.8991325 62.497296,21.5599279 C62.155925,21.2226592 61.967296,20.7601207 61.975296,20.2799279 C61.9791871,19.8072563 62.1663669,19.3546067 62.497296,19.0175955 C63.2155435,18.3415286 64.3349045,18.3415286 65.053152,19.0175955 C65.3844253,19.3543783 65.5716655,19.8071741 65.575152,20.2799279 C65.5714988,20.7578565 65.3846194,21.2161048 65.053152,21.5599279 C64.7127786,21.8962719 64.2534445,22.084202 63.775296,22.0827448 Z" id="Shape" fill="#FFFFFF"></path>
            <path d="M113.16807,27.3644394 C112.690755,27.3614492 112.232984,27.1741797 111.89007,26.8416225 C111.553869,26.5009106 111.366169,26.0406488 111.36807,25.5616225 C111.362848,25.0819562 111.551051,24.6204635 111.89007,24.2816225 C112.604341,23.6143602 113.712323,23.6143602 114.426594,24.2816225 C114.772644,24.6172491 114.968001,25.0790868 114.968001,25.5615504 C114.968001,26.044014 114.772644,26.5058518 114.426594,26.8414783 C114.091063,27.1732561 113.639558,27.3608726 113.16807,27.3644394 Z" id="Shape" fill="#FFFFFF"></path>
            <path d="M81.397368,14.7992924 C80.4064374,14.7916402 79.6050082,13.9889569 79.597368,12.9964755 C79.5975703,12.517861 79.784957,12.0583686 80.119368,11.7164755 C80.8410746,11.0492113 81.9535174,11.0492113 82.675224,11.7164755 C83.1849647,12.2354915 83.3350859,13.0096538 83.0563753,13.6820407 C82.7776648,14.3544276 82.1242441,14.7944711 81.397368,14.7992924 Z" id="Shape" fill="#FFFFFF"></path>
            <path d="M145.314954,39.4797476 C144.833189,39.480795 144.371764,39.2853331 144.036954,38.9383797 C143.340828,38.2347124 143.340828,37.1006701 144.036954,36.3970028 C144.758664,35.7297473 145.8711,35.7297473 146.59281,36.3970028 C146.927909,36.7384424 147.115416,37.1982295 147.11481,37.6770028 C147.119444,38.1565157 146.931308,38.6177415 146.592762,38.956831 C146.254215,39.2959205 145.793718,39.4843697 145.314954,39.4797476 Z" id="Shape" fill="#FFFFFF"></path>
            <path d="M159.751854,76.7613882 C158.767758,76.7545183 157.968851,75.9625631 157.951854,74.9770501 C157.951248,74.4982769 158.138755,74.0384897 158.473854,73.6970501 C159.19208,73.0209295 160.311484,73.0209295 161.02971,73.6970501 C161.545151,74.2112742 161.698761,74.9867114 161.418378,75.6590782 C161.137996,76.331445 160.479348,76.7671024 159.751854,76.7613882 Z" id="Shape" fill="#FFFFFF"></path>
            <path d="M19.351854,77.7896068 C18.8753583,77.7825492 18.4190257,77.5958681 18.073854,77.2667899 C17.3777579,76.5559152 17.3777579,75.4178087 18.073854,74.7069341 C18.6504648,74.1227437 19.5475543,74.0006874 20.258869,74.4096453 C20.9701836,74.8186031 21.3173591,75.6560275 21.1044743,76.4493358 C20.8915895,77.2426441 20.1720259,77.7929117 19.351854,77.7896068 Z" id="Shape" fill="#FFFFFF"></path>
            <path d="M8.713602,42.5281668 C6.22704789,42.5179906 3.75196252,42.1899305 1.348362,41.5519414 C0.386284727,41.3020287 -0.19135525,40.3182961 0.058167,39.3547132 C0.30768925,38.3911304 1.28988473,37.8125864 2.251962,38.0624992 C8.53952303,39.8668091 15.2998288,38.8407819 20.771388,35.2517634 C16.1685199,34.6037388 11.7187026,33.1354345 7.632612,30.9163673 C6.77113277,30.4288576 6.46399256,29.3363579 6.94492662,28.4702663 C7.42586069,27.6041746 8.51455963,27.2892016 9.382518,27.7650434 C9.481842,27.8196146 19.332612,33.2307155 25.52715,31.3618794 C26.2840373,31.1327824 27.1015792,31.4251873 27.5423669,32.0826489 C27.9831547,32.7401106 27.9439814,33.6086896 27.445806,34.223671 C22.6664645,39.5359749 15.8531929,42.5564836 8.713602,42.5281668 Z" id="Shape" fill="#662059"></path>
            <path d="M27.668952,33.0255189 L27.595998,33.0237161 C21.419928,32.7772349 18.35694,26.437449 18.2295,26.1672068 C17.803314,25.2675558 18.1859937,24.1922119 19.084239,23.7653589 C19.9824843,23.338506 21.056148,23.7217845 21.482334,24.6214355 C21.518334,24.695351 23.770134,29.2631662 27.740142,29.4216158 C28.7195683,29.4603849 29.4879395,30.276989 29.4685507,31.2585219 C29.4491619,32.2400547 28.649143,33.0255804 27.668952,33.0255189 Z" id="Shape" fill="#662059"></path>
            <path d="M146.169252,20.5880293 C141.262534,20.4947212 136.456927,19.1744854 132.189372,16.7473623 C131.63954,16.413369 131.30938,15.8109558 131.323258,15.1670458 C131.337137,14.5231357 131.692947,13.9355541 132.256657,13.6256373 C132.820368,13.3157205 133.506338,13.3305521 134.05617,13.6645454 C134.177454,13.7384608 146.336256,20.9295189 156.461256,13.7358468 C157.272364,13.1684717 158.388627,13.3630863 158.960606,14.1715956 C159.532585,14.9801049 159.345852,16.0994087 158.542506,16.6777555 C154.934057,19.2575492 150.602534,20.6264245 146.169252,20.5880293 Z" id="Shape" fill="#662059"></path>
            <path d="M135.024714,16.2042276 C132.571442,16.1956589 130.160749,15.5615793 128.019834,14.3617487 C127.45346,14.051384 127.096486,13.4609258 127.084366,12.8144252 C127.072246,12.1679246 127.406838,11.564461 127.96118,11.2330205 C128.515522,10.90158 129.204658,10.8929575 129.767094,11.2104248 C132.315985,12.6697555 135.359832,12.9891814 138.155382,12.0907042 C140.028838,11.5276208 141.582388,10.2065103 142.441002,8.44629183 C142.696112,7.85262308 143.249086,7.44122371 143.89025,7.36808649 C144.531414,7.29494928 145.162591,7.57127309 145.544455,8.09228256 C145.926319,8.61329203 146.000397,9.29920952 145.738602,9.88995155 C144.47546,12.582242 142.141948,14.6198336 139.30677,15.5061408 C137.926931,15.9709697 136.480509,16.2067742 135.024714,16.2042276 Z" id="Shape" fill="#662059"></path>
            <path d="M3.602736,76.2957746 C2.83696154,76.2960049 2.15487557,75.8109485 1.90264228,75.0867755 C1.650409,74.3626025 1.88325538,73.5578721 2.48301,73.0809915 C5.571625,70.2484316 7.94908241,66.7256965 9.42201,62.7993104 C9.63929963,62.1932785 10.1628926,61.7493859 10.7955564,61.6348428 C11.4282202,61.5202996 12.0738382,61.7525078 12.4892124,62.2439966 C12.9045866,62.7354854 13.0266117,63.4115861 12.809322,64.017618 C11.1139064,68.577559 8.33817332,72.6569004 4.720752,75.904942 C4.40309566,76.1583981 4.00886993,76.2962103 3.602736,76.2957746 Z" id="Shape" fill="#662059"></path>
            <path d="M174.751272,65.2121465 C174.576151,65.2117205 174.402036,65.1856029 174.234474,65.1346254 C166.86045,62.91808 162.907074,53.6627966 162.741888,53.2701972 C162.356476,52.3523155 162.786964,51.2952979 163.703412,50.9092823 C164.61986,50.5232666 165.675226,50.9544293 166.060638,51.872311 C166.094028,51.9524101 169.530552,59.9559437 175.268052,61.6821769 C176.124093,61.9387276 176.662639,62.7854016 176.533007,63.6708747 C176.403376,64.5563479 175.644815,65.2125334 174.751272,65.2121465 Z" id="Shape" fill="#662059"></path>
            <path d="M172.539954,58.031689 C169.008151,57.8342816 165.669469,56.3535606 163.149714,53.8670738 C162.434708,53.1757465 162.414638,52.0347814 163.104885,51.3186569 C163.795132,50.6025324 164.934314,50.5824304 165.64932,51.2737577 C165.905964,51.5193555 171.97569,57.2446873 176.716512,52.5880113 C177.175303,52.1355571 177.84046,51.9630202 178.460859,52.1355399 C179.081258,52.3080595 179.562393,52.7993555 179.722617,53.4239445 C179.882841,54.0485335 179.697746,54.7112707 179.237214,55.161947 C177.48564,56.9884614 175.068529,58.024181 172.539954,58.031689 Z" id="Shape" fill="#662059"></path>
        </g>
    </g>
</svg>