<?xml version="1.0" encoding="UTF-8"?>
<svg width="300px" height="200px" viewBox="0 0 300 200" version="1.1" xmlns="http://www.w3.org/2000/svg" xmlns:xlink="http://www.w3.org/1999/xlink">
    <!-- Generator: Sketch 51.3 (57544) - http://www.bohemiancoding.com/sketch -->
    <title>natural-christmas-tree</title>
    <desc>Created with Sketch.</desc>
    <defs></defs>
    <g id="natural-christmas-tree" stroke="none" stroke-width="1" fill="none" fill-rule="evenodd">
        <g id="Christmastree_withnodecoration" transform="translate(66.000000, 1.000000)" fill-rule="nonzero">
            <path d="M161.726018,154.992593 L6.2739823,154.992593 C4.56724731,154.988785 3.03065799,153.961464 2.3799993,152.389182 C1.72934061,150.8169 2.09258799,149.008904 3.30053097,147.807407 L84.0148673,67.3777778 L164.729204,147.807407 C165.941005,149.012711 166.30238,150.827914 165.644085,152.402899 C164.98579,153.977884 163.438167,155.000804 161.726018,154.992593 Z" id="Shape" fill="#2D9693"></path>
            <path d="M21.3939823,132.222222 L84.2081416,69.6296296 L163.376283,148.518519 C164.004051,149.12462 164.358142,149.95861 164.357522,150.82963 C164.352805,151.69249 164.023949,152.522301 163.435752,153.155556 C162.815064,153.821709 161.939351,154.193382 161.027257,154.177778 L58.2350442,154.177778 C57.4139483,154.177778 56.7483186,154.84106 56.7483186,155.659259 C56.7483186,156.477459 57.4139483,157.140741 58.2350442,157.140741 L160.982655,157.140741 C162.716282,157.155564 164.376937,156.446365 165.56177,155.185185 C166.66811,154.002524 167.284252,152.446433 167.286372,150.82963 C167.293899,149.159002 166.623708,147.556218 165.427965,146.385185 L85.1447788,66.3851852 C84.5649001,65.8107799 83.6283743,65.8107799 83.0484956,66.3851852 L19.119292,130.088889 C18.695016,130.450948 18.5102074,131.019435 18.6408486,131.560621 C18.7714899,132.101807 19.195532,132.524353 19.7386337,132.654534 C20.2817355,132.784714 20.8522345,132.600557 21.2155752,132.177778 L21.3939823,132.222222 Z" id="Shape" fill="#662059"></path>
            <path d="M46.9061947,154.177778 L7.38902655,154.177778 C6.47693207,154.193382 5.601219,153.821709 4.98053097,153.155556 C4.39233457,152.522301 4.06347845,151.69249 4.05876106,150.82963 C4.05642413,149.958265 4.41078786,149.123632 5.04,148.518519 L11.2545133,141.97037 C11.7479347,141.368792 11.6911453,140.489568 11.1244034,139.955984 C10.5576615,139.422399 9.6735252,139.415746 9.09876106,139.940741 L2.88424779,146.488889 L3.96955752,147.511111 L2.9139823,146.459259 C1.71680439,147.629325 1.04634906,149.232742 1.05557522,150.903704 C1.05769533,152.520507 1.67383646,154.076598 2.78017699,155.259259 C3.96500984,156.520439 5.62566494,157.229638 7.35929204,157.214815 L46.8764602,157.214815 C47.6975561,157.214815 48.3631858,156.551533 48.3631858,155.733333 C48.3631858,154.915134 47.6975561,154.251852 46.8764602,154.251852 L46.9061947,154.177778 Z" id="Shape" fill="#662059"></path>
            <path d="M97.3656637,111.6 L25.6906195,111.6 C23.8365887,111.602536 22.1639871,110.490776 21.4541359,108.784058 C20.7442846,107.077339 21.137286,105.112513 22.4495575,103.807407 L84.2378761,42.237037 L146.026195,103.807407 C147.338466,105.112513 147.731468,107.077339 147.021616,108.784058 C146.311765,110.490776 144.639164,111.602536 142.785133,111.6 L107.653805,111.6" id="Shape" fill="#2D9693"></path>
            <path d="M97.3656637,110.118519 L25.6906195,110.118519 C24.840688,110.136793 24.0235538,109.79168 23.4456637,109.17037 C22.8972201,108.582004 22.5896105,107.810407 22.5833628,107.007407 C22.5823936,106.195778 22.9155871,105.419284 23.5051327,104.859259 L84.2527434,44.3259259 L145.000354,104.859259 C145.5899,105.419284 145.923093,106.195778 145.922124,107.007407 C145.915876,107.810407 145.608267,108.582004 145.059823,109.17037 C144.481933,109.79168 143.664799,110.136793 142.814867,110.118519 L107.653805,110.118519 C106.832709,110.118519 106.16708,110.7818 106.16708,111.6 C106.16708,112.4182 106.832709,113.081481 107.653805,113.081481 L142.770265,113.081481 C144.457551,113.113343 146.078966,112.429365 147.230442,111.2 C148.297024,110.06223 148.891921,108.564357 148.895575,107.007407 C148.896946,105.413446 148.253851,103.886143 147.111504,102.77037 L85.3231858,41.2 C84.7433071,40.6255947 83.8067813,40.6255947 83.2269027,41.2 L21.379115,102.755556 C20.2367686,103.871328 19.5936737,105.398631 19.5950442,106.992593 C19.5986989,108.549542 20.1935954,110.047416 21.260177,111.185185 C22.4116531,112.41455 24.0330686,113.098528 25.720354,113.066667 L97.4251327,113.066667 C98.2462287,113.066667 98.9118584,112.403385 98.9118584,111.585185 C98.9118584,110.766986 98.2462287,110.103704 97.4251327,110.103704 L97.3656637,110.118519 Z" id="Shape" fill="#662059"></path>
            <path d="M43.7692035,60.6518519 L84.1635398,20.4 L130.400708,66.4740741 C131.598253,67.7471787 131.937385,69.6007888 131.267749,71.2131025 C130.598112,72.8254162 129.043617,73.8980915 127.293451,73.9555556 L41.0633628,73.9555556 C39.3131973,73.8980915 37.7587019,72.8254162 37.0890655,71.2131025 C36.4194291,69.6007888 36.7585609,67.7471787 37.9561062,66.4740741 L39.0116814,65.4222222" id="Shape" fill="#2D9693"></path>
            <path d="M44.8247788,61.6888889 L84.1784071,22.4296296 L129.36,67.4518519 C129.910068,67.9789154 130.221351,68.7062464 130.222301,69.4666667 C130.223256,70.2274861 129.930471,70.9595172 129.404602,71.5111111 C128.859639,72.0929156 128.091962,72.4161417 127.293451,72.4 L41.0633628,72.4 C40.264852,72.4161417 39.4971756,72.0929156 38.9522124,71.5111111 C38.4263429,70.9595172 38.1335586,70.2274861 38.1345133,69.4666667 C38.1354631,68.7062464 38.4467463,67.9789154 38.9968142,67.4518519 L40.0523894,66.4 C40.5575443,65.812207 40.5235807,64.9360086 39.9744303,64.3887952 C39.4252798,63.8415818 38.5459799,63.8077381 37.9561062,64.3111111 L36.900531,65.362963 C35.7898724,66.4477833 35.1631198,67.9317375 35.1610619,69.4814815 C35.1587149,70.9888139 35.7328938,72.4403886 36.7667257,73.5407407 C37.8732158,74.7230317 39.4261788,75.38931 41.0484956,75.3777778 L127.278584,75.3777778 C128.900901,75.38931 130.453864,74.7230317 131.560354,73.5407407 C132.594186,72.4403886 133.168365,70.9888139 133.166018,69.4814815 C133.16396,67.9317375 132.537207,66.4477833 131.426549,65.362963 L85.159646,19.3333333 C84.5797673,18.758928 83.6432415,18.758928 83.0633628,19.3333333 L42.6690265,59.5851852 C42.2447505,59.9472443 42.0599419,60.515731 42.1905832,61.056917 C42.3212244,61.598103 42.7452665,62.0206494 43.2883683,62.1508298 C43.83147,62.2810103 44.401969,62.0968536 44.7653097,61.6740741 L44.8247788,61.6888889 Z" id="Shape" fill="#662059"></path>
            <path d="M107.757876,22.637037 L119.562478,34.4 C120.760023,35.6731046 121.099155,37.5267147 120.429519,39.1390284 C119.759882,40.7513421 118.205387,41.8240174 116.455221,41.8814815 L51.9907965,41.8814815 C50.2406309,41.8240174 48.6861355,40.7513421 48.0164991,39.1390284 C47.3468627,37.5267147 47.6859945,35.6731046 48.8835398,34.4 L80.2683186,3.17037037 C81.3168177,2.12456411 82.7394935,1.53695167 84.2230088,1.53695167 C85.7065242,1.53695167 87.1292,2.12456411 88.1776991,3.17037037 L102.494867,17.437037" id="Shape" fill="#2D9693"></path>
            <path d="M106.702301,23.6740741 L118.506903,35.437037 C119.05697,35.9641006 119.368254,36.6914316 119.369204,37.4518519 C119.370158,38.2126713 119.077374,38.9447024 118.551504,39.4962963 C118.006541,40.0781008 117.238865,40.4013269 116.440354,40.3851852 L51.9907965,40.3851852 C51.1922856,40.4013269 50.4246092,40.0781008 49.879646,39.4962963 C49.3537766,38.9447024 49.0609923,38.2126713 49.0619469,37.4518519 C49.0628967,36.6914316 49.37418,35.9641006 49.9242478,35.437037 L81.3090265,4.16296296 C82.9109387,2.56933945 85.5053445,2.56933945 87.1072566,4.16296296 L101.424425,18.4296296 C102.014298,18.9330027 102.893598,18.8991589 103.442749,18.3519455 C103.991899,17.8047321 104.025863,16.9285337 103.520708,16.3407407 L89.2035398,2.07407407 C86.4401539,-0.678209673 81.961262,-0.678209673 79.1978761,2.07407407 L47.8130973,33.3481481 C46.7024388,34.4329685 46.0756862,35.9169227 46.0736283,37.4666667 C46.0712813,38.973999 46.6454602,40.4255738 47.679292,41.5259259 C48.7857822,42.7082168 50.3387451,43.3744952 51.9610619,43.362963 L116.380885,43.362963 C118.003202,43.3744952 119.556165,42.7082168 120.662655,41.5259259 C121.696487,40.4255738 122.270666,38.973999 122.268319,37.4666667 C122.266261,35.9169227 121.639508,34.4329685 120.52885,33.3481481 L108.724248,21.5851852 C108.134374,21.0818122 107.255074,21.1156559 106.705924,21.6628693 C106.156773,22.2100827 106.12281,23.0862811 106.627965,23.6740741 L106.702301,23.6740741 Z" id="Shape" fill="#662059"></path>
            <polygon id="Shape" fill="#6E425A" points="75.540531 177.066667 75.540531 155.659259 92.9054867 155.659259 92.9054867 197.437037 75.540531 197.437037"></polygon>
            <path d="M75.540531,177.081481 L77.0272566,177.081481 L77.0272566,157.140741 L91.4187611,157.140741 L91.4187611,195.955556 L77.0272566,195.955556 L77.0272566,177.081481 L74.0538053,177.081481 L74.0538053,197.451852 C74.0538053,198.270051 74.7194351,198.933333 75.540531,198.933333 L92.8906195,198.933333 C93.7117154,198.933333 94.3773451,198.270051 94.3773451,197.451852 L94.3773451,155.674074 C94.3773451,154.855874 93.7117154,154.192593 92.8906195,154.192593 L75.540531,154.192593 C74.7194351,154.192593 74.0538053,154.855874 74.0538053,155.674074 L74.0538053,177.081481 L75.540531,177.081481 Z" id="Shape" fill="#662059"></path>
            <path d="M38.8778761,102.311111 L49.0619469,102.311111 C49.8830428,102.311111 50.5486726,101.647829 50.5486726,100.82963 C50.5486726,100.01143 49.8830428,99.3481481 49.0619469,99.3481481 L38.8778761,99.3481481 C38.0567802,99.3481481 37.3911504,100.01143 37.3911504,100.82963 C37.3911504,101.647829 38.0567802,102.311111 38.8778761,102.311111" id="Shape" fill="#FFFFFF"></path>
            <path d="M95.6856637,33.4666667 L103.476106,33.4666667 C104.297202,33.4666667 104.962832,32.8033848 104.962832,31.9851852 C104.962832,31.1669856 104.297202,30.5037037 103.476106,30.5037037 L95.6856637,30.5037037 C94.8645678,30.5037037 94.1989381,31.1669856 94.1989381,31.9851852 C94.1989381,32.8033848 94.8645678,33.4666667 95.6856637,33.4666667" id="Shape" fill="#FFFFFF"></path>
            <path d="M86.1557522,33.4666667 L88.8764602,33.4666667 C89.6975561,33.4666667 90.3631858,32.8033848 90.3631858,31.9851852 C90.3631858,31.1669856 89.6975561,30.5037037 88.8764602,30.5037037 L86.1557522,30.5037037 C85.3346563,30.5037037 84.6690265,31.1669856 84.6690265,31.9851852 C84.6690265,32.8033848 85.3346563,33.4666667 86.1557522,33.4666667" id="Shape" fill="#FFFFFF"></path>
            <path d="M59.7217699,99.3481481 L56.7483186,99.3481481 C55.9272227,99.3481481 55.2615929,100.01143 55.2615929,100.82963 C55.2615929,101.647829 55.9272227,102.311111 56.7483186,102.311111 L59.7217699,102.311111 C60.5428658,102.311111 61.2084956,101.647829 61.2084956,100.82963 C61.2084956,100.01143 60.5428658,99.3481481 59.7217699,99.3481481" id="Shape" fill="#FFFFFF"></path>
            <path d="M147.988673,144.325926 L143.528496,144.325926 C142.7074,144.325926 142.04177,144.989208 142.04177,145.807407 C142.04177,146.625607 142.7074,147.288889 143.528496,147.288889 L147.988673,147.288889 C148.809768,147.288889 149.475398,146.625607 149.475398,145.807407 C149.475398,144.989208 148.809768,144.325926 147.988673,144.325926" id="Shape" fill="#FFFFFF"></path>
            <path d="M75.540531,169.851852 L91.7161062,169.851852" id="Shape" fill="#FFFFFF"></path>
            <path d="M75.540531,171.333333 L91.7161062,171.333333 C92.5372021,171.333333 93.2028319,170.670051 93.2028319,169.851852 C93.2028319,169.033652 92.5372021,168.37037 91.7161062,168.37037 L75.540531,168.37037 C74.7194351,168.37037 74.0538053,169.033652 74.0538053,169.851852 C74.0538053,170.670051 74.7194351,171.333333 75.540531,171.333333" id="Shape" fill="#662059"></path>
            <path d="M75.540531,182.355556 L84.2230088,182.355556" id="Shape" fill="#FFFFFF"></path>
            <path d="M75.540531,183.911111 L84.2230088,183.911111 C85.0441048,183.911111 85.7097345,183.247829 85.7097345,182.42963 C85.7097345,181.61143 85.0441048,180.948148 84.2230088,180.948148 L75.540531,180.948148 C74.7194351,180.948148 74.0538053,181.61143 74.0538053,182.42963 C74.0538053,183.247829 74.7194351,183.911111 75.540531,183.911111" id="Shape" fill="#662059"></path>
            <path d="M48.3780531,198.933333 L128.512566,198.933333 C129.333662,198.933333 129.999292,198.270051 129.999292,197.451852 C129.999292,196.633652 129.333662,195.97037 128.512566,195.97037 L48.3780531,195.97037 C47.5569572,195.97037 46.8913274,196.633652 46.8913274,197.451852 C46.8913274,198.270051 47.5569572,198.933333 48.3780531,198.933333" id="Shape" fill="#662059"></path>
            <path d="M138.562832,198.933333 L144.271858,198.933333 C145.092954,198.933333 145.758584,198.270051 145.758584,197.451852 C145.758584,196.633652 145.092954,195.97037 144.271858,195.97037 L138.562832,195.97037 C137.741736,195.97037 137.076106,196.633652 137.076106,197.451852 C137.076106,198.270051 137.741736,198.933333 138.562832,198.933333" id="Shape" fill="#662059"></path>
            <path d="M151.571681,198.933333 L165.859115,198.933333 C166.680211,198.933333 167.345841,198.270051 167.345841,197.451852 C167.345841,196.633652 166.680211,195.97037 165.859115,195.97037 L151.571681,195.97037 C150.750586,195.97037 150.084956,196.633652 150.084956,197.451852 C150.084956,198.270051 150.750586,198.933333 151.571681,198.933333" id="Shape" fill="#662059"></path>
            <path d="M1.48672566,198.933333 L37.5100885,198.933333 C38.3311844,198.933333 38.9968142,198.270051 38.9968142,197.451852 C38.9968142,196.633652 38.3311844,195.97037 37.5100885,195.97037 L1.48672566,195.97037 C0.665629752,195.97037 0,196.633652 0,197.451852 C0,198.270051 0.665629752,198.933333 1.48672566,198.933333" id="Shape" fill="#662059"></path>
        </g>
    </g>
</svg>