<?xml version="1.0" encoding="UTF-8"?>
<svg width="300px" height="200px" viewBox="0 0 300 200" version="1.1" xmlns="http://www.w3.org/2000/svg" xmlns:xlink="http://www.w3.org/1999/xlink">
    <!-- Generator: Sketch 51.3 (57544) - http://www.bohemiancoding.com/sketch -->
    <title>pine-cone-and-holly</title>
    <desc>Created with Sketch.</desc>
    <defs></defs>
    <g id="pine-cone-and-holly" stroke="none" stroke-width="1" fill="none" fill-rule="evenodd">
        <g id="Branches_w_pinecone" transform="translate(96.000000, 41.000000)" fill-rule="nonzero">
            <path d="M40.8724471,68.5596429 C36.8414638,74.391638 36.8004422,82.0856604 40.7690118,87.9599714 C40.8341579,88.0482337 40.8306434,88.1693311 40.7604873,88.2536975 C40.6903313,88.3380639 40.5715361,88.3640503 40.4723454,88.3167286 C38.9245855,87.532083 37.2379985,87.0557705 35.5071086,86.9144857 C29.4818602,86.4233005 23.8643514,89.9851395 21.760803,95.6304714 C21.709607,95.7912514 21.5721462,95.9098033 21.4050678,95.9372724 C21.2379894,95.9647414 21.0695717,95.8964784 20.9692192,95.7606143 C18.8195958,92.7432286 14.0340368,89.5800714 7.18969737,92.3125714 C7.06738796,92.3646072 6.9253185,92.3313938 6.83902298,92.2305899 C6.75272745,92.129786 6.74224942,91.9848049 6.81315974,91.8727286 C9.7446672,87.1086689 9.00962144,80.963143 5.03648842,77.0184429 C4.91757455,76.8998853 4.87614705,76.7245659 4.9294886,76.5656242 C4.98283015,76.4066826 5.12177738,76.2914227 5.28836447,76.2679286 C11.2274187,75.1231271 15.6750535,70.1800026 16.1693899,64.1747 C16.3111295,62.4506023 16.113791,60.7155214 15.5884342,59.0667 C15.5577073,58.9615179 15.6027817,58.8490024 15.6977654,58.7937854 C15.7927491,58.7385685 15.9132707,58.7548181 15.9900992,58.8332 C21.1631269,63.6894657 28.7912243,64.9012879 35.2241962,61.8887857" id="Shape" fill="#2D9693"></path>
            <path d="M7.06985474,93.7646571 C6.44390639,93.7651111 5.866125,93.4300704 5.55746083,92.8876584 C5.24879667,92.3452465 5.25699519,91.679366 5.57892118,91.1446571 C8.18334079,86.9462441 7.54065364,81.5139739 4.02776513,78.0336143 C3.53308453,77.5490748 3.34936151,76.8310454 3.55086145,76.1697714 C3.75831876,75.4970462 4.32296989,74.9942435 5.01728434,74.8639714 C10.3189248,73.8319732 14.2886976,69.4201168 14.7402278,64.0582571 C14.8670425,62.5186429 14.6905288,60.9691829 14.2206133,59.4970143 C13.9923774,58.7762306 14.2813021,57.992832 14.9237063,57.5906286 C15.5740853,57.1867436 16.4159786,57.2697989 16.9741828,57.7929143 C21.6759507,62.3505855 28.7479525,63.4689437 34.6356966,60.5858857 C35.3576371,60.264999 36.2041322,60.5864644 36.5283554,61.3046429 C36.8525786,62.0228213 36.5322741,62.8669068 35.8121938,63.1919143 C29.9602865,66.0857757 22.9948587,65.6017524 17.6030411,61.9265714 C17.6653634,62.7136299 17.6639581,63.5044091 17.5988388,64.2912429 C17.0889923,70.3284221 12.9627296,75.4582495 7.15879013,77.2704571 C10.0673966,80.9367656 10.8422386,85.850033 9.20225329,90.2280429 C10.9601461,89.8688537 12.766653,89.8108223 14.5441282,90.0564429 C15.3221833,90.1929208 15.8428779,90.9304938 15.7086222,91.705969 C15.5743665,92.4814442 14.8357337,93.0027047 14.0567261,92.8717286 C11.916635,92.6045563 9.74342237,92.8671455 7.72953421,93.6362429 C7.51999666,93.7209683 7.29599886,93.7645721 7.06985474,93.7646571 Z M6.65106526,90.9884286 L6.64756579,90.9898571 L6.65106526,90.9884286 Z" id="Shape" fill="#662059"></path>
            <path d="M21.3132146,97.3765429 C20.6896603,97.3776758 20.1081502,97.0634943 19.7690575,96.5422571 C19.097802,95.7143209 18.3310749,94.9679323 17.48469,94.3184857 C17.0816958,94.0017867 16.8793792,93.4946884 16.9542064,92.9888496 C17.0290336,92.4830108 17.369591,92.0555879 17.8471642,91.8681263 C18.3247374,91.6806647 18.8664815,91.7617581 19.2676432,92.0807571 C19.891054,92.5771803 20.487172,93.1066852 21.0534074,93.6669714 C23.7924536,88.2470112 29.5506264,85.0156528 35.6238103,85.4903857 C36.4170381,85.5546912 37.2037207,85.682993 37.9761163,85.8740286 C36.7098462,83.0346565 36.1842342,79.9226617 36.4480654,76.8268857 C36.7144991,73.5706163 37.8329016,70.4407263 39.691848,67.7490429 C40.1423326,67.1024168 41.033089,66.9406389 41.6837027,67.3872851 C42.3343165,67.8339314 42.4995765,68.7206643 42.053247,69.3701429 C40.479043,71.6503822 39.5320981,74.3016527 39.3067338,77.0598714 C39.003835,80.6307922 39.940217,84.1971162 41.9594639,87.1631143 C42.387994,87.7973531 42.3321381,88.6398959 41.8236012,89.2125 C41.3211717,89.7792543 40.4967937,89.9343468 39.8214433,89.5891714 C38.4403483,88.8890242 36.9352219,88.4644031 35.3906507,88.3391714 C30.0058764,87.8955495 24.9836202,91.0786561 23.1060208,96.1251714 C22.8584856,96.8043849 22.2456779,97.2850235 21.5247463,97.3654 C21.4545182,97.3732679 21.3838841,97.3769887 21.3132146,97.3765429 Z M41.1183425,87.0417286 L41.121842,87.0431571 L41.1183425,87.0417286 Z" id="Shape" fill="#662059"></path>
            <path d="M27.4128116,75.6480286 C26.8109074,75.6487313 26.2726238,75.2749464 26.0650942,74.7121718 C25.8575647,74.1493972 26.0249642,73.5174259 26.4842176,73.1298857 L35.9592578,65.1213143 C36.3500582,64.7911115 36.8880291,64.6936614 37.370522,64.8656724 C37.853015,65.0376834 38.2067279,65.453023 38.2984204,65.9552367 C38.390113,66.4574505 38.2058549,66.9702401 37.8150545,67.3004429 L28.3400143,75.3090143 C28.0811308,75.5280393 27.7524762,75.6482057 27.4128116,75.6480286 Z" id="Shape" fill="#662059"></path>
            <path d="M21.6703761,80.5015429 C21.0684719,80.5022456 20.5301883,80.1284606 20.3226587,79.565686 C20.1151292,79.0029114 20.2825287,78.3709401 20.7417821,77.9834 L22.8181747,76.2283429 C23.2089751,75.8981401 23.746946,75.8006899 24.229439,75.9727009 C24.711932,76.1447119 25.0656449,76.5600515 25.1573374,77.0622653 C25.24903,77.564479 25.0647719,78.0772687 24.6739714,78.4074714 L22.5975932,80.1625 C22.3387099,80.3815385 22.0100493,80.5017154 21.6703761,80.5015429 Z" id="Shape" fill="#662059"></path>
            <path d="M67.4457722,68.6897714 C71.4190159,74.5609447 71.3841202,82.2549948 67.3577834,88.0901714 C67.2917671,88.1777927 67.2940866,88.2989215 67.3634093,88.3839715 C67.432732,88.4690216 67.5512685,88.4961674 67.6509217,88.4498143 C69.2063531,87.6803554 70.8975636,87.2205755 72.6297692,87.0962429 C78.6595696,86.6640673 84.2416593,90.2807237 86.2894054,95.9463714 C86.3390153,96.1076393 86.4752971,96.227526 86.6420919,96.256629 C86.8088866,96.285732 86.9779658,96.2191257 87.0796554,96.0842571 C89.2589383,93.0880571 94.0754905,89.9719 100.892537,92.7712714 C101.014325,92.8244945 101.156708,92.792672 101.243991,92.6927218 C101.331273,92.5927715 101.343184,92.4479068 101.273392,92.3351429 C98.3890411,87.5426206 99.1846865,81.4045986 103.196539,77.4989857 C103.316616,77.3815975 103.359771,77.2066921 103.308,77.0472361 C103.256229,76.8877802 103.118425,76.7711661 102.952078,76.7460429 C97.0245988,75.5431352 92.6259645,70.5566796 92.1909379,64.5468143 C92.0662169,62.8214154 92.2806649,61.0883533 92.822263,59.4447571 C92.8540322,59.3398796 92.8100723,59.2269232 92.7156362,59.1707763 C92.6212002,59.1146293 92.5005202,59.129699 92.4229214,59.2073286 C87.2022274,64.0127149 79.5625446,65.149802 73.1596096,62.0744714" id="Shape" fill="#2D9693"></path>
            <path d="M101.014846,94.2250286 C100.784589,94.2244095 100.556679,94.1789116 100.343966,94.0911 C97.8646273,92.9358877 95.029132,92.7961237 92.4474034,93.7018714 C91.7079097,93.983868 90.8789259,93.6153504 90.5958161,92.8787643 C90.3127064,92.1421782 90.6826787,91.3164537 91.4221724,91.0344571 C93.8120064,90.1522129 96.4138775,90.0106913 98.8859474,90.6284857 C97.3084041,86.2435468 98.1367757,81.3568049 101.072272,77.7308857 C95.2859313,75.86224 91.2103004,70.6915385 90.76103,64.6491429 C90.7030929,63.8619252 90.7096498,63.071314 90.7806357,62.2851571 C85.3520412,65.9063999 78.3822701,66.3218192 72.5588762,63.3712286 C72.0937684,63.1574077 71.7785134,62.7126726 71.7318648,62.2045507 C71.6852162,61.6964288 71.914261,61.2021159 72.3327202,60.9078149 C72.7511793,60.613514 73.2954791,60.5639362 73.7605868,60.7777571 C79.6191943,63.7206758 86.70331,62.6713622 91.4487053,58.1577571 C92.0119349,57.6390553 92.8556226,57.5642482 93.5019784,57.9757 C94.1394447,58.3826904 94.4208747,59.1669079 94.1868713,59.8841857 C93.7019503,61.3529287 93.5097381,62.9018808 93.6210322,64.4440286 C94.0184305,69.810461 97.9445267,74.2617213 103.236123,75.3452571 C103.93001,75.482956 104.490255,75.9921217 104.691345,76.6678 C104.884328,77.3297646 104.694075,78.0437575 104.196929,78.5232714 C100.64827,81.9677514 99.951199,87.3940463 102.514816,91.6175571 C102.830172,92.153053 102.833556,92.8157402 102.523686,93.3544041 C102.213815,93.8930679 101.638123,94.2252513 101.014846,94.2250286 Z M101.436433,91.4488 L101.439301,91.4502286 L101.436433,91.4488 Z" id="Shape" fill="#662059"></path>
            <path d="M86.7385714,97.6974143 C86.662718,97.6976309 86.5869296,97.6929688 86.5116793,97.6834571 C85.7916157,97.5977901 85.1826113,97.1128122 84.9402149,96.4320286 C83.0890796,91.385684 78.1158809,88.1622591 72.734022,88.5204714 C71.1871075,88.6306029 69.6768363,89.0415219 68.2885287,89.7300143 C67.6104572,90.0653526 66.7906468,89.9031795 66.2926813,89.3352 C65.788625,88.7585834 65.7391069,87.9156522 66.1722076,87.2844143 C68.222575,84.3380572 69.1955754,80.7799958 68.9285882,77.2049 C68.730049,74.4444091 67.8086619,71.7839474 66.2562524,69.4886571 C65.8130211,68.8345153 65.9860912,67.9463314 66.6428151,67.5048429 C67.2995391,67.0633543 68.191229,67.2357439 68.6344603,67.8898857 C70.4668229,70.6004117 71.5543052,73.7418001 71.7886047,77.0012 C72.0226685,80.0990625 71.4661769,83.2055616 70.1709157,86.0316143 C70.9451443,85.8484881 71.7329862,85.7280948 72.5267212,85.6716143 C78.5881683,85.2373861 84.3086994,88.5071112 86.9907343,93.9389143 C87.2146988,93.7071362 87.4542912,93.4908617 87.7078396,93.2916 C88.3367492,92.8123628 89.2366133,92.9316917 89.7177422,93.5581286 C90.1988712,94.1845654 90.0790712,95.0808914 89.4501616,95.5601286 C88.9980035,95.9420638 88.6019663,96.3853881 88.2736643,96.8771 C87.9326932,97.3899185 87.3560859,97.6980427 86.7385714,97.6974143 Z M67.0181767,87.1672857 L67.0097722,87.1714714 L67.0181767,87.1672857 Z" id="Shape" fill="#662059"></path>
            <path d="M80.8490576,75.9103 C80.5041782,75.911054 80.1707405,75.787127 79.9106537,75.5615286 L70.5154561,67.4602429 C70.1281578,67.1263042 69.949137,66.6119234 70.0458288,66.1108627 C70.1425207,65.6098021 70.5002356,65.1981846 70.9842256,65.0310627 C71.4682157,64.8639408 72.0049514,64.9667041 72.3922496,65.3006429 L81.7874472,73.4019286 C82.2399812,73.7923765 82.4014113,74.4217431 82.1923585,74.9805537 C81.9833057,75.5393643 81.4477582,75.9100357 80.8490576,75.9103 Z" id="Shape" fill="#662059"></path>
            <path d="M86.5438917,80.8196286 C86.1990123,80.8203825 85.8655746,80.6964556 85.6054878,80.4708571 L83.5466068,78.6949143 C83.1593087,78.3609756 82.9802878,77.8465948 83.0769797,77.3455342 C83.1736716,76.8444735 83.5313864,76.4328561 84.0153765,76.2657342 C84.4993665,76.0986122 85.0361022,76.2013756 85.4234004,76.5353143 L87.4822813,78.3112 C87.9348605,78.7016388 88.0963209,79.3310339 87.8872625,79.8898722 C87.6782041,80.4487106 87.1426205,80.8193918 86.5438917,80.8196286 Z" id="Shape" fill="#662059"></path>
            <path d="M49.4870183,70.0771571 C47.2507267,77.7387081 40.5386751,83.2591754 32.562703,83.9969143 C32.4389376,84.0032162 32.3353537,84.0925969 32.3114476,84.2137182 C32.2875414,84.3348394 32.3494463,84.4566269 32.4616055,84.5091286 C34.2524397,85.2952493 35.8720846,86.4218532 37.2297675,87.8258 C41.9553406,92.7133862 42.8390896,100.135799 39.3923418,105.988786 C39.2879595,106.147903 39.2820735,106.351911 39.3771094,106.516737 C39.4721454,106.681562 39.6520176,106.779305 39.8425979,106.769686 C44.0187464,106.487357 50.2016997,108.392543 52.6866416,116.290186 C52.7282447,116.433599 52.8586208,116.533417 53.0084565,116.536573 C53.1582922,116.539729 53.2927882,116.44549 53.3404408,116.303957 C55.424804,110.359466 61.3333389,106.617497 67.6218933,107.259286 C67.8105387,107.278138 67.9936783,107.18917 68.0949118,107.029498 C68.1961453,106.869825 68.1980827,106.666876 68.0999157,106.505314 C64.869205,100.526417 66.0296701,93.1363081 70.9389641,88.4256 C72.3485319,87.0733343 74.0094403,86.0079987 75.8286037,85.2893 C75.9426593,85.2410227 76.0091035,85.1216326 75.9897724,84.9997042 C75.9704414,84.8777758 75.8702946,84.7845905 75.7468537,84.7736714 C67.8042426,83.7386439 61.3046572,77.9714321 59.3582734,70.2317571" id="Shape" fill="#2D9693"></path>
            <path d="M53.0150184,117.965271 L52.9736988,117.963843 C52.2107406,117.94518 51.5446966,117.443964 51.3181896,116.718029 C50.5191508,113.701664 48.5645536,111.117634 45.8740699,109.520757 C45.4272264,109.271299 45.1479356,108.803339 45.1414037,108.293154 C45.1348718,107.782969 45.4020912,107.308067 45.8424028,107.04734 C46.2827144,106.786612 46.8292245,106.77967 47.276068,107.029129 C49.8339787,108.497915 51.8667854,110.726623 53.0899416,113.403286 C55.7336761,108.686871 60.7337199,105.765744 66.1568042,105.769357 C63.4979088,99.4526719 65.0014967,92.1581606 69.9440236,87.3960286 C70.6724778,86.6969737 71.4638743,86.0660647 72.3082336,85.5112571 C65.1360529,83.5543344 59.6268675,77.8250053 57.9731272,70.6033286 C57.7673693,69.8413176 58.2207399,69.0574418 58.9857587,68.8524929 C59.7507776,68.6475439 60.5377477,69.0991319 60.7435057,69.8611429 C62.4321812,77.1065235 68.5141013,82.5104136 75.9329712,83.3572429 C76.7072211,83.4568354 77.3162794,84.0646498 77.4147975,84.8360429 C77.5106157,85.5985307 77.0778502,86.3293971 76.3615563,86.6147857 C74.7137335,87.265323 73.209341,88.2301867 71.932872,89.4551857 C67.4982932,93.7263614 66.448401,100.410387 69.3613325,105.826614 C69.7111927,106.463477 69.6772026,107.241147 69.2730999,107.845314 C68.8804194,108.44147 68.1826473,108.764672 67.4719322,108.6796 C61.8355489,108.099496 56.5399855,111.460929 54.6872936,116.794829 C54.4319791,117.496089 53.7639103,117.963677 53.0150184,117.965271 Z" id="Shape" fill="#662059"></path>
            <path d="M42.3669805,108.2959 C42.2587912,108.29617 42.1509322,108.283999 42.0455453,108.259629 C41.3688203,108.139754 40.6784279,108.116267 39.9950688,108.189871 C39.2805425,108.27296 38.5813643,107.941143 38.1960095,107.336071 C37.788456,106.710414 37.7721726,105.908722 38.1539871,105.267157 C41.2649382,99.9638494 40.4659249,93.2483657 36.1966483,88.8162714 C34.9686513,87.5457137 33.5029388,86.5267579 31.8821128,85.8168286 C31.1740922,85.5050072 30.7674215,84.7556788 30.8932963,83.9948429 C31.0229041,83.2273028 31.656341,82.6436579 32.4346567,82.5746429 C36.5120062,82.2120761 40.3408106,80.4662435 43.2808738,77.6290571 C45.5594063,75.4445586 47.224109,72.7039718 48.1094304,69.6798429 C48.3350428,68.9285418 49.1264966,68.4988423 49.8826734,68.7171063 C50.6388502,68.9353703 51.0770279,69.7199923 50.8644054,70.4750429 C49.8394233,73.9794008 47.9110392,77.1553264 45.2711278,79.6868143 C42.6771016,82.1920651 39.4687137,83.9757387 35.9662567,84.8597714 C36.7911511,85.4463738 37.5598447,86.1076677 38.2625282,86.8352143 C43.0142089,91.7700228 44.246628,99.1000395 41.3683541,105.307629 C41.8112202,105.328374 42.2517121,105.384358 42.6856191,105.475043 C43.3966577,105.637195 43.8722134,106.305157 43.7906563,107.02717 C43.7090991,107.749182 43.0964165,108.295184 42.3669805,108.2959 Z M32.7056221,85.4192286 L32.6965149,85.4206571 L32.7056221,85.4192286 Z" id="Shape" fill="#662059"></path>
            <path d="M54.1235914,87.2426286 L54.0963414,87.2426286 C53.3044776,87.2274708 52.6745746,86.576327 52.6887355,85.7875571 L52.9513538,71.8408429 C52.9916249,71.0632258 53.6305259,70.4500169 54.4121689,70.4387714 C55.2040289,70.4537087 55.8338744,71.1050917 55.8191295,71.8938429 L55.5572139,85.8405571 C55.5422973,86.6187601 54.9050084,87.2420236 54.1235914,87.2426286 Z" id="Shape" fill="#662059"></path>
            <path d="M53.9646236,95.6940571 L53.9373736,95.6940571 C53.1455097,95.6788994 52.5156067,95.0277556 52.5297676,94.2389857 L52.5871361,91.1823429 C52.6254116,90.4038212 53.2654746,89.7894971 54.0479512,89.7802714 C54.839815,89.7954292 55.469718,90.446573 55.4555571,91.2353429 L55.3981887,94.2919857 C55.3835157,95.0702708 54.7461185,95.6936652 53.9646236,95.6940571 Z" id="Shape" fill="#662059"></path>
            <path d="M70.6971275,49.7460857 C74.6992921,43.894432 74.7023579,36.200302 70.7048579,30.3454857 C70.6392828,30.2575432 70.6422026,30.1364342 70.7119401,30.0517283 C70.7816776,29.9670224 70.9003387,29.9404543 70.9997603,29.9872857 C72.5513767,30.7643446 74.2402974,31.2323932 75.971867,31.3652 C81.9994623,31.8268866 87.5993284,28.2375984 89.6750028,22.5820429 C89.7254073,22.4210184 89.8622799,22.3017991 90.0292175,22.2735132 C90.1961551,22.2452272 90.3649045,22.3126619 90.4659268,22.4480286 C92.6304087,25.4548571 97.4315145,28.5945571 104.262286,25.8285857 C104.384327,25.7760109 104.52651,25.8085518 104.613272,25.9089143 C104.700034,26.0092769 104.711233,26.1541626 104.640918,26.2665714 C101.732954,31.0449198 102.498308,37.1867674 106.490849,41.1119714 C106.610347,41.2299381 106.652646,41.405045 106.600101,41.5642447 C106.547556,41.7234444 106.409192,41.8393902 106.24273,41.8637143 C100.309395,43.0375718 95.8862005,48.0024071 95.4214971,54.0100571 C95.2882634,55.7348243 95.4941566,57.4689152 96.0276375,59.1151429 C96.0588851,59.2201726 96.0143687,59.3329083 95.9196597,59.3885914 C95.8249507,59.4442745 95.7043501,59.4286175 95.6271342,59.3506143 C90.4302189,54.5197247 82.7962415,53.3452447 76.3782075,56.3891857" id="Shape" fill="#2D9693"></path>
            <path d="M95.8004299,60.8475286 C95.3732025,60.8473978 94.9618682,60.6861508 94.6491461,60.3962143 C89.9255275,55.860069 82.8469315,54.7762088 76.9736057,57.6897714 C76.2526786,58.0172289 75.4017472,57.7005567 75.0729971,56.9824643 C74.744247,56.2643718 75.0621692,55.4167861 75.7830962,55.0893286 C81.620708,52.1659499 88.5890665,52.615568 93.9992479,56.2646857 C93.9327103,55.4781942 93.9298997,54.6876412 93.9908434,53.9007 C94.4722085,47.8611012 98.573128,42.7114143 104.367859,40.8698714 C101.450483,37.2292753 100.646527,32.3383417 102.245958,27.9611143 C99.77064,28.5655005 97.1698331,28.4118566 94.7835889,27.5202714 C94.305971,27.3353584 93.9636732,26.9106875 93.8856358,26.4062281 C93.8075983,25.9017687 94.005677,25.3941602 94.4052574,25.0746138 C94.8048379,24.7550674 95.3452143,24.6721298 95.8228322,24.8570429 C98.4007322,25.7737041 101.236636,25.6474936 103.722191,24.5054857 C104.414051,24.2218194 105.210526,24.4110919 105.699299,24.9753216 C106.188073,25.5395513 106.259408,26.3520586 105.876376,26.9922286 C103.295222,31.2030027 103.965977,36.6299359 107.495398,40.0913857 C107.991527,40.5726996 108.17871,41.2883922 107.981409,41.9496429 C107.77912,42.6242971 107.217346,43.1311862 106.523391,43.2652143 C101.22551,44.3229778 97.2762773,48.7550873 96.8508743,54.1204 C96.7314976,55.660092 96.9156317,57.2081757 97.3929055,58.6774571 C97.5559149,59.1836574 97.4660374,59.7369824 97.1510936,60.1661572 C96.8361499,60.5953321 96.3341306,60.8485865 95.8004299,60.8475286 Z M94.6617384,59.5501 L94.6631726,59.5542857 L94.6617384,59.5501 Z M104.806254,27.1512 L104.800646,27.1526286 L104.806254,27.1512 Z M103.404256,25.5440571 L103.401387,25.5475429 L103.404256,25.5440571 Z" id="Shape" fill="#662059"></path>
            <path d="M70.6961379,51.1746714 C70.1647212,51.1741795 69.6771375,50.881043 69.429087,50.4129176 C69.1810365,49.9447922 69.2131843,49.3784216 69.5126274,48.9411286 C71.07574,46.6530589 72.0096704,43.9969609 72.2213778,41.2374429 C72.506652,37.6652612 71.5524442,34.1037681 69.5182208,31.1481571 C69.0858519,30.5223149 69.1328894,29.6844741 69.6326147,29.1105501 C70.13234,28.5366262 70.9583817,28.3717542 71.6415264,28.7095857 C73.0267175,29.4044602 74.535004,29.822705 76.081412,29.9407571 C81.4664115,30.3473354 86.4675403,27.1424673 88.3282504,22.0926286 C88.5722574,21.4132564 89.1816787,20.9302843 89.9011204,20.8461143 C90.5960817,20.7590453 91.2798802,21.0752143 91.6616712,21.6601429 C91.9279055,22.0624815 91.9728438,22.5713099 91.7812195,23.013768 C91.5895952,23.456226 91.1871715,23.7728269 90.7106605,23.8560143 C88.1796891,29.6830126 82.2172786,33.2700936 75.8615332,32.7894857 C75.0684278,32.7292794 74.2815225,32.6051735 73.5085387,32.4183857 C74.7884801,35.2511072 75.3294969,38.3599186 75.0814087,41.4564714 C74.8309561,44.7142832 73.7280483,47.849902 71.8825168,50.5510714 C71.6151494,50.9418214 71.1708781,51.1753451 70.6961379,51.1746714 Z M91.0243941,23.0678 L91.0229599,23.0733857 L91.0243941,23.0678 Z" id="Shape" fill="#662059"></path>
            <path d="M74.6934404,53.5037714 C74.0929933,53.504244 73.555867,53.1319434 73.3476596,52.5709645 C73.1394521,52.0099856 73.3042819,51.3791985 73.7606442,50.9905143 L83.1964587,42.9352714 C83.5852234,42.6010127 84.1237747,42.4993807 84.6083477,42.6688287 C85.0929207,42.8382766 85.4495082,43.2529254 85.5431926,43.7558895 C85.636877,44.2588536 85.4533502,44.773317 85.0620511,45.1046286 L75.6262366,53.1598714 C75.3667205,53.3821354 75.0356983,53.5041754 74.6934404,53.5037714 Z" id="Shape" fill="#662059"></path>
            <path d="M87.7792059,42.3319 C87.1789149,42.3320645 86.642061,41.9597482 86.4339077,41.3989154 C86.2257544,40.8380825 86.3903672,40.2074599 86.8464097,39.8186429 L88.9150863,38.0538571 C89.303851,37.7195984 89.8424023,37.6179664 90.3269753,37.7874144 C90.8115483,37.9568624 91.1681358,38.3715111 91.2618202,38.8744752 C91.3555046,39.3774393 91.1719779,39.8919027 90.7806787,40.2232143 L88.7120021,41.988 C88.452486,42.2102639 88.1214638,42.332304 87.7792059,42.3319 Z" id="Shape" fill="#662059"></path>
            <path d="M37.3620734,49.6832286 C33.3599088,43.8315749 33.356843,36.1374448 37.354343,30.2826286 C37.4199182,30.194686 37.4169984,30.0735771 37.3472609,29.9888712 C37.2775234,29.9041653 37.1588622,29.8775972 37.0594407,29.9244286 C35.5078242,30.7014874 33.8189035,31.1695361 32.0873339,31.3023429 C26.0597386,31.7640294 20.4598726,28.1747412 18.3841982,22.5191857 C18.3337936,22.3581613 18.1969211,22.2389419 18.0299835,22.210656 C17.8630458,22.1823701 17.6942964,22.2498048 17.5932741,22.3851714 C15.4287922,25.392 10.6276864,28.5317 3.79691461,25.7657286 C3.67487376,25.7131538 3.53269065,25.7456946 3.44592881,25.8460572 C3.35916698,25.9464198 3.34796776,26.0913054 3.41828303,26.2037143 C6.32624695,30.9820626 5.56089249,37.1239103 1.56835224,41.0491143 C1.44885415,41.167081 1.4065549,41.3421879 1.45909996,41.5013876 C1.51164503,41.6605873 1.65000843,41.7765331 1.81647066,41.8008571 C7.74980575,42.9747147 12.1730005,47.9395499 12.6377038,53.9472 C12.7709375,55.6719672 12.5650443,57.406058 12.0315634,59.0522857 C12.0003158,59.1573155 12.0448323,59.2700512 12.1395413,59.3257343 C12.2342502,59.3814174 12.3548508,59.3657604 12.4320667,59.2877571 C17.628982,54.4568676 25.2629595,53.2823876 31.6809934,56.3263286" id="Shape" fill="#2D9693"></path>
            <path d="M12.2583695,60.7840571 C11.7249551,60.7854953 11.2230411,60.5326639 10.9080672,60.1038634 C10.5930933,59.6750628 10.5030762,59.1220485 10.6658938,58.6160857 C11.142791,57.145999 11.3269131,55.5973032 11.207925,54.0569286 C10.7831983,48.6924432 6.83510493,44.2606165 1.53820513,43.2024429 C0.843346872,43.0690243 0.280443227,42.5621246 0.0773326316,41.8869143 C-0.119729124,41.2251918 0.0679977603,40.5091994 0.564734737,40.0279571 C4.09393999,36.5653004 4.76359627,31.1374354 2.18109,26.9266714 C1.79974342,26.2859789 1.87257041,25.4741412 2.36191372,24.9109421 C2.85125702,24.3477429 3.64741107,24.1594455 4.33870197,24.4434143 C6.82434397,25.5843527 9.65978359,25.7100563 12.2373583,24.7935857 C12.9752454,24.5098935 13.8044121,24.8748511 14.0906201,25.6092987 C14.3768282,26.3437463 14.0119998,27.1703421 13.2751961,27.4568143 C10.8897183,28.3496978 8.28901094,28.5036026 5.81417474,27.8983429 C7.41269062,32.2757614 6.60851402,37.1663512 3.69154316,40.8071 C9.48652543,42.6481157 13.587463,47.7981741 14.0678555,53.8379286 C14.1287973,54.6250987 14.1259868,55.4158794 14.0594511,56.2026 C19.4693203,52.5528826 26.4377718,52.102723 32.2756028,55.0258429 C32.9944469,55.3541216 33.3109476,56.1999754 32.983162,56.9168074 C32.6553763,57.6336395 31.8069735,57.9509986 31.0864988,57.6262857 C25.212913,54.7128899 18.1342256,55.7967334 13.41027,60.3327571 C13.0974758,60.6229689 12.6858379,60.7842434 12.2583695,60.7840571 Z M3.25673355,27.0891571 L3.26023303,27.0905857 L3.25673355,27.0891571 Z" id="Shape" fill="#662059"></path>
            <path d="M37.3633499,51.1119 C36.8886767,51.1123822 36.4445114,50.8789002 36.1770426,50.4883 C34.3319819,47.7868918 33.2291104,44.6514043 32.9781221,41.3937 C32.7295812,38.2968996 33.2706149,35.1877505 34.5509921,32.3549143 C33.7779801,32.5416976 32.9910938,32.6660298 32.1979976,32.7267 C26.1203422,33.183241 20.3724033,29.921017 17.6681686,24.4803429 C17.1004234,25.0367666 16.5033947,25.5627463 15.8796076,26.0560571 C15.2570223,26.5385385 14.3601287,26.429655 13.8721148,25.8123461 C13.3841009,25.1950372 13.4881741,24.3010493 14.1050589,23.8113571 C14.9532864,23.1655711 15.7223577,22.4227018 16.3964397,21.5980429 C16.781303,21.0169747 17.4622246,20.7017393 18.1562878,20.7833143 C18.8764684,20.8668539 19.4868104,21.3499125 19.7312517,22.0298286 C21.5953905,27.076588 26.593732,30.2798379 31.9773587,29.8779 C33.5234204,29.7596457 35.0313941,29.3416591 36.4165414,28.6474286 C37.094491,28.3088664 37.91643,28.4688236 38.4165911,29.0366571 C38.9215691,29.6124048 38.9719614,30.4553742 38.5391443,31.0867429 C36.5062702,34.0423731 35.5528552,37.6031904 35.8380957,41.1746286 C36.0501116,43.9340933 36.9840201,46.5901246 38.5468604,48.8783429 C38.8463115,49.3156362 38.8784638,49.8820125 38.6304123,50.3501428 C38.3823608,50.8182732 37.8947714,51.1114116 37.3633499,51.1119 Z M36.1679354,29.4796429 L36.1658414,29.4831286 L36.1679354,29.4796429 Z" id="Shape" fill="#662059"></path>
            <path d="M33.3646418,53.441 C33.0223858,53.441408 32.6913638,53.3193731 32.4318457,53.0971143 L22.9960168,45.0418571 C22.3946008,44.528327 22.3249984,43.6264015 22.8405556,43.02735 C23.3561129,42.4282986 24.2615986,42.3589699 24.8630147,42.8725 L34.2988292,50.9277429 C34.7546623,51.3168922 34.9189285,51.947655 34.710482,52.5084414 C34.5020356,53.0692278 33.9649908,53.4413565 33.3646418,53.441 Z" id="Shape" fill="#662059"></path>
            <path d="M20.2788763,42.2691143 C19.9366202,42.2695223 19.6055983,42.1474873 19.3460801,41.9252286 L17.2781063,40.1597714 C16.8890532,39.8275655 16.7074826,39.3138532 16.8017905,38.8121451 C16.8960984,38.310437 17.2519571,37.8969544 17.7353181,37.7274522 C18.2186792,37.5579501 18.7561084,37.6581798 19.1451616,37.9903857 L21.2131354,39.7558714 C21.6689671,40.1450316 21.8332218,40.7758052 21.6247581,41.3365917 C21.4162945,41.8973781 20.8792313,42.2694937 20.2788763,42.2691143 Z" id="Shape" fill="#662059"></path>
            <ellipse id="Oval" fill="#FB5956" transform="translate(70.435589, 58.264438) rotate(-2.062525) translate(-70.435589, -58.264438) " cx="70.4355891" cy="58.2644379" rx="9.66265713" ry="9.62466503"></ellipse>
            <path d="M70.4314257,69.3185 C64.3817859,69.3153165 59.4493304,64.4863844 59.341656,58.4614846 C59.2339815,52.4365847 63.9907653,47.4358497 70.0364584,47.2182 C70.8261656,47.192712 71.4878704,47.8081275 71.5164171,48.5946287 C71.5449638,49.3811299 70.9296022,50.0425338 70.1401088,50.0739143 C66.149237,50.2176327 62.8382031,53.1950709 62.2879879,57.1349126 C61.7377727,61.0747543 64.1072639,64.8392753 67.9072394,66.0624789 C71.7072149,67.2856824 75.8403401,65.614339 77.708951,62.0988859 C79.5775619,58.5834327 78.642052,54.2390417 75.4903882,51.7961571 C75.082538,51.4834279 74.8741571,50.977019 74.944334,50.4691315 C75.0145108,49.961244 75.3524875,49.529735 75.8299892,49.3383782 C76.3074909,49.1470215 76.8513187,49.2251512 77.2550695,49.5431143 C80.9357873,52.3991802 82.4299495,57.2434216 80.9940408,61.6652785 C79.5581322,66.0871355 75.4988434,69.1421591 70.8361312,69.3101286 C70.7003401,69.3157143 70.5659116,69.3185 70.4314257,69.3185 Z" id="Shape" fill="#662059"></path>
            <ellipse id="Oval" fill="#FB5956" transform="translate(69.907041, 76.755407) rotate(-28.008480) translate(-69.907041, -76.755407) " cx="69.9070408" cy="76.7554068" rx="9.66267789" ry="9.62468571"></ellipse>
            <path d="M67.9061538,87.5997714 C67.8054463,87.5997846 67.7050034,87.5895022 67.6064038,87.5690857 C62.3370526,86.4572418 58.6299914,81.7371309 58.8149899,76.3751919 C58.9999884,71.013253 63.0236273,66.5577747 68.357178,65.8088828 C73.6907286,65.0599909 78.7940998,68.233932 80.4599856,73.3359854 C82.1258714,78.4380389 79.8732385,83.9949595 75.1177946,86.5144 C74.6653136,86.7554945 74.1179921,86.737422 73.6825347,86.4670077 C73.2470773,86.1965934 72.9898448,85.7150467 73.0079852,85.2042313 C73.0261256,84.693416 73.3168743,84.2311768 73.7704255,83.9920857 C77.2976555,82.1245701 78.9691941,78.0037717 77.7344117,74.2197789 C76.4996293,70.435786 72.7151305,68.0814141 68.7596257,68.6364811 C64.804121,69.191548 61.8199583,72.4957508 61.6828045,76.4722643 C61.5456507,80.4487778 64.2951157,83.9491869 68.2030497,84.7733429 C68.9209895,84.9252864 69.4079654,85.5925309 69.3315876,86.3196425 C69.2552098,87.0467542 68.6401202,87.5991432 67.9061538,87.5997714 Z" id="Shape" fill="#662059"></path>
            <path d="M73.8936959,77.2468 C73.3629395,77.2476075 72.8752105,76.9561229 72.626155,76.4892714 C72.1786572,75.6511078 71.4151531,75.0243933 70.5036695,74.747051 C69.5921859,74.4697087 68.6074187,74.5644668 67.7660888,75.0104714 C67.3136078,75.251566 66.7662863,75.2334934 66.3308289,74.9630791 C65.8953715,74.6926648 65.638139,74.2111181 65.6562794,73.7003028 C65.6744198,73.1894874 65.9651685,72.7272482 66.4187197,72.4881571 C67.9315565,71.6857237 69.7025464,71.5150825 71.3417461,72.0138058 C72.9809458,72.5125291 74.3539481,73.6397238 75.1584401,75.1472 C75.5304307,75.843729 75.2651951,76.7087494 74.5659821,77.0794 C74.359214,77.1896696 74.1282348,77.2471837 73.8936959,77.2468 Z" id="Shape" fill="#662059"></path>
            <ellipse id="Oval" fill="#FB5956" transform="translate(86.765096, 66.519649) rotate(-47.062780) translate(-86.765096, -66.519649) " cx="86.7650963" cy="66.5196488" rx="9.66267789" ry="9.62468571"></ellipse>
            <path d="M86.7595826,77.5732429 C81.5040617,77.57015 76.9715376,73.8950737 75.9021002,68.7697428 C74.8326628,63.6444119 77.5196684,58.4747511 82.3387161,56.3860245 C87.1577637,54.297298 92.7869449,55.8624623 95.8231973,60.1353139 C98.8594496,64.4081654 98.4699016,70.2166223 94.8900504,74.0492429 C94.3495656,74.6244101 93.4437523,74.6555222 92.8647753,74.1188053 C92.2857984,73.5820885 92.2519797,72.6799292 92.7891614,72.1017 C95.5076393,69.1893271 95.73425,64.7531399 93.3265849,61.5809668 C90.9189198,58.4087938 86.5721475,57.4165411 83.0179057,59.2277691 C79.4636638,61.0389971 77.7281738,65.1307472 78.9020679,68.9316453 C80.075962,72.7325433 83.8202999,75.1451504 87.7820313,74.6533143 C88.2904236,74.5905146 88.7938329,74.802643 89.1026298,75.2097927 C89.4114267,75.6169424 89.4786977,76.1572577 89.2791023,76.627207 C89.0795069,77.0971564 88.6433685,77.4253432 88.1349762,77.4881429 C87.6787264,77.5448858 87.2193751,77.5733074 86.7595826,77.5732429 Z" id="Shape" fill="#662059"></path>
            <path d="M83.1110228,65.2880857 C82.5402684,65.2882427 82.0237437,64.9512912 81.7957803,64.430096 C81.5678169,63.9089008 81.6718089,63.3026741 82.0605783,62.8864429 C84.4941219,60.2890981 88.5785446,60.1421603 91.1938604,62.5578714 C91.5691481,62.9052688 91.7298623,63.4257036 91.6154635,63.9231331 C91.5010648,64.4205626 91.128933,64.8194153 90.6392466,64.9694474 C90.1495602,65.1194795 89.6167142,64.9978974 89.2414266,64.6505 C87.7868031,63.3071207 85.5153903,63.3885241 84.1614529,64.8325571 C83.8902565,65.1234556 83.5095683,65.2885445 83.1110228,65.2880857 Z" id="Shape" fill="#FFFFFF"></path>
            <path d="M80.5052343,40.1131429 C81.1616438,39.4786143 87.8821822,32.6187286 84.433537,20.9495143 C83.687647,20.6951866 82.9170316,20.519492 82.1343397,20.4253143 L82.3462874,20.2967429 C83.9252384,6.39 79.0565383,2.08977143 79.0565383,2.08977143 C73.0265126,1.09340762 66.86729,2.86329499 62.2966696,6.90581429 L62.2954649,6.91238571 C61.9011156,6.12211222 61.4185991,5.37862899 60.8570521,4.69601429 C57.814145,4.89345893 54.8416341,5.69522251 52.1144776,7.05411429 C50.0666545,8.08877991 48.2008963,9.44748347 46.5898987,11.0772857 C45.3137801,12.3295626 44.2340141,13.7659 43.3868333,15.3381 L43.3887408,15.3452429 C42.3944567,14.2731162 41.2610457,13.3378792 40.0184895,12.5642714 C25.1448801,18.5074857 25.8899955,31.8513143 25.8899955,31.8513143 L25.8938966,31.8595 C24.9911874,31.2332967 24.0479651,30.6671278 23.0703807,30.1646857 C23.0703807,30.1646857 10.0830593,54.1834 33.4947534,70.3235286 C56.9070355,86.4635286 75.9648824,64.6776571 75.9648824,64.6776571 C75.0669301,63.979349 74.1302182,63.3319531 73.1591937,62.7385429 C74.4270358,62.2653 85.3370753,57.7592429 85.6619813,42.7282286 C84.0973519,41.5828835 82.3555401,40.6995772 80.5052343,40.1131429 Z" id="Shape" fill="#AF8E77"></path>
            <path d="M51.1375078,77.6778857 C44.4894765,77.5768951 38.0379141,75.4168636 32.6783721,71.4976286 C24.2404813,65.6815 19.3979125,58.2345143 18.2851516,49.3645429 C18.188415,48.5825175 18.7456841,47.8701571 19.5306272,47.7724437 C20.3155704,47.6747303 21.0317089,48.228571 21.1311703,49.0102571 C22.1389039,57.039 26.5731817,63.8142429 34.3107762,69.1483714 C53.5668739,82.4226571 69.5546784,69.0465286 73.8026809,64.8675429 C71.1499508,63.0455571 64.599352,59.1309429 57.138388,59.0018286 C56.3604421,58.9877177 55.7354746,58.3587062 55.7293909,57.5837143 C55.7293909,57.4888429 55.6201471,48.3719429 52.3371532,43.5526 C50.2208464,43.3084571 42.7850816,42.6953143 38.0342592,45.3620286 C37.3444291,45.7476779 36.4713659,45.5040382 36.0831013,44.8175326 C35.6948368,44.1310269 35.938054,43.2610113 36.6266533,42.8731857 C43.0553729,39.2654857 52.93803,40.7387 53.3553853,40.8028857 C53.7188454,40.8594141 54.0466922,41.0526531 54.2713725,41.3427857 C57.6258045,45.6773286 58.3793243,53.1410571 58.5487907,56.2046714 C65.2275255,56.9127819 71.5749342,59.4649539 76.8755917,63.5735286 C77.1747546,63.8188329 77.3616624,64.1741765 77.3938415,64.55881 C77.4260206,64.9434434 77.3007381,65.3247004 77.0464636,65.6159429 C76.9022537,65.7819571 66.2562524,77.6778857 51.1375078,77.6778857 Z" id="Shape" fill="#662059"></path>
            <path d="M19.57858,44.3715143 C19.5414626,44.3715143 19.5036425,44.3700857 19.4658367,44.3673286 C18.6761161,44.3059721 18.0857898,43.6186602 18.1471805,42.8320286 C18.5044862,38.1924369 19.7468337,33.6632869 21.8076443,29.4873 C22.1767619,28.8027733 23.0279057,28.5382732 23.7223154,28.8923 C27.9407026,31.2317644 31.6643405,34.3627836 34.6875863,38.1124429 C35.0160899,38.5041999 35.1098148,39.0407638 34.9334557,39.5200161 C34.7570967,39.9992685 34.337447,40.3483994 33.8325844,40.4358947 C33.3277219,40.52339 32.8143472,40.335957 32.4858437,39.9442 C30.0038492,36.8941749 27.0430344,34.2639901 23.7180414,32.1554857 C22.2372958,35.6212509 21.3221356,39.300462 21.0071828,43.0539286 C20.9489271,43.7970666 20.326922,44.3707356 19.57858,44.3715143 Z" id="Shape" fill="#662059"></path>
            <path d="M46.8993153,43.3321714 C46.4319544,43.3311862 45.9942971,43.1037686 45.7260868,42.7225329 C45.4578765,42.3412972 45.3926535,41.8539178 45.5512434,41.4160143 C51.8896364,24.0018143 42.3389704,15.9117286 39.8697188,14.1727143 C26.8777937,19.7593429 27.2972716,31.28 27.3218109,31.7759571 C27.3495827,32.2855889 27.1022863,32.7712658 26.673076,33.0500381 C26.2438657,33.3288104 25.6979487,33.3583261 25.2409666,33.1274667 C24.7839845,32.8966073 24.4853639,32.440446 24.4575921,31.9308143 C24.4322103,29.1724166 24.9736742,26.438011 26.0486766,23.8958 C28.5624154,17.9973402 33.4315075,13.4100536 39.4839018,11.2381571 C39.8880489,11.0777452 40.3433137,11.1077381 40.7227299,11.3197714 C40.8789011,11.4076571 56.265843,20.3599571 48.2474301,42.3897714 C48.0415631,42.9549017 47.5028708,43.3314746 46.8993153,43.3321714 Z" id="Shape" fill="#662059"></path>
            <path d="M73.0351345,64.2124857 C72.3328918,64.2121999 71.7340769,63.7056068 71.6201228,63.015396 C71.5061687,62.3251852 71.9105747,61.6542598 72.5757425,61.4299857 C73.0309322,61.2744286 83.5438101,57.5307143 84.2020984,43.4368286 C81.6305589,41.7118 70.623323,35.7003571 56.3652482,47.8522857 C55.9761474,48.1856141 55.4378697,48.2863981 54.9538127,48.1165549 C54.4697557,47.9467116 54.1137334,47.5321405 54.020275,47.0294945 C53.9268165,46.5268484 54.1101735,46.012776 54.5010613,45.6815286 C72.3642538,30.4576 86.4276346,41.5074 86.5662941,41.6197714 C86.9097483,41.8977746 87.1051251,42.3181385 87.0957186,42.7588571 C87.1958977,49.1181953 84.7171104,55.2490469 80.220185,59.7643 C78.3046849,61.6700637 76.0130953,63.1592892 73.4902668,64.1378429 C73.3435898,64.1870079 73.1898937,64.2122145 73.0351345,64.2124857 Z" id="Shape" fill="#662059"></path>
            <path d="M68.2310886,41.0853857 C67.7381044,41.0845941 67.2800284,40.8318349 67.0178913,40.4159622 C66.7557541,40.0000896 66.7262459,39.4793112 66.9397397,39.0367 C67.9432462,37.0033605 68.6821899,34.8507941 69.1386713,32.6311429 C69.2372482,32.1302335 69.5966239,31.7197576 70.0814249,31.5543374 C70.566226,31.3889172 71.1027996,31.493684 71.4890237,31.8291731 C71.8752478,32.1646623 72.0524457,32.679905 71.9538688,33.1808143 C71.4498077,35.6392202 70.6337125,38.0237401 69.5252484,40.2769143 C69.2853308,40.771419 68.7824775,41.0855553 68.2310886,41.0853857 Z" id="Shape" fill="#662059"></path>
            <path d="M70.9118288,28.8065143 C70.1600958,28.8056513 69.5366485,28.2266561 69.4832261,27.4797714 C69.3380612,24.9276434 68.540125,22.454881 67.1652407,20.2964571 C57.7070095,19.3261714 50.0443525,27.6402143 49.9666183,27.7253143 C49.4344311,28.3097301 48.5273753,28.3537661 47.9406525,27.8236714 C47.3539298,27.2935767 47.3097199,26.3900873 47.8419071,25.8056714 C48.2102697,25.4031857 56.9660963,15.9486714 68.1582593,17.5397714 C68.503737,17.5889498 68.819404,17.761784 69.0462364,18.0259571 C71.0467157,20.7128646 72.1948965,23.9342222 72.3432426,27.2761 C72.3705759,27.6539916 72.2460172,28.0272123 71.996989,28.3135948 C71.7479608,28.5999774 71.3948797,28.7760427 71.0154792,28.8030286 C70.9803984,28.8051143 70.9454467,28.8065143 70.9118288,28.8065143 Z" id="Shape" fill="#662059"></path>
            <path d="M82.3477072,21.7250286 C81.9390182,21.7253345 81.5495847,21.552063 81.2770875,21.2486756 C81.0045902,20.9452881 80.8748814,20.5405673 80.9204957,20.1360286 C81.2278683,17.6043523 81.3010051,15.0498958 81.1389833,12.5048857 C81.101704,11.9960017 81.3398146,11.5059634 81.7636211,11.2193636 C82.1874276,10.9327638 82.7325437,10.8931437 83.1936295,11.1154279 C83.6547152,11.3377121 83.9617207,11.7881303 83.9989999,12.2970143 C84.1745021,15.0181604 84.0985567,17.7496145 83.7721221,20.4569143 C83.6893339,21.1784939 83.0768493,21.7237707 82.3477072,21.7250286 Z" id="Shape" fill="#662059"></path>
            <path d="M62.2981612,8.33148571 C61.7218282,8.33188548 61.2013202,7.98838054 60.9769864,7.45958727 C60.7526526,6.930794 60.8681391,6.31959405 61.2701191,5.90821429 C66.1530133,1.52513123 72.775846,-0.401155384 79.2594217,0.675928571 C79.5374192,0.715162216 79.7975994,0.835278601 80.0073338,1.02121429 C80.9362915,1.95923419 81.6677151,3.07268831 82.1586496,4.29618571 C82.4799708,5.01619207 82.1554718,5.85939828 81.4333059,6.18098132 C80.7111401,6.50256436 79.8639196,6.181129 79.5395374,5.46248571 C79.2290038,4.74062236 78.8285616,4.06052426 78.3476367,3.4382 C72.92265,2.65406283 67.4261888,4.28850637 63.3206386,7.90667143 C63.0506175,8.17885896 62.6823269,8.33187467 62.2981612,8.33148571 Z" id="Shape" fill="#662059"></path>
            <path d="M64.1455534,20.2825143 C64.0828101,20.2823428 64.0201349,20.2783832 63.9578726,20.2706571 C63.580615,20.2213464 63.2384905,20.0247356 63.006805,19.7241014 C62.7751194,19.4234672 62.6728631,19.0434513 62.7225441,18.6677 C63.4659183,14.340518 62.5673332,9.89260124 60.2014745,6.18862857 C57.6112637,6.4431163 55.0898369,7.16843854 52.7622245,8.32862857 C52.0556066,8.68536507 51.192446,8.40398243 50.8343013,7.70014286 C50.4761566,6.99630328 50.75865,6.1365365 51.4652679,5.7798 C54.3628254,4.3375705 57.5198336,3.48484714 60.7519245,3.27142857 C61.1939466,3.23925967 61.6261027,3.41226812 61.9228283,3.74018571 C62.1245213,3.9627 66.8487247,9.31705714 65.565723,19.0401857 C65.4722079,19.750504 64.8647807,20.281866 64.1455534,20.2825143 Z" id="Shape" fill="#662059"></path>
            <path d="M43.3852126,16.7648 C42.8929838,16.7643788 42.4354069,16.5123934 42.1732876,16.0973987 C41.9111683,15.6824041 41.8811809,15.1624638 42.0938638,14.7203 C43.009014,13.0053991 44.18044,11.4389519 45.568038,10.0745857 C46.1238177,9.51251763 47.031811,9.5056484 47.5960978,10.0592429 C48.1603845,10.6128373 48.1672809,11.5172605 47.6115012,12.0793286 C46.449022,13.2237587 45.4607258,14.5312942 44.6779526,15.9604714 C44.4368498,16.4527021 43.9350656,16.7649067 43.3852126,16.7648 Z" id="Shape" fill="#662059"></path>
            <path d="M80.4400925,41.6043571 C79.8499733,41.604194 79.3202022,41.2439688 79.1050996,40.69661 C78.889997,40.1492512 79.0334843,39.5265235 79.4666795,39.1273714 C79.7425929,38.8699714 86.0802975,32.8285429 83.2608978,22.0835714 C78.9474065,21.1751042 74.4487714,21.905838 70.6485221,24.1322571 C70.1965556,24.3737168 69.6495217,24.3562957 69.2139634,24.0865714 C68.7784051,23.8168471 68.5206784,23.3359113 68.5380927,22.8253504 C68.5555071,22.3147895 68.8454096,21.8523858 69.298342,21.6127286 C77.9806366,16.9894 84.6754883,19.5089286 84.9556183,19.6191429 C85.3687535,19.7798746 85.6837734,20.122252 85.8085863,20.5461857 C89.6406247,33.5100571 81.7482646,40.9186714 81.4107088,41.2276857 C81.1463023,41.4704585 80.7996968,41.6049672 80.4400925,41.6043571 Z" id="Shape" fill="#662059"></path>
            <ellipse id="Oval" fill="#FB5956" transform="translate(35.349010, 52.024937) rotate(-33.499510) translate(-35.349010, -52.024937) " cx="35.3490103" cy="52.0249369" rx="9.66267789" ry="9.62468571"></ellipse>
            <path d="M35.3724075,63.0817571 C34.6216006,63.0813496 33.872731,63.0058712 33.1370613,62.8564571 C28.2152656,61.859109 24.5796303,57.6933066 24.2729839,52.6997741 C23.9663375,47.7062417 27.0651432,43.1301316 31.828212,41.542716 C36.5912807,39.9553005 41.8309269,41.7524063 44.6030438,45.9242571 C45.0379444,46.5821974 44.8560749,47.4666329 44.196502,47.9012792 C43.5369292,48.3359255 42.648602,48.1567298 42.2107807,47.5007143 C40.006463,44.1832355 35.728859,42.9213412 32.0663448,44.5081029 C28.4038305,46.0948646 26.4139969,50.0720878 27.3474087,53.9401787 C28.2808204,57.8082696 31.8679449,60.450275 35.8543564,60.205755 C39.840768,59.961235 43.075347,56.9007974 43.5252346,52.9478571 C43.5830301,52.4407186 43.9080585,52.0028156 44.3778847,51.7991019 C44.847711,51.5953883 45.3909573,51.6568128 45.802988,51.9602377 C46.2150188,52.2636625 46.4332367,52.7629901 46.3754412,53.2701286 C45.7383476,58.8477376 41.0081364,63.0657629 35.3724075,63.0817571 Z" id="Shape" fill="#662059"></path>
            <ellipse id="Oval" fill="#FB5956" transform="translate(19.233798, 61.219514) rotate(-59.445220) translate(-19.233798, -61.219514) " cx="19.2337979" cy="61.2195135" rx="9.66267789" ry="9.62468571"></ellipse>
            <path d="M19.2151224,72.2705143 C17.2369176,72.2712144 15.2949066,71.7421441 13.5924291,70.7387 C13.1510912,70.4792665 12.8822307,70.0050149 12.8871247,69.4945911 C12.8920187,68.9841674 13.1699236,68.5151171 13.6161555,68.2641268 C14.0623873,68.0131366 14.6091527,68.0183379 15.0504905,68.2777714 C18.4892543,70.2994082 22.8889099,69.5696473 25.4843921,66.547124 C28.0798743,63.5246006 28.1217155,59.0820939 25.5836198,56.0116 C23.045524,52.9411061 18.6603879,52.129256 15.1841516,54.0862757 C11.7079153,56.0432955 10.1443714,60.204079 11.4761654,63.9536857 C11.6530068,64.4364582 11.5558931,64.9766385 11.2218487,65.3682848 C10.8878043,65.759931 10.3683124,65.9426822 9.86142753,65.8468651 C9.35454269,65.751048 8.93838653,65.39143 8.77161724,64.9051143 C7.15704426,60.3633845 8.68125842,55.3031398 12.5392643,52.3968876 C16.3972702,49.4906355 21.7005638,49.4076897 25.6482743,52.1918572 C29.5959848,54.9760246 31.278949,59.9861077 29.8083297,64.5760912 C28.3377104,69.1660746 24.0521931,72.2788791 19.2151224,72.2705143 Z" id="Shape" fill="#662059"></path>
            <path d="M22.1136618,65.5469143 C21.5989907,65.5465517 21.1239792,65.2715089 20.868974,64.8262109 C20.6139687,64.3809129 20.6180769,63.8336499 20.8797388,63.3922 C21.8867607,61.689522 21.3196573,59.496192 19.6121979,58.4898571 C18.9311175,58.0882953 18.7052715,57.2131391 19.1075152,56.5342049 C19.5097588,55.8552706 20.3880694,55.6291526 21.0702163,56.0289143 C24.1401315,57.8388606 25.1601138,61.7823143 23.3503816,64.8444857 C23.0921674,65.2803104 22.6217168,65.5475156 22.1136618,65.5469143 Z" id="Shape" fill="#662059"></path>
            <ellipse id="Oval" fill="#FB5956" transform="translate(36.793986, 70.208011) rotate(-78.499510) translate(-36.793986, -70.208011) " cx="36.7939857" cy="70.2080114" rx="9.66267789" ry="9.62468571"></ellipse>
            <path d="M36.8171164,81.2646571 C36.0660202,81.2646715 35.3168516,81.1889522 34.5810675,81.0386571 C34.0791775,80.9367318 33.6700031,80.5758466 33.5076765,80.0919434 C33.3453498,79.6080403 33.4545321,79.0746355 33.7940955,78.6926577 C34.1336589,78.3106798 34.6520155,78.1381604 35.1539055,78.2400857 C39.06826,79.0339021 42.9896891,76.9133068 44.4535083,73.2111299 C45.9173275,69.508953 44.5008075,65.2943282 41.0942551,63.2162185 C37.6877027,61.1381087 33.2748797,61.7966414 30.6293199,64.7779175 C27.9837602,67.7591935 27.8694622,72.2022647 30.3582641,75.3145857 C30.8483779,75.9323198 30.7445806,76.8285438 30.1261324,77.318896 C29.5076842,77.8092482 28.6075637,77.7090057 28.1131079,77.0947143 C24.8946359,73.0642296 24.8994122,67.3532002 28.1246214,63.3280622 C31.3498305,59.3029242 36.9395924,58.0318366 41.5989534,60.2640574 C46.2583144,62.4962782 48.7508107,67.6394387 47.6072099,72.6618399 C46.463609,77.6842411 41.9873907,81.2530784 36.8171164,81.2646571 Z" id="Shape" fill="#662059"></path>
            <path d="M41.0931434,73.0503714 C40.9964634,73.0501888 40.9000443,73.0403733 40.8053261,73.0210714 C40.4326991,72.9456864 40.1054208,72.7258952 39.8955365,72.4100814 C39.6856522,72.0942677 39.6103673,71.7083204 39.6862546,71.3372 C40.0803665,69.4001834 38.8254918,67.5110731 36.8815555,67.1149571 C36.3794093,67.0131543 35.9699326,66.6522462 35.8073714,66.1681832 C35.6448101,65.6841203 35.7538612,65.1504433 36.0934462,64.7681832 C36.4330311,64.3859231 36.9515589,64.2131543 37.4537051,64.3149571 C40.9485919,65.0276118 43.2048232,68.4236398 42.4972499,71.9063857 C42.3611198,72.5713237 41.7744439,73.0493137 41.0931434,73.0503714 Z" id="Shape" fill="#FFFFFF"></path>
            <path d="M53.9625153,71.506 C53.1922674,71.5046464 52.5606323,70.8975203 52.5318376,70.130836 C52.5030429,69.3641517 53.0873719,68.7117155 53.8553654,68.6530429 C53.9148851,68.6488571 59.8163029,68.1570857 63.3458089,64.6973286 C63.710529,64.3378648 64.2403056,64.1999557 64.7349587,64.3357113 C65.2296117,64.471467 65.6137139,64.8601865 65.7421292,65.3549893 C65.8705445,65.8497922 65.7236915,66.3752281 65.3570597,66.7327571 C61.0684404,70.9396429 54.353983,71.4809429 54.0703536,71.5018714 C54.0339533,71.5046143 53.9982271,71.506 53.9625153,71.506 Z" id="Shape" fill="#FFFFFF"></path>
            <path d="M33.3660474,31.5911 C33.2489398,31.5913168 33.13226,31.5770213 33.0186959,31.5485429 C32.2518066,31.3592416 31.7838707,30.5868905 31.9731564,29.8228286 C33.0743025,26.1021596 35.2690382,22.7952978 38.2744321,20.3285429 C38.8884737,19.8337086 39.788629,19.9266225 40.2877551,20.5363578 C40.7868812,21.1460931 40.6970347,22.0430571 40.0868009,22.5425429 C37.5719155,24.627459 35.720058,27.3958993 34.75683,30.5106 C34.5956444,31.1450501 34.0230788,31.5898767 33.3660474,31.5911 Z" id="Shape" fill="#662059"></path>
            <path d="M69.9762359,11.2876714 C69.3867085,11.288486 68.8568813,10.9294618 68.6411476,10.3829823 C68.4254139,9.83650282 68.5678342,9.21417835 69.0000262,8.81481429 C71.0177509,7.13948601 73.6025642,6.29665791 76.2243024,6.4592 C76.7370643,6.48361426 77.1976082,6.77918976 77.4318352,7.23419042 C77.6660623,7.68919108 77.6382368,8.23419823 77.3588777,8.66318342 C77.0795185,9.0921686 76.591247,9.33968228 76.0786439,9.31215714 C74.2253491,9.20459177 72.3967084,9.77707822 70.9384334,10.9213857 C70.6740596,11.1575524 70.3313546,11.288012 69.9762359,11.2876714 Z" id="Shape" fill="#FFFFFF"></path>
        </g>
    </g>
</svg>