<?xml version="1.0" encoding="UTF-8"?>
<svg width="300px" height="200px" viewBox="0 0 300 200" version="1.1" xmlns="http://www.w3.org/2000/svg" xmlns:xlink="http://www.w3.org/1999/xlink">
    <!-- Generator: Sketch 51.3 (57544) - http://www.bohemiancoding.com/sketch -->
    <title>red-christmas-ornament</title>
    <desc>Created with Sketch.</desc>
    <defs></defs>
    <g id="red-christmas-ornament" stroke="none" stroke-width="1" fill="none" fill-rule="evenodd">
        <g id="Ornament1" transform="translate(108.000000, 40.000000)" fill-rule="nonzero">
            <path d="M80.9731707,80.8137931 C80.9731707,60.5887447 64.544205,44.1931034 44.2780488,44.1931034 C24.0118925,44.1931034 7.58292683,60.5887447 7.58292683,80.8137931 C7.58292683,101.038842 24.0118925,117.434483 44.2780488,117.434483 C64.544205,117.434483 80.9731707,101.038842 80.9731707,80.8137931" id="Shape" fill="#FB5956"></path>
            <path d="M62.7914634,114.827586 C79.9941212,105.524511 87.5608348,84.8918035 80.4398093,66.7045598 C73.3187839,48.5173162 53.7397007,38.4701876 34.7742204,43.2709782 C15.8087401,48.0717688 3.39518946,66.2172916 5.82127633,85.5929796 C8.24736321,104.968668 24.7534497,119.507753 44.3195122,119.503448 C45.4644928,119.503448 46.3926829,118.577141 46.3926829,117.434483 C46.3926829,116.291825 45.4644928,115.365517 44.3195122,115.365517 C26.8755309,115.284633 12.2197346,102.257587 10.1285758,84.9743404 C8.03741695,67.6910942 19.1649177,51.5570821 36.0882479,47.3348313 C53.0115781,43.1125806 70.4378692,52.1226243 76.7425525,68.3546261 C83.0472358,84.5866279 76.2584855,102.963936 60.904878,111.227586 C60.2530861,111.597171 59.8483776,112.285703 59.8432023,113.033819 C59.838027,113.781935 60.2331711,114.475978 60.8797877,114.854509 C61.5264043,115.23304 62.3262569,115.238551 62.9780488,114.868966" id="Shape" fill="#662059"></path>
            <path d="M70.8560976,80.8137931 C70.8461146,71.2113448 65.6364278,62.3641368 57.2353659,57.6827586 C56.5872773,57.3131734 55.7908467,57.3167124 55.1460818,57.6920425 C54.5013168,58.0673726 54.1061726,58.7574722 54.1094963,59.5023875 C54.11282,60.2473027 54.5141065,60.9338633 55.1621951,61.3034483 C62.2577722,65.2623238 66.6518747,72.7424756 66.647561,80.8551724 C66.647561,81.9978305 67.5757511,82.9241379 68.7207317,82.9241379 C69.8657123,82.9241379 70.7939024,81.9978305 70.7939024,80.8551724 L70.8560976,80.8137931 Z" id="Shape" fill="#FFFFFF"></path>
            <path d="M57.8365854,34.1793103 L29.3304878,34.1793103 C27.0405266,34.1793103 25.1841463,36.0319252 25.1841463,38.3172414 L25.1841463,49.0344828 L61.858537,49.0344828 L61.8585366,38.3172414 C61.8595458,36.0795392 60.0778267,34.2464412 57.8365854,34.1793103 Z" id="Shape" fill="#F4C95E"></path>
            <path d="M57.8365854,34.1793103 L57.8365854,32.1103448 L29.3304878,32.1103448 C25.8955461,32.1103448 23.1109756,34.8892671 23.1109756,38.3172414 L23.1109756,49.0344828 C23.1109756,50.1771409 24.0391658,51.1034483 25.1841463,51.1034483 L61.8585366,51.1034483 C63.0035172,51.1034483 63.9317073,50.1771409 63.9317073,49.0344828 L63.9317073,38.3172414 C63.9317073,34.8892671 61.1471369,32.1103448 57.7121951,32.1103448 L57.7121951,36.2482759 C58.8571757,36.2482759 59.7853659,37.1745833 59.7853659,38.3172414 L59.7853659,46.9655172 L27.3195122,46.9655172 L27.3195122,38.3172414 C27.3195122,37.1745833 28.2477023,36.2482759 29.3926829,36.2482759 L57.8987805,36.2482759 L57.8987805,34.1793103 L57.8365854,34.1793103 Z" id="Shape" fill="#662059"></path>
            <path d="M56.3853659,33.2482759 C56.574403,28.5612655 54.1765756,24.1472494 50.1378418,21.7475848 C46.0991079,19.3479202 41.0679653,19.3479202 37.0292314,21.7475848 C32.9904975,24.1472494 30.5926702,28.5612655 30.7817073,33.2482759 C30.7817073,34.390934 31.7098975,35.3172414 32.854878,35.3172414 C33.9998586,35.3172414 34.9280488,34.390934 34.9280488,33.2482759 C35.1540164,28.6418658 38.962236,25.0228745 43.5835366,25.0228745 C48.2048371,25.0228745 52.0130568,28.6418658 52.2390244,33.2482759 C52.2390244,34.390934 53.1672145,35.3172414 54.3121951,35.3172414 C55.4571757,35.3172414 56.3853659,34.390934 56.3853659,33.2482759 Z" id="Shape" fill="#662059"></path>
            <path d="M45.604878,21.1034483 L40.8780488,1.59310345 C40.5545159,0.549250205 39.4734041,-0.063585999 38.4093179,0.193685151 C37.3452318,0.450956301 36.6650423,1.489634 36.8560976,2.56551724 L41.5829268,22.0758621 C41.9064598,23.1197153 42.9875716,23.7325515 44.0516577,23.4752804 C45.1157438,23.2180092 45.7959333,22.1793315 45.604878,21.1034483" id="Shape" fill="#662059"></path>
            <path d="M45.4182927,22.5103448 L52.3219512,9.33103448 C52.6873726,8.67481869 52.6679276,7.8725459 52.2711423,7.23472914 C51.8743569,6.59691238 51.1624985,6.22364375 50.4110859,6.25939378 C49.6596733,6.29514382 48.9866251,6.73430229 48.652439,7.40689655 L41.7487805,20.5862069 C41.3833591,21.2424227 41.4028041,22.0446955 41.7995894,22.6825122 C42.1963748,23.320329 42.9082332,23.6935976 43.6596458,23.6578476 C44.4110584,23.6220976 45.0841066,23.1829391 45.4182927,22.5103448" id="Shape" fill="#662059"></path>
            <path d="M66.295122,94.6758621 C67.4328796,94.6821325 68.416531,93.8852124 68.6442112,92.7727119 C68.8718914,91.6602113 68.2801461,90.5421831 67.2310454,90.1027131 C66.1819448,89.6632431 64.9678721,90.0248111 64.3316798,90.9661853 C63.6954874,91.9075594 63.8144816,93.1663796 64.6158537,93.9724138 C65.061557,94.4175295 65.664604,94.6701469 66.295122,94.6758621" id="Shape" fill="#FFFFFF"></path>
            <polyline id="Shape" fill="#FFFFFF" points="34.845122 79.2206897 38.8670732 66.8275862 42.9097561 79.2206897 55.95 79.2206897 45.397561 86.8758621 49.4195122 99.2482759 38.8670732 90.537931 28.3146341 99.2482759 32.3573171 86.8758621 21.7841463 79.2206897"></polyline>
            <path d="M36.8146341,79.862069 L38.8878049,73.5310345 L40.9609756,79.862069 C41.2499646,80.7503555 42.0994344,81.3353007 43.0341463,81.2896552 L49.7097561,81.2896552 L44.1329268,85.2 C43.407036,85.7292333 43.105631,86.6650357 43.3865854,87.5172414 L45.2109756,93.1241379 L40.152439,88.9862069 C39.3874352,88.3586542 38.2845161,88.3586542 37.5195122,88.9862069 L32.4609756,93.1241379 L34.2853659,87.5172414 C34.5663202,86.6650357 34.2649152,85.7292333 33.5390244,85.2 L22.9865854,77.5448276 C22.0591511,76.8706593 20.7596849,77.0744469 20.0841463,78 C19.4086078,78.9255531 19.6128096,80.2223834 20.5402439,80.8965517 L29.8695122,87.662069 L26.3036585,98.6068966 C26.0158345,99.4834794 26.3442635,100.444329 27.1088762,100.962635 C27.8734889,101.480941 28.8895588,101.431484 29.6,100.841379 L38.8256098,93.2275862 L48.0512195,100.841379 C48.7616607,101.431484 49.7777306,101.480941 50.5423433,100.962635 C51.306956,100.444329 51.635385,99.4834794 51.347561,98.6068966 L47.7817073,87.662069 L57.1109756,80.8965517 C57.8401137,80.3697477 58.145296,79.4335745 57.8663197,78.579468 C57.5873435,77.7253615 56.7879625,77.148509 55.8878049,77.1517241 L44.3402439,77.1517241 L40.7743902,66.2068966 C40.4947535,65.3578458 39.7004322,64.7839653 38.804878,64.7839653 C37.9093239,64.7839653 37.1150026,65.3578458 36.8353659,66.2068966 L32.8134146,78.6206897 C32.551063,79.331657 32.6990911,80.1288698 33.1992861,80.6988198 C33.699481,81.2687699 34.4718328,81.5202892 35.21261,81.3544666 C35.9533872,81.188644 36.5440967,80.632004 36.752439,79.9034483 L36.8146341,79.862069 Z" id="Shape" fill="#662059"></path>
            <path d="M6.0902439,87.4965517 C1.45623026,90.2104897 -0.331682376,96.0082648 1.97145457,100.852805 C4.27459151,105.697346 9.90523226,107.982568 14.9426829,106.117241 C10.3529421,100.827312 7.29272436,94.3902879 6.0902439,87.4965517" id="Shape" fill="#F7DCDC"></path>
            <path d="M11.4390244,86.0275862 C10.976537,85.9965928 10.5124873,85.9965928 10.05,86.0275862 C11.0779799,92.6567009 14.0252642,98.8413542 18.5292683,103.82069 C21.6360288,100.917952 22.6492928,96.415068 21.084505,92.4653724 C19.5197173,88.5156768 15.6948592,85.9217891 11.4390244,85.9241379" id="Shape" fill="#FF9994"></path>
            <path d="M10.05,86.1103448 C8.64203021,86.2954233 7.28718442,86.767249 6.0695122,87.4965517 C7.27199266,94.3902879 10.3322104,100.827312 14.9219512,106.117241 C16.2551003,105.638504 17.4757556,104.892105 18.5085366,103.924138 C14.0045325,98.9448025 11.0572482,92.7601492 10.0292683,86.1310345" id="Shape" fill="#C53799"></path>
        </g>
    </g>
</svg>