<?xml version="1.0" encoding="UTF-8"?>
<svg width="300px" height="200px" viewBox="0 0 300 200" version="1.1" xmlns="http://www.w3.org/2000/svg" xmlns:xlink="http://www.w3.org/1999/xlink">
    <!-- Generator: Sketch 51.3 (57544) - http://www.bohemiancoding.com/sketch -->
    <title>red-and-yellow-christmas-present</title>
    <desc>Created with Sketch.</desc>
    <defs></defs>
    <g id="red-and-yellow-christmas-present" stroke="none" stroke-width="1" fill="none" fill-rule="evenodd">
        <g id="Singlepresent" transform="translate(77.000000, 40.000000)" fill-rule="nonzero">
            <path d="M54.6721216,35.882248 L48.2802134,35.882248" id="Shape" fill="#FFFFFF"></path>
            <path d="M54.6934279,33.7413024 L48.3015197,33.7413024 C47.1248019,33.7413024 46.1708837,34.6998364 46.1708837,35.882248 C46.1708837,37.0646596 47.1248019,38.0231936 48.3015197,38.0231936 L54.6934279,38.0231936 C55.8701457,38.0231936 56.824064,37.0646596 56.824064,35.882248 C56.824064,34.6998364 55.8701457,33.7413024 54.6934279,33.7413024" id="Shape" fill="#662059"></path>
            <polygon id="Shape" fill="#FB5956" points="2.13063607 40.0999108 2.13063607 56.3068689 3.66469404 56.3068689 12.464221 56.3068689 12.464221 56.3068689 12.464221 56.3068689 12.464221 56.3068689 12.464221 116.938448 56.4192432 116.938448 132.696014 116.938448 132.696014 99.5111508 132.696014 101.780553 132.696014 56.3068689 142.901761 56.3068689 143.029599 56.3068689 143.029599 40.0999108"></polygon>
            <path d="M53.7772544,40.0570919 L91.4042874,40.0570919 C101.783588,40.0569849 110.201988,31.6104703 110.21759,21.1809591 C110.233191,10.7514479 101.840101,2.27954051 91.4608471,2.24807888 C81.0815937,2.21661725 72.6377893,10.6374886 72.5907709,21.0669045 C72.5437526,10.6374886 64.0999481,2.21661725 53.7206947,2.24807888 C43.3414413,2.27954051 34.9483504,10.7514479 34.9639522,21.1809591 C34.979554,31.6104703 43.3979538,40.0569849 53.7772544,40.0570919 Z" id="Shape" fill="#FB5956"></path>
            <rect id="Rectangle-path" fill="#F4C95E" x="13.3164754" y="79.043711" width="67.690308" height="11.8180196"></rect>
            <rect id="Rectangle-path" fill="#F4C95E" x="41.2917271" y="41.3844781" width="11.7611111" height="75.4469224"></rect>
            <rect id="Rectangle-path" fill="#C93E4F" x="81.0067834" y="55.985727" width="51.6892311" height="60.9527208"></rect>
            <rect id="Rectangle-path" fill="#C93E4F" x="91.4042874" y="39.6503122" width="51.6892311" height="16.6565566"></rect>
            <rect id="Rectangle-path" fill="#CEA045" x="81.2411534" y="79.043711" width="52.5840982" height="11.8180196"></rect>
            <path d="M143.050906,56.3068689 L143.050906,54.1659233 L132.717321,54.1659233 C131.540603,54.1659233 130.586685,55.1244573 130.586685,56.3068689 L130.586685,114.818912 L14.5948571,114.818912 L14.5948571,56.3068689 C14.5948571,55.1244573 13.6409388,54.1659233 12.464221,54.1659233 L4.26127214,54.1659233 L4.26127214,42.2408564 L140.898963,42.2408564 L140.898963,56.3068689 L143.029599,56.3068689 L145.160236,56.3068689 L145.160236,40.0999108 C145.160236,38.9174992 144.206317,37.9589652 143.029599,37.9589652 L2.13063607,37.9589652 C0.953918261,37.9589652 0,38.9174992 0,40.0999108 L0,56.3068689 C0,57.4892805 0.953918261,58.4478145 2.13063607,58.4478145 L10.3335849,58.4478145 L10.3335849,116.959857 C10.3335849,118.142269 11.2875032,119.100803 12.464221,119.100803 L132.696014,119.100803 C133.872732,119.100803 134.826651,118.142269 134.826651,116.959857 L134.826651,58.4478145 L143.029599,58.4478145 C144.206317,58.4478145 145.160236,57.4892805 145.160236,56.3068689 L143.029599,56.3068689 L143.050906,56.3068689 Z" id="Shape" fill="#662059"></path>
            <path d="M34.9637379,21.0669045 L37.094374,21.0669045 C37.094374,11.8086217 44.563554,4.30330062 53.7772544,4.30330062 C62.9909549,4.30330062 70.4601349,11.8086217 70.4601349,21.0669045 C70.4601349,25.7555754 70.4601349,39.9714541 70.4601349,39.9714541 L72.5907709,39.9714541 L72.5907709,37.8305085 L53.7772544,37.8305085 C44.563554,37.8305085 37.094374,30.3251873 37.094374,21.0669045 L32.8331019,21.0669045 C32.8331019,32.6900105 42.2101184,42.1123996 53.7772544,42.1123996 L72.5907709,42.1123996 C73.7674887,42.1123996 74.721407,41.1538657 74.721407,39.9714541 L74.721407,21.0669045 C74.721407,9.44379856 65.3443905,0.0214094558 53.7772544,0.0214094558 C42.2101184,0.0214094558 32.8331019,9.44379856 32.8331019,21.0669045 L34.9637379,21.0669045 Z" id="Shape" fill="#662059"></path>
            <path d="M110.217804,21.0669045 L112.34844,21.0669045 C112.34844,9.44379856 102.971424,0.0214094558 91.4042874,0.0214094558 C79.8371514,0.0214094558 70.4601349,9.44379856 70.4601349,21.0669045 C70.4601349,25.7555754 70.4601349,39.9714541 70.4601349,39.9714541 C70.4601349,41.1538657 71.4140531,42.1123996 72.5907709,42.1123996 L91.4042874,42.1123996 C102.971424,42.1123996 112.34844,32.6900105 112.34844,21.0669045 L108.087168,21.0669045 C108.087168,30.3251873 100.617988,37.8305085 91.4042874,37.8305085 L72.5907709,37.8305085 L72.5907709,39.9714541 L74.721407,39.9714541 L74.721407,21.0669045 C74.721407,11.8086217 82.190587,4.30330062 91.4042874,4.30330062 C100.617988,4.30330062 108.087168,11.8086217 108.087168,21.0669045 L110.217804,21.0669045 Z" id="Shape" fill="#662059"></path>
            <path d="M100.012057,21.0669045 C100.012057,16.2899617 96.1582274,12.4174844 91.4042874,12.4174844 C86.6503475,12.4174844 82.7965177,16.2899617 82.7965177,21.0669045 L82.7965177,29.6306869 L91.319062,29.6306869 C93.6087681,29.6767118 95.8205586,28.7948181 97.4559027,27.1837818 C99.0912467,25.5727456 100.012515,23.3681501 100.012057,21.0669045 Z" id="Shape" fill="#FFFFFF"></path>
            <path d="M100.012057,21.0669045 L102.142693,21.0669045 C102.142693,15.1075501 97.3349452,10.2765388 91.4042874,10.2765388 C85.4736297,10.2765388 80.6658816,15.1075501 80.6658816,21.0669045 C80.6658816,23.2078501 80.6658816,29.6306869 80.6658816,29.6306869 C80.6658816,30.8130985 81.6197999,31.7716325 82.7965177,31.7716325 L91.319062,31.7716325 C97.202651,31.7716325 101.972242,26.9789625 101.972242,21.0669045 L97.7109702,21.0669045 C97.7109702,24.6141393 94.8492154,27.4897413 91.319062,27.4897413 L82.7965177,27.4897413 L82.7965177,29.6306869 L84.9271538,29.6306869 L84.9271538,21.0669045 C84.9271538,17.4723733 87.8270653,14.55843 91.4042874,14.55843 C94.9815096,14.55843 97.8814211,17.4723733 97.8814211,21.0669045 L100.012057,21.0669045 Z" id="Shape" fill="#662059"></path>
            <path d="M13.3377818,81.206066 L40.9082126,81.206066 C42.0849304,81.206066 43.0388486,80.247532 43.0388486,79.0651204 C43.0388486,77.8827088 42.0849304,76.9241748 40.9082126,76.9241748 L13.3377818,76.9241748 C12.161064,76.9241748 11.2071457,77.8827088 11.2071457,79.0651204 C11.2071457,80.247532 12.161064,81.206066 13.3377818,81.206066" id="Shape" fill="#662059"></path>
            <path d="M13.2738627,92.9598573 L40.9721316,92.9598573 C42.1488495,92.9598573 43.1027677,92.0013233 43.1027677,90.8189117 C43.1027677,89.6365001 42.1488495,88.6779661 40.9721316,88.6779661 L13.2738627,88.6779661 C12.0971449,88.6779661 11.1432267,89.6365001 11.1432267,90.8189117 C11.1432267,92.0013233 12.0971449,92.9598573 13.2738627,92.9598573" id="Shape" fill="#662059"></path>
            <path d="M53.9690117,81.206066 L132.802546,81.206066 C133.979264,81.206066 134.933182,80.247532 134.933182,79.0651204 C134.933182,77.8827088 133.979264,76.9241748 132.802546,76.9241748 L53.9690117,76.9241748 C52.7922939,76.9241748 51.8383756,77.8827088 51.8383756,79.0651204 C51.8383756,80.247532 52.7922939,81.206066 53.9690117,81.206066" id="Shape" fill="#662059"></path>
            <path d="M53.7772544,92.9598573 L132.610789,92.9598573 C133.787507,92.9598573 134.741425,92.0013233 134.741425,90.8189117 C134.741425,89.6365001 133.787507,88.6779661 132.610789,88.6779661 L53.7772544,88.6779661 C52.6005366,88.6779661 51.6466184,89.6365001 51.6466184,90.8189117 C51.6466184,92.0013233 52.6005366,92.9598573 53.7772544,92.9598573" id="Shape" fill="#662059"></path>
            <path d="M43.0388486,115.26851 L43.0388486,40.3354148 C43.0388486,39.1530032 42.0849304,38.1944692 40.9082126,38.1944692 C39.7314948,38.1944692 38.7775765,39.1530032 38.7775765,40.3354148 L38.7775765,115.26851 C38.7775765,116.450922 39.7314948,117.409456 40.9082126,117.409456 C42.0849304,117.409456 43.0388486,116.450922 43.0388486,115.26851" id="Shape" fill="#662059"></path>
            <path d="M54.7360407,115.568243 L54.7360407,40.3354148 C54.7360407,39.1530032 53.7821224,38.1944692 52.6054046,38.1944692 C51.4286868,38.1944692 50.4747685,39.1530032 50.4747685,40.3354148 L50.4747685,115.65388 C50.4747685,116.836292 51.4286868,117.794826 52.6054046,117.794826 C53.7821224,117.794826 54.7360407,116.836292 54.7360407,115.65388" id="Shape" fill="#662059"></path>
            <path d="M56.4405495,119.100803 L132.717321,119.100803 C133.894039,119.100803 134.847957,118.142269 134.847957,116.959857 L134.847957,101.780553 C134.847957,100.598141 133.894039,99.6396075 132.717321,99.6396075 C131.540603,99.6396075 130.586685,100.598141 130.586685,101.780553 L130.586685,114.818912 L56.4405495,114.818912 C55.2638317,114.818912 54.3099134,115.777446 54.3099134,116.959857 C54.3099134,118.142269 55.2638317,119.100803 56.4405495,119.100803 Z" id="Shape" fill="#662059"></path>
            <path d="M10.3335849,56.3068689 L10.3335849,116.959857 C10.3335849,118.142269 11.2875032,119.100803 12.464221,119.100803 L56.4405495,119.100803 C57.6172673,119.100803 58.5711856,118.142269 58.5711856,116.959857 C58.5711856,115.777446 57.6172673,114.818912 56.4405495,114.818912 L14.5948571,114.818912 L14.5948571,56.3068689 C14.5948571,55.1244573 13.6409388,54.1659233 12.464221,54.1659233 C11.2875032,54.1659233 10.3335849,55.1244573 10.3335849,56.3068689 Z" id="Shape" fill="#662059"></path>
            <path d="M134.847957,99.5325602 L134.847957,56.3068689 C134.847957,55.1244573 133.894039,54.1659233 132.717321,54.1659233 C131.540603,54.1659233 130.586685,55.1244573 130.586685,56.3068689 L130.586685,99.5325602 C130.586685,100.714972 131.540603,101.673506 132.717321,101.673506 C133.894039,101.673506 134.847957,100.714972 134.847957,99.5325602" id="Shape" fill="#662059"></path>
            <path d="M3.6860004,58.4478145 L100.459491,58.4478145 C101.636209,58.4478145 102.590127,57.4892805 102.590127,56.3068689 C102.590127,55.1244573 101.636209,54.1659233 100.459491,54.1659233 L3.6860004,54.1659233 C2.50928259,54.1659233 1.55536433,55.1244573 1.55536433,56.3068689 C1.55536433,57.4892805 2.50928259,58.4478145 3.6860004,58.4478145" id="Shape" fill="#662059"></path>
            <path d="M115.203492,58.4478145 L142.901761,58.4478145 C144.078479,58.4478145 145.032397,57.4892805 145.032397,56.3068689 C145.032397,55.1244573 144.078479,54.1659233 142.901761,54.1659233 L115.203492,54.1659233 C114.026775,54.1659233 113.072856,55.1244573 113.072856,56.3068689 C113.072856,57.4892805 114.026775,58.4478145 115.203492,58.4478145" id="Shape" fill="#662059"></path>
            <path d="M62.4702496,29.8019625 L53.9477053,29.8019625 C49.2408341,29.8019625 45.425161,25.9678266 45.425161,21.2381802 C45.425161,16.5085338 49.2408341,12.6743979 53.9477053,12.6743979 C58.6545766,12.6743979 62.4702496,16.5085338 62.4702496,21.2381802" id="Shape" fill="#FFFFFF"></path>
            <path d="M62.4702496,27.6610169 L53.9477053,27.6610169 C50.4175519,27.6610169 47.5557971,24.785415 47.5557971,21.2381802 C47.5557971,17.6909454 50.4175519,14.8153434 53.9477053,14.8153434 C57.4778587,14.8153434 60.3396135,17.6909454 60.3396135,21.2381802 C60.3396135,22.4205918 61.2935318,23.3791258 62.4702496,23.3791258 C63.6469674,23.3791258 64.6008857,22.4205918 64.6008857,21.2381802 C64.6008857,15.3261222 59.8312944,10.5334523 53.9477053,10.5334523 C48.0641163,10.5334523 43.294525,15.3261222 43.294525,21.2381802 C43.294525,27.1502382 48.0641163,31.9429081 53.9477053,31.9429081 L62.4702496,31.9429081 C63.6469674,31.9429081 64.6008857,30.9843741 64.6008857,29.8019625 C64.6008857,28.6195509 63.6469674,27.6610169 62.4702496,27.6610169 Z" id="Shape" fill="#662059"></path>
            <path d="M83.2439513,116.959857 L83.2439513,56.3068689 C83.2439513,55.1244573 82.290033,54.1659233 81.1133152,54.1659233 C79.9365974,54.1659233 78.9826791,55.1244573 78.9826791,56.3068689 L78.9826791,116.959857 C78.9826791,118.142269 79.9365974,119.100803 81.1133152,119.100803 C82.290033,119.100803 83.2439513,118.142269 83.2439513,116.959857 Z" id="Shape" fill="#662059"></path>
            <path d="M93.1940217,56.3068689 L93.1940217,40.0570919 C93.1940217,38.8746803 92.2401035,37.9161463 91.0633857,37.9161463 C89.8866679,37.9161463 88.9327496,38.8746803 88.9327496,40.0570919 L88.9327496,56.3068689 C88.9327496,57.4892805 89.8866679,58.4478145 91.0633857,58.4478145 C92.2401035,58.4478145 93.1940217,57.4892805 93.1940217,56.3068689" id="Shape" fill="#662059"></path>
        </g>
    </g>
</svg>