<?xml version="1.0" encoding="UTF-8"?>
<svg width="300px" height="200px" viewBox="0 0 300 200" version="1.1" xmlns="http://www.w3.org/2000/svg" xmlns:xlink="http://www.w3.org/1999/xlink">
    <!-- Generator: Sketch 51.3 (57544) - http://www.bohemiancoding.com/sketch -->
    <title>santas-elf-holding-a-gift</title>
    <desc>Created with Sketch.</desc>
    <defs></defs>
    <g id="santas-elf-holding-a-gift" stroke="none" stroke-width="1" fill="none" fill-rule="evenodd">
        <g id="Elf" transform="translate(75.000000, 0.000000)" fill-rule="nonzero">
            <path d="M130.771698,47.1793653 C126.837972,47.1793653 123.649057,50.3723898 123.649057,54.3111851 C123.649057,58.2499804 126.837972,61.4430049 130.771698,61.4430049 C134.705424,61.4430049 137.89434,58.2499804 137.89434,54.3111851 C137.89434,50.3723898 134.705424,47.1793653 130.771698,47.1793653" id="Shape" fill="#F7DCDC"></path>
            <path d="M96.7966981,106.829906 C96.7966981,106.829906 111.426604,110.09628 111.426604,100.111732 L97.1813208,99.7123499 L96.7966981,106.829906 Z" id="Shape" fill="#F2DDD7"></path>
            <path d="M20.5274528,115.430881 C20.5274528,115.430881 16.0259434,129.69452 25.9976415,130.59313 L27.5788679,116.472126 L20.5274528,115.430881 Z" id="Shape" fill="#F2DDD7"></path>
            <ellipse id="Oval" fill="#F2DDD7" cx="49.8584906" cy="50.2032569" rx="24.3309434" ry="22.6506597"></ellipse>
            <path d="M28.4050943,38.9920361 C33.0046228,31.7814538 41.0010314,27.4651665 49.5450943,27.5811245 C62.9783962,27.5811245 73.8760377,37.7225722 73.8760377,50.2317841 C73.8722617,54.723356 72.456847,59.0998288 69.8303774,62.7409961 C74.5357246,60.024869 77.4641318,55.0276958 77.5370755,49.5899204 C77.9074528,17.2114585 49.8584906,16.8406038 39.160283,21.661714 C32.2229438,24.502094 27.8553304,31.4431104 28.2911321,38.9349816 L28.4050943,38.9920361 Z" id="Shape" fill="#406650"></path>
            <path d="M81.6254717,40.7464638 C81.6254717,40.7464638 86.2551887,50.2032569 80.2721698,73.0963984 L86.3406604,73.9522168 C88.8050943,65.2228694 100.343774,39.9904909 91.3834906,20.1212409 C89.3622945,15.6494088 86.3977996,11.6689471 82.6938679,8.45358374 C57.2090566,-13.997385 32.3225472,26.7823606 32.3225472,26.7823606 C48.5906604,13.2746939 78.2493396,18.0815405 77.6225472,49.604184 C77.6225472,49.604184 83.4631132,38.2788542 82.2380189,27.5953881" id="Shape" fill="#589972"></path>
            <path d="M36.1545283,164.483537 C35.0481563,165.598913 34.4239711,167.105035 34.4166038,168.677047 L35.5562264,186.720552 L38.7614151,186.47807 L28.3908491,190.35778 C26.1750227,191.182487 24.6476122,193.230961 24.4876415,195.592535 L24.4021698,196.933317 C24.3660665,197.333316 24.5000553,197.730019 24.7712189,198.025968 C25.0423825,198.321917 25.42559,198.489684 25.8266981,198.488054 L45.1433019,198.488054 C46.4293945,198.481539 47.4832551,197.464006 47.5365094,196.177345 L48.7188679,167.821229 C48.7537784,166.948048 48.4315653,166.09837 47.8266504,165.468448 C47.2217356,164.838526 46.386435,164.482838 45.5136792,164.483537 L36.1545283,164.483537 Z" id="Shape" fill="#589972"></path>
            <path d="M66.8816038,164.483537 C67.9879757,165.598913 68.612161,167.105035 68.6195283,168.677047 L67.4799057,186.720552 L64.274717,186.47807 L74.645283,190.35778 C76.858854,191.1855 78.3849932,193.23227 78.5484906,195.592535 L78.6339623,196.933317 C78.6700656,197.333316 78.5360768,197.730019 78.2649132,198.025968 C77.9937496,198.321917 77.610542,198.489684 77.209434,198.488054 L57.9640566,198.488054 C56.677964,198.481539 55.6241034,197.464006 55.5708491,196.177345 L54.3884906,167.821229 C54.35358,166.948048 54.6757932,166.09837 55.280708,165.468448 C55.8856229,164.838526 56.7209235,164.482838 57.5936792,164.483537 L66.9528302,164.483537 L66.8816038,164.483537 Z" id="Shape" fill="#589972"></path>
            <path d="M28.8324528,98.4856769 C28.8324528,98.4856769 26.524717,119.253536 26.6956604,133.873767 L43.2629245,136.555331 L48.1490566,140.763105 L51.6249057,137.810531 C60.1424587,137.631782 68.6175828,136.556086 76.910283,134.601212 L74.8732075,99.8264591 C74.8732075,99.8264591 80.7280189,109.126352 97.494717,106.344942 L97.494717,98.4856769 C76.910283,94.3920124 71.9814151,83.2378462 71.9814151,83.2378462 C71.9814151,83.2378462 59.1606604,86.2760014 34.2883962,81.2409366 C34.2883962,81.2409366 9.58707547,92.6518483 21.4676415,116.087008 L27.3224528,116.087008 L28.9036792,98.4856769" id="Shape" fill="#589972"></path>
            <path d="M56.2118868,148.77927 L56.6819811,164.469274 L66.6536792,164.469274 L70.9272642,136.170213 L32.6074528,135.485558 L35.0718868,155.269226 L36.2115094,164.45501 L46.055,164.45501 L46.7672642,148.879116 C49.9081431,149.223896 53.0789783,149.190375 56.2118868,148.77927 Z" id="Shape" fill="#406650"></path>
            <path d="M36.140283,124.031855 C30.000566,123.375728 26.2540566,122.605492 26.2540566,122.605492 C26.2540566,122.605492 26.1258491,126.456674 25.9833962,134.387258 L42.5506604,137.068822 L47.4367925,141.276596 L50.9126415,138.324022 C59.4302024,138.145379 67.9053374,137.069681 76.1980189,135.114703 L75.4572642,122.434328 L74.7734906,122.619755 C62.0642336,125.242076 49.0066648,125.719349 36.140283,124.031855 Z" id="Shape" fill="#406650"></path>
            <path d="M20.6983962,117.998336 L26.5532075,117.998336 C27.3399528,117.998336 27.9777358,117.359731 27.9777358,116.571972 C27.9777358,115.784213 27.3399528,115.145608 26.5532075,115.145608 L20.6983962,115.145608 C19.911651,115.145608 19.2738679,115.784213 19.2738679,116.571972 C19.2738679,117.359731 19.911651,117.998336 20.6983962,117.998336" id="Shape" fill="#662059"></path>
            <path d="M32.9920755,80.4279092 C29.91797,81.9591773 27.0820914,83.9290732 24.5731132,86.2760014 C22.2401792,88.4156624 20.2763705,90.9266004 18.7610377,93.7073577 C17.0031585,96.9675985 16.0828229,100.614471 16.0829245,104.319506 C16.1027182,107.000273 16.5400842,109.661537 17.3792453,112.207298 C17.6556752,112.905132 18.4250068,113.268979 19.1388737,113.039495 C19.8527406,112.810011 20.2667701,112.065753 20.0858491,111.337216 C19.338917,109.072338 18.9496092,106.704606 18.9319811,104.319506 C18.9327015,101.08135 19.7406091,97.8945828 21.2824528,95.0481398 C23.2850383,91.4808095 26.0416385,88.3945015 29.3595283,86.0049923 C30.4666197,85.1797502 31.6226031,84.4223913 32.8211321,83.7370736 L33.8467925,83.1807916 L34.1174528,83.0524189 C34.8333909,82.7254988 35.1490935,81.8793474 34.8225942,81.1624867 C34.4960949,80.445626 33.6510325,80.1295166 32.9350943,80.4564365" id="Shape" fill="#662059"></path>
            <path d="M105.301132,108.484488 C107.20893,108.20807 108.998106,107.391511 110.457925,106.130988 C112.087236,104.558449 112.963953,102.361234 112.865377,100.097468 C112.865377,99.3097091 112.227594,98.6711042 111.440849,98.6711042 C110.654104,98.6711042 110.016321,99.3097091 110.016321,100.097468 C110.136699,101.554824 109.61654,102.992312 108.591792,104.034233 C107.531391,104.920576 106.242624,105.489156 104.873774,105.674551 C104.364839,105.766278 103.943436,106.1229 103.768303,106.610081 C103.593171,107.097263 103.690916,107.64099 104.024718,108.036445 C104.358521,108.431901 104.877669,108.619006 105.386604,108.527279 L105.301132,108.484488 Z" id="Shape" fill="#662059"></path>
            <path d="M26.7099057,98.8137406 C26.7099057,98.8137406 24.5588679,118.098181 24.5588679,132.704148 C24.5588679,133.265185 24.5588679,133.821467 24.5588679,134.372994 C24.5497851,135.079605 25.058795,135.68635 25.7554717,135.799358 L41.9238679,138.409604 L46.5108491,142.346369 C47.0439418,142.80293 47.8296431,142.80293 48.3627358,142.346369 L51.8528302,139.393795 L50.9268868,138.309759 L50.9268868,139.736123 C59.564577,139.559147 68.159434,138.469063 76.5683962,136.484013 C77.2253425,136.328808 77.683322,135.733263 77.665283,135.057649 L75.6282075,100.282896 L74.2036792,100.368477 L72.9928302,101.12445 C74.1086428,102.700585 75.5217435,104.042822 77.1524528,105.075478 C81.2375239,107.67186 86.0056988,108.983432 90.8421698,108.841079 C92.923404,108.835286 95.0006663,108.658778 97.0531132,108.313325 C97.7497899,108.200316 98.2587998,107.593571 98.249717,106.886961 L98.249717,98.9706407 C98.2635858,98.2820481 97.7840718,97.6818832 97.1100943,97.5442767 C87.0386792,95.5473672 80.9132075,91.8388209 77.2806604,88.7008202 C75.8835803,87.5100245 74.6352063,86.1546793 73.5626415,84.6642102 C73.2902602,84.2782978 73.0382485,83.8783683 72.8076415,83.4660644 L72.6509434,83.166528 L72.0811321,83.4232735 L72.6509434,83.166528 L72.0811321,83.4232735 L72.6509434,83.166528 C72.4448247,82.7002524 72.0059283,82.3795008 71.4995822,82.325097 C70.9932361,82.2706932 70.4963663,82.4909026 70.1961388,82.9027744 C69.8959114,83.3146462 69.837938,83.8556073 70.0440566,84.3218828 C71.3758253,86.8643152 73.213179,89.1069307 75.4430189,90.9116843 C79.4316981,94.3777487 86.0557547,98.3145133 96.5830189,100.397005 L96.8536792,98.9706407 L95.4291509,98.9706407 L95.4291509,106.829906 L96.8536792,106.829906 L96.6257547,105.403542 C94.7430219,105.724201 92.8373813,105.891159 90.9276415,105.90277 C86.6545856,106.046796 82.4366339,104.903998 78.8191509,102.622132 C77.8663665,101.995901 76.99127,101.258532 76.2122642,100.425532 C75.9416038,100.125995 75.7564151,99.8977772 75.6282075,99.7408772 L75.5,99.5697135 L74.8162264,100.011886 L75.5,99.5839772 L74.8162264,100.02615 L75.5,99.5982408 C75.151148,99.0547999 74.4810751,98.8139739 73.8666999,99.0112285 C73.2523247,99.2084831 72.8470597,99.7945628 72.8788679,100.439796 L74.9159434,135.214549 L76.3404717,135.128967 L76.0128302,133.702603 C70.2767002,135.056424 64.4489109,135.986067 58.5766038,136.484013 C56.2831132,136.683704 54.3884906,136.783549 53.0779245,136.82634 L51.5679245,136.82634 L51.0550943,136.82634 C50.7155658,136.826314 50.3871926,136.947716 50.1291509,137.168668 L47.5792453,139.336741 L43.6190566,135.927731 C43.4209286,135.756203 43.1794068,135.64269 42.9210377,135.599667 L26.225566,132.918103 L25.9976415,134.344467 L27.4221698,134.344467 C27.4221698,133.811958 27.4221698,133.269939 27.4221698,132.718412 C27.4221698,125.586592 27.9492453,117.142518 28.490566,110.538452 C28.7612264,107.243552 29.0318868,104.390824 29.2313208,102.365387 C29.4307547,100.33995 29.5589623,99.156068 29.5589623,99.1418044 C29.6455042,98.3540453 29.0778773,97.6451939 28.2911321,97.5585404 C27.5043868,97.4718869 26.7964476,98.0402452 26.7099057,98.8280043" id="Shape" fill="#662059"></path>
            <path d="M54.8443396,126.385356 C54.8443396,126.385356 57.8073585,126.271247 61.7960377,125.900392 C66.2672968,125.541096 70.7112656,124.897939 75.1011321,123.974801 C75.8682086,123.797555 76.3465457,123.031229 76.1695281,122.263164 C75.9925104,121.495099 75.2271709,121.016146 74.4600943,121.193391 C70.1968732,122.088094 65.881452,122.712183 61.5396226,123.061928 C59.5737736,123.233092 57.8643396,123.361464 56.6534906,123.432783 L55.2289623,123.518364 L54.7161321,123.518364 C54.2071971,123.538748 53.7477823,123.829447 53.5109449,124.280957 C53.2741074,124.732467 53.2958285,125.276194 53.567926,125.707321 C53.8400235,126.138448 54.3211594,126.391476 54.8300943,126.371092 L54.8443396,126.385356 Z" id="Shape" fill="#662059"></path>
            <path d="M26.0403774,123.989065 C26.0403774,123.989065 31.2541509,124.802092 37.4366038,125.415429 C38.223349,125.498143 38.9280992,124.926592 39.0107074,124.138833 C39.0933156,123.351074 38.5224999,122.645415 37.7357547,122.562701 C34.6872642,122.234637 31.8666981,121.878046 29.8153774,121.592773 L27.379434,121.250446 L26.4819811,121.122073 C25.9730462,121.043086 25.4606863,121.241963 25.1379025,121.643789 C24.8151187,122.045614 24.7309495,122.589341 24.9171006,123.070152 C25.1032517,123.550964 25.5314424,123.895814 26.0403774,123.974801 L26.0403774,123.989065 Z" id="Shape" fill="#662059"></path>
            <rect id="Rectangle-path" fill="#F4C95E" x="44.8156604" y="120.152145" width="14.245283" height="11.0543207" rx="4.80684655"></rect>
            <path d="M54.260283,131.206466 L54.260283,129.780102 L49.6020755,129.780102 C47.7374892,129.780102 46.2259434,128.266609 46.2259434,126.39962 L46.2259434,124.973256 C46.2259434,123.106267 47.7374892,121.592773 49.6020755,121.592773 L54.260283,121.592773 C56.1248693,121.592773 57.6364151,123.106267 57.6364151,124.973256 L57.6364151,126.39962 C57.6364151,127.296179 57.2807165,128.156018 56.6475689,128.789982 C56.0144213,129.423945 55.1556889,129.780102 54.260283,129.780102 L54.260283,132.63283 C57.6983598,132.63283 60.4854717,129.842127 60.4854717,126.39962 L60.4854717,124.973256 C60.4854717,121.530749 57.6983598,118.740045 54.260283,118.740045 L49.6020755,118.740045 C46.1639987,118.740045 43.3768868,121.530749 43.3768868,124.973256 L43.3768868,126.39962 C43.3768868,129.842127 46.1639987,132.63283 49.6020755,132.63283 L54.260283,132.63283 L54.260283,131.206466 Z" id="Shape" fill="#662059"></path>
            <path d="M33.8610377,157.622727 L34.7442453,164.668965 C34.8311748,165.389229 35.4442219,165.929405 36.1687736,165.924165 L46.0122642,165.924165 C46.7990094,165.924165 47.4367925,165.28556 47.4367925,164.497801 L48.1490566,148.921907 C48.1844601,148.134148 47.5753773,147.466805 46.7886321,147.431356 C46.0018869,147.395907 45.3354036,148.005775 45.3,148.793534 L44.644717,163.057173 L37.4081132,163.057173 L36.6816038,157.266136 C36.5832606,156.478377 35.8657547,155.919597 35.0790094,156.018067 C34.2922642,156.116537 33.734204,156.834968 33.8325472,157.622727 L33.8610377,157.622727 Z" id="Shape" fill="#662059"></path>
            <path d="M31.1259434,135.685249 L32.664434,148.009034 C32.7280508,148.518624 33.0583488,148.955523 33.5309078,149.155153 C34.0034668,149.354784 34.546494,149.286818 34.9554361,148.976858 C35.3643783,148.666898 35.5771074,148.162033 35.5134906,147.652443 L33.975,135.328658 C33.9113831,134.819067 33.5810852,134.382169 33.1085261,134.182538 C32.6359671,133.982908 32.09294,134.050874 31.6839978,134.360834 C31.2750557,134.670794 31.0623265,135.175658 31.1259434,135.685249" id="Shape" fill="#662059"></path>
            <path d="M40.869717,148.15167 C43.8891775,149.584113 47.2020464,150.2876 50.5422642,150.205634 C53.4436085,150.192354 56.3259049,149.735402 59.089434,148.850588 C59.8407756,148.614261 60.2585233,147.812811 60.0224998,147.060502 C59.7864762,146.308192 58.9860587,145.889906 58.234717,146.126233 C55.7479169,146.924985 53.1538414,147.338648 50.5422642,147.352906 C48.4540842,147.361493 46.3759244,147.063544 44.3740566,146.468561 C43.822159,146.304432 43.2799726,146.109184 42.7500943,145.883751 L42.3512264,145.698324 L42.2657547,145.698324 L42.0948113,146.026388 L42.28,145.698324 L42.1090566,146.026388 L42.2942453,145.698324 C41.8489272,145.443529 41.3016795,145.445968 40.8586451,145.704724 C40.4156107,145.96348 40.1440971,146.439241 40.1463809,146.952793 C40.1486646,147.466344 40.4243988,147.939666 40.869717,148.194461 L40.869717,148.15167 Z" id="Shape" fill="#662059"></path>
            <path d="M54.7873585,148.822061 L55.2574528,164.512065 C55.2574528,165.299824 55.8952359,165.938429 56.6819811,165.938429 L66.6536792,165.938429 C67.3640108,165.946469 67.9716964,165.429271 68.0782075,164.726019 L72.3517925,136.426958 C72.4658705,135.639199 71.920566,134.907997 71.1338208,134.793772 C70.3470755,134.679546 69.6168139,135.225554 69.5027358,136.013313 L65.4713208,163.114228 L58.1065094,163.114228 L57.6791509,148.850588 C57.6555486,148.062829 56.998632,147.443383 56.2118868,147.467015 C55.4251415,147.490648 54.806492,148.148411 54.8300943,148.93617 L54.7873585,148.822061 Z" id="Shape" fill="#662059"></path>
            <path d="M38.2628302,185.137288 L27.8922642,189.016998 C25.1530722,190.039902 23.2645116,192.572384 23.0631132,195.49269 L22.9776415,196.833472 L22.9776415,197.033163 C22.9776415,198.608681 24.2532076,199.885891 25.8266981,199.885891 L45.1433019,199.885891 C47.1891336,199.880315 48.8697811,198.266572 48.9610377,196.220136 L50.1433962,167.86402 L50.1433962,167.664329 C50.1433962,165.104112 48.0706013,163.028646 45.5136792,163.028646 L43.2771698,163.028646 C42.4904246,163.028646 41.8526415,163.667251 41.8526415,164.45501 C41.8526415,165.242769 42.4904246,165.881374 43.2771698,165.881374 L45.5136792,165.881374 C46.4971108,165.881374 47.2943396,166.67963 47.2943396,167.664329 L47.2943396,167.735647 L46.1119811,196.091763 C46.089086,196.618536 45.6556501,197.033662 45.1290566,197.033163 L25.8409434,197.033163 L25.9406604,195.692381 C26.0627333,193.890848 27.2277206,192.328088 28.9179245,191.698562 L39.2884906,187.818852 C39.9793388,187.513713 40.3123883,186.721838 40.0476775,186.013771 C39.7829667,185.305704 39.0124665,184.927455 38.2913208,185.151551 L38.2628302,185.137288 Z" id="Shape" fill="#662059"></path>
            <path d="M36.9665094,186.620706 L35.8268868,168.577202 L35.8268868,168.348984 C35.8096251,167.257592 36.2734217,166.214009 37.094717,165.496256 C37.6602573,164.973544 37.708876,164.095559 37.2045156,163.513448 C36.7001552,162.931337 35.8252161,162.855618 35.2285849,163.342446 C33.8061479,164.586837 32.9906539,166.386356 32.9920755,168.277666 C32.9920755,168.420302 32.9920755,168.558184 32.9920755,168.691311 L34.1316981,186.734815 C34.1647789,187.244406 34.4668603,187.697616 34.9241513,187.923726 C35.3814423,188.149835 35.9244694,188.114493 36.3486796,187.831012 C36.7728898,187.547531 37.0138355,187.058979 36.9807547,186.549388 L36.9665094,186.620706 Z" id="Shape" fill="#662059"></path>
            <path d="M63.5339623,197.104481 L57.5082075,197.104481 C56.981614,197.10498 56.5481782,196.689855 56.525283,196.163081 L55.3429245,167.806965 L55.3429245,167.735647 C55.3429245,166.750948 56.1401533,165.952692 57.1235849,165.952692 L59.3885849,165.952692 C60.1753302,165.952692 60.8131132,165.314087 60.8131132,164.526328 C60.8131132,163.738569 60.1753302,163.099964 59.3885849,163.099964 L57.1520755,163.099964 C54.5951534,163.099964 52.5223585,165.17543 52.5223585,167.735647 L52.5223585,167.935338 L53.6904717,196.220136 C53.7817283,198.266572 55.4623758,199.880315 57.5082075,199.885891 L63.5339623,199.885891 C64.3207075,199.885891 64.9584906,199.247286 64.9584906,198.459527 C64.9584906,197.671768 64.3207075,197.033163 63.5339623,197.033163 L63.5339623,197.104481 Z" id="Shape" fill="#662059"></path>
            <path d="M63.3772642,187.804588 L73.7478302,191.684298 C75.4380341,192.313825 76.6030214,193.876584 76.7250943,195.678117 L76.810566,197.018899 L70.1437736,197.018899 C69.3570283,197.018899 68.7192453,197.657504 68.7192453,198.445263 C68.7192453,199.233022 69.3570283,199.871627 70.1437736,199.871627 L76.810566,199.871627 C78.3840566,199.871627 79.6596226,198.594417 79.6596226,197.018899 L79.6596226,196.819208 L79.5741509,195.478426 C79.3727525,192.55812 77.4841919,190.025638 74.745,189.002734 L64.374434,185.123024 C63.8909694,184.909484 63.3291756,184.981448 62.9149702,185.309978 C62.5007648,185.638507 62.3022091,186.169618 62.3991493,186.689732 C62.4960896,187.209846 62.872597,187.633499 63.3772642,187.790324 L63.3772642,187.804588 Z" id="Shape" fill="#662059"></path>
            <path d="M68.505566,186.79187 L69.6451887,168.748366 C69.6451887,168.605729 69.6451887,168.463093 69.6451887,168.33472 C69.6447438,166.443815 68.8295835,164.645032 67.4086792,163.399501 C67.0244334,163.063171 66.4901765,162.957646 66.0071581,163.122676 C65.5241397,163.287707 65.1657417,163.698221 65.0669693,164.199581 C64.9681969,164.700942 65.1440559,165.21698 65.5283019,165.55331 C66.3495972,166.271064 66.8133938,167.314646 66.7961321,168.406038 L66.7961321,168.577202 L65.6565094,186.620706 C65.605371,187.408465 66.2016981,188.088579 66.9884434,188.139784 C67.7751887,188.190988 68.4544276,187.593892 68.505566,186.806133 L68.505566,186.79187 Z" id="Shape" fill="#662059"></path>
            <path d="M113.648868,67.0914062 L111.113208,67.0914062" id="Shape" fill="#FFFFFF"></path>
            <path d="M113.648868,65.6793058 L111.113208,65.6793058 C110.326462,65.6793058 109.688679,66.3179107 109.688679,67.1056698 C109.688679,67.8934289 110.326462,68.5320338 111.113208,68.5320338 L113.648868,68.5320338 C114.435613,68.5320338 115.073396,67.8934289 115.073396,67.1056698 C115.073396,66.3179107 114.435613,65.6793058 113.648868,65.6793058" id="Shape" fill="#662059"></path>
            <polygon id="Shape" fill="#FB5956" points="92.8080189 68.760252 92.8080189 75.1646262 93.420566 75.1646262 96.9106604 75.1646262 96.9106604 75.1646262 96.9106604 75.1646262 96.9106604 75.1646262 96.9106604 99.1418044 114.346887 99.1418044 144.603868 99.1418044 144.603868 92.2524664 144.603868 93.1510757 144.603868 75.1646262 148.649528 75.1646262 148.706509 75.1646262 148.706509 68.760252"></polygon>
            <path d="M113.292736,68.7317247 L128.221792,68.7317247 C132.344338,68.7317247 135.686321,65.385435 135.686321,61.2575776 C135.686321,57.1297201 132.344338,53.7834304 128.221792,53.7834304 C124.099247,53.7834304 120.757264,57.1297201 120.757264,61.2575776 C120.757264,57.1297201 117.415281,53.7834304 113.292736,53.7834304 C109.170191,53.7834304 105.828208,57.1297201 105.828208,61.2575776 C105.828208,65.385435 109.170191,68.7317247 113.292736,68.7317247 Z" id="Shape" fill="#FB5956"></path>
            <rect id="Rectangle-path" fill="#F4C95E" x="97.2525472" y="84.1649828" width="26.8523585" height="4.66421015"></rect>
            <rect id="Rectangle-path" fill="#F4C95E" x="108.349623" y="69.273743" width="4.65820755" height="29.8252704"></rect>
            <rect id="Rectangle-path" fill="#C93E4F" x="124.104906" y="75.0505171" width="20.4989623" height="24.0912873"></rect>
            <rect id="Rectangle-path" fill="#C93E4F" x="128.221792" y="68.5890883" width="20.4989623" height="6.57553786"></rect>
            <rect id="Rectangle-path" fill="#CEA045" x="124.190377" y="84.1649828" width="20.8550943" height="4.66421015"></rect>
            <path d="M148.692264,75.1788898 L148.692264,73.7525259 L144.589623,73.7525259 C143.802877,73.7525259 143.165094,74.3911308 143.165094,75.1788898 L143.165094,97.729704 L98.3209434,97.729704 L98.3209434,75.1788898 C98.3209434,74.3911308 97.6831604,73.7525259 96.8964151,73.7525259 L94.2183019,73.7525259 L94.2183019,70.1580887 L147.267736,70.1580887 L147.267736,75.1360989 L148.692264,75.1360989 L150.116792,75.1360989 L150.116792,68.7317247 C150.116792,67.9439656 149.479009,67.3053608 148.692264,67.3053608 L92.8080189,67.3053608 C92.0212736,67.3053608 91.3834906,67.9439656 91.3834906,68.7317247 L91.3834906,75.1360989 C91.3834906,75.923858 92.0212736,76.5624629 92.8080189,76.5624629 L95.4861321,76.5624629 L95.4861321,99.1132771 C95.4861321,99.9010361 96.1239151,100.539641 96.9106604,100.539641 L144.603868,100.539641 C145.390613,100.539641 146.028396,99.9010361 146.028396,99.1132771 L146.028396,76.6052538 L148.706509,76.6052538 C149.493255,76.6052538 150.131038,75.9666489 150.131038,75.1788898 L148.706509,75.1788898 L148.692264,75.1788898 Z" id="Shape" fill="#662059"></path>
            <path d="M105.828208,61.2861048 L107.252736,61.2861048 C107.252736,57.9460064 109.956936,55.2383216 113.292736,55.2383216 C116.628536,55.2383216 119.332736,57.9460064 119.332736,61.2861048 C119.332736,63.140378 119.332736,68.760252 119.332736,68.760252 L120.757264,68.760252 L120.757264,67.333888 L113.292736,67.333888 C109.956936,67.333888 107.252736,64.6262033 107.252736,61.2861048 L104.403679,61.2861048 C104.403679,66.2017214 108.383445,70.186616 113.292736,70.186616 L120.757264,70.186616 C121.544009,70.186616 122.181792,69.5480111 122.181792,68.760252 L122.181792,61.2861048 C122.181792,56.3704883 118.202026,52.3855937 113.292736,52.3855937 C108.383445,52.3855937 104.403679,56.3704883 104.403679,61.2861048 L105.828208,61.2861048 Z" id="Shape" fill="#662059"></path>
            <path d="M135.672075,61.2861048 L137.096604,61.2861048 C137.096604,56.3704883 133.116838,52.3855937 128.207547,52.3855937 C123.298257,52.3855937 119.318491,56.3704883 119.318491,61.2861048 C119.318491,63.140378 119.318491,68.760252 119.318491,68.760252 C119.318491,69.5480111 119.956274,70.186616 120.743019,70.186616 L128.207547,70.186616 C133.116838,70.186616 137.096604,66.2017214 137.096604,61.2861048 L134.247547,61.2861048 C134.247547,64.6262033 131.543347,67.333888 128.207547,67.333888 L120.743019,67.333888 L120.743019,68.760252 L122.167547,68.760252 L122.167547,61.2861048 C122.167547,57.9460064 124.871747,55.2383216 128.207547,55.2383216 C131.543347,55.2383216 134.247547,57.9460064 134.247547,61.2861048 L135.672075,61.2861048 Z" id="Shape" fill="#662059"></path>
            <path d="M131.626415,61.2861048 C131.626415,59.3954831 130.095736,57.8628313 128.207547,57.8628313 C126.319359,57.8628313 124.788679,59.3954831 124.788679,61.2861048 L124.788679,64.7093783 L128.207547,64.7093783 C130.095736,64.7093783 131.626415,63.1767266 131.626415,61.2861048 Z" id="Shape" fill="#FFFFFF"></path>
            <path d="M131.626415,61.2861048 L133.050943,61.2861048 C133.050943,58.607724 130.882481,56.4364674 128.207547,56.4364674 C125.532613,56.4364674 123.364151,58.607724 123.364151,61.2861048 C123.364151,62.1276596 123.364151,64.7093783 123.364151,64.7093783 C123.364151,65.4971374 124.001934,66.1357423 124.788679,66.1357423 L128.207547,66.1357423 C130.882481,66.1357423 133.050943,63.9644857 133.050943,61.2861048 L130.201887,61.2861048 C130.201887,62.3889675 129.308991,63.2830144 128.207547,63.2830144 L124.788679,63.2830144 L124.788679,64.7093783 L126.213208,64.7093783 L126.213208,61.2861048 C126.213208,60.1832421 127.106104,59.2891953 128.207547,59.2891953 C129.308991,59.2891953 130.201887,60.1832421 130.201887,61.2861048 L131.626415,61.2861048 Z" id="Shape" fill="#662059"></path>
            <path d="M97.2383019,85.5913467 L108.178679,85.5913467 C108.965425,85.5913467 109.603208,84.9527418 109.603208,84.1649828 C109.603208,83.3772237 108.965425,82.7386188 108.178679,82.7386188 L97.2383019,82.7386188 C96.4515566,82.7386188 95.8137736,83.3772237 95.8137736,84.1649828 C95.8137736,84.9527418 96.4515566,85.5913467 97.2383019,85.5913467" id="Shape" fill="#662059"></path>
            <path d="M97.2240566,90.2412932 L108.192925,90.2412932 C108.97967,90.2412932 109.617453,89.6026883 109.617453,88.8149293 C109.617453,88.0271702 108.97967,87.3885653 108.192925,87.3885653 L97.2240566,87.3885653 C96.4373113,87.3885653 95.7995283,88.0271702 95.7995283,88.8149293 C95.7995283,89.6026883 96.4373113,90.2412932 97.2240566,90.2412932" id="Shape" fill="#662059"></path>
            <path d="M113.363962,85.5913467 L144.603868,85.5913467 C145.390613,85.5913467 146.028396,84.9527418 146.028396,84.1649828 C146.028396,83.3772237 145.390613,82.7386188 144.603868,82.7386188 L113.363962,82.7386188 C112.577217,82.7386188 111.939434,83.3772237 111.939434,84.1649828 C111.939434,84.9527418 112.577217,85.5913467 113.363962,85.5913467" id="Shape" fill="#662059"></path>
            <path d="M113.292736,90.2412932 L144.632358,90.2412932 C145.419104,90.2412932 146.056887,89.6026883 146.056887,88.8149293 C146.056887,88.0271702 145.419104,87.3885653 144.632358,87.3885653 L113.292736,87.3885653 C112.505991,87.3885653 111.868208,88.0271702 111.868208,88.8149293 C111.868208,89.6026883 112.505991,90.2412932 113.292736,90.2412932" id="Shape" fill="#662059"></path>
            <path d="M109.603208,98.4999406 L109.603208,68.8173065 C109.603208,68.0295475 108.965425,67.3909426 108.178679,67.3909426 C107.391934,67.3909426 106.754151,68.0295475 106.754151,68.8173065 L106.754151,98.4999406 C106.754151,99.2876996 107.391934,99.9263045 108.178679,99.9263045 C108.965425,99.9263045 109.603208,99.2876996 109.603208,98.4999406" id="Shape" fill="#662059"></path>
            <path d="M114.24717,98.599786 L114.24717,68.8173065 C114.24717,68.0295475 113.609387,67.3909426 112.822642,67.3909426 C112.035896,67.3909426 111.398113,68.0295475 111.398113,68.8173065 L111.398113,98.5855224 C111.398113,99.3732815 112.035896,100.011886 112.822642,100.011886 C113.609387,100.011886 114.24717,99.3732815 114.24717,98.5855224" id="Shape" fill="#662059"></path>
            <path d="M114.346887,100.568168 L144.603868,100.568168 C145.390613,100.568168 146.028396,99.9295634 146.028396,99.1418044 L146.028396,93.1510757 C146.028396,92.3633167 145.390613,91.7247118 144.603868,91.7247118 C143.817123,91.7247118 143.17934,92.3633167 143.17934,93.1510757 L143.17934,97.7154404 L114.346887,97.7154404 C113.560142,97.7154404 112.922358,98.3540453 112.922358,99.1418044 C112.922358,99.9295634 113.560142,100.568168 114.346887,100.568168 Z" id="Shape" fill="#662059"></path>
            <path d="M95.4718868,75.1788898 L95.4718868,99.156068 C95.4718868,99.9438271 96.1096698,100.582432 96.8964151,100.582432 L114.332642,100.582432 C115.119387,100.582432 115.75717,99.9438271 115.75717,99.156068 C115.75717,98.3683089 115.119387,97.729704 114.332642,97.729704 L98.3209434,97.729704 L98.3209434,75.1788898 C98.3209434,74.3911308 97.6831604,73.7525259 96.8964151,73.7525259 C96.1096698,73.7525259 95.4718868,74.3911308 95.4718868,75.1788898 Z" id="Shape" fill="#662059"></path>
            <path d="M146.028396,92.2524664 L146.028396,75.1360989 C146.028396,74.3483398 145.390613,73.7097349 144.603868,73.7097349 C143.817123,73.7097349 143.17934,74.3483398 143.17934,75.1360989 L143.17934,92.2524664 C143.17934,93.0402255 143.817123,93.6788304 144.603868,93.6788304 C145.390613,93.6788304 146.028396,93.0402255 146.028396,92.2524664" id="Shape" fill="#662059"></path>
            <path d="M93.420566,76.6052538 L131.811604,76.6052538 C132.598349,76.6052538 133.236132,75.9666489 133.236132,75.1788898 C133.236132,74.3911308 132.598349,73.7525259 131.811604,73.7525259 L93.420566,73.7525259 C92.6338208,73.7525259 91.9960377,74.3911308 91.9960377,75.1788898 C91.9960377,75.9666489 92.6338208,76.6052538 93.420566,76.6052538" id="Shape" fill="#662059"></path>
            <path d="M137.609434,76.6052538 L148.635283,76.6052538 C149.422028,76.6052538 150.059811,75.9666489 150.059811,75.1788898 C150.059811,74.3911308 149.422028,73.7525259 148.635283,73.7525259 L137.609434,73.7525259 C136.822689,73.7525259 136.184906,74.3911308 136.184906,75.1788898 C136.184906,75.9666489 136.822689,76.6052538 137.609434,76.6052538" id="Shape" fill="#662059"></path>
            <path d="M116.725849,64.6951147 L113.306981,64.6951147 C111.418793,64.6951147 109.888113,63.1624629 109.888113,61.2718412 C109.888113,59.3812194 111.418793,57.8485677 113.306981,57.8485677 C115.19517,57.8485677 116.725849,59.3812194 116.725849,61.2718412" id="Shape" fill="#FFFFFF"></path>
            <path d="M116.725849,63.2687507 L113.306981,63.2687507 C112.500346,63.2687507 111.773137,62.7822194 111.464452,62.0360254 C111.155766,61.2898314 111.326393,60.430925 111.89677,59.8598129 C112.467147,59.2887008 113.324948,59.1178537 114.070182,59.4269373 C114.815416,59.736021 115.301321,60.4641667 115.301321,61.2718412 C115.301321,62.0596003 115.939104,62.6982052 116.725849,62.6982052 C117.512594,62.6982052 118.150377,62.0596003 118.150377,61.2718412 C118.150377,58.5934604 115.981915,56.4222037 113.306981,56.4222037 C110.632047,56.4222037 108.463585,58.5934604 108.463585,61.2718412 C108.463585,63.950222 110.632047,66.1214787 113.306981,66.1214787 L116.725849,66.1214787 C117.512594,66.1214787 118.150377,65.4828738 118.150377,64.6951147 C118.150377,63.9073556 117.512594,63.2687507 116.725849,63.2687507 Z" id="Shape" fill="#662059"></path>
            <path d="M125.515189,99.1418044 L125.515189,75.1788898 C125.515189,74.3911308 124.877406,73.7525259 124.09066,73.7525259 C123.303915,73.7525259 122.666132,74.3911308 122.666132,75.1788898 L122.666132,99.156068 C122.666132,99.9438271 123.303915,100.582432 124.09066,100.582432 C124.877406,100.582432 125.515189,99.9438271 125.515189,99.156068 L125.515189,99.1418044 Z" id="Shape" fill="#662059"></path>
            <path d="M129.503868,75.1788898 L129.503868,68.7317247 C129.503868,67.9439656 128.866085,67.3053608 128.07934,67.3053608 C127.292594,67.3053608 126.654811,67.9439656 126.654811,68.7317247 L126.654811,75.1503625 C126.654811,75.9381216 127.292594,76.5767265 128.07934,76.5767265 C128.866085,76.5767265 129.503868,75.9381216 129.503868,75.1503625" id="Shape" fill="#662059"></path>
            <path d="M37.0804717,69.4876976 C37.0804717,69.4876976 50.9268868,79.3438726 66.0838679,67.0628789 C69.2976842,72.0342262 71.0954576,77.7895824 71.2833962,83.7085463 C71.2833962,83.7085463 58.4626415,86.7467015 33.5903774,81.7116368 C33.5903774,81.7259004 32.7499057,73.4672531 37.0804717,69.4876976 Z" id="Shape" fill="#F4C95E"></path>
            <path d="M37.0804717,69.4876976 L36.2542453,70.6430524 C40.3319949,73.2585812 45.0728037,74.6494925 49.9154717,74.6511351 C56.1958963,74.5676467 62.2469833,72.2753688 67.0098113,68.1754428 L66.1123585,67.0628789 L64.9442453,67.8759063 C67.9820166,72.6070595 69.6851169,78.0728746 69.8731132,83.6942827 L71.2976415,83.6942827 L70.97,82.2679187 C67.3283021,82.927 63.6297398,83.2184878 59.9299057,83.1380007 C51.181576,83.0525902 42.4633697,82.0969864 33.9037736,80.2852728 L33.6188679,81.7116368 L35.0433962,81.5690004 C35.0433962,81.4691549 35.0433962,80.8986093 35.0433962,80.1426364 C35.0369216,78.513679 35.2282625,76.8899752 35.6132075,75.3072626 C35.9910654,73.531748 36.8713259,71.9026532 38.1488679,70.6145251 L37.1801887,69.5590158 L36.3539623,70.7143706 L37.1801887,69.5590158 L36.2115094,68.5035065 C34.5237166,70.1599942 33.3511126,72.2704288 32.8353774,74.5798169 C32.3908134,76.3954817 32.1707369,78.2589618 32.1800943,80.1283728 C32.1800943,81.1981457 32.1800943,81.8970641 32.2513208,81.9255913 C32.3144438,82.5492866 32.7768674,83.058608 33.3909434,83.1807916 C42.1329073,85.0346729 51.0372194,86.0141671 59.9726415,86.1048378 C63.9027052,86.2017659 67.8320993,85.8862444 71.6965094,85.1634375 C72.3534557,85.0082323 72.8114352,84.4126873 72.7933962,83.7370736 C72.605231,77.5271365 70.7179988,71.4881055 67.3374528,66.2783787 C67.1122882,65.9522642 66.7617266,65.7346979 66.3698651,65.6778725 C65.9780036,65.621047 65.5802009,65.7300898 65.2718868,65.9788423 C61.0269558,69.6659553 55.6197641,71.7366693 50.0009434,71.8269345 C47.0075887,71.8116033 44.0460666,71.2107831 41.2828302,70.0582432 C40.4315951,69.707519 39.6036734,69.3025533 38.8041509,68.8458338 L38.1631132,68.4607156 L38.0064151,68.3608701 L37.6930189,68.8173065 L38.0064151,68.3751337 L37.6930189,68.8315702 L38.0064151,68.3893974 C37.4567286,67.9966476 36.7071731,68.0442998 36.2115094,68.5035065 L37.0804717,69.4876976 Z" id="Shape" fill="#662059"></path>
            <ellipse id="Oval" fill="#406650" cx="82.6653774" cy="77.903245" rx="5.54141509" ry="5.54855581"></ellipse>
            <path d="M89.6313208,77.9175086 C89.6313208,74.0653668 86.5125617,70.9425889 82.6653774,70.9425889 C78.8181931,70.9425889 75.699434,74.0653668 75.699434,77.9175086 C75.699434,81.7696504 78.8181931,84.8924284 82.6653774,84.8924284 C83.4521226,84.8924284 84.0899057,84.2538235 84.0899057,83.4660644 C84.0899057,82.6783054 83.4521226,82.0397005 82.6653774,82.0397005 C81.0002521,82.0397005 79.4990858,81.0353607 78.8618699,79.4950031 C78.2246541,77.9546456 78.5768774,76.1816174 79.7542988,75.0026788 C80.9317202,73.8237402 82.7024666,73.471063 84.2408417,74.1090999 C85.7792169,74.7471369 86.7822642,76.2502377 86.7822642,77.9175086 C86.7822642,78.7052677 87.4200472,79.3438726 88.2067925,79.3438726 C88.9935377,79.3438726 89.6313208,78.7052677 89.6313208,77.9175086 Z" id="Shape" fill="#662059"></path>
            <path d="M75.3148113,54.8104125 C74.1264373,57.614962 72.0555368,59.953988 69.4172642,61.4715322 C68.7730175,61.8816061 68.5661367,62.7272984 68.9481766,63.3890792 C69.3302166,64.0508599 70.1653546,64.2934531 70.8417925,63.9391418 C74.0281403,62.1129972 76.5297705,59.2925319 77.964434,55.9087127 C78.2356044,55.1921656 77.8929037,54.3891201 77.188318,54.0900522 C76.4837323,53.7909842 75.6690493,54.1027674 75.3433019,54.7961488 L75.3148113,54.8104125 Z" id="Shape" fill="#662059"></path>
            <path d="M58.8187736,21.818614 C63.6571236,23.0003063 67.9544073,25.785076 71.0127358,29.7206704 C74.2464151,33.9997623 76.4116981,40.0760727 76.4116981,48.8339475 C76.4116981,49.0716748 76.4116981,49.3141567 76.4116981,49.5613931 C76.4116981,50.3491521 77.0494812,50.987757 77.8362264,50.987757 C78.6229717,50.987757 79.2607547,50.3491521 79.2607547,49.5613931 C79.2607547,49.3046476 79.2607547,49.0526566 79.2607547,48.8054202 C79.2607547,39.591109 76.9530189,32.7873529 73.2777358,27.9662427 C69.8348508,23.526645 64.9962419,20.3805118 59.545283,19.0372043 C59.0423309,18.8705294 58.4885486,18.9970925 58.1076328,19.3657695 C57.726717,19.7344465 57.5815984,20.2843285 57.7308967,20.7932944 C57.8801949,21.3022602 58.2992447,21.6862243 58.8187736,21.7900868 L58.8187736,21.818614 Z" id="Shape" fill="#662059"></path>
            <path d="M30.0148113,38.7780815 C30.0148113,38.7780815 30.0148113,38.4357542 30.0148113,37.9507904 C30.0287842,35.5506115 30.5583461,33.1815386 31.5675472,31.004398 C33.3300378,27.3637576 36.3740834,24.5037475 40.114717,22.9739689 C43.6339676,21.5290321 47.408517,20.8109921 51.2117925,20.8629502 C51.7626101,20.8629502 52.3229245,20.8629502 52.8927358,20.8629502 C53.4016708,20.8909777 53.8868793,20.6450127 54.1655881,20.2177079 C54.4442968,19.7904031 54.4741633,19.2466763 54.2439371,18.791344 C54.0137109,18.3360117 53.5583689,18.0382498 53.049434,18.0102223 C52.4321384,18.0102223 51.8243396,18.0102223 51.2260377,18.0102223 C47.0195359,17.9579489 42.8464258,18.7635574 38.9608491,20.3779864 C34.5941472,22.1891198 31.0450392,25.5448104 28.9891509,29.8062522 C27.8010598,32.362438 27.1790474,35.1456376 27.1657547,37.9650541 C27.1467491,38.3451798 27.1467491,38.7260196 27.1657547,39.1061453 C27.2522967,39.8939043 27.9602359,40.4622627 28.7469811,40.3756092 C29.5337264,40.2889557 30.1013533,39.5801042 30.0148113,38.7923452 L30.0148113,38.7780815 Z" id="Shape" fill="#662059"></path>
            <path d="M92.5800943,27.7380245 C93.2227167,30.8101763 93.5378781,33.9419452 93.520283,37.0807084 C93.3536445,44.3389963 92.1839172,51.5392095 90.044434,58.4761678 C88.1925472,64.9090693 86.1127358,70.2151432 85.1725472,73.5243076 C84.960126,74.2844951 85.4033852,75.0731722 86.1625943,75.2858671 C86.9218035,75.4985621 87.7094656,75.0547317 87.9218868,74.2945442 C88.7766038,71.2421253 90.8991509,65.8219422 92.7937736,59.260668 C95.0232583,52.0711438 96.2457618,44.6066631 96.4263208,37.0807084 C96.4492084,33.7265022 96.1149298,30.379409 95.4291509,27.0961607 C95.2639344,26.3084016 94.492217,25.8039038 93.7054717,25.9693332 C92.9187264,26.1347626 92.4148778,26.9074745 92.5800943,27.6952336 L92.5800943,27.7380245 Z" id="Shape" fill="#662059"></path>
            <path d="M33.7470755,27.5240699 C36.7283019,22.884678 40.2004803,18.5807064 44.1033962,14.6867942 C47.1847747,11.5662269 50.6674988,8.87047293 54.459717,6.67062879 C58.1720511,4.47300163 62.3850403,3.26493313 66.6964151,3.16177345 C71.5398113,3.16177345 76.6681132,4.88767384 81.9246226,9.53762035 C85.4770782,12.6182155 88.3202206,16.4334222 90.2581132,20.7203138 C90.6089987,21.3870203 91.417319,21.6653739 92.1035312,21.355803 C92.7897433,21.0462321 93.1170383,20.2555683 92.8507547,19.5506954 C90.7466472,14.8936908 87.6607409,10.7478953 83.805,7.39807441 C78.1068868,2.37727327 72.2520755,0.266254606 66.7106604,0.266254606 C61.7597624,0.384170325 56.9264032,1.80063495 52.6933019,4.37418281 C46.817382,7.96638851 41.5993865,12.5398272 37.2656604,17.8961132 C35.0964414,20.4592763 33.1023259,23.1659999 31.2968868,25.9978605 C30.9526984,26.4352351 30.8941734,27.0331747 31.147009,27.5291354 C31.3998447,28.0250961 31.917809,28.3283895 32.4734737,28.3058453 C33.0291384,28.2833011 33.5208979,27.9390415 33.7328302,27.4242244 L33.7470755,27.5240699 Z" id="Shape" fill="#662059"></path>
            <path d="M79.0613208,48.5058838 C82.1836873,43.0260459 83.8969855,36.855126 84.0471698,30.5479615 C84.049714,29.4948168 83.9926413,28.4423742 83.8762264,27.3956971 C83.7857507,26.6079381 83.0746226,26.0427727 82.2878774,26.133365 C81.5011321,26.2239573 80.9366941,26.9360018 81.0271698,27.7237608 C81.1335373,28.6709129 81.185855,29.6233695 81.1838679,30.5764888 C81.1231913,34.5579531 80.3462734,38.4958659 78.8903774,42.201355 C78.4266177,43.4217876 77.8988071,44.6168432 77.3091509,45.7815286 C77.0954717,46.1951741 76.910283,46.5232378 76.7963208,46.7371924 L76.6538679,46.9796743 C76.3096795,47.417049 76.2511545,48.0149885 76.5039902,48.5109493 C76.7568259,49.00691 77.2747901,49.3102034 77.8304548,49.2876592 C78.3861195,49.2651149 78.8778791,48.9208554 79.0898113,48.4060383 L79.0613208,48.5058838 Z" id="Shape" fill="#662059"></path>
            <path d="M79.9730189,41.3740639 L80.5285849,41.1030548 L79.9730189,41.3598003 L80.5285849,41.0887912 L79.9730189,41.3455367 C79.9730189,41.3455367 81.54,44.6547011 81.54,52.0860573 C81.4115546,59.0615982 80.3967299,65.9923879 78.52,72.7112802 C78.3902216,73.2055832 78.5336695,73.7316632 78.8963084,74.091351 C79.2589473,74.4510387 79.7856836,74.5896891 80.2781009,74.4550738 C80.7705181,74.3204585 81.1538065,73.9330288 81.2835849,73.4387258 C83.2240889,66.4683423 84.2676866,59.2783714 84.3890566,52.0432664 C84.3890566,43.9557827 82.6368868,40.2329728 82.5371698,40.0475455 C82.3132384,39.5889138 81.8619551,39.2847405 81.3533139,39.2496049 C80.8446727,39.2144692 80.3559483,39.453709 80.0712384,39.877205 C79.7865286,40.300701 79.7490875,40.8441141 79.9730189,41.3027458 L79.9730189,41.3740639 Z" id="Shape" fill="#662059"></path>
            <path d="M45.8413208,104.034233 C45.7700943,104.604778 45.7273585,105.375015 45.6846226,106.245097 C45.5849057,108.855343 45.5849057,112.349935 45.5849057,112.349935 C45.5849057,113.137694 46.2226887,113.776299 47.009434,113.776299 C47.7961792,113.776299 48.4339623,113.137694 48.4339623,112.349935 C48.4339623,112.349935 48.4339623,110.809462 48.4339623,109.026507 C48.4339623,108.142161 48.4339623,107.186497 48.5051887,106.344942 C48.5764151,105.503388 48.5906604,104.775942 48.6333962,104.37656 C48.6970131,103.866969 48.4842839,103.362105 48.0753418,103.052145 C47.6663996,102.742185 47.1233725,102.674219 46.6508135,102.873849 C46.1782545,103.07348 45.8479565,103.510378 45.7843396,104.019969 L45.8413208,104.034233 Z" id="Shape" fill="#662059"></path>
            <path d="M51.6676415,106.829906 L51.6676415,112.378462 C51.6676415,113.166221 52.3054246,113.804826 53.0921698,113.804826 C53.8789151,113.804826 54.5166981,113.166221 54.5166981,112.378462 L54.5166981,106.829906 C54.5166981,106.042147 53.8789151,105.403542 53.0921698,105.403542 C52.3054246,105.403542 51.6676415,106.042147 51.6676415,106.829906" id="Shape" fill="#662059"></path>
            <path d="M57.8500943,104.633306 C57.9498113,106.05967 57.9925472,107.229288 57.9925472,108.284797 C57.9925472,109.340307 57.9925472,110.509925 57.8928302,111.137525 C57.8928302,111.479853 57.8928302,111.736598 57.8928302,111.893498 L57.8928302,112.078925 C57.7866196,112.866685 58.3383019,113.591501 59.1250472,113.697849 C59.9117924,113.804196 60.6356762,113.251803 60.7418868,112.464044 C60.9065532,111.043805 60.9826755,109.614672 60.9698113,108.184952 C60.9698113,107.072388 60.9698113,105.760133 60.8131132,104.319506 C60.7723985,103.809915 60.4632629,103.360782 60.0021549,103.141292 C59.5410469,102.921802 58.9980197,102.965301 58.5776264,103.255402 C58.1572332,103.545502 57.9233417,104.038133 57.9640566,104.547724 L57.8500943,104.633306 Z" id="Shape" fill="#662059"></path>
            <ellipse id="Oval" fill="#662059" cx="41.4965094" cy="44.8401284" rx="2.13679245" ry="2.13954594"></ellipse>
            <ellipse id="Oval" fill="#662059" cx="55.7133019" cy="44.9399738" rx="2.13679245" ry="2.13954594"></ellipse>
            <path d="M42.6646226,62.7980506 C51.4686642,66.2342619 61.4726072,63.0124383 66.6251887,55.0814216 C66.9025582,54.6533654 66.9307869,54.1096595 66.6992411,53.6551128 C66.4676954,53.2005661 66.0115526,52.9042349 65.5026374,52.8777444 C64.9937221,52.8512539 64.5093507,53.0986287 64.2319811,53.5266849 C59.8276991,60.3249949 51.2658178,63.0992852 43.7187736,60.1735409 C43.240054,59.9610239 42.6834821,60.0286293 42.2693965,60.3495932 C41.8553109,60.6705572 41.6504807,61.1931258 41.7359952,61.710422 C41.8215096,62.2277182 42.18358,62.6563306 42.6788679,62.8265779 L42.6646226,62.7980506 Z" id="Shape" fill="#662059"></path>
            <path d="M19.5017925,115.801735 C18.4371725,117.714977 17.855255,119.859584 17.8066038,122.04921 C17.7905979,123.789263 18.2859912,125.495612 19.2311321,126.955902 C20.5269688,128.817912 22.3541333,130.244738 24.4733962,131.049566 C25.1890212,131.321086 25.9910332,130.977944 26.2897162,130.27245 C26.5883993,129.566956 26.2770174,128.751224 25.5845283,128.425056 C23.9848877,127.84256 22.5991536,126.788244 21.6100943,125.401165 C20.9729877,124.401328 20.6458384,123.234977 20.6699057,122.04921 C20.6911547,120.892886 20.9128793,119.74905 21.3251887,118.668727 C21.4591663,118.309379 21.6113126,117.957087 21.7810377,117.613218 L21.9234906,117.342208 L21.5958491,117.156781 L21.9234906,117.228099 L21.5958491,117.042672 L21.9234906,117.228099 C22.243309,116.787772 22.2848835,116.203552 22.030649,115.722268 C21.7764146,115.240985 21.2707229,114.946599 20.7272262,114.963488 C20.1837295,114.980376 19.6972418,115.305593 19.4733019,115.801735 L19.5017925,115.801735 Z" id="Shape" fill="#662059"></path>
            <path d="M96.7112264,100.397005 C96.7112264,100.397005 103.335283,100.81065 110.201509,100.81065 C110.988255,100.81065 111.626038,100.172045 111.626038,99.3842862 C111.626038,98.5965272 110.988255,97.9579223 110.201509,97.9579223 C106.825377,97.9579223 103.491981,97.8580768 100.999057,97.7582313 L98.0075472,97.6155949 L96.8821698,97.6155949 C96.3732349,97.5850194 95.8866687,97.82863 95.6057562,98.2546608 C95.3248437,98.6806917 95.2922621,99.2244185 95.5202845,99.6810248 C95.748307,100.137631 96.2022915,100.437747 96.7112264,100.468323 L96.7112264,100.397005 Z" id="Shape" fill="#662059"></path>
            <path d="M27.9634906,37.6655177 L20.9263208,28.9932248 C20.9263208,28.9932248 7.82066038,46.2522287 26.2540566,56.4364674" id="Shape" fill="#F2DDD7"></path>
            <path d="M17.7496226,50.9164388 C19.7886048,53.7551245 22.4681912,56.0716284 25.570283,57.677404 C26.0156011,57.9321995 26.5628488,57.9297597 27.0058832,57.6710037 C27.4489176,57.4122476 27.7204312,56.9364865 27.7181474,56.4229351 C27.7158637,55.9093836 27.4401295,55.4360624 26.9948113,55.1812671 C24.2804748,53.7900523 21.9327338,51.7765061 20.1428302,49.3046476 C19.8581175,48.8772452 19.365851,48.6361745 18.8541174,48.6735444 C18.3423838,48.7109143 17.890259,49.0209503 17.6704922,49.4851929 C17.4507255,49.9494354 17.4972763,50.4961472 17.7923585,50.9164388 L17.7496226,50.9164388 Z" id="Shape" fill="#662059"></path>
            <path d="M29.0603774,36.781172 L22.0374528,28.0946155 C21.7673113,27.751862 21.3552649,27.5518779 20.9191981,27.5518779 C20.4831313,27.5518779 20.0710849,27.751862 19.8009434,28.0946155 C18.8738306,29.3817389 18.0678971,30.7521588 17.3934906,32.18828 C15.8851579,35.2035579 15.0629604,38.5160712 14.9860377,41.887555 L14.9860377,41.9731368 C14.9860377,42.7608959 15.6238208,43.3995008 16.410566,43.3995008 C17.1973113,43.3995008 17.8350943,42.7608959 17.8350943,41.9731368 C17.9143678,39.0319243 18.6390162,36.1442044 19.9576415,33.5147985 C20.3802211,32.6033005 20.8558822,31.7174307 21.3821698,30.8617616 L21.8522642,30.1485796 L21.9804717,29.9774159 L20.8408491,29.1073339 L19.729717,30.0059432 L26.7526415,38.6924997 C27.2602441,39.2577814 28.1214053,39.3251352 28.7105134,38.8456303 C29.2996214,38.3661253 29.4096475,37.5082729 28.9606604,36.8952811 L29.0603774,36.781172 Z" id="Shape" fill="#662059"></path>
            <path d="M29.9293396,60.687032 C27.9877619,57.5406077 26.9570405,53.9160887 26.9520755,50.2175205 C26.9824648,44.5108919 29.4007013,39.0783701 33.6188679,35.2406989 C42.8384663,26.9024115 56.8642696,26.9024115 66.0838679,35.2406989 C70.3349468,39.055641 72.764005,44.5015727 72.764005,50.2175205 C72.764005,55.9334683 70.3349468,61.3794001 66.0838679,65.1943421 C56.9651682,73.4485509 43.1169085,73.5528073 33.875283,65.436824 C33.2891578,64.9090254 32.3866948,64.9569208 31.8595755,65.5438013 C31.3324561,66.1306818 31.3802899,67.0343077 31.9664151,67.5621063 C42.3042795,76.6668836 57.8210411,76.5502505 68.0212264,67.2910971 C72.8472116,62.9363987 75.6023601,56.7366741 75.6023601,50.2317841 C75.6023601,43.7268942 72.8472116,37.5271696 68.0212264,33.1724712 C57.7086442,23.8198169 41.9940917,23.8198169 31.6815094,33.1724712 C26.8712435,37.5623021 24.1218001,43.7720457 24.1030189,50.2888387 C24.1089279,54.5166626 25.2876183,58.6597402 27.5076415,62.2560323 C27.9548566,62.78948 28.7214342,62.9215331 29.3209811,62.568404 C29.9205279,62.215275 30.1777076,61.4802357 29.9293396,60.8296684 L29.9293396,60.687032 Z" id="Shape" fill="#662059"></path>
            <path d="M58.5481132,88.9005111 C57.3657547,68.560561 46.9951887,65.4938785 40.9409434,71.7841436 C40.9409434,71.7841436 48.7188679,77.6179722 47.2088679,105.417806 L59.3885849,105.417806 C59.3885849,105.417806 58.790283,92.979912 58.5481132,88.9005111 Z" id="Shape" fill="#F4C95E"></path>
            <path d="M59.9156604,88.8006656 C59.4170755,81.4548912 58.035283,76.2343991 55.9412264,72.6970165 C55.0403072,71.1073967 53.7819635,69.7497598 52.2659434,68.7317247 C50.9027823,67.852481 49.3147107,67.386839 47.6932075,67.3909426 C44.8993111,67.5256337 42.2225828,68.5557019 40.0577358,70.3292523 C39.7100378,70.5994431 39.5065956,71.0153887 39.5065956,71.4560799 C39.5065956,71.8967711 39.7100378,72.3127166 40.0577358,72.5829074 L40.4850943,72.0408891 L40.0434906,72.5686438 L40.4708491,72.0266255 L40.0292453,72.5543801 C41.3878451,74.017241 42.4005008,75.7672981 42.9922642,77.6750267 C44.4167925,81.5547367 45.9837736,88.07322 45.9837736,98.5712588 C45.9837736,100.682277 45.9172956,102.954951 45.7843396,105.389278 C45.7648153,105.779772 45.9062349,106.161172 46.1755311,106.444297 C46.4448274,106.727423 46.8183887,106.88745 47.2088679,106.886961 L59.3458491,106.886961 C60.1325943,106.886961 60.7703774,106.248356 60.7703774,105.460597 L60.4427358,97.4444312 C60.4223785,96.9348404 60.1320539,96.4748337 59.6811246,96.237691 C59.2301953,96.0005483 58.6871682,96.0222974 58.2565963,96.2947456 C57.8260243,96.5671937 57.5733218,97.0489496 57.5936792,97.5585404 L57.9213208,105.574706 L59.3458491,105.574706 L59.3458491,104.148342 L47.2088679,104.148342 L47.2088679,105.574706 L48.6333962,105.646024 C48.7663522,103.154642 48.8328302,100.834423 48.8328302,98.6853679 C48.8328302,87.559729 47.1946226,80.5990729 45.499434,76.3627719 C44.7688664,74.1292865 43.5133188,72.104125 41.8383962,70.4576251 L40.9551887,71.570189 L41.8099057,72.7112802 C43.4884926,71.3101699 45.569155,70.4808293 47.7501887,70.343516 C48.832177,70.3386258 49.8919247,70.6510097 50.7986792,71.2421253 C52.6946548,72.645804 54.1003509,74.6123216 54.8158491,76.8619993 C56.2060492,80.8155421 56.9982917,84.9549344 57.1663208,89.142993 C57.1994015,89.6525837 57.501483,90.1057939 57.958774,90.3319036 C58.4160649,90.5580133 58.9590921,90.522671 59.3833023,90.2391899 C59.8075125,89.9557088 60.0484581,89.4671564 60.0153774,88.9575657 L59.9156604,88.8006656 Z" id="Shape" fill="#662059"></path>
            <path d="M26.624434,45.4534649 L23.1770755,41.0887912 C22.8615358,40.6887624 22.356827,40.4876758 21.8530679,40.561279 C21.3493088,40.6348821 20.9230325,40.9719928 20.7348131,41.4456247 C20.5465938,41.9192566 20.6250263,42.4574537 20.940566,42.8574825 L24.3879245,47.2221562 C24.7034642,47.622185 25.208173,47.8232715 25.7119321,47.7496684 C26.2156912,47.6760653 26.6419675,47.3389546 26.8301869,46.8653227 C27.0184062,46.3916908 26.9399737,45.8534936 26.624434,45.4534649" id="Shape" fill="#662059"></path>
            <path d="M40.2286792,52.1716391 C40.2286792,55.0784701 42.5820987,57.4349221 45.4851887,57.4349221 C46.2719339,57.4349221 46.909717,56.7963172 46.909717,56.0085582 C46.909717,55.2207991 46.2719339,54.5821942 45.4851887,54.5821942 C44.1555892,54.5821942 43.0777358,53.5029519 43.0777358,52.1716391 C43.0777358,51.3838801 42.4399528,50.7452752 41.6532075,50.7452752 C40.8664623,50.7452752 40.2286792,51.3838801 40.2286792,52.1716391 Z" id="Shape" fill="#662059"></path>
            <path d="M61.3971698,10.2508023 L61.2974528,10.0511114 L61.3829245,10.2508023 L61.2832075,10.0511114 L61.3829245,10.2508023 C63.2279394,9.47155085 65.2069226,9.05974076 67.2092453,9.03839296 C68.5610163,9.02535058 69.9035771,9.26229394 71.169434,9.7373113 C72.6475191,10.316601 73.9661401,11.2408251 75.0156604,12.4331392 C75.3566468,12.8127844 75.8740088,12.9814425 76.3728613,12.8755816 C76.8717137,12.7697208 77.276269,12.4054237 77.4341349,11.9199177 C77.5920009,11.4344117 77.479194,10.9014566 77.1382075,10.5218115 C75.790289,9.00132782 74.1009729,7.82314921 72.2093396,7.08427434 C70.6124259,6.47791006 68.9170834,6.1732257 67.2092453,6.18566504 C64.7918312,6.18482261 62.3988417,6.66985765 60.1720755,7.612029 C59.7016419,7.82257156 59.3814353,8.27108089 59.334716,8.78490802 C59.2879966,9.29873516 59.5220484,9.79776999 59.9467755,10.0899143 C60.3715027,10.3820586 60.9206865,10.4217646 61.3829245,10.1937478 L61.3971698,10.2508023 Z" id="Shape" fill="#FFFFFF"></path>
            <path d="M11.225283,199.957209 L57.5082075,199.957209 C58.2949528,199.957209 58.9327358,199.318604 58.9327358,198.530845 C58.9327358,197.743086 58.2949528,197.104481 57.5082075,197.104481 L11.225283,197.104481 C10.4385378,197.104481 9.80075472,197.743086 9.80075472,198.530845 C9.80075472,199.318604 10.4385378,199.957209 11.225283,199.957209" id="Shape" fill="#662059"></path>
            <path d="M85.3862264,199.957209 L93.5772642,199.957209 C94.3640094,199.957209 95.0017925,199.318604 95.0017925,198.530845 C95.0017925,197.743086 94.3640094,197.104481 93.5772642,197.104481 L85.3292453,197.104481 C84.5425,197.104481 83.904717,197.743086 83.904717,198.530845 C83.904717,199.318604 84.5425,199.957209 85.3292453,199.957209" id="Shape" fill="#662059"></path>
            <path d="M1.4245283,199.957209 L3.97443396,199.957209 C4.76117922,199.957209 5.39896226,199.318604 5.39896226,198.530845 C5.39896226,197.743086 4.76117922,197.104481 3.97443396,197.104481 L1.4245283,197.104481 C0.637783045,197.104481 0,197.743086 0,198.530845 C0,199.318604 0.637783045,199.957209 1.4245283,199.957209" id="Shape" fill="#662059"></path>
            <path d="M98.9192453,199.957209 L101.469151,199.957209 C102.255896,199.957209 102.893679,199.318604 102.893679,198.530845 C102.893679,197.743086 102.255896,197.104481 101.469151,197.104481 L98.9192453,197.104481 C98.1325,197.104481 97.494717,197.743086 97.494717,198.530845 C97.494717,199.318604 98.1325,199.957209 98.9192453,199.957209" id="Shape" fill="#662059"></path>
            <path d="M32.9493396,104.390824 L31.8809434,116.443599 C31.8101363,117.231358 32.3905189,117.927438 33.1772642,117.998336 C33.9640094,118.069234 34.6591929,117.488104 34.73,116.700345 L35.7983962,104.647569 C35.8692033,103.85981 35.2888207,103.163731 34.5020755,103.092833 C33.7153302,103.021934 33.0201467,103.603065 32.9493396,104.390824" id="Shape" fill="#FFFFFF"></path>
            <path d="M22.094434,85.1206466 C19.1858334,85.1203351 16.5692583,86.8908646 15.484709,89.5931773 C14.4001598,92.29549 15.0655564,95.3866066 17.165566,97.4016403 C17.5840452,96.1218113 18.1131223,94.8809346 18.7467925,93.693094 C20.2621253,90.9123368 22.2259339,88.4013987 24.5588679,86.2617378 L25.0859434,85.776774 C24.1448332,85.3365243 23.1189417,85.1077137 22.0801887,85.106383" id="Shape" fill="#F7DCDC"></path>
            <path d="M27.4364151,87.5454654 C24.9372715,89.6510682 22.846392,92.1991361 21.2682075,95.0624034 C20.6018581,96.305938 20.0671297,97.6157986 19.6727358,98.9706407 C22.7275118,100.067687 26.1366869,98.9584086 27.963852,96.2728752 C29.7910171,93.5873418 29.5741434,90.0046347 27.4364151,87.559729" id="Shape" fill="#558462"></path>
            <path d="M25.1001887,85.8480922 L24.5731132,86.333056 C22.2401792,88.4727169 20.2763705,90.983655 18.7610377,93.7644122 C18.1273676,94.9522528 17.5982905,96.1931295 17.1798113,97.4729585 C17.8980612,98.16066 18.7520871,98.6902553 19.6869811,99.0276952 C20.081375,97.6728531 20.6161034,96.3629925 21.2824528,95.119458 C22.8606373,92.2561907 24.9515168,89.7081228 27.4506604,87.6025199 C26.7999015,86.8675722 26.0045425,86.2751402 25.114434,85.8623559" id="Shape" fill="#631C4D"></path>
        </g>
    </g>
</svg>