<?xml version="1.0" encoding="UTF-8"?>
<svg width="300px" height="200px" viewBox="0 0 300 200" version="1.1" xmlns="http://www.w3.org/2000/svg" xmlns:xlink="http://www.w3.org/1999/xlink">
    <!-- Generator: Sketch 51.3 (57544) - http://www.bohemiancoding.com/sketch -->
    <title>santa-face</title>
    <desc>Created with Sketch.</desc>
    <defs></defs>
    <g id="santa-face" stroke="none" stroke-width="1" fill="none" fill-rule="evenodd">
        <g id="Santaface" transform="translate(116.000000, 41.000000)" fill-rule="nonzero">
            <path d="M7.36989231,60.0996696 L7.36989231,87.601387 C7.36989231,109.478822 17.4927385,112.634117 17.4927385,112.634117 L20.3397808,109.163248 L29.1339069,116.420417 L39.4747846,109.163248 L41.2180823,112.16077 C41.2180823,112.16077 51.9735769,108.532191 51.9735769,89.6004435 L51.9735769,60.0455652" id="Shape" fill="#F2DDD7"></path>
            <path d="M44.89836,84.9371652 C44.89836,79.5865348 52.4450523,79.9404826 52.4450523,76.9559913 L52.4450523,90.1030348 C52.4450523,109.03477 41.6895577,112.663361 41.6895577,112.663361 L39.94626,109.665839 L29.6053823,116.923009 L20.8112562,109.665839 L17.9642138,113.136709 C17.9642138,113.136709 7.84136769,109.981413 7.84136769,88.1039783 L7.84136769,76.9559913 C7.84136769,79.9405348 15.38806,79.586587 15.38806,84.9372174" id="Shape" fill="#FFFFFF"></path>
            <path d="M66.1550685,40.0014304 C66.1550685,36.9650649 63.6872964,34.5036043 60.6431454,34.5036043 C57.5989943,34.5036043 55.1312223,36.9650649 55.1312223,40.0014304 C55.1312223,43.0377959 57.5989943,45.4992565 60.6431454,45.4992565 C62.1050344,45.4993742 63.5070822,44.9201783 64.5407938,43.8891105 C65.5745055,42.8580426 66.1551864,41.4595806 66.1550685,40.0014304" id="Shape" fill="#FFFFFF"></path>
            <path d="M50.5901038,38.5421652 L50.5901038,33.4722435 C50.5901038,31.6741964 52.0514464,30.2165913 53.8541038,30.2165913 C55.6567613,30.2165913 57.1181038,31.6741964 57.1181038,33.4722435 L57.1181038,35.5472913 L64.5026423,35.7845783 L64.5026423,29.7893913 C64.5026423,14.2257165 51.8534401,1.60886522 36.2498585,1.60886522 C20.6462768,1.60886522 7.99707462,14.2257165 7.99707462,29.7893913 L7.99707462,46.4417522 L50.5901038,46.4417522 L50.5901038,33.0986783 C50.4032196,30.8050141 49.3153225,28.6779016 47.5633454,27.1806043" id="Shape" fill="#FB5956"></path>
            <path d="M52.7910415,61.3596696 L21.5475392,61.3596696 C20.8253207,61.3596696 20.2398469,60.7756932 20.2398469,60.0553217 C20.2398469,59.3349503 20.8253207,58.7509739 21.5475392,58.7509739 L52.7910415,58.7509739 C54.3100032,58.749314 55.5410491,57.5217026 55.5430669,56.0066261 L55.5430669,51.3439609 C55.5410491,49.8288844 54.3100032,48.6012729 52.7910415,48.599613 L5.36676923,48.599613 C3.84793248,48.6013238 2.61709978,49.8290086 2.61538462,51.3439609 L2.61538462,56.0066261 C2.61709978,57.5215783 3.84793248,58.7492631 5.36676923,58.7509739 L16.3269962,58.7509739 C17.0492147,58.7509739 17.6346885,59.3349503 17.6346885,60.0553217 C17.6346885,60.7756932 17.0492147,61.3596696 16.3269962,61.3596696 L5.36676923,61.3596696 C2.40408706,61.3565351 0.00314248375,58.9617311 0,56.0066261 L0,51.3439609 C0.00314248375,48.3888559 2.40408706,45.9940518 5.36676923,45.9909174 L52.7910415,45.9909174 C55.7539441,45.9937714 58.1552365,48.3886364 58.1584515,51.3439609 L58.1584515,56.0066261 C58.1552365,58.9619505 55.7539441,61.3568156 52.7910415,61.3596696 Z" id="Shape" fill="#662059"></path>
            <path d="M64.5040938,37.0891217 C64.1572446,37.0892117 63.8245756,36.9518187 63.5793161,36.7071865 C63.3340567,36.4625543 63.1963113,36.130736 63.1964015,35.7847739 L63.1964015,29.7897435 C63.1993033,24.9231984 61.8759359,20.1473914 59.3678315,15.973087 C59.1273904,15.5735304 59.1189211,15.0763792 59.3456139,14.6689054 C59.5723066,14.2614316 59.9997215,14.0055401 60.4668554,13.9976228 C60.9339893,13.9897055 61.3698735,14.2309652 61.6103146,14.6305217 C64.3623987,19.2103728 65.81466,24.4502395 65.8117862,29.7897435 L65.8117862,35.7847739 C65.8118764,36.130736 65.674131,36.4625543 65.4288716,36.7071865 C65.1836121,36.9518187 64.8509431,37.0892117 64.5040938,37.0891217 Z" id="Shape" fill="#662059"></path>
            <path d="M57.5927308,12.6275 C57.2138978,12.6280298 56.8535769,12.4641367 56.60558,12.1784913 C49.1491339,3.61380455 37.1087497,0.632864562 26.5025031,4.72561739 C26.067018,4.89445103 25.5743106,4.81872542 25.209979,4.52696568 C24.8456473,4.23520593 24.6650421,3.77173729 24.7361955,3.31114392 C24.8073489,2.85055054 25.1194511,2.46280752 25.5549362,2.29397391 C37.1900966,-2.19744123 50.3995522,1.07197553 58.5798815,10.4678391 C58.9154274,10.8536598 58.9944101,11.3992942 58.7819856,11.8640305 C58.5695611,12.3287667 58.104798,12.6271322 57.5927308,12.6275 Z" id="Shape" fill="#662059"></path>
            <path d="M7.99683923,47.7455391 C7.27462071,47.7455391 6.68914692,47.1615627 6.68914692,46.4411913 L6.68914692,29.7891435 C6.66692574,20.7524713 10.8209662,12.2097728 17.9494762,6.6325087 C18.5166764,6.18897264 19.3367143,6.28668298 19.7832082,6.85100419 C20.2297021,7.41532539 20.1343772,8.23357579 19.5700469,8.68073913 C13.0713536,13.7642362 9.28422415,21.5514984 9.30453154,29.7891435 L9.30453154,46.4412304 C9.30450987,47.1615866 8.71904243,47.7455391 7.99683923,47.7455391 Z" id="Shape" fill="#662059"></path>
            <path d="M50.5907054,47.7455391 C50.2438562,47.7456291 49.9111871,47.608236 49.6659277,47.3636039 C49.4206682,47.1189717 49.2829229,46.7871534 49.2830131,46.4411913 L49.2830131,33.0983783 C49.2830131,32.3780068 49.8684869,31.7940304 50.5907054,31.7940304 C51.3129239,31.7940304 51.8983977,32.3780068 51.8983977,33.0983783 L51.8983977,46.4411913 C51.8984879,46.7871534 51.7607425,47.1189717 51.5154831,47.3636039 C51.2702237,47.608236 50.9375546,47.7456291 50.5907054,47.7455391 Z" id="Shape" fill="#662059"></path>
            <path d="M50.5907054,39.846213 C50.2438562,39.846303 49.9111871,39.70891 49.6659277,39.4642778 C49.4206682,39.2196456 49.2829229,38.8878273 49.2830131,38.5418652 L49.2830131,33.4722304 C49.2802477,31.8414465 50.1509036,30.3333585 51.5663661,29.5171693 C52.9818286,28.70098 54.726549,28.70098 56.1420115,29.5171693 C57.557474,30.3333585 58.4281299,31.8414465 58.4253646,33.4722304 L58.4253646,35.547213 C58.4253646,36.2675845 57.8398908,36.8515609 57.1176723,36.8515609 C56.3954538,36.8515609 55.80998,36.2675845 55.80998,35.547213 L55.80998,33.4722304 C55.8117899,32.774079 55.4394145,32.1281868 54.8335472,31.7785889 C54.2276799,31.428991 53.4806978,31.428991 52.8748305,31.7785889 C52.2689632,32.1281868 51.8965878,32.774079 51.8983977,33.4722304 L51.8983977,38.5418652 C51.8984879,38.8878273 51.7607425,39.2196456 51.5154831,39.4642778 C51.2702237,39.70891 50.9375546,39.846303 50.5907054,39.846213 Z" id="Shape" fill="#662059"></path>
            <path d="M60.64359,46.8035783 C57.885206,46.8037102 55.3983628,45.1464334 54.3427138,42.6045618 C53.2870649,40.0626901 53.8705115,37.1368243 55.8209836,35.1913407 C57.7714556,33.245857 60.7048237,32.6639026 63.253213,33.7168516 C65.8016022,34.7698007 67.4631284,37.2502837 67.4629962,40.001613 C67.4629962,40.7219845 66.8775224,41.3059609 66.1553038,41.3059609 C65.4330853,41.3059609 64.8476115,40.7219845 64.8476115,40.001613 C64.8476115,37.6857342 62.965407,35.8083435 60.64359,35.8083435 C58.321773,35.8083435 56.4395685,37.6857342 56.4395685,40.001613 C56.4395685,42.3174919 58.321773,44.1948826 60.64359,44.1948826 C61.3658085,44.1948826 61.9512823,44.778859 61.9512823,45.4992304 C61.9512823,46.2196018 61.3658085,46.8035783 60.64359,46.8035783 Z" id="Shape" fill="#662059"></path>
            <path d="M15.1674392,32.3742304 C14.4452207,32.3742304 13.8597469,31.790254 13.8597469,31.0698826 L13.8597469,30.3240957 C13.8739946,17.6415304 24.1780538,7.36382426 36.8931385,7.34961304 C37.615357,7.34961304 38.2008308,7.93358946 38.2008308,8.65396087 C38.2008308,9.37433228 37.615357,9.9583087 36.8931385,9.9583087 C25.6218992,9.97109622 16.4879519,19.0816831 16.4751315,30.3240957 L16.4751315,31.0698826 C16.4751315,31.790254 15.8896577,32.3742304 15.1674392,32.3742304 Z" id="Shape" fill="#FFFFFF"></path>
            <path d="M15.16808,41.1843174 C14.4458615,41.1843174 13.8603877,40.600341 13.8603877,39.8799696 L13.8603877,36.9795696 C13.8603877,36.2591982 14.4458615,35.6752217 15.16808,35.6752217 C15.8902985,35.6752217 16.4757723,36.2591982 16.4757723,36.9795696 L16.4757723,39.8799696 C16.4757723,40.600341 15.8902985,41.1843174 15.16808,41.1843174 Z" id="Shape" fill="#FFFFFF"></path>
            <path d="M46.0635792,56.7695783 L39.4203977,56.7695783 C38.6981792,56.7695783 38.1127054,56.1856018 38.1127054,55.4652304 C38.1127054,54.744859 38.6981792,54.1608826 39.4203977,54.1608826 L46.0635792,54.1608826 C46.7857977,54.1608826 47.3712715,54.744859 47.3712715,55.4652304 C47.3712715,56.1856018 46.7857977,56.7695783 46.0635792,56.7695783 Z" id="Shape" fill="#662059"></path>
            <path d="M29.0795462,117.724361 C28.7752955,117.72453 28.4805493,117.618649 28.2462715,117.425026 L20.4646131,111.003917 L18.4500738,113.459757 C18.113091,113.87309 17.557208,114.039227 17.0478746,113.87883 C16.5970738,113.738717 6.00783923,110.178513 6.00783923,87.600813 L6.00783923,60.0999435 C6.00783923,59.3795721 6.59331302,58.7955957 7.31553154,58.7955957 C8.03775006,58.7955957 8.62322385,59.3795721 8.62322385,60.0999435 L8.62322385,87.600813 C8.62322385,104.531861 14.8679646,109.711035 17.0778862,111.014117 L19.2731223,108.337909 C19.4933784,108.069155 19.8119744,107.899087 20.1583411,107.865374 C20.5047078,107.831662 20.8502558,107.937088 21.1184462,108.1583 L29.1440285,114.78067 L38.6682131,108.097191 C38.9680333,107.886762 39.3426272,107.81149 39.7007475,107.889712 C40.0588677,107.967933 40.3676407,108.192468 40.5518523,108.508622 L41.6960831,110.477887 C44.18249,109.104761 50.6111185,104.145943 50.6111185,89.6006783 L50.6111185,60.0451348 C50.6111185,59.3247634 51.1965923,58.740787 51.9188108,58.740787 C52.6410293,58.740787 53.2265031,59.3247634 53.2265031,60.0451348 L53.2265031,89.600587 C53.2265031,109.242226 42.0575031,113.235526 41.5824185,113.396013 C40.9928975,113.59582 40.3439463,113.352688 40.0320838,112.815174 L39.0053362,111.049713 L29.8316915,117.486109 C29.611745,117.641267 29.3489419,117.724513 29.0795462,117.724361 Z" id="Shape" fill="#662059"></path>
            <path d="M22.65794,73.0796913 C22.3110908,73.0797813 21.9784217,72.9423882 21.7331623,72.697756 C21.4879028,72.4531239 21.3501575,72.1213056 21.3502477,71.7753435 C21.3502477,70.348493 20.190591,69.1918022 18.7600819,69.1918022 C17.3295729,69.1918022 16.1699162,70.348493 16.1699162,71.7753435 C16.1699162,72.4957149 15.5844424,73.0796913 14.8622238,73.0796913 C14.1400053,73.0796913 13.5545315,72.4957149 13.5545315,71.7753435 C13.5545315,68.9077502 15.8851358,66.5831065 18.7600819,66.5831065 C21.635028,66.5831065 23.9656323,68.9077502 23.9656323,71.7753435 C23.9657225,72.1213056 23.8279772,72.4531239 23.5827177,72.697756 C23.3374583,72.9423882 23.0047892,73.0797813 22.65794,73.0796913 Z" id="Shape" fill="#662059"></path>
            <path d="M43.3179354,73.0796913 C42.9710521,73.0798922 42.6383185,72.9425347 42.3930349,72.6978785 C42.1477514,72.4532223 42.0100417,72.1213396 42.0102431,71.7753435 C42.0102432,70.8524472 41.5166214,69.9996558 40.7153204,69.5382076 C39.9140195,69.0767595 38.9267759,69.0767595 38.1254749,69.5382076 C37.324174,69.9996558 36.8305522,70.8524472 36.8305523,71.7753435 C36.8305523,72.4957149 36.2450785,73.0796913 35.52286,73.0796913 C34.8006415,73.0796913 34.2151677,72.4957149 34.2151677,71.7753435 C34.2151676,69.92045 35.2072788,68.2064576 36.8177826,67.2790109 C38.4282864,66.3515641 40.412509,66.3515641 42.0230128,67.2790109 C43.6335166,68.2064576 44.6256278,69.92045 44.6256277,71.7753435 C44.6258291,72.1213396 44.4881194,72.4532223 44.2428359,72.6978785 C43.9975523,72.9425347 43.6648186,73.0798922 43.3179354,73.0796913 Z" id="Shape" fill="#662059"></path>
            <path d="M7.31538769,76.4534913 C7.31538769,79.4379826 14.86208,79.0840348 14.86208,84.4346652" id="Shape" fill="#FFFFFF"></path>
            <path d="M14.8622238,85.7384913 C14.5153746,85.7385813 14.1827056,85.6011882 13.9374461,85.356556 C13.6921867,85.1119239 13.5544413,84.7801056 13.5545315,84.4341435 C13.5545315,82.3464174 12.0303769,81.4535 9.70488154,80.3325826 C7.97192769,79.495713 6.00783923,78.5480261 6.00783923,76.4539348 C6.00783923,75.7335634 6.59331302,75.149587 7.31553154,75.149587 C8.03775006,75.149587 8.62322385,75.7335634 8.62322385,76.4539348 C8.62322385,76.9124913 9.85492615,77.5060739 10.8439992,77.9837391 C13.0915954,79.0677174 16.1699031,80.5542174 16.1699031,84.4341435 C16.1699933,84.7801033 16.0322497,85.1119196 15.7869931,85.3565514 C15.5417365,85.6011832 15.2090708,85.7385778 14.8622238,85.7384913 Z" id="Shape" fill="#662059"></path>
            <path d="M51.9190462,76.4534913 C51.9190462,79.4379826 44.3723538,79.0840348 44.3723538,84.4346652" id="Shape" fill="#FFFFFF"></path>
            <path d="M44.3727723,85.7384913 C44.0258891,85.7386922 43.6931554,85.6013347 43.4478718,85.3566785 C43.2025883,85.1120223 43.0648786,84.7801396 43.06508,84.4341435 C43.06508,80.5542174 46.14276,79.0677174 48.3903562,77.9837391 C49.38007,77.5060739 50.6111315,76.9124913 50.6111315,76.4539348 C50.6111315,75.7335634 51.1966053,75.149587 51.9188238,75.149587 C52.6410424,75.149587 53.2265162,75.7335634 53.2265162,76.4539348 C53.2265162,78.5480261 51.2623623,79.4956739 49.5294738,80.3325826 C47.2039785,81.453513 45.6804646,82.3464304 45.6804646,84.4341435 C45.680666,84.7801396 45.5429563,85.1120223 45.2976728,85.3566785 C45.0523892,85.6013347 44.7196556,85.7386922 44.3727723,85.7384913 Z" id="Shape" fill="#662059"></path>
            <path d="M33.6183631,95.5851696 C33.6183631,97.7323878 31.8732355,99.4730522 29.7205115,99.4730522 C27.5677876,99.4730522 25.82266,97.7323878 25.82266,95.5851696 L25.82266,90.1831348 L33.6781508,90.1831348 L33.6183631,95.5851696 Z" id="Shape" fill="#C93E4F"></path>
            <path d="M29.7206162,100.777974 C26.8466149,100.774653 24.5176981,98.4514295 24.5146931,95.5847783 C24.5146931,94.8644068 25.1001669,94.2804304 25.8223854,94.2804304 C26.5446039,94.2804304 27.1300777,94.8644068 27.1300777,95.5847783 C27.1300777,97.0116287 28.2897344,98.1683196 29.7202435,98.1683196 C31.1507525,98.1683196 32.3104092,97.0116287 32.3104092,95.5847783 C32.3104092,94.8642304 32.8960265,94.2801109 33.6184219,94.2801109 C34.3408174,94.2801109 34.9264346,94.8642304 34.9264346,95.5847783 C34.9232068,98.4512965 32.594484,100.774373 29.7206162,100.777974 Z" id="Shape" fill="#662059"></path>
            <path d="M7.12845308,73.6299696 C3.94899799,73.6299696 1.37154038,71.0591039 1.37154038,67.8877804 C1.37154038,64.7164569 3.94899799,62.1455913 7.12845308,62.1455913 C7.8506716,62.1455913 8.43614538,62.7295677 8.43614538,63.4499391 C8.43614538,64.1703105 7.8506716,64.754287 7.12845308,64.754287 C5.39343503,64.754287 3.986925,66.1571998 3.986925,67.8877804 C3.986925,69.6183611 5.39343503,71.0212739 7.12845308,71.0212739 C7.8506716,71.0212739 8.43614538,71.6052503 8.43614538,72.3256217 C8.43614538,73.0459932 7.8506716,73.6299696 7.12845308,73.6299696 Z" id="Shape" fill="#662059"></path>
            <path d="M52.2150946,73.6299696 C51.4928761,73.6299696 50.9074023,73.0459932 50.9074023,72.3256217 C50.9074023,71.6052503 51.4928761,71.0212739 52.2150946,71.0212739 C53.9501127,71.0212739 55.3566227,69.6183611 55.3566227,67.8877804 C55.3566227,66.1571998 53.9501127,64.754287 52.2150946,64.754287 C51.4928761,64.754287 50.9074023,64.1703105 50.9074023,63.4499391 C50.9074023,62.7295677 51.4928761,62.1455913 52.2150946,62.1455913 C55.3945497,62.1455913 57.9720073,64.7164569 57.9720073,67.8877804 C57.9720073,71.0591039 55.3945497,73.6299696 52.2150946,73.6299696 Z" id="Shape" fill="#662059"></path>
            <path d="M16.9513538,95.5636478 C21.3219368,95.5070049 25.6337986,94.5515127 29.6172823,92.7569261 L29.5952215,92.7569261 C48.9445692,100.855504 55.9040031,88.8646478 55.9040031,88.8646478 C52.2133946,89.6001174 49.4717915,87.6033435 41.6687915,82.7651783 C33.8657915,77.927013 29.5952215,84.2376435 29.5952215,84.2376435 L29.61723,84.2376435 C29.61723,84.2376435 25.3466731,77.9270652 17.54366,82.7651783 C9.74064692,87.6032913 6.99905692,89.6001174 3.30844846,88.8646478 C5.08881397,91.4786433 7.67379879,93.443621 10.6727962,94.4626609" id="Shape" fill="#FFFFFF"></path>
            <path d="M17.2464608,96.8700304 C17.1423815,96.8700304 17.0376615,96.8687261 16.9342231,96.8674217 C16.2118971,96.8575897 15.6342336,96.2657265 15.6437662,95.5452435 C15.6689249,94.8317804 16.2529838,94.2646537 16.9686938,94.2587261 C21.1024473,94.1907306 25.1800914,93.2926832 28.9582185,91.6181913 C29.3279331,91.4197338 29.7690711,91.403735 30.1522592,91.574887 C43.2119469,97.0253783 50.1718254,92.9849522 53.0898754,90.2157565 C50.4591646,89.7814087 47.6930292,88.0567087 42.8914054,85.0633217 L40.9783954,83.873613 C34.8830715,80.0943174 31.4382438,83.9704217 30.7882292,84.8187565 L30.7716215,84.8505957 C30.5222398,85.2452714 30.0884655,85.4860433 29.6207597,85.4893961 C29.1530538,85.4927489 28.7158548,85.2582206 28.4608115,84.8671609 C27.8331192,84.0239261 24.4144977,80.0420913 18.2336115,83.873613 L16.3206015,85.0633217 C11.5406331,88.0439652 8.77652462,89.767387 6.15597462,90.2093783 C7.58920843,91.5428288 9.27845088,92.5728057 11.1217531,93.2371478 C11.8002449,93.4844225 12.1493014,94.2334978 11.9013927,94.9102543 C11.6534839,95.5870108 10.9024879,95.9351747 10.2239962,95.6879 C6.93589845,94.566826 4.10837184,92.3988485 2.17670615,89.5177217 C1.91920113,89.0741431 1.94607387,88.5212421 2.2453889,88.1045885 C2.54470393,87.6879348 3.06095396,87.484796 3.56484769,87.5853957 C6.42346308,88.1598696 8.74261615,86.711587 14.9343692,82.8520348 L16.8531331,81.6572522 C23.2658077,77.6779739 27.6779877,80.470087 29.6063238,82.2852304 C31.5340192,80.4713783 35.9455715,77.6817957 42.3601554,81.6572522 L44.2782785,82.8520348 C50.4693908,86.7116 52.7859415,88.157313 55.6478,87.5853957 C56.1516094,87.4851366 56.6676059,87.6883599 56.9668338,88.1048922 C57.2660617,88.5214246 57.2930961,89.0741133 57.0359415,89.5177217 C55.4398398,91.9206089 53.199673,93.8284631 50.5702662,95.0242609 C46.6012108,96.9183696 39.7613785,98.2851304 29.6063238,94.1721043 C25.6981462,95.8542944 21.5018272,96.7702721 17.2464608,96.8700304 Z" id="Shape" fill="#662059"></path>
            <path d="M24.1554308,78.9978304 C24.1554308,82.0004898 26.5958085,84.4346261 29.6061669,84.4346261 C32.6165254,84.4346261 35.0569031,82.0004898 35.0569031,78.9978304" id="Shape" fill="#F2DDD7"></path>
            <path d="M29.6063238,85.7384913 C25.8754411,85.7345451 22.8518569,82.7189622 22.8475685,78.9976217 C22.8475685,78.2772503 23.4330423,77.6932739 24.1552608,77.6932739 C24.8774793,77.6932739 25.4629531,78.2772503 25.4629531,78.9976217 C25.4629531,81.2799133 27.3178599,83.1300761 29.6060035,83.1300761 C31.894147,83.1300761 33.7490538,81.2799133 33.7490538,78.9976217 C33.7490538,78.2772503 34.3345276,77.6932739 35.0567462,77.6932739 C35.7789647,77.6932739 36.3644385,78.2772503 36.3644385,78.9976217 C36.3602227,82.7187428 33.3369862,85.7342647 29.6063238,85.7384913 Z" id="Shape" fill="#662059"></path>
        </g>
    </g>
</svg>