<?xml version="1.0" encoding="UTF-8"?>
<svg width="300px" height="200px" viewBox="0 0 300 200" version="1.1" xmlns="http://www.w3.org/2000/svg" xmlns:xlink="http://www.w3.org/1999/xlink">
    <!-- Generator: Sketch 51.3 (57544) - http://www.bohemiancoding.com/sketch -->
    <title>snowflake-with-eight-points</title>
    <desc>Created with Sketch.</desc>
    <defs></defs>
    <g id="snowflake-with-eight-points" stroke="none" stroke-width="1" fill="none" fill-rule="evenodd">
        <g id="Snowflake2" transform="translate(91.000000, 41.000000)" fill-rule="nonzero">
            <ellipse id="Oval" fill="#DAF2F1" cx="102.339714" cy="103.673239" rx="8.42857143" ry="8.45070423"></ellipse>
            <ellipse id="Oval" fill="#DAF2F1" cx="8.42857143" cy="63.9380282" rx="8.42857143" ry="8.45070423"></ellipse>
            <ellipse id="Oval" fill="#DAF2F1" cx="63.13" cy="8.45070423" rx="8.42857143" ry="8.45070423"></ellipse>
            <ellipse id="Oval" fill="#2D9693" cx="62.4051429" cy="63.9380282" rx="28.0165714" ry="28.0901408"></ellipse>
            <path d="M62.4051429,35.8478873 C46.9320177,35.8478873 34.3885714,48.4242718 34.3885714,63.9380282 C34.3885714,79.4517846 46.9320177,92.028169 62.4051429,92.028169" id="Shape" fill="#56B2AD"></path>
            <path d="M33.5625714,57.0591549 C29.97982,72.1414436 38.538179,87.4566628 53.2381069,92.2686075 C67.9380347,97.0805523 83.8610834,89.7791943 89.84495,75.4828981 C95.8288167,61.186602 89.8713598,44.6787646 76.1488485,37.5316346 C62.4263373,30.3845047 45.5301859,34.98944 37.3048571,48.1183099 C36.8895008,48.9011518 37.1481722,49.8727329 37.8973905,50.3438908 C38.6466088,50.8150487 39.6316108,50.6255714 40.1537143,49.9098592 C47.4892958,38.3789083 62.4192947,34.416101 74.4844316,40.7976001 C86.5495685,47.1790992 91.7166026,61.7716407 86.3657444,74.3523526 C81.0148863,86.9330645 66.934868,93.296355 53.9895113,88.9843917 C41.0441545,84.6724284 33.5609477,71.1266525 36.7822857,57.8366197 C36.9964144,56.9265167 36.434148,56.014691 35.5264286,55.8 C34.6187091,55.585309 33.7092715,56.1490519 33.4951429,57.0591549 L33.5625714,57.0591549 Z" id="Shape" fill="#662059"></path>
            <path d="M52.6617143,65.628169 L116.010857,65.628169 C116.941851,65.628169 117.696571,64.8714672 117.696571,63.9380282 C117.696571,63.0045892 116.941851,62.2478873 116.010857,62.2478873 L52.6617143,62.2478873 C51.73072,62.2478873 50.976,63.0045892 50.976,63.9380282 C50.976,64.8714672 51.73072,65.628169 52.6617143,65.628169" id="Shape" fill="#662059"></path>
            <path d="M10.1142857,65.628169 L43.2891429,65.628169 C44.2201371,65.628169 44.9748571,64.8714672 44.9748571,63.9380282 C44.9748571,63.0045892 44.2201371,62.2478873 43.2891429,62.2478873 L10.1142857,62.2478873 C9.18329142,62.2478873 8.42857143,63.0045892 8.42857143,63.9380282 C8.42857143,64.8714672 9.18329142,65.628169 10.1142857,65.628169" id="Shape" fill="#662059"></path>
            <path d="M61.3768571,82.7492958 L61.3768571,117.025352 C61.3768571,117.958791 62.1315771,118.715493 63.0625714,118.715493 C63.9935657,118.715493 64.7482857,117.958791 64.7482857,117.025352 L64.7482857,82.7492958 C64.7482857,81.8158568 63.9935657,81.0591549 63.0625714,81.0591549 C62.1315771,81.0591549 61.3768571,81.8158568 61.3768571,82.7492958" id="Shape" fill="#662059"></path>
            <path d="M61.3768571,10.8507042 L61.3768571,74.2985915 C61.3768571,75.2320306 62.1315771,75.9887324 63.0625714,75.9887324 C63.9935657,75.9887324 64.7482857,75.2320306 64.7482857,74.2985915 L64.7482857,10.8507042 C64.7482857,9.91726521 63.9935657,9.16056338 63.0625714,9.16056338 C62.1315771,9.16056338 61.3768571,9.91726521 61.3768571,10.8507042" id="Shape" fill="#662059"></path>
            <path d="M26.5837143,29.7464789 L97.1645714,100.512676 C97.8333959,101.086947 98.8303845,101.048336 99.4530351,100.424051 C100.075686,99.7997648 100.114195,98.8001582 99.5414286,98.1295775 L28.9605714,27.3633803 C28.291747,26.7891096 27.2947584,26.8277201 26.6721077,27.4520058 C26.049457,28.0762915 26.0109477,29.0758981 26.5837143,29.7464789" id="Shape" fill="#662059"></path>
            <path d="M64.2594286,29.6112676 L76.0594286,17.7802817 C76.6321952,17.1097009 76.5936858,16.1100944 75.9710351,15.4858086 C75.3483845,14.8615229 74.3513959,14.8229125 73.6825714,15.3971831 L61.8825714,27.228169 C61.4015088,27.6412223 61.1919647,28.2897776 61.3400915,28.907187 C61.4882183,29.5245964 61.9690156,30.0066563 62.584808,30.1551721 C63.2006004,30.3036878 63.8474571,30.0935935 64.2594286,29.6112676" id="Shape" fill="#662059"></path>
            <path d="M50.2005714,17.915493 L56.404,24.1352113 C57.0728245,24.7094819 58.069813,24.6708714 58.6924637,24.0465857 C59.3151144,23.4223 59.3536237,22.4226934 58.7808571,21.7521127 L52.5774286,15.5323944 C52.1654571,15.0500685 51.5186004,14.8399742 50.902808,14.9884899 C50.2870156,15.1370056 49.8062183,15.6190655 49.6580915,16.236475 C49.5099647,16.8538844 49.7195088,17.5024396 50.2005714,17.915493" id="Shape" fill="#662059"></path>
            <path d="M76.0425714,110.771831 L64.3774286,99.0760563 C63.7199369,98.4207489 62.6580631,98.4207489 62.0005714,99.0760563 L50.2005714,110.907042 C49.7195088,111.320096 49.5099647,111.968651 49.6580915,112.58606 C49.8062183,113.20347 50.2870156,113.68553 50.902808,113.834045 C51.5186004,113.982561 52.1654571,113.772467 52.5774286,113.290141 L63.1805714,102.659155 L73.6488571,113.15493 C74.3176816,113.7292 75.3146702,113.69059 75.9373209,113.066304 C76.5599715,112.442018 76.5984809,111.442412 76.0257143,110.771831 L76.0425714,110.771831 Z" id="Shape" fill="#662059"></path>
            <path d="M109.419714,51.3971831 L97.7545714,63.0929577 C97.1009802,63.752176 97.1009802,64.8168381 97.7545714,65.4760563 L109.554571,77.3070423 C110.223396,77.8813129 111.220384,77.8427024 111.843035,77.2184167 C112.465686,76.594131 112.504195,75.5945244 111.931429,74.9239437 L101.328286,64.2929577 L111.796571,53.7971831 C112.369338,53.1266023 112.330829,52.1269958 111.708178,51.50271 C111.085527,50.8784243 110.088539,50.8398139 109.419714,51.4140845 L109.419714,51.3971831 Z" id="Shape" fill="#662059"></path>
            <path d="M16.8234286,77.3070423 L28.5054286,65.6112676 C29.1590198,64.9520494 29.1590198,63.8873872 28.5054286,63.228169 L16.7054286,51.3971831 C16.2934571,50.9148572 15.6466004,50.7047629 15.030808,50.8532786 C14.4150156,51.0017944 13.9342183,51.4838543 13.7860915,52.1012637 C13.6379647,52.7186731 13.8475088,53.3672284 14.3285714,53.7802817 L24.9317143,64.4112676 L14.4634286,74.9070423 C13.9823659,75.3200956 13.7728219,75.9686508 13.9209486,76.5860602 C14.0690754,77.2034697 14.5498728,77.6855296 15.1656652,77.8340453 C15.7814576,77.982561 16.4283142,77.7724667 16.8402857,77.2901408 L16.8234286,77.3070423 Z" id="Shape" fill="#662059"></path>
            <path d="M105.003143,88.0901408 L88.5168571,88.0901408 C87.5858629,88.0901408 86.8311429,88.8468427 86.8311429,89.7802817 L86.8311429,106.495775 C86.8311429,107.429214 87.5858629,108.185915 88.5168571,108.185915 C89.4478514,108.185915 90.2025714,107.429214 90.2025714,106.495775 L90.2025714,91.4704225 L105.02,91.4704225 C105.950994,91.4704225 106.705714,90.7137207 106.705714,89.7802817 C106.705714,88.8468427 105.950994,88.0901408 105.02,88.0901408 L105.003143,88.0901408 Z" id="Shape" fill="#662059"></path>
            <path d="M21.24,40.6816901 L37.7431429,40.6816901 C38.6741371,40.6816901 39.4288571,39.9249883 39.4288571,38.9915493 L39.4288571,22.2760563 C39.4288571,21.3426173 38.6741371,20.5859155 37.7431429,20.5859155 C36.8121486,20.5859155 36.0574286,21.3426173 36.0574286,22.2760563 L36.0574286,37.3014085 L21.24,37.3014085 C20.3090057,37.3014085 19.5542857,38.0581103 19.5542857,38.9915493 C19.5542857,39.9249883 20.3090057,40.6816901 21.24,40.6816901 Z" id="Shape" fill="#662059"></path>
            <path d="M39.5131429,106.343662 L39.5131429,89.7802817 C39.5131429,88.8468427 38.7584229,88.0901408 37.8274286,88.0901408 L21.1557143,88.0901408 C20.22472,88.0901408 19.47,88.8468427 19.47,89.7802817 C19.47,90.7137207 20.22472,91.4704225 21.1557143,91.4704225 L36.1417143,91.4704225 L36.1417143,106.326761 C36.1417143,107.2602 36.8964343,108.016901 37.8274286,108.016901 C38.7584229,108.016901 39.5131429,107.2602 39.5131429,106.326761 L39.5131429,106.343662 Z" id="Shape" fill="#662059"></path>
            <path d="M86.73,22.3605634 L86.73,38.9070423 C86.73,39.8404813 87.48472,40.5971831 88.4157143,40.5971831 L105.087429,40.5971831 C106.018423,40.5971831 106.773143,39.8404813 106.773143,38.9070423 C106.773143,37.9736032 106.018423,37.2169014 105.087429,37.2169014 L90.1014286,37.2169014 L90.1014286,22.3605634 C90.1014286,21.4271244 89.3467086,20.6704225 88.4157143,20.6704225 C87.48472,20.6704225 86.73,21.4271244 86.73,22.3605634 Z" id="Shape" fill="#662059"></path>
            <path d="M74.5928571,49.9943662 L26.5837143,98.1295775 C26.0109477,98.8001582 26.049457,99.7997648 26.6721077,100.424051 C27.2947584,101.048336 28.291747,101.086947 28.9605714,100.512676 L76.9697143,52.3774648 C77.450777,51.9644115 77.660321,51.3158562 77.5121942,50.6984468 C77.3640675,50.0810374 76.8832701,49.5989775 76.2674777,49.4504617 C75.6516853,49.301946 75.0048287,49.5120403 74.5928571,49.9943662" id="Shape" fill="#662059"></path>
            <path d="M97.1645714,27.3633803 L81.3525714,43.2169014 C80.7798048,43.8874822 80.8183142,44.8870887 81.4409649,45.5113745 C82.0636155,46.1356602 83.0606041,46.1742706 83.7294286,45.6 L99.5414286,29.7464789 C100.022491,29.3334256 100.232035,28.6848703 100.083909,28.0674609 C99.9357817,27.4500515 99.4549844,26.9679916 98.839192,26.8194758 C98.2233996,26.6709601 97.5765429,26.8810544 97.1645714,27.3633803" id="Shape" fill="#662059"></path>
            <path d="M77.9305714,71.5267606 L82.5325714,71.5267606 C83.4635657,71.5267606 84.2182857,70.7700587 84.2182857,69.8366197 C84.2182857,68.9031807 83.4635657,68.1464789 82.5325714,68.1464789 L77.9305714,68.1464789 C76.9995771,68.1464789 76.2448571,68.9031807 76.2448571,69.8366197 C76.2448571,70.7700587 76.9995771,71.5267606 77.9305714,71.5267606" id="Shape" fill="#FFFFFF"></path>
            <path d="M55.8982857,43.8760563 L55.8982857,48.4901408 C55.8982857,49.4235799 56.6530057,50.1802817 57.584,50.1802817 C58.5149943,50.1802817 59.2697143,49.4235799 59.2697143,48.4901408 L59.2697143,43.8760563 C59.2697143,42.9426173 58.5149943,42.1859155 57.584,42.1859155 C56.6530057,42.1859155 55.8982857,42.9426173 55.8982857,43.8760563" id="Shape" fill="#FFFFFF"></path>
            <path d="M81.2345714,57.4309859 C82.1596927,57.4361082 82.9595088,56.7851031 83.1446376,55.8762998 C83.3297665,54.9674965 82.8486129,54.0541778 81.9955795,53.6951741 C81.142546,53.3361704 80.1553723,53.6315358 79.6380784,54.4005457 C79.1207846,55.1695556 79.2175399,56.1978875 79.8691429,56.856338 C80.2315484,57.2199537 80.7218914,57.4263172 81.2345714,57.4309859" id="Shape" fill="#FFFFFF"></path>
        </g>
    </g>
</svg>