<?xml version="1.0" encoding="UTF-8"?>
<svg width="300px" height="200px" viewBox="0 0 300 200" version="1.1" xmlns="http://www.w3.org/2000/svg" xmlns:xlink="http://www.w3.org/1999/xlink">
    <!-- Generator: Sketch 51.3 (57544) - http://www.bohemiancoding.com/sketch -->
    <title>string-of-colorful-christmas-lights</title>
    <desc>Created with Sketch.</desc>
    <defs></defs>
    <g id="string-of-colorful-christmas-lights" stroke="none" stroke-width="1" fill="none" fill-rule="evenodd">
        <g id="Stringoflights" transform="translate(48.000000, 11.000000)" fill-rule="nonzero">
            <path d="M42.9897059,119.430872 C33.6982547,117.199641 24.6979605,113.891428 16.1708824,109.573154 C15.7857954,109.361308 15.3161747,109.376029 14.9450615,109.611579 C14.5739484,109.84713 14.3600728,110.266233 14.3867958,110.705538 C14.4135188,111.144843 14.6766113,111.534827 15.0735294,111.72349 C23.7685106,116.131548 32.946977,119.508722 42.4229412,121.786577 C43.057352,121.917934 43.6820072,121.523667 43.8376006,120.893678 C43.9931939,120.263689 43.6241233,119.623109 43.0017647,119.442953 L42.9897059,119.430872 Z" id="Shape" fill="#662059"></path>
            <path d="M134.504118,96.7315436 C135.878824,96.6469799 137.217353,96.6107383 138.507647,96.6107383 C141.683898,96.5272999 144.855634,96.9015958 147.925588,97.7221477 C149.02583,98.0400286 150.070986,98.5248436 151.024706,99.1597315 C151.774155,99.655318 152.391046,100.327239 152.821471,101.116779 C153.560986,102.419968 153.974722,103.883083 154.027353,105.381208 C154.02018,106.738085 153.557169,108.053021 152.712941,109.114094 C151.350294,110.926174 148.781765,112.738255 144.910882,114.405369 C139.939483,116.447958 134.80412,118.064489 129.56,119.237584 C114.733491,122.566406 99.5818763,124.223685 84.3876471,124.178523 C72.7549865,124.227362 61.1447785,123.151231 49.7185294,120.965101 C49.2877091,120.880939 48.8447959,121.033425 48.556631,121.365117 C48.2684661,121.69681 48.1788285,122.157317 48.3214839,122.573171 C48.4641393,122.989025 48.817415,123.297047 49.2482353,123.381208 C60.8292735,125.598981 72.5970166,126.691298 84.3876471,126.642953 C99.7689403,126.685554 115.106703,125.003953 130.114706,121.62953 C138.724706,119.563758 145.152059,117.413423 149.541471,114.87651 C151.495153,113.826131 153.220865,112.397083 154.618235,110.672483 C155.782288,109.191322 156.418938,107.362972 156.427059,105.477852 C156.372375,103.586941 155.859178,101.737765 154.931765,100.089933 C154.320466,98.9575898 153.443011,97.9914815 152.375294,97.2751678 C150.544054,96.0988948 148.492341,95.309618 146.345882,94.9557047 C143.744341,94.4819059 141.103402,94.2594088 138.459412,94.2912752 C137.120882,94.2912752 135.734118,94.2912752 134.323235,94.4120805 C133.892415,94.4358183 133.506962,94.6880067 133.312072,95.0736487 C133.117183,95.4592907 133.142465,95.9197981 133.378396,96.2817024 C133.614327,96.6436066 134.025062,96.8519257 134.455882,96.8281879 L134.504118,96.7315436 Z" id="Shape" fill="#662059"></path>
            <path d="M38.6726471,65.0322148 C34.2323626,66.2747465 30.2534714,68.7949082 27.2288235,72.2805369 C21.6252492,78.6642595 21.9151204,88.3053134 27.8920588,94.3395973 C31.0152941,97.6979866 35.6941176,100.379866 41.9526471,101.926174 C52.8321166,104.555216 63.9832019,105.889268 75.1747059,105.900671 C84.7997848,106.008584 94.3957983,104.822159 103.705882,102.373154 C111.390367,100.201847 119.214942,98.5630733 127.124118,97.4684564 C127.554938,97.4123489 127.923153,97.1302497 128.09006,96.7284229 C128.256967,96.326596 128.197209,95.8660885 127.933295,95.5203692 C127.669382,95.1746498 127.241409,94.9962415 126.810588,95.052349 C118.787537,96.1588717 110.850116,97.8178332 103.054706,100.01745 C93.9567137,102.408096 84.5798641,103.566061 75.1747059,103.460403 C64.1738439,103.446623 53.213008,102.132847 42.5194118,99.5463087 C36.6226471,98.1087248 32.39,95.6080537 29.6526471,92.6604027 C24.5088322,87.5166252 24.2602955,79.2471703 29.0858824,73.8026846 C31.8108681,70.688066 35.3867919,68.4412149 39.3720588,67.3395973 C39.9687243,67.1165795 40.2894245,66.4672036 40.1043814,65.8567403 C39.9193383,65.246277 39.2923502,64.885199 38.6726471,65.0322148 Z" id="Shape" fill="#662059"></path>
            <path d="M99.8952941,52.9516779 C97.3119749,57.2178318 93.4687804,60.5740172 88.8976471,62.5557047 C84.5678989,64.2302667 79.9460836,65.0149662 75.3073529,64.8630872 C67.5535294,64.8630872 59.1605882,63.4375839 51.0088235,63.4375839 C49.9476471,63.4375839 48.8864706,63.4375839 47.8373529,63.5221477 C47.4065326,63.5458854 47.0210794,63.7980737 46.8261898,64.1837157 C46.6313002,64.5693578 46.6565826,65.0298653 46.8925134,65.3917695 C47.1284441,65.7536738 47.5391797,65.9619929 47.97,65.938255 C48.9708824,65.938255 49.9838235,65.8657718 51.0088235,65.8657718 C58.8832353,65.8657718 67.2761765,67.2912752 75.3073529,67.2912752 C80.2864544,67.4468353 85.2455403,66.5921229 89.8864706,64.7785235 C94.8936974,62.6019112 99.1059524,58.9264308 101.945294,54.2563758 C102.262999,53.6984226 102.089296,52.9889647 101.549938,52.6416097 C101.010579,52.2942548 100.294197,52.4304852 99.9194118,52.9516779 L99.8952941,52.9516779 Z" id="Shape" fill="#662059"></path>
            <path d="M31.3167647,50.547651 C30.9331187,46.7669397 29.9606437,43.0697725 28.4347059,39.590604 C25.7214706,32.8375839 18.0641176,27.1718121 15.5076471,28.2107383 C12.9511765,29.2496644 11.4438235,38.8295302 14.0847059,45.3892617 C15.4173421,48.9787735 17.4046529,52.2887292 19.9452941,55.1503356 L31.3167647,50.547651" id="Shape" fill="#FB5956"></path>
            <path d="M14.1088235,45.4496644 C12.1785912,46.2378618 10.8841208,48.0809479 10.7954911,50.167236 C10.7068613,52.253524 11.8403382,54.200126 13.6967436,55.1497672 C15.553149,56.0994084 17.7917843,55.8778051 19.4267647,54.5825503 C17.1830443,51.8392303 15.3880771,48.7566031 14.1088235,45.4496644" id="Shape" fill="#F7DCDC"></path>
            <path d="M16.1105882,45.0510067 C15.4287479,45.0508894 14.7532467,45.1821315 14.1208824,45.4375839 C15.4001359,48.7445226 17.1951031,51.8271498 19.4388235,54.5704698 C21.2148242,53.1561628 21.9024944,50.7705851 21.1525254,48.6255138 C20.4025564,46.4804425 18.37934,45.0460728 16.1105882,45.0510067" id="Shape" fill="#F34D4A"></path>
            <path d="M35.1997059,60.1879195 L34.7535294,59.0644295 L24.5035294,63.2080537 L21.525,55.8147651 L30.6655882,52.1181208 L34.1023529,60.6348993 L35.2238235,60.1879195 L34.7776471,59.0644295 L35.2238235,60.1879195 L36.3452941,59.7409396 L32.4623529,50.0765101 C32.2116464,49.460308 31.5107362,49.1632351 30.8947059,49.4120805 L19.5232353,54.0147651 C18.9081408,54.2659231 18.6116018,54.9680953 18.86,55.5852349 L22.7429412,65.2496644 C22.9936477,65.8658665 23.6945579,66.1629394 24.3105882,65.914094 L35.6820588,61.3114094 C36.2971533,61.0602514 36.5936923,60.3580792 36.3452941,59.7409396 L35.1997059,60.1879195 Z" id="Shape" fill="#662059"></path>
            <path d="M28.3864706,62.990604 L30.7982353,68.366443 C31.0746214,68.9735854 31.7899781,69.241313 32.3960293,68.9644293 C33.0020805,68.6875457 33.2693271,67.9709009 32.9929412,67.3637584 L30.5811765,61.9879195 C30.4023861,61.5951671 30.0280226,61.3278042 29.5991052,61.2865439 C29.1701878,61.2452835 28.7518793,61.4363941 28.5017523,61.7878862 C28.2516253,62.1393782 28.2076802,62.5978517 28.3864706,62.990604" id="Shape" fill="#662059"></path>
            <path d="M22.3570588,61.0818792 L33.7285294,56.4791946 C34.1536806,56.336213 34.4645082,55.9686823 34.5354555,55.525064 C34.6064027,55.0814458 34.4257485,54.6350297 34.066467,54.3661426 C33.7071854,54.0972556 33.2286329,54.05032 32.8241176,54.2442953 L21.4526471,58.8469799 C21.0274959,58.9899615 20.7166683,59.3574922 20.645721,59.8011105 C20.5747737,60.2447287 20.7554279,60.6911448 21.1147095,60.9600319 C21.4739911,61.2289189 21.9525436,61.2758545 22.3570588,61.0818792" id="Shape" fill="#662059"></path>
            <path d="M32.5226471,50.4993289 C32.1370508,46.5773028 31.1359079,42.740832 29.5561765,39.1315436 C28.1407679,35.8573469 26.0103451,32.9428657 23.3217647,30.6026846 C22.1910023,29.5806694 20.9491929,28.6891711 19.6197059,27.9449664 C18.5847778,27.3173888 17.4142565,26.9486114 16.2070588,26.8697987 C15.7954033,26.856335 15.3852656,26.926184 15.0011765,27.0751678 C14.288745,27.4036965 13.697953,27.9490493 13.3129412,28.633557 C12.6376249,29.8179046 12.1686605,31.1088575 11.9261765,32.4510067 C11.6164644,34.1035283 11.4750528,35.7832849 11.5041176,37.4644295 C11.4664965,40.3227347 11.9655545,43.1626523 12.9752941,45.8362416 C14.3667323,49.5759983 16.4444513,53.0218802 19.1011765,55.9959732 C19.5740297,56.4663418 20.3379767,56.4636375 20.8075,55.9899329 C21.2770232,55.5162282 21.2743238,54.7509056 20.8014706,54.2805369 C18.3868768,51.5308618 16.4946643,48.3619426 15.2182353,44.9302013 C14.3236262,42.5446263 13.8819264,40.0125703 13.9158824,37.4644295 C13.8942943,35.5219879 14.1459834,33.5861858 14.6635294,31.714094 C14.8386241,31.0839247 15.0939572,30.4789542 15.4232353,29.914094 C15.5466354,29.667549 15.7340938,29.4588869 15.9658824,29.3100671 C16.0495909,29.2946306 16.1354091,29.2946306 16.2191176,29.3100671 C17.0230252,29.3946301 17.7977442,29.6588391 18.4861765,30.0832215 C22.3984028,32.4000616 25.4891193,35.8849626 27.3252941,40.0496644 C28.366093,42.5673701 29.1734183,45.1756825 29.7370588,47.8416107 C29.9179412,48.7597315 30.0144118,49.4604027 30.0747059,49.9315436 C30.0747059,50.1610738 30.0747059,50.3422819 30.0747059,50.4510067 L30.0747059,50.5959732 C30.1013456,51.2631627 30.6628331,51.7823922 31.3288235,51.7557046 C31.9948139,51.729017 32.5131101,51.1665185 32.4864706,50.4993289 L32.5226471,50.4993289 Z" id="Shape" fill="#662059"></path>
            <path d="M10.8891176,19.4644295 L12.6135294,23.7288591 C12.756254,24.1547758 13.1231242,24.4661631 13.5659451,24.5372381 C14.008766,24.6083131 14.4543796,24.4273336 14.7227834,24.0674051 C14.9911872,23.7074766 15.0380384,23.2280624 14.8444118,22.8228188 L13.12,18.5583893 C12.9772754,18.1324725 12.6104052,17.8210852 12.1675844,17.7500102 C11.7247635,17.6789352 11.2791498,17.8599147 11.010746,18.2198432 C10.7423422,18.5797718 10.695491,19.0591859 10.8891176,19.4644295" id="Shape" fill="#FB5956"></path>
            <path d="M4.26882353,33.2241611 L7.88647059,34.7463087 C8.28639876,34.934774 8.75719838,34.8889646 9.11344895,34.626922 C9.46969952,34.3648795 9.6543139,33.9285947 9.59458328,33.4898948 C9.53485265,33.0511949 9.2403485,32.680379 8.82705882,32.5234899 L5.20941176,31.0013423 C4.80948359,30.812877 4.33868398,30.8586864 3.98243341,31.120729 C3.62618283,31.3827715 3.44156845,31.8190563 3.50129908,32.2577562 C3.56102971,32.6964561 3.85553385,33.067272 4.26882353,33.2241611" id="Shape" fill="#FB5956"></path>
            <path d="M4.53411765,46.7543624 L8.36882353,45.9449664 C8.7996438,45.8564893 9.15062097,45.5444792 9.28954534,45.1264675 C9.42846971,44.7084558 9.33423536,44.2479484 9.04233946,43.9184138 C8.75044356,43.5888793 8.30523203,43.4403819 7.87441176,43.5288591 L4.03970588,44.338255 C3.60888555,44.4267322 3.25790829,44.7387422 3.11898388,45.1567539 C2.98005947,45.5747657 3.07429383,46.0352732 3.36618979,46.3648077 C3.65808574,46.6943423 4.10329734,46.8428397 4.53411765,46.7543624" id="Shape" fill="#FB5956"></path>
            <path d="M25.215,23.052349 L23.7679412,26.4711409 C23.5383917,27.0780179 23.8284925,27.7581543 24.4249338,28.0114488 C25.021375,28.2647432 25.7110151,28.0006797 25.9867647,27.4134228 L27.4338235,23.9946309 C27.663373,23.3877539 27.3732722,22.7076176 26.7768309,22.4543231 C26.1803897,22.2010286 25.4907496,22.4650921 25.215,23.052349" id="Shape" fill="#FB5956"></path>
            <path d="M35.1032353,31.895302 L31.8955882,33.9006711 C31.3294964,34.2542816 31.156731,35.000674 31.5097059,35.5677852 C31.8626808,36.1348964 32.6077317,36.3079729 33.1738235,35.9543624 L36.3814706,33.9489933 C36.9475625,33.5953828 37.1203279,32.8489904 36.7673529,32.2818792 C36.414378,31.714768 35.6693272,31.5416915 35.1032353,31.895302" id="Shape" fill="#FB5956"></path>
            <path d="M18.9082353,129.05906 C16.2289426,131.748979 13.9869452,134.842882 12.2638235,138.228188 C8.76676471,144.606711 9.24911765,154.138255 11.6608824,155.455034 C14.0726471,156.771812 22.4414706,151.830872 25.83,145.669799 C27.7555944,142.365954 29.051799,138.732504 29.6526471,134.954362 L18.8961765,129.04698" id="Shape" fill="#FB5956"></path>
            <path d="M29.5923529,135.727517 C28.8931608,139.204285 27.647673,142.547876 25.9023529,145.633557 C27.733399,146.631152 29.9768941,146.467979 31.6449041,145.21589 C33.312914,143.963802 34.0993503,141.852564 33.6579017,139.81187 C33.2164532,137.771176 31.628128,136.175504 29.5923529,135.727517" id="Shape" fill="#F7DCDC"></path>
            <path d="M28.3864706,135.606711 C25.9472611,135.599546 23.8144525,137.252096 23.208131,139.619012 C22.6018095,141.985927 23.676715,144.463145 25.8179412,145.633557 C27.5634466,142.547963 28.8089457,139.204341 29.5079412,135.727517 C29.1394641,135.647444 28.7635169,135.606947 28.3864706,135.606711" id="Shape" fill="#F34D4A"></path>
            <path d="M23.9005882,119.938255 L23.3217647,121.001342 L32.9688235,126.328859 L29.1461765,133.32349 L20.5120588,128.575839 L24.9135294,120.518121 L23.8523529,119.938255 L23.2735294,121.001342 L23.8523529,119.938255 L22.7911765,119.358389 L17.7988235,128.479195 C17.6445213,128.760981 17.6086661,129.092749 17.6991915,129.401089 C17.7897169,129.70943 17.9991596,129.968922 18.2811765,130.122148 L29.0376471,136.02953 C29.3189265,136.18411 29.6500985,136.22003 29.9578849,136.129342 C30.2656713,136.038653 30.5246967,135.828833 30.6776471,135.546309 L35.67,126.425503 C35.8243022,126.143717 35.8601575,125.811949 35.7696321,125.503609 C35.6791066,125.195268 35.4696639,124.935776 35.1876471,124.78255 L24.4311765,118.875168 C24.149897,118.720588 23.8187251,118.684668 23.5109387,118.775356 C23.2031523,118.866045 22.9441268,119.075865 22.7911765,119.358389 L23.9005882,119.938255 Z" id="Shape" fill="#662059"></path>
            <path d="M30.3520588,123.42953 L32.9447059,118.126174 C33.2377417,117.525704 32.9893914,116.800946 32.39,116.507383 C31.7906086,116.213819 31.0671534,116.462617 30.7741176,117.063087 L28.1814706,122.366443 C27.8884349,122.966914 28.1367853,123.691671 28.7361766,123.985235 C29.3355679,124.278798 30.059023,124.030001 30.3520588,123.42953" id="Shape" fill="#662059"></path>
            <path d="M32.7397059,129.348993 L21.9832353,123.441611 C21.4004937,123.108016 20.6581424,123.31084 20.3251472,123.894631 C19.9921521,124.478422 20.1946114,125.22211 20.7773529,125.555705 L31.5338235,131.463087 C32.1165651,131.796682 32.8589164,131.593858 33.1919116,131.010067 C33.5249068,130.426276 33.3224474,129.682588 32.7397059,129.348993" id="Shape" fill="#662059"></path>
            <path d="M9.09235294,143.881879 C8.77289003,145.521644 8.61136421,147.188356 8.61,148.85906 C8.56687429,150.399931 8.72908879,151.939681 9.09235294,153.437584 C9.25600093,154.054502 9.49922666,154.647417 9.81588235,155.201342 C10.0998265,155.725994 10.5154705,156.16737 11.0217647,156.481879 C11.513389,156.735134 12.0609331,156.8598 12.6135294,156.844295 C13.8192796,156.782477 15.0003219,156.478468 16.0864706,155.950336 C18.2069653,154.969048 20.1731712,153.683015 21.9229412,152.132886 C23.8887733,150.459367 25.5494449,148.456432 26.8308824,146.213423 C28.83873,142.765331 30.1843663,138.971098 30.7982353,135.026846 C30.8615043,134.359656 30.3729021,133.76741 29.7069117,133.704027 C29.0409214,133.640644 28.4497398,134.130126 28.3864706,134.797315 C27.8195248,138.42488 26.5933641,141.917541 24.7688235,145.102013 C23.2148454,147.741001 21.1134866,150.015049 18.6067647,151.77047 C17.5286948,152.558794 16.3730942,153.234783 15.1579412,153.787919 C14.3773575,154.174895 13.5300571,154.408629 12.6617647,154.47651 C12.5134389,154.485748 12.3649645,154.460958 12.2276471,154.404027 C12.0798151,154.297267 11.9598569,154.156373 11.8779412,153.993289 C11.5437691,153.36681 11.3155777,152.689168 11.2026471,151.987919 C11.0168045,150.951496 10.9279875,149.89995 10.9373529,148.84698 C10.9421911,147.334144 11.0915982,145.825246 11.3835294,144.34094 C11.4653853,143.909344 11.3111833,143.466784 10.9790099,143.179969 C10.6468366,142.893154 10.1871568,142.805658 9.77312759,142.950439 C9.35909836,143.09522 9.05362056,143.450283 8.97176471,143.881879 L9.09235294,143.881879 Z" id="Shape" fill="#662059"></path>
            <path d="M18.1123529,128.15302 C15.3289962,130.935034 13.0011666,134.139525 11.2147059,137.648322 C10.9992956,138.025969 11.0013583,138.490055 11.2201168,138.865765 C11.4388754,139.241475 11.8410953,139.471729 12.275264,139.469792 C12.7094328,139.467855 13.1095899,139.234022 13.325,138.856376 C14.6135097,136.460011 16.1191568,134.187364 17.8229412,132.067114 C18.4138235,131.342282 18.8961765,130.85906 19.2217647,130.484564 L19.5955882,130.110067 L19.68,130.025503 C20.1794928,129.581822 20.2253836,128.8165 19.7825,128.316107 C19.3396164,127.815715 18.5756693,127.769742 18.0761765,128.213423 L18.1123529,128.15302 Z" id="Shape" fill="#662059"></path>
            <path d="M7.88647059,164.575839 L10.0932353,160.54094 C10.3086454,160.163293 10.3065827,159.699206 10.0878241,159.323497 C9.86906557,158.947787 9.46684579,158.717533 9.03267708,158.71947 C8.59850838,158.721406 8.19835131,158.955239 7.98294118,159.332886 L5.77617647,163.367785 C5.44318125,163.951576 5.64564072,164.695264 6.22838235,165.028859 C6.81112398,165.362454 7.55347537,165.15963 7.88647059,164.575839" id="Shape" fill="#FB5956"></path>
            <path d="M22.6464706,160.987919 L21.5611765,157.255034 C21.3746991,156.614532 20.7052332,156.246744 20.0658824,156.433557 C19.4265315,156.62037 19.059405,157.291042 19.2458824,157.931544 L20.3311765,161.66443 C20.4518061,162.078762 20.7839188,162.397149 21.2024109,162.499659 C21.620903,162.602169 22.0621956,162.473227 22.360058,162.161404 C22.6579204,161.849581 22.7671003,161.402252 22.6464706,160.987919" id="Shape" fill="#FB5956"></path>
            <path d="M32.9447059,152.22953 L29.8938235,149.813423 C29.3730684,149.421508 28.6357643,149.514689 28.2284841,150.02389 C27.821204,150.533091 27.8911501,151.274272 28.3864706,151.697987 L31.4373529,154.114094 C31.958108,154.506009 32.6954122,154.412827 33.1026923,153.903627 C33.5099725,153.394426 33.4400263,152.653245 32.9447059,152.22953" id="Shape" fill="#FB5956"></path>
            <path d="M1.54352941,151.214765 L5.16117647,150.175839 C5.80052729,149.989026 6.16765379,149.318354 5.98117647,148.677852 C5.79469915,148.03735 5.12523317,147.669563 4.48588235,147.856376 L0.868235294,148.895302 C0.228884478,149.082115 -0.138242027,149.752787 0.0482352941,150.393289 C0.234712616,151.033791 0.904178595,151.401578 1.54352941,151.214765" id="Shape" fill="#FB5956"></path>
            <path d="M2.11029412,137.938255 L5.72794118,139.146309 C6.13722043,139.284419 6.58895882,139.193298 6.91299087,138.907269 C7.23702291,138.62124 7.38412043,138.183758 7.29887322,137.759618 C7.21362601,137.335478 6.90898514,136.989117 6.49970588,136.851007 L2.88205882,135.642953 C2.24936791,135.429452 1.56370517,135.770197 1.35058824,136.404027 C1.1374713,137.037857 1.47760321,137.724754 2.11029412,137.938255" id="Shape" fill="#FB5956"></path>
            <path d="M71.3158824,48.4214765 C72.0455476,44.6935293 72.1879591,40.874105 71.7379412,37.1020134 C71.0988235,29.8536913 65.4191176,22.1946309 62.6817647,22.4483221 C59.9444118,22.7020134 55.7117647,31.4241611 56.3267647,38.4791946 C56.5606242,42.300059 57.5010944,46.0441354 59.1002941,49.5208054 L71.3158824,48.433557" id="Shape" fill="#F4C95E"></path>
            <path d="M56.3388235,38.5275168 C53.4375752,38.7076061 51.2153754,41.183291 51.3436373,44.0925011 C51.4718992,47.0017113 53.9033179,49.2714868 56.8091176,49.1946309 L57.2794118,49.1946309 C57.7921106,49.1507733 58.2957681,49.0327703 58.7747059,48.8442953 C57.4328049,45.5626898 56.6187771,42.0886873 56.3629412,38.5516779" id="Shape" fill="#F7DCDC"></path>
            <path d="M56.8091176,38.5033557 L56.3388235,38.5033557 C56.5946595,42.0403651 57.4086873,45.5143676 58.7505882,48.7959732 C61.1307417,47.8525675 62.5053806,45.3473721 62.0249442,42.8286594 C61.5445078,40.3099467 59.3446764,38.4890277 56.785,38.4912752" id="Shape" fill="#ECAD51"></path>
            <path d="M72.2323529,58.7744966 L72.1238235,57.566443 L61.1141176,58.5449664 L60.4147059,50.5959732 L70.2305882,49.7261745 L71.0385294,58.8711409 L72.2444118,58.7624161 L72.1358824,57.5543624 L72.2444118,58.7624161 L73.4502941,58.6536913 L72.5097059,48.3369128 C72.4522183,47.6735152 71.8697136,47.1818174 71.2073529,47.2375839 L58.9917647,48.3248322 C58.3295596,48.3824233 57.8387455,48.9659768 57.8944118,49.6295302 L58.8108824,59.9825503 C58.8683699,60.6459478 59.4508746,61.1376457 60.1132353,61.0818792 L72.3288235,59.9946309 C72.9910287,59.9370398 73.4818428,59.3534863 73.4261765,58.6899329 L72.2323529,58.7744966 Z" id="Shape" fill="#662059"></path>
            <path d="M64.9247059,59.4751678 L65.7085294,65.3342282 C65.7984381,66.0014178 66.4112154,66.4692652 67.0772059,66.3791946 C67.7431963,66.289124 68.2102028,65.6752433 68.1202941,65.0080537 L67.3123529,59.209396 C67.2224442,58.5422063 66.6096669,58.0743589 65.9436765,58.1644295 C65.277686,58.2545001 64.8106795,58.8683808 64.9005882,59.5355705" id="Shape" fill="#662059"></path>
            <path d="M59.6670588,55.8872483 L71.8826471,54.8 C72.5486375,54.7399529 73.0399391,54.1504111 72.98,53.4832215 C72.9200609,52.8160318 72.3315787,52.3238456 71.6655882,52.3838926 L59.45,53.4711409 C59.0191797,53.5099846 58.641771,53.7761313 58.45994,54.1693263 C58.2781089,54.5625212 58.3194801,55.0230287 58.5684694,55.3773799 C58.8174586,55.7317312 59.2362386,55.926092 59.6670588,55.8872483" id="Shape" fill="#662059"></path>
            <path d="M72.4855882,48.7234899 C72.987758,46.3822226 73.2144009,43.9900788 73.1608824,41.5959732 C73.1608824,40.2308725 73.1608824,38.6966443 72.9558824,36.9812081 C72.5226448,33.2071039 71.2045111,29.5891627 69.1091176,26.4228188 C68.2698783,25.0890479 67.2604719,23.8707057 66.1064706,22.7986577 C65.6339844,22.3934686 65.1159822,22.0448092 64.5629412,21.7597315 C64.0383975,21.4667359 63.450932,21.3050992 62.8505882,21.2885906 L62.6094118,21.2885906 C62.0332485,21.35546 61.4845317,21.5720103 61.0176471,21.9167785 C60.1432159,22.5792379 59.3990553,23.3984693 58.8229412,24.3328859 C56.4612276,28.1645875 55.1740282,32.5631346 55.0967647,37.0657718 C55.0967647,37.5852349 55.0967647,38.104698 55.1691176,38.6120805 C55.413307,42.5936766 56.3989924,46.4943494 58.0752941,50.1127517 C58.3916396,50.6998784 59.1231931,50.9189283 59.7092646,50.6020132 C60.2953361,50.2850982 60.5139924,49.5522275 60.1976471,48.9651007 C58.6854759,45.6316152 57.7945476,42.0492025 57.5688235,38.3946309 C57.5688235,37.9597315 57.5688235,37.5127517 57.5688235,37.0657718 C57.6353848,33.8744787 58.3621731,30.7317325 59.7032353,27.8362416 C60.199457,26.7070641 60.8399071,25.6472005 61.6085294,24.6832215 C61.8550465,24.3826959 62.1386918,24.1147774 62.4526471,23.885906 C62.5793265,23.7843754 62.7280162,23.7140343 62.8867647,23.6805369 C63.1005625,23.7028885 63.3066165,23.773073 63.4897059,23.885906 C64.2626135,24.3457482 64.9517659,24.9340123 65.5276471,25.6255034 C68.3279664,28.9148898 70.1017313,32.9561057 70.6285294,37.2469799 C70.7732353,38.8899329 70.8335294,40.3516779 70.8335294,41.6442953 C70.8428981,43.2801015 70.7421796,44.9146797 70.5320588,46.5369128 C70.4597059,47.0926174 70.3873529,47.5033557 70.3270588,47.7449664 L70.2667647,48.0469799 L70.2667647,48.1194631 L70.4355882,48.1194631 L70.2667647,48.1194631 L70.4355882,48.1194631 L70.2667647,48.1194631 C70.1258537,48.5459854 70.2328532,49.0156137 70.5445416,49.3386447 C70.8562299,49.6616756 71.3211134,49.7847417 71.7514054,49.6581311 C72.1816974,49.5315205 72.5063098,49.1761505 72.5941176,48.7355705 L72.4855882,48.7234899 Z" id="Shape" fill="#662059"></path>
            <path d="M67.5535294,40.4845638 C67.6269026,40.0454513 67.6632076,39.6009254 67.6620588,39.1557047 C67.6341823,37.4968861 67.2213323,35.867328 66.4561765,34.3959732 C66.118565,33.6945512 65.7147659,33.027083 65.2502941,32.4026846 C64.9870357,32.0430801 64.5474339,31.8580164 64.1067907,31.9212921 C63.6661475,31.9845678 63.2961391,32.2858904 63.1443157,32.7051 C62.9924922,33.1243096 63.0835496,33.5932164 63.3811765,33.9248322 L63.4535294,33.9248322 L63.3811765,33.9248322 L63.4535294,33.9248322 L63.3811765,33.9248322 C63.7754367,34.4463091 64.1186856,35.0045873 64.4061765,35.5919463 C64.9890342,36.7126742 65.3067359,37.9527019 65.3347059,39.2161074 C65.3367744,39.5276622 65.3125707,39.8388355 65.2623529,40.1463087 C65.1912676,40.5779048 65.3554219,41.0147078 65.6929805,41.2921784 C66.0305391,41.569649 66.4902189,41.6456327 66.8988629,41.4915073 C67.3075069,41.3373818 67.6030323,40.9765625 67.6741176,40.5449664 L67.5535294,40.4845638 Z" id="Shape" fill="#FFFFFF"></path>
            <path d="M60.7885294,12.7355705 L61.1985294,17.3261745 C61.2584686,17.9933641 61.8469507,18.4855504 62.5129412,18.4255034 C63.1789316,18.3654563 63.6702333,17.7759145 63.6102941,17.1087248 L63.2002941,12.5181208 C63.1615203,12.0865248 62.8958519,11.7084365 62.5033637,11.526278 C62.1108755,11.3441196 61.6511957,11.3855653 61.2974814,11.6350029 C60.943767,11.8844405 60.7497556,12.3039745 60.7885294,12.7355705" id="Shape" fill="#F4C95E"></path>
            <path d="M50.4782353,23.9583893 L53.4567647,26.4590604 C53.7813695,26.773544 54.2541589,26.8799889 54.6818653,26.7348825 C55.1095717,26.5897761 55.4205097,26.2174387 55.4875736,25.7700751 C55.5546376,25.3227115 55.3665872,24.8753015 55.0002941,24.6107383 L52.0217647,22.1100671 C51.6971599,21.7955835 51.2243705,21.6891386 50.7966641,21.834245 C50.3689577,21.9793514 50.0580197,22.3516888 49.9909558,22.7990524 C49.9238918,23.246416 50.1119422,23.693826 50.4782353,23.9583893" id="Shape" fill="#F4C95E"></path>
            <path d="M46.7882353,36.9812081 L50.6952941,37.3194631 C51.3612846,37.3795102 51.9497667,36.8873239 52.0097059,36.2201342 C52.069645,35.5529446 51.5783434,34.9634028 50.9123529,34.9033557 L47.0052941,34.5651007 C46.3393037,34.5050536 45.7508215,34.9972399 45.6908824,35.6644295 C45.6309432,36.3316192 46.1222449,36.921161 46.7882353,36.9812081" id="Shape" fill="#F4C95E"></path>
            <path d="M73.4502941,20.3342282 L71.0385294,23.1852349 C70.6687264,23.69908 70.7579331,24.4118226 71.242923,24.8182964 C71.7279129,25.2247702 72.4439485,25.1869073 72.8835294,24.7315436 L75.2952941,21.8805369 C75.6650971,21.3666918 75.5758905,20.6539492 75.0909005,20.2474754 C74.6059106,19.8410016 73.889875,19.8788645 73.4502941,20.3342282" id="Shape" fill="#F4C95E"></path>
            <path d="M80.36,31.6778523 L76.7423529,32.6684564 C76.1209936,32.8592842 75.7623602,33.5090803 75.9314339,34.1377339 C76.1005076,34.7663875 76.7364613,35.1477295 77.3694118,35 L80.9870588,34.009396 C81.6084182,33.8185682 81.9670516,33.1687721 81.7979779,32.5401184 C81.6289041,31.9114648 80.9929505,31.5301229 80.36,31.6778523" id="Shape" fill="#F4C95E"></path>
            <path d="M97.1217647,138.94094 C95.0264384,142.108649 93.4395431,145.585723 92.4188235,149.245638 C90.2602941,156.191946 92.5997059,165.433557 95.2285294,166.255034 C97.8573529,167.07651 105.092647,160.613423 107.190882,153.860403 C108.428755,150.241494 108.984854,146.423719 108.830882,142.601342 L97.1217647,138.94094" id="Shape" fill="#F4C95E"></path>
            <path d="M108.842941,143.422819 C108.842472,146.968265 108.280791,150.491207 107.178824,153.860403 C109.171843,154.481499 111.343342,153.880031 112.734808,152.321491 C114.126274,150.762951 114.481619,148.534175 113.643992,146.618958 C112.806365,144.703741 110.929924,143.454563 108.842941,143.422819" id="Shape" fill="#F7DCDC"></path>
            <path d="M108.770588,143.422819 C106.135244,143.419547 103.893124,145.346187 103.49512,147.955997 C103.097115,150.565807 104.662721,153.07523 107.178824,153.860403 C108.280791,150.491207 108.842472,146.968265 108.842941,143.422815 L108.770588,143.422819" id="Shape" fill="#ECAD51"></path>
            <path d="M100.184706,129.071141 L99.8229412,130.279195 L110.374412,133.577181 L107.962647,141.187919 L98.5567647,138.252349 L101.294118,129.481879 L100.088235,129.119463 L99.7264706,130.327517 L100.088235,129.119463 L98.8823529,128.757047 L95.9158824,138.638926 C95.7197559,139.27606 96.0759623,139.951908 96.7117647,140.148993 L108.420882,143.773154 C109.056871,143.969634 109.731505,143.612786 109.928235,142.975839 L113.015294,133.057718 C113.211421,132.420584 112.855214,131.744736 112.219412,131.547651 L100.510294,127.92349 C99.8743051,127.72701 99.1996717,128.083858 99.0029412,128.720805 L100.184706,129.071141 Z" id="Shape" fill="#662059"></path>
            <path d="M107.202941,131.209396 L108.698235,125.495302 C108.839146,125.06878 108.732147,124.599151 108.420458,124.27612 C108.10877,123.953089 107.643887,123.830023 107.213595,123.956634 C106.783303,124.083245 106.45869,124.438615 106.370882,124.879195 L104.875588,130.593289 C104.734677,131.019811 104.841677,131.489439 105.153365,131.81247 C105.465053,132.135501 105.929937,132.258567 106.360229,132.131957 C106.790521,132.005346 107.115133,131.649976 107.202941,131.209396" id="Shape" fill="#662059"></path>
            <path d="M110.712059,136.524832 L99.0029412,132.900671 C98.5915078,132.771192 98.1423758,132.871441 97.8247287,133.163655 C97.5070816,133.455869 97.3691777,133.895654 97.462964,134.317346 C97.5567503,134.739039 97.8679784,135.078575 98.2794118,135.208054 L109.988529,138.832215 C110.399963,138.961694 110.849095,138.861445 111.166742,138.569231 C111.484389,138.277017 111.622293,137.837232 111.528507,137.415539 C111.43472,136.993847 111.123492,136.654311 110.712059,136.524832" id="Shape" fill="#662059"></path>
            <path d="M90.5135294,158.269799 C90.7161036,160.260877 91.1992378,162.213162 91.9485294,164.068456 C92.2579301,164.807241 92.6633986,165.501841 93.1544118,166.134228 C93.5848906,166.730492 94.1863548,167.181349 94.8788235,167.426846 C95.1565282,167.510015 95.4451677,167.550742 95.735,167.547651 C96.3143628,167.534992 96.8865261,167.416259 97.4232353,167.197315 C98.5191194,166.740111 99.5427803,166.125622 100.462059,165.373154 C104.080986,162.479298 106.813978,158.623613 108.348529,154.24698 C109.440932,150.881632 110.026194,147.371881 110.085,143.833557 C110.085,143 110.085,142.54094 110.085,142.492617 C110.039764,142.061021 109.768124,141.686387 109.372405,141.509835 C108.976685,141.333283 108.517006,141.381636 108.166522,141.636681 C107.816039,141.891725 107.627999,142.314713 107.673235,142.746309 C107.673235,142.746309 107.673235,143.181208 107.673235,143.833557 C107.610886,147.117981 107.062261,150.374945 106.045294,153.497987 C104.978383,156.559272 103.239392,159.341714 100.956471,161.640268 C100.018183,162.626598 98.9702849,163.502095 97.8332353,164.249664 C97.4259828,164.516431 96.9938614,164.742995 96.5429412,164.926174 C96.2830433,165.038297 96.0054768,165.103724 95.7229412,165.119463 L95.5782353,165.119463 C95.3542773,165.009842 95.1629923,164.843207 95.0235294,164.636242 C94.481665,163.84721 94.0741757,162.973613 93.8176471,162.051007 C93.3978821,160.73409 93.1110538,159.378309 92.9614706,158.004027 C92.8848817,157.336837 92.2829022,156.858173 91.6169118,156.934899 C90.9509213,157.011626 90.473117,157.61469 90.5497059,158.281879 L90.5135294,158.269799 Z" id="Shape" fill="#662059"></path>
            <path d="M96.1329412,138.26443 C93.9543894,141.544633 92.3061775,145.14869 91.2491176,148.943624 C91.0493205,149.58079 91.4029497,150.259575 92.0389706,150.459732 C92.6749915,150.659888 93.3525558,150.305622 93.5523529,149.668456 C94.3439703,147.062503 95.3733112,144.535065 96.6273529,142.118121 C97.0614706,141.296644 97.4352941,140.692617 97.6885294,140.29396 L97.9779412,139.85906 L98.0502941,139.762416 C98.4532182,139.228664 98.3479392,138.468751 97.8151469,138.065101 C97.2823546,137.661451 96.5238066,137.76692 96.1208824,138.300671 L96.1329412,138.26443 Z" id="Shape" fill="#662059"></path>
            <path d="M97.5558824,147.771812 C96.6575375,149.291 96.2021802,151.032007 96.2414706,152.797315 C96.236701,153.931122 96.3826904,155.060514 96.6755882,156.155705 C96.8653955,156.796207 97.5375609,157.16129 98.1769118,156.971141 C98.8162626,156.780992 99.1806896,156.107616 98.9908824,155.467114 C98.7656385,154.595153 98.6521765,153.698 98.6532353,152.797315 C98.6136343,151.485722 98.939324,150.188983 99.5938235,149.052349 C99.9467985,148.485238 99.774033,147.738845 99.2079412,147.385235 C98.6418493,147.031624 97.8967985,147.204701 97.5438235,147.771812 L97.5558824,147.771812 Z" id="Shape" fill="#FFFFFF"></path>
            <path d="M93.2508824,176.004027 L94.6255882,171.606711 C94.8253853,170.969545 94.4717561,170.290761 93.8357353,170.090604 C93.1997144,169.890447 92.5221501,170.244713 92.3223529,170.881879 L90.9476471,175.279195 C90.74785,175.916361 91.1014792,176.595145 91.7375,176.795302 C92.3735209,176.995459 93.0510852,176.641193 93.2508824,176.004027" id="Shape" fill="#F4C95E"></path>
            <path d="M107.058235,169.565101 L105.261471,166.122148 C104.943311,165.548611 104.226339,165.334357 103.646529,165.639551 C103.06672,165.944745 102.836095,166.657786 103.127059,167.245638 L104.923824,170.688591 C105.241983,171.262127 105.958955,171.476381 106.538765,171.171187 C107.118575,170.865993 107.349199,170.152952 107.058235,169.565101" id="Shape" fill="#F4C95E"></path>
            <path d="M115.427059,158.934228 L111.942059,157.122148 C111.349327,156.81524 110.620473,157.047812 110.314118,157.641611 C110.007762,158.23541 110.239916,158.965576 110.832647,159.272483 L114.317647,161.084564 C114.910379,161.391471 115.639233,161.158899 115.945588,160.565101 C116.251944,159.971302 116.01979,159.241135 115.427059,158.934228" id="Shape" fill="#F4C95E"></path>
            <path d="M84.4358824,164.15302 L87.7279412,162.425503 C88.1199581,162.23077 88.3759186,161.83858 88.3967553,161.400725 C88.417592,160.962871 88.2000349,160.548065 87.8282878,160.316855 C87.4565406,160.085645 86.9889415,160.074314 86.6064706,160.287248 L83.3144118,162.014765 C82.9223948,162.209498 82.6664343,162.601689 82.6455977,163.039543 C82.624761,163.477397 82.842318,163.892203 83.2140652,164.123413 C83.5858123,164.354623 84.0534115,164.365954 84.4358824,164.15302" id="Shape" fill="#F4C95E"></path>
            <path d="M82.3738235,151.021477 L86.1241176,151.504698 C86.7901081,151.588097 87.3974865,151.114841 87.4807353,150.447651 C87.5639841,149.780461 87.0915787,149.171989 86.4255882,149.088591 L82.6511765,148.605369 C82.2203562,148.55142 81.7935319,148.731822 81.5314841,149.07862 C81.2694363,149.425419 81.2119763,149.885926 81.3807488,150.286674 C81.5495213,150.687422 81.9188856,150.967527 82.3497059,151.021477" id="Shape" fill="#F4C95E"></path>
            <path d="M44.7141176,94.242953 C48.4341229,94.9817873 52.2466588,95.1326068 56.0132353,94.6899329 C63.2485294,94.061745 70.9058824,88.3838926 70.6647059,85.6416107 C70.4838235,83.5879195 65.5397059,80.6765101 60.1132353,79.6013423 C58.3252998,79.2330759 56.4949976,79.1151727 54.6747059,79.2510067 C50.8622164,79.4773921 47.1248858,80.4113589 43.6529412,82.0053691 L44.7141176,94.242953" id="Shape" fill="#2D9693"></path>
            <path d="M49.3085294,74.3463087 L48.8382353,74.3463087 C47.1719448,74.4997023 45.6736688,75.4264043 44.7902247,76.8500528 C43.9067806,78.2737013 43.7402494,80.0297954 44.3402941,81.5946309 C47.6159391,80.2501189 51.0837289,79.434618 54.6144118,79.1785235 C54.3533384,76.4385446 52.0560156,74.3463087 49.3085294,74.3463087" id="Shape" fill="#F7DCDC"></path>
            <path d="M54.6144118,79.2268456 C51.0837289,79.4829401 47.6159391,80.2984411 44.3402941,81.642953 C45.1424487,83.6829148 47.1078755,85.0243027 49.2964706,85.0255034 L49.7667647,85.0255034 C52.691362,84.7573173 54.8483635,82.169657 54.5902941,79.2389262" id="Shape" fill="#2C817F"></path>
            <path d="M33.6682353,87.8040268 L26.1435294,88.9395973 C25.7127091,89.0043366 25.3490906,89.294412 25.1896456,89.7005549 C25.0302007,90.1066978 25.0991526,90.5672053 25.370528,90.9086087 C25.6419034,91.2500122 26.0744738,91.4204442 26.5052941,91.3557047 L34.03,90.2201342 C34.4608203,90.1553948 34.8244386,89.8653194 34.9838836,89.4591766 C35.1433285,89.0530338 35.0743766,88.5925263 34.8030012,88.2511229 C34.5316259,87.9097195 34.0990556,87.7392874 33.6682353,87.8040268" id="Shape" fill="#662059"></path>
            <path d="M37.2858824,82.5369128 L38.3470588,94.7744966 C38.4045464,95.4378941 38.9870511,95.929592 39.6494118,95.8738255 L44.8226471,95.4268456 C45.4848522,95.3692546 45.9756663,94.785701 45.92,94.1221477 L44.8588235,81.8845638 C44.801336,81.2211663 44.2188313,80.7294684 43.5564706,80.7852349 L33.2220588,81.6791946 C32.5598537,81.7367857 32.0690396,82.3203392 32.1247059,82.9838926 L33.21,95.2214765 C33.2666093,95.8886661 33.852392,96.3835565 34.5183823,96.3268454 C35.1843727,96.2701343 35.6783738,95.6832969 35.6217647,95.0161074 L34.6691176,83.9744966 L42.6038235,83.285906 L43.4479412,93.1194631 L40.6864706,93.3610738 L39.7338235,82.3194631 C39.6972039,81.887867 39.433526,81.5086273 39.0421148,81.3246 C38.6507036,81.1405727 38.1910238,81.1797158 37.8362323,81.4272846 C37.4814409,81.6748534 37.285439,82.0932362 37.3220588,82.5248322 L37.2858824,82.5369128 Z" id="Shape" fill="#662059"></path>
            <path d="M54.5782353,78.0187919 C50.6012594,78.254318 46.7034407,79.2336003 43.0861765,80.9060403 C42.7070546,81.1110484 42.4659056,81.503107 42.4535677,81.9345314 C42.4412299,82.3659557 42.6595778,82.7712023 43.0263619,82.9976186 C43.3931459,83.2240349 43.8526429,83.2372229 44.2317647,83.0322148 C47.5607579,81.5253915 51.1367159,80.6410512 54.7832353,80.4228188 C55.4492256,80.3661076 55.9432266,79.7792701 55.8866174,79.1120806 C55.8300083,78.444891 55.2442257,77.9500004 54.5782353,78.0067114 L54.5782353,78.0187919 Z" id="Shape" fill="#662059"></path>
            <path d="M44.4005882,95.390604 C46.7767363,95.905634 49.205434,96.1367757 51.6358824,96.0791946 C52.9744118,96.0791946 54.4817647,96.0791946 56.1458824,95.8738255 C59.9163501,95.445305 63.5320506,94.1288901 66.6973529,92.0322148 C68.0280042,91.1951998 69.2441227,90.188065 70.315,89.0362416 C70.7506759,88.5599756 71.1272353,88.0326544 71.4364706,87.4657718 C71.7289396,86.9402836 71.8902857,86.3517604 71.9067647,85.7503356 L71.9067647,85.5328859 C71.7912151,84.7089355 71.4101164,83.9453656 70.8214706,83.3583893 C69.8002914,82.3151075 68.6096302,81.4531833 67.3002941,80.809396 C65.6975954,79.9814524 64.0120634,79.3254623 62.2717647,78.852349 C61.8560231,78.737976 61.4109545,78.8544858 61.1042118,79.1579904 C60.7974691,79.461495 60.675654,79.9058848 60.7846529,80.3237623 C60.8936519,80.7416399 61.2169054,81.0695197 61.6326471,81.1838926 C63.6522604,81.7077833 65.5856112,82.5215782 67.3726471,83.6 C67.9825475,83.973512 68.5418594,84.4242033 69.0367647,84.9409396 C69.2608205,85.1461363 69.4236279,85.4096065 69.5070588,85.7020134 L70.7129412,85.5932886 L69.5070588,85.6778523 C69.4830006,85.8878674 69.413005,86.0899827 69.3020588,86.2697987 C68.8421208,87.0399285 68.2549464,87.7261989 67.5655882,88.2993289 C64.2758925,91.0981141 60.2377094,92.8666876 55.9529412,93.3852349 C54.3491176,93.5181208 52.9141176,93.5785235 51.6479412,93.5785235 C49.9906794,93.586698 48.3347868,93.4817571 46.6917647,93.2644295 C46.1370588,93.1919463 45.715,93.1073826 45.4858824,93.0590604 L45.1844118,92.9986577 L45.1,92.9986577 L45.1,93.1436242 L45.1,92.9986577 L45.1,93.1436242 L45.1,92.9986577 C44.6742443,92.857493 44.2054601,92.9646852 43.8830098,93.2769348 C43.5605594,93.5891844 43.4377146,94.0549049 43.5640976,94.4859717 C43.6904806,94.9170385 44.0452118,95.2422354 44.485,95.3302013 L44.4005882,95.390604 Z" id="Shape" fill="#662059"></path>
            <path d="M52.6367647,88.6375839 C53.0790655,88.7117109 53.5268502,88.7480832 53.9752941,88.7463087 C55.6310724,88.7179412 57.2576021,88.304373 58.7264706,87.538255 C59.426667,87.2001007 60.0929415,86.7955709 60.7161765,86.3302013 C61.0522163,86.0582959 61.2179307,85.6274469 61.1508968,85.1999511 C61.0838629,84.7724554 60.7942647,84.4132595 60.391191,84.2576693 C59.9881172,84.102079 59.5328045,84.1737321 59.1967647,84.4456376 L59.1967647,84.5060403 L59.1967647,84.4456376 L59.1967647,84.5060403 L59.1967647,84.4456376 C58.6796327,84.8358852 58.1264275,85.1756875 57.5447059,85.4604027 C56.4256829,86.0435001 55.1880754,86.3617247 53.9270588,86.390604 C53.6160619,86.392734 53.3054431,86.3684863 52.9985294,86.3181208 C52.5677091,86.2447494 52.1305419,86.4072052 51.8517045,86.7442927 C51.5728671,87.0813802 51.4947215,87.5418877 51.6467045,87.9523465 C51.7986874,88.3628053 52.1577091,88.6608569 52.5885294,88.7342282 L52.6367647,88.6375839 Z" id="Shape" fill="#FFFFFF"></path>
            <path d="M80.36,83.7449664 L75.7776471,84.1436242 C75.3468267,84.1803098 74.9682687,84.4444624 74.7845721,84.8365784 C74.6008756,85.2286944 74.6399483,85.6892019 74.8870721,86.0446322 C75.1341959,86.4000625 75.5518267,86.5964173 75.9826471,86.5597315 L80.565,86.1610738 C81.2309904,86.1043627 81.7249915,85.5175252 81.6683824,84.8503356 C81.6117732,84.1831459 81.0259904,83.6882553 80.36,83.7449664" id="Shape" fill="#2D9693"></path>
            <path d="M69.1694118,73.3919463 L66.6732353,76.3637584 C66.3953561,76.6939293 66.3144127,77.1475336 66.4608956,77.5537028 C66.6073786,77.959872 66.9590337,78.2568994 67.3833957,78.3328975 C67.8077578,78.4088957 68.2403563,78.2523187 68.5182353,77.9221477 L71.0144118,74.9503356 C71.4439756,74.4399355 71.3791886,73.6773172 70.8697059,73.2469799 C70.3602232,72.8166426 69.5989756,72.8815462 69.1694118,73.3919463" id="Shape" fill="#2D9693"></path>
            <path d="M72.7508824,96.4174497 L69.905,94.0013423 C69.3955173,93.5710051 68.6342698,93.6359089 68.2047061,94.1463089 C67.7751423,94.6567089 67.8399293,95.4193271 68.3494118,95.8496644 L71.1952941,98.2657718 C71.7047768,98.6961091 72.4660244,98.6312054 72.8955882,98.1208053 C73.325152,97.6104053 73.260365,96.847787 72.7508824,96.4174497" id="Shape" fill="#2D9693"></path>
            <path d="M52.3714706,140.438926 C50.8453447,143.918029 49.8728618,147.615226 49.4894118,151.395973 C48.5367647,158.644295 52.4197059,167.318121 55.145,167.680537 C57.8702941,168.042953 63.8997059,160.432215 64.7920588,153.425503 C65.396176,149.646262 65.2939502,145.787458 64.4905882,142.045638 L52.3352941,140.438926" id="Shape" fill="#2D9693"></path>
            <path d="M65.5276471,142.722148 C65.2491415,142.720374 64.9709289,142.74057 64.6955882,142.78255 C65.3013656,146.276217 65.3502077,149.844025 64.8402941,153.35302 C66.7964664,153.580972 68.7187035,152.709752 69.8392414,151.087336 C70.9597793,149.46492 71.0959975,147.355722 70.1934887,145.602181 C69.29098,143.84864 67.4968315,142.73654 65.5276471,142.710067" id="Shape" fill="#F7DCDC"></path>
            <path d="M64.6955882,142.794631 C62.0757985,143.207071 60.1571756,145.486246 60.1935416,148.142713 C60.2299077,150.79918 62.2101995,153.024789 64.8402941,153.365101 C65.3502077,149.856106 65.3013656,146.288297 64.6955882,142.794631" id="Shape" fill="#2C817F"></path>
            <path d="M53.71,130.134228 L53.5532353,131.342282 L64.5147059,132.791946 L63.4776471,140.704698 L53.71,139.412081 L54.9158824,130.303356 L53.71,130.146309 L53.5532353,131.354362 L53.71,130.146309 L52.5041176,129.989262 L51.1414706,140.29396 C51.055934,140.954197 51.5197385,141.559309 52.1785294,141.64698 L64.3338235,143.253691 C64.992874,143.339382 65.5968984,142.874742 65.6844118,142.214765 L67.0470588,131.910067 C67.1325954,131.24983 66.6687909,130.644718 66.01,130.557047 L53.8547059,128.950336 C53.1956554,128.864645 52.591631,129.329285 52.5041176,129.989262 L53.71,130.134228 Z" id="Shape" fill="#662059"></path>
            <path d="M61.0055882,131.040268 L61.5120588,125.157047 C61.5486785,124.725451 61.3526767,124.307068 60.9978853,124.0595 C60.6430938,123.811931 60.1834141,123.772788 59.7920029,123.956815 C59.4005917,124.140842 59.1369138,124.520082 59.1002941,124.951678 L58.5938235,130.834899 C58.5572037,131.266495 58.7532056,131.684878 59.107997,131.932447 C59.4627885,132.180016 59.9224683,132.219159 60.3138795,132.035132 C60.7052907,131.851104 60.9689686,131.471865 61.0055882,131.040268" id="Shape" fill="#662059"></path>
            <path d="M65.3708824,135.691275 L53.2035294,134.108725 C52.537539,134.02199 51.9274611,134.492542 51.8408824,135.159732 C51.7543036,135.826921 52.2240096,136.438098 52.89,136.524832 L65.0452941,138.131544 C65.7112846,138.218278 66.3213624,137.747727 66.4079412,137.080537 C66.4945199,136.413347 66.024814,135.802171 65.3588235,135.715436" id="Shape" fill="#662059"></path>
            <path d="M51.2982353,139.883221 C49.7072785,143.486645 48.6939318,147.319018 48.2955882,151.238926 C48.1918898,152.040116 48.1395277,152.847137 48.1388235,153.655034 C48.1724616,157.039481 48.8817786,160.382971 50.225,163.488591 C50.7492796,164.746498 51.4386912,165.928733 52.275,167.004027 C52.6229843,167.45738 53.0283445,167.86347 53.4808824,168.212081 C53.9188011,168.546081 54.432567,168.76607 54.9761765,168.852349 L55.3258824,168.852349 C55.9285915,168.836388 56.5191817,168.679165 57.0502941,168.393289 C58.0967999,167.814262 59.0384974,167.062815 59.8358824,166.17047 C63.0734983,162.647277 65.2186198,158.25697 66.01,153.534228 C66.2415264,151.784036 66.3583452,150.020528 66.3597059,148.255034 C66.4075401,146.040192 66.1766035,143.828138 65.6723529,141.671141 C65.58254,141.227139 65.2523103,140.870796 64.8169887,140.748138 C64.3816671,140.62548 63.9144333,140.757126 63.6067553,141.089129 C63.2990773,141.421132 63.2026772,141.897681 63.3570588,142.32349 L63.5620588,142.32349 L63.3570588,142.32349 L63.5620588,142.32349 L63.3570588,142.32349 C63.7986964,144.268648 64.0011802,146.26062 63.96,148.255034 C63.9556109,149.915671 63.8428212,151.574244 63.6223529,153.220134 C63.0686877,156.530264 61.7605859,159.66792 59.7997059,162.389262 C59.0254215,163.520536 58.1140515,164.551224 57.0864706,165.457718 C56.7392069,165.757783 56.3589047,166.017178 55.9529412,166.230872 C55.7572004,166.34475 55.5391644,166.414812 55.3138235,166.436242 C55.1675484,166.398372 55.0315816,166.328202 54.9158824,166.230872 C54.350366,165.768374 53.8724684,165.207777 53.505,164.575839 C51.6033636,161.266469 50.585793,157.521724 50.5505882,153.703356 C50.5480011,152.984448 50.5923112,152.266139 50.6832353,151.55302 C51.0205542,148.84717 51.6058683,146.178184 52.4317647,143.579866 C52.7211765,142.697987 52.9744118,142.033557 53.1673529,141.598658 L53.3844118,141.115436 L53.3844118,141.006711 C53.6907673,140.412913 53.4586137,139.682746 52.8658823,139.375839 C52.2731509,139.068932 51.5442968,139.301503 51.2379412,139.895302 L51.2982353,139.883221 Z" id="Shape" fill="#662059"></path>
            <path d="M56.1217647,149.402685 C55.7111306,150.440355 55.5063315,151.548261 55.5188235,152.66443 C55.5542306,154.449712 55.9651357,156.207435 56.7247059,157.822819 C57.0326131,158.398022 57.740909,158.624202 58.3242958,158.333616 C58.9076826,158.04303 59.1551801,157.340767 58.8832353,156.747651 L58.63,156.868456 L58.8832353,156.747651 L58.63,156.868456 L58.8832353,156.747651 C58.3018636,155.463289 57.986012,154.074327 57.9547059,152.66443 C57.9463634,151.862413 58.0938067,151.066427 58.3888235,150.320805 C58.6418998,149.703655 58.3476587,148.997827 57.7316176,148.744295 C57.1155765,148.490763 56.4110176,148.785534 56.1579412,149.402685 L56.1217647,149.402685 Z" id="Shape" fill="#FFFFFF"></path>
            <path d="M54.9158824,177.598658 L55.5188235,173.032215 C55.5748302,172.600619 55.3967426,172.171875 55.0516446,171.907486 C54.7065466,171.643098 54.2468668,171.583232 53.8457622,171.750439 C53.4446576,171.917647 53.1630655,172.286525 53.1070588,172.718121 L52.5041176,177.284564 C52.448111,177.71616 52.6261986,178.144904 52.9712966,178.409292 C53.3163946,178.673681 53.7760743,178.733547 54.177179,178.566339 C54.5782836,178.399132 54.8598757,178.030254 54.9158824,177.598658" id="Shape" fill="#2D9693"></path>
            <path d="M67.3847059,168.852349 L64.9729412,165.771812 C64.566687,165.241396 63.8081389,165.141337 63.2786766,165.548322 C62.7492142,165.955308 62.6493342,166.715222 63.0555882,167.245638 L65.4673529,170.326174 C65.7301533,170.669293 66.1557136,170.845893 66.5837293,170.789451 C67.011745,170.733009 67.3771904,170.4521 67.5424057,170.052538 C67.7076211,169.652977 67.6475062,169.195468 67.3847059,168.852349" id="Shape" fill="#2D9693"></path>
            <path d="M44.1714706,167.390604 L47.1138235,165.131544 C47.6432859,164.724558 47.7431659,163.964644 47.3369118,163.434228 C46.9306576,162.903812 46.1721095,162.803753 45.6426471,163.210738 L42.7123529,165.518121 C42.1828907,165.925107 42.0830107,166.68502 42.4892649,167.215436 C42.895519,167.745852 43.654067,167.845912 44.1835294,167.438926" id="Shape" fill="#2D9693"></path>
            <path d="M165.977647,122.668456 C169.199444,124.67427 172.714999,126.162104 176.396471,127.077852 C183.390588,129.04698 192.543235,126.425503 193.278824,123.779866 C194.014412,121.134228 187.37,114.115436 180.568824,112.158389 C176.920391,111.022742 173.093058,110.576235 169.281765,110.841611 L165.965588,122.668456" id="Shape" fill="#2D9693"></path>
            <path d="M175.383529,105.344966 C173.956194,105.348063 172.589454,105.923259 171.588133,106.94227 C170.586812,107.961281 170.034194,109.339349 170.053529,110.769128 L171.162941,110.769128 C174.330287,110.809032 177.477823,111.276323 180.520588,112.158389 C180.968873,110.548017 180.640197,108.820296 179.632106,107.487978 C178.624014,106.15566 177.052342,105.371835 175.383529,105.369128" id="Shape" fill="#F7DCDC"></path>
            <path d="M171.162941,110.744966 L170.053529,110.744966 C170.087835,113.403308 172.069032,115.631416 174.700997,115.971635 C177.332962,116.311855 179.81383,114.660535 180.520588,112.097987 C177.477823,111.215921 174.330287,110.748629 171.162941,110.708725" id="Shape" fill="#2C817F"></path>
            <path d="M155.980882,119.865772 L157.186765,120.191946 L160.177353,109.524832 L167.846765,111.675168 L165.181765,121.18255 L156.354706,118.70604 L156.029118,119.914094 L157.235,120.240268 L156.029118,119.914094 L155.703529,121.122148 L165.688235,123.924832 C166.327351,124.103009 166.990102,123.730552 167.171471,123.091275 L170.487647,111.26443 C170.665503,110.624163 170.293716,109.960219 169.655588,109.778523 L159.670882,106.975839 C159.031766,106.797662 158.369016,107.170119 158.187647,107.809396 L154.871471,119.636242 C154.693614,120.276508 155.065401,120.940452 155.703529,121.122148 L155.980882,119.865772 Z" id="Shape" fill="#662059"></path>
            <path d="M157.910294,112.774497 L152.170294,111.433557 C151.520953,111.28344 150.873083,111.689088 150.723235,112.339597 C150.573388,112.990107 150.978306,113.639144 151.627647,113.789262 L157.367647,115.130201 C158.016988,115.280319 158.664858,114.874671 158.814706,114.224161 C158.964554,113.573651 158.559635,112.924614 157.910294,112.774497" id="Shape" fill="#662059"></path>
            <path d="M163.131765,109.114094 L159.827647,120.94094 C159.711325,121.35743 159.825635,121.804451 160.127518,122.113615 C160.4294,122.422779 160.872991,122.547116 161.291194,122.43979 C161.709398,122.332463 162.038679,122.009779 162.155,121.593289 L165.471176,109.766443 C165.587498,109.349953 165.473188,108.902931 165.171306,108.593768 C164.869424,108.284604 164.425833,108.160267 164.007629,108.267593 C163.589426,108.374919 163.260145,108.697604 163.143824,109.114094" id="Shape" fill="#662059"></path>
            <path d="M165.278235,123.65906 C168.630951,125.754292 172.294074,127.303729 176.131176,128.249664 C177.982394,128.751692 179.893081,128.999594 181.810882,128.986577 C184.553902,128.994037 187.279446,128.549165 189.878235,127.669799 C190.909474,127.325632 191.890732,126.846306 192.796471,126.244295 C193.60002,125.751864 194.209159,124.996537 194.520882,124.10604 C194.588207,123.853959 194.620667,123.593812 194.617353,123.332886 C194.602838,122.74635 194.475929,122.168076 194.243529,121.62953 C193.765448,120.538018 193.127332,119.524151 192.350294,118.621477 C189.351268,115.05104 185.404607,112.404027 180.966765,110.986577 C177.799223,110.06454 174.521542,109.57688 171.223235,109.536913 C170.542593,109.527642 169.862019,109.559917 169.185294,109.633557 C168.519304,109.720292 168.049598,110.331468 168.136176,110.998658 C168.222755,111.665847 168.832833,112.136399 169.498824,112.049664 C170.06383,111.994246 170.631454,111.970048 171.199118,111.977181 C174.276965,112.015044 177.335527,112.470185 180.291471,113.330201 C183.391965,114.316735 186.231459,115.988819 188.6,118.222819 C189.61129,119.134051 190.51369,120.159693 191.289118,121.279195 C191.556351,121.658881 191.786528,122.063427 191.976471,122.487248 C192.088565,122.739083 192.153945,123.009262 192.169412,123.284564 L192.169412,123.405369 C191.992491,123.745951 191.720042,124.027288 191.385588,124.214765 C190.175444,124.969431 188.846152,125.512726 187.454412,125.821477 C185.600517,126.284245 183.697342,126.519527 181.786765,126.522148 C180.089422,126.537123 178.397873,126.321743 176.758235,125.881879 C174.135594,125.163615 171.584456,124.205216 169.137059,123.018792 C168.305,122.608054 167.69,122.257718 167.28,122.016107 L166.833824,121.738255 L166.737353,121.665772 C166.194571,121.278802 165.441422,121.405905 165.055147,121.949664 C164.668873,122.493424 164.795747,123.247929 165.338529,123.634899 L165.278235,123.65906 Z" id="Shape" fill="#662059"></path>
            <path d="M175.359412,120.240268 C176.791928,121.054764 178.415363,121.471779 180.062353,121.448322 C181.312205,121.447959 182.555311,121.26482 183.752353,120.904698 C184.161632,120.768745 184.467422,120.424379 184.554535,120.001318 C184.641648,119.578257 184.496849,119.140775 184.174682,118.853667 C183.852516,118.566559 183.401926,118.473443 182.992647,118.609396 L183.137353,119.044295 L182.992647,118.609396 L183.137353,119.044295 L182.992647,118.609396 C182.036488,118.887774 181.046011,119.030106 180.050294,119.032215 C178.834464,119.063623 177.632023,118.77185 176.565294,118.186577 C176.191484,117.948519 175.717484,117.93493 175.330696,118.151184 C174.943909,118.367437 174.706601,118.778719 174.712596,119.222423 C174.718591,119.666127 174.966923,120.070823 175.359412,120.27651 L175.359412,120.240268 Z" id="Shape" fill="#FFFFFF"></path>
            <path d="M203.010294,125.44698 L198.584706,124.238926 C197.942025,124.058785 197.275259,124.434686 197.095441,125.078524 C196.915624,125.722361 197.290849,126.390329 197.933529,126.57047 L202.359118,127.778523 C202.774859,127.895054 203.221077,127.780539 203.529685,127.478113 C203.838293,127.175687 203.962407,126.731298 203.855273,126.312341 C203.74814,125.893385 203.426036,125.563511 203.010294,125.44698" id="Shape" fill="#2D9693"></path>
            <path d="M196.185,111.808054 L192.796471,113.716779 C192.217059,114.050373 192.017299,114.791357 192.350294,115.371812 C192.683289,115.952267 193.422941,116.152387 194.002353,115.818792 L197.390882,113.910067 C197.765696,113.694269 197.997118,113.294543 197.997974,112.861461 C197.99883,112.42838 197.768991,112.027738 197.395033,111.810454 C197.021076,111.593171 196.559814,111.592256 196.185,111.808054" id="Shape" fill="#2D9693"></path>
            <path d="M191.445882,134.616107 L189.625,131.378523 C189.292005,130.798069 188.552353,130.597949 187.972941,130.931544 C187.393529,131.265138 187.193769,132.006122 187.526765,132.586577 L189.347647,135.824161 C189.563057,136.19965 189.962065,136.431488 190.394368,136.432346 C190.826671,136.433204 191.226593,136.20295 191.443486,135.828319 C191.660379,135.453688 191.661292,134.991596 191.445882,134.616107" id="Shape" fill="#2D9693"></path>
            <path d="M109.180588,38.4067114 C110.781531,34.9679925 111.835363,31.2994371 112.303824,27.5342282 C113.413235,20.285906 109.723235,11.5516779 107.01,11.1288591 C104.296765,10.7060403 98.0985294,18.1718121 97.0132353,25.166443 C96.3100275,28.9270235 96.3100275,32.7857281 97.0132353,36.5463087 L109.180588,38.4067114" id="Shape" fill="#2D9693"></path>
            <path d="M96.1932353,25.1422819 C94.2042711,25.1453212 92.3824626,26.2575435 91.4680488,28.0270294 C90.553635,29.7965153 90.6987601,31.9288498 91.8444568,33.5576207 C92.9901535,35.1863916 94.9457956,36.0405966 96.9167647,35.7731544 C96.3909034,32.2667122 96.4234647,28.6989083 97.0132353,25.2026846 C96.7418462,25.1615711 96.4677084,25.1413776 96.1932353,25.1422819" id="Shape" fill="#F7DCDC"></path>
            <path d="M97.0132353,25.2026846 C96.4234647,28.6989083 96.3909034,32.2667122 96.9167647,35.7731544 C99.5444196,35.419941 101.513477,33.1856691 101.537715,30.5298024 C101.561954,27.8739358 99.6340043,25.6039699 97.0132353,25.2026846" id="Shape" fill="#2C817F"></path>
            <path d="M107.612941,48.6751678 L107.793824,47.4671141 L96.8685294,45.7758389 L98.0744118,37.8872483 L107.805882,39.3973154 L106.407059,48.4818792 L107.612941,48.6630872 L107.793824,47.4550336 L107.612941,48.6630872 L108.818824,48.8442953 L110.398529,38.5758389 C110.446933,38.2585833 110.367332,37.9350717 110.177293,37.6766971 C109.987254,37.4183225 109.702398,37.2463237 109.385588,37.1986577 L97.2664706,35.3261745 C96.9497852,35.2776835 96.6268551,35.3574277 96.3689449,35.547809 C96.1110346,35.7381903 95.939345,36.023559 95.8917647,36.3409396 L94.3120588,46.609396 C94.263655,46.9266516 94.3432558,47.2501632 94.5332949,47.5085378 C94.723334,47.7669124 95.0081899,47.9389112 95.325,47.9865772 L107.444118,49.8590604 C107.760803,49.9075514 108.083733,49.8278072 108.341643,49.6374259 C108.599554,49.4470446 108.771243,49.1616759 108.818824,48.8442953 L107.612941,48.6751678 Z" id="Shape" fill="#662059"></path>
            <path d="M100.353529,47.6120805 L99.7144118,53.4832215 C99.6411529,54.1504111 100.121657,54.7507702 100.787647,54.824161 C101.453637,54.8975519 102.052917,54.4161829 102.126176,53.7489933 L102.765294,47.8778523 C102.838553,47.2106627 102.358049,46.6103037 101.692059,46.5369128 C101.026068,46.463522 100.426788,46.9448909 100.353529,47.6120805" id="Shape" fill="#662059"></path>
            <path d="M96.0967647,42.852349 L108.215882,44.7127517 C108.881873,44.8161661 109.505448,44.3591359 109.608676,43.6919463 C109.711905,43.0247567 109.255696,42.4000587 108.589706,42.2966443 L96.4705882,40.4241611 C95.8045979,40.3207468 95.1810229,40.777777 95.0777944,41.4449665 C94.9745659,42.112156 95.4307744,42.7368539 96.0967647,42.8402685" id="Shape" fill="#662059"></path>
            <path d="M113.509706,27.6912752 C113.656438,26.7197015 113.729001,25.738333 113.726765,24.7557047 C113.700974,21.4580001 113.03757,18.1965455 111.773235,15.1516779 C111.280605,13.9269635 110.627736,12.7732457 109.831765,11.7208054 C109.485043,11.2663436 109.079527,10.8600973 108.625882,10.5127517 C108.200108,10.178989 107.699086,9.95498996 107.166765,9.86040268 L106.756765,9.86040268 C106.15961,9.87793342 105.574176,10.0307506 105.044412,10.3073826 C103.990759,10.8716743 103.037347,11.6063889 102.222647,12.4818792 C98.9282942,15.9256794 96.7000939,20.2516401 95.8073529,24.9369128 C95.4938359,26.9351605 95.3325859,28.9544149 95.325,30.9771812 C95.2861373,32.9210311 95.472281,34.8628441 95.8797059,36.7637584 C96.0462036,37.4109322 96.7048717,37.8003542 97.3508823,37.6335568 C97.9968929,37.4667594 98.3856151,36.8069054 98.2191176,36.1597315 L97.9417647,36.2322148 L98.2191176,36.1597315 L97.9417647,36.2322148 L98.2191176,36.1597315 C97.8654508,34.4557105 97.7036554,32.7173302 97.7367647,30.9771812 C97.7437916,29.0635619 97.896984,27.1532869 98.195,25.2630872 C98.8159692,21.9804701 100.181599,18.8847034 102.186471,16.2147651 C102.983867,15.097931 103.915372,14.0836028 104.96,13.1946309 C105.331474,12.8954198 105.736099,12.6400473 106.165882,12.433557 C106.369947,12.3188159 106.596015,12.2488144 106.829118,12.2281879 C106.971575,12.2665736 107.103503,12.3367867 107.215,12.433557 C107.750243,12.8893336 108.199517,13.4376169 108.541471,14.052349 C110.342074,17.3103662 111.291949,20.9712701 111.302941,24.695302 C111.304131,25.5566908 111.239629,26.416912 111.11,27.2684564 C111.043223,27.7000524 111.211358,28.1345529 111.551071,28.4082857 C111.890784,28.6820186 112.350463,28.7533972 112.756953,28.595534 C113.163443,28.4376709 113.454988,28.074549 113.521765,27.642953 L113.509706,27.6912752 Z" id="Shape" fill="#662059"></path>
            <path d="M110.302059,38.8899329 C110.302059,38.8899329 110.663824,38.0563758 111.097941,36.9449664 C111.565829,35.7599404 111.968397,34.5500647 112.303824,33.3208054 C112.470321,32.6736314 112.081599,32.0137773 111.435588,31.8469799 C110.789578,31.6801825 110.130909,32.0696046 109.964412,32.7167785 C109.624914,33.8696257 109.222344,35.0028827 108.758529,36.1114094 C108.553529,36.642953 108.360588,37.114094 108.215882,37.4402685 L107.998824,37.9718121 C107.798899,38.3712031 107.835343,38.8485269 108.093575,39.2128111 C108.351807,39.5770952 108.789655,39.7688487 109.23194,39.7113528 C109.674225,39.653857 110.048718,39.3565014 110.205588,38.938255 L110.302059,38.8899329 Z" id="Shape" fill="#662059"></path>
            <path d="M107.504412,1.22281879 L106.768824,5.77718121 C106.702046,6.20877727 106.870182,6.64327785 107.209894,6.91701075 C107.549607,7.19074365 108.009287,7.26212231 108.415777,7.10425909 C108.822267,6.94639587 109.113811,6.58327394 109.180588,6.15167785 L109.88,1.59731544 C109.983229,0.930125806 109.52702,0.305427816 108.861029,0.202013423 C108.195039,0.0985990301 107.571464,0.555629161 107.468235,1.22281879" id="Shape" fill="#2D9693"></path>
            <path d="M94.8064706,9.67919463 L97.0976471,12.8201342 C97.5053587,13.3102382 98.2232065,13.3982461 98.7368607,13.0211012 C99.2505148,12.6439563 99.3828798,11.931689 99.0391176,11.3946309 L96.7479412,8.25369128 C96.3402296,7.76358728 95.6223817,7.67557939 95.1087275,8.05272428 C94.5950734,8.42986916 94.4627084,9.14213648 94.8064706,9.67919463" id="Shape" fill="#2D9693"></path>
            <path d="M88.1138235,21.4214765 L91.8279412,22.6899329 C92.4487608,22.8785745 93.1072976,22.5413559 93.3182834,21.9267694 C93.5292692,21.312183 93.2170801,20.6405157 92.6117647,20.4067114 L88.8976471,19.138255 C88.2768274,18.9496134 87.6182906,19.286832 87.4073048,19.9014185 C87.196319,20.5160049 87.5085081,21.1876722 88.1138235,21.4214765" id="Shape" fill="#2D9693"></path>
            <path d="M117.983529,11.6362416 L114.992941,13.8348993 C114.615175,14.0775732 114.40317,14.5103251 114.442663,14.9581501 C114.482155,15.4059752 114.766611,15.7947877 115.180997,15.9673519 C115.595382,16.139916 116.071143,16.0676838 116.415882,15.7798658 L119.406471,13.5812081 C119.784237,13.3385342 119.996241,12.9057823 119.956749,12.4579572 C119.917256,12.0101322 119.6328,11.6213197 119.218415,11.4487555 C118.80403,11.2761913 118.328268,11.3484236 117.983529,11.6362416" id="Shape" fill="#2D9693"></path>
            <path d="M121.975,26.157047 L118.200588,26.2416107 C117.534598,26.2416107 116.994706,26.7824748 116.994706,27.4496644 C116.994706,28.1168541 117.534598,28.6577181 118.200588,28.6577181 L121.975,28.5731544 C122.64099,28.5731544 123.180882,28.0322903 123.180882,27.3651007 C123.180882,26.697911 122.64099,26.157047 121.975,26.157047" id="Shape" fill="#2D9693"></path>
            <path d="M113.075588,90.8604027 C116.08103,88.5416957 118.705471,85.7657851 120.853529,82.633557 C125.146471,76.7624161 125.918235,67.2550336 123.711471,65.6362416 C121.504706,64.0174497 112.557059,67.7624161 108.384706,73.4765101 C106.041403,76.499447 104.279054,79.9321802 103.187353,83.6 L113.075588,90.8483221" id="Shape" fill="#FB5956"></path>
            <path d="M105.189118,72.4979866 C102.585656,72.4833746 100.352628,74.3551165 99.9076752,76.9249335 C99.4627224,79.4947505 100.936067,82.0105482 103.392353,82.8751678 C104.537258,79.5201518 106.206023,76.368255 108.336471,73.5369128 C107.424977,72.8628633 106.322048,72.498792 105.189118,72.4979866" id="Shape" fill="#F7DCDC"></path>
            <path d="M108.336471,73.5248322 C106.206023,76.3561744 104.537258,79.5080713 103.392353,82.8630872 C105.88693,83.7608256 108.66095,82.685742 109.902966,80.3398702 C111.144983,77.9939984 110.477536,75.0902705 108.336471,73.5248322" id="Shape" fill="#F34D4A"></path>
            <path d="M106.937647,99.2442953 L107.649118,98.2657718 L98.7255882,91.7181208 L103.440588,85.2791946 L111.387353,91.114094 L105.960882,98.5194631 L106.937647,99.2322148 L107.649118,98.2536913 L106.937647,99.2322148 L107.914412,99.9449664 L114.052353,91.5610738 C114.241712,91.3017837 114.320174,90.9776097 114.27039,90.6602296 C114.220605,90.3428494 114.046676,90.0584083 113.787059,89.8697987 L103.898824,82.6214765 C103.639999,82.4317762 103.316408,82.3531731 102.999598,82.4030471 C102.682789,82.4529212 102.398859,82.6271637 102.210588,82.8872483 L96.0726471,91.2711409 C95.8832877,91.5304311 95.8048259,91.854605 95.8546103,92.1719852 C95.9043947,92.4893654 96.0783241,92.7738065 96.3379412,92.9624161 L106.226176,100.210738 C106.485001,100.400439 106.808592,100.479042 107.125402,100.429168 C107.442211,100.379294 107.726141,100.205051 107.914412,99.9449664 L106.937647,99.2442953 Z" id="Shape" fill="#662059"></path>
            <path d="M100.980588,94.9436242 L96.7358824,101.334228 C96.4673152,101.691939 96.4181883,102.169094 96.608218,102.574191 C96.7982477,102.979289 97.1962837,103.245925 97.6425792,103.267088 C98.0888748,103.288251 98.5102715,103.060472 98.7376471,102.675168 L102.982353,96.2845638 C103.25092,95.9268526 103.300047,95.4496983 103.110017,95.0446007 C102.919988,94.6395031 102.521952,94.3728672 102.075656,94.3517041 C101.629361,94.330541 101.207964,94.5583197 100.980588,94.9436242" id="Shape" fill="#662059"></path>
            <path d="M99.4008824,88.7583893 L104.345,92.3825503 C104.689739,92.6703683 105.1655,92.7426006 105.579886,92.5700364 C105.994271,92.3974723 106.278727,92.0086598 106.31822,91.5608347 C106.357712,91.1130096 106.145708,90.6802577 105.767941,90.4375839 L100.823824,86.8134228 C100.479084,86.5256048 100.003323,86.4533726 99.5889379,86.6259367 C99.1745525,86.7985009 98.8900966,87.1873134 98.850604,87.6351385 C98.8111114,88.0829635 99.0231157,88.5157154 99.4008824,88.7583893" id="Shape" fill="#662059"></path>
            <path d="M113.738824,91.8268456 C116.857774,89.4497416 119.584209,86.5960981 121.818235,83.3704698 C123.271421,81.3185387 124.368128,79.0354049 125.062059,76.6174497 C125.725196,74.447335 126.078404,72.1941174 126.111176,69.9248322 C126.12797,68.907081 126.010383,67.8915718 125.761471,66.904698 C125.571257,66.0336262 125.095877,65.2512374 124.410882,64.6818792 C123.747646,64.2428158 122.961962,64.0269983 122.167941,64.0657718 C120.978109,64.1073189 119.802147,64.3355972 118.682941,64.7422819 C116.544901,65.4790773 114.516583,66.5031906 112.653529,67.7865772 C110.620646,69.1429964 108.827483,70.8291556 107.347647,72.7758389 C104.901421,75.9379013 103.068953,79.5315809 101.945294,83.3704698 C101.795446,84.0209797 102.200365,84.6700166 102.849706,84.8201342 C103.499047,84.9702519 104.146917,84.5646038 104.296765,83.914094 C105.359553,80.4149443 107.051439,77.1397136 109.289118,74.2496644 C111.920671,70.9572805 115.42191,68.4710269 119.394412,67.0738255 C120.269777,66.7541683 121.188882,66.570831 122.119706,66.5302013 C122.397144,66.5045882 122.676329,66.5546816 122.927647,66.6751678 C123.163859,66.9317264 123.322731,67.2500437 123.385882,67.5932886 C123.580111,68.3834441 123.669314,69.1958382 123.651176,70.009396 C123.619226,72.0577218 123.298506,74.0912483 122.698529,76.0496644 C122.084426,78.2113845 121.110016,80.2535709 119.816471,82.0899329 C118.223858,84.2998181 116.431593,86.3581644 114.462353,88.2389262 C113.787059,88.8791946 113.256471,89.3261745 112.870588,89.6281879 L112.460588,89.9422819 L112.364118,90.0147651 C112.006537,90.2564588 111.804829,90.6709037 111.834975,91.1019823 C111.865121,91.5330609 112.122542,91.9152822 112.510269,92.104667 C112.897996,92.2940518 113.357125,92.2618281 113.714706,92.0201342 L113.738824,91.8268456 Z" id="Shape" fill="#662059"></path>
            <path d="M128.679706,57.095302 L125.966471,60.8040268 C125.622708,61.341085 125.755073,62.0533523 126.268728,62.4304972 C126.782382,62.8076421 127.50023,62.7196342 127.907941,62.2295302 L130.621176,58.5208054 C130.964939,57.9837472 130.832574,57.2714799 130.31892,56.894335 C129.805265,56.5171901 129.087417,56.605198 128.679706,57.095302" id="Shape" fill="#FB5956"></path>
            <path d="M113.533824,58.714094 L114.124706,62.5557047 C114.189329,62.9873008 114.478883,63.351574 114.884296,63.511306 C115.289709,63.6710381 115.749388,63.601962 116.090178,63.330098 C116.430968,63.0582339 116.601094,62.6248846 116.536471,62.1932886 L115.945588,58.3516779 C115.880965,57.9200818 115.591411,57.5558087 115.185998,57.3960767 C114.780586,57.2363447 114.320906,57.3054208 113.980116,57.5772847 C113.639326,57.8491487 113.4692,58.2824979 113.533824,58.714094" id="Shape" fill="#FB5956"></path>
            <path d="M102.186471,66.0590604 L104.899706,68.8979866 C105.196972,69.2108938 105.638291,69.3411569 106.057422,69.239707 C106.476554,69.1382571 106.809822,68.8205069 106.931687,68.4061498 C107.053553,67.9917928 106.945501,67.5437796 106.648235,67.2308725 L103.935,64.3919463 C103.475467,63.9082338 102.71152,63.8893036 102.228676,64.3496644 C101.745833,64.8100253 101.726937,65.5753479 102.186471,66.0590604" id="Shape" fill="#FB5956"></path>
            <path d="M133.189706,71.1812081 L129.572059,71.7489933 C128.906068,71.8490718 128.44716,72.4710655 128.547059,73.138255 C128.646958,73.8054445 129.267833,74.265179 129.933824,74.1651007 L133.551471,73.5973154 C134.217461,73.4972369 134.676369,72.8752433 134.57647,72.2080537 C134.476572,71.5408642 133.855696,71.0811297 133.189706,71.1812081" id="Shape" fill="#FB5956"></path>
            <path d="M130.886471,84.2644295 L127.497941,82.5973154 C126.89855,82.3037521 126.175095,82.5525496 125.882059,83.1530202 C125.589023,83.7534908 125.837373,84.4782486 126.436765,84.7718121 L129.825294,86.4389262 C130.424685,86.7324895 131.148141,86.4836921 131.441176,85.8832214 C131.734212,85.2827508 131.485862,84.557993 130.886471,84.2644295" id="Shape" fill="#FB5956"></path>
            <path d="M136.626471,137.503356 C138.572485,140.754558 141.0137,143.681139 143.861765,146.177181 C149.203824,151.118121 158.537353,152.954362 160.406471,150.936913 C162.275588,148.919463 159.550294,139.593289 154.377059,134.797315 C151.642655,132.126965 148.436907,129.988682 144.922941,128.491275 L136.602353,137.515436" id="Shape" fill="#FB5956"></path>
            <path d="M150.445882,125.773154 C148.400389,125.760601 146.527335,126.919294 145.622353,128.757047 C148.822041,130.276318 151.760754,132.294714 154.328824,134.736913 C155.766745,133.178291 156.146737,130.91451 155.296765,128.970464 C154.446793,127.026417 152.528241,125.771224 150.409706,125.773154" id="Shape" fill="#F7DCDC"></path>
            <path d="M145.658529,128.769128 C144.475839,131.152643 145.226057,134.04477 147.417459,135.549891 C149.608862,137.055012 152.572122,136.713414 154.365,134.748993 C151.79693,132.306795 148.858217,130.288398 145.658529,128.769128" id="Shape" fill="#F34D4A"></path>
            <path d="M129.005294,130.484564 L129.885588,131.30604 L137.386176,123.163758 L143.234706,128.575839 L136.554118,135.824161 L129.813235,129.590604 L128.993235,130.472483 L129.873529,131.29396 L128.993235,130.472483 L128.173235,131.354362 L135.794412,138.409396 C136.284426,138.858345 137.044534,138.825942 137.494706,138.336913 L145.815294,129.312752 C146.263436,128.821855 146.231091,128.060378 145.742941,127.609396 L138.121765,120.530201 C137.631751,120.081252 136.871642,120.113656 136.421471,120.602685 L128.100882,129.626846 C127.65274,130.117742 127.685085,130.879219 128.173235,131.330201 L129.005294,130.484564 Z" id="Shape" fill="#662059"></path>
            <path d="M133.937353,125.012081 L128.076765,120.071141 C127.567282,119.640804 126.806034,119.705707 126.376471,120.216107 C125.946907,120.726507 126.011694,121.489126 126.521176,121.919463 L132.381765,126.860403 C132.891247,127.29074 133.652495,127.225836 134.082059,126.715436 C134.511623,126.205036 134.446836,125.442418 133.937353,125.012081" id="Shape" fill="#662059"></path>
            <path d="M140.256176,124.130201 L131.935588,133.154362 C131.482715,133.644747 131.512409,134.410069 132.001912,134.863758 C132.491415,135.317447 133.255362,135.2877 133.708235,134.797315 L142.028824,125.773154 C142.481697,125.28277 142.452003,124.517447 141.9625,124.063758 C141.472997,123.61007 140.70905,123.639817 140.256176,124.130201" id="Shape" fill="#662059"></path>
            <path d="M155.221176,133.891275 C152.366659,131.106337 149.01689,128.881429 145.345,127.331544 C144.937875,127.186959 144.484679,127.270947 144.156128,127.55187 C143.827576,127.832793 143.673583,128.267973 143.752157,128.693481 C143.830731,129.118989 144.129934,129.47018 144.537059,129.614765 C147.889701,131.060549 150.9506,133.107551 153.569118,135.655034 C154.058621,136.108722 154.822568,136.078975 155.275441,135.588591 C155.728315,135.098206 155.698621,134.332884 155.209118,133.879195 L155.221176,133.891275 Z" id="Shape" fill="#662059"></path>
            <path d="M135.553235,138.05906 C137.573572,141.436708 140.113003,144.47402 143.077941,147.05906 C145.198196,148.95357 147.65168,150.436505 150.313235,151.432215 C152.598921,152.350156 155.027058,152.861188 157.488235,152.942282 C158.191165,152.953151 158.892498,152.871926 159.574412,152.700671 C160.219282,152.548538 160.808465,152.217834 161.274706,151.746309 C161.627127,151.345828 161.875626,150.86453 161.998235,150.344966 C162.126708,149.81932 162.187496,149.279363 162.179118,148.738255 C162.13506,147.18068 161.86284,145.638036 161.371176,144.159732 C160.806242,142.373913 160.054416,140.652938 159.128235,139.025503 C158.912825,138.650015 158.513817,138.418176 158.081514,138.417318 C157.649211,138.416461 157.24929,138.646714 157.032396,139.021345 C156.815503,139.395976 156.81459,139.858069 157.03,140.233557 C157.871323,141.711693 158.554427,143.274728 159.067941,144.896644 C159.485108,146.140764 159.720678,147.438733 159.767353,148.750336 C159.772551,149.083779 159.736092,149.416564 159.658824,149.74094 C159.631119,149.876819 159.573438,150.004773 159.49,150.115436 C159.331129,150.250558 159.140014,150.342125 158.935294,150.381208 C158.457655,150.496016 157.967259,150.548798 157.476176,150.538255 C155.311966,150.453378 153.178521,149.99568 151.169412,149.185235 C148.776281,148.305466 146.567934,146.986266 144.657647,145.295302 C142.647506,143.454891 140.810828,141.432929 139.170882,139.255034 C138.616176,138.50604 138.230294,137.914094 137.965,137.515436 L137.699706,137.068456 L137.699706,136.959732 C137.520809,136.544366 137.125254,136.26394 136.674739,136.233086 C136.224223,136.202231 135.794254,136.42612 135.560595,136.813231 C135.326936,137.200342 135.32875,137.685793 135.565294,138.071141 L135.553235,138.05906 Z" id="Shape" fill="#662059"></path>
            <path d="M168.353235,156.844295 L164.976765,153.715436 C164.660112,153.421951 164.211221,153.319996 163.799186,153.447976 C163.387151,153.575957 163.074568,153.91443 162.979186,154.335896 C162.883803,154.757362 163.020112,155.19779 163.336765,155.491275 L166.713235,158.620134 C167.202738,159.073823 167.966685,159.044076 168.419559,158.553691 C168.872432,158.063307 168.842738,157.297984 168.353235,156.844295" id="Shape" fill="#FB5956"></path>
            <path d="M168.461765,141.586577 L164.578824,141.743624 C163.912833,141.770312 163.394537,142.33281 163.421176,143 C163.447816,143.66719 164.009304,144.186419 164.675294,144.159732 L168.558235,144.002685 C168.989056,143.985421 169.377956,143.739215 169.578442,143.35681 C169.778928,142.974404 169.760541,142.513897 169.530207,142.148756 C169.299873,141.783615 168.892585,141.569313 168.461765,141.586577" id="Shape" fill="#FB5956"></path>
            <path d="M162.456471,129.457718 L159.333235,131.873826 C158.837492,132.28764 158.75478,133.019084 159.145557,133.533508 C159.536334,134.047933 160.262098,134.163013 160.792353,133.794631 L163.915588,131.378523 C164.411331,130.964709 164.494043,130.233265 164.103267,129.718841 C163.71249,129.204416 162.986726,129.089336 162.456471,129.457718" id="Shape" fill="#FB5956"></path>
            <path d="M153.882647,159.743624 L153.737941,156.022819 C153.720708,155.591223 153.474945,155.201622 153.093227,155.000775 C152.711509,154.799927 152.25183,154.818348 151.887345,155.049097 C151.52286,155.279846 151.308944,155.687867 151.326176,156.119463 L151.470882,159.840268 C151.488115,160.271864 151.733879,160.661466 152.115596,160.862313 C152.497314,161.06316 152.956994,161.044739 153.321479,160.813991 C153.685964,160.583242 153.89988,160.17522 153.882647,159.743624" id="Shape" fill="#FB5956"></path>
            <path d="M141.160588,155.986577 L143.198529,152.797315 C143.459257,152.434736 143.498896,151.957585 143.301582,151.556816 C143.104268,151.156048 142.702235,150.897133 142.256376,150.883688 C141.810516,150.870243 141.393666,151.104464 141.172647,151.492617 L139.122647,154.645638 C138.861919,155.008217 138.82228,155.485368 139.019594,155.886137 C139.216908,156.286905 139.618941,156.54582 140.064801,156.559265 C140.510661,156.57271 140.927511,156.338489 141.148529,155.950336" id="Shape" fill="#FB5956"></path>
            <path d="M161.117941,81.8724832 C162.663417,78.4005399 163.656245,74.7074179 164.060294,70.9275168 C165.049118,63.6791946 161.214412,54.9932886 158.489118,54.6067114 C155.763824,54.2201342 149.686176,61.8550336 148.733529,68.8134228 C148.109859,72.5889488 148.191638,76.4476834 148.974706,80.1932886 L161.13,81.8724832" id="Shape" fill="#F4C95E"></path>
            <path d="M147.997941,68.8738255 C146.000369,68.8816467 144.174854,70.0077819 143.268706,71.7912261 C142.362557,73.5746702 142.527914,75.7159913 143.697083,77.3385985 C144.866252,78.9612057 146.842936,79.7926707 148.817941,79.4926174 C148.23217,75.9957546 148.203679,72.4279515 148.733529,68.9221477 C148.488621,68.9053299 148.24285,68.9053299 147.997941,68.9221477" id="Shape" fill="#F7DCDC"></path>
            <path d="M148.721471,68.8738255 C148.19162,72.3796294 148.220112,75.9474325 148.805882,79.4442953 C151.426944,79.0458521 153.357285,76.7781696 153.336077,74.1224153 C153.314869,71.4666611 151.34856,69.2302079 148.721471,68.8738255" id="Shape" fill="#ECAD51"></path>
            <path d="M159.707059,92.1771812 L159.875882,90.9691275 L148.974706,89.4107383 L150.06,81.5100671 L159.815588,82.8510067 L158.609706,91.947651 L159.815588,92.1167785 L159.984412,90.9087248 L159.815588,92.1167785 L161.021471,92.285906 L162.432353,81.9932886 C162.525487,81.3327979 162.066629,80.7216877 161.407353,80.6281879 L149.252059,78.9489933 C148.592755,78.8556916 147.982744,79.3153762 147.889412,79.9758389 L146.478529,90.2684564 C146.385395,90.9289471 146.844254,91.5400572 147.503529,91.633557 L159.658824,93.3127517 C160.318127,93.4060534 160.928139,92.9463687 161.021471,92.285906 L159.707059,92.1771812 Z" id="Shape" fill="#662059"></path>
            <path d="M152.435588,91.2228188 L151.736176,98.8697987 C151.676237,99.5369883 152.167539,100.12653 152.833529,100.186577 C153.49952,100.246624 154.088002,99.754438 154.147941,99.0872483 L154.847353,91.4402685 C154.886127,91.0086724 154.692115,90.5891384 154.338401,90.3397009 C153.984687,90.0902633 153.525007,90.0488176 153.132519,90.230976 C152.74003,90.4131344 152.474362,90.7912228 152.435588,91.2228188" id="Shape" fill="#662059"></path>
            <path d="M148.106471,86.547651 L160.249706,88.2026846 C160.915696,88.292755 161.528473,87.8249076 161.618382,87.1577181 C161.708291,86.4905285 161.241284,85.8766479 160.575294,85.7865772 L148.42,84.1073826 C147.75401,84.0173121 147.141232,84.4851595 147.051324,85.152349 C146.961415,85.8195386 147.428421,86.4334192 148.094412,86.5234899" id="Shape" fill="#662059"></path>
            <path d="M162.239412,82.4402685 C163.848686,78.8478878 164.882364,75.0237305 165.302353,71.1087248 C165.417194,70.2518234 165.473599,69.3880766 165.471176,68.5234899 C165.43873,65.1621221 164.741989,61.840484 163.421176,58.7503356 C162.903532,57.5016675 162.222253,56.3275955 161.395294,55.2590604 C161.04762,54.8054349 160.642222,54.3993068 160.189412,54.0510067 C159.755226,53.7183891 159.245704,53.4984435 158.706176,53.4107383 L158.344412,53.4107383 C157.745931,53.4294465 157.159877,53.5865602 156.632059,53.8697987 C155.570728,54.4377837 154.612671,55.1811039 153.798235,56.0684564 C150.547019,59.5709918 148.381166,63.9440721 147.563824,68.6563758 C147.310055,70.4776134 147.181126,72.3141274 147.177941,74.1530201 C147.132062,76.2979424 147.350776,78.4403313 147.829118,80.5315436 C148.005605,81.1753816 148.669672,81.5539864 149.312353,81.3771811 C149.955034,81.2003759 150.332958,80.5351131 150.156471,79.8912752 L149.939412,79.9516779 L150.156471,79.9516779 L149.939412,80.0120805 L150.156471,80.0120805 C149.739571,78.1288526 149.549295,76.2023846 149.589706,74.2738255 C149.592952,72.5481177 149.713822,70.8246459 149.951471,69.1154362 C150.520869,65.8147504 151.841252,62.6897277 153.810294,59.9825503 C154.589406,58.8550441 155.504793,57.8284521 156.535588,56.9261745 C156.882852,56.6261096 157.263154,56.3667143 157.669118,56.1530201 C157.865165,56.039834 158.083047,55.9698214 158.308235,55.947651 C158.454658,55.985132 158.590707,56.0553442 158.706176,56.1530201 C159.262854,56.6131156 159.732559,57.1695931 160.092941,57.7959732 C161.978739,61.1095093 162.979694,64.8542468 162.999118,68.6684564 C163.002217,69.4238969 162.953869,70.1786693 162.854412,70.9275168 C162.504503,73.6304283 161.907083,76.2953531 161.069706,78.8885906 C160.780294,79.7704698 160.515,80.4348993 160.322059,80.8697987 L160.105,81.3530201 L160.105,81.461745 C159.892449,81.8449045 159.903759,82.3133457 160.134554,82.6857622 C160.365348,83.0581787 160.779408,83.2761275 161.216476,83.2552533 C161.653543,83.2343791 162.045029,82.9779577 162.239412,82.5852349 L162.239412,82.4402685 Z" id="Shape" fill="#662059"></path>
            <path d="M157.801765,73.3436242 C158.225943,72.2922882 158.439027,71.1674789 158.428824,70.033557 C158.403235,68.2731185 158.013143,66.5371682 157.283235,64.9355705 C156.9902,64.3350998 156.266744,64.0863023 155.667353,64.3798658 C155.067962,64.6734292 154.819611,65.3981871 155.112647,65.9986577 L155.377941,65.8657718 L155.112647,65.9986577 L155.377941,65.8657718 L155.112647,65.9986577 C155.678795,67.2700438 155.986257,68.6417422 156.017059,70.033557 C156.030465,70.8606594 155.87877,71.6821084 155.570882,72.4496644 C155.314476,73.0668148 155.606018,73.7753468 156.222059,74.0322148 C156.8381,74.2890828 157.545358,73.9970162 157.801765,73.3798658 L157.801765,73.3436242 Z" id="Shape" fill="#FFFFFF"></path>
            <path d="M158.814706,44.7127517 L158.187647,49.2791946 C158.129486,49.7107907 158.305583,50.1406862 158.649604,50.4069436 C158.993625,50.673201 159.453305,50.7353695 159.855487,50.5700309 C160.257668,50.4046922 160.541251,50.0369652 160.599412,49.6053691 L161.226471,45.0389262 C161.284631,44.6073301 161.108534,44.1774346 160.764513,43.9111772 C160.420492,43.6449198 159.960813,43.5827513 159.558631,43.7480899 C159.156449,43.9134286 158.872867,44.2811556 158.814706,44.7127517" id="Shape" fill="#F4C95E"></path>
            <path d="M146.261471,53.3744966 L148.600882,56.4671141 C149.013954,56.9637497 149.744082,57.0466109 150.257582,56.6551304 C150.771082,56.26365 150.885955,55.5365794 150.518235,55.0053691 L148.190882,51.9610738 C147.777811,51.4644382 147.047683,51.3815771 146.534183,51.7730575 C146.020682,52.164538 145.905809,52.8916086 146.273529,53.4228188" id="Shape" fill="#F4C95E"></path>
            <path d="M139.761765,65.2496644 L143.5,66.4577181 C143.914382,66.6105926 144.379032,66.5243354 144.711224,66.2328676 C145.043415,65.9413999 145.190012,65.4913442 145.093363,65.0596872 C144.996715,64.6280302 144.672281,64.2838189 144.247647,64.1624161 L140.509412,62.9543624 C140.095029,62.801488 139.630379,62.8877452 139.298188,63.1792129 C138.965996,63.4706806 138.8194,63.9207364 138.916049,64.3523934 C139.012697,64.7840503 139.337131,65.1282617 139.761765,65.2496644" id="Shape" fill="#F4C95E"></path>
            <path d="M169.474706,54.9691275 L166.520294,57.2161074 C166.024551,57.6299223 165.941839,58.3613655 166.332616,58.8757902 C166.723393,59.3902149 167.449156,59.5052949 167.979412,59.1369128 L170.933824,56.8899329 C171.298293,56.6367265 171.494595,56.2035212 171.444942,55.761983 C171.395289,55.3204448 171.107695,54.9418524 170.696126,54.7762302 C170.284557,54.6106081 169.815453,54.684693 169.474706,54.9691275" id="Shape" fill="#F4C95E"></path>
            <path d="M173.671176,67.5812081 L169.896765,67.7261745 C169.230774,67.7528621 168.712478,68.3153607 168.739118,68.9825503 C168.765757,69.6497399 169.327245,70.1689694 169.993235,70.1422819 L173.767647,69.9973154 C174.433637,69.9706278 174.951934,69.4081292 174.925294,68.7409396 C174.898654,68.07375 174.337167,67.5545205 173.671176,67.5812081" id="Shape" fill="#F4C95E"></path>
        </g>
    </g>
</svg>